<?xml version="1.0" encoding="utf-8"?>
<!-- Generator: Adobe Illustrator 18.1.1, SVG Export Plug-In . SVG Version: 6.00 Build 0)  -->
<svg version="1.1" xmlns="http://www.w3.org/2000/svg" xmlns:xlink="http://www.w3.org/1999/xlink" x="0px" y="0px"
	 viewBox="0 0 30.8 30.8" enable-background="new 0 0 30.8 30.8" xml:space="preserve">
<g id="圖層_1">
	<g>
		<path fill="#DBDCDC" d="M28.6,17.7H2.2c-0.8,0-1.5-0.7-1.5-1.5v-1.7c0-0.8,0.7-1.5,1.5-1.5h26.4c0.8,0,1.5,0.7,1.5,1.5v1.7
			C30,17,29.4,17.7,28.6,17.7z"/>
		<path fill="#B7B7B7" d="M28.6,18.4H2.2c-1.2,0-2.2-1-2.2-2.2v-1.7c0-1.2,1-2.2,2.2-2.2h26.4c1.2,0,2.2,1,2.2,2.2v1.7
			C30.8,17.5,29.8,18.4,28.6,18.4z M2.2,13.8c-0.4,0-0.7,0.3-0.7,0.7v1.7c0,0.4,0.3,0.7,0.7,0.7h26.4c0.4,0,0.7-0.3,0.7-0.7v-1.7
			c0-0.4-0.3-0.7-0.7-0.7H2.2z"/>
	</g>
</g>
<g id="圖層_2">
	<g>
		<path fill="#DBDCDC" d="M28.8,13.1H17.7V2c0-0.7-0.5-1.2-1.2-1.2h-2.2c-0.7,0-1.2,0.5-1.2,1.2v11.1H2c-0.7,0-1.2,0.5-1.2,1.2v2.2
			c0,0.7,0.5,1.2,1.2,1.2h11.1v11.1c0,0.7,0.5,1.2,1.2,1.2h2.2c0.7,0,1.2-0.5,1.2-1.2V17.7h11.1c0.7,0,1.2-0.5,1.2-1.2v-2.2
			C30,13.6,29.5,13.1,28.8,13.1z"/>
		<path fill="#B7B7B7" d="M16.5,30.8h-2.2c-1.1,0-2-0.9-2-2V18.4H2c-1.1,0-2-0.9-2-2v-2.2c0-1.1,0.9-2,2-2h10.4V2c0-1.1,0.9-2,2-2
			h2.2c1.1,0,2,0.9,2,2v10.4h10.4c1.1,0,2,0.9,2,2v2.2c0,1.1-0.9,2-2,2H18.4v10.4C18.4,29.9,17.6,30.8,16.5,30.8z M2,13.8
			c-0.2,0-0.5,0.2-0.5,0.5v2.2c0,0.2,0.2,0.5,0.5,0.5h11.1c0.4,0,0.8,0.3,0.8,0.8v11.1c0,0.2,0.2,0.5,0.5,0.5h2.2
			c0.2,0,0.5-0.2,0.5-0.5V17.7c0-0.4,0.3-0.8,0.8-0.8h11.1c0.2,0,0.5-0.2,0.5-0.5v-2.2c0-0.2-0.2-0.5-0.5-0.5H17.7
			c-0.4,0-0.8-0.3-0.8-0.8V2c0-0.2-0.2-0.5-0.5-0.5h-2.2c-0.2,0-0.5,0.2-0.5,0.5v11.1c0,0.4-0.3,0.8-0.8,0.8H2z"/>
	</g>
</g>
</svg>
