<?xml version="1.0" encoding="utf-8"?>
<!-- Generator: Adobe Illustrator 19.0.0, SVG Export Plug-In . SVG Version: 6.00 Build 0)  -->
<svg version="1.2" baseProfile="tiny" id="圖層_1"
	 xmlns="http://www.w3.org/2000/svg" xmlns:xlink="http://www.w3.org/1999/xlink" x="0px" y="0px" viewBox="-732 310 453.5 462"
	 xml:space="preserve">
<g id="XMLID_185_">
	<g id="XMLID_308_">
		<g id="XMLID_309_">
			<g id="XMLID_311_">
				<g>
					<path fill="#8C6239" d="M-363.5,772H-647c-47,0-85-38.1-85-85V403.5c0-47,38.1-85,85-85h283.5c47,0,85,38.1,85,85V687
						C-278.5,734-316.6,772-363.5,772z"/>
				</g>
				<g>
					<path fill="#BB7434" d="M-363.5,763.5H-647c-47,0-85-38.1-85-85V395c0-47,38.1-85,85-85h283.5c47,0,85,38.1,85,85v283.5
						C-278.5,725.5-316.6,763.5-363.5,763.5z"/>
				</g>
			</g>
			<path id="XMLID_310_" fill="#623F1E" d="M-382.2,729.4h-246.1c-38.4,0-69.6-31.2-69.6-69.6V413.7c0-38.4,31.2-69.6,69.6-69.6
				h246.1c38.4,0,69.6,31.2,69.6,69.6v246.1C-312.6,698.3-343.8,729.4-382.2,729.4z"/>
		</g>
	</g>
	<g id="XMLID_186_">
		<g id="XMLID_284_">
			<g>
				<path fill="#DBDCDC" d="M-437.4,676.9c-0.8,0-1.6-0.3-2.2-0.9c-0.6-0.6-0.9-1.4-0.8-2.2l0.5-14.2l-10.2-9.7
					c-0.9-0.9-1.2-2.2-0.7-3.3c0.5-1.1,1.5-1.9,2.8-1.9l0.1,0l13.8,0.6l9.3-10.2c0.6-0.6,1.3-1,2.2-1c0.8,0,1.6,0.3,2.2,0.9
					c0.6,0.6,0.9,1.4,0.8,2.2l-0.5,14.1l10.1,9.6c0.9,0.9,1.2,2.1,0.7,3.3c-0.5,1.1-1.5,1.9-2.7,1.9l-13.8-0.6l-9.3,10.3
					C-435.8,676.5-436.5,676.9-437.4,676.9z"/>
				<path fill="#DBDCDC" d="M-422.6,636.2c0.5,0,1,0.4,1,1l-0.5,14.5c0,0.3,0.1,0.6,0.3,0.8l10.4,9.9c0.6,0.6,0.2,1.7-0.6,1.7
					c0,0,0,0,0,0l-14.2-0.6c0,0,0,0,0,0c-0.3,0-0.5,0.1-0.7,0.3l-9.7,10.7c-0.2,0.2-0.5,0.3-0.7,0.3c-0.5,0-1-0.4-1-1l0.5-14.6
					c0-0.3-0.1-0.6-0.3-0.8l-10.5-10c-0.7-0.6-0.2-1.7,0.7-1.7c0,0,0,0,0,0l14.3,0.7c0,0,0,0,0,0c0.3,0,0.5-0.1,0.7-0.3l9.6-10.6
					C-423,636.3-422.8,636.2-422.6,636.2 M-422.6,632.2L-422.6,632.2c-1.4,0-2.7,0.6-3.7,1.6l-8.7,9.5l-12.8-0.6l-0.1,0l-0.1,0
					c-2,0-3.9,1.2-4.6,3.1c-0.8,1.9-0.3,4.1,1.2,5.5l9.5,9.1l-0.5,13.3c-0.1,1.4,0.4,2.7,1.4,3.7c0.9,1,2.2,1.5,3.6,1.5
					c1.4,0,2.7-0.6,3.7-1.6l8.7-9.6l12.7,0.6l0.1,0l0.1,0c2,0,3.8-1.2,4.6-3.1c0.8-1.9,0.3-4.1-1.2-5.5l-9.4-9l0.5-13.2
					c0.1-1.4-0.4-2.7-1.4-3.7C-419.9,632.7-421.2,632.2-422.6,632.2L-422.6,632.2z"/>
			</g>
			<g>
				<path fill="#DBDCDC" d="M-437.4,674c-0.8,0-1.6-0.3-2.2-0.9c-0.6-0.6-0.9-1.4-0.8-2.2l0.5-14.2l-10.2-9.7
					c-0.9-0.9-1.2-2.2-0.7-3.3c0.5-1.1,1.5-1.9,2.8-1.9l0.1,0l13.8,0.6l9.3-10.2c0.6-0.6,1.3-1,2.2-1c0.8,0,1.6,0.3,2.2,0.9
					c0.6,0.6,0.9,1.4,0.8,2.2l-0.5,14.1l10.1,9.6c0.9,0.9,1.2,2.1,0.7,3.3c-0.5,1.1-1.5,1.9-2.7,1.9l-13.8-0.6l-9.3,10.3
					C-435.8,673.7-436.5,674-437.4,674z"/>
				<path fill="#F7F7F7" d="M-422.6,633.3c0.5,0,1,0.4,1,1l-0.5,14.5c0,0.3,0.1,0.6,0.3,0.8l10.4,9.9c0.6,0.6,0.2,1.7-0.6,1.7
					c0,0,0,0,0,0l-14.2-0.6c0,0,0,0,0,0c-0.3,0-0.5,0.1-0.7,0.3l-9.7,10.7c-0.2,0.2-0.5,0.3-0.7,0.3c-0.5,0-1-0.4-1-1l0.5-14.6
					c0-0.3-0.1-0.6-0.3-0.8l-10.5-10c-0.7-0.6-0.2-1.7,0.7-1.7c0,0,0,0,0,0l14.3,0.7c0,0,0,0,0,0c0.3,0,0.5-0.1,0.7-0.3l9.6-10.6
					C-423,633.4-422.8,633.3-422.6,633.3 M-422.6,629.3L-422.6,629.3c-1.4,0-2.7,0.6-3.7,1.6l-8.7,9.5l-12.8-0.6l-0.1,0l-0.1,0
					c-2,0-3.9,1.2-4.6,3.1c-0.8,1.9-0.3,4.1,1.2,5.5l9.5,9.1l-0.5,13.3c-0.1,1.4,0.4,2.7,1.4,3.7c0.9,1,2.2,1.5,3.6,1.5
					c1.4,0,2.7-0.6,3.7-1.6l8.7-9.6l12.7,0.6l0.1,0l0.1,0c2,0,3.8-1.2,4.6-3.1c0.8-1.9,0.3-4.1-1.2-5.5l-9.4-9l0.5-13.2
					c0.1-1.4-0.4-2.7-1.4-3.7C-419.9,629.9-421.2,629.3-422.6,629.3L-422.6,629.3z"/>
			</g>
		</g>
		<g id="XMLID_263_">
			<g>
				<path fill="#DBDCDC" d="M-438.9,444.7c-0.7,0-1.4-0.3-1.9-0.8c-0.5-0.5-0.8-1.2-0.7-1.9l0.3-8.8l-6.3-6c-0.8-0.8-1-1.9-0.6-2.9
					c0.4-1,1.4-1.7,2.4-1.7l8.7,0.4l5.8-6.4c0.5-0.5,1.2-0.9,1.9-0.9c0.7,0,1.4,0.3,1.9,0.8c0.5,0.5,0.8,1.2,0.7,1.9l-0.3,8.8l6.3,6
					c0.8,0.8,1,1.9,0.6,2.9c-0.4,1-1.4,1.6-2.4,1.6l-8.6-0.4l-5.8,6.4C-437.5,444.4-438.2,444.7-438.9,444.7z"/>
				<path fill="#DBDCDC" d="M-429.3,417.7c0.3,0,0.7,0.3,0.6,0.7l-0.3,9.4c0,0.2,0.1,0.4,0.2,0.5l6.7,6.4c0.4,0.4,0.1,1.1-0.4,1.1
					c0,0,0,0,0,0l-9.1-0.4c0,0,0,0,0,0c-0.2,0-0.3,0.1-0.5,0.2l-6.3,6.9c-0.1,0.1-0.3,0.2-0.5,0.2c-0.3,0-0.7-0.3-0.6-0.7l0.4-9.4
					c0-0.2-0.1-0.4-0.2-0.5l-6.8-6.5c-0.4-0.4-0.1-1.1,0.4-1.1c0,0,0,0,0,0l9.2,0.4c0,0,0,0,0,0c0.2,0,0.3-0.1,0.5-0.2l6.2-6.8
					C-429.7,417.8-429.5,417.7-429.3,417.7 M-429.3,413.7L-429.3,413.7c-1.3,0-2.5,0.6-3.4,1.5l-5.2,5.7l-7.6-0.4l-0.1,0l-0.1,0
					c-1.9,0-3.6,1.1-4.3,2.9c-0.7,1.8-0.3,3.8,1.1,5.1l5.7,5.4l-0.3,7.9c0,1.3,0.4,2.5,1.3,3.4c0.9,0.9,2.1,1.4,3.3,1.4
					c1.3,0,2.5-0.6,3.4-1.5l5.2-5.7l7.6,0.3l0.1,0l0.1,0c1.9,0,3.6-1.1,4.3-2.9c0.7-1.8,0.3-3.8-1.1-5.1l-5.6-5.4l0.3-7.9
					c0-1.3-0.4-2.5-1.3-3.4C-426.9,414.3-428.1,413.7-429.3,413.7L-429.3,413.7z"/>
			</g>
			<g>
				<path fill="#DBDCDC" d="M-438.9,441.9c-0.7,0-1.4-0.3-1.9-0.8c-0.5-0.5-0.8-1.2-0.7-1.9l0.3-8.8l-6.3-6c-0.8-0.8-1-1.9-0.6-2.9
					c0.4-1,1.4-1.7,2.4-1.7l8.7,0.4l5.8-6.4c0.5-0.5,1.2-0.9,1.9-0.9c0.7,0,1.4,0.3,1.9,0.8c0.5,0.5,0.8,1.2,0.7,1.9l-0.3,8.8l6.3,6
					c0.8,0.8,1,1.9,0.6,2.9c-0.4,1-1.4,1.6-2.4,1.6l-8.6-0.4l-5.8,6.4C-437.5,441.6-438.2,441.9-438.9,441.9z"/>
				<path fill="#F7F7F7" d="M-429.3,414.9c0.3,0,0.7,0.3,0.6,0.7l-0.3,9.4c0,0.2,0.1,0.4,0.2,0.5l6.7,6.4c0.4,0.4,0.1,1.1-0.4,1.1
					c0,0,0,0,0,0l-9.1-0.4c0,0,0,0,0,0c-0.2,0-0.3,0.1-0.5,0.2l-6.3,6.9c-0.1,0.1-0.3,0.2-0.5,0.2c-0.3,0-0.7-0.3-0.6-0.7l0.4-9.4
					c0-0.2-0.1-0.4-0.2-0.5l-6.8-6.5c-0.4-0.4-0.1-1.1,0.4-1.1c0,0,0,0,0,0l9.2,0.4c0,0,0,0,0,0c0.2,0,0.3-0.1,0.5-0.2l6.2-6.8
					C-429.7,415-429.5,414.9-429.3,414.9 M-429.3,410.9L-429.3,410.9c-1.3,0-2.5,0.6-3.4,1.5l-5.2,5.7l-7.6-0.4l-0.1,0l-0.1,0
					c-1.9,0-3.6,1.1-4.3,2.9c-0.7,1.8-0.3,3.8,1.1,5.1l5.7,5.4l-0.3,7.9c0,1.3,0.4,2.5,1.3,3.4c0.9,0.9,2.1,1.4,3.3,1.4
					c1.3,0,2.5-0.6,3.4-1.5l5.2-5.7l7.6,0.3l0.1,0l0.1,0c1.9,0,3.6-1.1,4.3-2.9c0.7-1.8,0.3-3.8-1.1-5.1l-5.6-5.4l0.3-7.9
					c0-1.3-0.4-2.5-1.3-3.4C-426.9,411.4-428.1,410.9-429.3,410.9L-429.3,410.9z"/>
			</g>
		</g>
		<g id="XMLID_246_">
			<g>
				<path fill="#DBDCDC" d="M-607,629.6c-0.8,0-1.5-0.3-2-0.9c-0.5-0.6-0.8-1.3-0.8-2.1l0.4-11.5l-8.3-7.9c-0.8-0.8-1.1-2-0.7-3.1
					c0.4-1.1,1.4-1.8,2.6-1.8l0.1,0l11.2,0.5l7.6-8.3c0.5-0.6,1.3-0.9,2.1-0.9c0.8,0,1.5,0.3,2,0.9c0.5,0.6,0.8,1.3,0.8,2.1
					l-0.4,11.5l8.2,7.8c0.8,0.8,1.1,2,0.7,3.1c-0.4,1.1-1.4,1.8-2.6,1.8l-11.2-0.5l-7.6,8.4C-605.5,629.3-606.2,629.6-607,629.6z"/>
				<path fill="#DBDCDC" d="M-594.8,595.7c0.4,0,0.8,0.3,0.8,0.9l-0.4,12c0,0.2,0.1,0.5,0.3,0.6l8.6,8.2c0.5,0.5,0.2,1.4-0.5,1.4
					c0,0,0,0,0,0l-11.7-0.5c0,0,0,0,0,0c-0.2,0-0.4,0.1-0.6,0.3l-8,8.8c-0.2,0.2-0.4,0.3-0.6,0.3c-0.4,0-0.8-0.3-0.8-0.9l0.4-12.1
					c0-0.2-0.1-0.5-0.3-0.6l-8.7-8.3c-0.5-0.5-0.2-1.4,0.5-1.4c0,0,0,0,0,0l11.8,0.6c0,0,0,0,0,0c0.2,0,0.4-0.1,0.6-0.3l8-8.7
					C-595.2,595.8-595,595.7-594.8,595.7 M-594.8,591.7L-594.8,591.7c-1.3,0-2.6,0.6-3.5,1.6l-6.9,7.6l-10.3-0.5l-0.1,0l-0.1,0
					c-2,0-3.7,1.2-4.5,3c-0.7,1.8-0.3,3.9,1.2,5.3l7.6,7.3l-0.4,10.6c0,1.3,0.4,2.6,1.3,3.5c0.9,0.9,2.2,1.5,3.5,1.5
					c1.3,0,2.6-0.6,3.5-1.6l7-7.7l10.2,0.4l0.1,0l0.1,0c2,0,3.7-1.2,4.4-3c0.7-1.8,0.3-3.9-1.1-5.3l-7.5-7.2l0.4-10.6
					c0-1.3-0.4-2.6-1.3-3.5C-592.2,592.2-593.5,591.7-594.8,591.7L-594.8,591.7z"/>
			</g>
			<g>
				<path fill="#DBDCDC" d="M-607,626.8c-0.8,0-1.5-0.3-2-0.9c-0.5-0.6-0.8-1.3-0.8-2.1l0.4-11.5l-8.3-7.9c-0.8-0.8-1.1-2-0.7-3.1
					c0.4-1.1,1.4-1.8,2.6-1.8l0.1,0l11.2,0.5l7.6-8.3c0.5-0.6,1.3-0.9,2.1-0.9c0.8,0,1.5,0.3,2,0.9c0.5,0.6,0.8,1.3,0.8,2.1
					l-0.4,11.5l8.2,7.8c0.8,0.8,1.1,2,0.7,3.1c-0.4,1.1-1.4,1.8-2.6,1.8l-11.2-0.5l-7.6,8.4C-605.5,626.5-606.2,626.8-607,626.8z"/>
				<path fill="#F7F7F7" d="M-594.8,592.9c0.4,0,0.8,0.3,0.8,0.9l-0.4,12c0,0.2,0.1,0.5,0.3,0.6l8.6,8.2c0.5,0.5,0.2,1.4-0.5,1.4
					c0,0,0,0,0,0l-11.7-0.5c0,0,0,0,0,0c-0.2,0-0.4,0.1-0.6,0.3l-8,8.8c-0.2,0.2-0.4,0.3-0.6,0.3c-0.4,0-0.8-0.3-0.8-0.9l0.4-12.1
					c0-0.2-0.1-0.5-0.3-0.6l-8.7-8.3c-0.5-0.5-0.2-1.4,0.5-1.4c0,0,0,0,0,0l11.8,0.6c0,0,0,0,0,0c0.2,0,0.4-0.1,0.6-0.3l8-8.7
					C-595.2,592.9-595,592.9-594.8,592.9 M-594.8,588.9L-594.8,588.9c-1.3,0-2.6,0.6-3.5,1.6l-6.9,7.6l-10.3-0.5l-0.1,0l-0.1,0
					c-2,0-3.7,1.2-4.5,3c-0.7,1.8-0.3,3.9,1.2,5.3l7.6,7.3l-0.4,10.6c0,1.3,0.4,2.6,1.3,3.5c0.9,0.9,2.2,1.5,3.5,1.5
					c1.3,0,2.6-0.6,3.5-1.6l7-7.7l10.2,0.4l0.1,0l0.1,0c2,0,3.7-1.2,4.4-3c0.7-1.8,0.3-3.9-1.1-5.3l-7.5-7.2l0.4-10.6
					c0-1.3-0.4-2.6-1.3-3.5C-592.2,589.4-593.5,588.9-594.8,588.9L-594.8,588.9z"/>
			</g>
		</g>
		<g id="XMLID_228_">
			<g>
				<path fill="#DBDCDC" d="M-511.1,662.2c-4.5,0-8.6-2.2-11.1-5.9l-98.3-147.3c-3.9-5.8-2.7-13.4,2.8-17.8l38.3-30.6
					c2.4-1.9,5.3-2.9,8.3-2.9c0.3,0,0.7,0,1,0l146.9,11.4c3.4,0.3,6.5,1.8,8.8,4.3l33.1,36.2c4.7,5.1,4.7,12.9,0,18l-119.9,130.3
					C-503.9,660.6-507.4,662.2-511.1,662.2C-511.1,662.2-511.1,662.2-511.1,662.2z"/>
				<path fill="#DBDCDC" d="M-571.1,461.1c0.3,0,0.5,0,0.8,0l73.4,5.7l73.4,5.7c2.5,0.2,4.8,1.3,6.5,3.2l33.1,36.2
					c3.4,3.8,3.4,9.5,0,13.3l-119.9,130.3c-2,2.1-4.6,3.2-7.2,3.2c-3.1,0-6.3-1.5-8.2-4.4L-617.6,507c-2.8-4.2-1.9-9.9,2-13.1
					l38.3-30.6C-575.5,461.8-573.4,461.1-571.1,461.1 M-571.1,454.1c-3.8,0-7.5,1.3-10.5,3.7l-38.3,30.6c-6.9,5.5-8.4,15.2-3.5,22.5
					l98.3,147.3c3.1,4.7,8.4,7.5,14,7.5c4.7,0,9.2-2,12.4-5.4l119.9-130.3c6-6.5,6-16.2,0-22.7l-33.1-36.2
					c-2.9-3.2-6.8-5.1-11.1-5.4l-73.4-5.7l-73.4-5.7C-570.3,454.1-570.7,454.1-571.1,454.1L-571.1,454.1z"/>
			</g>
			<g>
				<path fill="#F7F7F7" d="M-511.1,656.5c-4.5,0-8.6-2.2-11.1-5.9l-98.3-147.3c-3.9-5.8-2.7-13.4,2.8-17.8l38.3-30.6
					c2.4-1.9,5.3-2.9,8.3-2.9c0.3,0,0.7,0,1,0l146.9,11.4c3.4,0.3,6.5,1.8,8.8,4.3l33.1,36.2c4.7,5.1,4.7,12.9,0,18l-119.9,130.3
					C-503.9,655-507.4,656.5-511.1,656.5C-511.1,656.5-511.1,656.5-511.1,656.5z"/>
				<path fill="#F7F7F7" d="M-571.1,455.4c0.3,0,0.5,0,0.8,0l73.4,5.7l73.4,5.7c2.5,0.2,4.8,1.3,6.5,3.2l33.1,36.2
					c3.4,3.8,3.4,9.5,0,13.3l-119.9,130.3c-2,2.1-4.6,3.2-7.2,3.2c-3.1,0-6.3-1.5-8.2-4.4l-98.3-147.3c-2.8-4.2-1.9-9.9,2-13.1
					l38.3-30.6C-575.5,456.2-573.4,455.4-571.1,455.4 M-571.1,448.4c-3.8,0-7.5,1.3-10.5,3.7l-38.3,30.6c-6.9,5.5-8.4,15.2-3.5,22.5
					l98.3,147.3c3.1,4.7,8.4,7.5,14,7.5c4.7,0,9.2-2,12.4-5.4l119.9-130.3c6-6.5,6-16.2,0-22.7l-33.1-36.2
					c-2.9-3.2-6.8-5.1-11.1-5.4l-73.4-5.7l-73.4-5.7C-570.3,448.4-570.7,448.4-571.1,448.4L-571.1,448.4z"/>
			</g>
		</g>
		<g id="XMLID_187_">
			<g id="XMLID_216_">
				<g>
					<path fill="#114051" d="M-513.5,655.5c1.1,0.3,2.2,0.4,3.3,0.3l51.1-146.4l-82.3-6.4L-513.5,655.5z"/>
				</g>
				<g>
					<path fill="#155166" d="M-513.5,652.7c1.1,0.3,2.2,0.4,3.3,0.3l51.1-146.4l-82.3-6.4L-513.5,652.7z"/>
				</g>
			</g>
			<g id="XMLID_205_">
				<g>
					<path fill="#155166" d="M-513.5,655.5L-541.4,503l-77.7-6.1c-0.4,2.4,0,5,1.5,7.2l17.3,26l81,121.3
						C-517.9,653.6-515.8,654.9-513.5,655.5z"/>
				</g>
				<g>
					<path fill="#1E7F93" d="M-513.5,652.7l-27.9-152.5l-77.7-6.1c-0.4,2.4,0,5,1.5,7.2l17.3,26l81,121.3
						C-517.9,650.8-515.8,652.1-513.5,652.7z"/>
				</g>
			</g>
			<g id="XMLID_196_">
				<g>
					<path fill="#0A252B" d="M-381.4,515.5l-77.7-6.1l-51.1,146.4c2.3-0.2,4.6-1.2,6.3-3.1L-384,522.4
						C-382.2,520.4-381.4,517.9-381.4,515.5z"/>
				</g>
				<g>
					<path fill="#0F353F" d="M-381.4,512.6l-77.7-6.1l-51.1,146.4c2.3-0.2,4.6-1.2,6.3-3.1L-384,519.5
						C-382.2,517.6-381.4,515.1-381.4,512.6z"/>
				</g>
			</g>
			<path id="XMLID_193_" fill="#17A2C7" d="M-577.3,457.6l-38.3,30.6c-1.9,1.5-3.1,3.6-3.5,5.9l77.7,6.1l-32.4-44.3
				C-575,456.2-576.2,456.8-577.3,457.6z"/>
			<polygon id="XMLID_192_" fill="#046382" points="-459.1,506.6 -496.9,461.2 -541.4,500.2 			"/>
			<path id="XMLID_191_" fill="#114051" d="M-417,470.1c-0.9-1-2-1.7-3.2-2.3l-38.9,38.8l77.7,6.1c-0.1-2.3-0.9-4.6-2.5-6.4
				L-417,470.1z"/>
			<path id="XMLID_190_" fill="#155166" d="M-420.2,467.8c-1-0.5-2.1-0.8-3.3-0.9l-73.4-5.7l37.9,45.4L-420.2,467.8z"/>
			<path id="XMLID_188_" fill="#1E7F93" d="M-541.4,500.2l44.4-39l-73.4-5.7c-1.2-0.1-2.3,0-3.4,0.4L-541.4,500.2z"/>
		</g>
	</g>
</g>
</svg>
