<?xml version="1.0" encoding="utf-8"?>
<!-- Generator: Adobe Illustrator 19.0.0, SVG Export Plug-In . SVG Version: 6.00 Build 0)  -->
<svg version="1.2" baseProfile="tiny" id="圖層_1"
	 xmlns="http://www.w3.org/2000/svg" xmlns:xlink="http://www.w3.org/1999/xlink" x="0px" y="0px" viewBox="-732 310 453.5 462"
	 xml:space="preserve">
<g id="XMLID_19_">
	<g id="XMLID_180_">
		<g id="XMLID_181_">
			<g id="XMLID_183_">
				<g>
					<path fill="#8C6239" d="M-363.5,772H-647c-47,0-85-38.1-85-85V403.5c0-47,38.1-85,85-85h283.5c47,0,85,38.1,85,85V687
						C-278.5,734-316.5,772-363.5,772z"/>
				</g>
				<g>
					<path fill="#BB7434" d="M-363.5,763.5H-647c-47,0-85-38.1-85-85V395c0-47,38.1-85,85-85h283.5c47,0,85,38.1,85,85v283.5
						C-278.5,725.5-316.5,763.5-363.5,763.5z"/>
				</g>
			</g>
			<path id="XMLID_182_" fill="#623F1E" d="M-382.2,729.4h-246.1c-38.4,0-69.6-31.2-69.6-69.6V413.7c0-38.4,31.2-69.6,69.6-69.6
				h246.1c38.4,0,69.6,31.2,69.6,69.6v246.1C-312.6,698.3-343.7,729.4-382.2,729.4z"/>
		</g>
	</g>
	<g id="XMLID_25_">
		<g id="XMLID_168_">
			<g>
				<path fill="#DBDCDC" d="M-482.2,676.4c-0.5,0-1,0-1.5-0.1l-65.3-7c-3.9-0.4-7.3-2.5-9.6-5.9c-2.2-3.2-3.1-7.3-2.7-11.5
					l13.2-121.4l-52.6-2.6c-3.3-0.2-6.3-1.6-8.3-4.1c-2.2-2.7-3.2-6.5-2.6-10.4c0.5-3.3,2.2-6.4,4.9-9.2c0.1-0.1,0.1-0.1,0.2-0.2
					l101.8-92c0.1-0.1,0.1-0.1,0.2-0.2c2.7-2.1,5.8-3.3,8.9-3.3c3.2,0,6.2,1.2,8.7,3.4c0.1,0.1,0.1,0.1,0.2,0.2l95.7,101
					c0,0,0.1,0.1,0.1,0.1c4,4.7,5.1,10.5,2.9,15.7c-2.2,5.2-7.2,8.6-12.9,8.6c-0.2,0-0.5,0-0.7,0l-59.8-2.9l-6.6,126.5
					C-468.3,669.9-474.5,676.4-482.2,676.4z"/>
				<path fill="#DBDCDC" d="M-495.5,412c2.3,0,4.5,0.8,6.4,2.5l95.7,101c3,3.5,4,8,2.3,12.1c-1.6,3.9-5.5,6.5-9.7,6.5
					c-0.2,0-0.3,0-0.5,0l-63.3-3.1l-6.8,130c-0.4,6.9-5,11.9-10.8,11.9c-0.4,0-0.7,0-1.1-0.1l-65.3-7c-5.9-0.6-9.9-6.6-9.2-13.6
					l13.6-125.1l-56.3-2.8c-5.1-0.3-8.4-4.9-7.6-10.5c0.4-2.8,2-5.2,4-7.3l101.8-92C-500.2,412.8-497.8,412-495.5,412 M-495.5,405
					c-3.9,0-7.8,1.4-11.1,4c-0.1,0.1-0.3,0.2-0.4,0.3l-101.8,92c-0.1,0.1-0.2,0.2-0.3,0.3c-3.3,3.4-5.2,7.1-5.9,11.1
					c-0.8,4.9,0.5,9.7,3.3,13.2c2.7,3.3,6.5,5.2,10.8,5.4l48.9,2.4l-12.8,117.7c-0.5,5,0.6,9.9,3.2,13.9c2.9,4.3,7.2,6.9,12.2,7.5
					l65.3,7c0.6,0.1,1.2,0.1,1.9,0.1c9.6,0,17.2-8,17.8-18.5l6.4-123.1l56.3,2.7c0.3,0,0.6,0,0.9,0c7.1,0,13.4-4.2,16.1-10.8
					c2.7-6.4,1.4-13.7-3.5-19.3c-0.1-0.1-0.2-0.2-0.2-0.3l-95.7-101c-0.1-0.1-0.3-0.3-0.4-0.4C-487.6,406.5-491.4,405-495.5,405
					L-495.5,405z"/>
			</g>
			<g>
				<linearGradient id="SVGID_1_" gradientUnits="userSpaceOnUse" x1="-499.2109" y1="402.8066" x2="-499.2109" y2="670.7363">
					<stop  offset="0" style="stop-color:#2ECC71"/>
					<stop  offset="0.447" style="stop-color:#2DC66E"/>
					<stop  offset="1" style="stop-color:#29B765"/>
				</linearGradient>
				<path fill="url(#SVGID_1_)" d="M-482.2,670.7c-0.5,0-1,0-1.5-0.1l-65.3-7c-3.9-0.4-7.3-2.5-9.6-5.9c-2.2-3.2-3.1-7.3-2.7-11.5
					l13.2-121.4l-52.6-2.6c-3.3-0.2-6.3-1.6-8.3-4.1c-2.2-2.7-3.2-6.5-2.6-10.4c0.5-3.3,2.2-6.4,4.9-9.2c0.1-0.1,0.1-0.1,0.2-0.2
					l101.8-92c0.1-0.1,0.1-0.1,0.2-0.2c2.7-2.1,5.8-3.3,8.9-3.3c3.2,0,6.2,1.2,8.7,3.4c0.1,0.1,0.1,0.1,0.2,0.2l95.7,101
					c0,0,0.1,0.1,0.1,0.1c4,4.7,5.1,10.5,2.9,15.7c-2.2,5.2-7.2,8.6-12.9,8.6c-0.2,0-0.5,0-0.7,0l-59.8-2.9l-6.6,126.5
					C-468.3,664.2-474.5,670.7-482.2,670.7z"/>
				<path fill="#F7F7F7" d="M-495.5,406.3c2.3,0,4.5,0.8,6.4,2.5l95.7,101c3,3.5,4,8,2.3,12.1c-1.6,3.9-5.5,6.5-9.7,6.5
					c-0.2,0-0.3,0-0.5,0l-63.3-3.1l-6.8,130c-0.4,6.9-5,11.9-10.8,11.9c-0.4,0-0.7,0-1.1-0.1l-65.3-7c-5.9-0.6-9.9-6.6-9.2-13.6
					l13.6-125.1l-56.3-2.8c-5.1-0.3-8.4-4.9-7.6-10.5c0.4-2.8,2-5.2,4-7.3l101.8-92C-500.2,407.1-497.8,406.3-495.5,406.3
					 M-495.5,399.3c-3.9,0-7.8,1.4-11.1,4c-0.1,0.1-0.3,0.2-0.4,0.3l-101.8,92c-0.1,0.1-0.2,0.2-0.3,0.3c-3.3,3.4-5.2,7.1-5.9,11.1
					c-0.8,4.9,0.5,9.7,3.3,13.2c2.7,3.3,6.5,5.2,10.8,5.4l48.9,2.4l-12.8,117.7c-0.5,5,0.6,9.9,3.2,13.9c2.9,4.3,7.2,6.9,12.2,7.5
					l65.3,7c0.6,0.1,1.2,0.1,1.9,0.1c9.6,0,17.2-8,17.8-18.5l6.4-123.1l56.3,2.7c0.3,0,0.6,0,0.9,0c7.1,0,13.4-4.2,16.1-10.8
					c2.7-6.4,1.4-13.7-3.5-19.3c-0.1-0.1-0.2-0.2-0.2-0.3L-484,404c-0.1-0.1-0.3-0.3-0.4-0.4C-487.6,400.8-491.4,399.3-495.5,399.3
					L-495.5,399.3z"/>
			</g>
		</g>
		<g id="XMLID_162_">
			<g>
				<path fill="#29B765" d="M-401.3,531.3l-63.3-3.1l-6.8,130c-0.4,7.3-5.6,12.5-11.9,11.8l-65.3-7c-5.9-0.6-9.9-6.6-9.2-13.6
					l13.6-125.1l-56.3-2.8c-5.1-0.3-8.4-4.9-7.6-10.5c0.4-2.8,2-5.2,4-7.3l101.8-92c2.1-1.7,4.5-2.5,6.8-2.5c2.3,0,4.5,0.8,6.4,2.5
					l95.7,101c3,3.5,4,8,2.3,12.1C-392.8,528.9-396.9,531.5-401.3,531.3z"/>
			</g>
			<g>
				<linearGradient id="SVGID_2_" gradientUnits="userSpaceOnUse" x1="-499.2151" y1="406.3065" x2="-499.2151" y2="667.2369">
					<stop  offset="0" style="stop-color:#2ECC71"/>
					<stop  offset="0.447" style="stop-color:#2DC66E"/>
					<stop  offset="1" style="stop-color:#29B765"/>
				</linearGradient>
				<path fill="url(#SVGID_2_)" d="M-401.3,528.4l-63.3-3.1l-6.8,130c-0.4,7.3-5.6,12.5-11.9,11.8l-65.3-7
					c-5.9-0.6-9.9-6.6-9.2-13.6l13.6-125.1l-56.3-2.8c-5.1-0.3-8.4-4.9-7.6-10.5c0.4-2.8,2-5.2,4-7.3l101.8-92
					c2.1-1.7,4.5-2.5,6.8-2.5c2.3,0,4.5,0.8,6.4,2.5l95.7,101c3,3.5,4,8,2.3,12.1C-392.8,526.1-396.9,528.7-401.3,528.4z"/>
			</g>
		</g>
		<g id="XMLID_90_">
			<g>
				<polygon id="XMLID_23_" fill="#DBDCDC" points="-580.5,575.7 -589.5,626.7 -534.7,632.5 -511.4,607.7 -493.3,638 -464.5,636.6 
					-457.1,621 -420.8,611.3 -416.4,590.1 -443,577 -487.4,576.7 -511.2,600.5 -529.4,566.7 				"/>
				<path fill="#DBDCDC" d="M-557.1,641c-0.3,0-0.5,0-0.8,0l-36.7-3.2c-2.4-0.2-4.4-1.3-5.8-3.3c-1.4-1.9-1.9-4.1-1.5-6.4l8.2-55.4
					c0.3-2.1,1.4-4,3.1-5.5c1.6-1.3,3.5-2.1,5.5-2.1c0.2,0,0.3,0,0.5,0l34,2c2.3,0.1,4.3,1.1,5.8,2.9c1.5,1.8,2.1,3.9,1.8,6.2
					l-0.3,2.9c-0.3,2.2-1.3,4.2-3.1,5.7c-1.6,1.4-3.5,2.1-5.6,2.1c-0.2,0-0.4,0-0.6,0l-21.1-1.4l-0.7,5.3l13.1,0.9
					c2.4,0.2,4.4,1.2,5.9,3.1c1.4,1.8,2,4,1.7,6.3l-0.4,3.1c-0.3,2.2-1.3,4.2-3,5.7c-1.6,1.4-3.5,2.1-5.6,2.1c-0.2,0-0.5,0-0.7,0
					l-13.7-1l-1,7.2l22.4,1.8c2.3,0.2,4.4,1.3,5.9,3.2c1.4,1.9,2.1,4.1,1.8,6.4l-0.4,3.3c-0.3,2.3-1.4,4.4-3.1,5.9
					C-553.1,640.2-555.1,641-557.1,641z"/>
				<path fill="#DBDCDC" d="M-585,568.6c0.1,0,0.2,0,0.3,0l34,2c1.3,0.1,2.4,0.6,3.3,1.7c0.9,1,1.2,2.2,1.1,3.6l-0.3,2.9
					c-0.2,1.3-0.8,2.5-1.9,3.4c-1,0.8-2.1,1.3-3.3,1.3c-0.1,0-0.2,0-0.3,0l-23.7-1.5c0,0-0.1,0-0.1,0c-0.4,0-0.6,0.2-0.6,0.5
					l-1.5,11.1c-0.1,0.4,0.1,0.6,0.6,0.6l16.2,1.1c1.4,0.1,2.5,0.7,3.3,1.8c0.8,1.1,1.2,2.3,1,3.7l-0.4,3.1
					c-0.2,1.4-0.8,2.6-1.9,3.5c-1,0.9-2.1,1.3-3.3,1.3c-0.1,0-0.3,0-0.4,0l-16.3-1.2c0,0-0.1,0-0.1,0c-0.4,0-0.6,0.2-0.7,0.6
					l-1.8,12.9c-0.1,0.4,0.1,0.6,0.6,0.7l25.4,2.1c1.4,0.1,2.5,0.7,3.4,1.9c0.9,1.1,1.2,2.4,1.1,3.9l-0.4,3.3
					c-0.2,1.5-0.8,2.7-2,3.7c-1,0.9-2.1,1.3-3.3,1.3c-0.1,0-0.3,0-0.5,0l-36.7-3.2c-1.3-0.1-2.4-0.7-3.2-1.9
					c-0.8-1.1-1.1-2.4-0.9-3.8l8.2-55.4c0.2-1.3,0.8-2.4,1.9-3.3C-587.3,569-586.2,568.6-585,568.6 M-585,561.6
					c-2.8,0-5.5,1-7.7,2.9c-2.4,2-3.9,4.6-4.3,7.7l-8.2,55.4c-0.5,3.3,0.3,6.4,2.2,9c2,2.8,4.9,4.4,8.3,4.7l36.7,3.2
					c0.4,0,0.7,0,1.1,0c2.9,0,5.6-1,7.9-3c2.5-2.1,4-4.9,4.3-8.2l0.4-3.3c0.4-3.3-0.5-6.4-2.5-9c-2.1-2.7-5-4.3-8.3-4.5l-18.7-1.5
					l0-0.3l10.4,0.8c0.3,0,0.6,0,0.9,0c2.9,0,5.7-1,7.9-3c2.4-2.1,3.8-4.8,4.2-7.9l0.4-3.1c0.4-3.2-0.4-6.3-2.4-8.8
					c-0.8-1-1.7-1.8-2.6-2.5l2.5,0.2c0.3,0,0.5,0,0.8,0c2.9,0,5.6-1,7.8-2.9c2.4-2.1,3.9-4.8,4.3-7.9l0.3-2.9
					c0.4-3.3-0.5-6.3-2.6-8.8c-2.1-2.5-5-4-8.2-4.2l-34-2C-584.6,561.6-584.8,561.6-585,561.6L-585,561.6z"/>
				<path fill="#DBDCDC" d="M-486.7,647.1c-0.2,0-0.4,0-0.6,0l-8.2-0.7c-2.3-0.2-4.4-1-6.3-2.4c-1.9-1.4-3.3-3.1-4.2-5.3l-4.2-9.2
					c-1-2.3-1.9-4.3-2.6-6.2c-1.9,2.9-3.1,4.8-3.5,5.5l-5.4,8.5c-1.3,2-2.9,3.4-4.9,4.5c-1.7,0.9-3.5,1.3-5.5,1.3
					c-0.4,0-0.7,0-1.1,0l-7-0.6c-2.5-0.2-4.5-1.7-5.3-4c-0.4-1.1-0.5-2.1-0.4-3.1c0.1-1.2,0.6-2.3,1.3-3.2l20.1-27.4l-13.1-27.4
					c-0.5-1.1-0.6-2.2-0.5-3.3c0.1-1.1,0.5-2.1,1.3-3.1c1.2-1.7,3.1-2.7,5.2-2.7c0.1,0,0.3,0,0.4,0l7.2,0.4c2.2,0.1,4.2,0.8,5.9,2
					c1.8,1.2,3.1,2.9,4,4.9l3.5,8.1l0,0.1c0.2,0.4,0.7,1.6,2.1,4.9c0,0,0,0,0,0c1.4-2.3,2.5-3.9,3.1-5l4.5-7.2
					c1.1-1.9,2.7-3.4,4.7-4.5c1.7-0.9,3.6-1.3,5.5-1.3c0.2,0,0.5,0,0.7,0l6.5,0.4c2.4,0.1,4.3,1.4,5.3,3.5c0.5,1,0.8,2.1,0.7,3.3
					c-0.1,1.1-0.4,2.1-1.1,3.1l-18.3,25.9l15.7,30.6c0.6,1.1,0.8,2.3,0.7,3.5c-0.1,1-0.4,2-0.9,3
					C-482.5,646.1-484.4,647.1-486.7,647.1z"/>
				<path fill="#DBDCDC" d="M-531.8,571.7c0.1,0,0.1,0,0.2,0l7.2,0.4c1.5,0.1,2.9,0.6,4.2,1.4c1.3,0.9,2.2,2,2.8,3.4l3.3,7.8
					c0,0.2,1.6,3.8,4.7,10.9c0,0.1,0.1,0.2,0.2,0.2c0,0,0,0,0,0c0.1,0,0.2-0.1,0.3-0.2c0.7-1.2,1.8-2.9,3.2-5.2
					c1.4-2.3,2.5-3.9,3.1-5l4.5-7.2c0.8-1.4,1.9-2.4,3.3-3.2c1.2-0.6,2.5-1,3.9-1c0.2,0,0.4,0,0.5,0l6.5,0.4
					c1.1,0.1,1.9,0.6,2.4,1.6c0.3,0.5,0.4,1,0.3,1.5c0,0.5-0.2,0.9-0.5,1.4l-19.1,27c-0.2,0.4-0.2,0.8,0,1.2l16.3,31.8
					c0.3,0.5,0.4,1.1,0.4,1.6c0,0.5-0.2,1-0.5,1.5c-0.6,0.9-1.4,1.4-2.4,1.4c-0.1,0-0.2,0-0.3,0l-8.2-0.7c-1.6-0.1-3.1-0.7-4.5-1.7
					c-1.4-1-2.4-2.3-3-3.8l-4.2-9.3c-2.1-4.9-3.7-8.8-4.9-11.8c-0.1-0.1-0.1-0.1-0.3-0.1c0,0,0,0,0,0c-0.1,0-0.2,0-0.2,0.1
					c-3.9,6-6.2,9.6-6.9,10.8l-5.3,8.4c-0.9,1.4-2.1,2.5-3.5,3.2c-1.2,0.6-2.5,0.9-3.8,0.9c-0.3,0-0.5,0-0.8,0l-7-0.6
					c-1.2-0.1-2-0.7-2.4-1.8c-0.2-0.5-0.2-1-0.2-1.5c0.1-0.6,0.3-1.1,0.6-1.5l21-28.6c0.3-0.3,0.3-0.7,0.1-1.1l-13.6-28.6
					c-0.2-0.5-0.3-1-0.3-1.5c0-0.4,0.2-0.9,0.6-1.3C-533.5,572.2-532.7,571.7-531.8,571.7 M-531.8,564.7c-3.2,0-6.1,1.5-8,4.1
					c-1.1,1.4-1.7,3.1-1.9,4.7c-0.2,1.7,0.1,3.4,0.8,5.1l0,0.1l0.1,0.1l12.1,25.4l-18.9,25.7c-1.1,1.4-1.7,3.1-1.9,4.9
					c-0.2,1.5,0,3.1,0.6,4.6l0,0.1l0,0.1c1.4,3.6,4.5,5.9,8.3,6.3l7,0.6c0.5,0,0.9,0.1,1.4,0.1c2.5,0,4.9-0.6,7.1-1.7
					c2.5-1.3,4.6-3.2,6.2-5.7l0,0l0,0l5.3-8.4c0,0,0,0,0,0l0,0.1l0,0.1l4.2,9.2c1.2,2.7,2.9,4.9,5.3,6.7c2.4,1.8,5.1,2.8,8,3.1
					l8.2,0.7c0.3,0,0.6,0,1,0c3.5,0,6.6-1.7,8.4-4.8l0-0.1l0-0.1c0.8-1.4,1.3-2.9,1.4-4.5c0.1-1.8-0.3-3.7-1.1-5.3l-14.7-28.7
					l17-24.1l0.1-0.1l0.1-0.1c1-1.5,1.6-3.1,1.7-4.8c0.1-1.8-0.3-3.6-1.1-5.2c-1.7-3.2-4.7-5.1-8.2-5.3l-6.5-0.4c-0.3,0-0.6,0-0.9,0
					c-2.5,0-4.9,0.6-7.1,1.7c-2.6,1.3-4.6,3.3-6.1,5.7l-4,6.5l-3-6.9c-1.1-2.6-2.9-4.8-5.2-6.4c-2.3-1.6-4.9-2.5-7.7-2.7l-7.2-0.4
					C-531.3,564.7-531.5,564.7-531.8,564.7L-531.8,564.7z"/>
				<path fill="#DBDCDC" d="M-458.8,649.6c-0.3,0-0.5,0-0.8,0l-6.2-0.5c-2.4-0.2-4.5-1.3-6.1-3.2c-1.6-1.9-2.4-4.1-2.2-6.5l3.3-58.8
					c0.1-2.3,1.2-4.4,3-6c1.6-1.4,3.6-2.2,5.7-2.2c0.2,0,0.4,0,0.5,0l20.7,1.2c15.5,0.9,34,6.5,33.6,27.9
					c-0.1,6.1-1.9,11.3-5.3,15.5c-3.4,4.1-7.7,7-13,8.5c-3.8,1.1-7.9,1.7-12.4,1.7c-1.5,0-3-0.1-4.6-0.2l-6.8-0.5l-0.7,14.7
					c-0.1,2.5-1.1,4.6-3,6.3C-454.6,648.8-456.7,649.6-458.8,649.6z M-442.4,606.6c0.8,0.1,1.6,0.1,2.3,0.1h0c7.9,0,9.1-3.1,9.2-6.5
					c0.1-2.8-1.1-3.9-2.1-4.6c-2-1.3-5.3-2.1-9.6-2.4l-5.3-0.3l-0.6,13.3L-442.4,606.6z"/>
				<path fill="#DBDCDC" d="M-462.1,575.8c0.1,0,0.2,0,0.3,0l20.7,1.2c20.4,1.2,30.6,9.2,30.3,24.3c-0.1,5.3-1.6,9.8-4.5,13.3
					c-2.9,3.6-6.7,6-11.3,7.4c-3.5,1-7.3,1.5-11.4,1.5c-1.4,0-2.8-0.1-4.3-0.2l-9.8-0.8c0,0-0.1,0-0.1,0c-0.4,0-0.6,0.2-0.6,0.7
					l-0.8,17.5c-0.1,1.5-0.7,2.8-1.8,3.8c-1,0.9-2.2,1.4-3.5,1.4c-0.2,0-0.3,0-0.5,0l-6.2-0.5c-1.5-0.1-2.8-0.8-3.8-2
					c-1-1.2-1.5-2.6-1.4-4.1l3.3-58.8c0.1-1.4,0.7-2.6,1.8-3.5C-464.6,576.3-463.4,575.8-462.1,575.8 M-440.1,610.2
					c8.3,0,12.5-3.3,12.7-9.9c0.1-3.4-1.2-6-3.7-7.6c-2.6-1.6-6.3-2.6-11.3-2.9l-8.2-0.5c0,0,0,0-0.1,0c-0.4,0-0.6,0.2-0.6,0.7
					l-0.8,18.8c0,0.5,0.2,0.7,0.6,0.8l8.8,0.6C-441.8,610.1-440.9,610.2-440.1,610.2 M-462.1,568.8c-3,0-5.7,1-8,3
					c-2.5,2.2-4,5.1-4.2,8.4l-3.3,58.8c-0.2,3.3,0.9,6.4,3.1,9c2.2,2.6,5.2,4.2,8.5,4.4l6.2,0.5c0.4,0,0.7,0,1.1,0
					c3,0,5.8-1.1,8.1-3.1c2.6-2.3,4-5.3,4.2-8.7l0.5-11l3.2,0.3c1.7,0.1,3.3,0.2,4.9,0.2c4.8,0,9.3-0.6,13.4-1.8
					c6-1.8,10.9-5,14.7-9.7c3.9-4.8,6-10.7,6.1-17.6c0.1-9.6-3.3-17.6-10.1-22.9c-6.3-5-15.1-7.8-26.8-8.5l-20.7-1.2
					C-461.6,568.9-461.9,568.8-462.1,568.8L-462.1,568.8z M-444.8,602.9l0.3-6.3l1.7,0.1c4.9,0.3,7.1,1.3,7.9,1.8
					c0.3,0.2,0.5,0.3,0.5,1.5c0,1.7-0.1,3.1-5.7,3.1c-0.7,0-1.3,0-2.1-0.1L-444.8,602.9L-444.8,602.9z"/>
			</g>
			<g>
				<polygon id="XMLID_22_" fill="#2ECC71" points="-580.5,571.5 -589.5,622.4 -534.7,628.3 -511.4,603.5 -493.3,633.8 
					-464.5,632.4 -457.1,616.8 -420.8,607 -416.4,585.8 -443,572.7 -487.4,572.5 -511.2,596.2 -529.4,562.5 				"/>
				<g id="XMLID_15_">
					<g id="XMLID_21_">
						<path fill="#29B765" d="M-557.1,636.7c-0.3,0-0.5,0-0.8,0l-36.7-3.2c-2.4-0.2-4.4-1.3-5.8-3.3c-1.4-1.9-1.9-4.1-1.5-6.4
							l8.2-55.4c0.3-2.1,1.4-4,3.1-5.5c1.6-1.3,3.5-2.1,5.5-2.1c0.2,0,0.3,0,0.5,0l34,2c2.3,0.1,4.3,1.1,5.8,2.9
							c1.5,1.8,2.1,3.9,1.8,6.2l-0.3,2.9c-0.3,2.2-1.3,4.2-3.1,5.7c-1.6,1.4-3.5,2.1-5.6,2.1c-0.2,0-0.4,0-0.6,0l-21.1-1.4l-0.7,5.3
							l13.1,0.9c2.4,0.2,4.4,1.2,5.9,3.1c1.4,1.8,2,4,1.7,6.3l-0.4,3.1c-0.3,2.2-1.3,4.2-3,5.7c-1.6,1.4-3.5,2.1-5.6,2.1
							c-0.2,0-0.5,0-0.7,0l-13.7-1l-1,7.2l22.4,1.8c2.3,0.2,4.4,1.3,5.9,3.2c1.4,1.9,2.1,4.1,1.8,6.4l-0.4,3.3
							c-0.3,2.3-1.4,4.4-3.1,5.9C-553.1,636-555.1,636.7-557.1,636.7z"/>
						<path fill="#F7F7F7" d="M-585,564.3c0.1,0,0.2,0,0.3,0l34,2c1.3,0.1,2.4,0.6,3.3,1.7c0.9,1,1.2,2.2,1.1,3.6l-0.3,2.9
							c-0.2,1.3-0.8,2.5-1.9,3.4c-1,0.8-2.1,1.3-3.3,1.3c-0.1,0-0.2,0-0.3,0l-23.7-1.5c0,0-0.1,0-0.1,0c-0.4,0-0.6,0.2-0.6,0.5
							l-1.5,11.1c-0.1,0.4,0.1,0.6,0.6,0.6l16.2,1.1c1.4,0.1,2.5,0.7,3.3,1.8c0.8,1.1,1.2,2.3,1,3.7l-0.4,3.1
							c-0.2,1.4-0.8,2.6-1.9,3.5c-1,0.9-2.1,1.3-3.3,1.3c-0.1,0-0.3,0-0.4,0l-16.3-1.2c0,0-0.1,0-0.1,0c-0.4,0-0.6,0.2-0.7,0.6
							l-1.8,12.9c-0.1,0.4,0.1,0.6,0.6,0.7l25.4,2.1c1.4,0.1,2.5,0.7,3.4,1.9c0.9,1.1,1.2,2.4,1.1,3.9l-0.4,3.3
							c-0.2,1.5-0.8,2.7-2,3.7c-1,0.9-2.1,1.3-3.3,1.3c-0.1,0-0.3,0-0.5,0l-36.7-3.2c-1.3-0.1-2.4-0.7-3.2-1.9
							c-0.8-1.1-1.1-2.4-0.9-3.8l8.2-55.4c0.2-1.3,0.8-2.4,1.9-3.3C-587.3,564.7-586.2,564.3-585,564.3 M-585,557.3
							c-2.8,0-5.5,1-7.7,2.9c-2.4,2-3.9,4.6-4.3,7.7l-8.2,55.4c-0.5,3.3,0.3,6.4,2.2,9c2,2.8,4.9,4.4,8.3,4.7l36.7,3.2
							c0.4,0,0.7,0,1.1,0c2.9,0,5.6-1,7.9-3c2.5-2.1,4-4.9,4.3-8.2l0.4-3.3c0.4-3.3-0.5-6.4-2.5-9c-2.1-2.7-5-4.3-8.3-4.5l-18.7-1.5
							l0-0.3l10.4,0.8c0.3,0,0.6,0,0.9,0c2.9,0,5.7-1,7.9-3c2.4-2.1,3.8-4.8,4.2-7.9l0.4-3.1c0.4-3.2-0.4-6.3-2.4-8.8
							c-0.8-1-1.7-1.8-2.6-2.5l2.5,0.2c0.3,0,0.5,0,0.8,0c2.9,0,5.6-1,7.8-2.9c2.4-2.1,3.9-4.8,4.3-7.9l0.3-2.9
							c0.4-3.3-0.5-6.3-2.6-8.8c-2.1-2.5-5-4-8.2-4.2l-34-2C-584.6,557.3-584.8,557.3-585,557.3L-585,557.3z"/>
					</g>
					<g id="XMLID_18_">
						<path fill="#29B765" d="M-486.7,642.9c-0.2,0-0.4,0-0.6,0l-8.2-0.7c-2.3-0.2-4.4-1-6.3-2.4c-1.9-1.4-3.3-3.1-4.2-5.3l-4.2-9.2
							c-1-2.3-1.9-4.3-2.6-6.2c-1.9,2.9-3.1,4.8-3.5,5.5l-5.4,8.5c-1.3,2-2.9,3.4-4.9,4.5c-1.7,0.9-3.5,1.3-5.5,1.3
							c-0.4,0-0.7,0-1.1,0l-7-0.6c-2.5-0.2-4.5-1.7-5.3-4c-0.4-1.1-0.5-2.1-0.4-3.1c0.1-1.2,0.6-2.3,1.3-3.2l20.1-27.4l-13.1-27.4
							c-0.5-1.1-0.6-2.2-0.5-3.3c0.1-1.1,0.5-2.1,1.3-3.1c1.2-1.7,3.1-2.7,5.2-2.7c0.1,0,0.3,0,0.4,0l7.2,0.4c2.2,0.1,4.2,0.8,5.9,2
							c1.8,1.2,3.1,2.9,4,4.9l3.5,8.1l0,0.1c0.2,0.4,0.7,1.6,2.1,4.9c0,0,0,0,0,0c1.4-2.3,2.5-3.9,3.1-5l4.5-7.2
							c1.1-1.9,2.7-3.4,4.7-4.5c1.7-0.9,3.6-1.3,5.5-1.3c0.2,0,0.5,0,0.7,0l6.5,0.4c2.4,0.1,4.3,1.4,5.3,3.5c0.5,1,0.8,2.1,0.7,3.3
							c-0.1,1.1-0.4,2.1-1.1,3.1l-18.3,25.9l15.7,30.6c0.6,1.1,0.8,2.3,0.7,3.5c-0.1,1-0.4,2-0.9,3
							C-482.5,641.8-484.4,642.9-486.7,642.9z"/>
						<path fill="#F7F7F7" d="M-531.8,567.5c0.1,0,0.1,0,0.2,0l7.2,0.4c1.5,0.1,2.9,0.6,4.2,1.4c1.3,0.9,2.2,2,2.8,3.4l3.3,7.8
							c0,0.2,1.6,3.8,4.7,10.9c0,0.1,0.1,0.2,0.2,0.2c0,0,0,0,0,0c0.1,0,0.2-0.1,0.3-0.2c0.7-1.2,1.8-2.9,3.2-5.2
							c1.4-2.3,2.5-3.9,3.1-5l4.5-7.2c0.8-1.4,1.9-2.4,3.3-3.2c1.2-0.6,2.5-1,3.9-1c0.2,0,0.4,0,0.5,0l6.5,0.4
							c1.1,0.1,1.9,0.6,2.4,1.6c0.3,0.5,0.4,1,0.3,1.5c0,0.5-0.2,0.9-0.5,1.4l-19.1,27c-0.2,0.4-0.2,0.8,0,1.2l16.3,31.8
							c0.3,0.5,0.4,1.1,0.4,1.6c0,0.5-0.2,1-0.5,1.5c-0.6,0.9-1.4,1.4-2.4,1.4c-0.1,0-0.2,0-0.3,0l-8.2-0.7
							c-1.6-0.1-3.1-0.7-4.5-1.7c-1.4-1-2.4-2.3-3-3.8l-4.2-9.3c-2.1-4.9-3.7-8.8-4.9-11.8c-0.1-0.1-0.1-0.1-0.3-0.1c0,0,0,0,0,0
							c-0.1,0-0.2,0-0.2,0.1c-3.9,6-6.2,9.6-6.9,10.8l-5.3,8.4c-0.9,1.4-2.1,2.5-3.5,3.2c-1.2,0.6-2.5,0.9-3.8,0.9
							c-0.3,0-0.5,0-0.8,0l-7-0.6c-1.2-0.1-2-0.7-2.4-1.8c-0.2-0.5-0.2-1-0.2-1.5c0.1-0.6,0.3-1.1,0.6-1.5l21-28.6
							c0.3-0.3,0.3-0.7,0.1-1.1l-13.6-28.6c-0.2-0.5-0.3-1-0.3-1.5c0-0.4,0.2-0.9,0.6-1.3C-533.5,567.9-532.7,567.5-531.8,567.5
							 M-531.8,560.5c-3.2,0-6.1,1.5-8,4.1c-1.1,1.4-1.7,3.1-1.9,4.7c-0.2,1.7,0.1,3.4,0.8,5.1l0,0.1l0.1,0.1l12.1,25.4l-18.9,25.7
							c-1.1,1.4-1.7,3.1-1.9,4.9c-0.2,1.5,0,3.1,0.6,4.6l0,0.1l0,0.1c1.4,3.6,4.5,5.9,8.3,6.3l7,0.6c0.5,0,0.9,0.1,1.4,0.1
							c2.5,0,4.9-0.6,7.1-1.7c2.5-1.3,4.6-3.2,6.2-5.7l0,0l0,0l5.3-8.4c0,0,0,0,0,0l0,0.1l0,0.1l4.2,9.2c1.2,2.7,2.9,4.9,5.3,6.7
							c2.4,1.8,5.1,2.8,8,3.1l8.2,0.7c0.3,0,0.6,0,1,0c3.5,0,6.6-1.7,8.4-4.8l0-0.1l0-0.1c0.8-1.4,1.3-2.9,1.4-4.5
							c0.1-1.8-0.3-3.7-1.1-5.3l-14.7-28.7l17-24.1l0.1-0.1l0.1-0.1c1-1.5,1.6-3.1,1.7-4.8c0.1-1.8-0.3-3.6-1.1-5.2
							c-1.7-3.2-4.7-5.1-8.2-5.3l-6.5-0.4c-0.3,0-0.6,0-0.9,0c-2.5,0-4.9,0.6-7.1,1.7c-2.6,1.3-4.6,3.3-6.1,5.7l-4,6.5l-3-6.9
							c-1.1-2.6-2.9-4.8-5.2-6.4c-2.3-1.6-4.9-2.5-7.7-2.7l-7.2-0.4C-531.3,560.5-531.5,560.5-531.8,560.5L-531.8,560.5z"/>
					</g>
					<g id="XMLID_16_">
						<path fill="#29B765" d="M-458.8,645.3c-0.3,0-0.5,0-0.8,0l-6.2-0.5c-2.4-0.2-4.5-1.3-6.1-3.2c-1.6-1.9-2.4-4.1-2.2-6.5
							l3.3-58.8c0.1-2.3,1.2-4.4,3-6c1.6-1.4,3.6-2.2,5.7-2.2c0.2,0,0.4,0,0.5,0l20.7,1.2c15.5,0.9,34,6.5,33.6,27.9
							c-0.1,6.1-1.9,11.3-5.3,15.5c-3.4,4.1-7.7,7-13,8.5c-3.8,1.1-7.9,1.7-12.4,1.7c-1.5,0-3-0.1-4.6-0.2l-6.8-0.5l-0.7,14.7
							c-0.1,2.5-1.1,4.6-3,6.3C-454.6,644.6-456.7,645.3-458.8,645.3z M-442.4,602.3c0.8,0.1,1.6,0.1,2.3,0.1h0
							c7.9,0,9.1-3.1,9.2-6.5c0.1-2.8-1.1-3.9-2.1-4.6c-2-1.3-5.3-2.1-9.6-2.4l-5.3-0.3l-0.6,13.3L-442.4,602.3z"/>
						<path fill="#F7F7F7" d="M-462.1,571.6c0.1,0,0.2,0,0.3,0l20.7,1.2c20.4,1.2,30.6,9.2,30.3,24.3c-0.1,5.3-1.6,9.8-4.5,13.3
							c-2.9,3.6-6.7,6-11.3,7.4c-3.5,1-7.3,1.5-11.4,1.5c-1.4,0-2.8-0.1-4.3-0.2l-9.8-0.8c0,0-0.1,0-0.1,0c-0.4,0-0.6,0.2-0.6,0.7
							l-0.8,17.5c-0.1,1.5-0.7,2.8-1.8,3.8c-1,0.9-2.2,1.4-3.5,1.4c-0.2,0-0.3,0-0.5,0l-6.2-0.5c-1.5-0.1-2.8-0.8-3.8-2
							c-1-1.2-1.5-2.6-1.4-4.1l3.3-58.8c0.1-1.4,0.7-2.6,1.8-3.5C-464.6,572-463.4,571.6-462.1,571.6 M-440.1,605.9
							c8.3,0,12.5-3.3,12.7-9.9c0.1-3.4-1.2-6-3.7-7.6c-2.6-1.6-6.3-2.6-11.3-2.9l-8.2-0.5c0,0,0,0-0.1,0c-0.4,0-0.6,0.2-0.6,0.7
							l-0.8,18.8c0,0.5,0.2,0.7,0.6,0.8l8.8,0.6C-441.8,605.9-440.9,605.9-440.1,605.9 M-462.1,564.6c-3,0-5.7,1-8,3
							c-2.5,2.2-4,5.1-4.2,8.4l-3.3,58.8c-0.2,3.3,0.9,6.4,3.1,9c2.2,2.6,5.2,4.2,8.5,4.4l6.2,0.5c0.4,0,0.7,0,1.1,0
							c3,0,5.8-1.1,8.1-3.1c2.6-2.3,4-5.3,4.2-8.7l0.5-11l3.2,0.3c1.7,0.1,3.3,0.2,4.9,0.2c4.8,0,9.3-0.6,13.4-1.8
							c6-1.8,10.9-5,14.7-9.7c3.9-4.8,6-10.7,6.1-17.6c0.1-9.6-3.3-17.6-10.1-22.9c-6.3-5-15.1-7.8-26.8-8.5l-20.7-1.2
							C-461.6,564.6-461.9,564.6-462.1,564.6L-462.1,564.6z M-444.8,598.6l0.3-6.3l1.7,0.1c4.9,0.3,7.1,1.3,7.9,1.8
							c0.3,0.2,0.5,0.3,0.5,1.5c0,1.7-0.1,3.1-5.7,3.1c-0.7,0-1.3,0-2.1-0.1L-444.8,598.6L-444.8,598.6z"/>
					</g>
				</g>
			</g>
		</g>
		<g id="XMLID_26_">
			<g>
				<path fill="#29B765" d="M-594.3,632.8c-1.3-0.1-2.4-0.7-3.2-1.9c-0.8-1.1-1.1-2.4-0.9-3.8l8.2-55.4c0.2-1.3,0.8-2.4,1.9-3.3
					c1.1-0.9,2.3-1.3,3.5-1.2l34,2c1.3,0.1,2.4,0.6,3.3,1.7c0.9,1,1.2,2.2,1.1,3.6l-0.3,2.9c-0.2,1.3-0.8,2.5-1.9,3.4
					c-1.1,0.9-2.3,1.3-3.6,1.3l-23.7-1.5c-0.4,0-0.7,0.2-0.7,0.5l-1.5,11.1c-0.1,0.4,0.1,0.6,0.6,0.6l16.2,1.1
					c1.4,0.1,2.5,0.7,3.3,1.8c0.8,1.1,1.2,2.3,1,3.7l-0.4,3.1c-0.2,1.4-0.8,2.6-1.9,3.5c-1.1,0.9-2.3,1.4-3.7,1.3l-16.3-1.2
					c-0.4,0-0.7,0.2-0.7,0.6l-1.8,12.9c-0.1,0.4,0.1,0.6,0.6,0.7l25.4,2.1c1.4,0.1,2.5,0.7,3.4,1.9c0.9,1.1,1.2,2.4,1.1,3.9
					l-0.4,3.3c-0.2,1.5-0.8,2.7-2,3.7c-1.1,1-2.4,1.4-3.8,1.3L-594.3,632.8z"/>
				<path fill="#29B765" d="M-539.9,637.6c-1.2-0.1-2-0.7-2.4-1.8c-0.2-0.5-0.2-1-0.2-1.5c0.1-0.6,0.3-1.1,0.6-1.5l21-28.6
					c0.3-0.3,0.3-0.7,0.1-1.1l-13.6-28.6c-0.2-0.5-0.3-1-0.3-1.5c0-0.4,0.2-0.9,0.6-1.3c0.7-0.9,1.5-1.3,2.6-1.3l7.2,0.4
					c1.5,0.1,2.9,0.6,4.2,1.4c1.3,0.9,2.2,2,2.8,3.4l3.3,7.8c0,0.2,1.6,3.8,4.7,10.9c0,0.1,0.1,0.2,0.2,0.2c0.1,0,0.2,0,0.3-0.2
					c0.7-1.2,1.8-2.9,3.2-5.2c1.4-2.3,2.5-3.9,3.1-5l4.5-7.2c0.8-1.4,1.9-2.4,3.3-3.2c1.4-0.7,2.9-1,4.4-0.9l6.5,0.4
					c1.1,0.1,1.9,0.6,2.4,1.6c0.3,0.5,0.4,1,0.3,1.5c0,0.5-0.2,0.9-0.5,1.4l-19.1,27c-0.2,0.4-0.2,0.8,0,1.2l16.3,31.8
					c0.3,0.5,0.4,1.1,0.4,1.6c0,0.5-0.2,1-0.5,1.5c-0.6,1-1.5,1.5-2.8,1.4l-8.2-0.7c-1.6-0.1-3.1-0.7-4.5-1.7c-1.4-1-2.4-2.3-3-3.8
					l-4.2-9.3c-2.1-4.9-3.7-8.8-4.9-11.8c-0.1-0.1-0.1-0.1-0.3-0.1c-0.1,0-0.2,0-0.3,0.1c-3.9,6-6.2,9.6-6.9,10.8l-5.3,8.4
					c-0.9,1.4-2.1,2.5-3.5,3.2c-1.4,0.7-3,1-4.6,0.9L-539.9,637.6z"/>
				<path fill="#29B765" d="M-465.5,644.1c-1.5-0.1-2.8-0.8-3.8-2c-1-1.2-1.5-2.6-1.4-4.1l3.3-58.8c0.1-1.4,0.7-2.6,1.8-3.5
					c1.1-0.9,2.3-1.4,3.8-1.3l20.7,1.2c20.4,1.2,30.6,9.2,30.3,24.3c-0.1,5.3-1.6,9.8-4.5,13.3c-2.9,3.6-6.7,6-11.3,7.4
					c-4.6,1.4-9.9,1.8-15.7,1.4l-9.8-0.8c-0.4,0-0.7,0.2-0.7,0.7l-0.8,17.5c-0.1,1.5-0.7,2.8-1.8,3.8c-1.1,1-2.5,1.5-4,1.3
					L-465.5,644.1z M-452.1,607.2c0,0.5,0.2,0.7,0.6,0.8l8.8,0.6c10,0.7,15.1-2.6,15.3-9.8c0.1-3.4-1.2-6-3.7-7.6
					c-2.6-1.6-6.3-2.6-11.3-2.9l-8.2-0.5c-0.4,0-0.6,0.2-0.7,0.7L-452.1,607.2z"/>
			</g>
			<g>
				<g id="XMLID_10_">
					<path fill="#2ECC71" d="M-594.3,630c-1.3-0.1-2.4-0.7-3.2-1.9c-0.8-1.1-1.1-2.4-0.9-3.8l8.2-55.4c0.2-1.3,0.8-2.4,1.9-3.3
						c1.1-0.9,2.3-1.3,3.5-1.2l34,2c1.3,0.1,2.4,0.6,3.3,1.7c0.9,1,1.2,2.2,1.1,3.6l-0.3,2.9c-0.2,1.3-0.8,2.5-1.9,3.4
						c-1.1,0.9-2.3,1.3-3.6,1.3l-23.7-1.5c-0.4,0-0.7,0.2-0.7,0.5l-1.5,11.1c-0.1,0.4,0.1,0.6,0.6,0.6l16.2,1.1
						c1.4,0.1,2.5,0.7,3.3,1.8c0.8,1.1,1.2,2.3,1,3.7l-0.4,3.1c-0.2,1.4-0.8,2.6-1.9,3.5c-1.1,0.9-2.3,1.4-3.7,1.3l-16.3-1.2
						c-0.4,0-0.7,0.2-0.7,0.6l-1.8,12.9c-0.1,0.4,0.1,0.6,0.6,0.7l25.4,2.1c1.4,0.1,2.5,0.7,3.4,1.9c0.9,1.1,1.2,2.4,1.1,3.9
						l-0.4,3.3c-0.2,1.5-0.8,2.7-2,3.7c-1.1,1-2.4,1.4-3.8,1.3L-594.3,630z"/>
				</g>
				<g id="XMLID_8_">
					<path fill="#2ECC71" d="M-539.9,634.7c-1.2-0.1-2-0.7-2.4-1.8c-0.2-0.5-0.2-1-0.2-1.5c0.1-0.6,0.3-1.1,0.6-1.5l21-28.6
						c0.3-0.3,0.3-0.7,0.1-1.1l-13.6-28.6c-0.2-0.5-0.3-1-0.3-1.5c0-0.4,0.2-0.9,0.6-1.3c0.7-0.9,1.5-1.3,2.6-1.3l7.2,0.4
						c1.5,0.1,2.9,0.6,4.2,1.4c1.3,0.9,2.2,2,2.8,3.4l3.3,7.8c0,0.2,1.6,3.8,4.7,10.9c0,0.1,0.1,0.2,0.2,0.2c0.1,0,0.2,0,0.3-0.2
						c0.7-1.2,1.8-2.9,3.2-5.2c1.4-2.3,2.5-3.9,3.1-5l4.5-7.2c0.8-1.4,1.9-2.4,3.3-3.2c1.4-0.7,2.9-1,4.4-0.9l6.5,0.4
						c1.1,0.1,1.9,0.6,2.4,1.6c0.3,0.5,0.4,1,0.3,1.5c0,0.5-0.2,0.9-0.5,1.4l-19.1,27c-0.2,0.4-0.2,0.8,0,1.2l16.3,31.8
						c0.3,0.5,0.4,1.1,0.4,1.6c0,0.5-0.2,1-0.5,1.5c-0.6,1-1.5,1.5-2.8,1.4l-8.2-0.7c-1.6-0.1-3.1-0.7-4.5-1.7c-1.4-1-2.4-2.3-3-3.8
						l-4.2-9.3c-2.1-4.9-3.7-8.8-4.9-11.8c-0.1-0.1-0.1-0.1-0.3-0.1c-0.1,0-0.2,0-0.3,0.1c-3.9,6-6.2,9.6-6.9,10.8l-5.3,8.4
						c-0.9,1.4-2.1,2.5-3.5,3.2c-1.4,0.7-3,1-4.6,0.9L-539.9,634.7z"/>
				</g>
				<g id="XMLID_5_">
					<path fill="#2ECC71" d="M-465.5,641.3c-1.5-0.1-2.8-0.8-3.8-2c-1-1.2-1.5-2.6-1.4-4.1l3.3-58.8c0.1-1.4,0.7-2.6,1.8-3.5
						c1.1-0.9,2.3-1.4,3.8-1.3l20.7,1.2c20.4,1.2,30.6,9.2,30.3,24.3c-0.1,5.3-1.6,9.8-4.5,13.3c-2.9,3.6-6.7,6-11.3,7.4
						c-4.6,1.4-9.9,1.8-15.7,1.4l-9.8-0.8c-0.4,0-0.7,0.2-0.7,0.7l-0.8,17.5c-0.1,1.5-0.7,2.8-1.8,3.8c-1.1,1-2.5,1.5-4,1.3
						L-465.5,641.3z M-452.1,604.4c0,0.5,0.2,0.7,0.6,0.8l8.8,0.6c10,0.7,15.1-2.6,15.3-9.8c0.1-3.4-1.2-6-3.7-7.6
						c-2.6-1.6-6.3-2.6-11.3-2.9l-8.2-0.5c-0.4,0-0.6,0.2-0.7,0.7L-452.1,604.4z"/>
				</g>
			</g>
		</g>
	</g>
</g>
</svg>
