<?xml version="1.0" encoding="utf-8"?>
<!-- Generator: Adobe Illustrator 19.0.0, SVG Export Plug-In . SVG Version: 6.00 Build 0)  -->
<svg version="1.2" baseProfile="tiny" id="圖層_1"
	 xmlns="http://www.w3.org/2000/svg" xmlns:xlink="http://www.w3.org/1999/xlink" x="0px" y="0px" viewBox="-732 310 453.5 462"
	 xml:space="preserve">
<g id="XMLID_185_">
	<g id="XMLID_399_">
		<g id="XMLID_400_">
			<g id="XMLID_402_">
				<g>
					<path fill="#8C6239" d="M-363.5,772H-647c-47,0-85-38.1-85-85V403.5c0-47,38.1-85,85-85h283.5c47,0,85,38.1,85,85V687
						C-278.5,734-316.5,772-363.5,772z"/>
				</g>
				<g>
					<path fill="#BB7434" d="M-363.5,763.5H-647c-47,0-85-38.1-85-85V395c0-47,38.1-85,85-85h283.5c47,0,85,38.1,85,85v283.5
						C-278.5,725.5-316.5,763.5-363.5,763.5z"/>
				</g>
			</g>
			<path id="XMLID_401_" fill="#623F1E" d="M-382.2,729.4h-246.1c-38.4,0-69.6-31.2-69.6-69.6V413.7c0-38.4,31.2-69.6,69.6-69.6
				h246.1c38.4,0,69.6,31.2,69.6,69.6v246.1C-312.6,698.3-343.7,729.4-382.2,729.4z"/>
		</g>
	</g>
	<g id="XMLID_186_">
		<g id="XMLID_279_">
			<g id="XMLID_357_">
				<g>
					<path fill="#DBDCDC" d="M-475.2,617.6c-0.4,0-0.9,0-1.3-0.1l-124.1-11c-4-0.4-7.6-2.2-10.2-5.3s-3.8-7-3.4-11l15.7-176.5
						c0.7-7.8,7.1-13.7,15-13.7c0.4,0,0.9,0,1.3,0.1l124.1,11c4,0.4,7.6,2.2,10.2,5.3c2.6,3.1,3.8,7,3.4,11l-15.7,176.5
						C-460.9,611.7-467.4,617.6-475.2,617.6z"/>
					<path fill="#DBDCDC" d="M-583.6,403.5c0.3,0,0.7,0,1,0l124.1,11c6.4,0.6,11,6.2,10.5,12.5l-15.7,176.5
						c-0.5,6-5.6,10.5-11.5,10.5c-0.3,0-0.7,0-1,0l-124.1-11c-6.4-0.6-11-6.2-10.5-12.5l15.7-176.5
						C-594.6,408-589.5,403.5-583.6,403.5 M-583.6,396.5C-583.6,396.5-583.6,396.5-583.6,396.5c-9.7,0-17.6,7.3-18.5,16.9
						l-15.7,176.5c-0.9,10.2,6.6,19.2,16.8,20.1l124.1,11c0.5,0,1.1,0.1,1.7,0.1c9.7,0,17.6-7.3,18.5-16.9l15.7-176.5
						c0.9-10.2-6.6-19.2-16.8-20.1l-124.1-11C-582.5,396.5-583.1,396.5-583.6,396.5L-583.6,396.5z"/>
				</g>
				<g>
					<path fill="#F7F7F7" d="M-475.2,612c-0.4,0-0.9,0-1.3-0.1l-124.1-11c-4-0.4-7.6-2.2-10.2-5.3s-3.8-7-3.4-11l15.7-176.5
						c0.7-7.8,7.1-13.7,15-13.7c0.4,0,0.9,0,1.3,0.1l124.1,11c4,0.4,7.6,2.2,10.2,5.3c2.6,3.1,3.8,7,3.4,11l-15.7,176.5
						C-460.9,606.1-467.4,612-475.2,612z"/>
					<path fill="#F7F7F7" d="M-583.6,397.8c0.3,0,0.7,0,1,0l124.1,11c6.4,0.6,11,6.2,10.5,12.5l-15.7,176.5
						c-0.5,6-5.6,10.5-11.5,10.5c-0.3,0-0.7,0-1,0l-124.1-11c-6.4-0.6-11-6.2-10.5-12.5l15.7-176.5
						C-594.6,402.3-589.5,397.8-583.6,397.8 M-583.6,390.8C-583.6,390.8-583.6,390.8-583.6,390.8c-9.7,0-17.6,7.3-18.5,16.9
						l-15.7,176.5c-0.9,10.2,6.6,19.2,16.8,20.1l124.1,11c0.5,0,1.1,0.1,1.7,0.1c9.7,0,17.6-7.3,18.5-16.9l15.7-176.5
						c0.9-10.2-6.6-19.2-16.8-20.1l-124.1-11C-582.5,390.9-583.1,390.8-583.6,390.8L-583.6,390.8z"/>
				</g>
			</g>
			<g id="XMLID_280_">
				<g id="XMLID_341_">
					<g>
						<path fill="#9E9E9F" d="M-476.3,611.2l-124.1-11c-6.4-0.6-11-6.2-10.5-12.5l15.7-176.5c0.6-6.4,6.2-11,12.5-10.5l124.1,11
							c6.4,0.6,11,6.2,10.5,12.5l-15.7,176.5C-464.3,607.1-469.9,611.8-476.3,611.2z"/>
					</g>
					<g>
						<path fill="#DBDCDC" d="M-476.3,608.4l-124.1-11c-6.4-0.6-11-6.2-10.5-12.5l15.7-176.5c0.6-6.4,6.2-11,12.5-10.5l124.1,11
							c6.4,0.6,11,6.2,10.5,12.5l-15.7,176.5C-464.3,604.3-469.9,609-476.3,608.4z"/>
					</g>
				</g>
				<g id="XMLID_281_">
					<path id="XMLID_334_" fill="#3E3A39" d="M-572.6,455.9c-2.3-0.2-4-1.1-5.3-2.6c-1.3-1.5-1.9-3.4-1.7-5.7
						c0.2-2.7,1.6-4.8,4.2-6.1c2.6-1.3,6.5-2,11.9-2.2c0.2,0,0.3-0.1,0.4-0.3c0.2-3.6-1.3-5.5-4.5-5.8c-1.8-0.2-3.8,0.2-5.9,1.1
						c-0.3,0.2-0.7,0.2-1,0.2c-0.2,0-0.4-0.1-0.5-0.1c-0.5-0.2-0.9-0.6-1.2-1.1c-0.2-0.4-0.2-0.7-0.2-1c0-0.2,0.1-0.4,0.1-0.6
						c0.2-0.6,0.6-1,1.1-1.2c3.1-1.3,6.1-1.8,8.9-1.6c3.2,0.3,5.5,1.5,6.9,3.5c1.4,2.1,1.9,4.9,1.6,8.4l-1.2,13.5
						c-0.1,0.6-0.3,1.1-0.8,1.5c-0.5,0.4-1,0.6-1.6,0.5c-0.6-0.1-1.2-0.3-1.7-0.8c-0.5-0.5-0.7-1-0.7-1.7l0-0.7
						c0-0.1-0.1-0.1-0.1-0.1c0,0-0.1,0-0.1,0.1C-567,455.2-569.9,456.1-572.6,455.9z M-570.6,451.7c1.9,0.2,4-0.6,6.3-2.2
						c0.2-0.1,0.3-0.3,0.3-0.6l0.5-5.7c0-0.2-0.1-0.3-0.2-0.3l0,0c-3.7,0.1-6.3,0.6-7.9,1.4c-1.6,0.8-2.5,2-2.6,3.5
						c-0.1,1.2,0.2,2.2,0.9,2.8C-572.8,451.2-571.8,451.6-570.6,451.7z"/>
					<path id="XMLID_327_" fill="#3E3A39" d="M-539.4,458.8c-2.5-0.2-4.8-1.5-6.8-3.9c0,0-0.1-0.1-0.1-0.1c0,0-0.1,0-0.1,0l-0.1,0.5
						c-0.2,0.6-0.5,1-1,1.4c-0.5,0.4-1.1,0.5-1.7,0.5c-0.6-0.1-1.1-0.3-1.4-0.8c-0.4-0.5-0.5-1-0.5-1.6l2.9-33
						c0.1-0.7,0.4-1.3,1-1.8c0.6-0.5,1.2-0.7,2-0.6c0.8,0.1,1.4,0.4,1.9,1c0.5,0.6,0.7,1.2,0.6,2l-0.7,7.3l-0.5,4.1
						c0,0.1,0,0.1,0.1,0.1c0.1,0,0.1,0,0.1,0c2.8-1.9,5.4-2.7,7.8-2.5c3.2,0.3,5.7,1.7,7.3,4.3c1.6,2.6,2.2,5.9,1.9,9.9
						c-0.4,4.3-1.8,7.7-4.2,10C-533.6,458.1-536.3,459.1-539.4,458.8z M-540,454.3c1.9,0.2,3.6-0.5,5-2.1c1.4-1.6,2.2-3.8,2.5-6.8
						c0.5-5.9-1.3-9-5.3-9.3c-1.9-0.2-4,0.6-6.2,2.4c-0.2,0.1-0.3,0.3-0.3,0.6l-1.1,12c0,0.2,0.1,0.5,0.2,0.6
						C-543.7,453.2-541.9,454.1-540,454.3z"/>
					<path id="XMLID_322_" fill="#3E3A39" d="M-511.1,461.4c-3.6-0.3-6.5-1.8-8.6-4.4c-2.1-2.6-3-6.1-2.6-10.3
						c0.2-2.1,0.7-4,1.6-5.7c0.9-1.7,1.9-3.1,3.2-4.1c1.3-1,2.7-1.8,4.4-2.3c1.6-0.5,3.3-0.7,5-0.5c2.1,0.2,4,0.9,5.7,2.2
						c0.5,0.4,0.7,0.9,0.8,1.5c0,0.1,0,0.2,0,0.3c0,0.5-0.3,0.9-0.6,1.3c-0.4,0.4-0.9,0.7-1.5,0.7c-0.1,0-0.2,0-0.4,0
						c-0.5,0-0.9-0.2-1.3-0.4c-0.9-0.6-1.8-0.9-2.8-1c-2.2-0.2-4.1,0.5-5.6,2.1c-1.6,1.6-2.5,3.7-2.7,6.5c-0.2,2.7,0.2,5,1.4,6.8
						c1.2,1.8,2.9,2.8,5.1,3c1.3,0.1,2.7-0.2,4-0.8c0.4-0.2,0.8-0.3,1.2-0.2c0.1,0,0.3,0,0.4,0.1c0.5,0.2,1,0.5,1.2,1
						c0.2,0.4,0.3,0.8,0.3,1.3c0,0.1,0,0.3-0.1,0.4c-0.1,0.6-0.5,1-1,1.3C-506.4,461.1-508.7,461.6-511.1,461.4z"/>
					<path id="XMLID_317_" fill="#3E3A39" d="M-489.4,463.3c-3.3-0.3-5.8-1.7-7.6-4.3c-1.7-2.6-2.4-6-2-10.3
						c0.4-4.1,1.8-7.3,4.2-9.6c2.4-2.4,5.2-3.4,8.2-3.1c1.3,0.1,2.5,0.4,3.5,1c1,0.5,2,1.3,3,2.3c0,0,0.1,0,0.1,0
						c0.1,0,0.1-0.1,0.1-0.2l0.1-4l0.6-6.9c0.1-0.8,0.4-1.4,1-1.9c0.6-0.5,1.3-0.7,2-0.6c0.8,0.1,1.4,0.4,1.9,1
						c0.5,0.6,0.7,1.2,0.6,2l-2.9,32.8c-0.1,0.6-0.3,1.1-0.8,1.5c-0.5,0.4-1,0.6-1.6,0.5c-0.6-0.1-1.2-0.3-1.7-0.8
						c-0.5-0.5-0.7-1-0.7-1.7l0-0.7c0,0,0,0-0.1-0.1c-0.1,0-0.1,0-0.1,0C-484,462.6-486.6,463.5-489.4,463.3z M-487.7,458.9
						c2,0.2,4-0.6,6-2.4c0.2-0.1,0.3-0.3,0.3-0.6l1.1-12.1c0-0.2,0-0.4-0.2-0.6c-1.6-1.6-3.3-2.4-5.3-2.6c-1.9-0.2-3.5,0.5-4.9,2.1
						c-1.4,1.5-2.2,3.7-2.5,6.4c-0.3,3,0.1,5.3,1.1,7C-491.2,457.8-489.7,458.7-487.7,458.9z"/>
					<path id="XMLID_314_" fill="#3E3A39" d="M-572.9,513.2c-3.7-0.3-6.6-1.8-8.8-4.5c-2.2-2.7-3.1-6.1-2.7-10.3
						c0.2-2,0.7-3.9,1.5-5.6c0.8-1.7,1.8-3.1,3.1-4.1s2.6-1.8,4-2.4c1.5-0.5,3-0.7,4.5-0.6c3.4,0.3,5.9,1.7,7.6,4.1
						c1.7,2.4,2.3,5.5,2,9.3l0,0c-0.1,0.7-0.5,1.3-1.1,1.8c-0.6,0.5-1.4,0.7-2.2,0.6l-13.8-1.2c-0.2,0-0.3,0.1-0.3,0.3
						c0,2.4,0.7,4.3,2,5.8s3.1,2.3,5.3,2.5c1.5,0.1,3.1-0.1,4.6-0.6c0.3-0.1,0.6-0.2,0.9-0.1c0.2,0,0.4,0.1,0.5,0.1
						c0.5,0.2,0.9,0.5,1.1,1c0.1,0.3,0.2,0.7,0.1,1c0,0.2,0,0.4-0.1,0.6c-0.2,0.5-0.6,0.9-1.1,1.1
						C-568.1,513-570.5,513.4-572.9,513.2z M-578.9,496.3c0,0.2,0.1,0.3,0.3,0.3l11.9,1.1c0.2,0,0.3-0.1,0.4-0.3
						c0.1-2.2-0.2-3.9-1.1-5.1c-0.9-1.3-2.3-2-4.1-2.1c-1.6-0.1-3.1,0.3-4.5,1.4C-577.8,492.8-578.7,494.4-578.9,496.3z"/>
					<path id="XMLID_312_" fill="#3E3A39" d="M-542,476.9c0.5,0.2,0.9,0.5,1.2,1.1c0.2,0.4,0.2,0.7,0.2,1c0,0.2-0.1,0.4-0.2,0.6
						c-0.2,0.5-0.5,0.9-1,1.1c-0.4,0.2-0.8,0.3-1.2,0.2c-0.1,0-0.3,0-0.4-0.1c-0.3-0.1-0.6-0.1-0.8-0.1c-2.3-0.2-3.6,1.3-3.9,4.4
						l-0.3,3c0,0.2,0.1,0.4,0.3,0.4l2.7,0.2c0.6,0.1,1.1,0.3,1.5,0.8c0.4,0.5,0.6,1,0.5,1.6c-0.1,0.6-0.3,1.1-0.8,1.5
						c-0.5,0.4-1,0.6-1.6,0.5l-2.7-0.2c-0.2,0-0.4,0.1-0.4,0.3l-1.7,18.6c-0.1,0.8-0.4,1.4-1,1.9c-0.6,0.5-1.2,0.7-2,0.6
						c-0.8-0.1-1.4-0.4-1.9-1c-0.5-0.6-0.7-1.2-0.6-2l1.7-18.6c0-0.2-0.1-0.4-0.3-0.4l-1.2-0.1c-0.6,0-1-0.3-1.4-0.7
						c-0.4-0.4-0.5-0.9-0.5-1.5c0.1-0.6,0.3-1.1,0.7-1.5c0.4-0.4,0.9-0.6,1.5-0.6l1.2,0c0.2,0,0.4-0.1,0.4-0.3l0.3-2.9
						c0.2-2.8,1.1-5,2.6-6.4c1.5-1.5,3.6-2.1,6.4-1.9C-543.7,476.5-542.9,476.7-542,476.9z"/>
					<path id="XMLID_308_" fill="#3E3A39" d="M-533.5,528c-3.2-0.3-5.8-1.1-7.7-2.5c-1.9-1.4-2.7-3.2-2.5-5.4c0.1-1,0.5-2,1.2-2.9
						c0.7-0.9,1.7-1.7,3-2.3c0.1,0,0.1-0.1,0.1-0.2c0-0.1,0-0.1-0.1-0.2c-1.4-1.1-2.1-2.6-1.9-4.5c0.2-1.8,1.2-3.3,3.2-4.5
						c0,0,0.1-0.1,0.1-0.1c0-0.1,0-0.1,0-0.1c-0.9-0.9-1.6-1.9-2.1-3.2c-0.5-1.3-0.7-2.6-0.6-4c0.3-2.8,1.4-5,3.5-6.5
						c2.1-1.5,4.6-2.2,7.4-1.9c1.2,0.1,2.3,0.4,3.4,0.8c0.2,0.1,0.4,0.2,0.6,0.2l6.9,0.6c0.6,0.1,1.1,0.3,1.4,0.7
						c0.4,0.4,0.5,0.9,0.5,1.5s-0.3,1-0.7,1.4c-0.4,0.4-0.9,0.5-1.5,0.5l-2.6-0.2c-0.1,0-0.1,0-0.1,0.1c0,0.1,0,0.1,0,0.1
						c0.9,1.3,1.2,2.8,1.1,4.7c-0.2,2.8-1.4,4.9-3.4,6.3c-2,1.4-4.4,2-7.2,1.8c-1.1-0.1-2.2-0.4-3.3-1c-0.2-0.1-0.4-0.1-0.6,0.1
						c-0.8,0.7-1.3,1.5-1.4,2.4c-0.1,0.8,0.2,1.5,0.8,2c0.6,0.5,1.7,0.8,3.3,0.9l4.8,0.4c3.1,0.3,5.4,1,6.9,2.2
						c1.5,1.2,2.1,2.8,1.9,5c-0.2,2.6-1.7,4.6-4.4,6.2C-526.1,527.8-529.4,528.4-533.5,528z M-532.4,524.5c2.2,0.2,4.1-0.1,5.6-0.9
						c1.5-0.8,2.3-1.8,2.4-3.1c0.1-1-0.2-1.8-1-2.3c-0.8-0.5-2-0.8-3.6-1l-3.9-0.3c-1-0.1-2.1-0.3-3.1-0.6c-0.1,0-0.1-0.1-0.2-0.1
						c-0.2,0-0.3,0-0.4,0.1c-1.4,0.9-2.2,2-2.3,3.4c-0.1,1.3,0.4,2.3,1.6,3.2C-536.2,523.8-534.6,524.3-532.4,524.5z M-534.6,502.7
						c0.9,1.1,2,1.7,3.4,1.8c1.4,0.1,2.6-0.3,3.6-1.2c1-0.9,1.6-2.3,1.8-3.9c0.2-1.7-0.2-3.1-1-4.2c-0.8-1.1-2-1.7-3.4-1.8
						c-1.4-0.1-2.6,0.3-3.7,1.2c-1,0.9-1.6,2.2-1.8,3.9C-535.9,500.2-535.5,501.6-534.6,502.7z"/>
					<path id="XMLID_304_" fill="#3E3A39" d="M-509.3,517.5c-0.6,0.5-1.2,0.7-2,0.6c-0.8-0.1-1.4-0.4-1.9-1c-0.5-0.6-0.7-1.2-0.6-2
						l2.9-32.4c0.1-0.7,0.4-1.3,1-1.8c0.6-0.5,1.2-0.7,2-0.6c0.8,0.1,1.4,0.4,1.9,1c0.5,0.6,0.7,1.2,0.6,2l-0.7,7.3l-0.6,4.8
						c0,0.1,0,0.1,0.1,0.1c0.1,0,0.1,0,0.1,0c1.4-1.1,2.8-1.9,4.1-2.5s2.8-0.8,4.4-0.7c5.3,0.5,7.7,4.2,7.1,11.1l-1.2,13.7
						c-0.1,0.8-0.4,1.4-1,1.9c-0.6,0.5-1.2,0.7-2,0.6c-0.8-0.1-1.4-0.4-1.9-1c-0.5-0.6-0.7-1.2-0.6-2l1.2-13c0.2-2.3,0-3.9-0.6-4.9
						c-0.6-1-1.7-1.6-3.2-1.8c-1.1-0.1-2.1,0.1-3.1,0.5c-0.9,0.4-2.1,1.2-3.4,2.2c-0.2,0.2-0.3,0.4-0.3,0.6l-1.4,15.5
						C-508.4,516.4-508.8,517-509.3,517.5z"/>
					<path id="XMLID_297_" fill="#3E3A39" d="M-476.6,489c-0.7,0.5-1.6,0.8-2.6,0.7c-1-0.1-1.8-0.5-2.4-1.1
						c-0.6-0.7-0.9-1.5-0.8-2.4c0.1-1,0.5-1.7,1.2-2.3c0.7-0.5,1.6-0.8,2.6-0.7c1,0.1,1.8,0.5,2.4,1.1c0.6,0.7,0.9,1.5,0.8,2.4
						C-475.5,487.8-475.9,488.5-476.6,489z M-479.9,520.1c-0.6,0.5-1.2,0.7-2,0.6c-0.8-0.1-1.4-0.4-1.9-1c-0.5-0.6-0.7-1.2-0.6-2
						l1.8-20.7c0.1-0.7,0.4-1.3,1-1.8c0.6-0.5,1.2-0.7,2-0.6c0.8,0.1,1.4,0.4,1.9,1c0.5,0.6,0.7,1.2,0.6,2l-1.8,20.7
						C-479,519-479.4,519.6-479.9,520.1z"/>
					<path id="XMLID_293_" fill="#3E3A39" d="M-592.1,579.7c-0.7-0.1-1.4-0.2-2-0.3c-0.6-0.1-1-0.5-1.3-1c-0.2-0.4-0.2-0.7-0.2-1.1
						c0-0.2,0.1-0.4,0.1-0.6c0.2-0.5,0.5-0.9,1-1.2c0.5-0.2,0.9-0.3,1.5-0.2c0.1,0,0.1,0,0.2,0c0.1,0,0.2,0,0.3,0
						c1.2,0.1,2-0.2,2.5-1c0.5-0.7,0.8-1.9,1-3.6l2.3-25.4c0.1-0.7,0.4-1.3,1-1.8c0.6-0.5,1.3-0.7,2-0.6c0.8,0.1,1.4,0.4,1.9,1
						c0.5,0.6,0.7,1.2,0.6,2l-2.3,25.3C-584,577.3-586.9,580.1-592.1,579.7z M-580.7,537.3c-0.7,0.5-1.6,0.8-2.6,0.7
						c-1-0.1-1.8-0.5-2.4-1.1c-0.6-0.7-0.9-1.5-0.8-2.4c0.1-1,0.5-1.7,1.2-2.3c0.7-0.5,1.6-0.7,2.6-0.7c1,0.1,1.8,0.5,2.4,1.1
						c0.6,0.6,0.9,1.5,0.8,2.4C-579.6,536-580,536.7-580.7,537.3z"/>
					<path id="XMLID_291_" fill="#3E3A39" d="M-570.6,569.4c-0.6,0.5-1.2,0.7-1.9,0.6c-0.7-0.1-1.3-0.4-1.8-1
						c-0.5-0.6-0.7-1.2-0.6-1.9l2.9-32.5c0.1-0.7,0.4-1.3,1-1.8c0.6-0.5,1.2-0.7,1.9-0.6c0.7,0.1,1.3,0.4,1.8,0.9
						c0.5,0.6,0.7,1.2,0.6,1.9l-1.9,21.7c0,0,0,0,0.1,0.1c0,0,0.1,0,0.1,0l9.4-9.7c1.3-1.3,2.8-1.9,4.6-1.7l0.6,0
						c0.6,0,0.9,0.3,1.1,0.8c0.2,0.5,0.1,1-0.3,1.3l-7.6,7.6c-0.1,0.2-0.2,0.4,0,0.6l7,13.6c0.1,0.3,0.2,0.6,0.2,0.8
						c0,0.2-0.1,0.5-0.3,0.7c-0.3,0.5-0.8,0.7-1.4,0.7l-0.5,0c-0.9-0.1-1.6-0.4-2.4-0.8c-0.7-0.5-1.2-1.1-1.6-1.9l-4.6-9.7
						c-0.1-0.2-0.2-0.2-0.4,0l-4.3,4.2c-0.2,0.2-0.3,0.4-0.3,0.6l-0.3,3.8C-569.7,568.3-570,568.9-570.6,569.4z"/>
					<path id="XMLID_284_" fill="#3E3A39" d="M-542.6,573.2c-1.9-0.2-3.2-0.9-4-2.1c-0.7-1.2-1-2.9-0.8-5.1l2.6-29
						c0.1-0.7,0.4-1.3,1-1.8c0.6-0.5,1.2-0.7,2-0.6c0.8,0.1,1.4,0.4,1.9,1c0.5,0.6,0.7,1.2,0.6,2l-2.6,29.3
						c-0.1,0.9,0.1,1.6,0.6,1.9c0.1,0,0.2,0.1,0.4,0.3c0.2,0.1,0.4,0.2,0.4,0.3c0.1,0.1,0.2,0.2,0.3,0.3c0.1,0.1,0.3,0.2,0.3,0.4
						c0.1,0.1,0.1,0.3,0.1,0.4l0.1,0.6c0,0.1,0,0.3,0,0.4c0,0.4-0.2,0.8-0.5,1.2c-0.4,0.5-0.8,0.7-1.4,0.7
						C-542,573.3-542.3,573.3-542.6,573.2z"/>
					<path id="XMLID_282_" fill="#3E3A39" d="M-529.2,573c-0.6,0.5-1.2,0.7-2,0.6c-0.8-0.1-1.4-0.4-1.9-1c-0.5-0.6-0.7-1.2-0.6-2
						l1.9-21.2c0.1-0.6,0.3-1.1,0.8-1.5c0.5-0.4,1-0.6,1.6-0.5c0.6,0.1,1.2,0.3,1.6,0.8c0.4,0.5,0.7,1,0.7,1.7l0,1.4
						c0,0.1,0.1,0.1,0.1,0.1c0,0,0.1,0,0.1,0c2.9-2.6,5.7-3.8,8.4-3.6c3.5,0.3,5.7,2,6.7,5.1c0,0.2,0.2,0.2,0.4,0.1
						c1.5-1.3,2.9-2.3,4.3-3c1.4-0.7,2.8-0.9,4.3-0.8c5.3,0.5,7.7,4.2,7.1,11.1l-1.2,13.7c-0.1,0.8-0.4,1.4-1,1.9
						c-0.6,0.5-1.3,0.7-2,0.6c-0.8-0.1-1.4-0.4-1.9-1c-0.5-0.6-0.7-1.2-0.6-2l1.2-13c0.2-2.2,0-3.9-0.6-4.9
						c-0.6-1.1-1.7-1.6-3.2-1.8c-1.7-0.2-3.7,0.8-5.9,2.8c-0.2,0.2-0.3,0.4-0.3,0.6l-1.4,15.4c-0.1,0.8-0.4,1.4-1,1.9
						c-0.6,0.5-1.3,0.7-2,0.6c-0.8-0.1-1.4-0.4-1.9-1c-0.5-0.6-0.7-1.2-0.6-2l1.2-13c0.2-2.2,0-3.9-0.6-4.9c-0.6-1-1.7-1.6-3.2-1.8
						c-1.7-0.2-3.7,0.8-5.9,2.8c-0.2,0.2-0.3,0.4-0.3,0.6l-1.4,15.5C-528.3,571.9-528.6,572.6-529.2,573z"/>
				</g>
			</g>
		</g>
		<g id="XMLID_187_">
			<g id="XMLID_254_">
				<g>
					<path fill="#DBDCDC" d="M-420.7,687.8c-0.4,0-0.9,0-1.3-0.1l-124.1-11c-8.3-0.7-14.4-8.1-13.7-16.3l15.7-176.5
						c0.7-7.8,7.1-13.7,15-13.7c0.4,0,0.9,0,1.3,0.1l124.1,11c4,0.4,7.6,2.2,10.2,5.3c2.6,3.1,3.8,7,3.4,11l-15.7,176.5
						C-406.4,681.9-412.8,687.8-420.7,687.8z"/>
					<path fill="#DBDCDC" d="M-529.1,473.7c0.3,0,0.7,0,1,0l124.1,11c6.4,0.6,11,6.2,10.5,12.5l-15.7,176.5
						c-0.5,6-5.6,10.5-11.5,10.5c-0.3,0-0.7,0-1,0l-124.1-11c-6.4-0.6-11-6.2-10.5-12.5l15.7-176.5
						C-540,478.2-535,473.7-529.1,473.7 M-529.1,466.7C-529.1,466.7-529.1,466.7-529.1,466.7c-9.7,0-17.6,7.3-18.5,16.9l-15.7,176.5
						c-0.9,10.2,6.6,19.2,16.8,20.1l124.1,11c0.5,0,1.1,0.1,1.7,0.1c9.7,0,17.6-7.3,18.5-16.9l15.7-176.5c0.4-4.9-1.1-9.7-4.2-13.5
						c-3.2-3.8-7.6-6.1-12.6-6.6l-124.1-11C-528,466.7-528.5,466.7-529.1,466.7L-529.1,466.7z"/>
				</g>
				<g>
					<path fill="#F7F7F7" d="M-420.7,682.1c-0.4,0-0.9,0-1.3-0.1l-124.1-11c-8.3-0.7-14.4-8.1-13.7-16.3l15.7-176.5
						c0.7-7.8,7.1-13.7,15-13.7c0.4,0,0.9,0,1.3,0.1l124.1,11c4,0.4,7.6,2.2,10.2,5.3c2.6,3.1,3.8,7,3.4,11l-15.7,176.5
						C-406.4,676.2-412.8,682.1-420.7,682.1z"/>
					<path fill="#F7F7F7" d="M-529.1,468c0.3,0,0.7,0,1,0l124.1,11c6.4,0.6,11,6.2,10.5,12.5l-15.7,176.5c-0.5,6-5.6,10.5-11.5,10.5
						c-0.3,0-0.7,0-1,0l-124.1-11c-6.4-0.6-11-6.2-10.5-12.5l15.7-176.5C-540,472.5-535,468-529.1,468 M-529.1,461
						C-529.1,461-529.1,461-529.1,461c-9.7,0-17.6,7.3-18.5,16.9l-15.7,176.5c-0.9,10.2,6.6,19.2,16.8,20.1l124.1,11
						c0.5,0,1.1,0.1,1.7,0.1c9.7,0,17.6-7.3,18.5-16.9l15.7-176.5c0.4-4.9-1.1-9.7-4.2-13.5c-3.2-3.8-7.6-6.1-12.6-6.6l-124.1-11
						C-528,461-528.5,461-529.1,461L-529.1,461z"/>
				</g>
			</g>
			<g id="XMLID_188_">
				<g id="XMLID_248_">
					<g>
						<path fill="#9E9E9F" d="M-421.7,681.4l-124.1-11c-6.4-0.6-11-6.2-10.5-12.5l15.7-176.5c0.6-6.4,6.2-11,12.5-10.5l124.1,11
							c6.4,0.6,11,6.2,10.5,12.5l-15.7,176.5C-409.8,677.3-415.4,682-421.7,681.4z"/>
					</g>
					<g>
						<path fill="#DBDCDC" d="M-421.7,678.6l-124.1-11c-6.4-0.6-11-6.2-10.5-12.5l15.7-176.5c0.6-6.4,6.2-11,12.5-10.5l124.1,11
							c6.4,0.6,11,6.2,10.5,12.5l-15.7,176.5C-409.8,674.5-415.4,679.2-421.7,678.6z"/>
					</g>
				</g>
				<g id="XMLID_190_">
					<path id="XMLID_243_" fill="#3E3A39" d="M-518.1,526.1c-2.3-0.2-4-1.1-5.3-2.6c-1.3-1.5-1.9-3.4-1.7-5.7
						c0.2-2.7,1.6-4.8,4.2-6.1c2.6-1.3,6.5-2,11.9-2.2c0.2,0,0.3-0.1,0.4-0.3c0.2-3.6-1.3-5.5-4.5-5.8c-1.8-0.2-3.8,0.2-5.9,1.1
						c-0.3,0.2-0.7,0.2-1,0.2c-0.2,0-0.4-0.1-0.5-0.1c-0.5-0.2-0.9-0.6-1.2-1.1c-0.2-0.4-0.2-0.7-0.2-1c0-0.2,0.1-0.4,0.1-0.6
						c0.2-0.6,0.6-1,1.1-1.2c3.1-1.3,6.1-1.8,8.9-1.6c3.2,0.3,5.5,1.5,6.9,3.5c1.4,2.1,1.9,4.9,1.6,8.4l-1.2,13.5
						c-0.1,0.6-0.3,1.1-0.8,1.5c-0.5,0.4-1,0.6-1.6,0.5c-0.6-0.1-1.2-0.3-1.7-0.8c-0.5-0.5-0.7-1-0.7-1.7l0-0.7
						c0-0.1-0.1-0.1-0.1-0.1c0,0-0.1,0-0.1,0.1C-512.5,525.4-515.4,526.3-518.1,526.1z M-516,521.9c1.9,0.2,4-0.6,6.3-2.2
						c0.2-0.1,0.3-0.3,0.3-0.6l0.5-5.7c0-0.2-0.1-0.3-0.2-0.3l0,0c-3.7,0.1-6.3,0.6-7.9,1.4c-1.6,0.8-2.5,2-2.6,3.5
						c-0.1,1.2,0.2,2.2,0.9,2.8C-518.2,521.4-517.3,521.8-516,521.9z"/>
					<path id="XMLID_240_" fill="#3E3A39" d="M-484.9,529c-2.5-0.2-4.8-1.5-6.8-3.9c0,0-0.1-0.1-0.1-0.1c0,0-0.1,0-0.1,0l-0.1,0.5
						c-0.2,0.6-0.5,1-1,1.4c-0.5,0.4-1.1,0.5-1.7,0.5c-0.6-0.1-1.1-0.3-1.4-0.8s-0.5-1-0.5-1.6l2.9-33c0.1-0.7,0.4-1.3,1-1.8
						c0.6-0.5,1.2-0.7,2-0.6c0.8,0.1,1.4,0.4,1.9,1c0.5,0.6,0.7,1.2,0.6,2l-0.7,7.3l-0.5,4.1c0,0.1,0,0.1,0.1,0.1c0.1,0,0.1,0,0.1,0
						c2.8-1.9,5.4-2.7,7.8-2.5c3.2,0.3,5.7,1.7,7.3,4.3c1.6,2.6,2.2,5.9,1.9,9.9c-0.4,4.3-1.8,7.7-4.2,10
						C-479,528.3-481.8,529.3-484.9,529z M-485.5,524.4c1.9,0.2,3.6-0.5,5-2.1c1.4-1.6,2.2-3.8,2.5-6.8c0.5-5.9-1.3-9-5.3-9.3
						c-1.9-0.2-4,0.6-6.2,2.4c-0.2,0.1-0.3,0.3-0.3,0.6l-1.1,12c0,0.2,0.1,0.5,0.2,0.6C-489.1,523.4-487.4,524.3-485.5,524.4z"/>
					<path id="XMLID_238_" fill="#3E3A39" d="M-456.6,531.5c-3.6-0.3-6.5-1.8-8.6-4.4c-2.1-2.6-3-6.1-2.6-10.3
						c0.2-2.1,0.7-4,1.6-5.7c0.9-1.7,1.9-3.1,3.2-4.1c1.3-1,2.7-1.8,4.4-2.3c1.6-0.5,3.3-0.7,5-0.5c2.1,0.2,4,0.9,5.7,2.2
						c0.5,0.4,0.7,0.9,0.8,1.5c0,0.1,0,0.2,0,0.3c0,0.5-0.3,0.9-0.6,1.3c-0.4,0.4-0.9,0.7-1.5,0.7c-0.1,0-0.2,0-0.4,0
						c-0.5,0-0.9-0.2-1.3-0.4c-0.9-0.6-1.8-0.9-2.8-1c-2.2-0.2-4.1,0.5-5.6,2.1c-1.6,1.6-2.5,3.7-2.7,6.5c-0.2,2.7,0.2,5,1.4,6.8
						c1.2,1.8,2.9,2.8,5.1,3c1.3,0.1,2.7-0.2,4-0.8c0.4-0.2,0.8-0.3,1.2-0.2c0.1,0,0.3,0,0.4,0.1c0.5,0.2,1,0.5,1.2,1
						c0.2,0.4,0.3,0.8,0.3,1.3c0,0.1,0,0.3-0.1,0.4c-0.1,0.6-0.5,1-1,1.3C-451.8,531.3-454.1,531.7-456.6,531.5z"/>
					<path id="XMLID_235_" fill="#3E3A39" d="M-434.8,533.5c-3.3-0.3-5.8-1.7-7.6-4.3c-1.7-2.6-2.4-6-2-10.3
						c0.4-4.1,1.8-7.3,4.2-9.6c2.4-2.4,5.2-3.4,8.2-3.1c1.3,0.1,2.5,0.4,3.5,1c1,0.5,2,1.3,3,2.3c0,0,0.1,0,0.1,0
						c0.1,0,0.1-0.1,0.1-0.2l0.1-4l0.6-6.9c0.1-0.8,0.4-1.4,1-1.9c0.6-0.5,1.3-0.7,2-0.6c0.8,0.1,1.4,0.4,1.9,1
						c0.5,0.6,0.7,1.2,0.6,2l-2.9,32.8c-0.1,0.6-0.3,1.1-0.8,1.5c-0.5,0.4-1,0.6-1.6,0.5c-0.6-0.1-1.2-0.3-1.7-0.8
						c-0.5-0.5-0.7-1-0.7-1.7l0-0.7c0,0,0,0-0.1-0.1c-0.1,0-0.1,0-0.1,0C-429.5,532.8-432.1,533.7-434.8,533.5z M-433.2,529.1
						c2,0.2,4-0.6,6-2.4c0.2-0.1,0.3-0.3,0.3-0.6l1.1-12.1c0-0.2,0-0.4-0.2-0.6c-1.6-1.6-3.3-2.4-5.3-2.6c-1.9-0.2-3.5,0.5-4.9,2.1
						c-1.4,1.5-2.2,3.7-2.5,6.4c-0.3,3,0.1,5.3,1.1,7C-436.7,528-435.2,528.9-433.2,529.1z"/>
					<path id="XMLID_227_" fill="#3E3A39" d="M-518.4,583.4c-3.7-0.3-6.6-1.8-8.8-4.5c-2.2-2.7-3.1-6.1-2.7-10.3
						c0.2-2,0.7-3.9,1.5-5.6c0.8-1.7,1.8-3.1,3.1-4.1c1.2-1.1,2.6-1.8,4-2.4c1.5-0.5,3-0.7,4.5-0.6c3.4,0.3,5.9,1.7,7.6,4.1
						c1.7,2.4,2.3,5.5,2,9.3l0,0c-0.1,0.7-0.5,1.3-1.1,1.8c-0.6,0.5-1.4,0.7-2.2,0.6l-13.8-1.2c-0.2,0-0.3,0.1-0.3,0.3
						c0,2.4,0.7,4.3,2,5.8s3.1,2.3,5.3,2.5c1.5,0.1,3.1-0.1,4.6-0.6c0.3-0.1,0.6-0.2,0.9-0.1c0.2,0,0.4,0.1,0.5,0.1
						c0.5,0.2,0.9,0.5,1.1,1c0.1,0.3,0.2,0.7,0.1,1c0,0.2,0,0.4-0.1,0.6c-0.2,0.5-0.6,0.9-1.1,1.1
						C-513.5,583.2-515.9,583.6-518.4,583.4z M-524.3,566.5c0,0.2,0.1,0.3,0.3,0.3l11.9,1.1c0.2,0,0.3-0.1,0.4-0.3
						c0.1-2.2-0.2-3.9-1.1-5.1c-0.9-1.3-2.3-2-4.1-2.1c-1.6-0.1-3.1,0.3-4.5,1.4C-523.2,563-524.2,564.6-524.3,566.5z"/>
					<path id="XMLID_225_" fill="#3E3A39" d="M-487.5,547.1c0.5,0.2,0.9,0.5,1.2,1.1c0.2,0.4,0.2,0.7,0.2,1c0,0.2-0.1,0.4-0.2,0.6
						c-0.2,0.5-0.5,0.9-1,1.1c-0.4,0.2-0.8,0.3-1.2,0.2c-0.1,0-0.3,0-0.4-0.1c-0.3-0.1-0.6-0.1-0.8-0.1c-2.3-0.2-3.6,1.3-3.9,4.4
						l-0.3,3c0,0.2,0.1,0.4,0.3,0.4l2.7,0.2c0.6,0.1,1.1,0.3,1.5,0.8c0.4,0.5,0.6,1,0.5,1.6c-0.1,0.6-0.3,1.1-0.8,1.5
						c-0.5,0.4-1,0.6-1.6,0.5l-2.7-0.2c-0.2,0-0.4,0.1-0.4,0.3l-1.7,18.6c-0.1,0.8-0.4,1.4-1,1.9c-0.6,0.5-1.2,0.7-2,0.6
						c-0.8-0.1-1.4-0.4-1.9-1c-0.5-0.6-0.7-1.2-0.6-2l1.7-18.6c0-0.2-0.1-0.4-0.3-0.4l-1.2-0.1c-0.6,0-1-0.3-1.4-0.7
						c-0.4-0.4-0.5-0.9-0.5-1.5c0.1-0.6,0.3-1.1,0.7-1.5c0.4-0.4,0.9-0.6,1.5-0.6l1.2,0c0.2,0,0.4-0.1,0.4-0.3l0.3-2.9
						c0.2-2.8,1.1-5,2.6-6.4c1.5-1.5,3.6-2.1,6.4-1.9C-489.2,546.7-488.4,546.8-487.5,547.1z"/>
					<path id="XMLID_215_" fill="#3E3A39" d="M-479,598.2c-3.2-0.3-5.8-1.1-7.7-2.5c-1.9-1.4-2.7-3.2-2.5-5.4c0.1-1,0.5-2,1.2-2.9
						c0.7-0.9,1.7-1.7,3-2.3c0.1,0,0.1-0.1,0.1-0.2c0-0.1,0-0.1-0.1-0.2c-1.4-1.1-2.1-2.6-1.9-4.5c0.2-1.8,1.2-3.3,3.2-4.5
						c0,0,0.1-0.1,0.1-0.1c0-0.1,0-0.1,0-0.1c-0.9-0.9-1.6-1.9-2.1-3.2c-0.5-1.3-0.7-2.6-0.6-4c0.3-2.8,1.4-5,3.5-6.5
						c2.1-1.5,4.6-2.2,7.4-1.9c1.2,0.1,2.3,0.4,3.4,0.8c0.2,0.1,0.4,0.2,0.6,0.2l6.9,0.6c0.6,0.1,1.1,0.3,1.4,0.7
						c0.4,0.4,0.5,0.9,0.5,1.5s-0.3,1-0.7,1.4c-0.4,0.4-0.9,0.5-1.5,0.5l-2.6-0.2c-0.1,0-0.1,0-0.1,0.1c0,0.1,0,0.1,0,0.1
						c0.9,1.3,1.2,2.8,1.1,4.7c-0.2,2.8-1.4,4.9-3.4,6.3c-2,1.4-4.4,2-7.2,1.8c-1.1-0.1-2.2-0.4-3.3-1c-0.2-0.1-0.4-0.1-0.6,0.1
						c-0.8,0.7-1.3,1.5-1.4,2.4c-0.1,0.8,0.2,1.5,0.8,2c0.6,0.5,1.7,0.8,3.3,0.9l4.8,0.4c3.1,0.3,5.4,1,6.9,2.2s2.1,2.8,1.9,5
						c-0.2,2.6-1.7,4.6-4.4,6.2C-471.5,598-474.9,598.6-479,598.2z M-477.9,594.7c2.2,0.2,4.1-0.1,5.6-0.9c1.5-0.8,2.3-1.8,2.4-3.1
						c0.1-1-0.2-1.8-1-2.3c-0.8-0.5-2-0.8-3.6-1l-3.9-0.3c-1-0.1-2.1-0.3-3.1-0.6c-0.1,0-0.1-0.1-0.2-0.1c-0.2,0-0.3,0-0.4,0.1
						c-1.4,0.9-2.2,2-2.3,3.4c-0.1,1.3,0.4,2.3,1.6,3.2C-481.7,594-480,594.5-477.9,594.7z M-480.1,572.9c0.9,1.1,2,1.7,3.4,1.8
						c1.4,0.1,2.6-0.3,3.6-1.2c1-0.9,1.6-2.3,1.8-3.9c0.2-1.7-0.2-3.1-1-4.2c-0.8-1.1-2-1.7-3.4-1.8c-1.4-0.1-2.6,0.3-3.7,1.2
						c-1,0.9-1.6,2.2-1.8,3.9C-481.3,570.4-481,571.8-480.1,572.9z"/>
					<path id="XMLID_213_" fill="#3E3A39" d="M-454.8,587.6c-0.6,0.5-1.2,0.7-2,0.6c-0.8-0.1-1.4-0.4-1.9-1c-0.5-0.6-0.7-1.2-0.6-2
						l2.9-32.4c0.1-0.7,0.4-1.3,1-1.8c0.6-0.5,1.2-0.7,2-0.6c0.8,0.1,1.4,0.4,1.9,1c0.5,0.6,0.7,1.2,0.6,2l-0.7,7.3l-0.6,4.8
						c0,0.1,0,0.1,0.1,0.1c0.1,0,0.1,0,0.1,0c1.4-1.1,2.8-1.9,4.1-2.5s2.8-0.8,4.4-0.7c5.3,0.5,7.7,4.2,7.1,11.1l-1.2,13.7
						c-0.1,0.8-0.4,1.4-1,1.9c-0.6,0.5-1.2,0.7-2,0.6c-0.8-0.1-1.4-0.4-1.9-1c-0.5-0.6-0.7-1.2-0.6-2l1.2-13c0.2-2.3,0-3.9-0.6-4.9
						c-0.6-1-1.7-1.6-3.2-1.8c-1.1-0.1-2.1,0.1-3.1,0.5c-0.9,0.4-2.1,1.2-3.4,2.2c-0.2,0.2-0.3,0.4-0.3,0.6l-1.4,15.5
						C-453.9,586.5-454.2,587.2-454.8,587.6z"/>
					<path id="XMLID_205_" fill="#3E3A39" d="M-422.1,559.2c-0.7,0.5-1.6,0.8-2.6,0.7c-1-0.1-1.8-0.5-2.4-1.1
						c-0.6-0.7-0.9-1.5-0.8-2.4c0.1-1,0.5-1.7,1.2-2.3s1.6-0.8,2.6-0.7c1,0.1,1.8,0.5,2.4,1.1c0.6,0.7,0.9,1.5,0.8,2.4
						C-420.9,557.9-421.3,558.7-422.1,559.2z M-425.4,590.2c-0.6,0.5-1.2,0.7-2,0.6c-0.8-0.1-1.4-0.4-1.9-1c-0.5-0.6-0.7-1.2-0.6-2
						l1.8-20.7c0.1-0.7,0.4-1.3,1-1.8c0.6-0.5,1.2-0.7,2-0.6c0.8,0.1,1.4,0.4,1.9,1c0.5,0.6,0.7,1.2,0.6,2l-1.8,20.7
						C-424.5,589.2-424.8,589.8-425.4,590.2z"/>
					<path id="XMLID_201_" fill="#3E3A39" d="M-537.6,649.8c-0.7-0.1-1.4-0.2-2-0.3c-0.6-0.1-1-0.5-1.3-1c-0.2-0.4-0.2-0.7-0.2-1.1
						c0-0.2,0.1-0.4,0.1-0.6c0.2-0.5,0.5-0.9,1-1.2c0.5-0.2,0.9-0.3,1.5-0.2c0.1,0,0.1,0,0.2,0c0.1,0,0.2,0,0.3,0
						c1.2,0.1,2-0.2,2.5-1c0.5-0.7,0.8-1.9,1-3.6l2.3-25.4c0.1-0.7,0.4-1.3,1-1.8c0.6-0.5,1.3-0.7,2-0.6c0.8,0.1,1.4,0.4,1.9,1
						c0.5,0.6,0.7,1.2,0.6,2l-2.3,25.3C-529.5,647.5-532.4,650.3-537.6,649.8z M-526.2,607.4c-0.7,0.5-1.6,0.8-2.6,0.7
						c-1-0.1-1.8-0.5-2.4-1.1c-0.6-0.7-0.9-1.5-0.8-2.4c0.1-1,0.5-1.7,1.2-2.3c0.7-0.5,1.6-0.7,2.6-0.7c1,0.1,1.8,0.5,2.4,1.1
						c0.6,0.6,0.9,1.5,0.8,2.4C-525,606.2-525.4,606.9-526.2,607.4z"/>
					<path id="XMLID_198_" fill="#3E3A39" d="M-516.1,639.5c-0.6,0.5-1.2,0.7-1.9,0.6c-0.7-0.1-1.3-0.4-1.8-1
						c-0.5-0.6-0.7-1.2-0.6-1.9l2.9-32.5c0.1-0.7,0.4-1.3,1-1.8c0.6-0.5,1.2-0.7,1.9-0.6c0.7,0.1,1.3,0.4,1.8,0.9
						c0.5,0.6,0.7,1.2,0.6,1.9l-1.9,21.7c0,0,0,0,0.1,0.1c0,0,0.1,0,0.1,0l9.4-9.7c1.3-1.3,2.8-1.9,4.6-1.7l0.6,0
						c0.6,0,0.9,0.3,1.1,0.8c0.2,0.5,0.1,1-0.3,1.3l-7.6,7.6c-0.1,0.2-0.2,0.4,0,0.6l7,13.6c0.1,0.3,0.2,0.6,0.2,0.8
						c0,0.2-0.1,0.5-0.3,0.7c-0.3,0.5-0.8,0.7-1.4,0.7l-0.5,0c-0.9-0.1-1.6-0.4-2.4-0.8s-1.2-1.1-1.6-1.9l-4.6-9.7
						c-0.1-0.2-0.2-0.2-0.4,0l-4.3,4.2c-0.2,0.2-0.3,0.4-0.3,0.6l-0.3,3.8C-515.2,638.5-515.5,639.1-516.1,639.5z"/>
					<path id="XMLID_193_" fill="#3E3A39" d="M-488.1,643.4c-1.9-0.2-3.2-0.9-4-2.1c-0.7-1.2-1-2.9-0.8-5.1l2.6-29
						c0.1-0.7,0.4-1.3,1-1.8c0.6-0.5,1.2-0.7,2-0.6c0.8,0.1,1.4,0.4,1.9,1c0.5,0.6,0.7,1.2,0.6,2l-2.6,29.3
						c-0.1,0.9,0.1,1.6,0.6,1.9c0.1,0,0.2,0.1,0.4,0.3c0.2,0.1,0.4,0.2,0.4,0.3c0.1,0.1,0.2,0.2,0.3,0.3c0.1,0.1,0.3,0.2,0.3,0.4
						c0.1,0.1,0.1,0.3,0.1,0.4l0.1,0.6c0,0.1,0,0.3,0,0.4c0,0.4-0.2,0.8-0.5,1.2c-0.4,0.5-0.8,0.7-1.4,0.7
						C-487.5,643.5-487.8,643.4-488.1,643.4z"/>
					<path id="XMLID_191_" fill="#3E3A39" d="M-474.6,643.2c-0.6,0.5-1.2,0.7-2,0.6c-0.8-0.1-1.4-0.4-1.9-1c-0.5-0.6-0.7-1.2-0.6-2
						l1.9-21.2c0.1-0.6,0.3-1.1,0.8-1.5c0.5-0.4,1-0.6,1.6-0.5c0.6,0.1,1.2,0.3,1.6,0.8c0.4,0.5,0.7,1,0.7,1.7l0,1.4
						c0,0.1,0.1,0.1,0.1,0.1c0,0,0.1,0,0.1,0c2.9-2.6,5.7-3.8,8.4-3.6c3.5,0.3,5.7,2,6.7,5.1c0,0.2,0.2,0.2,0.4,0.1
						c1.5-1.3,2.9-2.3,4.3-3c1.4-0.7,2.8-0.9,4.3-0.8c5.3,0.5,7.7,4.2,7.1,11.1l-1.2,13.7c-0.1,0.8-0.4,1.4-1,1.9
						c-0.6,0.5-1.3,0.7-2,0.6c-0.8-0.1-1.4-0.4-1.9-1c-0.5-0.6-0.7-1.2-0.6-2l1.2-13c0.2-2.2,0-3.9-0.6-4.9
						c-0.6-1.1-1.7-1.6-3.2-1.8c-1.7-0.2-3.7,0.8-5.9,2.8c-0.2,0.2-0.3,0.4-0.3,0.6l-1.4,15.4c-0.1,0.8-0.4,1.4-1,1.9
						c-0.6,0.5-1.3,0.7-2,0.6c-0.8-0.1-1.4-0.4-1.9-1c-0.5-0.6-0.7-1.2-0.6-2l1.2-13c0.2-2.2,0-3.9-0.6-4.9c-0.6-1-1.7-1.6-3.2-1.8
						c-1.7-0.2-3.7,0.8-5.9,2.8c-0.2,0.2-0.3,0.4-0.3,0.6l-1.4,15.5C-473.7,642.1-474.1,642.7-474.6,643.2z"/>
				</g>
			</g>
		</g>
	</g>
</g>
</svg>
