<?xml version="1.0" encoding="utf-8"?>
<!-- Generator: Adobe Illustrator 19.0.0, SVG Export Plug-In . SVG Version: 6.00 Build 0)  -->
<svg version="1.2" baseProfile="tiny" id="圖層_1"
	 xmlns="http://www.w3.org/2000/svg" xmlns:xlink="http://www.w3.org/1999/xlink" x="0px" y="0px" viewBox="-732 310 453.5 462"
	 xml:space="preserve">
<g id="XMLID_1_">
	<g id="XMLID_153_">
		<g id="XMLID_154_">
			<g id="XMLID_155_">
				<g id="XMLID_157_">
					<g>
						<path fill="#8C6239" d="M-363.5,772H-647c-47,0-85-38.1-85-85V403.5c0-47,38.1-85,85-85h283.5c47,0,85,38.1,85,85V687
							C-278.5,734-316.5,772-363.5,772z"/>
					</g>
					<g>
						<path fill="#BB7434" d="M-363.5,763.5H-647c-47,0-85-38.1-85-85V395c0-47,38.1-85,85-85h283.5c47,0,85,38.1,85,85v283.5
							C-278.5,725.5-316.5,763.5-363.5,763.5z"/>
					</g>
				</g>
				<path id="XMLID_156_" fill="#623F1E" d="M-382.2,729.4h-246.1c-38.4,0-69.6-31.2-69.6-69.6V413.7c0-38.4,31.2-69.6,69.6-69.6
					h246.1c38.4,0,69.6,31.2,69.6,69.6v246.1C-312.6,698.3-343.7,729.4-382.2,729.4z"/>
			</g>
		</g>
	</g>
	<g id="XMLID_8_">
		<g id="XMLID_141_">
			<g>
				<path fill="#DBDCDC" d="M-579.8,478.9c-7.2,0-13.9-2.8-19-7.9c-10.5-10.5-10.5-27.5,0-37.9c5.1-5.1,11.8-7.9,19-7.9
					s13.9,2.8,19,7.9c10.5,10.5,10.5,27.5,0,37.9C-565.9,476.1-572.6,478.9-579.8,478.9z"/>
				<path fill="#DBDCDC" d="M-579.8,428.7c6,0,11.9,2.3,16.5,6.8c9.1,9.1,9.1,23.9,0,33c-4.6,4.6-10.5,6.8-16.5,6.8
					s-11.9-2.3-16.5-6.8c-9.1-9.1-9.1-23.9,0-33C-591.7,431-585.8,428.7-579.8,428.7 M-579.8,421.7c-8.1,0-15.7,3.2-21.4,8.9
					c-11.8,11.8-11.8,31,0,42.9c5.7,5.7,13.3,8.9,21.4,8.9s15.7-3.2,21.4-8.9s8.9-13.3,8.9-21.4s-3.2-15.7-8.9-21.4
					S-571.7,421.7-579.8,421.7L-579.8,421.7z"/>
			</g>
			<g>
				<path fill="#F7F7F7" d="M-579.8,473.2c-7.2,0-13.9-2.8-19-7.9c-10.5-10.5-10.5-27.5,0-37.9c5.1-5.1,11.8-7.9,19-7.9
					s13.9,2.8,19,7.9c10.5,10.5,10.5,27.5,0,37.9C-565.9,470.4-572.6,473.2-579.8,473.2z"/>
				<path fill="#F7F7F7" d="M-579.8,423.1c6,0,11.9,2.3,16.5,6.8c9.1,9.1,9.1,23.9,0,33c-4.6,4.6-10.5,6.8-16.5,6.8
					s-11.9-2.3-16.5-6.8c-9.1-9.1-9.1-23.9,0-33C-591.7,425.4-585.8,423.1-579.8,423.1 M-579.8,416.1c-8.1,0-15.7,3.2-21.4,8.9
					c-11.8,11.8-11.8,31,0,42.9c5.7,5.7,13.3,8.9,21.4,8.9s15.7-3.2,21.4-8.9s8.9-13.3,8.9-21.4s-3.2-15.7-8.9-21.4
					S-571.7,416.1-579.8,416.1L-579.8,416.1z"/>
			</g>
		</g>
		<g id="XMLID_134_">
			<g>
				<circle fill="#155166" cx="-579.8" cy="449.2" r="23.3"/>
			</g>
			<g>
				<circle fill="#046382" cx="-579.8" cy="446.4" r="23.3"/>
			</g>
		</g>
		<g id="XMLID_13_">
			<g>
				<path fill="#DBDCDC" d="M-506.8,673c-3.6,0-6.9-1.4-9.4-3.9c-31-31-33.7-80.1-6.3-114.2c2.1-2.6,1.9-6.4-0.4-8.8l-26.7-26.7
					c-1.2-1.2-2.8-1.9-4.6-1.9c-1.5,0-2.9,0.5-4.2,1.4c-11.9,9-26.7,14-41.6,14c-18.4,0-35.7-7.2-48.7-20.2
					c-2.2-2.2-3.4-5.1-3.3-8.2c0.1-3.1,1.4-6,3.6-8.1c2-1.9,4.7-2.9,7.6-2.9c3,0,6,1.2,8.2,3.4c8.7,8.7,20.3,13.4,32.6,13.4
					c12.2,0,23.8-4.7,32.5-13.3c0.1-0.1,0.2-0.2,0.2-0.3l32.6-32.6c13-13,30.3-20.2,48.7-20.2s35.7,7.2,48.7,20.2
					c2.2,2.2,3.4,5.1,3.3,8.2c-0.1,3.1-1.4,6-3.6,8.1c-2,1.9-4.7,2.9-7.6,2.9c-3,0-6-1.2-8.2-3.4c-8.7-8.7-20.3-13.4-32.6-13.4
					c-8.2,0-16.3,2.2-23.3,6.3c-1.8,1-3,2.8-3.2,4.9c-0.3,2,0.4,4,1.9,5.5l45.9,45.9c0,0,0.1,0.1,0.1,0.1
					c11.2,11.1,25.9,17.2,41.7,17.2c15.7,0,30.5-6.1,41.6-17.1c2.6-2.6,6.1-4,9.7-4c3.1,0,6.2,1.1,8.5,3.1c2.8,2.4,4.5,5.9,4.6,9.6
					c0.1,3.7-1.3,7.3-3.9,9.9c-16.2,16.2-37.7,25.1-60.6,25.1c0,0,0,0,0,0c-19.4,0-38.5-6.7-53.6-18.8c-1.2-1-2.7-1.5-4.2-1.5
					c-1.7,0-3.4,0.7-4.6,1.9c0,0-12,12-12.1,12.1c-22.9,23-22.9,60.3-0.1,83.4c5,5,5.4,13,0.9,18.2
					C-499.2,671.3-502.9,673-506.8,673z"/>
				<path fill="#DBDCDC" d="M-486,447.6c16.7,0,33.5,6.4,46.2,19.1c3.1,3.1,3,8.2-0.2,11.2c-1.5,1.3-3.3,2-5.2,2
					c-2.1,0-4.2-0.8-5.7-2.3c-9.7-9.6-22.4-14.5-35.1-14.5c-8.7,0-17.4,2.3-25.1,6.8c-5.7,3.3-6.8,11.1-2.1,15.8l45.9,45.9l0,0
					c12.2,12.2,28.2,18.3,44.3,18.3c15.9,0,31.9-6,44.1-18.1c2-2,4.6-3,7.3-3c2.2,0,4.4,0.7,6.2,2.3c4.4,3.8,4.6,10.4,0.6,14.4
					c-16.1,16.1-37.1,24.1-58.2,24.1c-18.2,0-36.4-6-51.4-18c-1.9-1.5-4.1-2.2-6.4-2.2c-2.6,0-5.1,1-7.1,2.9l-12,12l0,0
					c-24.4,24.4-24.5,63.9-0.2,88.4c3.6,3.7,4.1,9.6,0.7,13.5c-2,2.3-4.7,3.4-7.4,3.4c-2.5,0-5-1-6.9-2.9c-30-30-32-77.3-6-109.6
					c3.2-4,3-9.8-0.7-13.5l-26.7-26.7c-1.9-1.9-4.5-2.9-7.1-2.9c-2.2,0-4.4,0.7-6.3,2.1c-11.6,8.9-25.6,13.3-39.5,13.3
					c-16.7,0-33.5-6.4-46.2-19.1c-3.1-3.1-3-8.2,0.2-11.2c1.5-1.3,3.3-2,5.2-2c2.1,0,4.2,0.8,5.7,2.3c9.7,9.6,22.4,14.5,35.1,14.5
					c12.7,0,25.5-4.9,35.2-14.6l0,0l32.6-32.6C-519.4,453.9-502.7,447.6-486,447.6 M-486,440.6c-19.3,0-37.5,7.5-51.2,21.2
					l-32.6,32.6c-0.1,0.1-0.2,0.2-0.3,0.4c-8,7.9-18.6,12.2-29.9,12.2c-11.4,0-22.1-4.4-30.2-12.4c-2.8-2.8-6.7-4.4-10.6-4.4
					c-3.7,0-7.2,1.4-9.9,3.8c-3,2.8-4.7,6.5-4.8,10.6c-0.1,4,1.5,7.9,4.3,10.8c13.7,13.7,31.8,21.2,51.2,21.2
					c15.7,0,31.3-5.2,43.8-14.7c0.8-0.6,1.5-0.7,2-0.7c0.6,0,1.4,0.2,2.1,0.9l26.7,26.7c1.1,1.1,1.2,2.9,0.2,4.1
					c-13.7,17-20.6,38.5-19.5,60.4c1.1,22.1,10.4,42.9,26,58.5c3.2,3.2,7.4,4.9,11.9,4.9c4.9,0,9.6-2.1,12.8-5.9
					c5.7-6.6,5.2-16.7-1.1-23c-21.5-21.7-21.4-56.8,0.1-78.4c0,0,0.1-0.1,0.1-0.1l12-12c0.8-0.8,1.7-0.9,2.1-0.9
					c0.5,0,1.3,0.1,2,0.7c15.7,12.6,35.5,19.5,55.8,19.5c23.8,0,46.3-9.3,63.1-26.1c3.3-3.3,5.1-7.9,4.9-12.5
					c-0.2-4.7-2.3-9.1-5.9-12.1c-3-2.6-6.8-4-10.8-4c-4.5,0-9,1.8-12.2,5c-10.5,10.4-24.4,16.1-39.2,16.1
					c-14.8,0-28.7-5.7-39.2-16.1c-0.1-0.1-0.1-0.1-0.2-0.2l-45.9-45.9c-0.9-0.9-0.9-2-0.9-2.5c0.1-0.6,0.4-1.6,1.5-2.3
					c6.5-3.8,14-5.8,21.6-5.8c11.4,0,22.1,4.4,30.2,12.4c2.8,2.8,6.7,4.4,10.7,4.4c3.7,0,7.2-1.4,9.9-3.8c3-2.8,4.7-6.5,4.8-10.6
					c0.1-4-1.5-7.9-4.3-10.8C-448.5,448.1-466.6,440.6-486,440.6L-486,440.6z"/>
			</g>
			<g>
				<path fill="#F7F7F7" d="M-506.8,667.3c-3.6,0-6.9-1.4-9.4-3.9c-31-31-33.7-80.1-6.3-114.2c2.1-2.6,1.9-6.4-0.4-8.8l-26.7-26.7
					c-1.2-1.2-2.8-1.9-4.6-1.9c-1.5,0-2.9,0.5-4.2,1.4c-11.9,9-26.7,14-41.6,14c-18.4,0-35.7-7.2-48.7-20.2
					c-2.2-2.2-3.4-5.1-3.3-8.2c0.1-3.1,1.4-6,3.6-8.1c2-1.9,4.7-2.9,7.6-2.9c3,0,6,1.2,8.2,3.4c8.7,8.7,20.3,13.4,32.6,13.4
					c12.2,0,23.8-4.7,32.5-13.3c0.1-0.1,0.2-0.2,0.2-0.3l32.6-32.6c13-13,30.3-20.2,48.7-20.2s35.7,7.2,48.7,20.2
					c2.2,2.2,3.4,5.1,3.3,8.2c-0.1,3.1-1.4,6-3.6,8.1c-2,1.9-4.7,2.9-7.6,2.9c-3,0-6-1.2-8.2-3.4c-8.7-8.7-20.3-13.4-32.6-13.4
					c-8.2,0-16.3,2.2-23.3,6.3c-1.8,1-3,2.8-3.2,4.9c-0.3,2,0.4,4,1.9,5.5l45.9,45.9c0,0,0.1,0.1,0.1,0.1
					c11.2,11.1,25.9,17.2,41.7,17.2c15.7,0,30.5-6.1,41.6-17.1c2.6-2.6,6.1-4,9.7-4c3.1,0,6.2,1.1,8.5,3.1c2.8,2.4,4.5,5.9,4.6,9.6
					c0.1,3.7-1.3,7.3-3.9,9.9c-16.2,16.2-37.7,25.1-60.6,25.1c0,0,0,0,0,0c-19.4,0-38.5-6.7-53.6-18.8c-1.2-1-2.7-1.5-4.2-1.5
					c-1.7,0-3.4,0.7-4.6,1.9c0,0-12,12-12.1,12.1c-22.9,23-22.9,60.3-0.1,83.4c5,5,5.4,13,0.9,18.2
					C-499.2,665.6-502.9,667.3-506.8,667.3z"/>
				<path fill="#F7F7F7" d="M-486,441.9c16.7,0,33.5,6.4,46.2,19.1c3.1,3.1,3,8.2-0.2,11.2c-1.5,1.3-3.3,2-5.2,2
					c-2.1,0-4.2-0.8-5.7-2.3c-9.7-9.6-22.4-14.5-35.1-14.5c-8.7,0-17.4,2.3-25.1,6.8c-5.7,3.3-6.8,11.1-2.1,15.8l45.9,45.9l0,0
					c12.2,12.2,28.2,18.3,44.3,18.3c15.9,0,31.9-6,44.1-18.1c2-2,4.6-3,7.3-3c2.2,0,4.4,0.7,6.2,2.3c4.4,3.8,4.6,10.4,0.6,14.4
					c-16.1,16.1-37.1,24.1-58.2,24.1c-18.2,0-36.4-6-51.4-18c-1.9-1.5-4.1-2.2-6.4-2.2c-2.6,0-5.1,1-7.1,2.9l-12,12l0,0
					c-24.4,24.4-24.5,63.9-0.2,88.4c3.6,3.7,4.1,9.6,0.7,13.5c-2,2.3-4.7,3.4-7.4,3.4c-2.5,0-5-1-6.9-2.9c-30-30-32-77.3-6-109.6
					c3.2-4,3-9.8-0.7-13.5l-26.7-26.7c-1.9-1.9-4.5-2.9-7.1-2.9c-2.2,0-4.4,0.7-6.3,2.1c-11.6,8.9-25.6,13.3-39.5,13.3
					c-16.7,0-33.5-6.4-46.2-19.1c-3.1-3.1-3-8.2,0.2-11.2c1.5-1.3,3.3-2,5.2-2c2.1,0,4.2,0.8,5.7,2.3c9.7,9.6,22.4,14.5,35.1,14.5
					c12.7,0,25.5-4.9,35.2-14.6l0,0l32.6-32.6C-519.4,448.3-502.7,441.9-486,441.9 M-486,434.9c-19.3,0-37.5,7.5-51.2,21.2
					l-32.6,32.6c-0.1,0.1-0.2,0.2-0.3,0.4c-8,7.9-18.6,12.2-29.9,12.2c-11.4,0-22.1-4.4-30.2-12.4c-2.8-2.8-6.7-4.4-10.6-4.4
					c-3.7,0-7.2,1.4-9.9,3.8c-3,2.8-4.7,6.5-4.8,10.6c-0.1,4,1.5,7.9,4.3,10.8c13.7,13.7,31.8,21.2,51.2,21.2
					c15.7,0,31.3-5.2,43.8-14.7c0.8-0.6,1.5-0.7,2-0.7c0.6,0,1.4,0.2,2.1,0.9l26.7,26.7c1.1,1.1,1.2,2.9,0.2,4.1
					c-13.7,17-20.6,38.5-19.5,60.4c1.1,22.1,10.4,42.9,26,58.5c3.2,3.2,7.4,4.9,11.9,4.9c4.9,0,9.6-2.1,12.8-5.9
					c5.7-6.6,5.2-16.7-1.1-23c-21.5-21.7-21.4-56.8,0.1-78.4c0,0,0.1-0.1,0.1-0.1l12-12c0.8-0.8,1.7-0.9,2.1-0.9
					c0.5,0,1.3,0.1,2,0.7c15.7,12.6,35.5,19.5,55.8,19.5c23.8,0,46.3-9.3,63.1-26.1c3.3-3.3,5.1-7.9,4.9-12.5
					c-0.2-4.7-2.3-9.1-5.9-12.1c-3-2.6-6.8-4-10.8-4c-4.5,0-9,1.8-12.2,5c-10.5,10.4-24.4,16.1-39.2,16.1
					c-14.8,0-28.7-5.7-39.2-16.1c-0.1-0.1-0.1-0.1-0.2-0.2l-45.9-45.9c-0.9-0.9-0.9-2-0.9-2.5c0.1-0.6,0.4-1.6,1.5-2.3
					c6.5-3.8,14-5.8,21.6-5.8c11.4,0,22.1,4.4,30.2,12.4c2.8,2.8,6.7,4.4,10.7,4.4c3.7,0,7.2-1.4,9.9-3.8c3-2.8,4.7-6.5,4.8-10.6
					c0.1-4-1.5-7.9-4.3-10.8C-448.5,442.4-466.6,434.9-486,434.9L-486,434.9z"/>
			</g>
		</g>
		<g id="XMLID_116_">
			<g>
				<path fill="#155166" d="M-365.4,528.2c-3.9-3.4-9.8-2.9-13.5,0.7c-24.5,24.2-63.9,24.2-88.4-0.2l0,0l-45.9-45.9
					c-4.7-4.7-3.6-12.5,2.1-15.8c19-11.1,43.8-8.6,60.2,7.7c3,2.9,7.8,3.2,10.9,0.4c3.3-3,3.4-8.1,0.2-11.2
					c-25.5-25.5-66.9-25.5-92.5,0l0,0l-32.6,32.6l0,0c-19.4,19.4-50.8,19.4-70.3,0.1c-3-2.9-7.8-3.2-10.9-0.4
					c-3.3,3-3.4,8.1-0.2,11.2c23.4,23.4,60.1,25.4,85.8,5.9c4.1-3.1,9.7-2.8,13.3,0.8l26.7,26.7c3.6,3.6,3.9,9.4,0.7,13.5
					c-25.9,32.3-23.9,79.6,6,109.6c4,4,10.6,3.8,14.4-0.6c3.4-3.9,2.9-9.8-0.7-13.5c-24.3-24.5-24.2-64,0.2-88.4l0,0l12-12
					c3.6-3.6,9.4-3.9,13.5-0.7c32.3,25.9,79.6,23.9,109.5-6.1C-360.9,538.6-361.1,532-365.4,528.2z"/>
			</g>
			<g>
				<path fill="#046382" d="M-365.4,525.4c-3.9-3.4-9.8-2.9-13.5,0.7c-24.5,24.2-63.9,24.2-88.4-0.2l0,0l-45.9-45.9
					c-4.7-4.7-3.6-12.5,2.1-15.8c19-11.1,43.8-8.6,60.2,7.7c3,2.9,7.8,3.2,10.9,0.4c3.3-3,3.4-8.1,0.2-11.2
					c-25.5-25.5-66.9-25.5-92.5,0l0,0l-32.6,32.6l0,0c-19.4,19.4-50.8,19.4-70.3,0.1c-3-2.9-7.8-3.2-10.9-0.4
					c-3.3,3-3.4,8.1-0.2,11.2c23.4,23.4,60.1,25.4,85.8,5.9c4.1-3.1,9.7-2.8,13.3,0.8l26.7,26.7c3.6,3.6,3.9,9.4,0.7,13.5
					c-25.9,32.3-23.9,79.6,6,109.6c4,4,10.6,3.8,14.4-0.6c3.4-3.9,2.9-9.8-0.7-13.5c-24.3-24.5-24.2-64,0.2-88.4l0,0l12-12
					c3.6-3.6,9.4-3.9,13.5-0.7c32.3,25.9,79.6,23.9,109.5-6.1C-360.9,535.8-361.1,529.1-365.4,525.4z"/>
			</g>
		</g>
		<g id="XMLID_11_">
			<g>
				<path id="XMLID_5_" fill="#DBDCDC" d="M-584.6,438.2c0-0.6,0.6-1.1,1.2-1.1l2.4,0.1c0.7,0,1.2,0.5,1.2,1.2l-0.3,12.7l8.5,0.2
					c0.7,0,1.2,0.5,1.2,1.2l0,2.3c0,0.7-0.5,1.2-1.2,1.1l-12.2-0.3c-0.7,0-1.2-0.6-1.2-1.2L-584.6,438.2z"/>
			</g>
			<g>
				<path id="XMLID_3_" fill="#F7F7F7" d="M-584.6,436.7c0-0.6,0.6-1.1,1.2-1.1l2.4,0.1c0.7,0,1.2,0.5,1.2,1.2l-0.3,12.7l8.5,0.2
					c0.7,0,1.2,0.5,1.2,1.2l0,2.3c0,0.7-0.5,1.2-1.2,1.1l-12.2-0.3c-0.7,0-1.2-0.6-1.2-1.2L-584.6,436.7z"/>
			</g>
		</g>
		<g id="XMLID_10_">
			<g>
				<path fill="#DBDCDC" d="M-622.5,466.3c-1.1,0-2.2-0.3-3.1-0.9c-1.2-0.8-1.9-2-2.2-3.4c-0.2-1.5,0.2-2.9,1.1-4.1
					c1.3-1.7,8-5.4,10-6.4c0.2-0.1,0.5-0.2,0.7-0.2c0.3,0,0.6,0.1,0.9,0.3c0.5,0.3,0.7,0.9,0.6,1.5c-0.3,1.5-1.9,9.1-3.4,11
					C-618.9,465.4-620.7,466.3-622.5,466.3z"/>
				<path fill="#DBDCDC" d="M-615.9,452.6c0,0-1.8,8.7-3.1,10.4c-0.8,1.1-2.2,1.7-3.4,1.7c-0.8,0-1.6-0.2-2.3-0.7
					c-1.8-1.2-2.1-3.6-0.7-5.4C-624.3,457.2-615.9,452.6-615.9,452.6 M-615.9,449.6c-0.5,0-1,0.1-1.4,0.4c-4.1,2.2-9.2,5.2-10.5,6.8
					c-1.2,1.5-1.7,3.4-1.4,5.3c0.3,1.8,1.3,3.4,2.8,4.4c1.2,0.8,2.5,1.2,4,1.2c2.3,0,4.5-1.1,5.8-2.9c1.6-2,3-8.2,3.7-11.7
					c0.2-1.1-0.2-2.3-1.2-3C-614.6,449.8-615.3,449.6-615.9,449.6L-615.9,449.6z"/>
			</g>
			<g>
				<path fill="#17A2C7" d="M-622.5,463.4c-1.1,0-2.2-0.3-3.1-0.9c-1.2-0.8-1.9-2-2.2-3.4c-0.2-1.5,0.2-2.9,1.1-4.1
					c1.3-1.7,8-5.4,10-6.4c0.2-0.1,0.5-0.2,0.7-0.2c0.3,0,0.6,0.1,0.9,0.3c0.5,0.3,0.7,0.9,0.6,1.5c-0.3,1.5-1.9,9.1-3.4,11
					C-618.9,462.6-620.7,463.4-622.5,463.4z"/>
				<path fill="#F7F7F7" d="M-615.9,449.8c0,0-1.8,8.7-3.1,10.4c-0.8,1.1-2.2,1.7-3.4,1.7c-0.8,0-1.6-0.2-2.3-0.7
					c-1.8-1.2-2.1-3.6-0.7-5.4C-624.3,454.3-615.9,449.8-615.9,449.8 M-615.9,446.8c-0.5,0-1,0.1-1.4,0.4c-4.1,2.2-9.2,5.2-10.5,6.8
					c-1.2,1.5-1.7,3.4-1.4,5.3c0.3,1.8,1.3,3.4,2.8,4.4c1.2,0.8,2.5,1.2,4,1.2c2.3,0,4.5-1.1,5.8-2.9c1.6-2,3-8.2,3.7-11.7
					c0.2-1.1-0.2-2.3-1.2-3C-614.6,447-615.3,446.8-615.9,446.8L-615.9,446.8z"/>
			</g>
		</g>
		<g id="XMLID_80_">
			<g>
				<path fill="#DBDCDC" d="M-551.1,424.3c-0.5,0-1-0.3-1.3-0.7c-0.3-0.5-0.3-1.1,0-1.6c1.1-1.6,3.7-5.4,5.2-6.3
					c0.7-0.4,1.5-0.6,2.3-0.6c1.5,0,2.8,0.7,3.6,1.9c0.6,0.9,0.8,2,0.6,3.1c-0.3,1.1-1,2.1-2,2.6c-1.3,0.8-6.1,1.4-8.2,1.6
					C-551,424.3-551.1,424.3-551.1,424.3z"/>
				<path fill="#DBDCDC" d="M-544.9,416.6c0.9,0,1.8,0.4,2.3,1.2c0.8,1.2,0.4,2.8-0.9,3.6c-1.1,0.7-7.6,1.4-7.6,1.4s3.4-5,4.7-5.8
					C-546,416.7-545.5,416.6-544.9,416.6 M-544.9,413.6c-1.1,0-2.1,0.3-3,0.8c-1.6,0.9-3.9,4.2-5.7,6.7c-0.7,1-0.7,2.2-0.1,3.2
					c0.5,0.9,1.5,1.4,2.6,1.4c0.1,0,0.2,0,0.3,0c7.1-0.8,8.3-1.6,8.8-1.8c1.4-0.8,2.3-2.1,2.7-3.6c0.3-1.5,0.1-3-0.8-4.2
					C-541.2,414.6-543,413.6-544.9,413.6L-544.9,413.6z"/>
			</g>
			<g>
				<path fill="#17A2C7" d="M-551.1,421.5c-0.5,0-1-0.3-1.3-0.7c-0.3-0.5-0.3-1.1,0-1.6c1.1-1.6,3.7-5.4,5.2-6.3
					c0.7-0.4,1.5-0.6,2.3-0.6c1.5,0,2.8,0.7,3.6,1.9c0.6,0.9,0.8,2,0.6,3.1c-0.3,1.1-1,2.1-2,2.6c-1.3,0.8-6.1,1.4-8.2,1.6
					C-551,421.5-551.1,421.5-551.1,421.5z"/>
				<path fill="#F7F7F7" d="M-544.9,413.8c0.9,0,1.8,0.4,2.3,1.2c0.8,1.2,0.4,2.8-0.9,3.6c-1.1,0.7-7.6,1.4-7.6,1.4s3.4-5,4.7-5.8
					C-546,413.9-545.5,413.8-544.9,413.8 M-544.9,410.8c-1.1,0-2.1,0.3-3,0.8c-1.6,0.9-3.9,4.2-5.7,6.7c-0.7,1-0.7,2.2-0.1,3.2
					c0.5,0.9,1.5,1.4,2.6,1.4c0.1,0,0.2,0,0.3,0c7.1-0.8,8.3-1.6,8.8-1.8c1.4-0.8,2.3-2.1,2.7-3.6c0.3-1.5,0.1-3-0.8-4.2
					C-541.2,411.7-543,410.8-544.9,410.8L-544.9,410.8z"/>
			</g>
		</g>
		<g id="XMLID_67_">
			<g>
				<path fill="#DBDCDC" d="M-539.4,436.5c-0.7,0-1.3-0.1-2-0.3c-2.1-0.7-7.9-6.2-9.7-7.8c-0.4-0.4-0.6-1-0.4-1.6
					c0.2-0.6,0.7-0.9,1.3-1c0.2,0,5.5-0.6,9.3-0.6c1.7,0,2.8,0.1,3.5,0.3c1.5,0.5,2.7,1.6,3.4,3c0.6,1.4,0.7,2.9,0.2,4.3
					C-534.7,435-536.9,436.5-539.4,436.5z"/>
				<path fill="#DBDCDC" d="M-540.8,426.7c1.3,0,2.4,0.1,3,0.3c2.3,0.8,3.5,3.1,2.6,5.3c-0.7,1.7-2.4,2.8-4.2,2.8
					c-0.5,0-1-0.1-1.5-0.2c-2-0.7-9.1-7.5-9.1-7.5S-544.6,426.7-540.8,426.7 M-540.8,423.7c-3.8,0-9.2,0.6-9.5,0.6
					c-1.2,0.1-2.1,0.9-2.5,2s-0.1,2.3,0.8,3.1c2.8,2.7,7.9,7.4,10.2,8.2c0.8,0.3,1.6,0.4,2.5,0.4c3.1,0,5.9-1.9,7-4.7
					c0.7-1.8,0.6-3.7-0.2-5.5c-0.8-1.8-2.4-3.1-4.3-3.8C-537.8,423.8-539,423.7-540.8,423.7L-540.8,423.7z"/>
			</g>
			<g>
				<path fill="#17A2C7" d="M-539.4,433.7c-0.7,0-1.3-0.1-2-0.3c-2.1-0.7-7.9-6.2-9.7-7.8c-0.4-0.4-0.6-1-0.4-1.6
					c0.2-0.6,0.7-0.9,1.3-1c0.2,0,5.5-0.6,9.3-0.6c1.7,0,2.8,0.1,3.5,0.3c1.5,0.5,2.7,1.6,3.4,3c0.6,1.4,0.7,2.9,0.2,4.3
					C-534.7,432.2-536.9,433.7-539.4,433.7z"/>
				<path fill="#F7F7F7" d="M-540.8,423.9c1.3,0,2.4,0.1,3,0.3c2.3,0.8,3.5,3.1,2.6,5.3c-0.7,1.7-2.4,2.8-4.2,2.8
					c-0.5,0-1-0.1-1.5-0.2c-2-0.7-9.1-7.5-9.1-7.5S-544.6,423.9-540.8,423.9 M-540.8,420.9c-3.8,0-9.2,0.6-9.5,0.6
					c-1.2,0.1-2.1,0.9-2.5,2s-0.1,2.3,0.8,3.1c2.8,2.7,7.9,7.4,10.2,8.2c0.8,0.3,1.6,0.4,2.5,0.4c3.1,0,5.9-1.9,7-4.7
					c0.7-1.8,0.6-3.7-0.2-5.5c-0.8-1.8-2.4-3.1-4.3-3.8C-537.8,421-539,420.9-540.8,420.9L-540.8,420.9z"/>
			</g>
		</g>
		<g id="XMLID_57_">
			<g>
				<path fill="#1E7F93" d="M-619,461.7c-1.4,1.8-3.9,2.2-5.7,1c-1.8-1.2-2.1-3.6-0.7-5.4c1.2-1.5,9.6-6,9.6-6
					S-617.7,459.9-619,461.7z"/>
			</g>
			<g>
				<path fill="#17A2C7" d="M-619,460.2c-1.4,1.8-3.9,2.2-5.7,1c-1.8-1.2-2.1-3.6-0.7-5.4c1.2-1.5,9.6-6,9.6-6
					S-617.7,458.5-619,460.2z"/>
			</g>
		</g>
		<g id="XMLID_46_">
			<g>
				<path fill="#1E7F93" d="M-546.4,415.6c1.3-0.8,3-0.4,3.8,0.8c0.8,1.2,0.4,2.8-0.9,3.6c-1.1,0.7-7.6,1.4-7.6,1.4
					S-547.7,416.4-546.4,415.6z"/>
			</g>
			<g>
				<path fill="#17A2C7" d="M-546.4,414.2c1.3-0.8,3-0.4,3.8,0.8c0.8,1.2,0.4,2.8-0.9,3.6c-1.1,0.7-7.6,1.4-7.6,1.4
					S-547.7,415-546.4,414.2z"/>
			</g>
		</g>
		<g id="XMLID_9_">
			<g>
				<path fill="#1E7F93" d="M-537.8,425.5c2.3,0.8,3.5,3.1,2.6,5.3c-0.8,2.2-3.4,3.3-5.7,2.5c-2-0.7-9.1-7.5-9.1-7.5
					S-540.1,424.8-537.8,425.5z"/>
			</g>
			<g>
				<path fill="#17A2C7" d="M-537.8,424.1c2.3,0.8,3.5,3.1,2.6,5.3c-0.8,2.2-3.4,3.3-5.7,2.5c-2-0.7-9.1-7.5-9.1-7.5
					S-540.1,423.4-537.8,424.1z"/>
			</g>
		</g>
	</g>
</g>
</svg>
