<?xml version="1.0" encoding="utf-8"?>
<!-- Generator: Adobe Illustrator 19.0.0, SVG Export Plug-In . SVG Version: 6.00 Build 0)  -->
<svg version="1.2" baseProfile="tiny" id="圖層_1"
	 xmlns="http://www.w3.org/2000/svg" xmlns:xlink="http://www.w3.org/1999/xlink" x="0px" y="0px" viewBox="-732 310 453.5 462"
	 xml:space="preserve">
<g id="XMLID_120_">
	<g id="XMLID_505_">
		<g id="XMLID_506_">
			<g id="XMLID_508_">
				<g>
					<path fill="#8C6239" d="M-363.5,772H-647c-47,0-85-38.1-85-85V403.5c0-47,38.1-85,85-85h283.5c47,0,85,38.1,85,85V687
						C-278.5,734-316.5,772-363.5,772z"/>
				</g>
				<g>
					<path fill="#BB7434" d="M-363.5,763.5H-647c-47,0-85-38.1-85-85V395c0-47,38.1-85,85-85h283.5c47,0,85,38.1,85,85v283.5
						C-278.5,725.5-316.5,763.5-363.5,763.5z"/>
				</g>
			</g>
			<path id="XMLID_507_" fill="#623F1E" d="M-382.2,729.4h-246.1c-38.4,0-69.6-31.2-69.6-69.6V413.7c0-38.4,31.2-69.6,69.6-69.6
				h246.1c38.4,0,69.6,31.2,69.6,69.6v246.1C-312.6,698.3-343.7,729.4-382.2,729.4z"/>
		</g>
	</g>
	<g id="XMLID_126_">
		<g id="XMLID_493_">
			<g>
				<path fill="#DBDCDC" d="M-509.2,680.8c-4.5,0-8.8-1.3-12.5-3.9l-103.4-71.1c-6.3-4.4-10-11.8-9.6-19.5l6.5-114.5
					c0.5-8.5,5.6-15.8,13.4-19.1l110.1-46.8c2.8-1.2,5.7-1.8,8.7-1.8c3.8,0,7.6,1,10.9,2.9l104.1,58.9c7.4,4.2,11.7,12,11.2,20.5
					l-6.5,114.5c-0.4,7.7-4.9,14.7-11.7,18.3l-110.8,59C-502,679.9-505.6,680.8-509.2,680.8L-509.2,680.8z"/>
				<path fill="#DBDCDC" d="M-496.1,406.6c3.3,0,6.7,0.9,9.7,2.5l104.1,58.9c6.5,3.7,10.4,10.7,9.9,18.2l-6.5,114.5
					c-0.4,6.8-4.3,13-10.4,16.2L-500,676c-2.9,1.5-6.1,2.3-9.2,2.3c-3.9,0-7.8-1.2-11.1-3.5l-103.4-71.1c-5.7-3.9-8.9-10.4-8.5-17.3
					l6.5-114.5c0.4-7.5,5-14,11.9-17l110.1-46.8C-501.3,407.1-498.7,406.6-496.1,406.6 M-496.1,401.6c-3.3,0-6.6,0.7-9.6,2
					l-110.1,46.8c-8.7,3.7-14.4,11.9-15,21.3l-6.5,114.5c-0.5,8.5,3.6,16.8,10.6,21.7l103.4,71.1c4.1,2.8,9,4.3,14,4.3
					c4,0,8-1,11.6-2.9l110.8-59c7.5-4,12.5-11.8,13-20.4l6.5-114.5c0.5-9.4-4.2-18.2-12.5-22.8L-484,404.8
					C-487.7,402.7-491.9,401.6-496.1,401.6L-496.1,401.6z"/>
			</g>
			<g>
				<path fill="#F7F7F7" d="M-509.2,675.1c-4.5,0-8.8-1.3-12.5-3.9l-103.4-71.1c-6.3-4.4-10-11.8-9.6-19.5l6.5-114.5
					c0.5-8.5,5.6-15.8,13.4-19.1l110.1-46.8c2.8-1.2,5.7-1.8,8.7-1.8c3.8,0,7.6,1,10.9,2.9l104.1,58.9c7.4,4.2,11.7,12,11.2,20.5
					l-6.5,114.5c-0.4,7.7-4.9,14.7-11.7,18.3l-110.8,59C-502,674.2-505.6,675.1-509.2,675.1L-509.2,675.1z"/>
				<path fill="#F7F7F7" d="M-496.1,400.9c3.3,0,6.7,0.9,9.7,2.5l104.1,58.9c6.5,3.7,10.4,10.7,9.9,18.2l-6.5,114.5
					c-0.4,6.8-4.3,13-10.4,16.2l-110.8,59c-2.9,1.5-6.1,2.3-9.2,2.3c-3.9,0-7.8-1.2-11.1-3.5l-103.4-71.1
					c-5.7-3.9-8.9-10.4-8.5-17.3l6.5-114.5c0.4-7.5,5-14,11.9-17l110.1-46.8C-501.3,401.5-498.7,400.9-496.1,400.9 M-496.1,395.9
					c-3.3,0-6.6,0.7-9.6,2l-110.1,46.8c-8.7,3.7-14.4,11.9-15,21.3l-6.5,114.5c-0.5,8.5,3.6,16.8,10.6,21.7l103.4,71.1
					c4.1,2.8,9,4.3,14,4.3c4,0,8-1,11.6-2.9l110.8-59c7.5-4,12.5-11.8,13-20.4l6.5-114.5c0.5-9.4-4.2-18.2-12.5-22.8L-484,399.1
					C-487.7,397-491.9,395.9-496.1,395.9L-496.1,395.9z"/>
			</g>
		</g>
		<g id="XMLID_402_">
			<g id="XMLID_485_">
				<g>
					<path fill="#0E333D" d="M-393.2,612.5l-99,50.6c-6,3.1-13.1-1.5-12.7-8.3l6.6-117c0.3-5.8,3.9-10.9,9.3-13.2l100.3-42.8
						c6-2.5,12.5,2.1,12.2,8.5l-6,105.8C-383,603.1-387.1,609.3-393.2,612.5z"/>
				</g>
				<g>
					<path fill="#3E3A39" d="M-393.2,611l-99,50.6c-6,3.1-13.1-1.5-12.7-8.3l6.6-117c0.3-5.8,3.9-10.9,9.3-13.2l100.3-42.8
						c6-2.5,12.5,2.1,12.2,8.5l-6,105.8C-383,601.7-387.1,607.9-393.2,611z"/>
				</g>
			</g>
			<g id="XMLID_403_">
				<g>
					<path fill="#29B765" d="M-456.2,624.2c-0.7,0-1.3-0.3-1.8-0.7c-0.6-0.3-1.3-0.6-1.9-1c-5.2-2.6-10.5-5.2-15.8-7.8
						c-1.3-0.6-2.6-1.3-3.9-1.9c-0.5-0.3-1.1-0.4-1.7-0.5c0,0,0,0,0,0c-0.4,0-1.3-0.2-1.5-1.5l0-0.1l0-0.1c0.2-0.8,0.5-1.6,0.9-2.5
						c0.4-0.9,1-1.9,1.6-2.8c0.3-0.7,0.7-1.3,1.3-1.7l0.1-0.1l0.1,0c0.2,0,0.4-0.1,0.6-0.1c0.6,0,1.2,0.2,1.6,0.6
						c1.3,0.6,2.5,1.3,3.7,2c1.3,0.7,2.6,1.4,3.9,2.1c0.6,0.3,1.2,0.6,1.7,0.8l2,1.1c0.6,0.3,1.2,0.7,1.7,1c0.7,0.4,1.3,0.7,2,0.9
						c2.2,1.1,4.5,2.1,6.8,2.9l0.1,0l0.1,0c0.2,0.1,0.3,0.2,0.5,0.2c0.1,0,0.3,0,0.4-0.1c0.3-0.3,0.6-0.7,0.9-1.3
						c0.4-0.9,0.9-1.8,1.4-2.6c0.5-0.8,0.9-1.6,1.2-2.4c0.7-1.5,1.5-3,2.4-4.5c0.4-1.3,1.2-2.3,2.1-3.2l0.1-0.1l0.1,0
						c0.1,0,0.3-0.1,0.4-0.1c0.3,0,0.9,0.1,1.1,1c0,0.9-0.2,1.7-0.7,2.3c-0.4,0.9-0.8,1.7-1.1,2.5l-0.3,0.9
						c-0.1,0.3-0.2,0.5-0.3,0.7l0,0.1l-0.1,0.1c-0.5,0.6-1,1.4-1.4,2.2c-0.3,0.5-0.5,1-0.8,1.5l-0.7,1.6l-0.9,1.2
						c-0.2,0.4-0.4,0.8-0.6,1.3c-0.5,1.1-1.1,2.2-1.6,3.2c-0.6,1-1.1,2-1.7,2.9c-0.6,0.9-1.3,1.5-2.1,1.6L-456.2,624.2L-456.2,624.2
						z"/>
					<path fill="#29B765" d="M-445.1,601.4c0.3,0,0.6,0.2,0.6,0.6c0,0.7-0.2,1.4-0.7,2c-0.4,0.9-0.8,1.8-1.1,2.6
						c-0.1,0.3-0.2,0.7-0.3,1c-0.1,0.3-0.2,0.5-0.3,0.7c-0.6,0.7-1.1,1.4-1.5,2.3c-0.2,0.5-0.5,1-0.8,1.5c-0.2,0.6-0.5,1.1-0.7,1.6
						c-0.3,0.4-0.6,0.8-0.8,1.2c-0.2,0.5-0.4,0.9-0.6,1.4c-0.5,1.1-1.1,2.1-1.6,3.1c-0.5,1-1.1,1.9-1.7,2.8
						c-0.5,0.8-1.1,1.3-1.7,1.4c-0.6,0-1.1-0.2-1.5-0.6c-0.6-0.3-1.3-0.6-1.9-1c-5.2-2.6-10.5-5.2-15.8-7.8
						c-1.3-0.6-2.6-1.3-3.9-1.9c-0.6-0.3-1.2-0.5-1.9-0.6c0,0,0,0,0,0c-0.6,0-1-0.4-1.1-1.1c0.1-0.8,0.4-1.5,0.9-2.3
						c0.5-1,1-1.9,1.6-2.8c0.2-0.7,0.6-1.2,1.1-1.5c0.2,0,0.3,0,0.5,0c0.5,0,1,0.2,1.4,0.5c1.3,0.7,2.5,1.3,3.7,2
						c1.3,0.7,2.6,1.4,3.9,2.1c0.6,0.3,1.2,0.6,1.8,0.9c0.7,0.4,1.3,0.7,2,1.1c0.6,0.3,1.2,0.7,1.7,1c0.7,0.4,1.4,0.7,2,1
						c2.2,1.1,4.5,2.1,6.8,2.9c0.2,0.2,0.5,0.3,0.8,0.3c0.2,0,0.4,0,0.7-0.1c0.4-0.4,0.8-0.9,1.1-1.5c0.4-0.9,0.9-1.8,1.3-2.6
						c0.5-0.8,0.9-1.6,1.3-2.5c0.7-1.5,1.5-2.9,2.3-4.4c0.4-1.3,1.1-2.3,2-3C-445.3,601.4-445.2,601.4-445.1,601.4 M-445.1,600.4
						L-445.1,600.4c-0.2,0-0.4,0-0.5,0.1l-0.2,0.1l-0.2,0.1c-1,0.9-1.8,2-2.3,3.4c-0.8,1.4-1.6,2.9-2.3,4.4l0,0l0,0
						c-0.3,0.8-0.7,1.6-1.1,2.3l0,0l0,0c-0.5,0.8-0.9,1.7-1.4,2.6c-0.2,0.4-0.4,0.8-0.7,1.1c-0.1,0-0.1,0-0.2,0
						c-0.1,0-0.2,0-0.2-0.1l-0.1-0.1l-0.1,0c-2.3-0.8-4.5-1.7-6.7-2.8l0,0l0,0c-0.6-0.3-1.3-0.6-1.9-0.9c-0.6-0.3-1.1-0.6-1.7-1
						l-1.3-0.7l-0.7-0.4l-0.1,0l-0.1,0c-0.6-0.2-1.1-0.5-1.7-0.8c-1.2-0.7-2.5-1.4-3.9-2.1c-1.2-0.7-2.4-1.4-3.6-2
						c-0.6-0.4-1.2-0.7-1.9-0.7c-0.2,0-0.5,0-0.7,0.1l-0.2,0l-0.2,0.1c-0.6,0.4-1.1,1.1-1.4,1.9c-0.6,0.9-1.1,1.9-1.6,2.9
						c-0.5,0.9-0.8,1.7-0.9,2.6l0,0.2l0,0.2c0.2,1.2,0.9,1.9,2,1.9c0.5,0.1,1,0.3,1.5,0.5c1.3,0.6,2.6,1.2,3.9,1.9
						c5.3,2.6,10.6,5.2,15.8,7.8c0.6,0.3,1.2,0.6,1.8,0.9c0.6,0.5,1.3,0.7,2,0.8l0.1,0l0.1,0c0.9-0.2,1.7-0.8,2.4-1.9
						c0.6-0.9,1.1-1.9,1.7-2.9c0.5-1,1.1-2.1,1.6-3.2l0,0l0,0c0.2-0.4,0.4-0.8,0.6-1.2l0.2-0.3l0.6-0.8l0.1-0.1l0-0.1
						c0.2-0.5,0.4-1,0.7-1.6c0.3-0.5,0.5-1,0.8-1.5c0.4-0.8,0.8-1.5,1.3-2.1l0.2-0.2l0.1-0.2c0-0.1,0.1-0.3,0.2-0.5l0-0.1l0-0.1
						l0.2-0.8l0.1-0.2c0.3-0.8,0.7-1.6,1.1-2.4c0.5-0.7,0.8-1.6,0.8-2.5l0-0.1l0-0.1C-443.7,600.8-444.5,600.4-445.1,600.4
						L-445.1,600.4z"/>
					<path fill="#29B765" d="M-442.3,599.4c-0.4-1.2,0.1-2.6,1.4-4.2c0.1-0.2,0.1-0.4,0.1-0.4c0,0-0.1-0.1-0.1-0.1l-1.8-1.3
						c-2.2-1.8-4.5-3.5-6.8-5.2l-7.1-4.8c-1-0.9-2.1-1.7-3.1-2.5c-0.2-0.2-0.5-0.2-0.8-0.2c-0.1,0-0.1,0-0.2,0
						c-0.4,0.2-0.9,0.6-1.2,1c-0.8,1.2-1.6,1.7-2.3,1.7c-0.3,0-0.7-0.1-1-0.4l-0.2-0.1l0-0.2c-0.1-1.1,0.3-2.2,1.1-3.2
						c0.2-0.7,0.6-1.3,1.3-1.8c0.6-0.9,1.2-1.9,1.8-2.8c0.7-0.9,1.4-1.7,2.1-2.5c0.7-0.9,1.4-1.7,2-2.6c0.5-0.6,1.1-1.1,1.7-1.6
						c0.4-0.2,0.7-0.3,0.9-0.3c0.2,0,1,0.1,1.1,1.3l0,0.1l0,0.1c-0.3,1.3-1,2.5-1.9,3.6c-0.1,0.6,0,1,0.2,1.3c0.2,0.2,0.5,0.4,1,0.4
						l0.2,0l0.1,0.1c1.1,1,2.2,1.8,3.4,2.6c2.4,1.5,4.6,3.3,6.7,5.1c1.5,1.2,3.1,2.3,4.6,3.4c0.7,0.6,1.4,1.1,2.1,1.6l0.1,0l0,0
						c0.2,0.3,0.5,0.4,0.8,0.4c0.2,0,0.4,0,0.6-0.1c1-1.4,2.1-2.4,3.4-2.9l0.2-0.1l0.2,0.1c0.6,0.4,1.1,1.2,0.1,3l-1.3,2l-0.6,0.8
						c-0.1,0.4-0.3,0.7-0.6,1c-1.5,1.4-2.9,3-4.1,4.7c-1,1.8-2.2,3-3.7,3.4l-0.5,0.1L-442.3,599.4z"/>
					<path fill="#29B765" d="M-454.5,568.5c0.4,0,0.6,0.3,0.6,0.8c-0.3,1.2-1,2.4-1.9,3.5c-0.2,1.5,0.3,2.3,1.7,2.4
						c1.1,1,2.3,1.9,3.5,2.7c2.4,1.5,4.6,3.2,6.6,5.1c1.5,1.2,3.1,2.3,4.6,3.4c0.7,0.6,1.4,1.1,2.1,1.6c0.3,0.4,0.7,0.6,1.2,0.6
						c0.3,0,0.6-0.1,0.9-0.2c1-1.4,2.1-2.4,3.2-2.9c0.6,0.4,0.6,1.2-0.1,2.3c-0.5,0.7-0.9,1.3-1.3,1.9l-0.6,0.8
						c-0.1,0.3-0.3,0.7-0.5,1c-1.5,1.4-2.8,2.9-4.1,4.7c-0.9,1.7-2.1,2.8-3.4,3.2c-0.3-1,0.1-2.2,1.3-3.7c0.4-0.6,0.3-1.1-0.1-1.3
						c-0.6-0.4-1.2-0.9-1.8-1.3c-2.2-1.8-4.5-3.5-6.8-5.2c-2.4-1.6-4.8-3.2-7.2-4.8c-1-0.8-2-1.7-3.1-2.4c-0.3-0.2-0.7-0.3-1.1-0.3
						c-0.1,0-0.2,0-0.3,0c-0.6,0.2-1.1,0.6-1.5,1.2c-0.7,1-1.3,1.5-1.9,1.5c-0.2,0-0.5-0.1-0.7-0.3c-0.1-1,0.3-2,1.1-2.9
						c0,0,0,0,0,0c0,0,0.1-0.1,0.1-0.1c0,0,0,0.1-0.1,0.1c0.2-0.7,0.6-1.2,1.2-1.7c0.7-1,1.3-1.9,1.8-2.9c0.6-0.8,1.3-1.6,2-2.5
						c0.7-0.9,1.4-1.7,2.1-2.6c0.5-0.6,1-1.1,1.6-1.5C-454.9,568.5-454.7,568.5-454.5,568.5 M-454.5,567.5c-0.3,0-0.7,0.1-1.1,0.3
						l-0.1,0l-0.1,0.1c-0.6,0.4-1.2,1-1.8,1.6c-0.7,0.8-1.4,1.7-2.1,2.6c-0.7,0.8-1.4,1.6-2,2.4l0,0.1l0,0.1
						c-0.5,0.9-1.1,1.8-1.7,2.7c-0.7,0.6-1.1,1.2-1.4,1.9c-0.9,1.1-1.3,2.3-1.2,3.5l0,0.4l0.1,0.1l-0.2,0.6l0.4-0.4l0.1,0
						c0.4,0.3,0.8,0.5,1.3,0.5c0.9,0,1.8-0.6,2.7-1.9c0.3-0.4,0.6-0.7,0.9-0.8c0,0,0,0,0.1,0c0.3,0,0.4,0.1,0.5,0.1
						c1.1,0.8,2.1,1.6,3.1,2.4l0,0l0,0l7.2,4.8c2.2,1.6,4.5,3.4,6.7,5.2l1.7,1.2c-1.4,1.7-1.9,3.3-1.4,4.6l0.3,0.9l0.9-0.3
						c1.6-0.5,2.9-1.7,4-3.6c1.2-1.6,2.5-3.1,3.9-4.4l0.1-0.1l0.1-0.1c0.2-0.3,0.4-0.7,0.6-1.1l0.5-0.7c0.4-0.7,0.9-1.3,1.3-2l0,0
						l0,0c1.3-2.2,0.4-3.2-0.2-3.7l-0.4-0.3l-0.5,0.2c-1.3,0.5-2.5,1.5-3.5,3c-0.1,0-0.2,0-0.3,0c-0.1,0-0.3,0-0.4-0.2l-0.1-0.1
						l-0.1-0.1c-0.7-0.5-1.4-1-2.1-1.5l0,0l0,0c-1.5-1.1-3.1-2.2-4.6-3.4c-2.1-1.9-4.3-3.6-6.7-5.1c-1.1-0.7-2.3-1.6-3.4-2.6
						l-0.3-0.2l-0.3,0c-0.2,0-0.5,0-0.6-0.2c-0.1-0.1-0.1-0.4-0.1-0.8c0.9-1.1,1.5-2.3,1.9-3.6l0-0.2l0-0.2
						C-453,567.9-453.8,567.5-454.5,567.5L-454.5,567.5z"/>
					<path fill="#29B765" d="M-419.4,578.5c-0.3,0-0.5-0.1-0.7-0.2l-3.7-1.5c-2.6-1.2-5.2-2.3-7.8-3.4c-1.3-0.3-2.6-0.8-3.9-1.3
						l-4-1.5c-1.3-0.5-2.6-1-4-1.5c-0.6-0.1-1.2-0.3-1.8-0.4c0,0-0.1,0-0.1,0c-0.8,0-1.4-0.3-1.9-1l-0.1-0.1l0-0.1
						c0-0.5,0-1.1,0.2-1.8c0.2-0.8,0.5-1.7,0.8-2.5c0.2-0.7,0.5-1.5,0.8-2.2c0.4-0.8,0.7-1.6,1-2.5c0.9-1.7,1.7-3.4,2.4-5.1
						c0.7-1.7,1.5-3.3,2.2-5c0.3-0.8,0.7-1.6,1.1-2.3c0.4-0.9,0.8-1.7,1.2-2.6c0.6-1,1.2-1.5,1.9-1.5c0.4,0,0.8,0.2,1.1,0.7l0.1,0.1
						l0,0.1c0.2,0.7,0.1,1.4-0.1,2c-0.2,0.5-0.4,0.8-0.6,1.2c-0.2,0.3-0.4,0.6-0.5,0.9c-0.7,1.6-1.3,3.2-2.1,4.8l-0.1,0.2l0,0l0,0
						c0,0.5-0.2,1-0.5,1.4c-0.6,0.9-1.1,1.8-1.5,2.7l-0.4,1.3c-0.2,0.5-0.4,0.9-0.6,1.3c-0.3,0.6-0.4,1.1-0.3,1.6
						c0.3,0.3,0.7,0.5,1.2,0.5c0.7,0.2,1.4,0.4,2.1,0.6l2,0.8c0.7,0.2,1.4,0.5,2.1,0.8l1.8,0.9l0.1,0.1c0.1,0.1,0.1,0.1,0.1,0.1
						c0,0,0.1,0,0.4-0.4c0.2-0.7,0.5-1.5,0.7-2.3c0.4-1,0.9-2.1,1.4-3.1c0.5-0.8,0.9-1.6,1.2-2.5c0.1-0.4,0.2-0.9,0.4-1.3
						c0.3-0.5,0.5-0.9,0.7-1.4c0.1-0.4,0.3-0.9,0.6-1.3l0.1-0.1l0.1-0.1c0.2-0.1,0.3-0.3,0.5-0.5c0.4-0.6,0.9-0.9,1.3-0.9
						c0.2,0,0.6,0.1,0.9,0.5l0.1,0.1l0,0.1c0.3,1.1,0.2,2.2-0.5,3.5c-0.8,2-1.6,4-2.5,5.9c-0.3,0.8-0.5,1.6-0.8,2.4
						c-0.1,0.5-0.3,1-0.5,1.5c-0.2,0.4-0.4,0.8-0.5,1.1c0.1,0.4,0.3,0.5,0.3,0.5c0.6,0.2,1.2,0.4,1.8,0.5l0.1,0l0,0
						c1.2,0.5,2.4,1,3.5,1.6c1.2,0.6,2.5,1.1,3.7,1.6c0.5,0.3,1,0.5,1.5,0.5c0.7,0.1,1.2,0.4,1.7,0.8l0.1,0.1l0,0.1
						c0.3,0.7,0.3,1.6-0.2,2.5c-0.3,0.4-0.4,0.8-0.4,1.2l0,0.2l-0.1,0.1c-0.1,0.1-0.1,0.1-0.2,0.2c-0.1,0.4-0.3,0.7-0.5,1.1
						c-0.2,0.5-0.4,0.9-0.6,1.4c-0.1,0.4-0.3,0.8-0.6,1.1l-0.1,0.1l-0.1,0C-418.9,578.5-419.2,578.5-419.4,578.5z"/>
					<path fill="#29B765" d="M-435.8,542.3c0.3,0,0.5,0.2,0.7,0.5c0.2,0.6,0.1,1.1-0.1,1.7c-0.2,0.4-0.3,0.8-0.5,1.1
						c-0.2,0.3-0.4,0.6-0.6,1c-0.7,1.6-1.3,3.2-2.1,4.7c-0.1,0-0.2,0.2-0.2,0.4c0,0.4-0.2,0.8-0.4,1.2c-0.6,0.9-1.1,1.8-1.6,2.8
						c-0.2,0.5-0.3,0.9-0.5,1.4c-0.2,0.4-0.3,0.8-0.5,1.2c-0.4,0.8-0.5,1.5-0.3,2.1c0.4,0.4,0.9,0.7,1.5,0.8c0.7,0.2,1.4,0.4,2,0.6
						c0.6,0.3,1.3,0.5,1.9,0.8c0.7,0.2,1.4,0.5,2.1,0.8c0.6,0.3,1.1,0.6,1.7,0.8c0.2,0.2,0.3,0.2,0.5,0.2c0.3,0,0.5-0.2,0.8-0.7
						c0.3-0.8,0.5-1.6,0.8-2.5c0.4-1,0.8-2,1.3-3c0.5-0.8,0.9-1.6,1.2-2.6c0.1-0.4,0.2-0.8,0.4-1.3c0.3-0.4,0.5-0.9,0.7-1.4
						c0.1-0.4,0.3-0.9,0.5-1.3c0.2-0.2,0.4-0.4,0.6-0.7c0.3-0.4,0.6-0.6,0.9-0.6c0.2,0,0.4,0.1,0.5,0.3c0.3,0.9,0.2,2-0.4,3.1
						c-0.8,2-1.6,4-2.5,5.9c-0.3,0.8-0.6,1.7-0.8,2.5c-0.1,0.5-0.3,1-0.5,1.4c-0.3,0.4-0.4,0.9-0.5,1.3c0.1,0.5,0.3,0.9,0.7,1
						c0.6,0.2,1.2,0.4,1.8,0.5c1.2,0.5,2.3,1,3.4,1.6c1.2,0.6,2.5,1.1,3.7,1.6c0.5,0.3,1.1,0.5,1.7,0.6c0.5,0.1,1,0.3,1.4,0.7
						c0.3,0.6,0.2,1.3-0.2,2.1c-0.3,0.5-0.4,0.9-0.5,1.4c-0.1,0.1-0.2,0.2-0.3,0.2c-0.2,0.4-0.3,0.8-0.5,1.2c-0.2,0.5-0.4,1-0.6,1.4
						c-0.1,0.4-0.2,0.7-0.5,0.9c-0.2,0.1-0.3,0.1-0.5,0.1c-0.2,0-0.3-0.1-0.5-0.2c-1.3-0.5-2.5-1-3.8-1.5c-2.5-1.2-5.1-2.3-7.8-3.4
						c-1.3-0.4-2.7-0.8-3.9-1.3c-1.4-0.5-2.7-1-4-1.5c-1.3-0.5-2.6-1-4-1.5c-0.6-0.2-1.3-0.3-1.9-0.4c-0.1,0-0.1,0-0.2,0
						c-0.6,0-1.1-0.3-1.5-0.8c0-0.5,0-1,0.2-1.7c0.2-0.8,0.5-1.6,0.8-2.4c0.2-0.7,0.5-1.5,0.8-2.2c0.4-0.8,0.7-1.7,1.1-2.5
						c0.9-1.7,1.7-3.3,2.4-5c0.7-1.7,1.5-3.3,2.2-5.1c0.3-0.8,0.7-1.5,1-2.3c0.4-0.9,0.8-1.7,1.2-2.6
						C-436.7,542.7-436.3,542.3-435.8,542.3 M-435.8,541.3c-1.2,0-2,1.3-2.3,1.7l0,0l0,0c-0.4,0.8-0.9,1.7-1.3,2.6
						c-0.4,0.8-0.7,1.6-1.1,2.3c-0.7,1.7-1.4,3.4-2.1,5c-0.7,1.7-1.5,3.4-2.4,5l0,0l0,0.1c-0.3,0.9-0.7,1.7-1,2.5
						c-0.3,0.8-0.6,1.5-0.9,2.2c-0.4,0.9-0.7,1.7-0.8,2.6c-0.2,0.7-0.2,1.4-0.2,1.9l0,0.3l0.2,0.2c0.7,1,1.6,1.2,2.3,1.2
						c0,0,0.1,0,0.1,0c0.6,0.1,1.2,0.2,1.7,0.4c1.3,0.4,2.6,0.9,3.9,1.5l2.1,0.8l1.9,0.7c1.3,0.5,2.6,1,4,1.3
						c2.6,1.1,5.2,2.2,7.7,3.4l3.7,1.5c0.3,0.2,0.6,0.3,1,0.3c0.3,0,0.6-0.1,0.9-0.2l0.1-0.1l0.1-0.1c0.3-0.3,0.5-0.7,0.7-1.2
						c0.2-0.4,0.4-0.9,0.6-1.4c0.1-0.3,0.3-0.6,0.4-0.9c0,0,0.1-0.1,0.1-0.1l0.2-0.3l0-0.4c0-0.3,0.1-0.6,0.3-1l0,0l0,0
						c0.6-1.1,0.6-2,0.2-2.9l-0.1-0.2l-0.2-0.1c-0.5-0.5-1.2-0.8-1.9-0.9l0,0l0,0c-0.4,0-0.9-0.2-1.3-0.4l-0.1,0l-0.1,0
						c-1.2-0.5-2.4-1-3.7-1.6c-1.1-0.5-2.3-1.1-3.5-1.6l-0.1,0l-0.1,0c-0.6-0.1-1.1-0.3-1.7-0.4c0,0,0,0,0,0
						c0.1-0.3,0.2-0.5,0.3-0.8l0,0l0,0c0.2-0.5,0.4-1,0.6-1.6c0.2-0.8,0.5-1.6,0.8-2.4c0.9-1.9,1.7-3.8,2.5-5.8
						c0.7-1.4,0.8-2.7,0.5-3.8l-0.1-0.2l-0.1-0.1c-0.4-0.5-0.9-0.7-1.3-0.7c-0.9,0-1.5,0.8-1.7,1.1l0,0l0,0
						c-0.1,0.2-0.2,0.3-0.3,0.4l-0.2,0.1l-0.1,0.2c-0.2,0.4-0.4,0.9-0.6,1.4c-0.2,0.4-0.4,0.9-0.6,1.3l0,0l0,0
						c-0.2,0.5-0.4,0.9-0.5,1.4c-0.3,0.8-0.6,1.6-1.1,2.2l0,0.1l0,0.1c-0.5,1-1,2.1-1.4,3.1l0,0.1l0,0.1c-0.2,0.8-0.4,1.5-0.7,2.2
						l-0.5-0.2l-1.1-0.6l0,0l0,0c-0.7-0.3-1.4-0.5-2.1-0.8l-0.6-0.3l-1.2-0.5l-0.1,0l-0.1,0c-0.6-0.1-1.3-0.3-1.9-0.5l-0.1,0l-0.1,0
						c-0.3,0-0.5-0.2-0.8-0.3c0-0.3,0.1-0.6,0.3-1l0,0l0,0c0.2-0.4,0.4-0.8,0.6-1.3l0,0l0,0l0.5-1.3c0.4-0.9,0.9-1.8,1.5-2.6
						c0.3-0.5,0.5-1,0.5-1.6l0.1-0.2c0.7-1.5,1.4-3.1,2.1-4.8c0.1-0.3,0.3-0.5,0.4-0.8l0-0.1l0-0.1c0.2-0.4,0.4-0.8,0.6-1.3
						c0.3-0.8,0.4-1.6,0.2-2.4l-0.1-0.2l-0.1-0.2C-434.8,541.5-435.4,541.3-435.8,541.3L-435.8,541.3z"/>
					<path fill="#29B765" d="M-409.7,553.1c-0.3,0-0.7-0.1-1-0.5c-0.5-0.4-1-0.8-1.6-1.2c-2.3-1.4-4.6-3-6.8-4.7
						c-1-0.9-2.1-1.6-3.2-2.3l-3.5-2.5c-1.2-0.6-2.3-1.4-3.5-2.2c-0.5-0.4-1.1-0.9-1.6-1.4c-0.4-0.5-0.9-0.9-1.5-1.2
						c-0.5-0.1-1.3-0.4-1.4-1.7l0-0.1l0-0.1c0.2-0.8,0.6-1.7,1.2-2.5c0.4-0.9,1-1.8,1.6-2.6c0.7-0.7,1.3-1.5,1.9-2.3
						c1.5-1.5,2.8-3.2,4-5c1.2-1.8,2.4-3.6,3.7-5.4c0.9-1.3,1.7-1.9,2.4-1.9c0.4,0,0.8,0.2,1.2,0.6l0.2,0.2l0,0.2
						c-0.3,1.8-1.1,3.3-2.5,4.6c-0.6,0.8-1.3,1.6-1.8,2.5l-1.8,2.8c-0.4,0.4-0.7,0.8-1.1,1.1l-0.7,0.9c-0.6,0.6-0.8,1.1-0.8,1.7
						c0.3,0.3,0.6,0.6,1,0.8l0,0l0,0c0.6,0.5,1.1,0.9,1.6,1.4c0.4,0.3,1,0.6,1.5,0.9c0.7,0.5,1.2,1,1.7,1.5c0.3,0.4,0.7,0.7,1.1,0.7
						c0.5-0.2,0.9-0.6,1.2-1.3l0-0.1l0,0c1.4-1.5,2.7-3.1,3.9-4.8c0.5-0.9,1.1-1.8,1.7-2.6c0.3-0.4,0.6-0.7,0.9-1.1l0.9-1.2l0.1,0
						c0.6-0.5,1.1-0.7,1.6-0.7c0.3,0,0.6,0.1,0.8,0.3c0.3,0.4,0.4,1,0.3,1.9l0,0.1l0,0.1c-0.4,0.9-0.9,1.7-1.6,2.3
						c-0.3,0.3-0.5,0.6-0.7,0.9c-0.2,0.4-0.4,0.9-0.7,1.4c-1.3,1.7-2.5,3.4-3.7,5c-0.2,0.4-0.5,0.9-0.8,1.4
						c-0.2,0.2-0.3,0.5-0.4,0.7c0,0.3,0.2,0.4,0.3,0.4l0.1,0l0.1,0.1c1.1,0.8,2.2,1.5,3.2,2.2c1.1,0.8,2.2,1.6,3.2,2.4
						c0.5,0.4,1,0.7,1.6,1.1c0.1,0.1,0.1,0.1,0.2,0.1c0,0,0.2,0,0.5-0.3c0.5-0.7,1.1-1.4,1.6-2.2c0.7-0.9,1.3-1.8,1.8-2.7
						c0.1-0.4,0.4-0.8,0.7-1.2l0,0l0,0c0.3-0.2,0.5-0.5,0.7-0.8l0.8-1.2c0.3-0.4,0.6-0.7,0.9-1.1c0.5-0.8,1.1-1.4,1.8-1.7l0,0l0.1,0
						c0.1,0,0.2,0,0.3,0c0.3,0,1.2,0.1,1.2,1.3c-0.2,0.9-0.5,1.7-1.1,2.4c-0.3,0.4-0.5,0.8-0.7,1.1l0,0l0,0c-0.3,0.3-0.5,0.7-0.6,1
						l-0.1,0.2l-0.2,0.1c0,0-0.1,0-0.2,0.3c-0.1,0.3-0.3,0.6-0.5,0.9c-0.2,0.2-0.3,0.4-0.5,0.5l-0.4,0.7c-0.2,0.4-0.4,0.7-0.7,0.8
						c-0.2,0.1-0.3,0.2-0.4,0.3c-0.1,0.4-0.3,0.7-0.5,0.9c-0.4,0.5-0.7,0.9-1,1.4c-0.3,0.5-0.6,1.1-1,1.6c-0.1,0.4-0.2,0.7-0.3,1
						l0,0.1l0,0.1c-0.3,0.4-0.5,0.9-0.6,1.3l-0.1,0.5l-0.4-0.1c0,0,0,0,0,0.1c-0.3,0.4-0.5,0.8-0.8,1.1c-0.3,0.4-0.5,0.8-0.8,1.1
						c-0.2,0.5-0.5,0.9-0.8,1.2C-409,553-409.4,553.1-409.7,553.1z"/>
					<path fill="#29B765" d="M-418.9,515.9c0.3,0,0.6,0.1,0.8,0.4c-0.2,1.6-1,3.1-2.4,4.3c-0.7,0.9-1.3,1.7-1.9,2.6
						c-0.6,1-1.2,1.9-1.8,2.9c-0.3,0.4-0.6,0.7-1,1c-0.3,0.3-0.5,0.7-0.8,1c-0.7,0.7-1,1.4-0.9,2.1c0.4,0.5,0.8,0.8,1.3,1.1
						c0.5,0.4,1,0.9,1.5,1.4c0.5,0.4,1.1,0.7,1.7,1c0.6,0.4,1.1,0.9,1.6,1.4c0.4,0.5,0.9,0.8,1.6,0.9c0.6-0.2,1.2-0.7,1.6-1.6
						c1.4-1.5,2.7-3.1,3.9-4.8c0.5-0.9,1.1-1.8,1.7-2.6c0.3-0.4,0.6-0.7,0.9-1c0.3-0.4,0.6-0.8,0.9-1.2c0.5-0.4,1-0.6,1.3-0.6
						c0.5,0,0.7,0.6,0.5,1.7c-0.3,0.9-0.8,1.6-1.5,2.1c-0.4,0.3-0.6,0.7-0.8,1c-0.2,0.5-0.4,1-0.7,1.5c-1.2,1.6-2.4,3.3-3.6,4.9
						c-0.3,0.5-0.5,0.9-0.8,1.4c-0.2,0.3-0.4,0.6-0.5,0.9c0,0.6,0.2,0.9,0.7,1c1.1,0.8,2.2,1.5,3.2,2.2c1.1,0.8,2.1,1.6,3.2,2.3
						c0.5,0.4,1.1,0.7,1.6,1.1c0.1,0.1,0.3,0.2,0.4,0.2c0.3,0,0.5-0.1,0.9-0.4c0.6-0.7,1.2-1.5,1.7-2.3c0.6-0.9,1.3-1.8,1.8-2.7
						c0.2-0.4,0.4-0.8,0.7-1.2c0.3-0.3,0.6-0.6,0.8-1c0.3-0.4,0.5-0.8,0.8-1.2c0.3-0.3,0.6-0.7,0.9-1.1c0.5-0.8,1-1.3,1.6-1.5
						c0.1,0,0.2,0,0.2,0c0.4,0,0.7,0.3,0.7,0.8c-0.1,0.7-0.5,1.4-1,2c-0.3,0.4-0.6,0.8-0.8,1.2c-0.3,0.4-0.5,0.8-0.6,1.2
						c-0.2,0.1-0.3,0.2-0.5,0.6c-0.1,0.3-0.3,0.5-0.4,0.7c-0.2,0.2-0.3,0.3-0.5,0.5c-0.2,0.3-0.3,0.5-0.5,0.8
						c-0.1,0.3-0.3,0.5-0.5,0.6c-0.2,0.1-0.4,0.3-0.6,0.5c-0.1,0.3-0.2,0.6-0.4,0.8c-0.4,0.5-0.8,1-1.1,1.5c-0.3,0.6-0.6,1.1-1,1.7
						c-0.1,0.4-0.2,0.7-0.3,1c-0.4,0.5-0.6,1-0.7,1.5c0,0-0.1,0-0.1,0c-0.2,0-0.3,0.1-0.4,0.4c-0.2,0.3-0.5,0.7-0.7,1
						c-0.3,0.4-0.6,0.8-0.9,1.2c-0.2,0.5-0.4,0.8-0.7,1.1c-0.3,0.2-0.5,0.3-0.8,0.3c-0.3,0-0.5-0.1-0.6-0.4
						c-0.5-0.4-1.1-0.9-1.7-1.3c-2.3-1.4-4.6-3-6.8-4.7c-1-0.9-2.1-1.7-3.3-2.3c-1.1-0.8-2.3-1.6-3.4-2.5c-1.2-0.7-2.4-1.4-3.5-2.2
						c-0.5-0.4-1-0.9-1.5-1.4c-0.5-0.5-1-1-1.7-1.3c-0.7-0.1-1-0.5-1.1-1.2c0.2-0.8,0.6-1.6,1.1-2.3c0.4-0.9,1-1.8,1.6-2.6
						c0.7-0.7,1.3-1.5,2-2.3c1.4-1.5,2.8-3.2,4-5c1.2-1.8,2.4-3.6,3.7-5.4C-420.2,516.5-419.5,515.9-418.9,515.9 M-418.9,514.9
						c-1.3,0-2.3,1.2-2.9,2.2c-1.3,1.8-2.5,3.6-3.7,5.4c-1.2,1.8-2.5,3.4-3.9,4.8l0,0l0,0c-0.6,0.8-1.2,1.6-1.9,2.3l0,0l0,0
						c-0.7,0.8-1.2,1.8-1.7,2.7c-0.6,0.9-1,1.7-1.2,2.6l0,0.2l0,0.2c0.1,1.1,0.7,1.9,1.7,2.1c0.5,0.3,0.9,0.6,1.2,1l0,0l0,0
						c0.5,0.5,1,1,1.6,1.5l0,0l0,0c1.2,0.8,2.4,1.6,3.6,2.2l1.6,1.1l1.8,1.3l0,0l0.1,0c1.1,0.6,2.2,1.3,3.1,2.2l0,0l0,0
						c2.2,1.7,4.5,3.3,6.9,4.7c0.5,0.4,1,0.8,1.5,1.2c0.3,0.4,0.8,0.7,1.4,0.7c0.4,0,0.9-0.1,1.3-0.4l0.1,0l0.1-0.1
						c0.4-0.3,0.7-0.8,0.9-1.3c0.3-0.3,0.5-0.7,0.8-1.1c0.2-0.3,0.5-0.6,0.7-0.9l0.6,0.1l0.1-1.1c0-0.3,0.2-0.7,0.5-1l0.1-0.1
						l0.1-0.1c0.1-0.3,0.2-0.6,0.3-1c0.3-0.5,0.7-1.1,0.9-1.6c0.3-0.5,0.6-0.9,1-1.3c0.2-0.3,0.4-0.6,0.6-1c0.1-0.1,0.1-0.1,0.2-0.1
						c0.4-0.2,0.7-0.6,0.9-1l0.4-0.6c0.1-0.1,0.2-0.3,0.4-0.4l0,0l0,0c0.2-0.3,0.4-0.6,0.6-0.9l0,0l0,0c0,0,0,0,0,0l0.3-0.1l0.2-0.5
						c0.1-0.3,0.2-0.6,0.5-0.8l0.1-0.1l0-0.1c0.2-0.3,0.4-0.7,0.7-1.1c0.6-0.7,1-1.6,1.2-2.5l0-0.1l0-0.1c0-1.4-0.9-1.8-1.7-1.8
						c-0.1,0-0.3,0-0.4,0l-0.1,0l-0.1,0c-0.8,0.3-1.5,1-2.1,1.9c-0.3,0.3-0.5,0.7-0.8,1l-0.1,0.1l0,0.1l-0.4,0.6l-0.4,0.6l0,0l0,0
						c-0.2,0.3-0.4,0.5-0.6,0.7l-0.1,0.1l-0.1,0.1c-0.3,0.4-0.6,0.9-0.8,1.3c-0.5,0.9-1.1,1.8-1.7,2.6l0,0l0,0
						c-0.5,0.8-1,1.5-1.5,2.2c0,0-0.1,0.1-0.1,0.1c-0.5-0.3-1-0.7-1.5-1c-1.1-0.7-2.2-1.5-3.2-2.3l0,0l0,0c-1.1-0.7-2.1-1.4-3.2-2.2
						l-0.2-0.1c0.1-0.1,0.1-0.2,0.2-0.3l0,0l0,0c0.3-0.5,0.6-0.9,0.8-1.4c1.2-1.6,2.4-3.2,3.6-4.9l0.1-0.1l0-0.1
						c0.2-0.5,0.5-1,0.7-1.5c0.2-0.3,0.4-0.5,0.6-0.8c0.7-0.6,1.3-1.5,1.7-2.5l0-0.1l0-0.1c0.1-0.7,0.2-1.7-0.4-2.3
						c-0.3-0.3-0.7-0.5-1.2-0.5c-0.5,0-1.1,0.2-1.8,0.8l-0.1,0.1l-0.1,0.1l-0.6,0.8l-0.3,0.3c-0.3,0.3-0.6,0.7-0.9,1.1
						c-0.7,0.8-1.3,1.7-1.8,2.7c-1.2,1.6-2.5,3.2-3.8,4.7l-0.1,0.1l-0.1,0.1c-0.3,0.5-0.5,0.8-0.8,1c-0.3-0.1-0.4-0.2-0.6-0.5l0-0.1
						l0-0.1c-0.5-0.6-1.1-1.1-1.7-1.5l-0.1-0.1l-0.1,0c-0.5-0.2-1-0.5-1.4-0.8c-0.5-0.5-1-1-1.5-1.4l-0.1-0.1l-0.1,0
						c-0.3-0.1-0.5-0.3-0.7-0.5c0.1-0.3,0.3-0.7,0.7-1.1l0,0l0,0l0.2-0.3l0.5-0.6c0.3-0.3,0.7-0.7,1-1.1l0,0l0-0.1l0.7-1l1.2-1.8
						c0.5-0.8,1.1-1.6,1.8-2.4c1.5-1.4,2.3-3,2.6-4.9l0.1-0.5l-0.3-0.4C-417.9,515.1-418.5,514.9-418.9,514.9L-418.9,514.9z"/>
				</g>
				<g>
					<g id="XMLID_22_">
						<path fill="#2ECC71" d="M-456.2,622.7c-0.7,0-1.3-0.3-1.8-0.7c-0.6-0.3-1.3-0.6-1.9-1c-5.2-2.6-10.5-5.2-15.8-7.8
							c-1.3-0.6-2.6-1.3-3.9-1.9c-0.5-0.3-1.1-0.4-1.7-0.5c0,0,0,0,0,0c-0.4,0-1.3-0.2-1.5-1.5l0-0.1l0-0.1c0.2-0.8,0.5-1.6,0.9-2.5
							c0.4-0.9,1-1.9,1.6-2.8c0.3-0.7,0.7-1.3,1.3-1.7l0.1-0.1l0.1,0c0.2,0,0.4-0.1,0.6-0.1c0.6,0,1.2,0.2,1.6,0.6
							c1.3,0.6,2.5,1.3,3.7,2c1.3,0.7,2.6,1.4,3.9,2.1c0.6,0.3,1.2,0.6,1.7,0.8l2,1.1c0.6,0.3,1.2,0.7,1.7,1c0.7,0.4,1.3,0.7,2,0.9
							c2.2,1.1,4.5,2.1,6.8,2.9l0.1,0l0.1,0c0.2,0.1,0.3,0.2,0.5,0.2c0.1,0,0.3,0,0.4-0.1c0.3-0.3,0.6-0.7,0.9-1.3
							c0.4-0.9,0.9-1.8,1.4-2.6c0.5-0.8,0.9-1.6,1.2-2.4c0.7-1.5,1.5-3,2.4-4.5c0.4-1.3,1.2-2.3,2.1-3.2l0.1-0.1l0.1,0
							c0.1,0,0.3-0.1,0.4-0.1c0.3,0,0.9,0.1,1.1,1c0,0.9-0.2,1.7-0.7,2.3c-0.4,0.9-0.8,1.7-1.1,2.5l-0.3,0.9
							c-0.1,0.3-0.2,0.5-0.3,0.7l0,0.1l-0.1,0.1c-0.5,0.6-1,1.4-1.4,2.2c-0.3,0.5-0.5,1-0.8,1.5l-0.7,1.6l-0.9,1.2
							c-0.2,0.4-0.4,0.8-0.6,1.3c-0.5,1.1-1.1,2.2-1.6,3.2c-0.6,1-1.1,2-1.7,2.9c-0.6,0.9-1.3,1.5-2.1,1.6L-456.2,622.7
							L-456.2,622.7z"/>
						<path fill="#29B765" d="M-445.1,600c0.3,0,0.6,0.2,0.6,0.6c0,0.7-0.2,1.4-0.7,2c-0.4,0.9-0.8,1.8-1.1,2.6
							c-0.1,0.3-0.2,0.7-0.3,1c-0.1,0.3-0.2,0.5-0.3,0.7c-0.6,0.7-1.1,1.4-1.5,2.3c-0.2,0.5-0.5,1-0.8,1.5c-0.2,0.6-0.5,1.1-0.7,1.6
							c-0.3,0.4-0.6,0.8-0.8,1.2c-0.2,0.5-0.4,0.9-0.6,1.4c-0.5,1.1-1.1,2.1-1.6,3.1c-0.5,1-1.1,1.9-1.7,2.8
							c-0.5,0.8-1.1,1.3-1.7,1.4c-0.6,0-1.1-0.2-1.5-0.6c-0.6-0.3-1.3-0.6-1.9-1c-5.2-2.6-10.5-5.2-15.8-7.8
							c-1.3-0.6-2.6-1.3-3.9-1.9c-0.6-0.3-1.2-0.5-1.9-0.6c0,0,0,0,0,0c-0.6,0-1-0.4-1.1-1.1c0.1-0.8,0.4-1.5,0.9-2.3
							c0.5-1,1-1.9,1.6-2.8c0.2-0.7,0.6-1.2,1.1-1.5c0.2,0,0.3,0,0.5,0c0.5,0,1,0.2,1.4,0.5c1.3,0.7,2.5,1.3,3.7,2
							c1.3,0.7,2.6,1.4,3.9,2.1c0.6,0.3,1.2,0.6,1.8,0.9c0.7,0.4,1.3,0.7,2,1.1c0.6,0.3,1.2,0.7,1.7,1c0.7,0.4,1.4,0.7,2,1
							c2.2,1.1,4.5,2.1,6.8,2.9c0.2,0.2,0.5,0.3,0.8,0.3c0.2,0,0.4,0,0.7-0.1c0.4-0.4,0.8-0.9,1.1-1.5c0.4-0.9,0.9-1.8,1.3-2.6
							c0.5-0.8,0.9-1.6,1.3-2.5c0.7-1.5,1.5-2.9,2.3-4.4c0.4-1.3,1.1-2.3,2-3C-445.3,600-445.2,600-445.1,600 M-445.1,599
							L-445.1,599c-0.2,0-0.4,0-0.5,0.1l-0.2,0.1l-0.2,0.1c-1,0.9-1.8,2-2.3,3.4c-0.8,1.4-1.6,2.9-2.3,4.4l0,0l0,0
							c-0.3,0.8-0.7,1.6-1.1,2.3l0,0l0,0c-0.5,0.8-0.9,1.7-1.4,2.6c-0.2,0.4-0.4,0.8-0.7,1.1c-0.1,0-0.1,0-0.2,0
							c-0.1,0-0.2,0-0.2-0.1l-0.1-0.1l-0.1,0c-2.3-0.8-4.5-1.7-6.7-2.8l0,0l0,0c-0.6-0.3-1.3-0.6-1.9-0.9c-0.6-0.3-1.1-0.6-1.7-1
							l-1.3-0.7l-0.7-0.4l-0.1,0l-0.1,0c-0.6-0.2-1.1-0.5-1.7-0.8c-1.2-0.7-2.5-1.4-3.9-2.1c-1.2-0.7-2.4-1.4-3.6-2
							c-0.6-0.4-1.2-0.7-1.9-0.7c-0.2,0-0.5,0-0.7,0.1l-0.2,0l-0.2,0.1c-0.6,0.4-1.1,1.1-1.4,1.9c-0.6,0.9-1.1,1.9-1.6,2.9
							c-0.5,0.9-0.8,1.7-0.9,2.6l0,0.2l0,0.2c0.2,1.2,0.9,1.9,2,1.9c0.5,0.1,1,0.3,1.5,0.5c1.3,0.6,2.6,1.2,3.9,1.9
							c5.3,2.6,10.6,5.2,15.8,7.8c0.6,0.3,1.2,0.6,1.8,0.9c0.6,0.5,1.3,0.7,2,0.8l0.1,0l0.1,0c0.9-0.2,1.7-0.8,2.4-1.9
							c0.6-0.9,1.1-1.9,1.7-2.9c0.5-1,1.1-2.1,1.6-3.2l0,0l0,0c0.2-0.4,0.4-0.8,0.6-1.2l0.2-0.3l0.6-0.8l0.1-0.1l0-0.1
							c0.2-0.5,0.4-1,0.7-1.6c0.3-0.5,0.5-1,0.8-1.5c0.4-0.8,0.8-1.5,1.3-2.1l0.2-0.2l0.1-0.2c0-0.1,0.1-0.3,0.2-0.5l0-0.1l0-0.1
							l0.2-0.8l0.1-0.2c0.3-0.8,0.7-1.6,1.1-2.4c0.5-0.7,0.8-1.6,0.8-2.5l0-0.1l0-0.1C-443.7,599.4-444.5,599-445.1,599L-445.1,599z
							"/>
					</g>
					<g id="XMLID_18_">
						<path fill="#2ECC71" d="M-442.3,598c-0.4-1.2,0.1-2.6,1.4-4.2c0.1-0.2,0.1-0.4,0.1-0.4c0,0-0.1-0.1-0.1-0.1l-1.8-1.3
							c-2.2-1.8-4.5-3.5-6.8-5.2l-7.1-4.8c-1-0.9-2.1-1.7-3.1-2.5c-0.2-0.2-0.5-0.2-0.8-0.2c-0.1,0-0.1,0-0.2,0
							c-0.4,0.2-0.9,0.6-1.2,1c-0.8,1.2-1.6,1.7-2.3,1.7c-0.3,0-0.7-0.1-1-0.4l-0.2-0.1l0-0.2c-0.1-1.1,0.3-2.2,1.1-3.2
							c0.2-0.7,0.6-1.3,1.3-1.8c0.6-0.9,1.2-1.9,1.8-2.8c0.7-0.9,1.4-1.7,2.1-2.5c0.7-0.9,1.4-1.7,2-2.6c0.5-0.6,1.1-1.1,1.7-1.6
							c0.4-0.2,0.7-0.3,0.9-0.3c0.2,0,1,0.1,1.1,1.3l0,0.1l0,0.1c-0.3,1.3-1,2.5-1.9,3.6c-0.1,0.6,0,1,0.2,1.3
							c0.2,0.2,0.5,0.4,1,0.4l0.2,0l0.1,0.1c1.1,1,2.2,1.8,3.4,2.6c2.4,1.5,4.6,3.3,6.7,5.1c1.5,1.2,3.1,2.3,4.6,3.4
							c0.7,0.6,1.4,1.1,2.1,1.6l0.1,0l0,0c0.2,0.3,0.5,0.4,0.8,0.4c0.2,0,0.4,0,0.6-0.1c1-1.4,2.1-2.4,3.4-2.9l0.2-0.1l0.2,0.1
							c0.6,0.4,1.1,1.2,0.1,3l-1.3,2l-0.6,0.8c-0.1,0.4-0.3,0.7-0.6,1c-1.5,1.4-2.9,3-4.1,4.7c-1,1.8-2.2,3-3.7,3.4l-0.5,0.1
							L-442.3,598z"/>
						<path fill="#29B765" d="M-454.5,567c0.4,0,0.6,0.3,0.6,0.8c-0.3,1.2-1,2.4-1.9,3.5c-0.2,1.5,0.3,2.3,1.7,2.4
							c1.1,1,2.3,1.9,3.5,2.7c2.4,1.5,4.6,3.2,6.6,5.1c1.5,1.2,3.1,2.3,4.6,3.4c0.7,0.6,1.4,1.1,2.1,1.6c0.3,0.4,0.7,0.6,1.2,0.6
							c0.3,0,0.6-0.1,0.9-0.2c1-1.4,2.1-2.4,3.2-2.9c0.6,0.4,0.6,1.2-0.1,2.3c-0.5,0.7-0.9,1.3-1.3,1.9l-0.6,0.8
							c-0.1,0.3-0.3,0.7-0.5,1c-1.5,1.4-2.8,2.9-4.1,4.7c-0.9,1.7-2.1,2.8-3.4,3.2c-0.3-1,0.1-2.2,1.3-3.7c0.4-0.6,0.3-1.1-0.1-1.3
							c-0.6-0.4-1.2-0.9-1.8-1.3c-2.2-1.8-4.5-3.5-6.8-5.2c-2.4-1.6-4.8-3.2-7.2-4.8c-1-0.8-2-1.7-3.1-2.4c-0.3-0.2-0.7-0.3-1.1-0.3
							c-0.1,0-0.2,0-0.3,0c-0.6,0.2-1.1,0.6-1.5,1.2c-0.7,1-1.3,1.5-1.9,1.5c-0.2,0-0.5-0.1-0.7-0.3c-0.1-1,0.3-2,1.1-2.9
							c0,0,0,0,0,0c0,0,0.1-0.1,0.1-0.1c0,0,0,0.1-0.1,0.1c0.2-0.7,0.6-1.2,1.2-1.7c0.7-1,1.3-1.9,1.8-2.9c0.6-0.8,1.3-1.6,2-2.5
							c0.7-0.9,1.4-1.7,2.1-2.6c0.5-0.6,1-1.1,1.6-1.5C-454.9,567.1-454.7,567-454.5,567 M-454.5,566c-0.3,0-0.7,0.1-1.1,0.3l-0.1,0
							l-0.1,0.1c-0.6,0.4-1.2,1-1.8,1.6c-0.7,0.8-1.4,1.7-2.1,2.6c-0.7,0.8-1.4,1.6-2,2.4l0,0.1l0,0.1c-0.5,0.9-1.1,1.8-1.7,2.7
							c-0.7,0.6-1.1,1.2-1.4,1.9c-0.9,1.1-1.3,2.3-1.2,3.5l0,0.4l0.1,0.1l-0.2,0.6l0.4-0.4l0.1,0c0.4,0.3,0.8,0.5,1.3,0.5
							c0.9,0,1.8-0.6,2.7-1.9c0.3-0.4,0.6-0.7,0.9-0.8c0,0,0,0,0.1,0c0.3,0,0.4,0.1,0.5,0.1c1.1,0.8,2.1,1.6,3.1,2.4l0,0l0,0
							l7.2,4.8c2.2,1.6,4.5,3.4,6.7,5.2l1.7,1.2c-1.4,1.7-1.9,3.3-1.4,4.6l0.3,0.9l0.9-0.3c1.6-0.5,2.9-1.7,4-3.6
							c1.2-1.6,2.5-3.1,3.9-4.4l0.1-0.1l0.1-0.1c0.2-0.3,0.4-0.7,0.6-1.1l0.5-0.7c0.4-0.7,0.9-1.3,1.3-2l0,0l0,0
							c1.3-2.2,0.4-3.2-0.2-3.7l-0.4-0.3l-0.5,0.2c-1.3,0.5-2.5,1.5-3.5,3c-0.1,0-0.2,0-0.3,0c-0.1,0-0.3,0-0.4-0.2l-0.1-0.1
							l-0.1-0.1c-0.7-0.5-1.4-1-2.1-1.5l0,0l0,0c-1.5-1.1-3.1-2.2-4.6-3.4c-2.1-1.9-4.3-3.6-6.7-5.1c-1.1-0.7-2.3-1.6-3.4-2.6
							l-0.3-0.2l-0.3,0c-0.2,0-0.5,0-0.6-0.2c-0.1-0.1-0.1-0.4-0.1-0.8c0.9-1.1,1.5-2.3,1.9-3.6l0-0.2l0-0.2
							C-453,566.5-453.8,566-454.5,566L-454.5,566z"/>
					</g>
					<g id="XMLID_14_">
						<path fill="#2ECC71" d="M-419.4,577.1c-0.3,0-0.5-0.1-0.7-0.2l-3.7-1.5c-2.6-1.2-5.2-2.3-7.8-3.4c-1.3-0.3-2.6-0.8-3.9-1.3
							l-4-1.5c-1.3-0.5-2.6-1-4-1.5c-0.6-0.1-1.2-0.3-1.8-0.4c0,0-0.1,0-0.1,0c-0.8,0-1.4-0.3-1.9-1l-0.1-0.1l0-0.1
							c0-0.5,0-1.1,0.2-1.8c0.2-0.8,0.5-1.7,0.8-2.5c0.2-0.7,0.5-1.5,0.8-2.2c0.4-0.8,0.7-1.6,1-2.5c0.9-1.7,1.7-3.4,2.4-5.1
							c0.7-1.7,1.5-3.3,2.2-5c0.3-0.8,0.7-1.6,1.1-2.3c0.4-0.9,0.8-1.7,1.2-2.6c0.6-1,1.2-1.5,1.9-1.5c0.4,0,0.8,0.2,1.1,0.7
							l0.1,0.1l0,0.1c0.2,0.7,0.1,1.4-0.1,2c-0.2,0.5-0.4,0.8-0.6,1.2c-0.2,0.3-0.4,0.6-0.5,0.9c-0.7,1.6-1.3,3.2-2.1,4.8l-0.1,0.2
							l0,0l0,0c0,0.5-0.2,1-0.5,1.4c-0.6,0.9-1.1,1.8-1.5,2.7l-0.4,1.3c-0.2,0.5-0.4,0.9-0.6,1.3c-0.3,0.6-0.4,1.1-0.3,1.6
							c0.3,0.3,0.7,0.5,1.2,0.5c0.7,0.2,1.4,0.4,2.1,0.6l2,0.8c0.7,0.2,1.4,0.5,2.1,0.8l1.8,0.9l0.1,0.1c0.1,0.1,0.1,0.1,0.1,0.1
							c0,0,0.1,0,0.4-0.4c0.2-0.7,0.5-1.5,0.7-2.3c0.4-1,0.9-2.1,1.4-3.1c0.5-0.8,0.9-1.6,1.2-2.5c0.1-0.4,0.2-0.9,0.4-1.3
							c0.3-0.5,0.5-0.9,0.7-1.4c0.1-0.4,0.3-0.9,0.6-1.3l0.1-0.1l0.1-0.1c0.2-0.1,0.3-0.3,0.5-0.5c0.4-0.6,0.9-0.9,1.3-0.9
							c0.2,0,0.6,0.1,0.9,0.5l0.1,0.1l0,0.1c0.3,1.1,0.2,2.2-0.5,3.5c-0.8,2-1.6,4-2.5,5.9c-0.3,0.8-0.5,1.6-0.8,2.4
							c-0.1,0.5-0.3,1-0.5,1.5c-0.2,0.4-0.4,0.8-0.5,1.1c0.1,0.4,0.3,0.5,0.3,0.5c0.6,0.2,1.2,0.4,1.8,0.5l0.1,0l0,0
							c1.2,0.5,2.4,1,3.5,1.6c1.2,0.6,2.5,1.1,3.7,1.6c0.5,0.3,1,0.5,1.5,0.5c0.7,0.1,1.2,0.4,1.7,0.8l0.1,0.1l0,0.1
							c0.3,0.7,0.3,1.6-0.2,2.5c-0.3,0.4-0.4,0.8-0.4,1.2l0,0.2l-0.1,0.1c-0.1,0.1-0.1,0.1-0.2,0.2c-0.1,0.4-0.3,0.7-0.5,1.1
							c-0.2,0.5-0.4,0.9-0.6,1.4c-0.1,0.4-0.3,0.8-0.6,1.1l-0.1,0.1l-0.1,0C-418.9,577.1-419.2,577.1-419.4,577.1z"/>
						<path fill="#29B765" d="M-435.8,540.9c0.3,0,0.5,0.2,0.7,0.5c0.2,0.6,0.1,1.1-0.1,1.7c-0.2,0.4-0.3,0.8-0.5,1.1
							c-0.2,0.3-0.4,0.6-0.6,1c-0.7,1.6-1.3,3.2-2.1,4.7c-0.1,0-0.2,0.2-0.2,0.4c0,0.4-0.2,0.8-0.4,1.2c-0.6,0.9-1.1,1.8-1.6,2.8
							c-0.2,0.5-0.3,0.9-0.5,1.4c-0.2,0.4-0.3,0.8-0.5,1.2c-0.4,0.8-0.5,1.5-0.3,2.1c0.4,0.4,0.9,0.7,1.5,0.8c0.7,0.2,1.4,0.4,2,0.6
							c0.6,0.3,1.3,0.5,1.9,0.8c0.7,0.2,1.4,0.5,2.1,0.8c0.6,0.3,1.1,0.6,1.7,0.8c0.2,0.2,0.3,0.2,0.5,0.2c0.3,0,0.5-0.2,0.8-0.7
							c0.3-0.8,0.5-1.6,0.8-2.5c0.4-1,0.8-2,1.3-3c0.5-0.8,0.9-1.6,1.2-2.6c0.1-0.4,0.2-0.8,0.4-1.3c0.3-0.4,0.5-0.9,0.7-1.4
							c0.1-0.4,0.3-0.9,0.5-1.3c0.2-0.2,0.4-0.4,0.6-0.7c0.3-0.4,0.6-0.6,0.9-0.6c0.2,0,0.4,0.1,0.5,0.3c0.3,0.9,0.2,2-0.4,3.1
							c-0.8,2-1.6,4-2.5,5.9c-0.3,0.8-0.6,1.7-0.8,2.5c-0.1,0.5-0.3,1-0.5,1.4c-0.3,0.4-0.4,0.9-0.5,1.3c0.1,0.5,0.3,0.9,0.7,1
							c0.6,0.2,1.2,0.4,1.8,0.5c1.2,0.5,2.3,1,3.4,1.6c1.2,0.6,2.5,1.1,3.7,1.6c0.5,0.3,1.1,0.5,1.7,0.6c0.5,0.1,1,0.3,1.4,0.7
							c0.3,0.6,0.2,1.3-0.2,2.1c-0.3,0.5-0.4,0.9-0.5,1.4c-0.1,0.1-0.2,0.2-0.3,0.2c-0.2,0.4-0.3,0.8-0.5,1.2
							c-0.2,0.5-0.4,1-0.6,1.4c-0.1,0.4-0.2,0.7-0.5,0.9c-0.2,0.1-0.3,0.1-0.5,0.1c-0.2,0-0.3-0.1-0.5-0.2c-1.3-0.5-2.5-1-3.8-1.5
							c-2.5-1.2-5.1-2.3-7.8-3.4c-1.3-0.4-2.7-0.8-3.9-1.3c-1.4-0.5-2.7-1-4-1.5c-1.3-0.5-2.6-1-4-1.5c-0.6-0.2-1.3-0.3-1.9-0.4
							c-0.1,0-0.1,0-0.2,0c-0.6,0-1.1-0.3-1.5-0.8c0-0.5,0-1,0.2-1.7c0.2-0.8,0.5-1.6,0.8-2.4c0.2-0.7,0.5-1.5,0.8-2.2
							c0.4-0.8,0.7-1.7,1.1-2.5c0.9-1.7,1.7-3.3,2.4-5c0.7-1.7,1.5-3.3,2.2-5.1c0.3-0.8,0.7-1.5,1-2.3c0.4-0.9,0.8-1.7,1.2-2.6
							C-436.7,541.3-436.3,540.9-435.8,540.9 M-435.8,539.9c-1.2,0-2,1.3-2.3,1.7l0,0l0,0c-0.4,0.8-0.9,1.7-1.3,2.6
							c-0.4,0.8-0.7,1.6-1.1,2.3c-0.7,1.7-1.4,3.4-2.1,5c-0.7,1.7-1.5,3.4-2.4,5l0,0l0,0.1c-0.3,0.9-0.7,1.7-1,2.5
							c-0.3,0.8-0.6,1.5-0.9,2.2c-0.4,0.9-0.7,1.7-0.8,2.6c-0.2,0.7-0.2,1.4-0.2,1.9l0,0.3l0.2,0.2c0.7,1,1.6,1.2,2.3,1.2
							c0,0,0.1,0,0.1,0c0.6,0.1,1.2,0.2,1.7,0.4c1.3,0.4,2.6,0.9,3.9,1.5l2.1,0.8l1.9,0.7c1.3,0.5,2.6,1,4,1.3
							c2.6,1.1,5.2,2.2,7.7,3.4l3.7,1.5c0.3,0.2,0.6,0.3,1,0.3c0.3,0,0.6-0.1,0.9-0.2l0.1-0.1l0.1-0.1c0.3-0.3,0.5-0.7,0.7-1.2
							c0.2-0.4,0.4-0.9,0.6-1.4c0.1-0.3,0.3-0.6,0.4-0.9c0,0,0.1-0.1,0.1-0.1l0.2-0.3l0-0.4c0-0.3,0.1-0.6,0.3-1l0,0l0,0
							c0.6-1.1,0.6-2,0.2-2.9l-0.1-0.2l-0.2-0.1c-0.5-0.5-1.2-0.8-1.9-0.9l0,0l0,0c-0.4,0-0.9-0.2-1.3-0.4l-0.1,0l-0.1,0
							c-1.2-0.5-2.4-1-3.7-1.6c-1.1-0.5-2.3-1.1-3.5-1.6l-0.1,0l-0.1,0c-0.6-0.1-1.1-0.3-1.7-0.4c0,0,0,0,0,0
							c0.1-0.3,0.2-0.5,0.3-0.8l0,0l0,0c0.2-0.5,0.4-1,0.6-1.6c0.2-0.8,0.5-1.6,0.8-2.4c0.9-1.9,1.7-3.8,2.5-5.8
							c0.7-1.4,0.8-2.7,0.5-3.8l-0.1-0.2l-0.1-0.1c-0.4-0.5-0.9-0.7-1.3-0.7c-0.9,0-1.5,0.8-1.7,1.1l0,0l0,0
							c-0.1,0.2-0.2,0.3-0.3,0.4l-0.2,0.1l-0.1,0.2c-0.2,0.4-0.4,0.9-0.6,1.4c-0.2,0.4-0.4,0.9-0.6,1.3l0,0l0,0
							c-0.2,0.5-0.4,0.9-0.5,1.4c-0.3,0.8-0.6,1.6-1.1,2.2l0,0.1l0,0.1c-0.5,1-1,2.1-1.4,3.1l0,0.1l0,0.1c-0.2,0.8-0.4,1.5-0.7,2.2
							l-0.5-0.2l-1.1-0.6l0,0l0,0c-0.7-0.3-1.4-0.5-2.1-0.8l-0.6-0.3l-1.2-0.5l-0.1,0l-0.1,0c-0.6-0.1-1.3-0.3-1.9-0.5l-0.1,0
							l-0.1,0c-0.3,0-0.5-0.2-0.8-0.3c0-0.3,0.1-0.6,0.3-1l0,0l0,0c0.2-0.4,0.4-0.8,0.6-1.3l0,0l0,0l0.5-1.3
							c0.4-0.9,0.9-1.8,1.5-2.6c0.3-0.5,0.5-1,0.5-1.6l0.1-0.2c0.7-1.5,1.4-3.1,2.1-4.8c0.1-0.3,0.3-0.5,0.4-0.8l0-0.1l0-0.1
							c0.2-0.4,0.4-0.8,0.6-1.3c0.3-0.8,0.4-1.6,0.2-2.4l-0.1-0.2l-0.1-0.2C-434.8,540-435.4,539.9-435.8,539.9L-435.8,539.9z"/>
					</g>
					<g id="XMLID_3_">
						<path fill="#2ECC71" d="M-409.7,551.7c-0.3,0-0.7-0.1-1-0.5c-0.5-0.4-1-0.8-1.6-1.2c-2.3-1.4-4.6-3-6.8-4.7
							c-1-0.9-2.1-1.6-3.2-2.3l-3.5-2.5c-1.2-0.6-2.3-1.4-3.5-2.2c-0.5-0.4-1.1-0.9-1.6-1.4c-0.4-0.5-0.9-0.9-1.5-1.2
							c-0.5-0.1-1.3-0.4-1.4-1.7l0-0.1l0-0.1c0.2-0.8,0.6-1.7,1.2-2.5c0.4-0.9,1-1.8,1.6-2.6c0.7-0.7,1.3-1.5,1.9-2.3
							c1.5-1.5,2.8-3.2,4-5c1.2-1.8,2.4-3.6,3.7-5.4c0.9-1.3,1.7-1.9,2.4-1.9c0.4,0,0.8,0.2,1.2,0.6l0.2,0.2l0,0.2
							c-0.3,1.8-1.1,3.3-2.5,4.6c-0.6,0.8-1.3,1.6-1.8,2.5l-1.8,2.8c-0.4,0.4-0.7,0.8-1.1,1.1l-0.7,0.9c-0.6,0.6-0.8,1.1-0.8,1.7
							c0.3,0.3,0.6,0.6,1,0.8l0,0l0,0c0.6,0.5,1.1,0.9,1.6,1.4c0.4,0.3,1,0.6,1.5,0.9c0.7,0.5,1.2,1,1.7,1.5
							c0.3,0.4,0.7,0.7,1.1,0.7c0.5-0.2,0.9-0.6,1.2-1.3l0-0.1l0,0c1.4-1.5,2.7-3.1,3.9-4.8c0.5-0.9,1.1-1.8,1.7-2.6
							c0.3-0.4,0.6-0.7,0.9-1.1l0.9-1.2l0.1,0c0.6-0.5,1.1-0.7,1.6-0.7c0.3,0,0.6,0.1,0.8,0.3c0.3,0.4,0.4,1,0.3,1.9l0,0.1l0,0.1
							c-0.4,0.9-0.9,1.7-1.6,2.3c-0.3,0.3-0.5,0.6-0.7,0.9c-0.2,0.4-0.4,0.9-0.7,1.4c-1.3,1.7-2.5,3.4-3.7,5
							c-0.2,0.4-0.5,0.9-0.8,1.4c-0.2,0.2-0.3,0.5-0.4,0.7c0,0.3,0.2,0.4,0.3,0.4l0.1,0l0.1,0.1c1.1,0.8,2.2,1.5,3.2,2.2
							c1.1,0.8,2.2,1.6,3.2,2.4c0.5,0.4,1,0.7,1.6,1.1c0.1,0.1,0.1,0.1,0.2,0.1c0,0,0.2,0,0.5-0.3c0.5-0.7,1.1-1.4,1.6-2.2
							c0.7-0.9,1.3-1.8,1.8-2.7c0.1-0.4,0.4-0.8,0.7-1.2l0,0l0,0c0.3-0.2,0.5-0.5,0.7-0.8l0.8-1.2c0.3-0.4,0.6-0.7,0.9-1.1
							c0.5-0.8,1.1-1.4,1.8-1.7l0,0l0.1,0c0.1,0,0.2,0,0.3,0c0.3,0,1.2,0.1,1.2,1.3c-0.2,0.9-0.5,1.7-1.1,2.4
							c-0.3,0.4-0.5,0.8-0.7,1.1l0,0l0,0c-0.3,0.3-0.5,0.7-0.6,1l-0.1,0.2l-0.2,0.1c0,0-0.1,0-0.2,0.3c-0.1,0.3-0.3,0.6-0.5,0.9
							c-0.2,0.2-0.3,0.4-0.5,0.5l-0.4,0.7c-0.2,0.4-0.4,0.7-0.7,0.8c-0.2,0.1-0.3,0.2-0.4,0.3c-0.1,0.4-0.3,0.7-0.5,0.9
							c-0.4,0.5-0.7,0.9-1,1.4c-0.3,0.5-0.6,1.1-1,1.6c-0.1,0.4-0.2,0.7-0.3,1l0,0.1l0,0.1c-0.3,0.4-0.5,0.9-0.6,1.3l-0.1,0.5
							l-0.4-0.1c0,0,0,0,0,0.1c-0.3,0.4-0.5,0.8-0.8,1.1c-0.3,0.4-0.5,0.8-0.8,1.1c-0.2,0.5-0.5,0.9-0.8,1.2
							C-409,551.5-409.4,551.7-409.7,551.7z"/>
						<path fill="#29B765" d="M-418.9,514.5c0.3,0,0.6,0.1,0.8,0.4c-0.2,1.6-1,3.1-2.4,4.3c-0.7,0.9-1.3,1.7-1.9,2.6
							c-0.6,1-1.2,1.9-1.8,2.9c-0.3,0.4-0.6,0.7-1,1c-0.3,0.3-0.5,0.7-0.8,1c-0.7,0.7-1,1.4-0.9,2.1c0.4,0.5,0.8,0.8,1.3,1.1
							c0.5,0.4,1,0.9,1.5,1.4c0.5,0.4,1.1,0.7,1.7,1c0.6,0.4,1.1,0.9,1.6,1.4c0.4,0.5,0.9,0.8,1.6,0.9c0.6-0.2,1.2-0.7,1.6-1.6
							c1.4-1.5,2.7-3.1,3.9-4.8c0.5-0.9,1.1-1.8,1.7-2.6c0.3-0.4,0.6-0.7,0.9-1c0.3-0.4,0.6-0.8,0.9-1.2c0.5-0.4,1-0.6,1.3-0.6
							c0.5,0,0.7,0.6,0.5,1.7c-0.3,0.9-0.8,1.6-1.5,2.1c-0.4,0.3-0.6,0.7-0.8,1c-0.2,0.5-0.4,1-0.7,1.5c-1.2,1.6-2.4,3.3-3.6,4.9
							c-0.3,0.5-0.5,0.9-0.8,1.4c-0.2,0.3-0.4,0.6-0.5,0.9c0,0.6,0.2,0.9,0.7,1c1.1,0.8,2.2,1.5,3.2,2.2c1.1,0.8,2.1,1.6,3.2,2.3
							c0.5,0.4,1.1,0.7,1.6,1.1c0.1,0.1,0.3,0.2,0.4,0.2c0.3,0,0.5-0.1,0.9-0.4c0.6-0.7,1.2-1.5,1.7-2.3c0.6-0.9,1.3-1.8,1.8-2.7
							c0.2-0.4,0.4-0.8,0.7-1.2c0.3-0.3,0.6-0.6,0.8-1c0.3-0.4,0.5-0.8,0.8-1.2c0.3-0.3,0.6-0.7,0.9-1.1c0.5-0.8,1-1.3,1.6-1.5
							c0.1,0,0.2,0,0.2,0c0.4,0,0.7,0.3,0.7,0.8c-0.1,0.7-0.5,1.4-1,2c-0.3,0.4-0.6,0.8-0.8,1.2c-0.3,0.4-0.5,0.8-0.6,1.2
							c-0.2,0.1-0.3,0.2-0.5,0.6c-0.1,0.3-0.3,0.5-0.4,0.7c-0.2,0.2-0.3,0.3-0.5,0.5c-0.2,0.3-0.3,0.5-0.5,0.8
							c-0.1,0.3-0.3,0.5-0.5,0.6c-0.2,0.1-0.4,0.3-0.6,0.5c-0.1,0.3-0.2,0.6-0.4,0.8c-0.4,0.5-0.8,1-1.1,1.5c-0.3,0.6-0.6,1.1-1,1.7
							c-0.1,0.4-0.2,0.7-0.3,1c-0.4,0.5-0.6,1-0.7,1.5c0,0-0.1,0-0.1,0c-0.2,0-0.3,0.1-0.4,0.4c-0.2,0.3-0.5,0.7-0.7,1
							c-0.3,0.4-0.6,0.8-0.9,1.2c-0.2,0.5-0.4,0.8-0.7,1.1c-0.3,0.2-0.5,0.3-0.8,0.3c-0.3,0-0.5-0.1-0.6-0.4
							c-0.5-0.4-1.1-0.9-1.7-1.3c-2.3-1.4-4.6-3-6.8-4.7c-1-0.9-2.1-1.7-3.3-2.3c-1.1-0.8-2.3-1.6-3.4-2.5c-1.2-0.7-2.4-1.4-3.5-2.2
							c-0.5-0.4-1-0.9-1.5-1.4c-0.5-0.5-1-1-1.7-1.3c-0.7-0.1-1-0.5-1.1-1.2c0.2-0.8,0.6-1.6,1.1-2.3c0.4-0.9,1-1.8,1.6-2.6
							c0.7-0.7,1.3-1.5,2-2.3c1.4-1.5,2.8-3.2,4-5c1.2-1.8,2.4-3.6,3.7-5.4C-420.2,515.1-419.5,514.5-418.9,514.5 M-418.9,513.5
							c-1.3,0-2.3,1.2-2.9,2.2c-1.3,1.8-2.5,3.6-3.7,5.4c-1.2,1.8-2.5,3.4-3.9,4.8l0,0l0,0c-0.6,0.8-1.2,1.6-1.9,2.3l0,0l0,0
							c-0.7,0.8-1.2,1.8-1.7,2.7c-0.6,0.9-1,1.7-1.2,2.6l0,0.2l0,0.2c0.1,1.1,0.7,1.9,1.7,2.1c0.5,0.3,0.9,0.6,1.2,1l0,0l0,0
							c0.5,0.5,1,1,1.6,1.5l0,0l0,0c1.2,0.8,2.4,1.6,3.6,2.2l1.6,1.1l1.8,1.3l0,0l0.1,0c1.1,0.6,2.2,1.3,3.1,2.2l0,0l0,0
							c2.2,1.7,4.5,3.3,6.9,4.7c0.5,0.4,1,0.8,1.5,1.2c0.3,0.4,0.8,0.7,1.4,0.7c0.4,0,0.9-0.1,1.3-0.4l0.1,0l0.1-0.1
							c0.4-0.3,0.7-0.8,0.9-1.3c0.3-0.3,0.5-0.7,0.8-1.1c0.2-0.3,0.5-0.6,0.7-0.9l0.6,0.1l0.1-1.1c0-0.3,0.2-0.7,0.5-1l0.1-0.1
							l0.1-0.1c0.1-0.3,0.2-0.6,0.3-1c0.3-0.5,0.7-1.1,0.9-1.6c0.3-0.5,0.6-0.9,1-1.3c0.2-0.3,0.4-0.6,0.6-1
							c0.1-0.1,0.1-0.1,0.2-0.1c0.4-0.2,0.7-0.6,0.9-1l0.4-0.6c0.1-0.1,0.2-0.3,0.4-0.4l0,0l0,0c0.2-0.3,0.4-0.6,0.6-0.9l0,0l0,0
							c0,0,0,0,0,0l0.3-0.1l0.2-0.5c0.1-0.3,0.2-0.6,0.5-0.8l0.1-0.1l0-0.1c0.2-0.3,0.4-0.7,0.7-1.1c0.6-0.7,1-1.6,1.2-2.5l0-0.1
							l0-0.1c0-1.4-0.9-1.8-1.7-1.8c-0.1,0-0.3,0-0.4,0l-0.1,0l-0.1,0c-0.8,0.3-1.5,1-2.1,1.9c-0.3,0.3-0.5,0.7-0.8,1l-0.1,0.1
							l0,0.1l-0.4,0.6l-0.4,0.6l0,0l0,0c-0.2,0.3-0.4,0.5-0.6,0.7l-0.1,0.1l-0.1,0.1c-0.3,0.4-0.6,0.9-0.8,1.3
							c-0.5,0.9-1.1,1.8-1.7,2.6l0,0l0,0c-0.5,0.8-1,1.5-1.5,2.2c0,0-0.1,0.1-0.1,0.1c-0.5-0.3-1-0.7-1.5-1
							c-1.1-0.7-2.2-1.5-3.2-2.3l0,0l0,0c-1.1-0.7-2.1-1.4-3.2-2.2l-0.2-0.1c0.1-0.1,0.1-0.2,0.2-0.3l0,0l0,0
							c0.3-0.5,0.6-0.9,0.8-1.4c1.2-1.6,2.4-3.2,3.6-4.9l0.1-0.1l0-0.1c0.2-0.5,0.5-1,0.7-1.5c0.2-0.3,0.4-0.5,0.6-0.8
							c0.7-0.6,1.3-1.5,1.7-2.5l0-0.1l0-0.1c0.1-0.7,0.2-1.7-0.4-2.3c-0.3-0.3-0.7-0.5-1.2-0.5c-0.5,0-1.1,0.2-1.8,0.8l-0.1,0.1
							l-0.1,0.1l-0.6,0.8l-0.3,0.3c-0.3,0.3-0.6,0.7-0.9,1.1c-0.7,0.8-1.3,1.7-1.8,2.7c-1.2,1.6-2.5,3.2-3.8,4.7l-0.1,0.1l-0.1,0.1
							c-0.3,0.5-0.5,0.8-0.8,1c-0.3-0.1-0.4-0.2-0.6-0.5l0-0.1l0-0.1c-0.5-0.6-1.1-1.1-1.7-1.5l-0.1-0.1l-0.1,0
							c-0.5-0.2-1-0.5-1.4-0.8c-0.5-0.5-1-1-1.5-1.4l-0.1-0.1l-0.1,0c-0.3-0.1-0.5-0.3-0.7-0.5c0.1-0.3,0.3-0.7,0.7-1.1l0,0l0,0
							l0.2-0.3l0.5-0.6c0.3-0.3,0.7-0.7,1-1.1l0,0l0-0.1l0.7-1l1.2-1.8c0.5-0.8,1.1-1.6,1.8-2.4c1.5-1.4,2.3-3,2.6-4.9l0.1-0.5
							l-0.3-0.4C-417.9,513.6-418.5,513.5-418.9,513.5L-418.9,513.5z"/>
					</g>
				</g>
			</g>
		</g>
		<g id="XMLID_182_">
			<g id="XMLID_396_">
				<g>
					<path fill="#0E333D" d="M-527,661l-94.4-62.4c-4.8-3.2-7.6-8.7-7.3-14.5l6.1-107.8c0.4-6.4,7.3-10.2,12.9-7l95.4,54.1
						c4.8,2.7,7.6,7.9,7.3,13.3l-6.6,117.6C-513.9,660.9-521.4,664.7-527,661z"/>
				</g>
				<g>
					<path fill="#3E3A39" d="M-527,659.6l-94.4-62.4c-4.8-3.2-7.6-8.7-7.3-14.5l6.1-107.8c0.4-6.4,7.3-10.2,12.9-7l95.4,54.1
						c4.8,2.7,7.6,7.9,7.3,13.3l-6.6,117.6C-513.9,659.5-521.4,663.2-527,659.6z"/>
				</g>
			</g>
			<g id="XMLID_183_">
				<g>
					<path fill="#A44B48" d="M-600.2,523.1c-1-0.1-1.9-0.4-2.9-0.8c-1-0.5-1.8-1.1-2.7-1.7c-1.7-1.3-3.1-3.1-4.3-5.2
						c-0.7-1.1-1.3-2.3-1.9-3.6c-0.2-0.8-0.6-1.4-1.1-1.7l-0.1-0.1l0-0.1c-0.3-0.9-0.6-1.7-0.8-2.5c-0.3-0.7-0.4-1.4-0.2-2l0-0.1
						l0-0.1c0.4-0.6,0.9-0.9,1.5-1.1l1.5-0.9c2.2-1.4,4.4-2.7,6.7-3.9c2.3-1,4.6-2.2,6.8-3.4c1.1-0.7,2.2-1.4,3.4-1.9
						c0.5-0.2,0.9-0.5,1.3-0.8c0.4-0.6,0.9-1,1.6-1l0.1,0l0.1,0.1c0.6,0.3,1.1,0.8,1.5,1.5c0.5,0.7,1,1.5,1.5,2.4
						c0.8,1.9,1.6,3.8,2.2,5.8c0.3,0.8,0.5,1.5,0.8,2.3c0.1,0.4,0.2,0.8,0.2,1.2c0.1,0.4,0.2,0.8,0.3,1.3c0.3,1.9,0.3,3.6-0.1,5.1
						c-0.8,2.8-2.1,5-4,6.5c-1,0.8-2.1,1.5-3.1,2.1c-1.1,0.7-2.3,1.3-3.5,1.7c-1.4,0.6-2.9,1-4.6,1
						C-599.9,523.1-600,523.1-600.2,523.1z M-609.5,510.7c-0.1,0.3,0,0.6,0.3,1c0.4,0.7,0.8,1.3,1.3,1.9c0.5,0.4,1.1,0.9,1.7,1.2
						c0.2,0.1,0.5,0.2,0.8,0.3l0.9,0.6c0.2,0.1,0.4,0.1,0.6,0.2l0.1,0l0.1,0c0.3,0.1,0.6,0.2,1,0.3c0.2,0,0.5,0.1,0.7,0.1l0,0
						c0.2,0,0.5,0,0.7-0.1c0.6-0.1,1.2-0.2,1.8-0.4c1.2-0.3,2.3-0.8,3.4-1.4l1.5-0.7l1.6-1.1c0.4-0.3,0.9-0.7,1.3-1.1
						c0.4-0.5,0.9-1.1,1.3-1.6c0.8-0.8,1.3-1.9,1.6-3.2c0.1-0.7,0.2-1.4,0.1-2.2c-0.1-0.4-0.1-0.8,0-1.1l0-0.1l0.1-0.1
						c0,0,0,0,0-0.1c-0.2-1.1-0.5-2.1-0.9-3c-0.2-0.2-0.3-0.3-0.4-0.3c0,0,0,0-0.1,0c-0.6,0.3-1.1,0.6-1.6,0.9
						c-2.3,1.3-4.6,2.5-6.9,3.6c-2.4,1-4.7,2.2-6.8,3.5c-1,0.7-2.1,1.4-3.2,2.1l0,0l0,0C-608.9,510.2-609.2,510.4-609.5,510.7z"/>
					<path fill="#A44B48" d="M-591.2,492.5c0.5,0.2,0.9,0.7,1.3,1.3c0.5,0.7,1,1.5,1.5,2.4c0.8,1.9,1.6,3.8,2.2,5.7
						c0.3,0.8,0.5,1.5,0.8,2.3c0.1,0.4,0.2,0.7,0.2,1.1c0.1,0.4,0.2,0.9,0.3,1.3c0.3,1.8,0.3,3.4-0.1,4.9c-0.7,2.7-2,4.8-3.8,6.3
						c-1,0.7-2,1.4-3.1,2.1c-1.1,0.7-2.2,1.2-3.4,1.7c-1.4,0.6-2.8,0.9-4.4,0.9c-0.1,0-0.3,0-0.4,0c-0.9-0.1-1.8-0.4-2.7-0.8
						c-0.9-0.5-1.8-1-2.6-1.6c-1.6-1.3-3-3-4.1-5.1c-0.7-1.1-1.3-2.3-1.8-3.5c-0.3-0.8-0.7-1.5-1.2-1.9c-0.3-0.9-0.6-1.7-0.8-2.5
						c-0.3-0.7-0.3-1.2-0.2-1.7c0.3-0.5,0.7-0.8,1.3-0.9c0.5-0.3,1.1-0.6,1.6-0.9c2.2-1.4,4.4-2.7,6.7-3.9c2.3-1,4.6-2.1,6.8-3.4
						c1.1-0.7,2.2-1.4,3.4-1.9c0.5-0.2,1-0.6,1.4-1C-592.2,492.8-591.7,492.6-591.2,492.5 M-602.1,516.8c0.3,0,0.5,0,0.8-0.1
						c0.6-0.1,1.3-0.3,1.9-0.4c1.2-0.3,2.4-0.8,3.5-1.4c0.5-0.2,1-0.5,1.5-0.7c0.5-0.4,1.1-0.7,1.7-1.1c0.5-0.4,1-0.7,1.4-1.1
						c0.4-0.5,0.9-1.1,1.3-1.6c0.9-0.8,1.4-2,1.7-3.5c0.1-0.7,0.2-1.5,0.1-2.3c-0.1-0.4,0-0.7,0-1c0.1-0.1,0.1-0.3,0.1-0.5
						c-0.2-1.1-0.5-2.2-1-3.2c-0.3-0.3-0.5-0.5-0.8-0.5c-0.1,0-0.2,0-0.3,0.1c-0.6,0.3-1.1,0.6-1.6,0.9c-2.3,1.3-4.5,2.5-6.8,3.6
						c-2.4,1-4.7,2.2-6.9,3.6c-1,0.7-2.1,1.4-3.2,2.1c-0.5,0.2-1,0.5-1.3,0.9c-0.2,0.4-0.1,1,0.4,1.5c0.4,0.7,0.8,1.3,1.3,1.9
						c0.6,0.5,1.2,1,1.9,1.3c0.3,0.1,0.5,0.2,0.8,0.4c0.2,0.2,0.5,0.3,0.8,0.5c0.3,0.1,0.5,0.2,0.8,0.2c0.3,0.1,0.6,0.2,1,0.3
						C-602.7,516.8-602.4,516.8-602.1,516.8 M-591,491.5l-0.3,0c-0.9,0-1.6,0.5-2,1.2c-0.3,0.3-0.7,0.5-1,0.7
						c-1.2,0.6-2.4,1.2-3.5,2c-2.2,1.2-4.4,2.4-6.7,3.4l0,0l0,0c-2.3,1.2-4.6,2.6-6.8,4l-1.4,0.8c-0.7,0.2-1.3,0.6-1.7,1.3l-0.1,0.2
						l0,0.2c-0.1,0.7-0.1,1.4,0.3,2.2c0.2,0.8,0.5,1.7,0.8,2.5l0.1,0.3l0.2,0.2c0.4,0.3,0.7,0.8,0.9,1.4l0,0.1l0,0.1
						c0.5,1.3,1.2,2.5,1.9,3.6c1.2,2.2,2.6,4,4.4,5.3c0.9,0.7,1.8,1.2,2.7,1.7c1,0.5,2.1,0.8,3.1,0.9l0,0l0,0c0.2,0,0.3,0,0.4,0
						c1.7,0,3.3-0.3,4.8-1c1.2-0.5,2.4-1.1,3.6-1.8c1.1-0.6,2.1-1.4,3.1-2.1c2-1.6,3.4-3.9,4.2-6.8c0.4-1.7,0.4-3.4,0.1-5.3l0,0l0,0
						c-0.1-0.4-0.2-0.8-0.3-1.2c0-0.4-0.1-0.8-0.2-1.3c-0.2-0.8-0.5-1.6-0.8-2.3c-0.7-1.9-1.4-3.9-2.2-5.8c-0.5-1-1-1.8-1.5-2.6
						c-0.5-0.8-1-1.4-1.7-1.7L-591,491.5L-591,491.5z M-604.8,508.3c2.1-1.3,4.4-2.5,6.7-3.5l0,0l0,0c2.3-1.1,4.6-2.3,6.9-3.6l0,0
						l0,0c0.4-0.3,0.8-0.5,1.3-0.8c0.4,0.8,0.7,1.8,0.8,2.7l-0.1,0.2c-0.1,0.4-0.1,0.9-0.1,1.3c0,0.7,0,1.4-0.1,2
						c-0.2,1.2-0.7,2.2-1.5,2.9c-0.5,0.5-0.9,1-1.4,1.6c-0.4,0.3-0.8,0.7-1.3,1c-0.5,0.3-1,0.7-1.6,1l0,0l-1,0.5l-0.5,0.2
						c-1.1,0.6-2.2,1-3.3,1.4c-0.6,0.2-1.2,0.3-1.8,0.4c-0.2,0-0.4,0.1-0.6,0.1c-0.2,0-0.4,0-0.6-0.1c-0.3-0.1-0.6-0.2-0.9-0.3
						l-0.1-0.1l-0.1,0c-0.1,0-0.2,0-0.4-0.1c-0.3-0.2-0.5-0.3-0.7-0.5l-0.1-0.1l-0.1,0c-0.3-0.1-0.5-0.2-0.8-0.3
						c-0.5-0.3-1.1-0.7-1.6-1.1c-0.4-0.5-0.8-1.1-1.2-1.7l0-0.1l0-0.1c-0.1-0.2-0.2-0.4-0.2-0.5c0.2-0.2,0.4-0.3,0.7-0.4l0.1,0
						l0.1-0.1C-607,509.8-605.9,509.1-604.8,508.3L-604.8,508.3z"/>
					<path fill="#A44B48" d="M-592.7,550.1c-0.3,0-0.5-0.1-0.8-0.3l0,0l0,0c-0.5-0.6-0.9-1.3-1.1-2.1c-0.1-0.4-0.3-0.8-0.4-1.2l0,0
						l0-0.1c-0.1-0.4-0.2-0.7-0.4-1l-0.1-0.2l0.1-0.2c0,0,0-0.1-0.1-0.3c-0.2-0.3-0.3-0.6-0.4-0.9c0-0.3-0.1-0.5-0.1-0.7l-0.2-0.7
						c-0.2-0.3-0.3-0.7-0.3-1c0-0.2,0-0.3,0-0.5c-0.2-0.3-0.3-0.6-0.4-0.9c-0.1-0.6-0.3-1.1-0.5-1.6c-0.2-0.5-0.5-1.1-0.7-1.6
						c-0.2-0.3-0.4-0.5-0.6-0.8l0-0.1l0-0.1c-0.1-0.5-0.3-0.9-0.6-1.1l-0.4-0.4l0.3-0.3c0,0,0,0,0-0.1c-0.2-0.4-0.3-0.8-0.4-1.2
						c-0.1-0.4-0.3-0.8-0.4-1.2c-0.2-0.4-0.4-0.9-0.4-1.3c0.1-1.4,0.8-1.6,1.2-1.6c0.6-0.2,1.2-0.4,1.8-0.6c2.3-1.1,4.7-2.1,7.1-3
						c1.2-0.3,2.3-0.8,3.4-1.4l3.7-1.5c1.1-0.6,2.3-1.1,3.5-1.6c0.6-0.2,1.2-0.4,1.9-0.5c0.6-0.1,1.1-0.3,1.6-0.5
						c0.4-0.4,0.8-0.5,1.1-0.5c0.3,0,0.6,0.1,0.9,0.3l0.1,0l0.1,0.1c0.5,0.6,0.9,1.4,1.2,2.3c0.4,0.8,0.8,1.7,1.1,2.6
						c0.2,0.9,0.4,1.9,0.7,2.8c0.4,2,0.9,3.9,1.6,5.8c0.7,1.9,1.4,3.8,2.1,5.8c0.5,1.3,0.6,2.3,0.2,2.9c-0.2,0.3-0.5,0.6-1.1,0.7
						l-0.3,0l-0.2-0.2c-1.2-1.2-1.9-2.7-2.1-4.5c-0.2-0.9-0.5-1.9-0.9-2.8l-1.1-3c-0.1-0.5-0.2-1-0.3-1.4l-0.3-1
						c-0.1-0.7-0.4-1.2-0.7-1.5c-0.4,0.1-0.8,0.2-1.1,0.4l0,0l0,0c-0.6,0.2-1.3,0.4-1.9,0.5c-0.4,0.2-1,0.4-1.4,0.7
						c-0.7,0.3-1.4,0.5-2.1,0.6c-0.5,0-0.9,0.2-1.1,0.5c-0.1,0.5,0,1,0.3,1.7l0,0.1l0,0.1c0.4,1.9,0.9,3.8,1.4,5.6
						c0.4,0.8,0.7,1.8,1,2.8c0.1,0.4,0.2,0.9,0.3,1.3l0.4,1.4l0,0.1c0,1.4-0.4,2.1-1.2,2.1c-0.4,0-0.9-0.3-1.5-0.8l0,0l0,0
						c-0.5-0.8-0.8-1.7-0.9-2.5c-0.1-0.4-0.2-0.8-0.3-1.1c-0.2-0.4-0.5-0.8-0.7-1.3c-0.6-1.9-1.2-3.8-1.7-5.6
						c-0.2-0.4-0.4-0.9-0.6-1.4c-0.1-0.3-0.2-0.5-0.3-0.7c-0.1-0.1-0.2-0.1-0.2-0.1c0,0-0.1,0-0.2,0.1l-0.1,0.1l-0.1,0
						c-1.2,0.4-2.3,0.9-3.3,1.4c-1.2,0.4-2.4,0.9-3.5,1.4c-0.6,0.2-1.1,0.5-1.7,0.7c-0.2,0.1-0.2,0.5-0.2,0.7
						c0.2,0.8,0.4,1.6,0.8,2.4c0.3,1,0.6,2,1,2.9c0.2,0.3,0.4,0.7,0.5,1.2l0,0.1l0,0.1c0,0.3,0.1,0.7,0.2,1l0.5,1.3
						c0.1,0.5,0.2,0.9,0.3,1.3c0.3,0.8,0.4,1.7,0.2,2.4C-591.9,550-592.3,550.1-592.7,550.1z"/>
					<path fill="#A44B48" d="M-575.4,519.5c0.2,0,0.4,0.1,0.7,0.2c0.5,0.6,0.8,1.3,1.1,2.1c0.4,0.8,0.8,1.7,1.1,2.6
						c0.2,0.9,0.4,1.8,0.7,2.8c0.3,1.9,0.9,3.9,1.6,5.8c0.7,1.9,1.4,3.8,2,5.8c0.7,1.8,0.5,2.8-0.5,3c-1.1-1.1-1.8-2.5-2-4.2
						c-0.3-1-0.6-2-0.9-2.9c-0.4-1-0.8-2-1.1-3c-0.1-0.5-0.2-0.9-0.3-1.3c-0.1-0.4-0.2-0.7-0.3-1.1c-0.2-0.9-0.5-1.5-1.1-1.9
						c-0.5,0-1,0.2-1.5,0.5c-0.6,0.2-1.2,0.4-1.8,0.5c-0.6,0.2-1.1,0.5-1.6,0.8c-0.6,0.2-1.2,0.4-1.9,0.5c-0.6,0-1.1,0.3-1.5,0.8
						c-0.2,0.6-0.1,1.3,0.3,2.1c0.4,1.9,0.9,3.8,1.5,5.7c0.4,0.9,0.7,1.8,1,2.8c0.1,0.4,0.2,0.8,0.3,1.3c0.1,0.4,0.3,0.9,0.4,1.3
						c0,1-0.2,1.6-0.7,1.6c-0.3,0-0.7-0.2-1.1-0.7c-0.5-0.7-0.7-1.5-0.8-2.3c-0.1-0.5-0.2-0.9-0.3-1.2c-0.3-0.4-0.5-0.9-0.7-1.3
						c-0.6-1.8-1.1-3.7-1.7-5.5c-0.2-0.5-0.4-0.9-0.6-1.4c-0.1-0.3-0.2-0.6-0.4-0.9c-0.2-0.1-0.4-0.2-0.6-0.2
						c-0.2,0-0.4,0.1-0.5,0.3c-1.2,0.5-2.3,0.9-3.4,1.4c-1.2,0.4-2.3,0.9-3.5,1.3c-0.6,0.2-1.1,0.5-1.7,0.7
						c-0.4,0.1-0.6,0.5-0.5,1.2c0.2,0.9,0.5,1.7,0.8,2.6c0.3,1,0.6,2,1,2.9c0.2,0.3,0.3,0.7,0.5,1.2c0,0.4,0.1,0.8,0.3,1.2
						c0.2,0.4,0.3,0.9,0.5,1.3c0.1,0.4,0.2,0.9,0.3,1.3c0.3,0.8,0.4,1.5,0.2,2.1c-0.2,0.3-0.3,0.5-0.6,0.5c-0.2,0-0.3-0.1-0.5-0.2
						c-0.5-0.5-0.8-1.2-1-1.9c-0.1-0.5-0.3-0.9-0.5-1.3c-0.1-0.5-0.3-0.8-0.5-1.2c0.1-0.2,0-0.4-0.2-0.7c-0.1-0.2-0.2-0.5-0.3-0.7
						c0-0.2-0.1-0.4-0.1-0.6c-0.1-0.3-0.2-0.6-0.3-0.8c-0.2-0.3-0.2-0.5-0.2-0.7c0-0.3,0-0.5-0.1-0.8c-0.2-0.3-0.3-0.5-0.4-0.8
						c-0.1-0.6-0.3-1.1-0.5-1.6c-0.3-0.6-0.5-1.1-0.7-1.7c-0.2-0.3-0.4-0.6-0.6-0.8c-0.2-0.6-0.4-1-0.7-1.4c0.1-0.1,0.1-0.3,0-0.6
						c-0.1-0.4-0.2-0.7-0.3-1.1c-0.2-0.5-0.3-0.9-0.4-1.3c-0.2-0.4-0.4-0.8-0.4-1.2c0-0.7,0.3-1.1,0.8-1.1c0,0,0,0,0,0
						c0.6-0.2,1.2-0.4,1.9-0.7c2.3-1.1,4.7-2.1,7.1-3c1.2-0.3,2.3-0.8,3.5-1.4c1.2-0.5,2.4-1,3.7-1.4c1.1-0.6,2.3-1.1,3.5-1.6
						c0.6-0.2,1.2-0.3,1.8-0.5c0.6-0.1,1.3-0.3,1.9-0.6C-575.9,519.7-575.7,519.5-575.4,519.5 M-575.4,518.5c-0.4,0-0.9,0.1-1.4,0.6
						c-0.5,0.2-0.9,0.4-1.4,0.4l0,0l0,0c-0.7,0.1-1.3,0.3-1.9,0.5l0,0l0,0c-1.2,0.5-2.4,1-3.5,1.6l-2.6,1l-1,0.4l-0.1,0l-0.1,0
						c-1,0.6-2.1,1-3.3,1.3l0,0l0,0c-2.4,0.9-4.8,1.9-7.2,3c-0.6,0.2-1.1,0.4-1.7,0.6c-0.8,0.1-1.5,0.6-1.6,2l0,0.1l0,0.1
						c0,0.5,0.2,1,0.5,1.4c0.1,0.4,0.2,0.8,0.4,1.2c0.1,0.3,0.2,0.7,0.3,1l-0.4,0.4l0.7,0.7c0.2,0.2,0.4,0.5,0.5,0.9l0,0.1l0.1,0.1
						c0.2,0.2,0.3,0.5,0.5,0.8c0.2,0.5,0.4,1.1,0.7,1.6c0.2,0.5,0.3,1,0.4,1.5c0.1,0.4,0.2,0.7,0.4,1c0,0.1,0,0.1,0,0.2
						c0,0.4,0.1,0.8,0.3,1.3l0.2,0.7c0,0.2,0.1,0.3,0.1,0.5l0,0.1l0,0.1c0.1,0.3,0.2,0.7,0.4,1l0,0l0,0c0,0,0,0,0,0l-0.1,0.3
						l0.3,0.4c0.2,0.2,0.3,0.5,0.3,0.8l0,0.1l0,0.1c0.2,0.3,0.3,0.7,0.4,1.1c0.2,0.9,0.6,1.7,1.2,2.3l0.1,0.1l0.1,0.1
						c0.4,0.3,0.7,0.4,1.1,0.4c0.3,0,1.1-0.1,1.5-1.1l0-0.1l0-0.1c0.2-0.8,0.1-1.7-0.3-2.7c-0.1-0.4-0.2-0.8-0.3-1.2l0-0.1l0-0.1
						l-0.3-0.8l-0.2-0.5l0,0l0,0c-0.1-0.3-0.2-0.6-0.2-0.9l0-0.1l0-0.1c-0.1-0.5-0.3-0.9-0.5-1.3c-0.4-0.9-0.7-1.8-1-2.8l0,0l0,0
						c-0.3-0.8-0.5-1.6-0.7-2.4c0-0.1,0-0.1,0-0.1c0.5-0.2,1-0.5,1.6-0.7c1.1-0.5,2.3-0.9,3.4-1.3l0,0l0,0c1.1-0.5,2.2-1,3.3-1.4
						l0.1,0c0,0.1,0,0.1,0.1,0.2l0,0l0,0c0.2,0.5,0.4,1,0.6,1.4c0.6,1.8,1.1,3.6,1.7,5.5l0,0.1l0,0.1c0.2,0.4,0.5,0.9,0.7,1.3
						c0.1,0.3,0.2,0.6,0.2,0.9c0.1,0.9,0.4,1.9,0.9,2.7l0.1,0.1l0.1,0.1c0.7,0.7,1.3,1,1.8,1c0.7,0,1.6-0.4,1.7-2.6l0-0.2l0-0.1
						l-0.3-0.9l-0.1-0.4c-0.1-0.4-0.2-0.9-0.3-1.3c-0.3-1-0.6-1.9-1-2.9c-0.6-1.8-1-3.7-1.4-5.5l0-0.1l-0.1-0.1
						c-0.2-0.5-0.3-0.9-0.3-1.2c0.2-0.2,0.4-0.2,0.6-0.2l0.1,0l0.1,0c0.7-0.1,1.4-0.3,2-0.6l0.1,0l0.1-0.1c0.4-0.3,0.9-0.5,1.3-0.7
						c0.6-0.1,1.2-0.3,1.9-0.5l0.1,0l0.1-0.1c0.2-0.1,0.4-0.2,0.7-0.3c0.2,0.3,0.3,0.7,0.4,1l0,0l0,0l0.1,0.3l0.2,0.7
						c0.1,0.4,0.1,0.9,0.3,1.4l0,0.1l0,0.1l0.4,1.1l0.7,1.9c0.3,0.8,0.6,1.8,0.8,2.7c0.3,1.9,1,3.5,2.3,4.8l0.4,0.4l0.5-0.1
						c0.8-0.1,1.3-0.6,1.5-1c0.4-0.8,0.4-1.9-0.2-3.4c-0.6-2-1.3-3.9-2.1-5.8c-0.7-1.9-1.2-3.7-1.5-5.6l0-0.1l0-0.1
						c-0.3-0.9-0.5-1.8-0.7-2.7l0,0l0,0c-0.3-1-0.6-1.9-1.1-2.8c-0.3-0.9-0.7-1.7-1.3-2.3l-0.1-0.1l-0.2-0.1
						C-574.6,518.6-575,518.5-575.4,518.5L-575.4,518.5z"/>
					<path fill="#A44B48" d="M-573.6,581c-0.6,0-1.1-0.4-1.5-1.1c-0.5-0.8-1.1-1.5-1.7-2.1l0,0l0-0.1c-0.4-0.7-0.7-1.4-0.9-2l0-0.1
						l0-0.1c0.1-0.7,0.4-1.2,0.9-1.6c0.3-0.5,0.7-1,1.1-1.4c0.2-0.1,0.3-0.3,0.4-0.4c0.1-0.4,0.2-0.8,0.5-1l1.2-1.3l0.1,0
						c0.1-0.1,0.4-0.2,0.1-0.9l-1.5-1.9c-0.7-0.9-1.3-1.8-1.9-2.7l-0.8-1.2c-0.2-0.4-0.4-0.8-0.6-1.1c-0.2-0.2-0.3-0.2-0.3-0.2
						l-0.1,0.1l-0.1,0.1c-1.1,0.4-2.2,0.8-3.4,1c-0.5,0.1-1,0.3-1.5,0.6c-0.2,0.1-0.5,0.2-0.8,0.2c-0.4,0-0.8-0.1-1.3-0.4
						c-1.1-0.9-1.9-1.9-2.6-3.1c-0.4-0.5-0.6-1-0.7-1.5l0-0.1l0-0.1c0.1-0.9,0.7-1.4,1.5-1.4c1.2-0.2,2.5-0.5,3.7-0.8
						c2.5-0.8,5.1-1.5,7.7-2.3c2.6-0.8,5.3-1.5,8-2.2c1.3-0.4,2.7-0.8,4.1-1.1c0.5-0.2,1-0.4,1.6-0.6c0.2-0.2,0.5-0.2,0.8-0.2
						c0.5,0,0.9,0.2,1.4,0.6c0.2,0.2,0.5,0.5,0.7,0.7c0.3,0.2,0.6,0.5,0.8,0.9c0.4,0.6,0.8,1.1,1.3,1.6l0.1,0.1l0,0.1
						c1.1,2.2,0.5,3.3-0.2,4c-1.4,2.4-2.8,4.7-4.2,7.1c-1.5,2.4-3.1,4.7-4.6,7c-0.8,1.2-1.5,2.3-2.3,3.5c-0.8,1-1.6,2.1-2.3,3.2
						c-0.4,1.2-1.1,2-2.1,2.6l-0.1,0l-0.1,0C-573.4,581-573.5,581-573.6,581z M-575.1,560.8L-575.1,560.8c0.4,0.7,0.8,1.4,1.2,2.1
						c0.6,0.7,1.2,1.6,1.8,2.4l0,0l0,0.1c0.2,0.5,0.4,0.8,0.8,1c0.2-0.2,0.3-0.4,0.4-0.7c0.7-1.1,1.4-2.2,2.1-3.3
						c0.6-1.1,1.3-2.2,2.1-3.3c0.2-0.3,0.4-0.6,0.6-0.9c0,0,0,0,0,0c0,0-0.1,0.1-0.1,0.1s-1.1,0.4-1.6,0.5c-0.7,0.1-1.3,0.2-1.9,0.4
						c-1.2,0.2-2.4,0.6-3.4,1L-575.1,560.8l-0.1-0.1C-575.2,560.7-575.1,560.8-575.1,560.8z"/>
					<path fill="#A44B48" d="M-561.7,550.1c0.3,0,0.7,0.2,1.1,0.5c0.2,0.2,0.4,0.4,0.7,0.7c0.3,0.2,0.5,0.4,0.8,0.8
						c0.4,0.6,0.8,1.2,1.3,1.7c0.8,1.6,0.7,2.7-0.2,3.4c-1.4,2.4-2.8,4.8-4.3,7.2c-1.5,2.4-3.1,4.7-4.6,7c-0.8,1.2-1.6,2.3-2.3,3.5
						c-0.8,1-1.6,2.1-2.3,3.2c-0.4,1.1-1,1.9-1.9,2.4c0,0-0.1,0-0.1,0c-0.4,0-0.8-0.3-1.1-0.9c-0.6-0.8-1.1-1.5-1.7-2.2
						c-0.4-0.7-0.6-1.3-0.8-1.9c0.1-0.6,0.3-1,0.7-1.3c0.3-0.5,0.7-1,1.1-1.4c0.2-0.1,0.4-0.3,0.6-0.6c0-0.4,0.2-0.7,0.4-0.9
						c0.4-0.4,0.7-0.8,1.1-1.2c0.6-0.3,0.7-0.8,0.4-1.6c-0.5-0.7-1-1.3-1.5-2c-0.7-0.9-1.3-1.8-1.9-2.7l-0.8-1.2
						c-0.2-0.4-0.4-0.8-0.6-1.1c-0.3-0.3-0.5-0.4-0.7-0.4c-0.1,0-0.3,0.1-0.4,0.2c-1.1,0.4-2.2,0.8-3.3,1c-0.6,0.2-1.1,0.4-1.6,0.6
						c-0.2,0.1-0.4,0.1-0.6,0.1c-0.3,0-0.7-0.1-1-0.3c-1-0.8-1.8-1.8-2.4-2.9c-0.4-0.5-0.6-0.9-0.7-1.4c0.1-0.6,0.4-1,1-1
						c1.3-0.3,2.6-0.5,3.9-0.9c2.5-0.8,5.1-1.5,7.7-2.3c2.6-0.8,5.3-1.5,8-2.2c1.3-0.4,2.7-0.8,4.1-1.1c0.6-0.2,1.1-0.4,1.7-0.6
						C-562.1,550.2-561.9,550.1-561.7,550.1 M-575.2,560.2c-0.1,0-0.1,0-0.2,0c-0.2,0-0.4,0.1-0.5,0.3c0,0.2,0.1,0.5,0.4,0.7
						c0.3,0.7,0.7,1.3,1.1,2c0.6,0.8,1.2,1.6,1.8,2.4c0.3,0.8,0.7,1.2,1.3,1.4c0.3-0.3,0.6-0.6,0.8-1.1c0.7-1.1,1.4-2.2,2.1-3.2
						c0.7-1.1,1.4-2.3,2.1-3.4c0.3-0.3,0.5-0.7,0.7-1.2c-0.1-0.3-0.3-0.5-0.5-0.5c-0.1,0-0.3,0.1-0.4,0.2c-0.5,0.2-1,0.3-1.5,0.5
						c-0.7,0.1-1.3,0.2-1.9,0.3c-1.2,0.2-2.4,0.6-3.5,1C-574,559.8-574.6,560-575.2,560.2 M-561.7,549.1c-0.4,0-0.7,0.1-1,0.3
						c-0.5,0.2-1,0.4-1.5,0.6c-1.4,0.3-2.7,0.7-4.1,1.1c-2.7,0.7-5.4,1.4-8,2.2c-2.6,0.7-5.2,1.5-7.7,2.3c-1.2,0.3-2.5,0.6-3.7,0.8
						c-1,0.1-1.8,0.7-1.9,1.8l0,0.2l0,0.2c0.1,0.6,0.4,1.2,0.8,1.7c0.7,1.2,1.6,2.2,2.6,3.1l0.1,0l0.1,0c0.5,0.3,1,0.5,1.5,0.5
						c0.4,0,0.7-0.1,1-0.2c0.5-0.2,0.9-0.4,1.4-0.5c1.2-0.3,2.3-0.6,3.4-1l0,0c0.2,0.3,0.3,0.6,0.4,0.8l0,0.1l0,0.1l0.8,1.2
						c0.6,0.9,1.3,1.8,1.9,2.7c0.5,0.6,1,1.2,1.5,1.9c0,0.1,0.1,0.2,0.1,0.3l-0.1,0.1l-0.2,0.2l-0.7,0.8l-0.4,0.4
						c-0.3,0.4-0.5,0.7-0.6,1.2c-0.1,0.1-0.1,0.1-0.2,0.2l-0.1,0.1l-0.1,0.1c-0.4,0.4-0.8,0.9-1.1,1.4c-0.5,0.4-0.9,1.1-1,1.8l0,0.2
						l0.1,0.2c0.2,0.7,0.5,1.4,0.9,2.1l0.1,0.1l0.1,0.1c0.6,0.6,1.1,1.3,1.6,2c0.7,1.1,1.4,1.3,2,1.3c0.1,0,0.2,0,0.3,0l0.2,0
						l0.2-0.1c1-0.6,1.8-1.5,2.3-2.8c0.7-1.1,1.5-2.1,2.2-3.1l0,0l0,0c0.8-1.2,1.5-2.3,2.3-3.5c1.5-2.3,3.1-4.6,4.6-7
						c1.4-2.3,2.8-4.7,4.2-7c0.7-0.7,1.6-2,0.3-4.5l-0.1-0.2l-0.1-0.1c-0.5-0.4-0.9-0.9-1.2-1.5l0,0l0,0c-0.3-0.4-0.6-0.7-0.9-1
						c-0.2-0.2-0.4-0.5-0.6-0.6l0,0l-0.1,0C-560.6,549.4-561.2,549.1-561.7,549.1L-561.7,549.1z M-574.4,561l0.1,0l1.2-0.4
						c1.1-0.4,2.2-0.7,3.4-1c0.6-0.1,1.2-0.3,1.8-0.3l0.1,0l0.1,0c0.1,0,0.3-0.1,0.4-0.1c-0.7,1-1.3,2-1.9,3.1
						c-0.7,1-1.4,2.1-2.1,3.2l0,0l0,0c0,0,0,0.1-0.1,0.1c-0.1-0.1-0.1-0.3-0.2-0.4l0-0.1l-0.1-0.1c-0.6-0.9-1.2-1.7-1.8-2.5
						C-573.9,562-574.2,561.5-574.4,561L-574.4,561z"/>
					<path fill="#A44B48" d="M-567,596.4c-0.2,0-0.5,0-0.7-0.1l-0.1,0l-0.1-0.1c-0.7-0.6-1.3-1.4-1.7-2.5c-0.3-0.4-0.5-0.9-0.6-1.4
						c-0.1-0.3-0.2-0.5-0.4-0.6l-0.2-0.1l0-0.2c-0.1-0.8,0.1-1.5,0.5-1.9c0.6-0.4,1.2-0.7,1.8-0.8c1.1-0.5,2.3-0.9,3.5-1.3
						c2.3-0.9,4.7-1.7,7.1-2.5c2.3-0.9,4.6-1.9,7-2.9c0.5-0.3,1.1-0.6,1.7-0.8c0.6-0.2,1.1-0.4,1.7-0.6c0.2-0.1,0.2-0.4,0.1-1
						c-0.1-0.8-0.3-1.5-0.7-2.1l-0.1-0.1l0-0.2c0-0.2-0.1-0.5-0.3-0.8c-0.3-0.4-0.5-0.8-0.7-1.3c-0.2-0.5-0.3-1-0.4-1.4
						c-0.2-0.4-0.4-0.8-0.5-1.2c-0.1-0.7,0.1-1,0.3-1.3c0.3-0.7,0.8-0.8,1.1-0.8c0.2,0,0.5,0.1,0.8,0.2l0.1,0l0.1,0.1
						c0.5,0.6,1,1.3,1.4,2.2c0.5,0.9,0.9,1.8,1.4,2.8c0.4,1,0.8,2,1.1,3c0.3,0.9,0.7,1.9,1.2,2.8c0.3,0.9,0.7,1.7,1.2,2.6l0.4,1.3
						l0.5,1.6c0.9,1.8,1.7,3.7,2.5,5.7c0.4,1.1,0.4,1.9,0.2,2.5c-0.2,0.4-0.5,0.7-1,0.8l-0.2,0.1l-0.2,0c-1.1-0.3-1.8-1.2-2.2-2.7
						c-0.7-1.4-1.4-2.8-2-4.2c-0.2-0.7-0.5-1.1-0.8-1.3c-0.1,0-0.1,0-0.2,0c-0.4,0-0.8,0.1-1.2,0.4l-0.1,0l-0.1,0
						c-1.3,0.5-2.5,0.9-3.8,1.3c-1.3,0.3-2.5,0.8-3.6,1.3c-1.2,0.6-2.5,1.1-3.8,1.6c-0.6,0.2-1.2,0.4-1.7,0.7l-0.1,0l-0.1,0
						c-0.6,0.1-1.2,0.3-1.8,0.5c-1.2,0.4-2.4,0.9-3.6,1.4l-1.5,0.7C-566.1,596.3-566.5,596.4-567,596.4z"/>
					<path fill="#A44B48" d="M-548.8,571c0.2,0,0.3,0.1,0.5,0.2c0.5,0.6,1,1.3,1.4,2.1c0.5,0.9,0.9,1.8,1.4,2.8
						c0.4,1,0.8,1.9,1.1,2.9c0.4,0.9,0.8,1.9,1.2,2.9c0.3,0.9,0.7,1.7,1.2,2.6c0.3,0.9,0.6,1.9,0.8,2.8c0.9,1.9,1.7,3.8,2.5,5.7
						c0.5,1.5,0.4,2.4-0.5,2.7c-0.9-0.3-1.6-1.1-1.9-2.4c-0.7-1.4-1.4-2.8-2-4.2c-0.2-0.8-0.6-1.3-1.1-1.6c-0.1,0-0.2,0-0.3,0
						c-0.5,0-1,0.2-1.5,0.5c-1.2,0.5-2.5,0.9-3.8,1.3c-1.3,0.3-2.5,0.8-3.7,1.3c-1.2,0.6-2.5,1.1-3.7,1.5c-0.6,0.2-1.2,0.4-1.7,0.7
						c-0.7,0.1-1.3,0.3-1.9,0.6c-1.2,0.4-2.4,0.9-3.6,1.4c-0.5,0.3-1.1,0.5-1.6,0.8c-0.3,0.3-0.6,0.4-1,0.4c-0.2,0-0.4,0-0.6-0.1
						c-0.6-0.6-1.2-1.3-1.5-2.3c-0.3-0.4-0.4-0.8-0.5-1.3c-0.1-0.4-0.3-0.7-0.6-0.9c-0.1-0.7,0-1.2,0.4-1.6c0.5-0.4,1-0.6,1.6-0.6
						c1.1-0.5,2.3-0.9,3.5-1.4c2.3-0.8,4.7-1.7,7.1-2.5c2.3-0.9,4.7-1.9,7-2.9c0.5-0.3,1.1-0.6,1.7-0.8c0.5-0.2,1.1-0.4,1.7-0.6
						c0.4-0.3,0.6-0.8,0.4-1.6c-0.1-0.8-0.4-1.6-0.8-2.2c0-0.4-0.1-0.7-0.4-1.1c-0.3-0.4-0.5-0.8-0.7-1.2c-0.2-0.5-0.3-1-0.4-1.4
						c-0.2-0.4-0.4-0.8-0.5-1.1c0-0.4,0-0.6,0.2-0.8C-549.3,571.2-549.1,571-548.8,571 M-548.8,570L-548.8,570c-0.3,0-1.1,0.1-1.5,1
						c-0.2,0.3-0.5,0.8-0.4,1.5l0,0.1l0,0.1c0.1,0.4,0.3,0.8,0.6,1.2c0.1,0.4,0.2,0.9,0.4,1.3l0,0l0,0c0.2,0.4,0.5,0.9,0.7,1.3l0,0
						l0,0c0.2,0.2,0.2,0.3,0.2,0.4l0,0.3l0.2,0.3c0.3,0.5,0.5,1.1,0.6,1.8l0,0.1l0,0.1c0.1,0.3,0.1,0.4,0.1,0.5
						c-0.5,0.2-1,0.4-1.4,0.5l0,0l0,0c-0.6,0.2-1.2,0.5-1.8,0.8c-2.4,1-4.7,1.9-6.9,2.8c-2.4,0.8-4.7,1.7-7.1,2.5
						c-1.2,0.4-2.3,0.9-3.4,1.3c-0.7,0.1-1.4,0.4-1.9,0.8l-0.1,0.1l-0.1,0.1c-0.5,0.6-0.7,1.3-0.6,2.3l0.1,0.5l0.4,0.3
						c0,0,0.1,0.1,0.1,0.3c0.1,0.5,0.3,1.1,0.6,1.6c0.4,1.1,1,1.9,1.8,2.6l0.2,0.1l0.2,0.1c0.3,0.1,0.6,0.1,0.9,0.1
						c0.6,0,1.1-0.2,1.5-0.5l0.4-0.2l1.1-0.5c1.1-0.5,2.3-1,3.5-1.4l0,0l0,0c0.6-0.2,1.1-0.4,1.7-0.5l0.1,0l0.1-0.1
						c0.5-0.2,1-0.4,1.6-0.6c1.3-0.5,2.6-1,3.8-1.6c1.1-0.5,2.3-1,3.6-1.3c1.3-0.4,2.6-0.8,3.9-1.3l0.1,0l0.1-0.1
						c0.3-0.2,0.5-0.3,0.9-0.3c0,0,0,0,0.1,0c0.2,0.2,0.4,0.5,0.5,0.9l0,0.1l0,0.1c0.6,1.4,1.2,2.8,2,4.2c0.4,1.6,1.3,2.6,2.5,3
						l0.3,0.1l0.3-0.1c0.6-0.2,1-0.6,1.3-1.1c0.3-0.7,0.3-1.7-0.1-2.9c-0.8-2-1.7-3.9-2.5-5.8l-0.5-1.8l-0.3-0.9l0-0.1l0-0.1
						c-0.4-0.8-0.8-1.7-1.1-2.5l0,0l0,0c-0.4-0.9-0.8-1.9-1.2-2.8c-0.3-1-0.7-2-1.1-3c-0.4-1-0.9-1.9-1.4-2.8
						c-0.4-0.9-0.9-1.7-1.5-2.3l-0.1-0.1l-0.1-0.1C-548.1,570.1-548.5,570-548.8,570L-548.8,570z"/>
					<path fill="#A44B48" d="M-550.1,633.1c-0.1,0-0.2,0-0.3,0l-0.1,0l-0.1,0c-0.8-0.4-1.3-1.2-1.5-2.3c-0.4-1-0.8-2-1.1-3
						c-0.3-0.7-0.4-1.4-0.3-2l0-0.1l0-0.1c0.2-0.3,0.5-0.6,0.9-0.6c0.3-0.1,0.7-0.2,1.1-0.3c2.3-1.1,4.8-2,7.3-2.9l0.1,0l0.1,0
						c0.1,0,0.2,0,0.3,0c0.4,0,0.8-0.1,1.1-1c-0.1-0.5-0.3-1-0.6-1.5c-0.3-0.8-0.6-1.5-0.8-2.2l-0.9-2.3c-0.2-0.7-0.5-1.3-0.8-2
						c-0.4-0.5-0.8-0.8-1.2-0.8c-0.2,0-0.3,0.1-0.5,0.2l-0.1,0.1l-0.1,0c-2.1,0.6-4.1,1.4-6.1,2.4c-1,0.5-2,0.8-3,1.1
						c-0.1,0-0.2,0.1-0.4,0.1c-0.4,0-0.7-0.2-1-0.5c-0.5-0.7-0.9-1.3-1.1-2l0-0.1l0-0.1c0-0.8-0.3-1.6-0.8-2.4
						c-0.6-1-0.4-1.7-0.2-2.1l0.1-0.1l0.1-0.1c0.5-0.3,1-0.5,1.6-0.6c1.2-0.5,2.3-1,3.5-1.6c1.2-0.6,2.5-1.1,3.9-1.4
						c2.5-0.7,5.1-1.5,7.6-2.5l3.8-1.4c1.3-0.3,2.5-0.8,3.7-1.2c0.4-0.5,0.9-0.8,1.5-0.8c0.7,0,1.4,0.5,2.2,1.5l0,0.1l0,0.1
						c0.3,0.7,0.6,1.5,1,2.2c0.2,0.5,0.4,0.9,0.5,1.4c0.1,0.4,0.2,0.9,0.4,1.5l0,0.1l0,0.1c-0.2,1-0.8,1.3-1.2,1.4
						c-0.6,0.1-1.3,0.3-1.9,0.6l-3.8,1.4l-3.9,1.3c-0.5,0.1-1,0.2-1.4,0.4c-0.2,0.3-0.1,0.9,0.2,1.6l0,0.1l0,0.1
						c0.1,0.4,0.1,0.8,0.3,1.1c0.2,0.4,0.4,0.9,0.6,1.4c0.3,1.1,0.6,2.1,1,3.1c0.2,0.5,0.4,1,0.6,1.5c0.1,0.3,0.2,0.5,0.3,0.7
						c0.1,0,0.1,0,0.2,0c0.3,0,0.5-0.1,0.7-0.2l0.1,0l0.1,0c1.2-0.4,2.4-0.9,3.6-1.4c1.1-0.6,2.5-1.1,3.8-1.4l1.6-0.6
						c0.6-0.4,1.3-0.7,2.1-0.9c0,0,0,0,0,0c0.6,0,1.2,0.3,1.5,1.5c0.2,0.7,0.5,1.5,0.9,2.2c1.1,1.8,1.2,3.4,0.5,4.5l-0.1,0.1
						l-0.2,0.1c-0.5,0.2-1.1,0.3-1.6,0.4c-0.6,0.1-1.3,0.3-1.9,0.6c-1.4,0.3-2.6,0.7-3.8,1.2c-1.3,0.5-2.6,1-3.8,1.4l-3.8,1.1
						c-1.3,0.3-2.6,0.6-3.8,1.1c-1.2,0.5-2.4,1.1-3.5,1.7c-0.6,0.3-1.1,0.6-1.7,0.9C-548.9,632.9-549.5,633.1-550.1,633.1z"/>
					<path fill="#A44B48" d="M-534.2,599.5c0.5,0,1.1,0.4,1.8,1.3c0.3,0.8,0.6,1.5,1,2.2c0.2,0.4,0.4,0.8,0.4,1.3
						c0.1,0.5,0.3,1,0.4,1.5c-0.1,0.6-0.4,0.9-0.8,0.9c-0.7,0.2-1.4,0.4-2,0.6c-1.3,0.5-2.5,0.9-3.8,1.4c-1.3,0.4-2.6,0.9-3.9,1.3
						c-0.6,0.1-1.1,0.2-1.6,0.5c-0.4,0.5-0.4,1.2,0.1,2.2c0.1,0.4,0.1,0.8,0.3,1.2c0.2,0.4,0.4,0.9,0.6,1.4c0.3,1.1,0.6,2.1,1.1,3.1
						c0.2,0.5,0.4,1,0.6,1.5c0.1,0.4,0.2,0.7,0.5,1c0.2,0,0.3,0.1,0.5,0.1c0.4,0,0.7-0.1,1-0.3c1.2-0.4,2.4-0.9,3.6-1.4
						c1.2-0.6,2.4-1.1,3.8-1.4l1.8-0.6c0.6-0.4,1.2-0.7,1.9-0.8c0.5,0,0.8,0.4,0.9,1.1c0.2,0.8,0.5,1.6,0.9,2.4c1,1.7,1.1,3,0.5,4
						c-0.5,0.2-1,0.3-1.5,0.4c-0.7,0.2-1.4,0.4-2,0.6c-1.3,0.3-2.6,0.7-3.8,1.2c-1.3,0.5-2.5,1-3.8,1.4c-1.3,0.4-2.5,0.7-3.8,1.1
						c-1.3,0.3-2.6,0.6-3.9,1.1c-1.2,0.5-2.4,1.1-3.6,1.7c-0.6,0.3-1.1,0.6-1.7,0.8c-0.4,0.3-0.9,0.4-1.4,0.4c-0.1,0-0.2,0-0.3,0
						c-0.6-0.3-1-1-1.2-1.9c-0.4-1.1-0.8-2.1-1.1-3.1c-0.3-0.7-0.4-1.3-0.3-1.8c0.1-0.2,0.3-0.3,0.5-0.4c0.4-0.1,0.7-0.2,1.1-0.3
						c2.4-1.1,4.8-2.1,7.3-3c0.1,0,0.3,0,0.4,0c0.8,0,1.3-0.5,1.6-1.5c-0.2-0.6-0.4-1.2-0.6-1.7c-0.3-0.7-0.5-1.4-0.8-2.1
						c-0.3-0.8-0.6-1.6-0.9-2.3c-0.2-0.7-0.5-1.4-0.8-2c-0.5-0.7-1.1-1-1.6-1c-0.3,0-0.6,0.1-0.8,0.3c-2.1,0.7-4.2,1.5-6.1,2.4
						c-0.9,0.5-1.9,0.8-2.8,1c-0.1,0-0.2,0.1-0.3,0.1c-0.2,0-0.5-0.1-0.7-0.3c-0.4-0.6-0.8-1.2-1-1.8c0-0.9-0.3-1.8-0.9-2.7
						c-0.4-0.6-0.4-1.1-0.2-1.5c0.4-0.3,0.9-0.5,1.5-0.6c1.2-0.5,2.4-1.1,3.5-1.6c1.2-0.6,2.5-1,3.8-1.3c2.6-0.7,5.1-1.5,7.6-2.5
						l3.8-1.4c1.3-0.3,2.6-0.8,3.9-1.3C-535,599.7-534.6,599.5-534.2,599.5 M-534.2,598.5L-534.2,598.5c-0.5,0-1.1,0.2-1.8,0.9
						c-1.2,0.5-2.4,0.9-3.5,1.2l0,0l0,0l-3.8,1.4c-2.5,1-5,1.8-7.5,2.5c-1.3,0.3-2.7,0.8-3.9,1.4c-1.1,0.5-2.2,1.1-3.4,1.6
						c-0.7,0.1-1.3,0.3-1.8,0.7l-0.2,0.1l-0.1,0.2c-0.4,0.5-0.6,1.4,0.1,2.6c0.5,0.8,0.7,1.5,0.7,2.2l0,0.2l0.1,0.2
						c0.3,0.7,0.7,1.4,1.1,2l0,0.1l0.1,0.1c0.5,0.5,1.1,0.6,1.4,0.6c0.2,0,0.4,0,0.6-0.1c1-0.2,2-0.6,3-1.1c1.9-0.9,3.9-1.7,6-2.4
						l0.2-0.1l0.1-0.1c0.1,0,0.1-0.1,0.2-0.1c0,0,0.3,0,0.7,0.6c0.3,0.6,0.5,1.2,0.7,1.9l0.1,0.3l0.8,2.1c0.2,0.7,0.5,1.4,0.8,2.1
						l0,0l0,0c0.2,0.4,0.4,0.8,0.5,1.3c-0.2,0.5-0.4,0.5-0.6,0.5c-0.1,0-0.2,0-0.2,0l-0.3,0l-0.3,0.1c-2.5,0.9-4.9,1.9-7.3,2.9
						c-0.4,0.1-0.7,0.1-1.1,0.3c-0.5,0.1-0.9,0.4-1.1,0.9l-0.1,0.1l0,0.1c-0.1,0.7,0,1.5,0.3,2.3c0.3,1,0.7,2,1.1,3
						c0.2,1.2,0.8,2,1.7,2.5l0.2,0.1l0.2,0c0.1,0,0.2,0,0.4,0c0.7,0,1.3-0.2,1.9-0.5c0.5-0.3,1.1-0.5,1.6-0.8
						c1.1-0.6,2.3-1.2,3.5-1.7c1.2-0.4,2.4-0.8,3.7-1l0,0l0,0l2.4-0.7l1.4-0.4c1.3-0.4,2.6-0.9,3.9-1.4c1.1-0.5,2.4-0.9,3.6-1.2
						l0.1,0l0.1,0c0.6-0.2,1.2-0.4,1.9-0.5c0.5-0.1,1.1-0.2,1.6-0.4l0.3-0.1l0.2-0.3c0.9-1.4,0.7-3.1-0.5-5.1
						c-0.4-0.7-0.6-1.4-0.8-2.1c-0.4-1.7-1.4-1.9-1.9-1.9l-0.1,0l-0.1,0c-0.8,0.1-1.6,0.4-2.2,0.9l-1.6,0.6
						c-1.4,0.3-2.7,0.8-3.9,1.5c-1.2,0.5-2.4,0.9-3.6,1.3l-0.1,0.1l-0.1,0.1c-0.1,0.1-0.2,0.1-0.3,0.1c0-0.1-0.1-0.2-0.1-0.3l0-0.1
						l0-0.1c-0.2-0.5-0.4-1-0.6-1.5c-0.4-1-0.7-2-1-3l0,0l0,0c-0.2-0.5-0.4-1-0.6-1.5c-0.1-0.3-0.2-0.6-0.2-1l0-0.1l-0.1-0.1
						c-0.2-0.4-0.3-0.8-0.3-1c0.3-0.1,0.7-0.2,1-0.2l0.1,0l0.1,0l2-0.7l1.9-0.6l2.2-0.8l1.7-0.6c0.6-0.2,1.2-0.4,1.9-0.6
						c0.8-0.2,1.4-0.8,1.6-1.8l0-0.2l0-0.2c-0.1-0.5-0.2-1-0.4-1.5c-0.1-0.5-0.3-1-0.5-1.5c-0.4-0.7-0.7-1.4-1-2.1l0-0.1l-0.1-0.1
						C-532.4,599-533.3,598.5-534.2,598.5L-534.2,598.5z"/>
				</g>
				<g>
					<g id="XMLID_23_">
						<path fill="#D15C5A" d="M-600.2,521.7c-1-0.1-1.9-0.4-2.9-0.8c-1-0.5-1.8-1.1-2.7-1.7c-1.7-1.3-3.1-3.1-4.3-5.2
							c-0.7-1.1-1.3-2.3-1.9-3.6c-0.2-0.8-0.6-1.4-1.1-1.7l-0.1-0.1l0-0.1c-0.3-0.9-0.6-1.7-0.8-2.5c-0.3-0.7-0.4-1.4-0.2-2l0-0.1
							l0-0.1c0.4-0.6,0.9-0.9,1.5-1.1l1.5-0.9c2.2-1.4,4.4-2.7,6.7-3.9c2.3-1,4.6-2.2,6.8-3.4c1.1-0.7,2.2-1.4,3.4-1.9
							c0.5-0.2,0.9-0.5,1.3-0.8c0.4-0.6,0.9-1,1.6-1l0.1,0l0.1,0.1c0.6,0.3,1.1,0.8,1.5,1.5c0.5,0.7,1,1.5,1.5,2.4
							c0.8,1.9,1.6,3.8,2.2,5.8c0.3,0.8,0.5,1.5,0.8,2.3c0.1,0.4,0.2,0.8,0.2,1.2c0.1,0.4,0.2,0.8,0.3,1.3c0.3,1.9,0.3,3.6-0.1,5.1
							c-0.8,2.8-2.1,5-4,6.5c-1,0.8-2.1,1.5-3.1,2.1c-1.1,0.7-2.3,1.3-3.5,1.7c-1.4,0.6-2.9,1-4.6,1
							C-599.9,521.7-600,521.7-600.2,521.7z M-609.5,509.3c-0.1,0.3,0,0.6,0.3,1c0.4,0.7,0.8,1.3,1.3,1.9c0.5,0.4,1.1,0.9,1.7,1.2
							c0.2,0.1,0.5,0.2,0.8,0.3l0.9,0.6c0.2,0.1,0.4,0.1,0.6,0.2l0.1,0l0.1,0c0.3,0.1,0.6,0.2,1,0.3c0.2,0,0.5,0.1,0.7,0.1l0,0
							c0.2,0,0.5,0,0.7-0.1c0.6-0.1,1.2-0.2,1.8-0.4c1.2-0.3,2.3-0.8,3.4-1.4l1.5-0.7l1.6-1.1c0.4-0.3,0.9-0.7,1.3-1.1
							c0.4-0.5,0.9-1.1,1.3-1.6c0.8-0.8,1.3-1.9,1.6-3.2c0.1-0.7,0.2-1.4,0.1-2.2c-0.1-0.4-0.1-0.8,0-1.1l0-0.1l0.1-0.1
							c0,0,0,0,0-0.1c-0.2-1.1-0.5-2.1-0.9-3c-0.2-0.2-0.3-0.3-0.4-0.3c0,0,0,0-0.1,0c-0.6,0.3-1.1,0.6-1.6,0.9
							c-2.3,1.3-4.6,2.5-6.9,3.6c-2.4,1-4.7,2.2-6.8,3.5c-1,0.7-2.1,1.4-3.2,2.1l0,0l0,0C-608.9,508.8-609.2,509-609.5,509.3z"/>
						<path fill="#A44B48" d="M-591.2,491.1c0.5,0.2,0.9,0.7,1.3,1.3c0.5,0.7,1,1.5,1.5,2.4c0.8,1.9,1.6,3.8,2.2,5.7
							c0.3,0.8,0.5,1.5,0.8,2.3c0.1,0.4,0.2,0.7,0.2,1.1c0.1,0.4,0.2,0.9,0.3,1.3c0.3,1.8,0.3,3.4-0.1,4.9c-0.7,2.7-2,4.8-3.8,6.3
							c-1,0.7-2,1.4-3.1,2.1c-1.1,0.7-2.2,1.2-3.4,1.7c-1.4,0.6-2.8,0.9-4.4,0.9c-0.1,0-0.3,0-0.4,0c-0.9-0.1-1.8-0.4-2.7-0.8
							c-0.9-0.5-1.8-1-2.6-1.6c-1.6-1.3-3-3-4.1-5.1c-0.7-1.1-1.3-2.3-1.8-3.5c-0.3-0.8-0.7-1.5-1.2-1.9c-0.3-0.9-0.6-1.7-0.8-2.5
							c-0.3-0.7-0.3-1.2-0.2-1.7c0.3-0.5,0.7-0.8,1.3-0.9c0.5-0.3,1.1-0.6,1.6-0.9c2.2-1.4,4.4-2.7,6.7-3.9c2.3-1,4.6-2.1,6.8-3.4
							c1.1-0.7,2.2-1.4,3.4-1.9c0.5-0.2,1-0.6,1.4-1C-592.2,491.4-591.7,491.1-591.2,491.1 M-602.1,515.4c0.3,0,0.5,0,0.8-0.1
							c0.6-0.1,1.3-0.3,1.9-0.4c1.2-0.3,2.4-0.8,3.5-1.4c0.5-0.2,1-0.5,1.5-0.7c0.5-0.4,1.1-0.7,1.7-1.1c0.5-0.4,1-0.7,1.4-1.1
							c0.4-0.5,0.9-1.1,1.3-1.6c0.9-0.8,1.4-2,1.7-3.5c0.1-0.7,0.2-1.5,0.1-2.3c-0.1-0.4,0-0.7,0-1c0.1-0.1,0.1-0.3,0.1-0.5
							c-0.2-1.1-0.5-2.2-1-3.2c-0.3-0.3-0.5-0.5-0.8-0.5c-0.1,0-0.2,0-0.3,0.1c-0.6,0.3-1.1,0.6-1.6,0.9c-2.3,1.3-4.5,2.5-6.8,3.6
							c-2.4,1-4.7,2.2-6.9,3.6c-1,0.7-2.1,1.4-3.2,2.1c-0.5,0.2-1,0.5-1.3,0.9c-0.2,0.4-0.1,1,0.4,1.5c0.4,0.7,0.8,1.3,1.3,1.9
							c0.6,0.5,1.2,1,1.9,1.3c0.3,0.1,0.5,0.2,0.8,0.4c0.2,0.2,0.5,0.3,0.8,0.5c0.3,0.1,0.5,0.2,0.8,0.2c0.3,0.1,0.6,0.2,1,0.3
							C-602.7,515.4-602.4,515.4-602.1,515.4 M-591,490.1l-0.3,0c-0.9,0-1.6,0.5-2,1.2c-0.3,0.3-0.7,0.5-1,0.7
							c-1.2,0.6-2.4,1.2-3.5,2c-2.2,1.2-4.4,2.4-6.7,3.4l0,0l0,0c-2.3,1.2-4.6,2.6-6.8,4l-1.4,0.8c-0.7,0.2-1.3,0.6-1.7,1.3
							l-0.1,0.2l0,0.2c-0.1,0.7-0.1,1.4,0.3,2.2c0.2,0.8,0.5,1.7,0.8,2.5l0.1,0.3l0.2,0.2c0.4,0.3,0.7,0.8,0.9,1.4l0,0.1l0,0.1
							c0.5,1.3,1.2,2.5,1.9,3.6c1.2,2.2,2.6,4,4.4,5.3c0.9,0.7,1.8,1.2,2.7,1.7c1,0.5,2.1,0.8,3.1,0.9l0,0l0,0c0.2,0,0.3,0,0.4,0
							c1.7,0,3.3-0.3,4.8-1c1.2-0.5,2.4-1.1,3.6-1.8c1.1-0.6,2.1-1.4,3.1-2.1c2-1.6,3.4-3.9,4.2-6.8c0.4-1.7,0.4-3.4,0.1-5.3l0,0
							l0,0c-0.1-0.4-0.2-0.8-0.3-1.2c0-0.4-0.1-0.8-0.2-1.3c-0.2-0.8-0.5-1.6-0.8-2.3c-0.7-1.9-1.4-3.9-2.2-5.8
							c-0.5-1-1-1.8-1.5-2.6c-0.5-0.8-1-1.4-1.7-1.7L-591,490.1L-591,490.1z M-604.8,506.9c2.1-1.3,4.4-2.5,6.7-3.5l0,0l0,0
							c2.3-1.1,4.6-2.3,6.9-3.6l0,0l0,0c0.4-0.3,0.8-0.5,1.3-0.8c0.4,0.8,0.7,1.8,0.8,2.7l-0.1,0.2c-0.1,0.4-0.1,0.9-0.1,1.3
							c0,0.7,0,1.4-0.1,2c-0.2,1.2-0.7,2.2-1.5,2.9c-0.5,0.5-0.9,1-1.4,1.6c-0.4,0.3-0.8,0.7-1.3,1c-0.5,0.3-1,0.7-1.6,1l0,0l-1,0.5
							l-0.5,0.2c-1.1,0.6-2.2,1-3.3,1.4c-0.6,0.2-1.2,0.3-1.8,0.4c-0.2,0-0.4,0.1-0.6,0.1c-0.2,0-0.4,0-0.6-0.1
							c-0.3-0.1-0.6-0.2-0.9-0.3l-0.1-0.1l-0.1,0c-0.1,0-0.2,0-0.4-0.1c-0.3-0.2-0.5-0.3-0.7-0.5l-0.1-0.1l-0.1,0
							c-0.3-0.1-0.5-0.2-0.8-0.3c-0.5-0.3-1.1-0.7-1.6-1.1c-0.4-0.5-0.8-1.1-1.2-1.7l0-0.1l0-0.1c-0.1-0.2-0.2-0.4-0.2-0.5
							c0.2-0.2,0.4-0.3,0.7-0.4l0.1,0l0.1-0.1C-607,508.4-605.9,507.7-604.8,506.9L-604.8,506.9z"/>
					</g>
					<g id="XMLID_20_">
						<path fill="#D15C5A" d="M-592.7,548.7c-0.3,0-0.5-0.1-0.8-0.3l0,0l0,0c-0.5-0.6-0.9-1.3-1.1-2.1c-0.1-0.4-0.3-0.8-0.4-1.2l0,0
							l0-0.1c-0.1-0.4-0.2-0.7-0.4-1l-0.1-0.2l0.1-0.2c0,0,0-0.1-0.1-0.3c-0.2-0.3-0.3-0.6-0.4-0.9c0-0.3-0.1-0.5-0.1-0.7l-0.2-0.7
							c-0.2-0.3-0.3-0.7-0.3-1c0-0.2,0-0.3,0-0.5c-0.2-0.3-0.3-0.6-0.4-0.9c-0.1-0.6-0.3-1.1-0.5-1.6c-0.2-0.5-0.5-1.1-0.7-1.6
							c-0.2-0.3-0.4-0.5-0.6-0.8l0-0.1l0-0.1c-0.1-0.5-0.3-0.9-0.6-1.1l-0.4-0.4l0.3-0.3c0,0,0,0,0-0.1c-0.2-0.4-0.3-0.8-0.4-1.2
							c-0.1-0.4-0.3-0.8-0.4-1.2c-0.2-0.4-0.4-0.9-0.4-1.3c0.1-1.4,0.8-1.6,1.2-1.6c0.6-0.2,1.2-0.4,1.8-0.6c2.3-1.1,4.7-2.1,7.1-3
							c1.2-0.3,2.3-0.8,3.4-1.4l3.7-1.5c1.1-0.6,2.3-1.1,3.5-1.6c0.6-0.2,1.2-0.4,1.9-0.5c0.6-0.1,1.1-0.3,1.6-0.5
							c0.4-0.4,0.8-0.5,1.1-0.5c0.3,0,0.6,0.1,0.9,0.3l0.1,0l0.1,0.1c0.5,0.6,0.9,1.4,1.2,2.3c0.4,0.8,0.8,1.7,1.1,2.6
							c0.2,0.9,0.4,1.9,0.7,2.8c0.4,2,0.9,3.9,1.6,5.8c0.7,1.9,1.4,3.8,2.1,5.8c0.5,1.3,0.6,2.3,0.2,2.9c-0.2,0.3-0.5,0.6-1.1,0.7
							l-0.3,0l-0.2-0.2c-1.2-1.2-1.9-2.7-2.1-4.5c-0.2-0.9-0.5-1.9-0.9-2.8l-1.1-3c-0.1-0.5-0.2-1-0.3-1.4l-0.3-1
							c-0.1-0.7-0.4-1.2-0.7-1.5c-0.4,0.1-0.8,0.2-1.1,0.4l0,0l0,0c-0.6,0.2-1.3,0.4-1.9,0.5c-0.4,0.2-1,0.4-1.4,0.7
							c-0.7,0.3-1.4,0.5-2.1,0.6c-0.5,0-0.9,0.2-1.1,0.5c-0.1,0.5,0,1,0.3,1.7l0,0.1l0,0.1c0.4,1.9,0.9,3.8,1.4,5.6
							c0.4,0.8,0.7,1.8,1,2.8c0.1,0.4,0.2,0.9,0.3,1.3l0.4,1.4l0,0.1c0,1.4-0.4,2.1-1.2,2.1c-0.4,0-0.9-0.3-1.5-0.8l0,0l0,0
							c-0.5-0.8-0.8-1.7-0.9-2.5c-0.1-0.4-0.2-0.8-0.3-1.1c-0.2-0.4-0.5-0.8-0.7-1.3c-0.6-1.9-1.2-3.8-1.7-5.6
							c-0.2-0.4-0.4-0.9-0.6-1.4c-0.1-0.3-0.2-0.5-0.3-0.7c-0.1-0.1-0.2-0.1-0.2-0.1c0,0-0.1,0-0.2,0.1l-0.1,0.1l-0.1,0
							c-1.2,0.4-2.3,0.9-3.3,1.4c-1.2,0.4-2.4,0.9-3.5,1.4c-0.6,0.2-1.1,0.5-1.7,0.7c-0.2,0.1-0.2,0.5-0.2,0.7
							c0.2,0.8,0.4,1.6,0.8,2.4c0.3,1,0.6,2,1,2.9c0.2,0.3,0.4,0.7,0.5,1.2l0,0.1l0,0.1c0,0.3,0.1,0.7,0.2,1l0.5,1.3
							c0.1,0.5,0.2,0.9,0.3,1.3c0.3,0.8,0.4,1.7,0.2,2.4C-591.9,548.6-592.3,548.7-592.7,548.7z"/>
						<path fill="#A44B48" d="M-575.4,518.1c0.2,0,0.4,0.1,0.7,0.2c0.5,0.6,0.8,1.3,1.1,2.1c0.4,0.8,0.8,1.7,1.1,2.6
							c0.2,0.9,0.4,1.8,0.7,2.8c0.3,1.9,0.9,3.9,1.6,5.8c0.7,1.9,1.4,3.8,2,5.8c0.7,1.8,0.5,2.8-0.5,3c-1.1-1.1-1.8-2.5-2-4.2
							c-0.3-1-0.6-2-0.9-2.9c-0.4-1-0.8-2-1.1-3c-0.1-0.5-0.2-0.9-0.3-1.3c-0.1-0.4-0.2-0.7-0.3-1.1c-0.2-0.9-0.5-1.5-1.1-1.9
							c-0.5,0-1,0.2-1.5,0.5c-0.6,0.2-1.2,0.4-1.8,0.5c-0.6,0.2-1.1,0.5-1.6,0.8c-0.6,0.2-1.2,0.4-1.9,0.5c-0.6,0-1.1,0.3-1.5,0.8
							c-0.2,0.6-0.1,1.3,0.3,2.1c0.4,1.9,0.9,3.8,1.5,5.7c0.4,0.9,0.7,1.8,1,2.8c0.1,0.4,0.2,0.8,0.3,1.3c0.1,0.4,0.3,0.9,0.4,1.3
							c0,1-0.2,1.6-0.7,1.6c-0.3,0-0.7-0.2-1.1-0.7c-0.5-0.7-0.7-1.5-0.8-2.3c-0.1-0.5-0.2-0.9-0.3-1.2c-0.3-0.4-0.5-0.9-0.7-1.3
							c-0.6-1.8-1.1-3.7-1.7-5.5c-0.2-0.5-0.4-0.9-0.6-1.4c-0.1-0.3-0.2-0.6-0.4-0.9c-0.2-0.1-0.4-0.2-0.6-0.2
							c-0.2,0-0.4,0.1-0.5,0.3c-1.2,0.5-2.3,0.9-3.4,1.4c-1.2,0.4-2.3,0.9-3.5,1.3c-0.6,0.2-1.1,0.5-1.7,0.7
							c-0.4,0.1-0.6,0.5-0.5,1.2c0.2,0.9,0.5,1.7,0.8,2.6c0.3,1,0.6,2,1,2.9c0.2,0.3,0.3,0.7,0.5,1.2c0,0.4,0.1,0.8,0.3,1.2
							c0.2,0.4,0.3,0.9,0.5,1.3c0.1,0.4,0.2,0.9,0.3,1.3c0.3,0.8,0.4,1.5,0.2,2.1c-0.2,0.3-0.3,0.5-0.6,0.5c-0.2,0-0.3-0.1-0.5-0.2
							c-0.5-0.5-0.8-1.2-1-1.9c-0.1-0.5-0.3-0.9-0.5-1.3c-0.1-0.5-0.3-0.8-0.5-1.2c0.1-0.2,0-0.4-0.2-0.7c-0.1-0.2-0.2-0.5-0.3-0.7
							c0-0.2-0.1-0.4-0.1-0.6c-0.1-0.3-0.2-0.6-0.3-0.8c-0.2-0.3-0.2-0.5-0.2-0.7c0-0.3,0-0.5-0.1-0.8c-0.2-0.3-0.3-0.5-0.4-0.8
							c-0.1-0.6-0.3-1.1-0.5-1.6c-0.3-0.6-0.5-1.1-0.7-1.7c-0.2-0.3-0.4-0.6-0.6-0.8c-0.2-0.6-0.4-1-0.7-1.4c0.1-0.1,0.1-0.3,0-0.6
							c-0.1-0.4-0.2-0.7-0.3-1.1c-0.2-0.5-0.3-0.9-0.4-1.3c-0.2-0.4-0.4-0.8-0.4-1.2c0-0.7,0.3-1.1,0.8-1.1c0,0,0,0,0,0
							c0.6-0.2,1.2-0.4,1.9-0.7c2.3-1.1,4.7-2.1,7.1-3c1.2-0.3,2.3-0.8,3.5-1.4c1.2-0.5,2.4-1,3.7-1.4c1.1-0.6,2.3-1.1,3.5-1.6
							c0.6-0.2,1.2-0.3,1.8-0.5c0.6-0.1,1.3-0.3,1.9-0.6C-575.9,518.2-575.7,518.1-575.4,518.1 M-575.4,517.1
							c-0.4,0-0.9,0.1-1.4,0.6c-0.5,0.2-0.9,0.4-1.4,0.4l0,0l0,0c-0.7,0.1-1.3,0.3-1.9,0.5l0,0l0,0c-1.2,0.5-2.4,1-3.5,1.6l-2.6,1
							l-1,0.4l-0.1,0l-0.1,0c-1,0.6-2.1,1-3.3,1.3l0,0l0,0c-2.4,0.9-4.8,1.9-7.2,3c-0.6,0.2-1.1,0.4-1.7,0.6c-0.8,0.1-1.5,0.6-1.6,2
							l0,0.1l0,0.1c0,0.5,0.2,1,0.5,1.4c0.1,0.4,0.2,0.8,0.4,1.2c0.1,0.3,0.2,0.7,0.3,1l-0.4,0.4l0.7,0.7c0.2,0.2,0.4,0.5,0.5,0.9
							l0,0.1l0.1,0.1c0.2,0.2,0.3,0.5,0.5,0.8c0.2,0.5,0.4,1.1,0.7,1.6c0.2,0.5,0.3,1,0.4,1.5c0.1,0.4,0.2,0.7,0.4,1
							c0,0.1,0,0.1,0,0.2c0,0.4,0.1,0.8,0.3,1.3l0.2,0.7c0,0.2,0.1,0.3,0.1,0.5l0,0.1l0,0.1c0.1,0.3,0.2,0.7,0.4,1l0,0l0,0
							c0,0,0,0,0,0l-0.1,0.3l0.3,0.4c0.2,0.2,0.3,0.5,0.3,0.8l0,0.1l0,0.1c0.2,0.3,0.3,0.7,0.4,1.1c0.2,0.9,0.6,1.7,1.2,2.3l0.1,0.1
							l0.1,0.1c0.4,0.3,0.7,0.4,1.1,0.4c0.3,0,1.1-0.1,1.5-1.1l0-0.1l0-0.1c0.2-0.8,0.1-1.7-0.3-2.7c-0.1-0.4-0.2-0.8-0.3-1.2l0-0.1
							l0-0.1l-0.3-0.8l-0.2-0.5l0,0l0,0c-0.1-0.3-0.2-0.6-0.2-0.9l0-0.1l0-0.1c-0.1-0.5-0.3-0.9-0.5-1.3c-0.4-0.9-0.7-1.8-1-2.8l0,0
							l0,0c-0.3-0.8-0.5-1.6-0.7-2.4c0-0.1,0-0.1,0-0.1c0.5-0.2,1-0.5,1.6-0.7c1.1-0.5,2.3-0.9,3.4-1.3l0,0l0,0
							c1.1-0.5,2.2-1,3.3-1.4l0.1,0c0,0.1,0,0.1,0.1,0.2l0,0l0,0c0.2,0.5,0.4,1,0.6,1.4c0.6,1.8,1.1,3.6,1.7,5.5l0,0.1l0,0.1
							c0.2,0.4,0.5,0.9,0.7,1.3c0.1,0.3,0.2,0.6,0.2,0.9c0.1,0.9,0.4,1.9,0.9,2.7l0.1,0.1l0.1,0.1c0.7,0.7,1.3,1,1.8,1
							c0.7,0,1.6-0.4,1.7-2.6l0-0.2l0-0.1l-0.3-0.9l-0.1-0.4c-0.1-0.4-0.2-0.9-0.3-1.3c-0.3-1-0.6-1.9-1-2.8c-0.6-1.8-1-3.7-1.4-5.5
							l0-0.1l-0.1-0.1c-0.2-0.5-0.3-0.9-0.3-1.2c0.2-0.2,0.4-0.2,0.6-0.2l0.1,0l0.1,0c0.7-0.1,1.4-0.3,2-0.6l0.1,0l0.1-0.1
							c0.4-0.3,0.9-0.5,1.3-0.7c0.6-0.1,1.2-0.3,1.9-0.5l0.1,0l0.1-0.1c0.2-0.1,0.4-0.2,0.7-0.3c0.2,0.3,0.3,0.7,0.4,1l0,0l0,0
							l0.1,0.3l0.2,0.7c0.1,0.4,0.1,0.9,0.3,1.4l0,0.1l0,0.1l0.4,1.1l0.7,1.9c0.3,0.8,0.6,1.8,0.8,2.7c0.3,1.9,1,3.5,2.3,4.8
							l0.4,0.4l0.5-0.1c0.8-0.1,1.3-0.6,1.5-1c0.4-0.8,0.4-1.9-0.2-3.4c-0.6-2-1.3-3.9-2.1-5.8c-0.7-1.9-1.2-3.7-1.5-5.6l0-0.1
							l0-0.1c-0.3-0.9-0.5-1.8-0.7-2.7l0,0l0,0c-0.3-1-0.6-1.9-1.1-2.8c-0.3-0.9-0.7-1.7-1.3-2.3l-0.1-0.1l-0.2-0.1
							C-574.6,517.2-575,517.1-575.4,517.1L-575.4,517.1z"/>
					</g>
					<g id="XMLID_17_">
						<path fill="#D15C5A" d="M-573.6,579.5c-0.6,0-1.1-0.4-1.5-1.1c-0.5-0.8-1.1-1.5-1.7-2.1l0,0l0-0.1c-0.4-0.7-0.7-1.4-0.9-2
							l0-0.1l0-0.1c0.1-0.7,0.4-1.2,0.9-1.6c0.3-0.5,0.7-1,1.1-1.4c0.2-0.1,0.3-0.3,0.4-0.4c0.1-0.4,0.2-0.8,0.5-1l1.2-1.3l0.1,0
							c0.1-0.1,0.4-0.2,0.1-0.9l-1.5-1.9c-0.7-0.9-1.3-1.8-1.9-2.7l-0.8-1.2c-0.2-0.4-0.4-0.8-0.6-1.1c-0.2-0.2-0.3-0.2-0.3-0.2
							l-0.1,0.1l-0.1,0.1c-1.1,0.4-2.2,0.8-3.4,1c-0.5,0.1-1,0.3-1.5,0.6c-0.2,0.1-0.5,0.2-0.8,0.2c-0.4,0-0.8-0.1-1.3-0.4
							c-1.1-0.9-1.9-1.9-2.6-3.1c-0.4-0.5-0.6-1-0.7-1.5l0-0.1l0-0.1c0.1-0.9,0.7-1.4,1.5-1.4c1.2-0.2,2.5-0.5,3.7-0.8
							c2.5-0.8,5.1-1.5,7.7-2.3c2.6-0.8,5.3-1.5,8-2.2c1.3-0.4,2.7-0.8,4.1-1.1c0.5-0.2,1-0.4,1.6-0.6c0.2-0.2,0.5-0.2,0.8-0.2
							c0.5,0,0.9,0.2,1.4,0.6c0.2,0.2,0.5,0.5,0.7,0.7c0.3,0.2,0.6,0.5,0.8,0.9c0.4,0.6,0.8,1.1,1.3,1.6l0.1,0.1l0,0.1
							c1.1,2.2,0.5,3.3-0.2,4c-1.4,2.4-2.8,4.7-4.2,7.1c-1.5,2.4-3.1,4.7-4.6,7c-0.8,1.2-1.5,2.3-2.3,3.5c-0.8,1-1.6,2.1-2.3,3.2
							c-0.4,1.2-1.1,2-2.1,2.6l-0.1,0l-0.1,0C-573.4,579.5-573.5,579.5-573.6,579.5z M-575.1,559.3L-575.1,559.3
							c0.4,0.7,0.8,1.4,1.2,2.1c0.6,0.7,1.2,1.6,1.8,2.4l0,0l0,0.1c0.2,0.5,0.4,0.8,0.8,1c0.2-0.2,0.3-0.4,0.4-0.7
							c0.7-1.1,1.4-2.2,2.1-3.3c0.6-1.1,1.3-2.2,2.1-3.3c0.2-0.3,0.4-0.6,0.6-0.9c0,0,0,0,0,0c0,0-0.1,0.1-0.1,0.1s-1.1,0.4-1.6,0.5
							c-0.7,0.1-1.3,0.2-1.9,0.4c-1.2,0.2-2.4,0.6-3.4,1L-575.1,559.3l-0.1-0.1C-575.2,559.3-575.1,559.3-575.1,559.3z"/>
						<path fill="#A44B48" d="M-561.7,548.7c0.3,0,0.7,0.2,1.1,0.5c0.2,0.2,0.4,0.4,0.7,0.7c0.3,0.2,0.5,0.4,0.8,0.8
							c0.4,0.6,0.8,1.2,1.3,1.7c0.8,1.6,0.7,2.7-0.2,3.4c-1.4,2.4-2.8,4.8-4.3,7.2c-1.5,2.4-3.1,4.7-4.6,7c-0.8,1.2-1.6,2.3-2.3,3.5
							c-0.8,1-1.6,2.1-2.3,3.2c-0.4,1.1-1,1.9-1.9,2.4c0,0-0.1,0-0.1,0c-0.4,0-0.8-0.3-1.1-0.9c-0.6-0.8-1.1-1.5-1.7-2.2
							c-0.4-0.7-0.6-1.3-0.8-1.9c0.1-0.6,0.3-1,0.7-1.3c0.3-0.5,0.7-1,1.1-1.4c0.2-0.1,0.4-0.3,0.6-0.6c0-0.4,0.2-0.7,0.4-0.9
							c0.4-0.4,0.7-0.8,1.1-1.2c0.6-0.3,0.7-0.8,0.4-1.6c-0.5-0.7-1-1.3-1.5-2c-0.7-0.9-1.3-1.8-1.9-2.7l-0.8-1.2
							c-0.2-0.4-0.4-0.8-0.6-1.1c-0.3-0.3-0.5-0.4-0.7-0.4c-0.1,0-0.3,0.1-0.4,0.2c-1.1,0.4-2.2,0.8-3.3,1c-0.6,0.2-1.1,0.4-1.6,0.6
							c-0.2,0.1-0.4,0.1-0.6,0.1c-0.3,0-0.7-0.1-1-0.3c-1-0.8-1.8-1.8-2.4-2.9c-0.4-0.5-0.6-0.9-0.7-1.4c0.1-0.6,0.4-1,1-1
							c1.3-0.3,2.6-0.5,3.9-0.9c2.5-0.8,5.1-1.5,7.7-2.3c2.6-0.8,5.3-1.5,8-2.2c1.3-0.4,2.7-0.8,4.1-1.1c0.6-0.2,1.1-0.4,1.7-0.6
							C-562.1,548.8-561.9,548.7-561.7,548.7 M-575.2,558.7c-0.1,0-0.1,0-0.2,0c-0.2,0-0.4,0.1-0.5,0.3c0,0.2,0.1,0.5,0.4,0.7
							c0.3,0.7,0.7,1.3,1.1,2c0.6,0.8,1.2,1.6,1.8,2.4c0.3,0.8,0.7,1.2,1.3,1.4c0.3-0.3,0.6-0.6,0.8-1.1c0.7-1.1,1.4-2.2,2.1-3.2
							c0.7-1.1,1.4-2.3,2.1-3.4c0.3-0.3,0.5-0.7,0.7-1.2c-0.1-0.3-0.3-0.5-0.5-0.5c-0.1,0-0.3,0.1-0.4,0.2c-0.5,0.2-1,0.3-1.5,0.5
							c-0.7,0.1-1.3,0.2-1.9,0.3c-1.2,0.2-2.4,0.6-3.5,1C-574,558.4-574.6,558.5-575.2,558.7 M-561.7,547.7c-0.4,0-0.7,0.1-1,0.3
							c-0.5,0.2-1,0.4-1.5,0.6c-1.4,0.3-2.7,0.7-4.1,1.1c-2.7,0.7-5.4,1.4-8,2.2c-2.6,0.7-5.2,1.5-7.7,2.3c-1.2,0.3-2.5,0.6-3.7,0.8
							c-1,0.1-1.8,0.7-1.9,1.8l0,0.2l0,0.2c0.1,0.6,0.4,1.2,0.8,1.7c0.7,1.2,1.6,2.2,2.6,3.1l0.1,0l0.1,0c0.5,0.3,1,0.5,1.5,0.5
							c0.4,0,0.7-0.1,1-0.2c0.5-0.2,0.9-0.4,1.4-0.5c1.2-0.3,2.3-0.6,3.4-1l0,0c0.2,0.3,0.3,0.6,0.4,0.8l0,0.1l0,0.1l0.8,1.2
							c0.6,0.9,1.3,1.8,1.9,2.7c0.5,0.6,1,1.2,1.5,1.9c0,0.1,0.1,0.2,0.1,0.3l-0.1,0.1l-0.2,0.2l-0.7,0.8l-0.4,0.4
							c-0.3,0.4-0.5,0.7-0.6,1.2c-0.1,0.1-0.1,0.1-0.2,0.2l-0.1,0.1l-0.1,0.1c-0.4,0.4-0.8,0.9-1.1,1.4c-0.5,0.4-0.9,1.1-1,1.8
							l0,0.2l0.1,0.2c0.2,0.7,0.5,1.4,0.9,2.1l0.1,0.1l0.1,0.1c0.6,0.6,1.1,1.3,1.6,2c0.7,1.1,1.4,1.3,2,1.3c0.1,0,0.2,0,0.3,0
							l0.2,0l0.2-0.1c1-0.6,1.8-1.5,2.3-2.8c0.7-1.1,1.5-2.1,2.2-3.1l0,0l0,0c0.8-1.2,1.5-2.3,2.3-3.5c1.5-2.3,3.1-4.6,4.6-7
							c1.4-2.3,2.8-4.7,4.2-7c0.7-0.7,1.6-2,0.3-4.5l-0.1-0.1l-0.1-0.1c-0.5-0.4-0.9-0.9-1.2-1.5l0,0l0,0c-0.3-0.4-0.6-0.7-0.9-1
							c-0.2-0.2-0.4-0.5-0.6-0.6l0,0l-0.1,0C-560.6,548-561.2,547.7-561.7,547.7L-561.7,547.7z M-574.4,559.5l0.1,0l1.2-0.4
							c1.1-0.4,2.2-0.7,3.4-1c0.6-0.1,1.2-0.3,1.8-0.3l0.1,0l0.1,0c0.1,0,0.3-0.1,0.4-0.1c-0.7,1-1.3,2-1.9,3.1
							c-0.7,1-1.4,2.1-2.1,3.2l0,0l0,0c0,0,0,0.1-0.1,0.1c-0.1-0.1-0.1-0.3-0.2-0.4l0-0.1l-0.1-0.1c-0.6-0.9-1.2-1.7-1.8-2.5
							C-573.9,560.6-574.2,560.1-574.4,559.5L-574.4,559.5z"/>
					</g>
					<g id="XMLID_15_">
						<path fill="#D15C5A" d="M-567,595c-0.2,0-0.5,0-0.7-0.1l-0.1,0l-0.1-0.1c-0.7-0.6-1.3-1.4-1.7-2.5c-0.3-0.4-0.5-0.9-0.6-1.4
							c-0.1-0.3-0.2-0.5-0.4-0.6l-0.2-0.1l0-0.2c-0.1-0.8,0.1-1.5,0.5-1.9c0.6-0.4,1.2-0.7,1.8-0.8c1.1-0.5,2.3-0.9,3.5-1.3
							c2.3-0.9,4.7-1.7,7.1-2.5c2.3-0.9,4.6-1.9,7-2.9c0.5-0.3,1.1-0.6,1.7-0.8c0.6-0.2,1.1-0.4,1.7-0.6c0.2-0.1,0.2-0.4,0.1-1
							c-0.1-0.8-0.3-1.5-0.7-2.1l-0.1-0.1l0-0.2c0-0.2-0.1-0.5-0.3-0.8c-0.3-0.4-0.5-0.8-0.7-1.3c-0.2-0.5-0.3-1-0.4-1.4
							c-0.2-0.4-0.4-0.8-0.5-1.2c-0.1-0.7,0.1-1,0.3-1.3c0.3-0.7,0.8-0.8,1.1-0.8c0.2,0,0.5,0.1,0.8,0.2l0.1,0l0.1,0.1
							c0.5,0.6,1,1.3,1.4,2.2c0.5,0.9,0.9,1.8,1.4,2.8c0.4,1,0.8,2,1.1,3c0.3,0.9,0.7,1.9,1.2,2.8c0.3,0.9,0.7,1.7,1.2,2.6l0.4,1.3
							l0.5,1.6c0.9,1.8,1.7,3.7,2.5,5.7c0.4,1.1,0.4,1.9,0.2,2.5c-0.2,0.4-0.5,0.7-1,0.8l-0.2,0.1l-0.2,0c-1.1-0.3-1.8-1.2-2.2-2.7
							c-0.7-1.4-1.4-2.8-2-4.2c-0.2-0.7-0.5-1.1-0.8-1.3c-0.1,0-0.1,0-0.2,0c-0.4,0-0.8,0.1-1.2,0.4l-0.1,0l-0.1,0
							c-1.3,0.5-2.5,0.9-3.8,1.3c-1.3,0.3-2.5,0.8-3.6,1.3c-1.2,0.6-2.5,1.1-3.8,1.6c-0.6,0.2-1.2,0.4-1.7,0.7l-0.1,0l-0.1,0
							c-0.6,0.1-1.2,0.3-1.8,0.5c-1.2,0.4-2.4,0.9-3.6,1.4l-1.5,0.7C-566.1,594.9-566.5,595-567,595z"/>
						<path fill="#A44B48" d="M-548.8,569.6c0.2,0,0.3,0.1,0.5,0.2c0.5,0.6,1,1.3,1.4,2.1c0.5,0.9,0.9,1.8,1.4,2.8
							c0.4,1,0.8,1.9,1.1,2.9c0.4,0.9,0.8,1.9,1.2,2.9c0.3,0.9,0.7,1.7,1.2,2.6c0.3,0.9,0.6,1.9,0.8,2.8c0.9,1.9,1.7,3.8,2.5,5.7
							c0.5,1.5,0.4,2.4-0.5,2.7c-0.9-0.3-1.6-1.1-1.9-2.4c-0.7-1.4-1.4-2.8-2-4.2c-0.2-0.8-0.6-1.3-1.1-1.6c-0.1,0-0.2,0-0.3,0
							c-0.5,0-1,0.2-1.5,0.5c-1.2,0.5-2.5,0.9-3.8,1.3c-1.3,0.3-2.5,0.8-3.7,1.3c-1.2,0.6-2.5,1.1-3.7,1.5c-0.6,0.2-1.2,0.4-1.7,0.7
							c-0.7,0.1-1.3,0.3-1.9,0.6c-1.2,0.4-2.4,0.9-3.6,1.4c-0.5,0.3-1.1,0.5-1.6,0.8c-0.3,0.3-0.6,0.4-1,0.4c-0.2,0-0.4,0-0.6-0.1
							c-0.6-0.6-1.2-1.3-1.5-2.3c-0.3-0.4-0.4-0.8-0.5-1.3c-0.1-0.4-0.3-0.7-0.6-0.9c-0.1-0.7,0-1.2,0.4-1.6c0.5-0.4,1-0.6,1.6-0.6
							c1.1-0.5,2.3-0.9,3.5-1.4c2.3-0.8,4.7-1.7,7.1-2.5c2.3-0.9,4.7-1.9,7-2.9c0.5-0.3,1.1-0.6,1.7-0.8c0.5-0.2,1.1-0.4,1.7-0.6
							c0.4-0.3,0.6-0.8,0.4-1.6c-0.1-0.8-0.4-1.6-0.8-2.2c0-0.4-0.1-0.7-0.4-1.1c-0.3-0.4-0.5-0.8-0.7-1.2c-0.2-0.5-0.3-1-0.4-1.4
							c-0.2-0.4-0.4-0.8-0.5-1.1c0-0.4,0-0.6,0.2-0.8C-549.3,569.8-549.1,569.6-548.8,569.6 M-548.8,568.6L-548.8,568.6
							c-0.3,0-1.1,0.1-1.5,1c-0.2,0.3-0.5,0.8-0.4,1.5l0,0.1l0,0.1c0.1,0.4,0.3,0.8,0.6,1.2c0.1,0.4,0.2,0.9,0.4,1.3l0,0l0,0
							c0.2,0.4,0.5,0.9,0.7,1.3l0,0l0,0c0.2,0.2,0.2,0.3,0.2,0.4l0,0.3l0.2,0.3c0.3,0.5,0.5,1.1,0.6,1.8l0,0.1l0,0.1
							c0.1,0.3,0.1,0.4,0.1,0.5c-0.5,0.2-1,0.4-1.4,0.5l0,0l0,0c-0.6,0.2-1.2,0.5-1.8,0.8c-2.4,1-4.7,1.9-6.9,2.8
							c-2.4,0.8-4.7,1.7-7.1,2.5c-1.2,0.4-2.3,0.9-3.4,1.3c-0.7,0.1-1.4,0.4-1.9,0.8l-0.1,0.1l-0.1,0.1c-0.5,0.6-0.7,1.3-0.6,2.3
							l0.1,0.5l0.4,0.3c0,0,0.1,0.1,0.1,0.3c0.1,0.5,0.3,1.1,0.6,1.6c0.4,1.1,1,1.9,1.8,2.6l0.2,0.1l0.2,0.1
							c0.3,0.1,0.6,0.1,0.9,0.1c0.6,0,1.1-0.2,1.5-0.5l0.4-0.2l1.1-0.5c1.1-0.5,2.3-1,3.5-1.4l0,0l0,0c0.6-0.2,1.1-0.4,1.7-0.5
							l0.1,0l0.1-0.1c0.5-0.2,1-0.4,1.6-0.6c1.3-0.5,2.6-1,3.8-1.6c1.1-0.5,2.3-1,3.6-1.3c1.3-0.4,2.6-0.8,3.9-1.3l0.1,0l0.1-0.1
							c0.3-0.2,0.5-0.3,0.9-0.3c0,0,0,0,0.1,0c0.2,0.2,0.4,0.5,0.5,0.9l0,0.1l0,0.1c0.6,1.4,1.2,2.8,2,4.2c0.4,1.6,1.3,2.6,2.5,3
							l0.3,0.1l0.3-0.1c0.6-0.2,1-0.6,1.3-1.1c0.3-0.7,0.3-1.7-0.1-2.9c-0.8-2-1.7-3.9-2.5-5.8l-0.5-1.8l-0.3-0.9l0-0.1l0-0.1
							c-0.4-0.8-0.8-1.7-1.1-2.5l0,0l0,0c-0.4-0.9-0.8-1.9-1.2-2.8c-0.3-1-0.7-2-1.1-3c-0.4-1-0.9-1.9-1.4-2.8
							c-0.4-0.9-0.9-1.7-1.5-2.3l-0.1-0.1l-0.1-0.1C-548.1,568.7-548.5,568.6-548.8,568.6L-548.8,568.6z"/>
					</g>
					<g id="XMLID_2_">
						<path fill="#D15C5A" d="M-550.1,631.7c-0.1,0-0.2,0-0.3,0l-0.1,0l-0.1,0c-0.8-0.4-1.3-1.2-1.5-2.3c-0.4-1-0.8-2-1.1-3
							c-0.3-0.7-0.4-1.4-0.3-2l0-0.1l0-0.1c0.2-0.3,0.5-0.6,0.9-0.6c0.3-0.1,0.7-0.2,1.1-0.3c2.3-1.1,4.8-2,7.3-2.9l0.1,0l0.1,0
							c0.1,0,0.2,0,0.3,0c0.4,0,0.8-0.1,1.1-1c-0.1-0.5-0.3-1-0.6-1.5c-0.3-0.8-0.6-1.5-0.8-2.2l-0.9-2.3c-0.2-0.7-0.5-1.3-0.8-2
							c-0.4-0.5-0.8-0.8-1.2-0.8c-0.2,0-0.3,0.1-0.5,0.2l-0.1,0.1l-0.1,0c-2.1,0.6-4.1,1.4-6.1,2.4c-1,0.5-2,0.8-3,1.1
							c-0.1,0-0.2,0.1-0.4,0.1c-0.4,0-0.7-0.2-1-0.5c-0.5-0.7-0.9-1.3-1.1-2l0-0.1l0-0.1c0-0.8-0.3-1.6-0.8-2.4
							c-0.6-1-0.4-1.7-0.2-2.1l0.1-0.1l0.1-0.1c0.5-0.3,1-0.5,1.6-0.6c1.2-0.5,2.3-1,3.5-1.6c1.2-0.6,2.5-1.1,3.9-1.4
							c2.5-0.7,5.1-1.5,7.6-2.5l3.8-1.4c1.3-0.3,2.5-0.8,3.7-1.2c0.4-0.5,0.9-0.8,1.5-0.8c0.7,0,1.4,0.5,2.2,1.5l0,0.1l0,0.1
							c0.3,0.7,0.6,1.5,1,2.2c0.2,0.5,0.4,0.9,0.5,1.4c0.1,0.4,0.2,0.9,0.4,1.5l0,0.1l0,0.1c-0.2,1-0.8,1.3-1.2,1.4
							c-0.6,0.1-1.3,0.3-1.9,0.6l-3.8,1.4l-3.9,1.3c-0.5,0.1-1,0.2-1.4,0.4c-0.2,0.3-0.1,0.9,0.2,1.6l0,0.1l0,0.1
							c0.1,0.4,0.1,0.8,0.3,1.1c0.2,0.4,0.4,0.9,0.6,1.4c0.3,1.1,0.6,2.1,1,3.1c0.2,0.5,0.4,1,0.6,1.5c0.1,0.3,0.2,0.5,0.3,0.7
							c0.1,0,0.1,0,0.2,0c0.3,0,0.5-0.1,0.7-0.2l0.1,0l0.1,0c1.2-0.4,2.4-0.9,3.6-1.4c1.1-0.6,2.5-1.1,3.8-1.4l1.6-0.6
							c0.6-0.4,1.3-0.7,2.1-0.9c0,0,0,0,0,0c0.6,0,1.2,0.3,1.5,1.5c0.2,0.7,0.5,1.5,0.9,2.2c1.1,1.8,1.2,3.4,0.5,4.5l-0.1,0.1
							l-0.2,0.1c-0.5,0.2-1.1,0.3-1.6,0.4c-0.6,0.1-1.3,0.3-1.9,0.6c-1.4,0.3-2.6,0.7-3.8,1.2c-1.3,0.5-2.6,1-3.8,1.4l-3.8,1.1
							c-1.3,0.3-2.6,0.6-3.8,1.1c-1.2,0.5-2.4,1.1-3.5,1.7c-0.6,0.3-1.1,0.6-1.7,0.9C-548.9,631.5-549.5,631.7-550.1,631.7z"/>
						<path fill="#A44B48" d="M-534.2,598c0.5,0,1.1,0.4,1.8,1.3c0.3,0.8,0.6,1.5,1,2.2c0.2,0.4,0.4,0.8,0.4,1.3
							c0.1,0.5,0.3,1,0.4,1.5c-0.1,0.6-0.4,0.9-0.8,0.9c-0.7,0.2-1.4,0.4-2,0.6c-1.3,0.5-2.5,0.9-3.8,1.4c-1.3,0.4-2.6,0.9-3.9,1.3
							c-0.6,0.1-1.1,0.2-1.6,0.5c-0.4,0.5-0.4,1.2,0.1,2.2c0.1,0.4,0.1,0.8,0.3,1.2c0.2,0.4,0.4,0.9,0.6,1.4
							c0.3,1.1,0.6,2.1,1.1,3.1c0.2,0.5,0.4,1,0.6,1.5c0.1,0.4,0.2,0.7,0.5,1c0.2,0,0.3,0.1,0.5,0.1c0.4,0,0.7-0.1,1-0.3
							c1.2-0.4,2.4-0.9,3.6-1.4c1.2-0.6,2.4-1.1,3.8-1.4l1.8-0.6c0.6-0.4,1.2-0.7,1.9-0.8c0.5,0,0.8,0.4,0.9,1.1
							c0.2,0.8,0.5,1.6,0.9,2.4c1,1.7,1.1,3,0.5,4c-0.5,0.2-1,0.3-1.5,0.4c-0.7,0.2-1.4,0.4-2,0.6c-1.3,0.3-2.6,0.7-3.8,1.2
							c-1.3,0.5-2.5,1-3.8,1.4c-1.3,0.4-2.5,0.7-3.8,1.1c-1.3,0.3-2.6,0.6-3.9,1.1c-1.2,0.5-2.4,1.1-3.6,1.7
							c-0.6,0.3-1.1,0.6-1.7,0.8c-0.4,0.3-0.9,0.4-1.4,0.4c-0.1,0-0.2,0-0.3,0c-0.6-0.3-1-1-1.2-1.9c-0.4-1.1-0.8-2.1-1.1-3.1
							c-0.3-0.7-0.4-1.3-0.3-1.8c0.1-0.2,0.3-0.3,0.5-0.4c0.4-0.1,0.7-0.2,1.1-0.3c2.4-1.1,4.8-2.1,7.3-3c0.1,0,0.3,0,0.4,0
							c0.8,0,1.3-0.5,1.6-1.5c-0.2-0.6-0.4-1.2-0.6-1.7c-0.3-0.7-0.5-1.4-0.8-2.1c-0.3-0.8-0.6-1.6-0.9-2.3c-0.2-0.7-0.5-1.4-0.8-2
							c-0.5-0.7-1.1-1-1.6-1c-0.3,0-0.6,0.1-0.8,0.3c-2.1,0.7-4.2,1.5-6.1,2.4c-0.9,0.5-1.9,0.8-2.8,1c-0.1,0-0.2,0.1-0.3,0.1
							c-0.2,0-0.5-0.1-0.7-0.3c-0.4-0.6-0.8-1.2-1-1.8c0-0.9-0.3-1.8-0.9-2.7c-0.4-0.6-0.4-1.1-0.2-1.5c0.4-0.3,0.9-0.5,1.5-0.6
							c1.2-0.5,2.4-1.1,3.5-1.6c1.2-0.6,2.5-1,3.8-1.3c2.6-0.7,5.1-1.5,7.6-2.5l3.8-1.4c1.3-0.3,2.6-0.8,3.9-1.3
							C-535,598.3-534.6,598-534.2,598 M-534.2,597L-534.2,597c-0.5,0-1.1,0.2-1.8,0.9c-1.2,0.5-2.4,0.9-3.5,1.2l0,0l0,0l-3.8,1.4
							c-2.5,1-5,1.8-7.5,2.5c-1.3,0.3-2.7,0.8-3.9,1.4c-1.1,0.5-2.2,1.1-3.4,1.6c-0.7,0.1-1.3,0.3-1.8,0.7l-0.2,0.1l-0.1,0.2
							c-0.4,0.5-0.6,1.4,0.1,2.6c0.5,0.8,0.7,1.5,0.7,2.2l0,0.2l0.1,0.2c0.3,0.7,0.7,1.4,1.1,2l0,0.1l0.1,0.1
							c0.5,0.5,1.1,0.6,1.4,0.6c0.2,0,0.4,0,0.6-0.1c1-0.2,2-0.6,3-1.1c1.9-0.9,3.9-1.7,6-2.4l0.2-0.1l0.1-0.1
							c0.1,0,0.1-0.1,0.2-0.1c0,0,0.3,0,0.7,0.6c0.3,0.6,0.5,1.2,0.7,1.9l0.1,0.3l0.8,2.1c0.2,0.7,0.5,1.4,0.8,2.1l0,0l0,0
							c0.2,0.4,0.4,0.8,0.5,1.3c-0.2,0.5-0.4,0.5-0.6,0.5c-0.1,0-0.2,0-0.2,0l-0.3,0l-0.3,0.1c-2.5,0.9-4.9,1.9-7.3,2.9
							c-0.4,0.1-0.7,0.1-1.1,0.3c-0.5,0.1-0.9,0.4-1.1,0.9l-0.1,0.1l0,0.1c-0.1,0.7,0,1.5,0.3,2.3c0.3,1,0.7,2,1.1,3
							c0.2,1.2,0.8,2,1.7,2.5l0.2,0.1l0.2,0c0.1,0,0.2,0,0.4,0c0.7,0,1.3-0.2,1.9-0.5c0.5-0.3,1.1-0.5,1.6-0.8
							c1.1-0.6,2.3-1.2,3.5-1.7c1.2-0.4,2.4-0.8,3.7-1l0,0l0,0l2.4-0.7l1.4-0.4c1.3-0.4,2.6-0.9,3.9-1.4c1.1-0.5,2.4-0.9,3.6-1.2
							l0.1,0l0.1,0c0.6-0.2,1.2-0.4,1.9-0.5c0.5-0.1,1.1-0.2,1.6-0.4l0.3-0.1l0.2-0.3c0.9-1.4,0.7-3.1-0.5-5.1
							c-0.4-0.7-0.6-1.4-0.8-2.1c-0.4-1.7-1.4-1.9-1.9-1.9l-0.1,0l-0.1,0c-0.8,0.1-1.6,0.4-2.2,0.9l-1.6,0.6
							c-1.4,0.3-2.7,0.8-3.9,1.5c-1.2,0.5-2.4,0.9-3.6,1.3l-0.1,0.1l-0.1,0.1c-0.1,0.1-0.2,0.1-0.3,0.1c0-0.1-0.1-0.2-0.1-0.3l0-0.1
							l0-0.1c-0.2-0.5-0.4-1-0.6-1.5c-0.4-1-0.7-2-1-3l0,0l0,0c-0.2-0.5-0.4-1-0.6-1.5c-0.1-0.3-0.2-0.6-0.2-1l0-0.1l-0.1-0.1
							c-0.2-0.4-0.3-0.8-0.3-1c0.3-0.1,0.7-0.2,1-0.2l0.1,0l0.1,0l2-0.7l1.9-0.6l2.2-0.8l1.7-0.6c0.6-0.2,1.2-0.4,1.9-0.6
							c0.8-0.2,1.4-0.8,1.6-1.8l0-0.2l0-0.2c-0.1-0.5-0.2-1-0.4-1.5c-0.1-0.5-0.3-1-0.5-1.5c-0.4-0.7-0.7-1.4-1-2.1l0-0.1l-0.1-0.1
							C-532.4,597.6-533.3,597-534.2,597L-534.2,597z"/>
					</g>
				</g>
			</g>
		</g>
		<g id="XMLID_127_">
			<g id="XMLID_176_">
				<g>
					<path fill="#0E333D" d="M-390.4,474l-102.5,44c-5.3,2.3-11.4,2-16.5-0.9l-97.4-55.3c-5-2.8-4.5-10.1,0.8-12.3l105.3-42.9
						c3.6-1.5,7.8-1.2,11.2,0.6l99.7,54.4C-384.8,464.4-385.2,471.7-390.4,474z"/>
				</g>
				<g>
					<path fill="#3E3A39" d="M-390.4,472.6l-102.5,44c-5.3,2.3-11.4,2-16.5-0.9l-97.4-55.3c-5-2.8-4.5-10.1,0.8-12.3l105.3-42.9
						c3.6-1.5,7.8-1.2,11.2,0.6l99.7,54.4C-384.8,463-385.2,470.3-390.4,472.6z"/>
				</g>
			</g>
			<g id="XMLID_130_">
				<g>
					<path id="XMLID_10_" fill="#E8BA00" stroke="#E8BA00" stroke-miterlimit="10" d="M-505,482.8c-2-0.7-3.1-1.6-3.2-2.9
						c0-0.6,0.1-1.3,0.3-2.1c0-0.8,0.1-1.5,0.4-2.3c0.7-3.1,1.3-6.2,1.7-9.4c-0.5-2.3,0.1-4.3,2-6.1c1.4-0.7,3.1-1.2,5.1-1.6
						c2.2-0.4,4.3-0.8,6.4-1.4c3.8-1.1,7.5-2.4,10.9-3.8c3-1.6,4.9-3.7,5.7-6.2c0.5-5.2-3.4-9.3-11.6-12.5c-5-1.2-9.7-1.4-14.2-0.6
						c-2.3,0.2-4.3,0.6-6,1.2c-1.9,0.9-3.4,1.9-4.3,3.2c-1.1,1.2-1.9,2.6-2.3,4c0.2,1.1,0,2.1-0.5,3c-1.7,0.6-3.5,0.6-5.7,0.1
						c-2.7,0.2-5.1-0.3-7.1-1.3c-1.5-1.2-1.7-2.3-0.8-3.4c0.7-1.4,1.4-2.8,2.2-4.2c1.5-2.5,4.2-4.4,8.1-5.8
						c7.9-2.1,16.7-2.4,26.4-0.7c9.9,1.6,18.1,4.9,24.4,9.8c3.1,2.7,4.7,5.5,4.6,8.4c0.8,2.7,0.2,5-1.8,7c-1.7,0.8-3.4,1.6-5,2.4
						c-0.8,0.2-1.6,0.5-2.3,0.7c-0.8,0.6-1.7,1-2.7,1.3c-2,0.5-3.9,1-5.7,1.5c-2.3,0.6-4.6,1.1-6.9,1.5c-1.9,0.2-3.3,0.7-4.2,1.5
						c-1.3,1.2-2,2.5-2,4c0,1.6-0.2,3.1-0.6,4.6c-0.6,1.6-0.8,3.1-0.8,4.7c0.7,1.9,0.5,3.6-0.6,5C-498,483.6-501.2,483.7-505,482.8z
						 M-506.9,499.5c-2.3-0.8-3.3-2-3.2-3.6c0-0.9,0.2-1.8,0.4-2.7c-0.2-0.9-0.4-1.8-0.6-2.7c1.1-2.1,3.9-2.8,8.4-2
						c2.2-0.3,4,0.1,5.6,1c0.4,0.9,0.6,1.8,0.4,2.7c-0.1,1-0.1,1.9,0.1,2.8c0.7,1.5,0.3,2.8-1.4,3.8c-1.3,0.3-2.7,0.4-4.3,0.4
						C-503.2,499.4-505,499.5-506.9,499.5z"/>
				</g>
				<g>
					<path id="XMLID_7_" fill="#FFCD02" stroke="#E8BA00" stroke-miterlimit="10" d="M-505,481.4c-2-0.7-3.1-1.6-3.2-2.9
						c0-0.6,0.1-1.3,0.3-2.1c0-0.8,0.1-1.5,0.4-2.3c0.7-3.1,1.3-6.2,1.7-9.4c-0.5-2.3,0.1-4.3,2-6.1c1.4-0.7,3.1-1.2,5.1-1.6
						c2.2-0.4,4.3-0.8,6.4-1.4c3.8-1.1,7.5-2.4,10.9-3.8c3-1.6,4.9-3.7,5.7-6.2c0.5-5.2-3.4-9.3-11.6-12.5c-5-1.2-9.7-1.4-14.2-0.6
						c-2.3,0.2-4.3,0.6-6,1.2c-1.9,0.9-3.4,1.9-4.3,3.2c-1.1,1.2-1.9,2.6-2.3,4c0.2,1.1,0,2.1-0.5,3c-1.7,0.6-3.5,0.6-5.7,0.1
						c-2.7,0.2-5.1-0.3-7.1-1.3c-1.5-1.2-1.7-2.3-0.8-3.4c0.7-1.4,1.4-2.8,2.2-4.2c1.5-2.5,4.2-4.4,8.1-5.8
						c7.9-2.1,16.7-2.4,26.4-0.7c9.9,1.6,18.1,4.9,24.4,9.8c3.1,2.7,4.7,5.5,4.6,8.4c0.8,2.7,0.2,5-1.8,7c-1.7,0.8-3.4,1.6-5,2.4
						c-0.8,0.2-1.6,0.5-2.3,0.7c-0.8,0.6-1.7,1-2.7,1.3c-2,0.5-3.9,1-5.7,1.5c-2.3,0.6-4.6,1.1-6.9,1.5c-1.9,0.2-3.3,0.7-4.2,1.5
						c-1.3,1.2-2,2.5-2,4c0,1.6-0.2,3.1-0.6,4.6c-0.6,1.6-0.8,3.1-0.8,4.7c0.7,1.9,0.5,3.6-0.6,5C-498,482.2-501.2,482.3-505,481.4z
						 M-506.9,498.1c-2.3-0.8-3.3-2-3.2-3.6c0-0.9,0.2-1.8,0.4-2.7c-0.2-0.9-0.4-1.8-0.6-2.7c1.1-2.1,3.9-2.8,8.4-2
						c2.2-0.3,4,0.1,5.6,1c0.4,0.9,0.6,1.8,0.4,2.7c-0.1,1-0.1,1.9,0.1,2.8c0.7,1.5,0.3,2.8-1.4,3.8c-1.3,0.3-2.7,0.4-4.3,0.4
						C-503.2,498-505,498.1-506.9,498.1z"/>
				</g>
			</g>
		</g>
	</g>
</g>
</svg>
