<?xml version="1.0" encoding="utf-8"?>
<!-- Generator: Adobe Illustrator 19.0.0, SVG Export Plug-In . SVG Version: 6.00 Build 0)  -->
<svg version="1.2" baseProfile="tiny" id="圖層_1"
	 xmlns="http://www.w3.org/2000/svg" xmlns:xlink="http://www.w3.org/1999/xlink" x="0px" y="0px" viewBox="-732 310 453.5 462"
	 xml:space="preserve">
<g id="XMLID_185_">
	<g id="XMLID_639_">
		<g id="XMLID_640_">
			<g id="XMLID_659_">
				<g>
					<path fill="#8C6239" d="M-363.5,772H-647c-47,0-85-38.1-85-85V403.5c0-47,38.1-85,85-85h283.5c47,0,85,38.1,85,85V687
						C-278.5,734-316.6,772-363.5,772z"/>
				</g>
				<g>
					<path fill="#BB7434" d="M-363.5,763.5H-647c-47,0-85-38.1-85-85V395c0-47,38.1-85,85-85h283.5c47,0,85,38.1,85,85v283.5
						C-278.5,725.5-316.6,763.5-363.5,763.5z"/>
				</g>
			</g>
			<path id="XMLID_658_" fill="#623F1E" d="M-382.2,729.4h-246.1c-38.4,0-69.6-31.2-69.6-69.6V413.7c0-38.4,31.2-69.6,69.6-69.6
				h246.1c38.4,0,69.6,31.2,69.6,69.6v246.1C-312.6,698.3-343.8,729.4-382.2,729.4z"/>
		</g>
	</g>
	<g id="XMLID_186_">
		<g id="XMLID_452_">
			<g id="XMLID_627_">
				<g>
					<path fill="#DBDCDC" d="M-532.5,650.7c-0.5,0-1,0-1.5-0.1l-82.7-7.5c-4.2-0.4-8-2.4-10.7-5.6c-2.7-3.2-4-7.4-3.6-11.6
						l16.8-184.8c0.7-8.2,7.5-14.4,15.7-14.4c0.5,0,1,0,1.4,0.1l82.7,7.5c4.2,0.4,8,2.4,10.7,5.6c2.7,3.2,4,7.4,3.6,11.6
						l-16.8,184.8C-517.5,644.5-524.2,650.7-532.5,650.7z"/>
					<path fill="#DBDCDC" d="M-598.4,430.2c0.4,0,0.8,0,1.1,0.1l82.7,7.5c6.8,0.6,11.8,6.6,11.2,13.4L-520.2,636
						c-0.6,6.4-6,11.2-12.3,11.2c-0.4,0-0.8,0-1.1-0.1l-82.7-7.5c-6.8-0.6-11.8-6.6-11.2-13.4l16.8-184.8
						C-610,435-604.7,430.2-598.4,430.2 M-598.4,423.2L-598.4,423.2c-10,0-18.3,7.6-19.2,17.6l-16.8,184.8
						c-0.5,5.1,1.1,10.2,4.4,14.1c3.3,4,8,6.4,13.1,6.9l82.7,7.5c0.6,0.1,1.2,0.1,1.8,0.1c10,0,18.3-7.6,19.2-17.6l16.8-184.8
						c1-10.6-6.9-20-17.5-21l-82.7-7.5C-597.2,423.2-597.8,423.2-598.4,423.2L-598.4,423.2z"/>
				</g>
				<g>
					<path fill="#F7F7F7" d="M-532.5,645c-0.5,0-1,0-1.5-0.1l-82.7-7.5c-4.2-0.4-8-2.4-10.7-5.6c-2.7-3.2-4-7.4-3.6-11.6l16.8-184.8
						c0.7-8.2,7.5-14.4,15.7-14.4c0.5,0,1,0,1.4,0.1l82.7,7.5c4.2,0.4,8,2.4,10.7,5.6c2.7,3.2,4,7.4,3.6,11.6l-16.8,184.8
						C-517.5,638.8-524.2,645-532.5,645z"/>
					<path fill="#F7F7F7" d="M-598.4,424.5c0.4,0,0.8,0,1.1,0.1l82.7,7.5c6.8,0.6,11.8,6.6,11.2,13.4l-16.8,184.8
						c-0.6,6.4-6,11.2-12.3,11.2c-0.4,0-0.8,0-1.1-0.1l-82.7-7.5c-6.8-0.6-11.8-6.6-11.2-13.4l16.8-184.8
						C-610,429.4-604.7,424.5-598.4,424.5 M-598.4,417.5L-598.4,417.5c-10,0-18.3,7.6-19.2,17.6l-16.8,184.8
						c-0.5,5.1,1.1,10.2,4.4,14.1c3.3,4,8,6.4,13.1,6.9l82.7,7.5c0.6,0.1,1.2,0.1,1.8,0.1c10,0,18.3-7.6,19.2-17.6l16.8-184.8
						c1-10.6-6.9-20-17.5-21l-82.7-7.5C-597.2,417.6-597.8,417.5-598.4,417.5L-598.4,417.5z"/>
				</g>
			</g>
			<g id="XMLID_620_">
				<g>
					<path fill="#8C6239" d="M-533.6,644.3l-82.7-7.5c-6.8-0.6-11.8-6.6-11.2-13.4l16.8-184.8c0.6-6.8,6.6-11.8,13.4-11.2l82.7,7.5
						c6.8,0.6,11.8,6.6,11.2,13.4l-16.8,184.8C-520.8,639.9-526.8,644.9-533.6,644.3z"/>
				</g>
				<g>
					<path fill="#BB7434" d="M-533.6,641.4l-82.7-7.5c-6.8-0.6-11.8-6.6-11.2-13.4l16.8-184.8c0.6-6.8,6.6-11.8,13.4-11.2l82.7,7.5
						c6.8,0.6,11.8,6.6,11.2,13.4l-16.8,184.8C-520.8,637.1-526.8,642.1-533.6,641.4z"/>
				</g>
			</g>
			<g id="XMLID_614_">
				<g>
					<path fill="#603C1E" d="M-520.8,551.6L-520.8,551.6c-1.6-0.1-2.7-1.5-2.6-3.1l1.6-17.5c0.1-1.6,1.5-2.7,3.1-2.6l0,0
						c1.6,0.1,2.7,1.5,2.6,3.1l-1.6,17.5C-517.8,550.6-519.2,551.8-520.8,551.6z"/>
				</g>
				<g>
					<path fill="#754C24" d="M-520.8,548.8L-520.8,548.8c-1.6-0.1-2.7-1.5-2.6-3.1l1.6-17.5c0.1-1.6,1.5-2.7,3.1-2.6l0,0
						c1.6,0.1,2.7,1.5,2.6,3.1l-1.6,17.5C-517.8,547.7-519.2,548.9-520.8,548.8z"/>
				</g>
			</g>
			<g id="XMLID_453_">
				<g id="XMLID_506_">
					<g>
						<path fill="#DBDCDC" d="M-529.8,506.6c-0.3,0-0.6,0-0.8,0l-56.2-5.1c-2.3-0.2-4.1-1.2-5.5-2.8c-1.4-1.7-2-3.6-1.8-5.8
							c0.2-2.2,1.1-4,2.8-5.4c1.5-1.2,3.2-1.8,5.1-1.8c0.3,0,0.6,0,0.8,0l18.6,1.7l0.6-6.1l-22.9-2.1c-2.2-0.2-4.1-1.1-5.5-2.8
							c-1.5-1.7-2.1-3.7-1.9-6c0.2-2.3,1.2-4.1,2.9-5.5c1.5-1.2,3.2-1.8,5.1-1.8c0.3,0,0.6,0,0.8,0l22.9,2.1l0.3-3
							c0.2-2.6,1.4-4.8,3.3-6.4c1.7-1.4,3.7-2.2,5.9-2.2c0.3,0,0.6,0,1,0c2.6,0.2,4.8,1.4,6.5,3.3c1.7,2,2.5,4.3,2.2,6.9l-0.3,3
							l21.9,2c2.2,0.2,4.1,1.1,5.5,2.8c1.5,1.7,2.1,3.7,1.9,6c-0.2,2.3-1.2,4.1-2.9,5.5c-1.5,1.2-3.2,1.8-5.1,1.8
							c-0.3,0-0.6,0-0.8,0l-21.9-2l-0.6,6.2l18.6,1.7c2.3,0.2,4.1,1.2,5.5,2.8c1.4,1.7,2,3.6,1.8,5.8c-0.2,2.2-1.1,4-2.8,5.4
							C-526.2,506-527.9,506.6-529.8,506.6z"/>
						<path fill="#DBDCDC" d="M-555.2,455.6c0.3,0,0.5,0,0.8,0c2.1,0.2,3.8,1.1,5.1,2.6c1.4,1.6,1.9,3.4,1.8,5.4l-0.3,3.6
							c-0.1,0.9,0.3,1.4,1.1,1.5l22.7,2.1c1.7,0.2,3.1,0.9,4.2,2.1c1.1,1.3,1.6,2.7,1.4,4.5s-0.9,3.1-2.2,4.1
							c-1.1,0.9-2.4,1.3-3.9,1.3c-0.2,0-0.4,0-0.7,0l-22.7-2.1c-0.1,0-0.1,0-0.2,0c-0.7,0-1.1,0.4-1.2,1.3l-0.7,7.4
							c-0.1,0.9,0.3,1.4,1.1,1.5l19.4,1.8c1.7,0.2,3.1,0.9,4.1,2.1c1,1.2,1.5,2.7,1.3,4.4c-0.2,1.7-0.9,3-2.1,4.1
							c-1.1,0.9-2.3,1.4-3.8,1.4c-0.2,0-0.4,0-0.7,0l-56.2-5.1c-1.7-0.2-3.1-0.9-4.1-2.1c-1-1.2-1.5-2.7-1.3-4.4
							c0.2-1.7,0.9-3,2.1-4.1c1.1-0.9,2.3-1.4,3.8-1.4c0.2,0,0.4,0,0.7,0l19.2,1.8c0.1,0,0.2,0,0.2,0c0.8,0,1.2-0.4,1.3-1.3l0.7-7.4
							c0.1-0.9-0.3-1.4-1.2-1.5l-23.5-2.1c-1.7-0.2-3.1-0.9-4.2-2.1c-1.1-1.3-1.6-2.7-1.4-4.5s0.9-3.1,2.2-4.1
							c1.1-0.9,2.4-1.3,3.9-1.3c0.2,0,0.4,0,0.7,0l23.5,2.1c0.1,0,0.2,0,0.2,0c0.8,0,1.2-0.4,1.3-1.3l0.3-3.6c0.2-2.1,1.1-3.7,2.6-5
							C-558.5,456.2-556.9,455.6-555.2,455.6 M-555.2,451.6L-555.2,451.6c-2.7,0-5.1,0.9-7.2,2.6c-2.4,2-3.8,4.7-4,7.8l-0.1,1
							l-20.9-1.9c-0.3,0-0.7,0-1,0c-2.4,0-4.5,0.7-6.4,2.2c-2.2,1.7-3.4,4.1-3.7,6.9c-0.3,2.8,0.6,5.4,2.4,7.5
							c1.8,2,4.1,3.2,6.9,3.5l20.9,1.9l-0.2,2.2l-16.6-1.5c-0.3,0-0.7,0-1,0c-2.4,0-4.6,0.8-6.4,2.3c-2.1,1.7-3.3,4.1-3.5,6.8
							c-0.2,2.7,0.5,5.2,2.2,7.3c1.7,2.1,4.1,3.3,6.8,3.5l56.2,5.1c0.3,0,0.7,0,1,0c2.4,0,4.6-0.8,6.3-2.3c2.1-1.7,3.3-4.1,3.5-6.8
							c0.2-2.7-0.5-5.2-2.2-7.3c-1.7-2.1-4.1-3.3-6.9-3.5l-16.6-1.5l0.2-2.2l19.9,1.8c0.3,0,0.7,0,1,0c2.4,0,4.5-0.7,6.4-2.2
							c2.2-1.7,3.4-4.1,3.7-6.9c0.3-2.8-0.6-5.4-2.4-7.5c-1.8-2-4.1-3.2-6.9-3.5l-19.9-1.8l0.1-1c0.3-3.1-0.7-6-2.7-8.4
							c-2-2.3-4.7-3.7-7.8-4C-554.4,451.6-554.8,451.6-555.2,451.6L-555.2,451.6z"/>
						<path fill="#DBDCDC" d="M-543,621.1c-0.3,0-0.7,0-1,0l-3.4-0.3c-1.7-0.2-3.1-0.9-4.1-2.1c-0.7-0.8-1.1-1.8-1.3-2.9l-31.7-2.9
							c-0.3,1-0.9,1.9-1.8,2.6c-1.1,0.9-2.3,1.3-3.8,1.3c-0.2,0-0.4,0-0.6,0l-3.3-0.3c-2.6-0.2-4.8-1.4-6.4-3.3
							c-1.6-2-2.4-4.3-2.1-6.9l2.1-23.2c0.3-3.3,1.8-6,4.4-8.2c2.3-1.9,4.9-2.9,7.7-2.9c0.4,0,0.8,0,1.2,0.1l44.7,4.1
							c3.3,0.3,6,1.8,8.2,4.4c2.2,2.6,3.1,5.6,2.8,8.9l-2.1,23c-0.2,2.6-1.4,4.8-3.3,6.5C-538.6,620.3-540.7,621.1-543,621.1
							C-543,621.1-543,621.1-543,621.1z M-551.6,600.6l1-10.4l-31.4-2.9l-1,10.4L-551.6,600.6z"/>
						<path fill="#DBDCDC" d="M-588.3,574c0.3,0,0.7,0,1,0l44.7,4.1c2.7,0.3,5,1.5,6.9,3.7c1.8,2.2,2.6,4.7,2.4,7.4l-2.1,23
							c-0.2,2.1-1.1,3.8-2.6,5.1c-1.4,1.2-3,1.8-4.8,1.8c-0.3,0-0.5,0-0.8,0l-3.4-0.3c-1.1-0.1-2.1-0.6-2.7-1.4
							c-0.7-0.8-1-1.8-0.9-2.9c0-0.3-0.1-0.5-0.5-0.6l-34.4-3.1c0,0-0.1,0-0.1,0c-0.3,0-0.5,0.2-0.5,0.5c-0.1,1.1-0.6,2.1-1.4,2.7
							c-0.7,0.6-1.5,0.9-2.5,0.9c-0.1,0-0.3,0-0.4,0l-3.3-0.3c-2.1-0.2-3.7-1.1-5-2.6c-1.3-1.6-1.9-3.4-1.7-5.4l2.1-23.2
							c0.3-2.7,1.5-5,3.7-6.9C-592.8,574.8-590.7,574-588.3,574 M-550.9,602.6c0.8,0,1.2-0.4,1.3-1.3l1.1-11.9
							c0.1-0.8-0.3-1.2-1.3-1.3l-32.6-3c-0.1,0-0.2,0-0.2,0c-0.8,0-1.2,0.4-1.2,1.1l-1.1,11.9c-0.1,0.9,0.3,1.4,1.2,1.5l32.6,3
							C-551.1,602.6-551,602.6-550.9,602.6 M-588.3,570c-3.3,0-6.3,1.1-9,3.3c-3,2.5-4.7,5.7-5.1,9.6l-2.1,23.2
							c-0.3,3.1,0.6,6,2.6,8.4c2,2.4,4.7,3.8,7.8,4l3.3,0.3c0.3,0,0.5,0,0.8,0c1.9,0,3.6-0.6,5-1.8c0.7-0.6,1.3-1.3,1.7-2l28.9,2.6
							c0.3,0.8,0.8,1.6,1.3,2.3c1.4,1.6,3.2,2.6,5.4,2.8l3.4,0.3c0.4,0,0.8,0.1,1.2,0.1c2.8,0,5.3-0.9,7.4-2.8c2.3-2,3.7-4.7,4-7.8
							l2.1-23c0.3-3.8-0.8-7.3-3.3-10.3c-2.5-3-5.7-4.7-9.6-5.1l-44.7-4.1C-587.4,570-587.9,570-588.3,570L-588.3,570z
							 M-580.8,595.9l0.6-6.5l27.4,2.5l-0.6,6.5L-580.8,595.9L-580.8,595.9z"/>
						<path fill="#DBDCDC" d="M-532.6,573.5c-0.3,0-0.5,0-0.8,0l-66-6c-2.3-0.2-4.1-1.2-5.6-2.9s-2.1-3.7-1.9-5.9s1.2-4,2.9-5.5
							c1.5-1.3,3.3-1.9,5.2-1.9c0.3,0,0.5,0,0.8,0l11.8,1.1c-0.5-1.9-1.1-3.9-1.7-5.8c-0.5-1.5-0.4-2.9,0.3-4.3
							c-1.8-0.7-3.4-1.9-4.8-3.6c-2.2-2.6-3.1-5.6-2.8-8.9l1.2-13.6c0.3-3.3,1.8-6,4.4-8.2c2.3-1.9,4.9-2.9,7.7-2.9
							c0.4,0,0.8,0,1.2,0.1l43.8,4c3.3,0.3,6,1.8,8.2,4.4c2.2,2.6,3.1,5.6,2.8,8.9l-1.3,14.6c-0.3,3.1-1.6,5.6-4,7.6
							c-1.5,1.3-3.2,2.1-5.1,2.4c0.1,0.9-0.1,1.9-0.6,2.7c-0.7,1.1-1.6,2.6-2.7,4.7c-0.5,0.9-0.9,1.6-1.2,2.1l8.9,0.8
							c2.3,0.2,4.1,1.2,5.6,2.9c1.4,1.7,2.1,3.7,1.9,5.9c-0.2,2.2-1.2,4-2.9,5.5C-528.9,572.9-530.7,573.5-532.6,573.5
							C-532.6,573.5-532.6,573.5-532.6,573.5z M-558.7,554.9c1.7-3.5,3.2-6.6,4.3-9.1l-17-1.5c1.2,3.2,2.2,6.5,2.9,9.8L-558.7,554.9
							z M-545.8,531.5l0.7-8.2l-31.1-2.8l-0.7,8.2L-545.8,531.5z"/>
						<path fill="#DBDCDC" d="M-581.9,507.2c0.3,0,0.7,0,1,0l43.8,4c2.7,0.3,5,1.5,6.9,3.7c1.8,2.2,2.6,4.7,2.4,7.4l-1.3,14.6
							c-0.2,2.5-1.3,4.6-3.2,6.2c-1.7,1.4-3.6,2.1-5.8,2.1c-0.3,0-0.6,0-0.9,0l-0.7-0.1c0.7,0.3,1.1,0.8,1.4,1.5
							c0.3,0.7,0.2,1.4-0.2,2.1c-0.7,1.1-1.6,2.7-2.8,4.8c-1.2,2.1-1.9,3.3-2.1,3.6c-0.1,0.2-0.1,0.5,0,0.8c0.1,0.3,0.4,0.5,0.7,0.5
							l10.7,1c1.7,0.2,3.1,0.9,4.2,2.2c1.1,1.3,1.6,2.8,1.4,4.5c-0.2,1.7-0.9,3-2.2,4.1c-1.1,1-2.5,1.4-3.9,1.4c-0.2,0-0.4,0-0.6,0
							l-66-6c-1.7-0.2-3.1-0.9-4.2-2.2c-1.1-1.3-1.6-2.8-1.4-4.5c0.2-1.7,0.9-3,2.2-4.1c1.1-1,2.5-1.4,3.9-1.4c0.2,0,0.4,0,0.6,0
							l13.1,1.2c0,0,0.1,0,0.1,0c0.3,0,0.5-0.1,0.7-0.4c0.2-0.3,0.3-0.6,0.3-0.9c-0.6-2.4-1.3-4.8-2.1-7.3c-0.4-1.1-0.2-2.1,0.4-3
							c0.6-0.9,1.4-1.5,2.5-1.6l0-0.2l-0.9-0.1c-2.7-0.3-5-1.5-6.9-3.7c-1.8-2.2-2.6-4.7-2.4-7.4l1.2-13.6c0.3-2.7,1.5-5,3.7-6.9
							C-586.4,508-584.3,507.2-581.9,507.2 M-545.1,533.5c0.8,0,1.2-0.4,1.2-1.1l0.9-9.8c0.1-0.8-0.3-1.2-1.3-1.3l-32.3-2.9
							c-0.1,0-0.2,0-0.2,0c-0.8,0-1.2,0.4-1.2,1.1l-0.9,9.8c-0.1,0.8,0.3,1.2,1.3,1.3l32.3,2.9
							C-545.3,533.5-545.2,533.5-545.1,533.5 M-558.6,556.9c0.7,0,1.2-0.4,1.6-1.1c2.1-4.3,3.8-7.9,5-10.6c0.1-0.3,0.1-0.6-0.1-0.9
							c-0.2-0.3-0.4-0.4-0.7-0.4l-20.4-1.9c0,0,0,0-0.1,0c-0.2,0-0.4,0.1-0.6,0.3c-0.2,0.2-0.2,0.5-0.2,0.9
							c1.5,3.7,2.7,7.5,3.5,11.2c0.1,0.9,0.6,1.4,1.4,1.5l10.3,0.9C-558.7,556.9-558.6,556.9-558.6,556.9 M-581.9,503.2
							L-581.9,503.2c-3.3,0-6.3,1.1-9,3.3c-3,2.5-4.7,5.7-5.1,9.6l-1.2,13.6c-0.3,3.8,0.8,7.3,3.3,10.3c1.1,1.4,2.4,2.5,3.9,3.3
							c-0.3,1.3-0.2,2.6,0.3,3.9c0.3,1,0.6,2,0.9,3l-8.9-0.8c-0.3,0-0.7,0-1,0c-2.4,0-4.6,0.8-6.5,2.4c-2.1,1.8-3.4,4.1-3.6,6.8
							c-0.2,2.7,0.6,5.3,2.3,7.4c1.8,2.1,4.2,3.4,6.9,3.6l66,6c0.3,0,0.7,0,1,0c2.4,0,4.6-0.8,6.5-2.4c2.1-1.8,3.4-4.1,3.6-6.8
							c0.2-2.7-0.6-5.3-2.3-7.4c-1.8-2.1-4.2-3.4-6.9-3.6l-5.8-0.5c1-1.7,1.8-3.1,2.3-4c0.4-0.7,0.7-1.4,0.9-2.2
							c1.6-0.5,3.1-1.3,4.4-2.5c2.7-2.3,4.3-5.4,4.7-8.9l1.3-14.6c0.3-3.8-0.8-7.3-3.3-10.3c-2.5-3-5.7-4.7-9.6-5.1l-43.8-4
							C-581,503.2-581.5,503.2-581.9,503.2L-581.9,503.2z M-574.7,526.8l0.4-4.2l27.1,2.5l-0.4,4.2L-574.7,526.8L-574.7,526.8z
							 M-566.9,552.1c-0.4-1.9-1-3.8-1.6-5.6l11.1,1c-0.7,1.6-1.6,3.3-2.5,5.2L-566.9,552.1L-566.9,552.1z"/>
					</g>
					<g>
						<g id="XMLID_29_">
							<path fill="#D15C5A" d="M-529.8,503.8c-0.3,0-0.6,0-0.8,0l-56.2-5.1c-2.3-0.2-4.1-1.2-5.5-2.8c-1.4-1.7-2-3.6-1.8-5.8
								c0.2-2.2,1.1-4,2.8-5.4c1.5-1.2,3.2-1.8,5.1-1.8c0.3,0,0.6,0,0.8,0l18.6,1.7l0.6-6.1l-22.9-2.1c-2.2-0.2-4.1-1.1-5.5-2.8
								c-1.5-1.7-2.1-3.7-1.9-6c0.2-2.3,1.2-4.1,2.9-5.5c1.5-1.2,3.2-1.8,5.1-1.8c0.3,0,0.6,0,0.8,0l22.9,2.1l0.3-3
								c0.2-2.6,1.4-4.8,3.3-6.4c1.7-1.4,3.7-2.2,5.9-2.2c0.3,0,0.6,0,1,0c2.6,0.2,4.8,1.4,6.5,3.3c1.7,2,2.5,4.3,2.2,6.9l-0.3,3
								l21.9,2c2.2,0.2,4.1,1.1,5.5,2.8c1.5,1.7,2.1,3.7,1.9,6c-0.2,2.3-1.2,4.1-2.9,5.5c-1.5,1.2-3.2,1.8-5.1,1.8
								c-0.3,0-0.6,0-0.8,0l-21.9-2l-0.6,6.2l18.6,1.7c2.3,0.2,4.1,1.2,5.5,2.8c1.4,1.7,2,3.6,1.8,5.8c-0.2,2.2-1.1,4-2.8,5.4
								C-526.2,503.2-527.9,503.8-529.8,503.8z"/>
							<path fill="#F7F7F7" d="M-555.2,452.8c0.3,0,0.5,0,0.8,0c2.1,0.2,3.8,1.1,5.1,2.6c1.4,1.6,1.9,3.4,1.8,5.4l-0.3,3.6
								c-0.1,0.9,0.3,1.4,1.1,1.5l22.7,2.1c1.7,0.2,3.1,0.9,4.2,2.1c1.1,1.3,1.6,2.7,1.4,4.5s-0.9,3.1-2.2,4.1
								c-1.1,0.9-2.4,1.3-3.9,1.3c-0.2,0-0.4,0-0.7,0l-22.7-2.1c-0.1,0-0.1,0-0.2,0c-0.7,0-1.1,0.4-1.2,1.3l-0.7,7.4
								c-0.1,0.9,0.3,1.4,1.1,1.5l19.4,1.8c1.7,0.2,3.1,0.9,4.1,2.1c1,1.2,1.5,2.7,1.3,4.4c-0.2,1.7-0.9,3-2.1,4.1
								c-1.1,0.9-2.3,1.4-3.8,1.4c-0.2,0-0.4,0-0.7,0l-56.2-5.1c-1.7-0.2-3.1-0.9-4.1-2.1c-1-1.2-1.5-2.7-1.3-4.4
								c0.2-1.7,0.9-3,2.1-4.1c1.1-0.9,2.3-1.4,3.8-1.4c0.2,0,0.4,0,0.7,0l19.2,1.8c0.1,0,0.2,0,0.2,0c0.8,0,1.2-0.4,1.3-1.3
								l0.7-7.4c0.1-0.9-0.3-1.4-1.2-1.5l-23.5-2.1c-1.7-0.2-3.1-0.9-4.2-2.1c-1.1-1.3-1.6-2.7-1.4-4.5s0.9-3.1,2.2-4.1
								c1.1-0.9,2.4-1.3,3.9-1.3c0.2,0,0.4,0,0.7,0l23.5,2.1c0.1,0,0.2,0,0.2,0c0.8,0,1.2-0.4,1.3-1.3l0.3-3.6
								c0.2-2.1,1.1-3.7,2.6-5C-558.5,453.3-556.9,452.8-555.2,452.8 M-555.2,448.8L-555.2,448.8c-2.7,0-5.1,0.9-7.2,2.6
								c-2.4,2-3.8,4.7-4,7.8l-0.1,1l-20.9-1.9c-0.3,0-0.7,0-1,0c-2.4,0-4.5,0.7-6.4,2.2c-2.2,1.7-3.4,4.1-3.7,6.9
								c-0.3,2.8,0.6,5.4,2.4,7.5c1.8,2,4.1,3.2,6.9,3.5l20.9,1.9l-0.2,2.2l-16.6-1.5c-0.3,0-0.7,0-1,0c-2.4,0-4.6,0.8-6.4,2.3
								c-2.1,1.7-3.3,4.1-3.5,6.8c-0.2,2.7,0.5,5.2,2.2,7.3c1.7,2.1,4.1,3.3,6.8,3.5l56.2,5.1c0.3,0,0.7,0,1,0
								c2.4,0,4.6-0.8,6.3-2.3c2.1-1.7,3.3-4.1,3.5-6.8c0.2-2.7-0.5-5.2-2.2-7.3c-1.7-2.1-4.1-3.3-6.9-3.5l-16.6-1.5l0.2-2.2
								l19.9,1.8c0.3,0,0.7,0,1,0c2.4,0,4.5-0.7,6.4-2.2c2.2-1.7,3.4-4.1,3.7-6.9c0.3-2.8-0.6-5.4-2.4-7.5c-1.8-2-4.1-3.2-6.9-3.5
								l-19.9-1.8l0.1-1c0.3-3.1-0.7-6-2.7-8.4c-2-2.3-4.7-3.7-7.8-4C-554.4,448.8-554.8,448.8-555.2,448.8L-555.2,448.8z"/>
						</g>
						<g id="XMLID_28_">
							<path fill="#D15C5A" d="M-543,618.3c-0.3,0-0.7,0-1,0l-3.4-0.3c-1.7-0.2-3.1-0.9-4.1-2.1c-0.7-0.8-1.1-1.8-1.3-2.9l-31.7-2.9
								c-0.3,1-0.9,1.9-1.8,2.6c-1.1,0.9-2.3,1.3-3.8,1.3c-0.2,0-0.4,0-0.6,0l-3.3-0.3c-2.6-0.2-4.8-1.4-6.4-3.3
								c-1.6-2-2.4-4.3-2.1-6.9l2.1-23.2c0.3-3.3,1.8-6,4.4-8.2c2.3-1.9,4.9-2.9,7.7-2.9c0.4,0,0.8,0,1.2,0.1l44.7,4.1
								c3.3,0.3,6,1.8,8.2,4.4c2.2,2.6,3.1,5.6,2.8,8.9l-2.1,23c-0.2,2.6-1.4,4.8-3.3,6.5C-538.6,617.5-540.7,618.3-543,618.3
								C-543,618.3-543,618.3-543,618.3z M-551.6,597.7l1-10.4l-31.4-2.9l-1,10.4L-551.6,597.7z"/>
							<path fill="#F7F7F7" d="M-588.3,571.2c0.3,0,0.7,0,1,0l44.7,4.1c2.7,0.3,5,1.5,6.9,3.7c1.8,2.2,2.6,4.7,2.4,7.4l-2.1,23
								c-0.2,2.1-1.1,3.8-2.6,5.1c-1.4,1.2-3,1.8-4.8,1.8c-0.3,0-0.5,0-0.8,0l-3.4-0.3c-1.1-0.1-2.1-0.6-2.7-1.4
								c-0.7-0.8-1-1.8-0.9-2.9c0-0.3-0.1-0.5-0.5-0.6l-34.4-3.1c0,0-0.1,0-0.1,0c-0.3,0-0.5,0.2-0.5,0.5c-0.1,1.1-0.6,2.1-1.4,2.7
								c-0.7,0.6-1.5,0.9-2.5,0.9c-0.1,0-0.3,0-0.4,0l-3.3-0.3c-2.1-0.2-3.7-1.1-5-2.6c-1.3-1.6-1.9-3.4-1.7-5.4l2.1-23.2
								c0.3-2.7,1.5-5,3.7-6.9C-592.8,572-590.7,571.2-588.3,571.2 M-550.9,599.8c0.8,0,1.2-0.4,1.3-1.3l1.1-11.9
								c0.1-0.8-0.3-1.2-1.3-1.3l-32.6-3c-0.1,0-0.2,0-0.2,0c-0.8,0-1.2,0.4-1.2,1.1l-1.1,11.9c-0.1,0.9,0.3,1.4,1.2,1.5l32.6,3
								C-551.1,599.8-551,599.8-550.9,599.8 M-588.3,567.2c-3.3,0-6.3,1.1-9,3.3c-3,2.5-4.7,5.7-5.1,9.6l-2.1,23.2
								c-0.3,3.1,0.6,6,2.6,8.4c2,2.4,4.7,3.8,7.8,4l3.3,0.3c0.3,0,0.5,0,0.8,0c1.9,0,3.6-0.6,5-1.8c0.7-0.6,1.3-1.3,1.7-2l28.9,2.6
								c0.3,0.8,0.8,1.6,1.3,2.3c1.4,1.6,3.2,2.6,5.4,2.8l3.4,0.3c0.4,0,0.8,0.1,1.2,0.1c2.8,0,5.3-0.9,7.4-2.8c2.3-2,3.7-4.7,4-7.8
								l2.1-23c0.3-3.8-0.8-7.3-3.3-10.3c-2.5-3-5.7-4.7-9.6-5.1l-44.7-4.1C-587.4,567.2-587.9,567.2-588.3,567.2L-588.3,567.2z
								 M-580.8,593.1l0.6-6.5l27.4,2.5l-0.6,6.5L-580.8,593.1L-580.8,593.1z"/>
						</g>
						<g id="XMLID_20_">
							<path fill="#D15C5A" d="M-532.6,570.7c-0.3,0-0.5,0-0.8,0l-66-6c-2.3-0.2-4.1-1.2-5.6-2.9s-2.1-3.7-1.9-5.9s1.2-4,2.9-5.5
								c1.5-1.3,3.3-1.9,5.2-1.9c0.3,0,0.5,0,0.8,0l11.8,1.1c-0.5-1.9-1.1-3.9-1.7-5.8c-0.5-1.5-0.4-2.9,0.3-4.3
								c-1.8-0.7-3.4-1.9-4.8-3.6c-2.2-2.6-3.1-5.6-2.8-8.9l1.2-13.6c0.3-3.3,1.8-6,4.4-8.2c2.3-1.9,4.9-2.9,7.7-2.9
								c0.4,0,0.8,0,1.2,0.1l43.8,4c3.3,0.3,6,1.8,8.2,4.4c2.2,2.6,3.1,5.6,2.8,8.9l-1.3,14.6c-0.3,3.1-1.6,5.6-4,7.6
								c-1.5,1.3-3.2,2.1-5.1,2.4c0.1,0.9-0.1,1.9-0.6,2.7c-0.7,1.1-1.6,2.6-2.7,4.7c-0.5,0.9-0.9,1.6-1.2,2.1l8.9,0.8
								c2.3,0.2,4.1,1.2,5.6,2.9c1.4,1.7,2.1,3.7,1.9,5.9c-0.2,2.2-1.2,4-2.9,5.5C-528.9,570.1-530.7,570.7-532.6,570.7
								C-532.6,570.7-532.6,570.7-532.6,570.7z M-558.7,552.1c1.7-3.5,3.2-6.6,4.3-9.1l-17-1.5c1.2,3.2,2.2,6.5,2.9,9.8
								L-558.7,552.1z M-545.8,528.6l0.7-8.2l-31.1-2.8l-0.7,8.2L-545.8,528.6z"/>
							<path fill="#F7F7F7" d="M-581.9,504.4c0.3,0,0.7,0,1,0l43.8,4c2.7,0.3,5,1.5,6.9,3.7c1.8,2.2,2.6,4.7,2.4,7.4l-1.3,14.6
								c-0.2,2.5-1.3,4.6-3.2,6.2c-1.7,1.4-3.6,2.1-5.8,2.1c-0.3,0-0.6,0-0.9,0l-0.7-0.1c0.7,0.3,1.1,0.8,1.4,1.5
								c0.3,0.7,0.2,1.4-0.2,2.1c-0.7,1.1-1.6,2.7-2.8,4.8c-1.2,2.1-1.9,3.3-2.1,3.6c-0.1,0.2-0.1,0.5,0,0.8
								c0.1,0.3,0.4,0.5,0.7,0.5l10.7,1c1.7,0.2,3.1,0.9,4.2,2.2c1.1,1.3,1.6,2.8,1.4,4.5c-0.2,1.7-0.9,3-2.2,4.1
								c-1.1,1-2.5,1.4-3.9,1.4c-0.2,0-0.4,0-0.6,0l-66-6c-1.7-0.2-3.1-0.9-4.2-2.2c-1.1-1.3-1.6-2.8-1.4-4.5c0.2-1.7,0.9-3,2.2-4.1
								c1.1-1,2.5-1.4,3.9-1.4c0.2,0,0.4,0,0.6,0l13.1,1.2c0,0,0.1,0,0.1,0c0.3,0,0.5-0.1,0.7-0.4c0.2-0.3,0.3-0.6,0.3-0.9
								c-0.6-2.4-1.3-4.8-2.1-7.3c-0.4-1.1-0.2-2.1,0.4-3c0.6-0.9,1.4-1.5,2.5-1.6l0-0.2l-0.9-0.1c-2.7-0.3-5-1.5-6.9-3.7
								c-1.8-2.2-2.6-4.7-2.4-7.4l1.2-13.6c0.3-2.7,1.5-5,3.7-6.9C-586.4,505.2-584.3,504.4-581.9,504.4 M-545.1,530.7
								c0.8,0,1.2-0.4,1.2-1.1l0.9-9.8c0.1-0.8-0.3-1.2-1.3-1.3l-32.3-2.9c-0.1,0-0.2,0-0.2,0c-0.8,0-1.2,0.4-1.2,1.1l-0.9,9.8
								c-0.1,0.8,0.3,1.2,1.3,1.3l32.3,2.9C-545.3,530.7-545.2,530.7-545.1,530.7 M-558.6,554.1c0.7,0,1.2-0.4,1.6-1.1
								c2.1-4.3,3.8-7.9,5-10.6c0.1-0.3,0.1-0.6-0.1-0.9c-0.2-0.3-0.4-0.4-0.7-0.4l-20.4-1.9c0,0,0,0-0.1,0c-0.2,0-0.4,0.1-0.6,0.3
								c-0.2,0.2-0.2,0.5-0.2,0.9c1.5,3.7,2.7,7.5,3.5,11.2c0.1,0.9,0.6,1.4,1.4,1.5l10.3,0.9C-558.7,554.1-558.6,554.1-558.6,554.1
								 M-581.9,500.4L-581.9,500.4c-3.3,0-6.3,1.1-9,3.3c-3,2.5-4.7,5.7-5.1,9.6l-1.2,13.6c-0.3,3.8,0.8,7.3,3.3,10.3
								c1.1,1.4,2.4,2.5,3.9,3.3c-0.3,1.3-0.2,2.6,0.3,3.9c0.3,1,0.6,2,0.9,3l-8.9-0.8c-0.3,0-0.7,0-1,0c-2.4,0-4.6,0.8-6.5,2.4
								c-2.1,1.8-3.4,4.1-3.6,6.8c-0.2,2.7,0.6,5.3,2.3,7.4c1.8,2.1,4.2,3.4,6.9,3.6l66,6c0.3,0,0.7,0,1,0c2.4,0,4.6-0.8,6.5-2.4
								c2.1-1.8,3.4-4.1,3.6-6.8c0.2-2.7-0.6-5.3-2.3-7.4c-1.8-2.1-4.2-3.4-6.9-3.6l-5.8-0.5c1-1.7,1.8-3.1,2.3-4
								c0.4-0.7,0.7-1.4,0.9-2.2c1.6-0.5,3.1-1.3,4.4-2.5c2.7-2.3,4.3-5.4,4.7-8.9l1.3-14.6c0.3-3.8-0.8-7.3-3.3-10.3
								c-2.5-3-5.7-4.7-9.6-5.1l-43.8-4C-581,500.4-581.5,500.4-581.9,500.4L-581.9,500.4z M-574.7,524l0.4-4.2l27.1,2.5l-0.4,4.2
								L-574.7,524L-574.7,524z M-566.9,549.3c-0.4-1.9-1-3.8-1.6-5.6l11.1,1c-0.7,1.6-1.6,3.3-2.5,5.2L-566.9,549.3L-566.9,549.3z"
								/>
						</g>
					</g>
				</g>
				<g id="XMLID_454_">
					<g>
						<path fill="#A44B48" d="M-559.8,457.3c1.6-1.3,3.4-1.9,5.4-1.7c2.1,0.2,3.8,1.1,5.1,2.6c1.4,1.6,1.9,3.4,1.8,5.4l-0.3,3.6
							c-0.1,0.9,0.3,1.4,1.1,1.5l22.7,2.1c1.7,0.2,3.1,0.9,4.2,2.1c1.1,1.3,1.6,2.7,1.4,4.5c-0.2,1.7-0.9,3.1-2.2,4.1
							c-1.3,1-2.8,1.5-4.5,1.3l-22.7-2.1c-0.8-0.1-1.2,0.3-1.3,1.3l-0.7,7.4c-0.1,0.9,0.3,1.4,1.1,1.5l19.4,1.8
							c1.7,0.2,3.1,0.9,4.1,2.1c1,1.2,1.5,2.7,1.3,4.4c-0.2,1.7-0.9,3-2.1,4.1c-1.2,1-2.7,1.5-4.5,1.3l-56.2-5.1
							c-1.7-0.2-3.1-0.9-4.1-2.1c-1-1.2-1.5-2.7-1.3-4.4c0.2-1.7,0.9-3,2.1-4.1c1.2-1,2.7-1.5,4.5-1.3l19.2,1.8
							c0.9,0.1,1.4-0.3,1.5-1.2l0.7-7.4c0.1-0.9-0.3-1.4-1.2-1.5l-23.5-2.1c-1.7-0.2-3.1-0.9-4.2-2.1c-1.1-1.3-1.6-2.7-1.4-4.5
							c0.2-1.7,0.9-3.1,2.2-4.1c1.3-1,2.8-1.5,4.5-1.3l23.5,2.1c0.9,0.1,1.4-0.3,1.5-1.2l0.3-3.6
							C-562.3,460.3-561.4,458.6-559.8,457.3z"/>
						<path fill="#A44B48" d="M-535.8,581.8c-1.8-2.2-4.1-3.4-6.9-3.7l-44.7-4.1c-2.7-0.3-5.2,0.5-7.4,2.4c-2.2,1.8-3.4,4.1-3.7,6.9
							l-2.1,23.2c-0.2,2.1,0.4,3.9,1.7,5.4c1.3,1.6,3,2.4,5,2.6l3.3,0.3c1.1,0.1,2.1-0.2,2.9-0.9c0.8-0.7,1.3-1.6,1.4-2.7
							c0-0.3,0.2-0.5,0.6-0.5l34.4,3.1c0.3,0,0.5,0.2,0.5,0.6c-0.1,1.1,0.2,2.1,0.9,2.9c0.7,0.8,1.6,1.3,2.7,1.4l3.4,0.3
							c2.2,0.2,4-0.4,5.6-1.7c1.6-1.4,2.4-3.1,2.6-5.1l2.1-23C-533.2,586.4-534,583.9-535.8,581.8z M-549.7,601.4
							c-0.1,0.9-0.6,1.3-1.5,1.2l-32.6-3c-0.9-0.1-1.3-0.6-1.2-1.5l1.1-11.9c0.1-0.8,0.6-1.2,1.5-1.1l32.6,3
							c0.9,0.1,1.3,0.5,1.3,1.3L-549.7,601.4z"/>
						<path fill="#A44B48" d="M-527.9,561.5c-1.1-1.3-2.5-2-4.2-2.2l-10.7-1c-0.3,0-0.6-0.2-0.7-0.5c-0.1-0.3-0.2-0.6,0-0.8
							c0.3-0.3,1-1.5,2.1-3.6c1.2-2.1,2.1-3.7,2.8-4.8c0.4-0.7,0.5-1.3,0.2-2.1c-0.3-0.7-0.8-1.2-1.4-1.5l0.7,0.1
							c2.5,0.2,4.7-0.5,6.7-2.1c1.9-1.6,3-3.7,3.2-6.2l1.3-14.6c0.3-2.7-0.5-5.2-2.4-7.4c-1.8-2.2-4.1-3.4-6.9-3.7l-43.8-4
							c-2.7-0.3-5.2,0.5-7.4,2.4c-2.2,1.8-3.4,4.1-3.7,6.9l-1.2,13.6c-0.3,2.7,0.5,5.2,2.4,7.4c1.8,2.2,4.1,3.4,6.9,3.7l0.9,0.1
							l0,0.2c-1.1,0.1-1.9,0.7-2.5,1.6c-0.6,0.9-0.7,1.9-0.4,3c0.8,2.5,1.5,4.9,2.1,7.3c0,0.3-0.1,0.7-0.3,0.9
							c-0.2,0.3-0.5,0.4-0.8,0.4l-13.1-1.2c-1.7-0.2-3.2,0.3-4.5,1.4c-1.3,1.1-2,2.5-2.2,4.1c-0.2,1.7,0.3,3.1,1.4,4.5
							c1.1,1.3,2.5,2,4.2,2.2l66,6c1.7,0.2,3.2-0.3,4.5-1.4c1.3-1.1,2-2.5,2.2-4.1C-526.4,564.3-526.8,562.8-527.9,561.5z
							 M-552,545.2c-1.2,2.8-2.8,6.3-5,10.6c-0.4,0.8-1,1.1-1.8,1l-10.3-0.9c-0.8-0.1-1.3-0.6-1.4-1.5c-0.8-3.8-2-7.5-3.5-11.2
							c-0.1-0.4,0-0.6,0.2-0.9c0.2-0.2,0.4-0.3,0.6-0.3l20.4,1.9c0.2,0,0.4,0.2,0.7,0.4C-551.9,544.6-551.8,544.9-552,545.2z
							 M-543.9,532.4c-0.1,0.8-0.6,1.2-1.5,1.1l-32.3-2.9c-0.9-0.1-1.3-0.5-1.3-1.3l0.9-9.8c0.1-0.8,0.6-1.2,1.5-1.1l32.3,2.9
							c0.9,0.1,1.3,0.5,1.3,1.3L-543.9,532.4z"/>
					</g>
					<g>
						<g id="XMLID_39_">
							<path fill="#D15C5A" d="M-559.8,454.5c1.6-1.3,3.4-1.9,5.4-1.7c2.1,0.2,3.8,1.1,5.1,2.6c1.4,1.6,1.9,3.4,1.8,5.4l-0.3,3.6
								c-0.1,0.9,0.3,1.4,1.1,1.5l22.7,2.1c1.7,0.2,3.1,0.9,4.2,2.1c1.1,1.3,1.6,2.7,1.4,4.5c-0.2,1.7-0.9,3.1-2.2,4.1
								c-1.3,1-2.8,1.5-4.5,1.3l-22.7-2.1c-0.8-0.1-1.2,0.3-1.3,1.3l-0.7,7.4c-0.1,0.9,0.3,1.4,1.1,1.5l19.4,1.8
								c1.7,0.2,3.1,0.9,4.1,2.1c1,1.2,1.5,2.7,1.3,4.4c-0.2,1.7-0.9,3-2.1,4.1c-1.2,1-2.7,1.5-4.5,1.3l-56.2-5.1
								c-1.7-0.2-3.1-0.9-4.1-2.1c-1-1.2-1.5-2.7-1.3-4.4c0.2-1.7,0.9-3,2.1-4.1c1.2-1,2.7-1.5,4.5-1.3l19.2,1.8
								c0.9,0.1,1.4-0.3,1.5-1.2l0.7-7.4c0.1-0.9-0.3-1.4-1.2-1.5l-23.5-2.1c-1.7-0.2-3.1-0.9-4.2-2.1c-1.1-1.3-1.6-2.7-1.4-4.5
								c0.2-1.7,0.9-3.1,2.2-4.1c1.3-1,2.8-1.5,4.5-1.3l23.5,2.1c0.9,0.1,1.4-0.3,1.5-1.2l0.3-3.6
								C-562.3,457.4-561.4,455.8-559.8,454.5z"/>
						</g>
						<g id="XMLID_25_">
							<path fill="#D15C5A" d="M-535.8,578.9c-1.8-2.2-4.1-3.4-6.9-3.7l-44.7-4.1c-2.7-0.3-5.2,0.5-7.4,2.4
								c-2.2,1.8-3.4,4.1-3.7,6.9l-2.1,23.2c-0.2,2.1,0.4,3.9,1.7,5.4c1.3,1.6,3,2.4,5,2.6l3.3,0.3c1.1,0.1,2.1-0.2,2.9-0.9
								c0.8-0.7,1.3-1.6,1.4-2.7c0-0.3,0.2-0.5,0.6-0.5l34.4,3.1c0.3,0,0.5,0.2,0.5,0.6c-0.1,1.1,0.2,2.1,0.9,2.9
								c0.7,0.8,1.6,1.3,2.7,1.4l3.4,0.3c2.2,0.2,4-0.4,5.6-1.7c1.6-1.4,2.4-3.1,2.6-5.1l2.1-23C-533.2,583.6-534,581.1-535.8,578.9
								z M-549.7,598.5c-0.1,0.9-0.6,1.3-1.5,1.2l-32.6-3c-0.9-0.1-1.3-0.6-1.2-1.5l1.1-11.9c0.1-0.8,0.6-1.2,1.5-1.1l32.6,3
								c0.9,0.1,1.3,0.5,1.3,1.3L-549.7,598.5z"/>
						</g>
						<g id="XMLID_2_">
							<path fill="#D15C5A" d="M-527.9,558.7c-1.1-1.3-2.5-2-4.2-2.2l-10.7-1c-0.3,0-0.6-0.2-0.7-0.5c-0.1-0.3-0.2-0.6,0-0.8
								c0.3-0.3,1-1.5,2.1-3.6c1.2-2.1,2.1-3.7,2.8-4.8c0.4-0.7,0.5-1.3,0.2-2.1s-0.8-1.2-1.4-1.5l0.7,0.1c2.5,0.2,4.7-0.5,6.7-2.1
								c1.9-1.6,3-3.7,3.2-6.2l1.3-14.6c0.3-2.7-0.5-5.2-2.4-7.4c-1.8-2.2-4.1-3.4-6.9-3.7l-43.8-4c-2.7-0.3-5.2,0.5-7.4,2.4
								c-2.2,1.8-3.4,4.1-3.7,6.9l-1.2,13.6c-0.3,2.7,0.5,5.2,2.4,7.4c1.8,2.2,4.1,3.4,6.9,3.7l0.9,0.1l0,0.2
								c-1.1,0.1-1.9,0.7-2.5,1.6c-0.6,0.9-0.7,1.9-0.4,3c0.8,2.5,1.5,4.9,2.1,7.3c0,0.3-0.1,0.7-0.3,0.9c-0.2,0.3-0.5,0.4-0.8,0.4
								l-13.1-1.2c-1.7-0.2-3.2,0.3-4.5,1.4c-1.3,1.1-2,2.5-2.2,4.1c-0.2,1.7,0.3,3.1,1.4,4.5c1.1,1.3,2.5,2,4.2,2.2l66,6
								c1.7,0.2,3.2-0.3,4.5-1.4c1.3-1.1,2-2.5,2.2-4.1C-526.4,561.5-526.8,560-527.9,558.7z M-552,542.4c-1.2,2.8-2.8,6.3-5,10.6
								c-0.4,0.8-1,1.1-1.8,1l-10.3-0.9c-0.8-0.1-1.3-0.6-1.4-1.5c-0.8-3.8-2-7.5-3.5-11.2c-0.1-0.4,0-0.6,0.2-0.9
								c0.2-0.2,0.4-0.3,0.6-0.3l20.4,1.9c0.2,0,0.4,0.2,0.7,0.4C-551.9,541.8-551.8,542-552,542.4z M-543.9,529.6
								c-0.1,0.8-0.6,1.2-1.5,1.1l-32.3-2.9c-0.9-0.1-1.3-0.5-1.3-1.3l0.9-9.8c0.1-0.8,0.6-1.2,1.5-1.1l32.3,2.9
								c0.9,0.1,1.3,0.5,1.3,1.3L-543.9,529.6z"/>
						</g>
					</g>
				</g>
			</g>
		</g>
		<g id="XMLID_187_">
			<g id="XMLID_439_">
				<g>
					<path fill="#DBDCDC" d="M-406.1,662.2c-0.5,0-1,0-1.4-0.1l-82.7-7.5c-8.7-0.8-15.1-8.5-14.3-17.2l16.8-184.8
						c0.7-8.2,7.5-14.4,15.7-14.4c0.5,0,1,0,1.4,0.1l82.7,7.5c8.7,0.8,15.1,8.5,14.3,17.2l-16.8,184.8
						C-391.2,656-397.9,662.2-406.1,662.2L-406.1,662.2z"/>
					<path fill="#DBDCDC" d="M-472,441.7c0.4,0,0.8,0,1.1,0.1l82.7,7.5c6.8,0.6,11.8,6.6,11.2,13.4l-16.8,184.8
						c-0.6,6.4-6,11.2-12.3,11.2c-0.4,0-0.8,0-1.1-0.1l-82.7-7.5c-6.8-0.6-11.8-6.6-11.2-13.4l16.8-184.8
						C-483.7,446.5-478.3,441.7-472,441.7 M-472,434.7c-10,0-18.3,7.6-19.2,17.6l-16.8,184.8c-0.5,5.1,1.1,10.2,4.4,14.1
						c3.3,4,8,6.4,13.1,6.9l82.7,7.5c0.6,0.1,1.2,0.1,1.8,0.1c10,0,18.3-7.6,19.2-17.6l16.8-184.8c0.5-5.1-1.1-10.2-4.4-14.1
						c-3.3-4-8-6.4-13.1-6.9l-82.7-7.5C-470.8,434.7-471.4,434.7-472,434.7L-472,434.7z"/>
				</g>
				<g>
					<path fill="#F7F7F7" d="M-406.1,656.5c-0.5,0-1,0-1.4-0.1l-82.7-7.5c-8.7-0.8-15.1-8.5-14.3-17.2l16.8-184.8
						c0.7-8.2,7.5-14.4,15.7-14.4c0.5,0,1,0,1.4,0.1l82.7,7.5c8.7,0.8,15.1,8.5,14.3,17.2l-16.8,184.8
						C-391.2,650.3-397.9,656.5-406.1,656.5L-406.1,656.5z"/>
					<path fill="#F7F7F7" d="M-472,436.1c0.4,0,0.8,0,1.1,0.1l82.7,7.5c6.8,0.6,11.8,6.6,11.2,13.4l-16.8,184.8
						c-0.6,6.4-6,11.2-12.3,11.2c-0.4,0-0.8,0-1.1-0.1l-82.7-7.5c-6.8-0.6-11.8-6.6-11.2-13.4l16.8-184.8
						C-483.7,440.9-478.3,436.1-472,436.1 M-472,429.1c-10,0-18.3,7.6-19.2,17.6l-16.8,184.8c-0.5,5.1,1.1,10.2,4.4,14.1
						c3.3,4,8,6.4,13.1,6.9l82.7,7.5c0.6,0.1,1.2,0.1,1.8,0.1c10,0,18.3-7.6,19.2-17.6l16.8-184.8c0.5-5.1-1.1-10.2-4.4-14.1
						c-3.3-4-8-6.4-13.1-6.9l-82.7-7.5C-470.8,429.1-471.4,429.1-472,429.1L-472,429.1z"/>
				</g>
			</g>
			<g id="XMLID_433_">
				<g>
					<path fill="#8C6239" d="M-490,648.3l82.7,7.5c6.8,0.6,12.8-4.4,13.4-11.2l16.8-184.8c0.6-6.8-4.4-12.8-11.2-13.4l-82.7-7.5
						c-6.8-0.6-12.8,4.4-13.4,11.2l-16.8,184.8C-501.7,641.6-496.7,647.6-490,648.3z"/>
				</g>
				<g>
					<path fill="#BB7434" d="M-490,645.4l82.7,7.5c6.8,0.6,12.8-4.4,13.4-11.2l16.8-184.8c0.6-6.8-4.4-12.8-11.2-13.4l-82.7-7.5
						c-6.8-0.6-12.8,4.4-13.4,11.2L-501.1,632C-501.7,638.8-496.7,644.8-490,645.4z"/>
				</g>
			</g>
			<g id="XMLID_427_">
				<g>
					<path fill="#603C1E" d="M-485.8,554.8L-485.8,554.8c1.6,0.1,3-1,3.1-2.6l1.6-17.5c0.1-1.6-1-3-2.6-3.1l0,0
						c-1.6-0.1-3,1-3.1,2.6l-1.6,17.5C-488.6,553.2-487.4,554.6-485.8,554.8z"/>
				</g>
				<g>
					<path fill="#754C24" d="M-485.8,552L-485.8,552c1.6,0.1,3-1,3.1-2.6l1.6-17.5c0.1-1.6-1-3-2.6-3.1l0,0c-1.6-0.1-3,1-3.1,2.6
						l-1.6,17.5C-488.6,550.4-487.4,551.8-485.8,552z"/>
				</g>
			</g>
			<g id="XMLID_188_">
				<g id="XMLID_256_">
					<g>
						<path fill="#DBDCDC" d="M-411,517.4c-0.3,0-0.6,0-0.8,0l-56.2-5.1c-2.3-0.2-4.1-1.2-5.5-2.8c-1.4-1.7-2-3.6-1.8-5.8
							c0.2-2.2,1.1-4,2.8-5.4c1.5-1.2,3.2-1.8,5.1-1.8c0.3,0,0.6,0,0.8,0l18.6,1.7l0.6-6.2l-21.9-2c-2.2-0.2-4.1-1.1-5.5-2.8
							c-1.5-1.7-2.1-3.7-1.9-6c0.2-2.3,1.2-4.1,2.9-5.5c1.5-1.2,3.2-1.8,5.1-1.8c0.3,0,0.6,0,0.8,0l21.9,2l0.3-3
							c0.2-2.6,1.4-4.8,3.4-6.4c1.8-1.4,3.8-2.1,6-2.1c0.3,0,0.6,0,1,0c2.6,0.2,4.8,1.4,6.4,3.3s2.4,4.3,2.1,6.9l-0.3,3l22.9,2.1
							c2.2,0.2,4.1,1.1,5.5,2.8c1.5,1.7,2.1,3.7,1.9,6c-0.2,2.3-1.2,4.1-2.9,5.5c-1.5,1.2-3.2,1.8-5.1,1.8c-0.3,0-0.6,0-0.8,0
							l-22.9-2.1l-0.6,6.2l18.6,1.7c2.3,0.2,4.1,1.2,5.5,2.8s2,3.6,1.8,5.8c-0.2,2.2-1.1,4-2.8,5.4
							C-407.4,516.8-409.1,517.4-411,517.4z"/>
						<path fill="#DBDCDC" d="M-436.2,466.4c0.3,0,0.5,0,0.8,0c2.1,0.2,3.7,1.1,5,2.6c1.3,1.6,1.9,3.4,1.7,5.4l-0.3,3.6
							c-0.1,0.9,0.3,1.4,1.2,1.5l23.5,2.1c1.7,0.2,3.1,0.9,4.2,2.1c1.1,1.3,1.6,2.7,1.4,4.5s-0.9,3.1-2.2,4.1
							c-1.1,0.9-2.4,1.3-3.9,1.3c-0.2,0-0.4,0-0.7,0l-23.5-2.1c-0.1,0-0.2,0-0.2,0c-0.8,0-1.2,0.4-1.3,1.3l-0.7,7.4
							c-0.1,0.9,0.3,1.4,1.2,1.5l19.2,1.8c1.7,0.2,3.1,0.9,4.1,2.1c1,1.2,1.5,2.7,1.3,4.4c-0.2,1.7-0.9,3-2.1,4.1
							c-1.1,0.9-2.3,1.4-3.8,1.4c-0.2,0-0.4,0-0.7,0l-56.2-5.1c-1.7-0.2-3.1-0.9-4.1-2.1c-1-1.2-1.5-2.7-1.3-4.4
							c0.2-1.7,0.9-3,2.1-4.1c1.1-0.9,2.4-1.4,3.8-1.4c0.2,0,0.4,0,0.7,0l19.4,1.8c0.1,0,0.1,0,0.2,0c0.7,0,1.1-0.4,1.2-1.3l0.7-7.4
							c0.1-0.9-0.3-1.4-1.1-1.5l-22.7-2.1c-1.7-0.2-3.1-0.9-4.2-2.1c-1.1-1.3-1.6-2.7-1.4-4.5s0.9-3.1,2.2-4.1
							c1.1-0.9,2.4-1.3,3.9-1.3c0.2,0,0.4,0,0.7,0l22.7,2.1c0.1,0,0.1,0,0.2,0c0.7,0,1.1-0.4,1.2-1.3l0.3-3.6c0.2-2.1,1.1-3.7,2.7-5
							C-439.5,467-438,466.4-436.2,466.4 M-436.2,462.4L-436.2,462.4c-2.7,0-5.1,0.9-7.2,2.6c-2.5,2-3.9,4.7-4.2,7.8l-0.1,1
							l-19.9-1.8c-0.3,0-0.7,0-1,0c-2.4,0-4.5,0.7-6.4,2.2c-2.2,1.7-3.4,4.1-3.7,6.9c-0.3,2.8,0.6,5.4,2.4,7.5
							c1.8,2,4.1,3.2,6.9,3.5l19.9,1.8l-0.2,2.2l-16.6-1.5c-0.3,0-0.7,0-1,0c-2.4,0-4.6,0.8-6.3,2.3c-2.1,1.7-3.3,4.1-3.5,6.8
							c-0.2,2.7,0.5,5.2,2.2,7.3c1.7,2.1,4.1,3.3,6.8,3.5l56.2,5.1c0.3,0,0.7,0,1,0c2.4,0,4.6-0.8,6.4-2.3c2.1-1.7,3.3-4,3.5-6.8
							c0.2-2.7-0.5-5.2-2.2-7.3c-1.7-2.1-4.1-3.3-6.8-3.5l-16.6-1.5l0.2-2.2l20.9,1.9c0.3,0,0.7,0,1,0c2.4,0,4.5-0.7,6.4-2.2
							c2.2-1.7,3.4-4.1,3.7-6.9c0.3-2.8-0.6-5.4-2.4-7.5c-1.8-2-4.1-3.2-6.9-3.5l-20.9-1.9l0.1-1c0.3-3.1-0.6-6-2.6-8.4
							c-2-2.4-4.7-3.8-7.8-4C-435.5,462.4-435.8,462.4-436.2,462.4L-436.2,462.4z"/>
						<path fill="#DBDCDC" d="M-424.6,631.9c-0.3,0-0.6,0-0.9,0l-3.3-0.3c-1.7-0.2-3.1-0.9-4.1-2.1c-0.7-0.8-1.1-1.8-1.3-2.9
							l-31.7-2.9c-0.3,1-0.9,1.9-1.8,2.6c-1.1,0.9-2.3,1.3-3.8,1.3l0,0c-0.2,0-0.4,0-0.6,0l-3.4-0.3c-2.7-0.2-4.9-1.4-6.6-3.5
							c-1.6-2-2.3-4.4-2.1-7l2.1-23c0.3-3.3,1.8-6,4.4-8.2c2.3-1.9,4.9-2.9,7.7-2.9c0.4,0,0.8,0,1.2,0.1l44.7,4.1
							c3.3,0.3,6,1.8,8.2,4.4c2.2,2.6,3.1,5.6,2.8,8.9l-2.1,23.2c-0.2,2.6-1.4,4.8-3.3,6.4C-420.4,631.1-422.4,631.9-424.6,631.9z
							 M-433,611.4l1-10.4l-31.4-2.9l-1,10.4L-433,611.4z"/>
						<path fill="#DBDCDC" d="M-470.1,584.8c0.3,0,0.7,0,1,0l44.7,4.1c2.7,0.3,5,1.5,6.9,3.7c1.8,2.2,2.6,4.7,2.4,7.4l-2.1,23.2
							c-0.2,2.1-1.1,3.7-2.6,5c-1.4,1.1-2.9,1.7-4.7,1.7c-0.3,0-0.5,0-0.8,0l-3.3-0.3c-1.1-0.1-2.1-0.6-2.7-1.4
							c-0.7-0.8-1-1.8-0.9-2.9c0-0.3-0.1-0.5-0.5-0.6l-34.4-3.1c0,0-0.1,0-0.1,0c-0.3,0-0.5,0.2-0.5,0.5c-0.1,1.1-0.6,2.1-1.4,2.7
							c-0.7,0.6-1.5,0.9-2.5,0.9c-0.1,0-0.3,0-0.5,0l-3.4-0.3c-2.2-0.2-3.9-1.1-5.2-2.7c-1.3-1.6-1.9-3.5-1.7-5.5l2.1-23
							c0.3-2.7,1.5-5,3.7-6.9C-474.6,585.6-472.4,584.8-470.1,584.8 M-432.3,613.4c0.8,0,1.2-0.4,1.3-1.3l1.1-11.9
							c0.1-0.8-0.3-1.2-1.3-1.3l-32.6-3c-0.1,0-0.2,0-0.2,0c-0.8,0-1.2,0.4-1.2,1.1l-1.1,11.9c-0.1,0.9,0.3,1.4,1.2,1.5l32.6,3
							C-432.5,613.4-432.4,613.4-432.3,613.4 M-470.1,580.8c-3.3,0-6.3,1.1-9,3.3c-3,2.5-4.7,5.7-5.1,9.6l-2.1,23
							c-0.3,3.1,0.6,6,2.5,8.4c2,2.5,4.7,3.9,8,4.2l3.4,0.3c0.3,0,0.5,0,0.8,0c1.9,0,3.6-0.6,5-1.8c0.7-0.6,1.3-1.3,1.7-2l28.9,2.6
							c0.3,0.8,0.7,1.6,1.3,2.3c1.4,1.6,3.2,2.6,5.4,2.8l3.3,0.3c0.4,0,0.8,0.1,1.1,0.1c2.7,0,5.1-0.9,7.2-2.6c2.4-2,3.8-4.7,4-7.8
							l2.1-23.2c0.3-3.8-0.8-7.3-3.3-10.3c-2.5-3-5.7-4.7-9.6-5.1l-44.7-4.1C-469.2,580.8-469.6,580.8-470.1,580.8L-470.1,580.8z
							 M-462.2,606.7l0.6-6.5l27.4,2.5l-0.6,6.5L-462.2,606.7L-462.2,606.7z"/>
						<path fill="#DBDCDC" d="M-410.6,584.7c-0.3,0-0.5,0-0.8,0l-66-6c-2.3-0.2-4.1-1.2-5.6-2.9c-1.4-1.7-2.1-3.7-1.9-5.9
							c0.2-2.2,1.2-4,2.9-5.5c1.5-1.3,3.3-1.9,5.2-1.9c0.3,0,0.5,0,0.8,0l8.9,0.8c-0.2-0.6-0.5-1.3-0.8-2.3c-0.8-2.2-1.4-4-1.8-5.1
							c-0.4-0.9-0.4-1.9-0.1-2.8c-1.8-0.7-3.3-1.8-4.6-3.3c-2-2.4-2.8-5.1-2.5-8.1l1.3-14.6c0.3-3.3,1.8-6,4.4-8.2
							c2.3-1.9,4.9-2.9,7.7-2.9c0.4,0,0.8,0,1.2,0.1l43.8,4c3.3,0.3,6,1.8,8.2,4.4c2.2,2.6,3.1,5.6,2.8,8.9l-1.2,13.6
							c-0.3,3.3-1.8,6-4.4,8.2c-1.6,1.4-3.4,2.3-5.4,2.6c0.5,1.4,0.3,2.9-0.5,4.3c-1,1.8-1.9,3.6-2.7,5.4l11.8,1.1
							c2.3,0.2,4.1,1.2,5.6,2.9s2.1,3.7,1.9,5.9c-0.2,2.2-1.2,4-2.9,5.5C-406.9,584-408.6,584.7-410.6,584.7L-410.6,584.7z
							 M-439.3,565.8c1.3-3.1,2.8-6.1,4.6-9.1l-17-1.5c0.6,2.7,1.5,5.9,2.6,9.7L-439.3,565.8z M-426.5,542.3l0.7-8.2l-31.1-2.8
							l-0.7,8.2L-426.5,542.3z"/>
						<path fill="#DBDCDC" d="M-463.5,518c0.3,0,0.7,0,1,0l43.8,4c2.7,0.3,5,1.5,6.9,3.7c1.8,2.2,2.6,4.7,2.4,7.4l-1.2,13.6
							c-0.3,2.7-1.5,5-3.7,6.9c-1.9,1.6-4.1,2.4-6.4,2.4c-0.3,0-0.7,0-1,0l-0.9-0.1l0,0.2c1,0.3,1.7,1,2.2,2c0.4,1,0.4,2-0.2,3
							c-1.2,2.3-2.4,4.6-3.4,6.8c0,0.3,0,0.7,0.2,1c0.1,0.3,0.4,0.5,0.7,0.5l13.1,1.2c1.7,0.2,3.1,0.9,4.2,2.2
							c1.1,1.3,1.6,2.8,1.4,4.5c-0.2,1.7-0.9,3-2.2,4.1c-1.1,1-2.5,1.4-3.9,1.4c-0.2,0-0.4,0-0.6,0l-66-6c-1.7-0.2-3.1-0.9-4.2-2.2
							c-1.1-1.3-1.6-2.8-1.4-4.5c0.2-1.7,0.9-3,2.2-4.1c1.1-1,2.5-1.4,3.9-1.4c0.2,0,0.4,0,0.6,0l10.7,1c0,0,0.1,0,0.1,0
							c0.3,0,0.5-0.1,0.7-0.4c0.2-0.3,0.2-0.5,0.2-0.8c-0.2-0.4-0.7-1.7-1.5-3.9c-0.8-2.3-1.4-4-1.9-5.2c-0.3-0.7-0.2-1.4,0.2-2.1
							c0.4-0.7,1-1.1,1.7-1.2l-0.7-0.1c-2.5-0.2-4.6-1.3-6.2-3.2c-1.6-1.9-2.3-4.2-2.1-6.7l1.3-14.6c0.3-2.7,1.5-5,3.7-6.9
							C-468,518.8-465.8,518-463.5,518 M-425.8,544.4c0.8,0,1.2-0.4,1.2-1.1l0.9-9.8c0.1-0.8-0.3-1.2-1.3-1.3l-32.3-2.9
							c-0.1,0-0.2,0-0.2,0c-0.8,0-1.2,0.4-1.2,1.1l-0.9,9.8c-0.1,0.8,0.3,1.2,1.3,1.3l32.3,2.9C-426,544.4-425.9,544.4-425.8,544.4
							 M-438.9,567.8c0.7,0,1.2-0.4,1.5-1.2c1.5-3.6,3.3-7,5.5-10.4c0.1-0.3,0.1-0.6,0-0.9c-0.2-0.2-0.3-0.4-0.6-0.4L-453,553
							c0,0,0,0-0.1,0c-0.2,0-0.4,0.1-0.7,0.3c-0.3,0.2-0.3,0.5-0.2,0.8c0.7,2.9,1.6,6.7,2.9,11.4c0.3,0.8,0.8,1.3,1.6,1.4l10.3,0.9
							C-439.1,567.8-439,567.8-438.9,567.8 M-463.5,514C-463.5,514-463.5,514-463.5,514c-3.3,0-6.3,1.1-9,3.3
							c-3,2.5-4.7,5.7-5.1,9.6l-1.3,14.6c-0.3,3.6,0.7,6.9,3,9.6c1.1,1.4,2.4,2.4,3.9,3.2c0,0.8,0.2,1.5,0.4,2.3
							c0.4,1,0.9,2.5,1.6,4.4l-5.8-0.5c-0.3,0-0.7,0-1,0c-2.4,0-4.6,0.8-6.5,2.4c-2.1,1.8-3.4,4.1-3.6,6.8c-0.2,2.7,0.6,5.3,2.3,7.4
							c1.8,2.1,4.2,3.4,6.9,3.6l66,6c0.3,0,0.7,0,1,0c2.4,0,4.6-0.8,6.5-2.4c2.1-1.8,3.4-4.1,3.6-6.8c0.2-2.7-0.6-5.3-2.3-7.4
							c-1.8-2.1-4.2-3.4-6.9-3.6l-8.9-0.8c0.5-0.9,0.9-1.8,1.4-2.7c0.7-1.2,1-2.5,1-3.8c1.6-0.6,3-1.4,4.4-2.6
							c3-2.5,4.7-5.7,5.1-9.6l1.2-13.6c0.3-3.8-0.8-7.3-3.3-10.3c-2.5-3-5.7-4.7-9.6-5.1l-43.8-4C-462.6,514-463,514-463.5,514
							L-463.5,514L-463.5,514z M-455.4,537.7l0.4-4.2l27.1,2.5l-0.4,4.2L-455.4,537.7L-455.4,537.7z M-447.6,563
							c-0.6-2-1.1-3.9-1.5-5.6l11.1,1c-0.9,1.7-1.8,3.5-2.6,5.2L-447.6,563L-447.6,563z"/>
					</g>
					<g>
						<g id="XMLID_36_">
							<path fill="#D15C5A" d="M-411,514.6c-0.3,0-0.6,0-0.8,0l-56.2-5.1c-2.3-0.2-4.1-1.2-5.5-2.8c-1.4-1.7-2-3.6-1.8-5.8
								c0.2-2.2,1.1-4,2.8-5.4c1.5-1.2,3.2-1.8,5.1-1.8c0.3,0,0.6,0,0.8,0l18.6,1.7l0.6-6.2l-21.9-2c-2.2-0.2-4.1-1.1-5.5-2.8
								c-1.5-1.7-2.1-3.7-1.9-6c0.2-2.3,1.2-4.1,2.9-5.5c1.5-1.2,3.2-1.8,5.1-1.8c0.3,0,0.6,0,0.8,0l21.9,2l0.3-3
								c0.2-2.6,1.4-4.8,3.4-6.4c1.8-1.4,3.8-2.1,6-2.1c0.3,0,0.6,0,1,0c2.6,0.2,4.8,1.4,6.4,3.3s2.4,4.3,2.1,6.9l-0.3,3l22.9,2.1
								c2.2,0.2,4.1,1.1,5.5,2.8c1.5,1.7,2.1,3.7,1.9,6c-0.2,2.3-1.2,4.1-2.9,5.5c-1.5,1.2-3.2,1.8-5.1,1.8c-0.3,0-0.6,0-0.8,0
								l-22.9-2.1l-0.6,6.2l18.6,1.7c2.3,0.2,4.1,1.2,5.5,2.8s2,3.6,1.8,5.8c-0.2,2.2-1.1,4-2.8,5.4
								C-407.4,514-409.1,514.6-411,514.6z"/>
							<path fill="#F7F7F7" d="M-436.2,463.6c0.3,0,0.5,0,0.8,0c2.1,0.2,3.7,1.1,5,2.6c1.3,1.6,1.9,3.4,1.7,5.4l-0.3,3.6
								c-0.1,0.9,0.3,1.4,1.2,1.5l23.5,2.1c1.7,0.2,3.1,0.9,4.2,2.1c1.1,1.3,1.6,2.7,1.4,4.5s-0.9,3.1-2.2,4.1
								c-1.1,0.9-2.4,1.3-3.9,1.3c-0.2,0-0.4,0-0.7,0l-23.5-2.1c-0.1,0-0.2,0-0.2,0c-0.8,0-1.2,0.4-1.3,1.3l-0.7,7.4
								c-0.1,0.9,0.3,1.4,1.2,1.5l19.2,1.8c1.7,0.2,3.1,0.9,4.1,2.1c1,1.2,1.5,2.7,1.3,4.4c-0.2,1.7-0.9,3-2.1,4.1
								c-1.1,0.9-2.3,1.4-3.8,1.4c-0.2,0-0.4,0-0.7,0l-56.2-5.1c-1.7-0.2-3.1-0.9-4.1-2.1c-1-1.2-1.5-2.7-1.3-4.4
								c0.2-1.7,0.9-3,2.1-4.1c1.1-0.9,2.4-1.4,3.8-1.4c0.2,0,0.4,0,0.7,0l19.4,1.8c0.1,0,0.1,0,0.2,0c0.7,0,1.1-0.4,1.2-1.3
								l0.7-7.4c0.1-0.9-0.3-1.4-1.1-1.5l-22.7-2.1c-1.7-0.2-3.1-0.9-4.2-2.1c-1.1-1.3-1.6-2.7-1.4-4.5s0.9-3.1,2.2-4.1
								c1.1-0.9,2.4-1.3,3.9-1.3c0.2,0,0.4,0,0.7,0l22.7,2.1c0.1,0,0.1,0,0.2,0c0.7,0,1.1-0.4,1.2-1.3l0.3-3.6
								c0.2-2.1,1.1-3.7,2.7-5C-439.5,464.2-438,463.6-436.2,463.6 M-436.2,459.6L-436.2,459.6c-2.7,0-5.1,0.9-7.2,2.6
								c-2.5,2-3.9,4.7-4.2,7.8l-0.1,1l-19.9-1.8c-0.3,0-0.7,0-1,0c-2.4,0-4.5,0.7-6.4,2.2c-2.2,1.7-3.4,4.1-3.7,6.9
								c-0.3,2.8,0.6,5.4,2.4,7.5c1.8,2,4.1,3.2,6.9,3.5l19.9,1.8l-0.2,2.2l-16.6-1.5c-0.3,0-0.7,0-1,0c-2.4,0-4.6,0.8-6.3,2.3
								c-2.1,1.7-3.3,4.1-3.5,6.8c-0.2,2.7,0.5,5.2,2.2,7.3c1.7,2.1,4.1,3.3,6.8,3.5l56.2,5.1c0.3,0,0.7,0,1,0
								c2.4,0,4.6-0.8,6.4-2.3c2.1-1.7,3.3-4,3.5-6.8c0.2-2.7-0.5-5.2-2.2-7.3c-1.7-2.1-4.1-3.3-6.8-3.5l-16.6-1.5l0.2-2.2l20.9,1.9
								c0.3,0,0.7,0,1,0c2.4,0,4.5-0.7,6.4-2.2c2.2-1.7,3.4-4.1,3.7-6.9c0.3-2.8-0.6-5.4-2.4-7.5c-1.8-2-4.1-3.2-6.9-3.5l-20.9-1.9
								l0.1-1c0.3-3.1-0.6-6-2.6-8.4c-2-2.4-4.7-3.8-7.8-4C-435.5,459.6-435.8,459.6-436.2,459.6L-436.2,459.6z"/>
						</g>
						<g id="XMLID_35_">
							<path fill="#D15C5A" d="M-424.6,629c-0.3,0-0.6,0-0.9,0l-3.3-0.3c-1.7-0.2-3.1-0.9-4.1-2.1c-0.7-0.8-1.1-1.8-1.3-2.9
								l-31.7-2.9c-0.3,1-0.9,1.9-1.8,2.6c-1.1,0.9-2.3,1.3-3.8,1.3l0,0c-0.2,0-0.4,0-0.6,0l-3.4-0.3c-2.7-0.2-4.9-1.4-6.6-3.5
								c-1.6-2-2.3-4.4-2.1-7l2.1-23c0.3-3.3,1.8-6,4.4-8.2c2.3-1.9,4.9-2.9,7.7-2.9c0.4,0,0.8,0,1.2,0.1l44.7,4.1
								c3.3,0.3,6,1.8,8.2,4.4c2.2,2.6,3.1,5.6,2.8,8.9l-2.1,23.2c-0.2,2.6-1.4,4.8-3.3,6.4C-420.4,628.3-422.4,629-424.6,629z
								 M-433,608.5l1-10.4l-31.4-2.9l-1,10.4L-433,608.5z"/>
							<path fill="#F7F7F7" d="M-470.1,581.9c0.3,0,0.7,0,1,0l44.7,4.1c2.7,0.3,5,1.5,6.9,3.7c1.8,2.2,2.6,4.7,2.4,7.4l-2.1,23.2
								c-0.2,2.1-1.1,3.7-2.6,5c-1.4,1.1-2.9,1.7-4.7,1.7c-0.3,0-0.5,0-0.8,0l-3.3-0.3c-1.1-0.1-2.1-0.6-2.7-1.4
								c-0.7-0.8-1-1.8-0.9-2.9c0-0.3-0.1-0.5-0.5-0.6l-34.4-3.1c0,0-0.1,0-0.1,0c-0.3,0-0.5,0.2-0.5,0.5c-0.1,1.1-0.6,2.1-1.4,2.7
								c-0.7,0.6-1.5,0.9-2.5,0.9c-0.1,0-0.3,0-0.5,0l-3.4-0.3c-2.2-0.2-3.9-1.1-5.2-2.7c-1.3-1.6-1.9-3.5-1.7-5.5l2.1-23
								c0.3-2.7,1.5-5,3.7-6.9C-474.6,582.7-472.4,581.9-470.1,581.9 M-432.3,610.6c0.8,0,1.2-0.4,1.3-1.3l1.1-11.9
								c0.1-0.8-0.3-1.2-1.3-1.3l-32.6-3c-0.1,0-0.2,0-0.2,0c-0.8,0-1.2,0.4-1.2,1.1l-1.1,11.9c-0.1,0.9,0.3,1.4,1.2,1.5l32.6,3
								C-432.5,610.6-432.4,610.6-432.3,610.6 M-470.1,577.9c-3.3,0-6.3,1.1-9,3.3c-3,2.5-4.7,5.7-5.1,9.6l-2.1,23
								c-0.3,3.1,0.6,6,2.5,8.4c2,2.5,4.7,3.9,8,4.2l3.4,0.3c0.3,0,0.5,0,0.8,0c1.9,0,3.6-0.6,5-1.8c0.7-0.6,1.3-1.3,1.7-2l28.9,2.6
								c0.3,0.8,0.7,1.6,1.3,2.3c1.4,1.6,3.2,2.6,5.4,2.8l3.3,0.3c0.4,0,0.8,0.1,1.1,0.1c2.7,0,5.1-0.9,7.2-2.6c2.4-2,3.8-4.7,4-7.8
								l2.1-23.2c0.3-3.8-0.8-7.3-3.3-10.3c-2.5-3-5.7-4.7-9.6-5.1l-44.7-4.1C-469.2,578-469.6,577.9-470.1,577.9L-470.1,577.9z
								 M-462.2,603.9l0.6-6.5l27.4,2.5l-0.6,6.5L-462.2,603.9L-462.2,603.9z"/>
						</g>
						<g id="XMLID_19_">
							<path fill="#D15C5A" d="M-410.6,581.8c-0.3,0-0.5,0-0.8,0l-66-6c-2.3-0.2-4.1-1.2-5.6-2.9c-1.4-1.7-2.1-3.7-1.9-5.9
								c0.2-2.2,1.2-4,2.9-5.5c1.5-1.3,3.3-1.9,5.2-1.9c0.3,0,0.5,0,0.8,0l8.9,0.8c-0.2-0.6-0.5-1.3-0.8-2.3c-0.8-2.2-1.4-4-1.8-5.1
								c-0.4-0.9-0.4-1.9-0.1-2.8c-1.8-0.7-3.3-1.8-4.6-3.3c-2-2.4-2.8-5.1-2.5-8.1l1.3-14.6c0.3-3.3,1.8-6,4.4-8.2
								c2.3-1.9,4.9-2.9,7.7-2.9c0.4,0,0.8,0,1.2,0.1l43.8,4c3.3,0.3,6,1.8,8.2,4.4c2.2,2.6,3.1,5.6,2.8,8.9l-1.2,13.6
								c-0.3,3.3-1.8,6-4.4,8.2c-1.6,1.4-3.4,2.3-5.4,2.6c0.5,1.4,0.3,2.9-0.5,4.3c-1,1.8-1.9,3.6-2.7,5.4l11.8,1.1
								c2.3,0.2,4.1,1.2,5.6,2.9s2.1,3.7,1.9,5.9c-0.2,2.2-1.2,4-2.9,5.5C-406.9,581.2-408.6,581.8-410.6,581.8L-410.6,581.8z
								 M-439.3,562.9c1.3-3.1,2.8-6.1,4.6-9.1l-17-1.5c0.6,2.7,1.5,5.9,2.6,9.7L-439.3,562.9z M-426.5,539.5l0.7-8.2l-31.1-2.8
								l-0.7,8.2L-426.5,539.5z"/>
							<path fill="#F7F7F7" d="M-463.5,515.2c0.3,0,0.7,0,1,0l43.8,4c2.7,0.3,5,1.5,6.9,3.7c1.8,2.2,2.6,4.7,2.4,7.4l-1.2,13.6
								c-0.3,2.7-1.5,5-3.7,6.9c-1.9,1.6-4.1,2.4-6.4,2.4c-0.3,0-0.7,0-1,0l-0.9-0.1l0,0.2c1,0.3,1.7,1,2.2,2c0.4,1,0.4,2-0.2,3
								c-1.2,2.3-2.4,4.6-3.4,6.8c0,0.3,0,0.7,0.2,1c0.1,0.3,0.4,0.5,0.7,0.5l13.1,1.2c1.7,0.2,3.1,0.9,4.2,2.2
								c1.1,1.3,1.6,2.8,1.4,4.5c-0.2,1.7-0.9,3-2.2,4.1c-1.1,1-2.5,1.4-3.9,1.4c-0.2,0-0.4,0-0.6,0l-66-6c-1.7-0.2-3.1-0.9-4.2-2.2
								c-1.1-1.3-1.6-2.8-1.4-4.5c0.2-1.7,0.9-3,2.2-4.1c1.1-1,2.5-1.4,3.9-1.4c0.2,0,0.4,0,0.6,0l10.7,1c0,0,0.1,0,0.1,0
								c0.3,0,0.5-0.1,0.7-0.4c0.2-0.3,0.2-0.5,0.2-0.8c-0.2-0.4-0.7-1.7-1.5-3.9c-0.8-2.3-1.4-4-1.9-5.2c-0.3-0.7-0.2-1.4,0.2-2.1
								c0.4-0.7,1-1.1,1.7-1.2l-0.7-0.1c-2.5-0.2-4.6-1.3-6.2-3.2c-1.6-1.9-2.3-4.2-2.1-6.7l1.3-14.6c0.3-2.7,1.5-5,3.7-6.9
								C-468,516-465.8,515.2-463.5,515.2 M-425.8,541.6c0.8,0,1.2-0.4,1.2-1.1l0.9-9.8c0.1-0.8-0.3-1.2-1.3-1.3l-32.3-2.9
								c-0.1,0-0.2,0-0.2,0c-0.8,0-1.2,0.4-1.2,1.1l-0.9,9.8c-0.1,0.8,0.3,1.2,1.3,1.3l32.3,2.9C-426,541.6-425.9,541.6-425.8,541.6
								 M-438.9,565c0.7,0,1.2-0.4,1.5-1.2c1.5-3.6,3.3-7,5.5-10.4c0.1-0.3,0.1-0.6,0-0.9c-0.2-0.2-0.3-0.4-0.6-0.4l-20.4-1.9
								c0,0,0,0-0.1,0c-0.2,0-0.4,0.1-0.7,0.3c-0.3,0.2-0.3,0.5-0.2,0.8c0.7,2.9,1.6,6.7,2.9,11.4c0.3,0.8,0.8,1.3,1.6,1.4l10.3,0.9
								C-439.1,565-439,565-438.9,565 M-463.5,511.2C-463.5,511.2-463.5,511.2-463.5,511.2c-3.3,0-6.3,1.1-9,3.3
								c-3,2.5-4.7,5.7-5.1,9.6l-1.3,14.6c-0.3,3.6,0.7,6.9,3,9.6c1.1,1.4,2.4,2.4,3.9,3.2c0,0.8,0.2,1.5,0.4,2.3
								c0.4,1,0.9,2.5,1.6,4.4l-5.8-0.5c-0.3,0-0.7,0-1,0c-2.4,0-4.6,0.8-6.5,2.4c-2.1,1.8-3.4,4.1-3.6,6.8
								c-0.2,2.7,0.6,5.3,2.3,7.4c1.8,2.1,4.2,3.4,6.9,3.6l66,6c0.3,0,0.7,0,1,0c2.4,0,4.6-0.8,6.5-2.4c2.1-1.8,3.4-4.1,3.6-6.8
								c0.2-2.7-0.6-5.3-2.3-7.4c-1.8-2.1-4.2-3.4-6.9-3.6l-8.9-0.8c0.5-0.9,0.9-1.8,1.4-2.7c0.7-1.2,1-2.5,1-3.8
								c1.6-0.6,3-1.4,4.4-2.6c3-2.5,4.7-5.7,5.1-9.6l1.2-13.6c0.3-3.8-0.8-7.3-3.3-10.3c-2.5-3-5.7-4.7-9.6-5.1l-43.8-4
								C-462.6,511.2-463,511.2-463.5,511.2L-463.5,511.2L-463.5,511.2z M-455.4,534.9l0.4-4.2l27.1,2.5l-0.4,4.2L-455.4,534.9
								L-455.4,534.9z M-447.6,560.2c-0.6-2-1.1-3.9-1.5-5.6l11.1,1c-0.9,1.7-1.8,3.5-2.6,5.2L-447.6,560.2L-447.6,560.2z"/>
						</g>
					</g>
				</g>
				<g id="XMLID_190_">
					<g>
						<path fill="#A44B48" d="M-428.7,474.5l-0.3,3.6c-0.1,0.9,0.3,1.4,1.2,1.5l23.5,2.1c1.7,0.2,3.1,0.9,4.2,2.1
							c1.1,1.3,1.6,2.7,1.4,4.5s-0.9,3.1-2.2,4.1c-1.3,1-2.8,1.5-4.5,1.3l-23.5-2.1c-0.9-0.1-1.4,0.3-1.5,1.2l-0.7,7.4
							c-0.1,0.9,0.3,1.4,1.2,1.5l19.2,1.8c1.7,0.2,3.1,0.9,4.1,2.1c1,1.2,1.5,2.7,1.3,4.4c-0.2,1.7-0.9,3-2.1,4.1
							c-1.2,1-2.7,1.5-4.5,1.3l-56.2-5.1c-1.7-0.2-3.1-0.9-4.1-2.1c-1-1.2-1.5-2.7-1.3-4.4c0.2-1.7,0.9-3,2.1-4.1
							c1.2-1,2.7-1.5,4.5-1.3l19.4,1.8c0.8,0.1,1.2-0.3,1.3-1.3l0.7-7.4c0.1-0.9-0.3-1.4-1.1-1.5l-22.7-2.1
							c-1.7-0.2-3.1-0.9-4.2-2.1c-1.1-1.3-1.6-2.7-1.4-4.5s0.9-3.1,2.2-4.1c1.3-1,2.8-1.5,4.5-1.3l22.7,2.1c0.8,0.1,1.2-0.3,1.3-1.3
							l0.3-3.6c0.2-2.1,1.1-3.7,2.7-5c1.6-1.3,3.5-1.9,5.5-1.7c2.1,0.2,3.7,1.1,5,2.6C-429.1,470.6-428.5,472.5-428.7,474.5z"/>
						<path fill="#A44B48" d="M-480.1,594l-2.1,23c-0.2,2.1,0.4,3.9,1.7,5.5c1.3,1.6,3,2.5,5.2,2.7l3.4,0.3c1.1,0.1,2.1-0.2,2.9-0.9
							c0.8-0.7,1.3-1.6,1.4-2.7c0-0.3,0.2-0.5,0.6-0.5l34.4,3.1c0.3,0,0.5,0.2,0.5,0.6c-0.1,1.1,0.2,2.1,0.9,2.9
							c0.7,0.8,1.6,1.3,2.7,1.4l3.3,0.3c2.1,0.2,3.9-0.4,5.4-1.7c1.6-1.3,2.4-3,2.6-5l2.1-23.2c0.3-2.7-0.5-5.2-2.4-7.4
							c-1.8-2.2-4.1-3.4-6.9-3.7l-44.7-4.1c-2.7-0.3-5.2,0.5-7.4,2.4C-478.7,589-479.9,591.3-480.1,594z M-465.3,597.1
							c0.1-0.8,0.6-1.2,1.5-1.1l32.6,3c0.9,0.1,1.3,0.5,1.3,1.3l-1.1,11.9c-0.1,0.9-0.6,1.3-1.5,1.2l-32.6-3
							c-0.9-0.1-1.3-0.6-1.2-1.5L-465.3,597.1z"/>
						<path fill="#A44B48" d="M-482.8,570c-0.2,1.7,0.3,3.1,1.4,4.5c1.1,1.3,2.5,2,4.2,2.2l66,6c1.7,0.2,3.2-0.3,4.5-1.4
							c1.3-1.1,2-2.5,2.2-4.1c0.2-1.7-0.3-3.1-1.4-4.5c-1.1-1.3-2.5-2-4.2-2.2l-13.1-1.2c-0.3,0-0.6-0.2-0.7-0.5
							c-0.1-0.3-0.2-0.6-0.2-1c1-2.2,2.1-4.5,3.4-6.8c0.6-1,0.6-2,0.2-3c-0.4-1-1.1-1.7-2.2-2l0-0.2l0.9,0.1
							c2.7,0.3,5.2-0.5,7.4-2.4c2.2-1.8,3.4-4.1,3.7-6.9l1.2-13.6c0.3-2.7-0.5-5.2-2.4-7.4c-1.8-2.2-4.1-3.4-6.9-3.7l-43.8-4
							c-2.7-0.3-5.2,0.5-7.4,2.4c-2.2,1.8-3.4,4.1-3.7,6.9l-1.3,14.6c-0.2,2.5,0.5,4.7,2.1,6.7c1.6,1.9,3.7,3,6.2,3.2l0.7,0.1
							c-0.7,0.2-1.3,0.6-1.7,1.2c-0.4,0.7-0.5,1.3-0.2,2.1c0.5,1.2,1.1,2.9,1.9,5.2c0.8,2.3,1.3,3.6,1.5,3.9c0.1,0.2,0,0.5-0.2,0.8
							c-0.2,0.3-0.5,0.4-0.8,0.4l-10.7-1c-1.7-0.2-3.2,0.3-4.5,1.4C-481.9,566.9-482.6,568.3-482.8,570z M-453.7,553.3
							c0.3-0.2,0.5-0.3,0.7-0.3l20.4,1.9c0.2,0,0.4,0.2,0.6,0.4c0.2,0.2,0.2,0.5,0,0.9c-2.2,3.4-4,6.9-5.5,10.4
							c-0.3,0.9-0.9,1.3-1.7,1.2l-10.3-0.9c-0.8-0.1-1.3-0.5-1.6-1.4c-1.3-4.6-2.3-8.4-2.9-11.4C-454.1,553.8-454,553.5-453.7,553.3
							z M-458.7,530.3c0.1-0.8,0.6-1.2,1.5-1.1l32.3,2.9c0.9,0.1,1.3,0.5,1.3,1.3l-0.9,9.8c-0.1,0.8-0.6,1.2-1.5,1.1l-32.3-2.9
							c-0.9-0.1-1.3-0.5-1.3-1.3L-458.7,530.3z"/>
					</g>
					<g>
						<g id="XMLID_18_">
							<path fill="#D15C5A" d="M-428.7,471.7l-0.3,3.6c-0.1,0.9,0.3,1.4,1.2,1.5l23.5,2.1c1.7,0.2,3.1,0.9,4.2,2.1
								c1.1,1.3,1.6,2.7,1.4,4.5s-0.9,3.1-2.2,4.1c-1.3,1-2.8,1.5-4.5,1.3l-23.5-2.1c-0.9-0.1-1.4,0.3-1.5,1.2l-0.7,7.4
								c-0.1,0.9,0.3,1.4,1.2,1.5l19.2,1.8c1.7,0.2,3.1,0.9,4.1,2.1c1,1.2,1.5,2.7,1.3,4.4c-0.2,1.7-0.9,3-2.1,4.1
								c-1.2,1-2.7,1.5-4.5,1.3l-56.2-5.1c-1.7-0.2-3.1-0.9-4.1-2.1c-1-1.2-1.5-2.7-1.3-4.4c0.2-1.7,0.9-3,2.1-4.1
								c1.2-1,2.7-1.5,4.5-1.3l19.4,1.8c0.8,0.1,1.2-0.3,1.3-1.3l0.7-7.4c0.1-0.9-0.3-1.4-1.1-1.5l-22.7-2.1
								c-1.7-0.2-3.1-0.9-4.2-2.1c-1.1-1.3-1.6-2.7-1.4-4.5s0.9-3.1,2.2-4.1c1.3-1,2.8-1.5,4.5-1.3l22.7,2.1
								c0.8,0.1,1.2-0.3,1.3-1.3l0.3-3.6c0.2-2.1,1.1-3.7,2.7-5c1.6-1.3,3.5-1.9,5.5-1.7c2.1,0.2,3.7,1.1,5,2.6
								C-429.1,467.8-428.5,469.6-428.7,471.7z"/>
						</g>
						<g id="XMLID_15_">
							<path fill="#D15C5A" d="M-480.1,591.2l-2.1,23c-0.2,2.1,0.4,3.9,1.7,5.5c1.3,1.6,3,2.5,5.2,2.7l3.4,0.3
								c1.1,0.1,2.1-0.2,2.9-0.9c0.8-0.7,1.3-1.6,1.4-2.7c0-0.3,0.2-0.5,0.6-0.5l34.4,3.1c0.3,0,0.5,0.2,0.5,0.6
								c-0.1,1.1,0.2,2.1,0.9,2.9c0.7,0.8,1.6,1.3,2.7,1.4l3.3,0.3c2.1,0.2,3.9-0.4,5.4-1.7c1.6-1.3,2.4-3,2.6-5l2.1-23.2
								c0.3-2.7-0.5-5.2-2.4-7.4c-1.8-2.2-4.1-3.4-6.9-3.7l-44.7-4.1c-2.7-0.3-5.2,0.5-7.4,2.4
								C-478.7,586.2-479.9,588.4-480.1,591.2z M-465.3,594.3c0.1-0.8,0.6-1.2,1.5-1.1l32.6,3c0.9,0.1,1.3,0.5,1.3,1.3l-1.1,11.9
								c-0.1,0.9-0.6,1.3-1.5,1.2l-32.6-3c-0.9-0.1-1.3-0.6-1.2-1.5L-465.3,594.3z"/>
						</g>
						<g id="XMLID_9_">
							<path fill="#D15C5A" d="M-482.8,567.1c-0.2,1.7,0.3,3.1,1.4,4.5c1.1,1.3,2.5,2,4.2,2.2l66,6c1.7,0.2,3.2-0.3,4.5-1.4
								c1.3-1.1,2-2.5,2.2-4.1c0.2-1.7-0.3-3.1-1.4-4.5c-1.1-1.3-2.5-2-4.2-2.2l-13.1-1.2c-0.3,0-0.6-0.2-0.7-0.5
								c-0.1-0.3-0.2-0.6-0.2-1c1-2.2,2.1-4.5,3.4-6.8c0.6-1,0.6-2,0.2-3c-0.4-1-1.1-1.7-2.2-2l0-0.2l0.9,0.1
								c2.7,0.3,5.2-0.5,7.4-2.4c2.2-1.8,3.4-4.1,3.7-6.9l1.2-13.6c0.3-2.7-0.5-5.2-2.4-7.4c-1.8-2.2-4.1-3.4-6.9-3.7l-43.8-4
								c-2.7-0.3-5.2,0.5-7.4,2.4c-2.2,1.8-3.4,4.1-3.7,6.9l-1.3,14.6c-0.2,2.5,0.5,4.7,2.1,6.7c1.6,1.9,3.7,3,6.2,3.2l0.7,0.1
								c-0.7,0.2-1.3,0.6-1.7,1.2c-0.4,0.7-0.5,1.3-0.2,2.1c0.5,1.2,1.1,2.9,1.9,5.2c0.8,2.3,1.3,3.6,1.5,3.9c0.1,0.2,0,0.5-0.2,0.8
								c-0.2,0.3-0.5,0.4-0.8,0.4l-10.7-1c-1.7-0.2-3.2,0.3-4.5,1.4C-481.9,564.1-482.6,565.5-482.8,567.1z M-453.7,550.5
								c0.3-0.2,0.5-0.3,0.7-0.3l20.4,1.9c0.2,0,0.4,0.2,0.6,0.4c0.2,0.2,0.2,0.5,0,0.9c-2.2,3.4-4,6.9-5.5,10.4
								c-0.3,0.9-0.9,1.3-1.7,1.2l-10.3-0.9c-0.8-0.1-1.3-0.5-1.6-1.4c-1.3-4.6-2.3-8.4-2.9-11.4C-454.1,551-454,550.7-453.7,550.5z
								 M-458.7,527.5c0.1-0.8,0.6-1.2,1.5-1.1l32.3,2.9c0.9,0.1,1.3,0.5,1.3,1.3l-0.9,9.8c-0.1,0.8-0.6,1.2-1.5,1.1l-32.3-2.9
								c-0.9-0.1-1.3-0.5-1.3-1.3L-458.7,527.5z"/>
						</g>
					</g>
				</g>
			</g>
		</g>
	</g>
</g>
</svg>
