<?xml version="1.0" encoding="utf-8"?>
<!-- Generator: Adobe Illustrator 19.0.0, SVG Export Plug-In . SVG Version: 6.00 Build 0)  -->
<svg version="1.2" baseProfile="tiny" id="圖層_1"
	 xmlns="http://www.w3.org/2000/svg" xmlns:xlink="http://www.w3.org/1999/xlink" x="0px" y="0px" viewBox="-732 310 453.5 462"
	 xml:space="preserve">
<g id="XMLID_56_">
	<g id="XMLID_112_">
		<g id="XMLID_113_">
			<path id="XMLID_115_" fill="#BB7434" d="M-363.5,763.5H-647c-47,0-85-38.1-85-85V395c0-47,38.1-85,85-85h283.5
				c47,0,85,38.1,85,85v283.5C-278.5,725.5-316.5,763.5-363.5,763.5z"/>
			<path id="XMLID_114_" fill="#623F1E" d="M-382.2,729.4h-246.1c-38.4,0-69.6-31.2-69.6-69.6V413.7c0-38.4,31.2-69.6,69.6-69.6
				h246.1c38.4,0,69.6,31.2,69.6,69.6v246.1C-312.6,698.3-343.7,729.4-382.2,729.4z"/>
		</g>
	</g>
	<g id="XMLID_103_">
		<g id="XMLID_104_">
			<g id="XMLID_106_">
				<g>
					<path fill="#8C6239" d="M-361.8,772h-283.5c-47,0-85-38.1-85-85V403.5c0-47,38.1-85,85-85h283.5c47,0,85,38.1,85,85V687
						C-276.8,734-314.9,772-361.8,772z"/>
				</g>
				<g>
					<path fill="#BB7434" d="M-361.8,763.5h-283.5c-47,0-85-38.1-85-85V395c0-47,38.1-85,85-85h283.5c47,0,85,38.1,85,85v283.5
						C-276.8,725.5-314.9,763.5-361.8,763.5z"/>
				</g>
			</g>
			<path id="XMLID_105_" fill="#623F1E" d="M-380.5,729.4h-246.1c-38.4,0-69.6-31.2-69.6-69.6V413.7c0-38.4,31.2-69.6,69.6-69.6
				h246.1c38.4,0,69.6,31.2,69.6,69.6v246.1C-310.9,698.3-342.1,729.4-380.5,729.4z"/>
		</g>
	</g>
	<g id="XMLID_57_">
		<g id="XMLID_91_">
			<g>
				<path fill="#DBDCDC" d="M-445.4,685.5c-0.3,0-0.7,0-1,0l-135-9.5c-7.8-0.6-13.8-7.4-13.2-15.3l15.8-228.9
					c0.5-7.4,6.7-13.3,14.2-13.3c0.3,0,0.6,0,0.9,0l22,1.4l0.6-8.6c0.5-7.8,7-13.9,14.8-13.9c0.3,0,0.6,0,0.9,0l60.2,3.8
					c4,0.3,7.6,2,10.2,5c2.6,3,3.9,6.8,3.7,10.8l-0.6,8.6l22.2,1.4c3.8,0.2,7.3,2,9.8,4.8c2.5,2.9,3.8,6.5,3.5,10.3l-14.9,229.9
					C-431.7,679.6-438,685.5-445.4,685.5C-445.4,685.5-445.4,685.5-445.4,685.5z"/>
				<path fill="#DBDCDC" d="M-526.3,401c0.2,0,0.5,0,0.7,0l60.2,3.8c6.3,0.4,11,5.8,10.6,12.1l-0.8,12.1l25.7,1.6
					c5.9,0.4,10.4,5.5,10,11.4l-14.9,229.9c-0.4,5.7-5.1,10.1-10.7,10.1c-0.3,0-0.5,0-0.8,0l-135-9.5c-5.9-0.4-10.4-5.6-10-11.6
					l15.8-228.9c0.4-5.7,5.1-10,10.7-10c0.2,0,0.5,0,0.7,0l25.5,1.6l0.8-12.1C-537.2,405.6-532.2,401-526.3,401 M-526.3,394
					c-9.6,0-17.7,7.5-18.3,17.2l-0.3,5.1l-18.6-1.2c-0.4,0-0.8,0-1.1,0c-9.3,0-17,7.3-17.7,16.5l-15.8,228.9
					c-0.7,9.8,6.7,18.4,16.5,19l135,9.5c0.4,0,0.8,0,1.3,0c9.3,0,17.1-7.3,17.7-16.7l14.9-229.9c0.3-4.7-1.2-9.3-4.4-12.9
					c-3.1-3.6-7.5-5.7-12.2-6l-18.7-1.2l0.3-5.1c0.3-4.9-1.3-9.6-4.5-13.3c-3.2-3.7-7.7-5.9-12.6-6.2l-60.2-3.8
					C-525.5,394-525.9,394-526.3,394L-526.3,394z"/>
			</g>
			<g>
				<path fill="#F7F7F7" d="M-445.4,679.9c-0.3,0-0.7,0-1,0l-135-9.5c-7.8-0.6-13.8-7.4-13.2-15.3l15.8-228.9
					c0.5-7.4,6.7-13.3,14.2-13.3c0.3,0,0.6,0,0.9,0l22,1.4l0.6-8.6c0.5-7.8,7-13.9,14.8-13.9c0.3,0,0.6,0,0.9,0l60.2,3.8
					c4,0.3,7.6,2,10.2,5c2.6,3,3.9,6.8,3.7,10.8l-0.6,8.6l22.2,1.4c3.8,0.2,7.3,2,9.8,4.8c2.5,2.9,3.8,6.5,3.5,10.3l-14.9,229.9
					C-431.7,674-438,679.9-445.4,679.9C-445.4,679.9-445.4,679.9-445.4,679.9z"/>
				<path fill="#F7F7F7" d="M-526.3,395.3c0.2,0,0.5,0,0.7,0l60.2,3.8c6.3,0.4,11,5.8,10.6,12.1l-0.8,12.1l25.7,1.6
					c5.9,0.4,10.4,5.5,10,11.4l-14.9,229.9c-0.4,5.7-5.1,10.1-10.7,10.1c-0.3,0-0.5,0-0.8,0l-135-9.5c-5.9-0.4-10.4-5.6-10-11.6
					l15.8-228.9c0.4-5.7,5.1-10,10.7-10c0.2,0,0.5,0,0.7,0l25.5,1.6l0.8-12.1C-537.2,399.9-532.2,395.3-526.3,395.3 M-526.3,388.3
					c-9.6,0-17.7,7.5-18.3,17.2l-0.3,5.1l-18.6-1.2c-0.4,0-0.8,0-1.1,0c-9.3,0-17,7.3-17.7,16.5l-15.8,228.9
					c-0.7,9.8,6.7,18.4,16.5,19l135,9.5c0.4,0,0.8,0,1.3,0c9.3,0,17.1-7.3,17.7-16.7l14.9-229.9c0.3-4.7-1.2-9.3-4.4-12.9
					c-3.1-3.6-7.5-5.7-12.2-6l-18.7-1.2l0.3-5.1c0.3-4.9-1.3-9.6-4.5-13.3c-3.2-3.7-7.7-5.9-12.6-6.2l-60.2-3.8
					C-525.5,388.3-525.9,388.3-526.3,388.3L-526.3,388.3z"/>
			</g>
		</g>
		<g id="XMLID_84_">
			<g>
				<path fill="#232121" d="M-465.3,400.5l-60.2-3.8c-6.2-0.4-11.6,4.3-12.1,10.6l-0.5,7c-0.2,2.8-2.6,5-5.5,4.8l-20.4-1.3
					c-5.9-0.4-11,4.1-11.4,10l-15.8,228.9c-0.4,6,4,11.2,10,11.6l135,9.5c6,0.4,11.1-4.1,11.5-10.1l14.9-229.9
					c0.4-5.9-4.1-11-10-11.4l-20.4-1.3c-2.9-0.2-5.1-2.7-4.9-5.6l0.5-6.9C-454.3,406.3-459.1,400.9-465.3,400.5L-465.3,400.5z"/>
			</g>
			<g>
				<path fill="#3E3A39" d="M-465.3,399.1l-60.2-3.8c-6.2-0.4-11.6,4.3-12.1,10.6l-0.5,7c-0.2,2.8-2.6,5-5.5,4.8l-20.4-1.3
					c-5.9-0.4-11,4.1-11.4,10l-15.8,228.9c-0.4,6,4,11.2,10,11.6l135,9.5c6,0.4,11.1-4.1,11.5-10.1l14.9-229.9
					c0.4-5.9-4.1-11-10-11.4l-20.4-1.3c-2.9-0.2-5.1-2.7-4.9-5.6l0.5-6.9C-454.3,404.9-459.1,399.5-465.3,399.1L-465.3,399.1z"/>
			</g>
		</g>
		<path id="XMLID_83_" fill="#717071" d="M-448,604.3l-121.8-8.4c-1.6-0.1-2.9-1.6-2.8-3.2l3.1-45.9c0.1-1.7,1.5-2.9,3.2-2.8
			l121.7,8.2c1.7,0.1,2.9,1.5,2.8,3.2l-3,46C-444.9,603.1-446.4,604.4-448,604.3z"/>
		<g id="XMLID_77_">
			<g>
				<path fill="#9E9E9F" d="M-451.7,661.3l-122-8.6c-1.6-0.1-2.9-1.6-2.8-3.2l3.2-46c0.1-1.7,1.5-2.9,3.2-2.8l121.9,8.4
					c1.7,0.1,2.9,1.6,2.8,3.2l-3,46.2C-448.6,660.2-450.1,661.4-451.7,661.3z"/>
			</g>
			<g>
				<path fill="#717071" d="M-451.7,661.3l-122-8.6c-1.6-0.1-2.9-1.6-2.8-3.2l3.2-46c0.1-1.7,1.5-2.9,3.2-2.8l121.9,8.4
					c1.7,0.1,2.9,1.6,2.8,3.2l-3,46.2C-448.6,660.2-450.1,661.4-451.7,661.3z"/>
			</g>
		</g>
		<path id="XMLID_75_" fill="#717071" d="M-444.3,547.4l-121.7-8.2c-1.6-0.1-2.9-1.5-2.8-3.2l3.1-45.7c0.1-1.6,1.5-2.9,3.2-2.8
			l121.5,8c1.7,0.1,2.9,1.5,2.8,3.2l-3,45.9C-441.2,546.3-442.7,547.5-444.3,547.4z"/>
		<path id="XMLID_74_" fill="#717071" d="M-440.6,490.7l-121.5-8c-1.6-0.1-2.9-1.5-2.8-3.2l3.1-45.6c0.1-1.6,1.5-2.9,3.2-2.8
			l121.3,7.8c1.6,0.1,2.9,1.5,2.8,3.2l-3,45.7C-437.6,489.6-439,490.8-440.6,490.7z"/>
		<g id="XMLID_58_">
			<g>
				<path fill="#E8BA00" d="M-527.5,627.1c-1.6,0-3-0.8-3.9-2c-0.9-1.3-1.1-2.8-0.6-4.3l21.8-61l-31.8-2.1c-1.7-0.1-3.2-1.1-4-2.7
					c-0.7-1.5-0.6-3.4,0.4-4.8l58.7-84.3c0.9-1.3,2.3-2,3.9-2c1.6,0,3,0.8,3.9,2c0.9,1.3,1.1,2.8,0.6,4.3l-21.7,60.7l31.8,2.1
					c1.7,0.1,3.2,1.1,4,2.7c0.7,1.5,0.6,3.4-0.4,4.8l-58.9,84.6C-524.5,626.4-525.9,627.1-527.5,627.1L-527.5,627.1z"/>
				<path fill="#E8BA00" d="M-483,466.8c1.1,0,2.1,1,1.7,2.4l-22.2,62.3c-0.4,1.1,0.4,2.3,1.5,2.3l33.5,2.2c1.4,0.1,2.1,1.6,1.3,2.8
					l-58.9,84.6c-0.4,0.5-0.9,0.8-1.4,0.8c-1.1,0-2.2-1.1-1.7-2.4l22.3-62.5c0.4-1.1-0.4-2.3-1.5-2.3l-33.4-2.3
					c-1.4-0.1-2.1-1.6-1.3-2.8l58.7-84.3C-484,467-483.5,466.8-483,466.8 M-483,460.8c-2.5,0-4.8,1.2-6.3,3.3l-58.7,84.3
					c-1.6,2.3-1.8,5.3-0.6,7.8c1.2,2.5,3.7,4.2,6.5,4.4l27.8,1.9l-20.4,57.3c-0.9,2.4-0.5,5,0.9,7.1c1.5,2.1,3.9,3.3,6.4,3.3
					c2.5,0,4.8-1.2,6.3-3.3l58.9-84.6c1.6-2.3,1.8-5.3,0.6-7.8c-1.2-2.5-3.7-4.2-6.5-4.4l-27.9-1.9l20.3-57c0.9-2.4,0.5-5-0.9-7.1
					C-478,462-480.4,460.8-483,460.8L-483,460.8z"/>
			</g>
			<g>
				<path fill="#FFCD02" d="M-527.5,624.3c-1.6,0-3-0.8-3.9-2c-0.9-1.3-1.1-2.8-0.6-4.3l21.8-61l-31.8-2.1c-1.7-0.1-3.2-1.1-4-2.7
					c-0.7-1.5-0.6-3.4,0.4-4.8l58.7-84.3c0.9-1.3,2.3-2,3.9-2c1.6,0,3,0.8,3.9,2c0.9,1.3,1.1,2.8,0.6,4.3l-21.7,60.7l31.8,2.1
					c1.7,0.1,3.2,1.1,4,2.7c0.7,1.5,0.6,3.4-0.4,4.8l-58.9,84.6C-524.5,623.5-525.9,624.3-527.5,624.3L-527.5,624.3z"/>
				<path fill="#E8BA00" d="M-483,463.9c1.1,0,2.1,1,1.7,2.4l-22.2,62.3c-0.4,1.1,0.4,2.3,1.5,2.3l33.5,2.2c1.4,0.1,2.1,1.6,1.3,2.8
					l-58.9,84.6c-0.4,0.5-0.9,0.8-1.4,0.8c-1.1,0-2.2-1.1-1.7-2.4l22.3-62.5c0.4-1.1-0.4-2.3-1.5-2.3l-33.4-2.3
					c-1.4-0.1-2.1-1.6-1.3-2.8l58.7-84.3C-484,464.1-483.5,463.9-483,463.9 M-483,457.9c-2.5,0-4.8,1.2-6.3,3.3l-58.7,84.3
					c-1.6,2.3-1.8,5.3-0.6,7.8c1.2,2.5,3.7,4.2,6.5,4.4l27.8,1.9l-20.4,57.3c-0.9,2.4-0.5,5,0.9,7.1c1.5,2.1,3.9,3.3,6.4,3.3
					c2.5,0,4.8-1.2,6.3-3.3l58.9-84.6c1.6-2.3,1.8-5.3,0.6-7.8c-1.2-2.5-3.7-4.2-6.5-4.4l-27.9-1.9l20.3-57c0.9-2.4,0.5-5-0.9-7.1
					C-478,459.2-480.4,457.9-483,457.9L-483,457.9z"/>
			</g>
		</g>
	</g>
</g>
</svg>
