<?xml version="1.0" encoding="utf-8"?>
<!-- Generator: Adobe Illustrator 19.0.0, SVG Export Plug-In . SVG Version: 6.00 Build 0)  -->
<svg version="1.2" baseProfile="tiny" id="圖層_1"
	 xmlns="http://www.w3.org/2000/svg" xmlns:xlink="http://www.w3.org/1999/xlink" x="0px" y="0px" viewBox="-732 310 453.5 462"
	 xml:space="preserve">
<g id="XMLID_236_">
	<g id="XMLID_315_">
		<g id="XMLID_316_">
			<g id="XMLID_318_">
				<g>
					<path fill="#8C6239" d="M-363.5,772H-647c-47,0-85-38.1-85-85V403.5c0-47,38.1-85,85-85h283.5c47,0,85,38.1,85,85V687
						C-278.5,734-316.6,772-363.5,772z"/>
				</g>
				<g>
					<path fill="#BB7434" d="M-363.5,763.5H-647c-47,0-85-38.1-85-85V395c0-47,38.1-85,85-85h283.5c47,0,85,38.1,85,85v283.5
						C-278.5,725.5-316.6,763.5-363.5,763.5z"/>
				</g>
			</g>
			<path id="XMLID_317_" fill="#623F1E" d="M-382.2,729.4h-246.1c-38.4,0-69.6-31.2-69.6-69.6V413.7c0-38.4,31.2-69.6,69.6-69.6
				h246.1c38.4,0,69.6,31.2,69.6,69.6v246.1C-312.6,698.3-343.8,729.4-382.2,729.4z"/>
		</g>
	</g>
	<g id="XMLID_240_">
		<g id="XMLID_281_">
			<g>
				<path fill="#DBDCDC" d="M-499.4,638.5c-5.2,0-10.5-0.3-15.6-0.8c-28.1-2.9-55.5-13.7-79.5-31.2c-23.4-17.2-42.3-39.9-54.7-65.9
					c-2-4.6-2.8-9-2.4-13.2s2.1-8.4,5-12.4c15.8-20.8,36.5-38.1,60-50.1c23.8-12.2,49.9-18.6,75.5-18.6c5.2,0,10.4,0.3,15.5,0.8
					c28.1,2.9,55.6,13.6,79.5,31.1c23.4,17.2,42.4,40,54.7,65.9c2,4.6,2.8,9,2.4,13.2c-0.4,4.2-2.1,8.4-5,12.4
					c-15.8,20.9-36.5,38.2-60,50.2C-447.7,632.1-473.8,638.5-499.4,638.5C-499.4,638.5-499.4,638.5-499.4,638.5z M-511.5,473.8
					c-40.4,0-79.1,18.7-108.8,52.7c-2,2.3-2.3,5.6-0.8,8.2c24.6,43.5,64.3,71.1,108.9,75.6c4.4,0.4,8.8,0.7,13.2,0.7
					c40.4,0,78.9-18.7,108.6-52.5c2.1-2.4,2.4-5.8,0.9-8.6c-24.6-43.4-64.2-70.9-108.8-75.4C-502.7,474.1-507.1,473.8-511.5,473.8z"
					/>
				<path fill="#DBDCDC" d="M-511.1,449.9c5.1,0,10.1,0.3,15.2,0.8c56.6,5.8,107,43.8,131.4,95.1c1.6,3.5,2.5,7.3,2.1,11.3
					c-0.4,4-2.1,7.5-4.3,10.7C-397.9,608.9-448,635-499.4,635c-5.1,0-10.2-0.3-15.3-0.8c-56.6-5.8-107-44-131.4-95.1
					c-1.6-3.5-2.5-7.3-2.1-11.3c0.4-4,2.1-7.5,4.3-10.7C-612.6,476.1-562.5,449.9-511.1,449.9 M-499,614.5
					c43.3,0,82.8-21.2,111.2-53.7c3.1-3.5,3.6-8.5,1.3-12.6C-410,506.7-449.4,476-498,471c-4.6-0.5-9.1-0.7-13.6-0.7
					c-43.4,0-82.9,21.3-111.4,53.9c-3,3.4-3.5,8.3-1.2,12.2c23.5,41.6,63,72.4,111.6,77.4C-508,614.3-503.5,614.5-499,614.5
					 M-511.1,442.9c-26.1,0-52.8,6.6-77.1,19c-24,12.3-45.1,29.9-61.1,51.1c0,0.1-0.1,0.1-0.1,0.2c-3.2,4.5-5.1,9.2-5.6,14
					c-0.5,4.8,0.4,9.8,2.6,14.9c0,0.1,0.1,0.1,0.1,0.2c12.6,26.4,31.9,49.7,55.8,67.2c24.4,17.9,52.5,28.9,81.2,31.9
					c5.3,0.5,10.6,0.8,16,0.8c26.2,0,52.8-6.6,77.1-19c24-12.3,45.1-29.9,61.1-51.1c0,0,0.1-0.1,0.1-0.1c3.2-4.5,5.1-9.2,5.6-14
					c0.5-4.8-0.4-9.8-2.6-14.9c0-0.1-0.1-0.1-0.1-0.2c-12.6-26.5-31.9-49.7-55.8-67.2c-24.4-17.9-52.5-28.9-81.2-31.8
					C-500.4,443.1-505.7,442.9-511.1,442.9L-511.1,442.9z M-499,607.5c-4.3,0-8.6-0.2-12.8-0.7c-43.5-4.4-82.2-31.4-106.2-73.9
					c-0.8-1.3-0.6-3,0.4-4.2c14-16,30.1-28.6,48-37.5c18.6-9.3,38.2-14,58.2-14c4.3,0,8.6,0.2,12.8,0.7
					c43.4,4.4,82.1,31.3,106.1,73.7c0.8,1.5,0.7,3.3-0.5,4.5c-14,16-30.1,28.5-47.9,37.4C-459.5,602.9-479.1,607.5-499,607.5
					L-499,607.5z"/>
			</g>
			<g>
				<path fill="#3E3A39" d="M-499.4,632.9c-5.2,0-10.5-0.3-15.6-0.8c-28.1-2.9-55.5-13.7-79.5-31.2c-23.4-17.2-42.3-39.9-54.7-65.9
					c-2-4.6-2.8-9-2.4-13.2s2.1-8.4,5-12.4c15.8-20.8,36.5-38.1,60-50.1c23.8-12.2,49.9-18.6,75.5-18.6c5.2,0,10.4,0.3,15.5,0.8
					c28.1,2.9,55.6,13.6,79.5,31.1c23.4,17.2,42.4,40,54.7,65.9c2,4.6,2.8,9,2.4,13.2c-0.4,4.2-2.1,8.4-5,12.4
					c-15.8,20.9-36.5,38.2-60,50.2C-447.7,626.4-473.8,632.9-499.4,632.9C-499.4,632.9-499.4,632.9-499.4,632.9z M-511.5,468.2
					c-40.4,0-79.1,18.7-108.8,52.7c-2,2.3-2.3,5.6-0.8,8.2c24.6,43.5,64.3,71.1,108.9,75.6c4.4,0.4,8.8,0.7,13.2,0.7
					c40.4,0,78.9-18.7,108.6-52.5c2.1-2.4,2.4-5.8,0.9-8.6c-24.6-43.4-64.2-70.9-108.8-75.4C-502.7,468.4-507.1,468.2-511.5,468.2z"
					/>
				<path fill="#F7F7F7" d="M-511.1,444.2c5.1,0,10.1,0.3,15.2,0.8c56.6,5.8,107,43.8,131.4,95.1c1.6,3.5,2.5,7.3,2.1,11.3
					c-0.4,4-2.1,7.5-4.3,10.7c-31.2,41.2-81.2,67.3-132.6,67.3c-5.1,0-10.2-0.3-15.3-0.8c-56.6-5.8-107-44-131.4-95.1
					c-1.6-3.5-2.5-7.3-2.1-11.3c0.4-4,2.1-7.5,4.3-10.7C-612.6,470.4-562.5,444.2-511.1,444.2 M-499,608.9
					c43.3,0,82.8-21.2,111.2-53.7c3.1-3.5,3.6-8.5,1.3-12.6c-23.5-41.5-62.9-72.2-111.5-77.2c-4.6-0.5-9.1-0.7-13.6-0.7
					c-43.4,0-82.9,21.3-111.4,53.9c-3,3.4-3.5,8.3-1.2,12.2c23.5,41.6,63,72.4,111.6,77.4C-508,608.6-503.5,608.9-499,608.9
					 M-511.1,437.2c-26.1,0-52.8,6.6-77.1,19c-24,12.3-45.1,29.9-61.1,51.1c0,0.1-0.1,0.1-0.1,0.2c-3.2,4.5-5.1,9.2-5.6,14
					c-0.5,4.8,0.4,9.8,2.6,14.9c0,0.1,0.1,0.1,0.1,0.2c12.6,26.4,31.9,49.7,55.8,67.2c24.4,17.9,52.5,28.9,81.2,31.9
					c5.3,0.5,10.6,0.8,16,0.8c26.2,0,52.8-6.6,77.1-19c24-12.3,45.1-29.9,61.1-51.1c0,0,0.1-0.1,0.1-0.1c3.2-4.5,5.1-9.2,5.6-14
					c0.5-4.8-0.4-9.8-2.6-14.9c0-0.1-0.1-0.1-0.1-0.2c-12.6-26.5-31.9-49.7-55.8-67.2c-24.4-17.9-52.5-28.9-81.2-31.8
					C-500.4,437.5-505.7,437.2-511.1,437.2L-511.1,437.2z M-499,601.9c-4.3,0-8.6-0.2-12.8-0.7c-43.5-4.4-82.2-31.4-106.2-73.9
					c-0.8-1.3-0.6-3,0.4-4.2c14-16,30.1-28.6,48-37.5c18.6-9.3,38.2-14,58.2-14c4.3,0,8.6,0.2,12.8,0.7
					c43.4,4.4,82.1,31.3,106.1,73.7c0.8,1.5,0.7,3.3-0.5,4.5c-14,16-30.1,28.5-47.9,37.4C-459.5,597.2-479.1,601.9-499,601.9
					L-499,601.9z"/>
			</g>
		</g>
		<polygon id="XMLID_280_" fill="#F7F7F7" points="-636.5,523.4 -591.2,479.7 -550.7,460 -497.3,458.3 -442.4,471 -420.5,494.4 
			-399.7,507.9 -377.5,545.5 -388.5,582.7 -447.3,607.8 -505.2,613.8 -554,608.9 -593.6,586.1 -617.6,560.4 -637.4,532.9 		"/>
		<g id="XMLID_255_">
			<g>
				<path fill="#2D2B2B" d="M-364.5,542.9c-24.4-51.3-74.8-89.3-131.4-95.1c-56.6-5.8-113.6,21.4-147.9,66.5
					c-2.3,3.2-3.9,6.7-4.3,10.7c-0.4,4,0.5,7.8,2.1,11.3c24.4,51.1,74.8,89.3,131.4,95.1c56.6,5.8,113.6-21.2,147.9-66.5
					c2.3-3.2,3.9-6.7,4.3-10.7C-362,550.2-362.9,546.4-364.5,542.9z M-512.5,611c-48.7-5-88.1-35.8-111.6-77.4
					c-2.2-3.9-1.7-8.8,1.2-12.2c31.4-36,76.3-58.2,124.9-53.2c48.6,5,88,35.7,111.5,77.2c2.3,4.1,1.8,9.1-1.3,12.6
					C-419.2,593.9-464,616-512.5,611z"/>
			</g>
			<g>
				<path fill="#3E3A39" d="M-364.5,540c-24.4-51.3-74.8-89.3-131.4-95.1c-56.6-5.8-113.6,21.4-147.9,66.5
					c-2.3,3.2-3.9,6.7-4.3,10.7c-0.4,4,0.5,7.8,2.1,11.3c24.4,51.1,74.8,89.3,131.4,95.1c56.6,5.8,113.6-21.2,147.9-66.5
					c2.3-3.2,3.9-6.7,4.3-10.7C-362,547.4-362.9,543.6-364.5,540z M-512.5,608.2c-48.7-5-88.1-35.8-111.6-77.4
					c-2.2-3.9-1.7-8.8,1.2-12.2c31.4-36,76.3-58.2,124.9-53.2c48.6,5,88,35.7,111.5,77.2c2.3,4.1,1.8,9.1-1.3,12.6
					C-419.2,591-464,613.1-512.5,608.2z"/>
			</g>
		</g>
		<g id="XMLID_249_">
			<g>
				<circle fill="#2D2B2B" cx="-505.2" cy="539.6" r="59.3"/>
			</g>
			<g>
				<circle fill="#3E3A39" cx="-505.2" cy="536.8" r="59.3"/>
			</g>
		</g>
		<g id="XMLID_241_">
			<g>
				<path fill="#E8BA00" d="M-481.5,550.2l10.2-4.3c2.3-1,2.6-4.1,0.6-5.6l-9.1-6.2c-1.2-0.8-1.7-2.4-1.1-3.8l4.2-10.2
					c0.9-2.3-1.1-4.8-3.5-4.3l-10.8,2c-1.5,0.3-2.9-0.5-3.5-1.9l-4.3-10.2c-1-2.3-4.1-2.6-5.6-0.6l-6.2,9.1
					c-0.8,1.2-2.4,1.7-3.8,1.1l-10.2-4.2c-2.3-0.9-4.8,1.1-4.3,3.5l2,10.8c0.3,1.5-0.5,2.9-1.9,3.5l-10.2,4.3
					c-2.3,1-2.6,4.1-0.6,5.6l9.1,6.2c1.2,0.8,1.7,2.4,1.1,3.8l-4.2,10.2c-0.9,2.3,1.1,4.8,3.5,4.3l10.8-2c1.5-0.3,2.9,0.5,3.5,1.9
					l4.3,10.2c1,2.3,4.1,2.6,5.6,0.6l6.2-9.1c0.8-1.2,2.4-1.7,3.8-1.1l10.2,4.2c2.3,0.9,4.8-1.1,4.3-3.5l-2-10.8
					C-483.6,552.2-482.8,550.7-481.5,550.2z"/>
			</g>
			<g>
				<path fill="#FFCD02" d="M-481.5,547.3l10.2-4.3c2.3-1,2.6-4.1,0.6-5.6l-9.1-6.2c-1.2-0.8-1.7-2.4-1.1-3.8l4.2-10.2
					c0.9-2.3-1.1-4.8-3.5-4.3l-10.8,2c-1.5,0.3-2.9-0.5-3.5-1.9l-4.3-10.2c-1-2.3-4.1-2.6-5.6-0.6l-6.2,9.1
					c-0.8,1.2-2.4,1.7-3.8,1.1l-10.2-4.2c-2.3-0.9-4.8,1.1-4.3,3.5l2,10.8c0.3,1.5-0.5,2.9-1.9,3.5l-10.2,4.3
					c-2.3,1-2.6,4.1-0.6,5.6l9.1,6.2c1.2,0.8,1.7,2.4,1.1,3.8l-4.2,10.2c-0.9,2.3,1.1,4.8,3.5,4.3l10.8-2c1.5-0.3,2.9,0.5,3.5,1.9
					l4.3,10.2c1,2.3,4.1,2.6,5.6,0.6l6.2-9.1c0.8-1.2,2.4-1.7,3.8-1.1l10.2,4.2c2.3,0.9,4.8-1.1,4.3-3.5l-2-10.8
					C-483.6,549.4-482.8,547.9-481.5,547.3z"/>
			</g>
		</g>
	</g>
</g>
</svg>
