<?xml version="1.0" encoding="utf-8"?>
<!-- Generator: Adobe Illustrator 19.0.0, SVG Export Plug-In . SVG Version: 6.00 Build 0)  -->
<svg version="1.2" baseProfile="tiny" id="圖層_1"
	 xmlns="http://www.w3.org/2000/svg" xmlns:xlink="http://www.w3.org/1999/xlink" x="0px" y="0px" viewBox="-732 310 453.5 462"
	 xml:space="preserve">
<g id="XMLID_166_">
	<g id="XMLID_438_">
		<g id="XMLID_439_">
			<g id="XMLID_442_">
				<g>
					<path fill="#8C6239" d="M-363.5,772H-647c-47,0-85-38.1-85-85V403.5c0-47,38.1-85,85-85h283.5c47,0,85,38.1,85,85V687
						C-278.5,734-316.5,772-363.5,772z"/>
				</g>
				<g>
					<path fill="#BB7434" d="M-363.5,763.5H-647c-47,0-85-38.1-85-85V395c0-47,38.1-85,85-85h283.5c47,0,85,38.1,85,85v283.5
						C-278.5,725.5-316.5,763.5-363.5,763.5z"/>
				</g>
			</g>
			<path id="XMLID_441_" fill="#623F1E" d="M-382.2,729.4h-246.1c-38.4,0-69.6-31.2-69.6-69.6V413.7c0-38.4,31.2-69.6,69.6-69.6
				h246.1c38.4,0,69.6,31.2,69.6,69.6v246.1C-312.6,698.3-343.7,729.4-382.2,729.4z"/>
		</g>
	</g>
	<g id="XMLID_4_">
		<g id="XMLID_329_">
			<g>
				<path fill="#DADBDA" d="M-514.4,644.8c-3.4,0-6.9-0.2-10.3-0.5c-33-2.9-63.4-20.5-85.8-49.5c-21.7-28.1-35-65.7-37.4-105.8
					c-0.3-4.3,1.3-8.5,4.3-11.7c3.2-3.4,7.8-5.4,12.7-5.4l0.3,0l250.3,4.8c5.6,0.1,10.8,2.6,14.1,6.9c3,3.9,4.2,8.7,3.2,13.4
					c-9.3,41.5-29.5,79.1-56.8,105.9C-447.3,630-480.9,644.8-514.4,644.8C-514.4,644.8-514.4,644.8-514.4,644.8z"/>
				<path fill="#DADBDA" d="M-630.9,476.5c0.1,0,0.2,0,0.3,0l250.3,4.8c8.3,0.2,14.6,7.4,13,14.8c-18.8,84.1-80.3,144.2-147.1,144.2
					c-3.3,0-6.6-0.1-9.9-0.4c-66.4-5.9-114.2-71.1-119.1-151.1C-643.8,482.1-638,476.5-630.9,476.5 M-630.9,467.5
					c-6.1,0-11.9,2.5-15.9,6.8c-3.9,4.1-5.8,9.5-5.5,15c2.5,41.1,16.1,79.5,38.3,108.3c11.3,14.7,24.5,26.5,39.2,35.2
					c15.4,9.1,32.2,14.5,49.7,16.1c3.5,0.3,7.1,0.5,10.7,0.5c34.7,0,69.4-15.3,97.8-43.2c28-27.4,48.6-65.8,58-108.1
					c1.3-5.9-0.1-12.2-4-17.1c-4.2-5.4-10.6-8.5-17.6-8.7l-250.3-4.8C-630.6,467.5-630.8,467.5-630.9,467.5L-630.9,467.5z"/>
			</g>
			<g>
				<path fill="#C75957" d="M-514.4,639.2c-3.4,0-6.9-0.2-10.3-0.5c-33-2.9-63.4-20.5-85.8-49.5c-21.7-28.1-35-65.7-37.4-105.8
					c-0.3-4.3,1.3-8.5,4.3-11.7c3.2-3.4,7.8-5.4,12.7-5.4l0.3,0l250.3,4.8c5.6,0.1,10.8,2.6,14.1,6.9c3,3.9,4.2,8.7,3.2,13.4
					c-9.3,41.5-29.5,79.1-56.8,105.9C-447.3,624.3-480.9,639.2-514.4,639.2C-514.4,639.2-514.4,639.2-514.4,639.2z"/>
				<path fill="#F6F6F6" d="M-630.9,470.8c0.1,0,0.2,0,0.3,0l250.3,4.8c8.3,0.2,14.6,7.4,13,14.8c-18.8,84.1-80.3,144.2-147.1,144.2
					c-3.3,0-6.6-0.1-9.9-0.4c-66.4-5.9-114.2-71.1-119.1-151.1C-643.8,476.4-638,470.8-630.9,470.8 M-630.9,461.8
					c-6.1,0-11.9,2.5-15.9,6.8c-3.9,4.1-5.8,9.5-5.5,15c2.5,41.1,16.1,79.5,38.3,108.3c11.3,14.7,24.5,26.5,39.2,35.2
					c15.4,9.1,32.2,14.5,49.7,16.1c3.5,0.3,7.1,0.5,10.7,0.5c34.7,0,69.4-15.3,97.8-43.2c28-27.4,48.6-65.8,58-108.1
					c1.3-5.9-0.1-12.2-4-17.1c-4.2-5.4-10.6-8.5-17.6-8.7l-250.3-4.8C-630.6,461.8-630.8,461.8-630.9,461.8L-630.9,461.8z"/>
			</g>
		</g>
		<g id="XMLID_10_">
			<g id="XMLID_9_">
				<g id="XMLID_17_">
					<g>
						<path fill="#723233" d="M-420,480.5l-178.3-3.4c-0.3,54.1,32.8,98.7,78.5,101.6C-472.2,581.7-428.3,538.4-420,480.5z"/>
					</g>
					<g>
						<path fill="#9D4946" d="M-420,474.9l-178.3-3.4c-0.3,54.1,32.8,98.7,78.5,101.6C-472.2,576-428.3,532.8-420,474.9z"/>
					</g>
				</g>
				<path id="XMLID_247_" fill="#663131" d="M-510.8,473.1l-5.7-0.1l-3.6,66.4c-0.1,1.5,1.1,2.8,2.7,2.8c1.6,0.1,2.9-1.1,3-2.6
					L-510.8,473.1z"/>
			</g>
			<g id="XMLID_245_">
				<g>
					<path fill="#DADBDA" d="M-574.3,512.4l-33.2-1.2c-2.3-0.1-4.5-1.1-6-2.8c-1.6-1.8-2.4-4.1-2.2-6.6l2.2-28.9l51.2,1l-2.2,29.6
						c-0.4,5-4.5,8.8-9.5,8.8C-574,512.4-574.1,512.4-574.3,512.4z"/>
					<path fill="#DADBDA" d="M-612.6,474l49.2,0.9l-2.1,28.5c-0.3,4.4-4.1,7.9-8.5,7.9c-0.1,0-0.2,0-0.3,0l-33.2-1.2
						c-4.3-0.2-7.6-3.9-7.2-8.3L-612.6,474 M-614.4,472l-0.1,1.9l-2.1,27.9c-0.2,2.7,0.7,5.3,2.4,7.3c1.7,1.9,4.1,3,6.7,3.1
						l33.2,1.2c0.1,0,0.2,0,0.4,0c5.5,0,10.1-4.3,10.5-9.8l2.1-28.5l0.2-2.1l-2.1,0l-49.2-0.9L-614.4,472L-614.4,472z"/>
				</g>
				<g>
					<path fill="#FFFFFF" d="M-574.3,509.6l-33.2-1.2c-2.3-0.1-4.5-1.1-6-2.8c-1.6-1.8-2.4-4.1-2.2-6.6l2.2-28.9l51.2,1l-2.2,29.6
						c-0.4,5-4.5,8.8-9.5,8.8C-574,509.6-574.1,509.6-574.3,509.6z"/>
					<path fill="#DADBDA" d="M-612.6,471.2l49.2,0.9l-2.1,28.5c-0.3,4.4-4.1,7.9-8.5,7.9c-0.1,0-0.2,0-0.3,0l-33.2-1.2
						c-4.3-0.2-7.6-3.9-7.2-8.3L-612.6,471.2 M-614.4,469.1l-0.1,1.9l-2.1,27.9c-0.2,2.7,0.7,5.3,2.4,7.3c1.7,1.9,4.1,3,6.7,3.1
						l33.2,1.2c0.1,0,0.2,0,0.4,0c5.5,0,10.1-4.3,10.5-9.8l2.1-28.5l0.2-2.1l-2.1,0l-49.2-0.9L-614.4,469.1L-614.4,469.1z"/>
				</g>
			</g>
			<g id="XMLID_137_">
				<g>
					<path fill="#DADBDA" d="M-523.1,514.2l-34.8-1.2c-2.5-0.1-4.7-1.1-6.3-2.9c-1.6-1.8-2.4-4.2-2.2-6.6l2.2-29.5l53.5,1l-2.2,30.2
						c-0.4,5.1-4.7,9-9.8,9C-522.9,514.2-523,514.2-523.1,514.2z"/>
					<path fill="#DADBDA" d="M-563.3,475l51.5,1l-2.1,29.2c-0.3,4.5-4.3,8.1-8.8,8.1c-0.1,0-0.2,0-0.3,0l-34.8-1.2
						c-4.5-0.2-7.9-4-7.6-8.5L-563.3,475 M-565.2,472.9l-0.1,1.9l-2.1,28.5c-0.2,2.7,0.7,5.4,2.5,7.4c1.8,2,4.3,3.2,7,3.3l34.8,1.2
						c0.1,0,0.3,0,0.4,0c5.7,0,10.4-4.4,10.8-9.9l2.1-29.2l0.2-2.1l-2.1,0l-51.5-1L-565.2,472.9L-565.2,472.9z"/>
				</g>
				<g>
					<path fill="#FFFFFF" d="M-523.1,511.4l-34.8-1.2c-2.5-0.1-4.7-1.1-6.3-2.9c-1.6-1.8-2.4-4.2-2.2-6.6l2.2-29.5l53.5,1l-2.2,30.2
						c-0.4,5.1-4.7,9-9.8,9C-522.9,511.4-523,511.4-523.1,511.4z"/>
					<path fill="#DADBDA" d="M-563.3,472.1l51.5,1l-2.1,29.2c-0.3,4.5-4.3,8.1-8.8,8.1c-0.1,0-0.2,0-0.3,0l-34.8-1.2
						c-4.5-0.2-7.9-4-7.6-8.5L-563.3,472.1 M-565.2,470.1l-0.1,1.9l-2.1,28.5c-0.2,2.7,0.7,5.4,2.5,7.4c1.8,2,4.3,3.2,7,3.3
						l34.8,1.2c0.1,0,0.3,0,0.4,0c5.7,0,10.4-4.4,10.8-9.9l2.1-29.2l0.2-2.1l-2.1,0l-51.5-1L-565.2,470.1L-565.2,470.1z"/>
				</g>
			</g>
			<g id="XMLID_87_">
				<g>
					<path fill="#DADBDA" d="M-469.7,516.1l-36.4-1.3c-2.6-0.1-5-1.2-6.7-3.1c-1.6-1.8-2.5-4.2-2.3-6.7l2.2-30.1l55.9,1.1l-2.2,30.9
						c-0.4,5.2-4.8,9.2-10.2,9.2C-469.4,516.1-469.5,516.1-469.7,516.1z"/>
					<path fill="#DADBDA" d="M-511.8,475.9l53.9,1l-2.1,29.9c-0.3,4.6-4.4,8.3-9.2,8.3c-0.1,0-0.2,0-0.3,0l-36.4-1.3
						c-4.8-0.2-8.3-4.1-8-8.7L-511.8,475.9 M-513.7,473.9l-0.1,1.9L-516,505c-0.2,2.8,0.7,5.4,2.5,7.4c1.9,2.1,4.5,3.3,7.4,3.4
						l36.4,1.3c0.1,0,0.3,0,0.4,0c5.9,0,10.8-4.5,11.2-10.1l2.1-29.9l0.1-2.1l-2.1,0l-53.9-1L-513.7,473.9L-513.7,473.9z"/>
				</g>
				<g>
					<path fill="#FFFFFF" d="M-469.7,513.3L-506,512c-2.6-0.1-5-1.2-6.7-3.1c-1.6-1.8-2.5-4.2-2.3-6.7l2.2-30.1l55.9,1.1l-2.2,30.9
						c-0.4,5.2-4.8,9.2-10.2,9.2C-469.4,513.3-469.5,513.3-469.7,513.3z"/>
					<path fill="#DADBDA" d="M-511.8,473.1l53.9,1l-2.1,29.9c-0.3,4.6-4.4,8.3-9.2,8.3c-0.1,0-0.2,0-0.3,0L-506,511
						c-4.8-0.2-8.3-4.1-8-8.7L-511.8,473.1 M-513.7,471.1l-0.1,1.9l-2.1,29.2c-0.2,2.8,0.7,5.4,2.5,7.4c1.9,2.1,4.5,3.3,7.4,3.4
						l36.4,1.3c0.1,0,0.3,0,0.4,0c5.9,0,10.8-4.5,11.2-10.1l2.1-29.9l0.1-2.1l-2.1,0l-53.9-1L-513.7,471.1L-513.7,471.1z"/>
				</g>
			</g>
			<g id="XMLID_76_">
				<g>
					<path fill="#DADBDA" d="M-413.1,518.1l-38.1-1.3c-2.8-0.1-5.3-1.2-7-3.2c-1.7-1.9-2.5-4.3-2.3-6.8l2.2-30.8l58.5,1.1l-2.2,31.6
						c-0.4,5.3-5,9.4-10.6,9.4C-412.8,518.1-413,518.1-413.1,518.1z"/>
					<path fill="#DADBDA" d="M-457.5,477l56.5,1.1l-2.1,30.6c-0.3,4.7-4.6,8.5-9.6,8.5c-0.1,0-0.2,0-0.4,0l-38.1-1.3
						c-5-0.2-8.7-4.2-8.4-8.9L-457.5,477 M-459.3,474.9l-0.1,1.9l-2.1,29.9c-0.2,2.8,0.7,5.4,2.6,7.5c2,2.2,4.7,3.4,7.7,3.5
						l38.1,1.3c0.1,0,0.3,0,0.4,0c6.1,0,11.2-4.5,11.6-10.3l2.1-30.6l0.1-2.1l-2.1,0l-56.5-1.1L-459.3,474.9L-459.3,474.9z"/>
				</g>
				<g>
					<path fill="#FFFFFF" d="M-413.1,515.3l-38.1-1.3c-2.8-0.1-5.3-1.2-7-3.2c-1.7-1.9-2.5-4.3-2.3-6.8l2.2-30.8l58.5,1.1l-2.2,31.6
						c-0.4,5.3-5,9.4-10.6,9.4C-412.8,515.3-413,515.3-413.1,515.3z"/>
					<path fill="#DADBDA" d="M-457.5,474.1l56.5,1.1l-2.1,30.6c-0.3,4.7-4.6,8.5-9.6,8.5c-0.1,0-0.2,0-0.4,0l-38.1-1.3
						c-5-0.2-8.7-4.2-8.4-8.9L-457.5,474.1 M-459.3,472.1l-0.1,1.9l-2.1,29.9c-0.2,2.8,0.7,5.4,2.6,7.5c2,2.2,4.7,3.4,7.7,3.5
						l38.1,1.3c0.1,0,0.3,0,0.4,0c6.1,0,11.2-4.5,11.6-10.3l2.1-30.6l0.1-2.1l-2.1,0l-56.5-1.1L-459.3,472.1L-459.3,472.1z"/>
				</g>
			</g>
			<g id="XMLID_22_">
				<g>
					<path fill="#DADBDA" d="M-623.2,510.7l-18.4-0.7l-0.1-0.8c-1.3-7.7-2.2-15.6-2.7-23.4c-0.2-3.3,1-6.5,3.3-8.9
						c2.5-2.7,6.1-4.2,9.9-4.2l19.7,0.4l-2.2,29c-0.4,4.9-4.4,8.7-9.1,8.7C-622.8,510.7-623,510.7-623.2,510.7z"/>
					<path fill="#DADBDA" d="M-631.2,473.7c0.1,0,0.2,0,0.3,0l18.3,0.4l-2.1,27.9c-0.3,4.3-4,7.7-8.1,7.7c-0.1,0-0.2,0-0.3,0
						l-17.6-0.6c-1.3-7.6-2.2-15.4-2.7-23.3C-643.8,479.2-638.2,473.7-631.2,473.7 M-631.2,471.7c-4.1,0-8,1.6-10.7,4.5
						c-2.5,2.7-3.8,6.1-3.6,9.7c0.5,7.9,1.4,15.8,2.7,23.5l0.3,1.6l1.6,0.1l17.6,0.6c0.1,0,0.2,0,0.3,0c5.3,0,9.7-4.2,10.1-9.6
						l2.1-27.9l0.2-2.1l-2.1,0l-18.3-0.4C-631,471.7-631.1,471.7-631.2,471.7L-631.2,471.7z"/>
				</g>
				<g>
					<path fill="#FFFFFF" d="M-623.2,507.8l-18.4-0.7l-0.1-0.8c-1.3-7.7-2.2-15.6-2.7-23.4c-0.2-3.3,1-6.5,3.3-8.9
						c2.5-2.7,6.1-4.2,9.9-4.2l19.7,0.4l-2.2,29c-0.4,4.9-4.4,8.7-9.1,8.7C-622.8,507.8-623,507.8-623.2,507.8z"/>
					<path fill="#DADBDA" d="M-631.2,470.8c0.1,0,0.2,0,0.3,0l18.3,0.4l-2.1,27.9c-0.3,4.3-4,7.7-8.1,7.7c-0.1,0-0.2,0-0.3,0
						l-17.6-0.6c-1.3-7.6-2.2-15.4-2.7-23.3C-643.8,476.3-638.2,470.8-631.2,470.8 M-631.2,468.8c-4.1,0-8,1.6-10.7,4.5
						c-2.5,2.7-3.8,6.1-3.6,9.7c0.5,7.9,1.4,15.8,2.7,23.5l0.3,1.6l1.6,0.1l17.6,0.6c0.1,0,0.2,0,0.3,0c5.3,0,9.7-4.2,10.1-9.6
						l2.1-27.9l0.2-2.1l-2.1,0l-18.3-0.4C-631,468.8-631.1,468.8-631.2,468.8L-631.2,468.8z"/>
				</g>
			</g>
			<g id="XMLID_35_">
				<g>
					<path fill="#DADBDA" d="M-394.3,518.8c-2.9-0.1-5.6-1.3-7.4-3.4c-1.7-1.9-2.5-4.3-2.4-6.8l2.2-31.5l21.9,0.4
						c4.5,0.1,8.6,2.1,11.2,5.5c2.4,3,3.2,6.7,2.5,10.3c-1.9,8.6-4.4,17.2-7.2,25.6l-0.2,0.7L-394.3,518.8z"/>
					<path fill="#DADBDA" d="M-401,478.1l20.9,0.4c8.2,0.2,14.4,7.3,12.7,14.6c-2,8.8-4.4,17.3-7.2,25.5l-19.7-0.7
						c-5.2-0.2-9.2-4.3-8.8-9.1L-401,478.1 M-402.8,476l-0.1,1.9l-2.1,30.6c-0.2,2.8,0.7,5.5,2.6,7.6c2,2.2,5,3.6,8.1,3.7l19.7,0.7
						l1.5,0.1l0.5-1.4c2.9-8.4,5.3-17,7.3-25.7c0.9-3.8-0.1-7.9-2.6-11.1c-2.9-3.6-7.2-5.8-12-5.9l-20.9-0.4L-402.8,476L-402.8,476z
						"/>
				</g>
				<g>
					<path fill="#FFFFFF" d="M-394.3,515.9c-2.9-0.1-5.6-1.3-7.4-3.4c-1.7-1.9-2.5-4.3-2.4-6.8l2.2-31.5l21.9,0.4
						c4.5,0.1,8.6,2.1,11.2,5.5c2.4,3,3.2,6.7,2.5,10.3c-1.9,8.6-4.4,17.2-7.2,25.6l-0.2,0.7L-394.3,515.9z"/>
					<path fill="#DADBDA" d="M-401,475.2l20.9,0.4c8.2,0.2,14.4,7.3,12.7,14.6c-2,8.8-4.4,17.3-7.2,25.5l-19.7-0.7
						c-5.2-0.2-9.2-4.3-8.8-9.1L-401,475.2 M-402.8,473.2l-0.1,1.9l-2.1,30.6c-0.2,2.8,0.7,5.5,2.6,7.6c2,2.2,5,3.6,8.1,3.7
						l19.7,0.7l1.5,0.1l0.5-1.4c2.9-8.4,5.3-17,7.3-25.7c0.9-3.8-0.1-7.9-2.6-11.1c-2.9-3.6-7.2-5.8-12-5.9l-20.9-0.4L-402.8,473.2
						L-402.8,473.2z"/>
				</g>
			</g>
			<g id="XMLID_30_">
				<g>
					<path fill="#DADBDA" d="M-574.7,620.7c-10.9-7-21-16.1-29.9-26.8l-1.5-1.8l25.7,1.9c2.4,0.2,4.6,1.3,6.2,3.1
						c1.6,1.9,2.4,4.3,2.2,6.8l-1.3,17.7L-574.7,620.7z"/>
					<path fill="#DADBDA" d="M-603.8,593.2l23.3,1.7c4.5,0.3,7.9,4.3,7.5,8.8l-1.2,16.1C-585.1,612.8-595.1,603.8-603.8,593.2
						 M-608.3,590.9l3,3.6c9,10.8,19.1,19.9,30.1,27l2.8,1.8l0.2-3.4l1.2-16.1c0.2-2.8-0.7-5.4-2.5-7.5c-1.8-2.1-4.2-3.3-6.9-3.5
						l-23.3-1.7L-608.3,590.9L-608.3,590.9z"/>
				</g>
				<g>
					<path fill="#FFFFFF" d="M-574.7,617.8c-10.9-7-21-16.1-29.9-26.8l-1.5-1.8l25.7,1.9c2.4,0.2,4.6,1.3,6.2,3.1
						c1.6,1.9,2.4,4.3,2.2,6.8l-1.3,17.7L-574.7,617.8z"/>
					<path fill="#DADBDA" d="M-603.8,590.4l23.3,1.7c4.5,0.3,7.9,4.3,7.5,8.8l-1.2,16.1C-585.1,609.9-595.1,600.9-603.8,590.4
						 M-608.3,588.1l3,3.6c9,10.8,19.1,19.9,30.1,27l2.8,1.8l0.2-3.4l1.2-16.1c0.2-2.8-0.7-5.4-2.5-7.5c-1.8-2.1-4.2-3.3-6.9-3.5
						l-23.3-1.7L-608.3,588.1L-608.3,588.1z"/>
				</g>
			</g>
			<g id="XMLID_33_">
				<g>
					<path fill="#DADBDA" d="M-523.6,638.1c-0.3,0-0.5,0-0.8-0.1c-17.7-1.6-34.5-7.3-49.8-17.1l-0.5-0.3l1.3-16.9
						c0.4-4.8,4.4-8.6,9.2-8.6c0.2,0,0.4,0,0.7,0l34.8,2.5c2.5,0.2,4.9,1.3,6.5,3.2c1.7,1.9,2.5,4.4,2.3,6.9l-2.2,30.4L-523.6,638.1
						z"/>
					<path fill="#DADBDA" d="M-564.2,596.1c0.2,0,0.4,0,0.6,0l34.8,2.5c4.7,0.3,8.3,4.4,7.9,9.1l-2.1,29.4c-0.4,0-0.8-0.1-1.2-0.1
						l0,0c-18-1.6-34.6-7.6-49.4-17l1.2-16.3C-572.1,599.4-568.5,596.1-564.2,596.1 M-564.2,594.1c-5.3,0-9.8,4.2-10.2,9.5
						l-1.2,16.3l-0.1,1.2l1,0.6c15.5,9.9,32.4,15.7,50.3,17.3c0.3,0,0.5,0,0.8,0.1l0.5,0l2,0.2l0.1-2l2.1-29.4
						c0.2-2.8-0.7-5.5-2.6-7.6c-1.8-2.1-4.4-3.4-7.2-3.6l-34.8-2.5C-563.8,594.1-564,594.1-564.2,594.1L-564.2,594.1z"/>
				</g>
				<g>
					<path fill="#FFFFFF" d="M-523.6,635.3c-0.3,0-0.5,0-0.8-0.1c-17.7-1.6-34.5-7.3-49.8-17.1l-0.5-0.3l1.3-16.9
						c0.4-4.8,4.4-8.6,9.2-8.6c0.2,0,0.4,0,0.7,0l34.8,2.5c2.5,0.2,4.9,1.3,6.5,3.2c1.7,1.9,2.5,4.4,2.3,6.9l-2.2,30.4L-523.6,635.3
						z"/>
					<path fill="#DADBDA" d="M-564.2,593.3c0.2,0,0.4,0,0.6,0l34.8,2.5c4.7,0.3,8.3,4.4,7.9,9.1l-2.1,29.4c-0.4,0-0.8-0.1-1.2-0.1
						l0,0c-18-1.6-34.6-7.6-49.4-17l1.2-16.3C-572.1,596.6-568.5,593.3-564.2,593.3 M-564.2,591.3c-5.3,0-9.8,4.2-10.2,9.5
						l-1.2,16.3l-0.1,1.2l1,0.6c15.5,9.9,32.4,15.7,50.3,17.3c0.3,0,0.5,0,0.8,0.1l0.5,0l2,0.2l0.1-2l2.1-29.4
						c0.2-2.8-0.7-5.5-2.6-7.6c-1.8-2.1-4.4-3.4-7.2-3.6l-34.8-2.5C-563.8,591.3-564,591.3-564.2,591.3L-564.2,591.3z"/>
				</g>
			</g>
			<g id="XMLID_38_">
				<g>
					<path fill="#DADBDA" d="M-514.4,638.5c-2.9,0-5.8-0.1-8.7-0.3l-1-0.1l2.2-30.4c0.4-4.9,4.6-8.8,9.6-8.8c0.2,0,0.5,0,0.7,0
						l36.4,2.6c5.5,0.4,9.6,5,9.2,10.4l-1.2,16.5l-0.6,0.2C-483,635.2-498.7,638.5-514.4,638.5
						C-514.4,638.5-514.4,638.5-514.4,638.5z"/>
					<path fill="#DADBDA" d="M-512.4,599.9c0.2,0,0.4,0,0.6,0l36.4,2.6c4.9,0.4,8.7,4.5,8.3,9.3l-1.1,15.9
						c-14.8,6.3-30.4,9.7-46.3,9.7c-2.9,0-5.8-0.1-8.7-0.3l2.1-29.4C-520.6,603.3-516.9,599.9-512.4,599.9 M-512.4,597.9
						c-5.5,0-10.2,4.3-10.6,9.7l-2.1,29.4l-0.1,2l2,0.2c2.9,0.2,5.9,0.3,8.8,0.3c15.9,0,31.7-3.3,47.1-9.9l1.1-0.5l0.1-1.2l1.1-15.9
						c0.4-5.9-4.1-11-10.2-11.4l-36.4-2.6C-511.9,597.9-512.1,597.9-512.4,597.9L-512.4,597.9z"/>
				</g>
				<g>
					<path fill="#FFFFFF" d="M-514.4,635.7c-2.9,0-5.8-0.1-8.7-0.3l-1-0.1l2.2-30.4c0.4-4.9,4.6-8.8,9.6-8.8c0.2,0,0.5,0,0.7,0
						l36.4,2.6c5.5,0.4,9.6,5,9.2,10.4l-1.2,16.5l-0.6,0.2C-483,632.4-498.7,635.7-514.4,635.7
						C-514.4,635.7-514.4,635.7-514.4,635.7z"/>
					<path fill="#DADBDA" d="M-512.4,597.1c0.2,0,0.4,0,0.6,0l36.4,2.6c4.9,0.4,8.7,4.5,8.3,9.3l-1.1,15.9
						c-14.8,6.3-30.4,9.7-46.3,9.7c-2.9,0-5.8-0.1-8.7-0.3l2.1-29.4C-520.6,600.5-516.9,597.1-512.4,597.1 M-512.4,595.1
						c-5.5,0-10.2,4.3-10.6,9.7l-2.1,29.4l-0.1,2l2,0.2c2.9,0.2,5.9,0.3,8.8,0.3c15.9,0,31.7-3.3,47.1-9.9l1.1-0.5l0.1-1.2l1.1-15.9
						c0.4-5.9-4.1-11-10.2-11.4l-36.4-2.6C-511.9,595.1-512.1,595.1-512.4,595.1L-512.4,595.1z"/>
				</g>
			</g>
			<g id="XMLID_258_">
				<g>
					<path fill="#DADBDA" d="M-468,611.8c0.4-5,4.7-8.9,9.9-8.9c0.3,0,0.5,0,0.8,0l27.3,2l-1.9,1.6c-11.2,9.4-23.3,16.9-35.8,22.2
						l-1.5,0.6L-468,611.8z"/>
					<path fill="#DADBDA" d="M-458.1,603.8c0.2,0,0.5,0,0.7,0l24.8,1.8c-11.1,9.3-23,16.7-35.6,22.1l1.1-15.9
						C-466.7,607.3-462.8,603.8-458.1,603.8 M-458.1,601.8c-5.7,0-10.5,4.3-10.9,9.9l-1.1,15.9l-0.2,3.3l3-1.3
						c12.6-5.4,24.8-12.9,36-22.4l3.8-3.2l-4.9-0.4l-24.8-1.8C-457.6,601.9-457.8,601.8-458.1,601.8L-458.1,601.8z"/>
				</g>
				<g>
					<path fill="#FFFFFF" d="M-468,609c0.4-5,4.7-8.9,9.9-8.9c0.3,0,0.5,0,0.8,0l27.3,2l-1.9,1.6c-11.2,9.4-23.3,16.9-35.8,22.2
						l-1.5,0.6L-468,609z"/>
					<path fill="#DADBDA" d="M-458.1,601c0.2,0,0.5,0,0.7,0l24.8,1.8c-11.1,9.3-23,16.7-35.6,22.1l1.1-15.9
						C-466.7,604.5-462.8,601-458.1,601 M-458.1,599c-5.7,0-10.5,4.3-10.9,9.9l-1.1,15.9l-0.2,3.3l3-1.3c12.6-5.4,24.8-12.9,36-22.4
						l3.8-3.2l-4.9-0.4l-24.8-1.8C-457.6,599-457.8,599-458.1,599L-458.1,599z"/>
				</g>
			</g>
		</g>
		<g id="XMLID_5_">
			<g>
				<path id="XMLID_23_" fill="none" stroke="#773636" stroke-width="7" stroke-miterlimit="10" d="M-630.9,472.2
					c-7.1-0.1-12.9,5.4-12.5,12.1c4.8,80.2,52.6,145.4,119.1,151.3c70.6,6.3,137.3-55.7,157-144.1c1.6-7.3-4.6-14.4-12.8-14.6
					L-630.9,472.2z"/>
			</g>
			<g>
				<path id="XMLID_20_" fill="none" stroke="#9D4946" stroke-width="7" stroke-miterlimit="10" d="M-630.9,470.8
					c-7.1-0.1-12.9,5.4-12.5,12.1c4.8,80.2,52.6,145.4,119.1,151.3c70.6,6.3,137.3-55.7,157-144.1c1.6-7.3-4.6-14.4-12.8-14.6
					L-630.9,470.8z"/>
			</g>
		</g>
	</g>
</g>
</svg>
