<?xml version="1.0" encoding="utf-8"?>
<!-- Generator: Adobe Illustrator 19.0.0, SVG Export Plug-In . SVG Version: 6.00 Build 0)  -->
<svg version="1.2" baseProfile="tiny" id="圖層_1"
	 xmlns="http://www.w3.org/2000/svg" xmlns:xlink="http://www.w3.org/1999/xlink" x="0px" y="0px" viewBox="-732 310 453.5 462"
	 xml:space="preserve">
<g id="XMLID_206_">
	<g id="XMLID_1049_">
		<g id="XMLID_1050_">
			<g id="XMLID_1051_">
				<g id="XMLID_1053_">
					<g>
						<path fill="#8C6239" d="M-363.5,772H-647c-47,0-85-38.1-85-85V403.5c0-47,38.1-85,85-85h283.5c47,0,85,38.1,85,85V687
							C-278.5,734-316.6,772-363.5,772z"/>
					</g>
					<g>
						<path fill="#BB7434" d="M-363.5,763.5H-647c-47,0-85-38.1-85-85V395c0-47,38.1-85,85-85h283.5c47,0,85,38.1,85,85v283.5
							C-278.5,725.5-316.6,763.5-363.5,763.5z"/>
					</g>
				</g>
				<path id="XMLID_1052_" fill="#623F1E" d="M-382.2,729.4h-246.1c-38.4,0-69.6-31.2-69.6-69.6V413.7c0-38.4,31.2-69.6,69.6-69.6
					h246.1c38.4,0,69.6,31.2,69.6,69.6v246.1C-312.6,698.3-343.8,729.4-382.2,729.4z"/>
			</g>
		</g>
	</g>
	<g id="XMLID_214_">
		<g>
			<path fill="#DBDCDC" d="M-427,644.6c-3.2,0-6.2-1.2-8.5-3.5l-49.4-48.2l-27.2-15.3l-31.2,0.4l-66.5,18.6
				c-1.1,0.3-2.2,0.5-3.3,0.5c-5.4,0-10.2-3.7-11.7-8.9l-29-103.5c-0.9-3.1-0.5-6.4,1.1-9.2c1.6-2.8,4.2-4.9,7.3-5.8l53.8-15.1
				c1.7-4.7,6.1-8,11.3-8l53.3-0.6c2.2-3.5,6.1-5.7,10.3-5.7c1,0,2,0.1,3,0.4l70.6,18c5.5,1.4,9.1,6.3,9.2,11.7l44.4,24.9
				c4.5,2.5,6.8,7.5,6.1,12.5l40,39.1c4.8,4.7,4.9,12.4,0.2,17.2l-75.1,76.9C-420.6,643.3-423.7,644.6-427,644.6L-427,644.6z"/>
			<path fill="#DBDCDC" d="M-516.6,443.8c0.7,0,1.4,0.1,2.2,0.3l70.6,18c4.5,1.2,7.3,5.7,6.3,10.2l46.4,26.1
				c3.8,2.1,5.3,6.6,3.9,10.5l41.4,40.5c3.4,3.3,3.5,8.8,0.1,12.3l-75.1,76.9c-1.7,1.7-3.9,2.6-6.2,2.6c-2.2,0-4.4-0.8-6.1-2.5
				l-49.7-48.6l-28.4-16l-32.6,0.4l-66.9,18.8c-0.8,0.2-1.6,0.3-2.3,0.3c-3.8,0-7.3-2.5-8.3-6.3l-29-103.5c-1.3-4.6,1.4-9.4,6-10.7
				l55.8-15.6c0.6-4.1,4.2-7.3,8.5-7.3l55.4-0.6C-523.5,446-520.2,443.8-516.6,443.8 M-516.6,436.8c-4.7,0-9.2,2.2-12.1,5.7
				l-51.5,0.6c-6,0.1-11.2,3.5-13.8,8.6l-52.2,14.6c-4,1.1-7.4,3.8-9.4,7.4c-2.1,3.6-2.6,7.9-1.4,11.9l29,103.5
				c1.9,6.7,8.1,11.4,15.1,11.4c1.4,0,2.9-0.2,4.2-0.6l66-18.5l29.8-0.3l26,14.6l49,47.9c2.9,2.9,6.8,4.5,10.9,4.5
				c4.3,0,8.2-1.7,11.2-4.7l75.1-76.9c6-6.2,5.9-16.1-0.3-22.2l-38.8-37.9c0.2-5.7-2.8-11.2-8-14.2l-42.8-24
				c-0.9-6.1-5.3-11.3-11.6-12.9l-70.6-18C-514,436.9-515.3,436.8-516.6,436.8L-516.6,436.8z"/>
			<path id="XMLID_293_" fill="#DBDCDC" d="M-431.6,640.1l-52.1-50.9c-3.4-3.3-3.5-8.8-0.1-12.3l75.1-76.9c3.3-3.4,8.8-3.5,12.3-0.1
				l52.1,50.9c3.4,3.3,3.5,8.8,0.1,12.3l-75.1,76.9C-422.7,643.3-428.2,643.4-431.6,640.1z"/>
			<path fill="#DBDCDC" d="M-401.8,588.7c5.3-7.9,5.7-25.5,5.7-32.6c0-1.7-1.4-3-3.1-3c-7,0.1-24.6,1-32.4,6.4
				c-1.5,1-2.8,2.4-3.7,4.3c-1.7,3.7-1.2,8.1,1.4,11.2c1.5,1.8,3.5,3,5.6,3.5c0.4,0.1,0.4,0.6,0.1,0.8l-6.7,3.2
				c-0.8,0.4-1,1.5-0.4,2.1l4.3,4.2l4.3,4.2c0.6,0.6,1.7,0.4,2.1-0.4l3-6.8c0.2-0.3,0.7-0.3,0.8,0.1c0.6,2.2,1.9,4.2,4,5.7
				c3.8,2.8,9.1,2.6,12.7-0.3C-403.2,590.5-402.4,589.6-401.8,588.7z"/>
			<path fill="#DBDCDC" d="M-401.8,587.3c5.3-7.9,5.7-25.5,5.7-32.6c0-1.7-1.4-3-3.1-3c-7,0.1-24.6,1-32.4,6.4
				c-1.5,1-2.8,2.4-3.7,4.3c-1.7,3.7-1.2,8.1,1.4,11.2c1.5,1.8,3.5,3,5.6,3.5c0.4,0.1,0.4,0.6,0.1,0.8l-6.7,3.2
				c-0.8,0.4-1,1.5-0.4,2.1l4.3,4.2l4.3,4.2c0.6,0.6,1.7,0.4,2.1-0.4l3-6.8c0.2-0.3,0.7-0.3,0.8,0.1c0.6,2.2,1.9,4.2,4,5.7
				c3.8,2.8,9.1,2.6,12.7-0.3C-403.2,589.1-402.4,588.2-401.8,587.3z"/>
			<path fill="#DBDCDC" d="M-410.5,621.3c0.4,0.4,0.5,0.8,0.5,1.3c0,0.5-0.2,0.9-0.5,1.3l-0.6,0.6c-0.4,0.4-0.8,0.5-1.3,0.6
				c-0.5,0-0.9-0.2-1.3-0.5l-2.1-2c-0.1-0.1-0.2-0.1-0.3,0l-8.9,9.1c-0.1,0.1-0.1,0.2,0,0.3l1.7,1.6c0.3,0.3,0.5,0.7,0.5,1.2
				c0,0.5-0.2,0.9-0.5,1.2c-0.3,0.3-0.8,0.6-1.3,0.6c-0.5,0.1-1,0-1.4-0.3c-0.8-0.5-1.6-0.8-2.4-1.1c-1.3-0.5-2.3-1-3-1.8l-0.3-0.3
				c-0.3-0.3-0.5-0.8-0.5-1.3c0-0.5,0.2-0.9,0.5-1.3l11.7-12c0.1-0.1,0.1-0.2,0-0.3l-1.5-1.5c-0.4-0.4-0.5-0.8-0.6-1.3
				c0-0.5,0.2-0.9,0.5-1.3l0.6-0.6c0.3-0.3,0.8-0.5,1.3-0.5c0.5,0,0.9,0.2,1.3,0.5L-410.5,621.3z"/>
			<path fill="#DBDCDC" d="M-410.5,619.8c0.4,0.4,0.5,0.8,0.5,1.3c0,0.5-0.2,0.9-0.5,1.3l-0.6,0.6c-0.4,0.4-0.8,0.5-1.3,0.6
				c-0.5,0-0.9-0.2-1.3-0.5l-2.1-2c-0.1-0.1-0.2-0.1-0.3,0l-8.9,9.1c-0.1,0.1-0.1,0.2,0,0.3l1.7,1.6c0.3,0.3,0.5,0.7,0.5,1.2
				c0,0.5-0.2,0.9-0.5,1.2c-0.3,0.3-0.8,0.6-1.3,0.6c-0.5,0.1-1,0-1.4-0.3c-0.8-0.5-1.6-0.8-2.4-1.1c-1.3-0.5-2.3-1-3-1.8l-0.3-0.3
				c-0.3-0.3-0.5-0.8-0.5-1.3c0-0.5,0.2-0.9,0.5-1.3l11.7-12c0.1-0.1,0.1-0.2,0-0.3l-1.5-1.5c-0.4-0.4-0.5-0.8-0.6-1.3
				c0-0.5,0.2-0.9,0.5-1.3l0.6-0.6c0.3-0.3,0.8-0.5,1.3-0.5c0.5,0,0.9,0.2,1.3,0.5L-410.5,619.8z"/>
			<path fill="#DBDCDC" d="M-434,602.1c2.5-0.5,4.7,0.2,6.5,1.9c1.8,1.8,2.5,3.9,2.1,6.5c-0.4,2.5-2,5.2-4.7,8
				c-2.7,2.8-5.3,4.4-7.8,4.8c-2.5,0.4-4.6-0.3-6.4-2c-1.8-1.8-2.5-3.9-2.2-6.4c0.4-2.5,1.9-5.1,4.6-7.9
				C-439.2,604.1-436.6,602.5-434,602.1z M-429.9,608.2c-0.1-0.4-0.3-0.8-0.6-1.1c-0.3-0.3-0.7-0.5-1.1-0.6c-0.4-0.1-0.9,0-1.5,0.2
				c-0.6,0.2-1.3,0.6-2.2,1.3c-0.8,0.6-1.8,1.5-2.9,2.6c-1.1,1.1-1.9,2.1-2.5,2.9c-0.6,0.9-1,1.6-1.2,2.2c-0.2,0.6-0.2,1.1-0.1,1.5
				c0.1,0.4,0.3,0.7,0.6,1.1c0.3,0.3,0.7,0.5,1.1,0.6c0.4,0.1,0.9,0,1.4-0.2c0.6-0.2,1.3-0.6,2.1-1.2c0.8-0.6,1.8-1.5,2.9-2.6
				c1.1-1.1,1.9-2.1,2.6-3c0.6-0.9,1-1.6,1.2-2.2C-429.9,609.1-429.8,608.6-429.9,608.2z"/>
			<path fill="#DBDCDC" d="M-434,600.6c2.5-0.5,4.7,0.2,6.5,1.9c1.8,1.8,2.5,3.9,2.1,6.5c-0.4,2.5-2,5.2-4.7,8
				c-2.7,2.8-5.3,4.4-7.8,4.8c-2.5,0.4-4.6-0.3-6.4-2c-1.8-1.8-2.5-3.9-2.2-6.4c0.4-2.5,1.9-5.1,4.6-7.9
				C-439.2,602.7-436.6,601.1-434,600.6z M-429.9,606.7c-0.1-0.4-0.3-0.8-0.6-1.1c-0.3-0.3-0.7-0.5-1.1-0.6c-0.4-0.1-0.9,0-1.5,0.2
				c-0.6,0.2-1.3,0.6-2.2,1.3c-0.8,0.6-1.8,1.5-2.9,2.6c-1.1,1.1-1.9,2.1-2.5,2.9c-0.6,0.9-1,1.6-1.2,2.2c-0.2,0.6-0.2,1.1-0.1,1.5
				c0.1,0.4,0.3,0.7,0.6,1.1c0.3,0.3,0.7,0.5,1.1,0.6c0.4,0.1,0.9,0,1.4-0.2c0.6-0.2,1.3-0.6,2.1-1.2c0.8-0.6,1.8-1.5,2.9-2.6
				c1.1-1.1,1.9-2.1,2.6-3c0.6-0.9,1-1.6,1.2-2.2C-429.9,607.6-429.8,607.1-429.9,606.7z"/>
			<path id="XMLID_285_" fill="#DBDCDC" d="M-417.7,520c-0.4-0.4-0.5-0.8-0.5-1.3c0-0.5,0.2-0.9,0.5-1.3l0.6-0.6
				c0.4-0.4,0.8-0.5,1.3-0.6c0.5,0,0.9,0.2,1.3,0.5l2.1,2c0.1,0.1,0.2,0.1,0.3,0l8.9-9.1c0.1-0.1,0.1-0.2,0-0.3l-1.7-1.6
				c-0.3-0.3-0.5-0.7-0.5-1.2c0-0.5,0.2-0.9,0.5-1.2c0.3-0.3,0.8-0.6,1.3-0.6c0.5-0.1,1,0,1.4,0.3c0.8,0.5,1.6,0.8,2.4,1.1
				c1.3,0.5,2.3,1,3,1.8l0.3,0.3c0.3,0.3,0.5,0.8,0.5,1.3c0,0.5-0.2,0.9-0.5,1.3l-11.7,12c-0.1,0.1-0.1,0.2,0,0.3l1.6,1.5
				c0.4,0.4,0.5,0.8,0.6,1.3c0,0.5-0.2,0.9-0.5,1.3l-0.6,0.6c-0.3,0.3-0.8,0.5-1.3,0.5c-0.5,0-0.9-0.2-1.3-0.5L-417.7,520z"/>
			<path fill="#DBDCDC" d="M-394.1,540.7c-2.5,0.5-4.7-0.2-6.5-1.9c-1.8-1.8-2.5-3.9-2.1-6.5c0.4-2.5,2-5.2,4.7-8
				c2.7-2.8,5.3-4.4,7.8-4.8c2.5-0.4,4.6,0.3,6.4,2c1.8,1.8,2.5,3.9,2.2,6.4c-0.4,2.5-1.9,5.1-4.6,7.9
				C-389,538.6-391.6,540.2-394.1,540.7z M-398.2,534.6c0.1,0.4,0.3,0.8,0.6,1.1c0.3,0.3,0.7,0.5,1.1,0.6c0.4,0.1,0.9,0,1.5-0.2
				c0.6-0.2,1.3-0.6,2.2-1.3c0.8-0.6,1.8-1.5,2.9-2.6c1.1-1.1,1.9-2.1,2.5-2.9c0.6-0.9,1-1.6,1.2-2.2c0.2-0.6,0.2-1.1,0.1-1.5
				c-0.1-0.4-0.3-0.7-0.6-1.1c-0.3-0.3-0.7-0.5-1.1-0.6c-0.4-0.1-0.9,0-1.4,0.2c-0.6,0.2-1.3,0.6-2.1,1.2c-0.8,0.6-1.8,1.5-2.9,2.6
				c-1.1,1.1-1.9,2.1-2.6,3c-0.6,0.9-1,1.6-1.2,2.2C-398.3,533.7-398.3,534.2-398.2,534.6z"/>
			<path fill="#DBDCDC" d="M-394.1,539.2c-2.5,0.5-4.7-0.2-6.5-1.9c-1.8-1.8-2.5-3.9-2.1-6.5c0.4-2.5,2-5.2,4.7-8
				c2.7-2.8,5.3-4.4,7.8-4.8c2.5-0.4,4.6,0.3,6.4,2c1.8,1.8,2.5,3.9,2.2,6.4c-0.4,2.5-1.9,5.1-4.6,7.9
				C-389,537.2-391.6,538.8-394.1,539.2z M-398.2,533.1c0.1,0.4,0.3,0.8,0.6,1.1c0.3,0.3,0.7,0.5,1.1,0.6c0.4,0.1,0.9,0,1.5-0.2
				c0.6-0.2,1.3-0.6,2.2-1.3c0.8-0.6,1.8-1.5,2.9-2.6c1.1-1.1,1.9-2.1,2.5-2.9c0.6-0.9,1-1.6,1.2-2.2c0.2-0.6,0.2-1.1,0.1-1.5
				c-0.1-0.4-0.3-0.7-0.6-1.1c-0.3-0.3-0.7-0.5-1.1-0.6c-0.4-0.1-0.9,0-1.4,0.2c-0.6,0.2-1.3,0.6-2.1,1.2c-0.8,0.6-1.8,1.5-2.9,2.6
				c-1.1,1.1-1.9,2.1-2.6,3c-0.6,0.9-1,1.6-1.2,2.2C-398.3,532.2-398.3,532.7-398.2,533.1z"/>
			<path id="XMLID_280_" fill="#DBDCDC" d="M-433,638.6l-52.1-50.9c-3.4-3.3-3.5-8.8-0.1-12.3l75.1-76.9c3.3-3.4,8.8-3.5,12.3-0.1
				l52.1,50.9c3.4,3.3,3.5,8.8,0.1,12.3l-75.1,76.9C-424.1,641.9-429.6,642-433,638.6z"/>
			<path fill="#DBDCDC" d="M-403.3,587.3c5.3-7.9,5.7-25.5,5.7-32.6c0-1.7-1.4-3-3.1-3c-7,0.1-24.6,1-32.4,6.4
				c-1.5,1-2.8,2.4-3.7,4.3c-1.7,3.7-1.2,8.1,1.4,11.2c1.5,1.8,3.5,3,5.6,3.5c0.4,0.1,0.4,0.6,0.1,0.8l-6.7,3.2
				c-0.8,0.4-1,1.5-0.4,2.1l4.3,4.2l4.3,4.2c0.6,0.6,1.7,0.4,2.1-0.4l3-6.8c0.2-0.3,0.7-0.3,0.8,0.1c0.6,2.2,1.9,4.2,4,5.7
				c3.8,2.8,9.1,2.6,12.7-0.3C-404.6,589.1-403.9,588.2-403.3,587.3z"/>
			<path fill="#DBDCDC" d="M-403.3,585.9c5.3-7.9,5.7-25.5,5.7-32.6c0-1.7-1.4-3-3.1-3c-7,0.1-24.6,1-32.4,6.4
				c-1.5,1-2.8,2.4-3.7,4.3c-1.7,3.7-1.2,8.1,1.4,11.2c1.5,1.8,3.5,3,5.6,3.5c0.4,0.1,0.4,0.6,0.1,0.8l-6.7,3.2
				c-0.8,0.4-1,1.5-0.4,2.1l4.3,4.2l4.3,4.2c0.6,0.6,1.7,0.4,2.1-0.4l3-6.8c0.2-0.3,0.7-0.3,0.8,0.1c0.6,2.2,1.9,4.2,4,5.7
				c3.8,2.8,9.1,2.6,12.7-0.3C-404.6,587.7-403.9,586.8-403.3,585.9z"/>
			<path fill="#DBDCDC" d="M-411.9,619.8c0.4,0.4,0.5,0.8,0.5,1.3c0,0.5-0.2,0.9-0.5,1.3l-0.6,0.6c-0.4,0.4-0.8,0.5-1.3,0.6
				c-0.5,0-0.9-0.2-1.3-0.5l-2.1-2c-0.1-0.1-0.2-0.1-0.3,0l-8.9,9.1c-0.1,0.1-0.1,0.2,0,0.3l1.7,1.6c0.3,0.3,0.5,0.7,0.5,1.2
				c0,0.5-0.2,0.9-0.5,1.2c-0.3,0.3-0.8,0.6-1.3,0.6c-0.5,0.1-1,0-1.4-0.3c-0.8-0.5-1.6-0.8-2.4-1.1c-1.3-0.5-2.3-1-3-1.8l-0.3-0.3
				c-0.3-0.3-0.5-0.8-0.5-1.3c0-0.5,0.2-0.9,0.5-1.3l11.7-12c0.1-0.1,0.1-0.2,0-0.3l-1.5-1.5c-0.4-0.4-0.5-0.8-0.6-1.3
				c0-0.5,0.2-0.9,0.5-1.3l0.6-0.6c0.3-0.3,0.8-0.5,1.3-0.5c0.5,0,0.9,0.2,1.3,0.5L-411.9,619.8z"/>
			<path fill="#DBDCDC" d="M-411.9,618.4c0.4,0.4,0.5,0.8,0.5,1.3c0,0.5-0.2,0.9-0.5,1.3l-0.6,0.6c-0.4,0.4-0.8,0.5-1.3,0.6
				c-0.5,0-0.9-0.2-1.3-0.5l-2.1-2c-0.1-0.1-0.2-0.1-0.3,0l-8.9,9.1c-0.1,0.1-0.1,0.2,0,0.3l1.7,1.6c0.3,0.3,0.5,0.7,0.5,1.2
				c0,0.5-0.2,0.9-0.5,1.2c-0.3,0.3-0.8,0.6-1.3,0.6c-0.5,0.1-1,0-1.4-0.3c-0.8-0.5-1.6-0.8-2.4-1.1c-1.3-0.5-2.3-1-3-1.8l-0.3-0.3
				c-0.3-0.3-0.5-0.8-0.5-1.3c0-0.5,0.2-0.9,0.5-1.3l11.7-12c0.1-0.1,0.1-0.2,0-0.3l-1.5-1.5c-0.4-0.4-0.5-0.8-0.6-1.3
				c0-0.5,0.2-0.9,0.5-1.3l0.6-0.6c0.3-0.3,0.8-0.5,1.3-0.5c0.5,0,0.9,0.2,1.3,0.5L-411.9,618.4z"/>
			<path fill="#DBDCDC" d="M-435.4,600.6c2.5-0.5,4.7,0.2,6.5,1.9c1.8,1.8,2.5,3.9,2.1,6.5c-0.4,2.5-2,5.2-4.7,8
				c-2.7,2.8-5.3,4.4-7.8,4.8c-2.5,0.4-4.6-0.3-6.4-2c-1.8-1.8-2.5-3.9-2.2-6.4c0.4-2.5,1.9-5.1,4.6-7.9
				C-440.6,602.7-438,601.1-435.4,600.6z M-431.3,606.7c-0.1-0.4-0.3-0.8-0.6-1.1c-0.3-0.3-0.7-0.5-1.1-0.6c-0.4-0.1-0.9,0-1.5,0.2
				c-0.6,0.2-1.3,0.6-2.2,1.3c-0.8,0.6-1.8,1.5-2.9,2.6c-1.1,1.1-1.9,2.1-2.5,2.9c-0.6,0.9-1,1.6-1.2,2.2c-0.2,0.6-0.2,1.1-0.1,1.5
				c0.1,0.4,0.3,0.7,0.6,1.1c0.3,0.3,0.7,0.5,1.1,0.6c0.4,0.1,0.9,0,1.4-0.2c0.6-0.2,1.3-0.6,2.1-1.2c0.8-0.6,1.8-1.5,2.9-2.6
				c1.1-1.1,1.9-2.1,2.6-3c0.6-0.9,1-1.6,1.2-2.2C-431.3,607.6-431.3,607.1-431.3,606.7z"/>
			<path fill="#DBDCDC" d="M-435.4,599.2c2.5-0.5,4.7,0.2,6.5,1.9c1.8,1.8,2.5,3.9,2.1,6.5c-0.4,2.5-2,5.2-4.7,8
				c-2.7,2.8-5.3,4.4-7.8,4.8c-2.5,0.4-4.6-0.3-6.4-2c-1.8-1.8-2.5-3.9-2.2-6.4c0.4-2.5,1.9-5.1,4.6-7.9
				C-440.6,601.3-438,599.7-435.4,599.2z M-431.3,605.3c-0.1-0.4-0.3-0.8-0.6-1.1c-0.3-0.3-0.7-0.5-1.1-0.6c-0.4-0.1-0.9,0-1.5,0.2
				c-0.6,0.2-1.3,0.6-2.2,1.3c-0.8,0.6-1.8,1.5-2.9,2.6c-1.1,1.1-1.9,2.1-2.5,2.9c-0.6,0.9-1,1.6-1.2,2.2c-0.2,0.6-0.2,1.1-0.1,1.5
				c0.1,0.4,0.3,0.7,0.6,1.1c0.3,0.3,0.7,0.5,1.1,0.6c0.4,0.1,0.9,0,1.4-0.2c0.6-0.2,1.3-0.6,2.1-1.2c0.8-0.6,1.8-1.5,2.9-2.6
				c1.1-1.1,1.9-2.1,2.6-3c0.6-0.9,1-1.6,1.2-2.2C-431.3,606.2-431.3,605.7-431.3,605.3z"/>
			<path id="XMLID_272_" fill="#DBDCDC" d="M-419.1,518.6c-0.4-0.4-0.5-0.8-0.5-1.3c0-0.5,0.2-0.9,0.5-1.3l0.6-0.6
				c0.4-0.4,0.8-0.5,1.3-0.6c0.5,0,0.9,0.2,1.3,0.5l2.1,2c0.1,0.1,0.2,0.1,0.3,0l8.9-9.1c0.1-0.1,0.1-0.2,0-0.3l-1.7-1.6
				c-0.3-0.3-0.5-0.7-0.5-1.2c0-0.5,0.2-0.9,0.5-1.2c0.3-0.3,0.8-0.6,1.3-0.6c0.5-0.1,1,0,1.4,0.3c0.8,0.5,1.6,0.8,2.4,1.1
				c1.3,0.5,2.3,1,3,1.8l0.3,0.3c0.3,0.3,0.5,0.8,0.5,1.3c0,0.5-0.2,0.9-0.5,1.3l-11.7,12c-0.1,0.1-0.1,0.2,0,0.3l1.5,1.5
				c0.4,0.4,0.5,0.8,0.6,1.3c0,0.5-0.2,0.9-0.5,1.3l-0.6,0.6c-0.3,0.3-0.8,0.5-1.3,0.5c-0.5,0-0.9-0.2-1.3-0.5L-419.1,518.6z"/>
			<path fill="#DBDCDC" d="M-395.6,539.2c-2.5,0.5-4.7-0.2-6.5-1.9c-1.8-1.8-2.5-3.9-2.1-6.5c0.4-2.5,2-5.2,4.7-8
				c2.7-2.8,5.3-4.4,7.8-4.8c2.5-0.4,4.6,0.3,6.4,2c1.8,1.8,2.5,3.9,2.2,6.4c-0.4,2.5-1.9,5.1-4.6,7.9
				C-390.4,537.2-393,538.8-395.6,539.2z M-399.7,533.1c0.1,0.4,0.3,0.8,0.6,1.1c0.3,0.3,0.7,0.5,1.1,0.6c0.4,0.1,0.9,0,1.5-0.2
				c0.6-0.2,1.3-0.6,2.2-1.3c0.8-0.6,1.8-1.5,2.9-2.6c1.1-1.1,1.9-2.1,2.5-2.9c0.6-0.9,1-1.6,1.2-2.2c0.2-0.6,0.2-1.1,0.1-1.5
				c-0.1-0.4-0.3-0.7-0.6-1.1c-0.3-0.3-0.7-0.5-1.1-0.6c-0.4-0.1-0.9,0-1.4,0.2c-0.6,0.2-1.3,0.6-2.1,1.2c-0.8,0.6-1.8,1.5-2.9,2.6
				c-1.1,1.1-1.9,2.1-2.6,3c-0.6,0.9-1,1.6-1.2,2.2C-399.7,532.2-399.7,532.7-399.7,533.1z"/>
			<path fill="#DBDCDC" d="M-395.6,537.8c-2.5,0.5-4.7-0.2-6.5-1.9c-1.8-1.8-2.5-3.9-2.1-6.5c0.4-2.5,2-5.2,4.7-8
				c2.7-2.8,5.3-4.4,7.8-4.8c2.5-0.4,4.6,0.3,6.4,2c1.8,1.8,2.5,3.9,2.2,6.4c-0.4,2.5-1.9,5.1-4.6,7.9
				C-390.4,535.7-393,537.4-395.6,537.8z M-399.7,531.7c0.1,0.4,0.3,0.8,0.6,1.1c0.3,0.3,0.7,0.5,1.1,0.6c0.4,0.1,0.9,0,1.5-0.2
				c0.6-0.2,1.3-0.6,2.2-1.3c0.8-0.6,1.8-1.5,2.9-2.6c1.1-1.1,1.9-2.1,2.5-2.9c0.6-0.9,1-1.6,1.2-2.2c0.2-0.6,0.2-1.1,0.1-1.5
				c-0.1-0.4-0.3-0.7-0.6-1.1c-0.3-0.3-0.7-0.5-1.1-0.6c-0.4-0.1-0.9,0-1.4,0.2c-0.6,0.2-1.3,0.6-2.1,1.2c-0.8,0.6-1.8,1.5-2.9,2.6
				c-1.1,1.1-1.9,2.1-2.6,3c-0.6,0.9-1,1.6-1.2,2.2C-399.7,530.8-399.7,531.3-399.7,531.7z"/>
			<path id="XMLID_267_" fill="#DBDCDC" d="M-450.9,608.6l-63.6-35.7c-4.2-2.3-5.7-7.6-3.3-11.8l52.6-93.7c2.3-4.2,7.6-5.7,11.8-3.3
				l63.6,35.7c4.2,2.3,5.7,7.6,3.3,11.8l-52.6,93.7C-441.4,609.5-446.7,611-450.9,608.6z"/>
			<path fill="#DBDCDC" d="M-435.8,551.4c3.1-9-1.1-26.1-3-33c-0.4-1.6-2.1-2.6-3.7-2.1c-6.8,1.9-23.5,7.3-29.6,14.5
				c-1.2,1.4-2.1,3-2.5,5.1c-0.7,4,0.9,8.1,4.2,10.5c1.9,1.4,4.1,2,6.3,2c0.4,0,0.6,0.5,0.3,0.7l-5.7,4.8c-0.7,0.6-0.6,1.7,0.2,2.1
				l5.3,3l5.3,3c0.8,0.4,1.8,0,1.9-0.9l1.1-7.4c0.1-0.4,0.6-0.5,0.7-0.1c1.2,2,3,3.6,5.4,4.5c4.4,1.7,9.5,0.2,12.2-3.6
				C-436.6,553.4-436.1,552.4-435.8,551.4z"/>
			<path fill="#DBDCDC" d="M-435.8,549.9c3.1-9-1.1-26.1-3-33c-0.4-1.6-2.1-2.6-3.7-2.1c-6.8,1.9-23.5,7.3-29.6,14.5
				c-1.2,1.4-2.1,3-2.5,5.1c-0.7,4,0.9,8.1,4.2,10.5c1.9,1.4,4.1,2,6.3,2c0.4,0,0.6,0.5,0.3,0.7l-5.7,4.8c-0.7,0.6-0.6,1.7,0.2,2.1
				l5.3,3l5.3,3c0.8,0.4,1.8,0,1.9-0.9l1.1-7.4c0.1-0.4,0.6-0.5,0.7-0.1c1.2,2,3,3.6,5.4,4.5c4.4,1.7,9.5,0.2,12.2-3.6
				C-436.6,552-436.1,551-435.8,549.9z"/>
			<path id="XMLID_264_" fill="#DBDCDC" d="M-464,491.6c-2.5-1.4-4-3.3-4.4-5.7c-0.1-0.4,0-0.7,0.2-1.1c0-0.1,0.1-0.2,0.2-0.3
				c0.3-0.4,0.7-0.6,1.2-0.7l1.1-0.2c0.4,0,0.7,0,1,0.2c0.1,0.1,0.2,0.1,0.3,0.2c0.3,0.3,0.6,0.7,0.8,1.2c0.3,0.8,0.7,1.4,1.4,1.8
				c0.8,0.5,1.6,0.5,2.3,0.3c0.7-0.3,1.4-1.1,2.1-2.3l6.4-11.5c0.2-0.4,0.6-0.7,1.1-0.9c0.5-0.1,0.9-0.1,1.4,0.2l1.7,1
				c0.4,0.2,0.7,0.6,0.9,1.1c0.1,0.5,0.1,0.9-0.2,1.4l-6.7,11.8c-0.8,1.4-1.7,2.5-2.7,3.3c-1.1,0.8-2.3,1.3-3.7,1.3
				C-461,492.8-462.5,492.5-464,491.6z"/>
			<path fill="#DBDCDC" d="M-440.2,582.5c2.5,1.4,4,3.3,4.4,5.7c0.1,0.4,0,0.7-0.2,1.1c0,0.1-0.1,0.2-0.2,0.3
				c-0.3,0.4-0.7,0.6-1.2,0.7l-1.1,0.2c-0.4,0-0.7,0-1-0.2c-0.1-0.1-0.2-0.1-0.3-0.2c-0.3-0.3-0.6-0.7-0.8-1.2
				c-0.3-0.8-0.7-1.4-1.4-1.8c-0.8-0.5-1.6-0.5-2.3-0.3c-0.7,0.3-1.4,1.1-2.1,2.3l-6.4,11.5c-0.2,0.4-0.6,0.7-1.1,0.9
				c-0.5,0.1-0.9,0.1-1.4-0.2l-1.7-1c-0.4-0.2-0.7-0.6-0.9-1.1c-0.1-0.5-0.1-0.9,0.2-1.4l6.7-11.8c0.8-1.4,1.7-2.5,2.7-3.3
				c1.1-0.8,2.3-1.3,3.7-1.3C-443.1,581.3-441.7,581.7-440.2,582.5z"/>
			<path fill="#DBDCDC" d="M-440.2,581.1c2.5,1.4,4,3.3,4.4,5.7c0.1,0.4,0,0.7-0.2,1.1c0,0.1-0.1,0.2-0.2,0.3
				c-0.3,0.4-0.7,0.6-1.2,0.7l-1.1,0.2c-0.4,0-0.7,0-1-0.2c-0.1-0.1-0.2-0.1-0.3-0.2c-0.3-0.3-0.6-0.7-0.8-1.2
				c-0.3-0.8-0.7-1.4-1.4-1.8c-0.8-0.5-1.6-0.5-2.3-0.3c-0.7,0.3-1.4,1.1-2.1,2.3l-6.4,11.5c-0.2,0.4-0.6,0.7-1.1,0.9
				c-0.5,0.1-0.9,0.1-1.4-0.2l-1.7-1c-0.4-0.2-0.7-0.6-0.9-1.1c-0.1-0.5-0.1-0.9,0.2-1.4l6.7-11.8c0.8-1.4,1.7-2.5,2.7-3.3
				c1.1-0.8,2.3-1.3,3.7-1.3C-443.1,579.9-441.7,580.2-440.2,581.1z"/>
			<path id="XMLID_261_" fill="#DBDCDC" d="M-452.3,607.2l-63.6-35.7c-4.2-2.3-5.7-7.6-3.3-11.8l52.6-93.7c2.3-4.2,7.6-5.7,11.8-3.3
				l63.6,35.7c4.2,2.3,5.7,7.6,3.3,11.8l-52.6,93.7C-442.8,608.1-448.1,609.5-452.3,607.2z"/>
			<path fill="#DBDCDC" d="M-437.2,549.9c3.1-9-1.1-26.1-3-33c-0.4-1.6-2.1-2.6-3.7-2.1c-6.8,1.9-23.5,7.3-29.6,14.5
				c-1.2,1.4-2.1,3-2.5,5.1c-0.7,4,0.9,8.1,4.2,10.5c1.9,1.4,4.1,2,6.3,2c0.4,0,0.6,0.5,0.3,0.7l-5.7,4.8c-0.7,0.6-0.6,1.7,0.2,2.1
				l5.3,3l5.3,3c0.8,0.4,1.8,0,1.9-0.9l1.1-7.4c0.1-0.4,0.6-0.5,0.7-0.1c1.2,2,3,3.6,5.4,4.5c4.4,1.7,9.5,0.2,12.2-3.6
				C-438,552-437.5,551-437.2,549.9z"/>
			<path fill="#DBDCDC" d="M-437.2,548.5c3.1-9-1.1-26.1-3-33c-0.4-1.6-2.1-2.6-3.7-2.1c-6.8,1.9-23.5,7.3-29.6,14.5
				c-1.2,1.4-2.1,3-2.5,5.1c-0.7,4,0.9,8.1,4.2,10.5c1.9,1.4,4.1,2,6.3,2c0.4,0,0.6,0.5,0.3,0.7l-5.7,4.8c-0.7,0.6-0.6,1.7,0.2,2.1
				l5.3,3l5.3,3c0.8,0.4,1.8,0,1.9-0.9l1.1-7.4c0.1-0.4,0.6-0.5,0.7-0.1c1.2,2,3,3.6,5.4,4.5c4.4,1.7,9.5,0.2,12.2-3.6
				C-438,550.6-437.5,549.6-437.2,548.5z"/>
			<path id="XMLID_259_" fill="#DBDCDC" d="M-465.4,490.2c-2.5-1.4-4-3.3-4.4-5.7c-0.1-0.4,0-0.7,0.2-1.1c0-0.1,0.1-0.2,0.2-0.3
				c0.3-0.4,0.7-0.6,1.2-0.7l1.1-0.2c0.4,0,0.7,0,1,0.2c0.1,0.1,0.2,0.1,0.3,0.2c0.3,0.3,0.6,0.7,0.8,1.2c0.3,0.8,0.7,1.4,1.4,1.8
				c0.8,0.5,1.6,0.5,2.3,0.3c0.7-0.3,1.4-1.1,2.1-2.3l6.4-11.5c0.2-0.4,0.6-0.7,1.1-0.9c0.5-0.1,0.9-0.1,1.4,0.2l1.7,1
				c0.4,0.2,0.7,0.6,0.9,1.1c0.1,0.5,0.1,0.9-0.2,1.4l-6.7,11.8c-0.8,1.4-1.7,2.5-2.7,3.3c-1.1,0.8-2.3,1.3-3.7,1.3
				C-462.5,491.4-463.9,491-465.4,490.2z"/>
			<path fill="#DBDCDC" d="M-441.6,581.1c2.5,1.4,4,3.3,4.4,5.7c0.1,0.4,0,0.7-0.2,1.1c0,0.1-0.1,0.2-0.2,0.3
				c-0.3,0.4-0.7,0.6-1.2,0.7l-1.1,0.2c-0.4,0-0.7,0-1-0.2c-0.1-0.1-0.2-0.1-0.3-0.2c-0.3-0.3-0.6-0.7-0.8-1.2
				c-0.3-0.8-0.7-1.4-1.4-1.8c-0.8-0.5-1.6-0.5-2.3-0.3c-0.7,0.3-1.4,1.1-2.1,2.3l-6.4,11.5c-0.2,0.4-0.6,0.7-1.1,0.9
				c-0.5,0.1-0.9,0.1-1.4-0.2l-1.7-1c-0.4-0.2-0.7-0.6-0.9-1.1c-0.1-0.5-0.1-0.9,0.2-1.4l6.7-11.8c0.8-1.4,1.7-2.5,2.7-3.3
				c1.1-0.8,2.3-1.3,3.7-1.3C-444.5,579.9-443.1,580.2-441.6,581.1z"/>
			<path fill="#DBDCDC" d="M-441.6,579.6c2.5,1.4,4,3.3,4.4,5.7c0.1,0.4,0,0.7-0.2,1.1c0,0.1-0.1,0.2-0.2,0.3
				c-0.3,0.4-0.7,0.6-1.2,0.7l-1.1,0.2c-0.4,0-0.7,0-1-0.2c-0.1-0.1-0.2-0.1-0.3-0.2c-0.3-0.3-0.6-0.7-0.8-1.2
				c-0.3-0.8-0.7-1.4-1.4-1.8c-0.8-0.5-1.6-0.5-2.3-0.3c-0.7,0.3-1.4,1.1-2.1,2.3l-6.4,11.5c-0.2,0.4-0.6,0.7-1.1,0.9
				c-0.5,0.1-0.9,0.1-1.4-0.2l-1.7-1c-0.4-0.2-0.7-0.6-0.9-1.1c-0.1-0.5-0.1-0.9,0.2-1.4l6.7-11.8c0.8-1.4,1.7-2.5,2.7-3.3
				c1.1-0.8,2.3-1.3,3.7-1.3C-444.5,578.4-443.1,578.8-441.6,579.6z"/>
			<path id="XMLID_256_" fill="#DBDCDC" d="M-473.3,584.4l-70.6-18c-4.6-1.2-7.4-5.9-6.3-10.5l26.6-104.1c1.2-4.6,5.9-7.4,10.5-6.3
				l70.6,18c4.6,1.2,7.4,5.9,6.3,10.5l-26.6,104.1C-463.9,582.8-468.7,585.6-473.3,584.4z"/>
			<path fill="#DBDCDC" d="M-473.9,525.3c0.6-9.4-7.8-25-11.4-31.1c-0.8-1.4-2.7-1.9-4.1-1.1c-6,3.6-20.8,13.1-24.9,21.7
				c-0.8,1.6-1.3,3.5-1.1,5.6c0.4,4,3,7.6,6.8,9c2.2,0.8,4.5,0.9,6.6,0.3c0.4-0.1,0.7,0.3,0.4,0.6l-4.3,6.1c-0.5,0.7-0.1,1.8,0.7,2
				l5.9,1.5l5.9,1.5c0.9,0.2,1.7-0.5,1.6-1.4l-0.8-7.4c0-0.4,0.4-0.6,0.7-0.3c1.6,1.6,3.8,2.7,6.3,3c4.7,0.5,9.2-2.3,10.9-6.7
				C-474.2,527.5-474,526.4-473.9,525.3z"/>
			<path fill="#DBDCDC" d="M-473.9,523.9c0.6-9.4-7.8-25-11.4-31.1c-0.8-1.4-2.7-1.9-4.1-1.1c-6,3.6-20.8,13.1-24.9,21.7
				c-0.8,1.6-1.3,3.5-1.1,5.6c0.4,4,3,7.6,6.8,9c2.2,0.8,4.5,0.9,6.6,0.3c0.4-0.1,0.7,0.3,0.4,0.6l-4.3,6.1c-0.5,0.7-0.1,1.8,0.7,2
				l5.9,1.5l5.9,1.5c0.9,0.2,1.7-0.5,1.6-1.4l-0.8-7.4c0-0.4,0.4-0.6,0.7-0.3c1.6,1.6,3.8,2.7,6.3,3c4.7,0.5,9.2-2.3,10.9-6.7
				C-474.2,526.1-474,525-473.9,523.9z"/>
			<path id="XMLID_244_" fill="#DBDCDC" d="M-504.3,480.1c0.1,0,0.2,0,0.3,0.1c0.4,0.1,0.7,0.3,1,0.6c0.3,0.3,0.5,0.7,0.5,1.2l0,0.6
				c0,0.2,0,0.4-0.1,0.5c-0.1,0.3-0.2,0.6-0.5,0.9c-0.4,0.4-0.8,0.6-1.3,0.6c-0.8-0.1-1.6-0.2-2.5-0.4c-2.3-0.6-4.2-1.6-5.6-3.1
				c-1.4-1.5-2.3-3.3-2.7-5.3c0-0.2-0.1-0.3-0.3-0.3c-2.2-1.2-3.8-3-4.6-5.3c-0.9-2.4-0.9-5.1-0.1-8.2c0.9-3.6,2.6-6.2,5-7.8
				c2.4-1.6,5.2-1.9,8.3-1.1c3.1,0.8,5.4,2.5,6.7,5c1.4,2.5,1.6,5.6,0.7,9.2c-0.7,2.9-2,5.2-3.7,6.9c-1.7,1.6-3.7,2.5-6.1,2.7
				c-0.1,0-0.2,0.1-0.1,0.2c0.3,0.8,0.9,1.5,1.7,2c0.8,0.5,1.6,0.9,2.6,1.2C-504.8,480-504.6,480-504.3,480.1z M-514.6,463.1
				c-0.6,2.3-0.6,4.2-0.1,5.8c0.5,1.5,1.5,2.5,3,2.8c1.5,0.4,2.8,0,4-1.1c1.2-1.1,2.1-2.8,2.7-5.1c0.6-2.2,0.6-4,0-5.4
				c-0.5-1.4-1.6-2.4-3.1-2.7c-1.5-0.4-2.8-0.1-4,0.9C-513.1,459.4-514,461-514.6,463.1z"/>
			<path fill="#DBDCDC" d="M-482.1,551.3c-0.1,0-0.2,0-0.3-0.1c-0.4-0.1-0.7-0.3-1-0.6c-0.3-0.3-0.5-0.7-0.5-1.2l0-0.6
				c0-0.2,0-0.4,0.1-0.5c0.1-0.3,0.2-0.6,0.5-0.9c0.4-0.4,0.8-0.6,1.3-0.6c0.8,0.1,1.6,0.2,2.5,0.4c2.3,0.6,4.2,1.6,5.6,3.1
				c1.4,1.5,2.3,3.3,2.7,5.3c0,0.2,0.1,0.3,0.3,0.3c2.2,1.2,3.8,3,4.6,5.3c0.9,2.4,0.9,5.1,0.1,8.2c-0.9,3.6-2.6,6.2-5,7.8
				c-2.4,1.6-5.2,1.9-8.3,1.1c-3.1-0.8-5.4-2.5-6.7-5c-1.4-2.5-1.6-5.6-0.7-9.2c0.7-2.9,2-5.2,3.7-6.9c1.7-1.6,3.7-2.5,6.1-2.7
				c0.1,0,0.2-0.1,0.1-0.2c-0.3-0.8-0.9-1.5-1.7-2c-0.8-0.5-1.6-0.9-2.6-1.2C-481.5,551.3-481.8,551.3-482.1,551.3z M-471.8,568.2
				c0.6-2.3,0.6-4.2,0.1-5.8c-0.5-1.5-1.5-2.5-3-2.8c-1.5-0.4-2.8,0-4,1.1c-1.2,1.1-2.1,2.8-2.7,5.1c-0.6,2.2-0.6,4,0,5.4
				c0.5,1.4,1.6,2.4,3.1,2.7c1.5,0.4,2.8,0.1,4-0.9C-473.2,571.9-472.4,570.4-471.8,568.2z"/>
			<path fill="#DBDCDC" d="M-482.1,549.8c-0.1,0-0.2,0-0.3-0.1c-0.4-0.1-0.7-0.3-1-0.6c-0.3-0.3-0.5-0.7-0.5-1.2l0-0.6
				c0-0.2,0-0.4,0.1-0.5c0.1-0.3,0.2-0.6,0.5-0.9c0.4-0.4,0.8-0.6,1.3-0.6c0.8,0.1,1.6,0.2,2.5,0.4c2.3,0.6,4.2,1.6,5.6,3.1
				c1.4,1.5,2.3,3.3,2.7,5.3c0,0.2,0.1,0.3,0.3,0.3c2.2,1.2,3.8,3,4.6,5.3c0.9,2.4,0.9,5.1,0.1,8.2c-0.9,3.6-2.6,6.2-5,7.8
				c-2.4,1.6-5.2,1.9-8.3,1.1c-3.1-0.8-5.4-2.5-6.7-5c-1.4-2.5-1.6-5.6-0.7-9.2c0.7-2.9,2-5.2,3.7-6.9c1.7-1.6,3.7-2.5,6.1-2.7
				c0.1,0,0.2-0.1,0.1-0.2c-0.3-0.8-0.9-1.5-1.7-2c-0.8-0.5-1.6-0.9-2.6-1.2C-481.5,549.9-481.8,549.9-482.1,549.8z M-471.8,566.8
				c0.6-2.3,0.6-4.2,0.1-5.8c-0.5-1.5-1.5-2.5-3-2.8c-1.5-0.4-2.8,0-4,1.1c-1.2,1.1-2.1,2.8-2.7,5.1c-0.6,2.2-0.6,4,0,5.4
				c0.5,1.4,1.6,2.4,3.1,2.7c1.5,0.4,2.8,0.1,4-0.9C-473.2,570.5-472.4,568.9-471.8,566.8z"/>
			<path id="XMLID_239_" fill="#DBDCDC" d="M-474.7,583l-70.6-18c-4.6-1.2-7.4-5.9-6.3-10.5l26.6-104.1c1.2-4.6,5.9-7.4,10.5-6.3
				l70.6,18c4.6,1.2,7.4,5.9,6.3,10.5l-26.6,104.1C-465.4,581.4-470.1,584.2-474.7,583z"/>
			<path fill="#DBDCDC" d="M-475.3,523.9c0.6-9.4-7.8-25-11.4-31.1c-0.8-1.4-2.7-1.9-4.1-1.1c-6,3.6-20.8,13.1-24.9,21.7
				c-0.8,1.6-1.3,3.5-1.1,5.6c0.4,4,3,7.6,6.8,9c2.2,0.8,4.5,0.9,6.6,0.3c0.4-0.1,0.7,0.3,0.4,0.6l-4.3,6.1c-0.5,0.7-0.1,1.8,0.7,2
				l5.9,1.5l5.9,1.5c0.9,0.2,1.7-0.5,1.6-1.4l-0.8-7.4c0-0.4,0.4-0.6,0.7-0.3c1.6,1.6,3.8,2.7,6.3,3c4.7,0.5,9.2-2.3,10.9-6.7
				C-475.6,526.1-475.4,525-475.3,523.9z"/>
			<path fill="#DBDCDC" d="M-475.3,522.4c0.6-9.4-7.8-25-11.4-31.1c-0.8-1.4-2.7-1.9-4.1-1.1c-6,3.6-20.8,13.1-24.9,21.7
				c-0.8,1.6-1.3,3.5-1.1,5.6c0.4,4,3,7.6,6.8,9c2.2,0.8,4.5,0.9,6.6,0.3c0.4-0.1,0.7,0.3,0.4,0.6l-4.3,6.1c-0.5,0.7-0.1,1.8,0.7,2
				l5.9,1.5l5.9,1.5c0.9,0.2,1.7-0.5,1.6-1.4l-0.8-7.4c0-0.4,0.4-0.6,0.7-0.3c1.6,1.6,3.8,2.7,6.3,3c4.7,0.5,9.2-2.3,10.9-6.7
				C-475.6,524.7-475.4,523.6-475.3,522.4z"/>
			<path id="XMLID_236_" fill="#DBDCDC" d="M-505.7,478.7c0.1,0,0.2,0,0.3,0.1c0.4,0.1,0.7,0.3,1,0.6c0.3,0.3,0.5,0.7,0.5,1.2l0,0.6
				c0,0.2,0,0.4-0.1,0.5c-0.1,0.3-0.2,0.6-0.5,0.9c-0.4,0.4-0.8,0.6-1.3,0.6c-0.8-0.1-1.6-0.2-2.5-0.4c-2.3-0.6-4.2-1.6-5.6-3.1
				c-1.4-1.5-2.3-3.3-2.7-5.3c0-0.2-0.1-0.3-0.3-0.3c-2.2-1.2-3.8-3-4.6-5.3c-0.9-2.4-0.9-5.1-0.1-8.2c0.9-3.6,2.6-6.2,5-7.8
				c2.4-1.6,5.2-1.9,8.3-1.1c3.1,0.8,5.4,2.5,6.7,5c1.4,2.5,1.6,5.6,0.7,9.2c-0.7,2.9-2,5.2-3.7,6.9c-1.7,1.6-3.7,2.5-6.1,2.7
				c-0.1,0-0.2,0.1-0.1,0.2c0.3,0.8,0.9,1.5,1.7,2c0.8,0.5,1.6,0.9,2.6,1.2C-506.3,478.6-506,478.6-505.7,478.7z M-516,461.7
				c-0.6,2.3-0.6,4.2-0.1,5.8c0.5,1.5,1.5,2.5,3,2.8c1.5,0.4,2.8,0,4-1.1c1.2-1.1,2.1-2.8,2.7-5.1c0.6-2.2,0.6-4,0-5.4
				c-0.5-1.4-1.6-2.4-3.1-2.7c-1.5-0.4-2.8-0.1-4,0.9C-514.6,458-515.4,459.6-516,461.7z"/>
			<path fill="#DBDCDC" d="M-483.5,549.8c-0.1,0-0.2,0-0.3-0.1c-0.4-0.1-0.7-0.3-1-0.6c-0.3-0.3-0.5-0.7-0.5-1.2l0-0.6
				c0-0.2,0-0.4,0.1-0.5c0.1-0.3,0.2-0.6,0.5-0.9c0.4-0.4,0.8-0.6,1.3-0.6c0.8,0.1,1.6,0.2,2.5,0.4c2.3,0.6,4.2,1.6,5.6,3.1
				c1.4,1.5,2.3,3.3,2.7,5.3c0,0.2,0.1,0.3,0.3,0.3c2.2,1.2,3.8,3,4.6,5.3c0.9,2.4,0.9,5.1,0.1,8.2c-0.9,3.6-2.6,6.2-5,7.8
				c-2.4,1.6-5.2,1.9-8.3,1.1c-3.1-0.8-5.4-2.5-6.7-5c-1.4-2.5-1.6-5.6-0.7-9.2c0.7-2.9,2-5.2,3.7-6.9c1.7-1.6,3.7-2.5,6.1-2.7
				c0.1,0,0.2-0.1,0.1-0.2c-0.3-0.8-0.9-1.5-1.7-2c-0.8-0.5-1.6-0.9-2.6-1.2C-482.9,549.9-483.2,549.9-483.5,549.8z M-473.2,566.8
				c0.6-2.3,0.6-4.2,0.1-5.8c-0.5-1.5-1.5-2.5-3-2.8c-1.5-0.4-2.8,0-4,1.1c-1.2,1.1-2.1,2.8-2.7,5.1c-0.6,2.2-0.6,4,0,5.4
				c0.5,1.4,1.6,2.4,3.1,2.7c1.5,0.4,2.8,0.1,4-0.9C-474.6,570.5-473.8,568.9-473.2,566.8z"/>
			<path fill="#DBDCDC" d="M-483.5,548.4c-0.1,0-0.2,0-0.3-0.1c-0.4-0.1-0.7-0.3-1-0.6c-0.3-0.3-0.5-0.7-0.5-1.2l0-0.6
				c0-0.2,0-0.4,0.1-0.5c0.1-0.3,0.2-0.6,0.5-0.9c0.4-0.4,0.8-0.6,1.3-0.6c0.8,0.1,1.6,0.2,2.5,0.4c2.3,0.6,4.2,1.6,5.6,3.1
				c1.4,1.5,2.3,3.3,2.7,5.3c0,0.2,0.1,0.3,0.3,0.3c2.2,1.2,3.8,3,4.6,5.3c0.9,2.4,0.9,5.1,0.1,8.2c-0.9,3.6-2.6,6.2-5,7.8
				c-2.4,1.6-5.2,1.9-8.3,1.1c-3.1-0.8-5.4-2.5-6.7-5c-1.4-2.5-1.6-5.6-0.7-9.2c0.7-2.9,2-5.2,3.7-6.9c1.7-1.6,3.7-2.5,6.1-2.7
				c0.1,0,0.2-0.1,0.1-0.2c-0.3-0.8-0.9-1.5-1.7-2c-0.8-0.5-1.6-0.9-2.6-1.2C-482.9,548.5-483.2,548.5-483.5,548.4z M-473.2,565.4
				c0.6-2.3,0.6-4.2,0.1-5.8c-0.5-1.5-1.5-2.5-3-2.8c-1.5-0.4-2.8,0-4,1.1c-1.2,1.1-2.1,2.8-2.7,5.1c-0.6,2.2-0.6,4,0,5.4
				c0.5,1.4,1.6,2.4,3.1,2.7c1.5,0.4,2.8,0.1,4-0.9C-474.6,569.1-473.8,567.5-473.2,565.4z"/>
			<path id="XMLID_230_" fill="#DBDCDC" d="M-504.4,575.5l-72.9,0.9c-4.8,0.1-8.7-3.8-8.8-8.6l-1.3-107.5c-0.1-4.8,3.8-8.7,8.6-8.8
				l72.9-0.9c4.8-0.1,8.7,3.8,8.8,8.6l1.3,107.5C-495.8,571.5-499.6,575.4-504.4,575.5z"/>
			<path fill="#DBDCDC" d="M-520.6,518.5c-1.8-9.3-14-22.1-19.1-27.1c-1.2-1.2-3.1-1.2-4.3,0c-4.9,5.1-16.7,18.1-18.4,27.4
				c-0.4,1.8-0.3,3.7,0.4,5.7c1.4,3.8,4.9,6.6,8.9,6.9c2.4,0.2,4.6-0.3,6.4-1.5c0.3-0.2,0.7,0.1,0.6,0.5l-2.5,7
				c-0.3,0.9,0.3,1.8,1.2,1.7l6.1-0.1l6.1-0.1c0.9,0,1.5-0.9,1.2-1.8l-2.7-6.9c-0.1-0.4,0.2-0.7,0.6-0.5c2,1.1,4.4,1.6,6.9,1.2
				c4.6-0.7,8.3-4.6,8.8-9.3C-520.3,520.7-520.4,519.6-520.6,518.5z"/>
			<path fill="#DBDCDC" d="M-520.6,517.1c-1.8-9.3-14-22.1-19.1-27.1c-1.2-1.2-3.1-1.2-4.3,0c-4.9,5.1-16.7,18.1-18.4,27.4
				c-0.4,1.8-0.3,3.7,0.4,5.7c1.4,3.8,4.9,6.6,8.9,6.9c2.4,0.2,4.6-0.3,6.4-1.5c0.3-0.2,0.7,0.1,0.6,0.5l-2.5,7
				c-0.3,0.9,0.3,1.8,1.2,1.7l6.1-0.1l6.1-0.1c0.9,0,1.5-0.9,1.2-1.8l-2.7-6.9c-0.1-0.4,0.2-0.7,0.6-0.5c2,1.1,4.4,1.6,6.9,1.2
				c4.6-0.7,8.3-4.6,8.8-9.3C-520.3,519.3-520.4,518.2-520.6,517.1z"/>
			<path id="XMLID_228_" fill="#DBDCDC" d="M-579.4,480.3c-0.5,0-0.9-0.2-1.3-0.5c-0.4-0.4-0.5-0.8-0.5-1.3l-0.2-19.7
				c0-0.5,0.2-0.9,0.5-1.3c0.4-0.4,0.8-0.5,1.3-0.5l2,0c0.5,0,0.9,0.2,1.3,0.5c0.3,0.4,0.5,0.8,0.5,1.3l0.1,7.4c0,0,0,0,0,0
				c0,0,0.1,0,0.1,0l5.4-7.8c0.7-1,1.6-1.5,2.8-1.5l2.5,0c0.4,0,0.6,0.2,0.8,0.5c0.1,0.1,0.1,0.3,0.1,0.4c0,0.2-0.1,0.4-0.2,0.5
				l-5.7,7.8c-0.1,0.1-0.1,0.3,0,0.4l7.4,12.1c0.1,0.2,0.2,0.4,0.2,0.5c0,0.2,0,0.3-0.1,0.5c-0.2,0.3-0.5,0.5-0.9,0.5l-2.5,0
				c-0.6,0-1.1-0.1-1.6-0.4c-0.5-0.3-0.9-0.6-1.2-1.1l-4.5-7.7c0,0-0.1-0.1-0.1-0.1c-0.1,0-0.1,0-0.1,0.1l-2.2,3.1
				c-0.1,0.1-0.1,0.3-0.1,0.4l0,4.1c0,0.5-0.2,0.9-0.5,1.3c-0.3,0.4-0.8,0.5-1.3,0.5L-579.4,480.3z"/>
			<path fill="#DBDCDC" d="M-503.7,548.1c0.5,0,0.9,0.2,1.3,0.5c0.4,0.4,0.5,0.8,0.5,1.3l0.2,19.7c0,0.5-0.2,0.9-0.5,1.3
				c-0.4,0.4-0.8,0.5-1.3,0.5l-2,0c-0.5,0-0.9-0.2-1.3-0.5c-0.3-0.4-0.5-0.8-0.5-1.3l-0.1-7.4c0,0,0,0,0,0c0,0-0.1,0-0.1,0l-5.4,7.8
				c-0.7,1-1.6,1.5-2.8,1.5l-2.5,0c-0.4,0-0.6-0.2-0.8-0.5c-0.1-0.1-0.1-0.3-0.1-0.4c0-0.2,0.1-0.4,0.2-0.5l5.7-7.8
				c0.1-0.1,0.1-0.3,0-0.4l-7.4-12.1c-0.1-0.2-0.2-0.4-0.2-0.5c0-0.2,0-0.3,0.1-0.5c0.2-0.3,0.5-0.5,0.9-0.5l2.5,0
				c0.6,0,1.1,0.1,1.6,0.4c0.5,0.3,0.9,0.6,1.2,1.1l4.5,7.7c0,0,0.1,0.1,0.1,0.1s0.1,0,0.1-0.1l2.2-3.1c0.1-0.1,0.1-0.3,0.1-0.4
				l0-4.1c0-0.5,0.2-0.9,0.5-1.3c0.3-0.4,0.8-0.5,1.3-0.5L-503.7,548.1z"/>
			<path fill="#DBDCDC" d="M-503.7,546.6c0.5,0,0.9,0.2,1.3,0.5c0.4,0.4,0.5,0.8,0.5,1.3l0.2,19.7c0,0.5-0.2,0.9-0.5,1.3
				c-0.4,0.4-0.8,0.5-1.3,0.5l-2,0c-0.5,0-0.9-0.2-1.3-0.5c-0.3-0.4-0.5-0.8-0.5-1.3l-0.1-7.4c0,0,0,0,0,0s-0.1,0-0.1,0l-5.4,7.8
				c-0.7,1-1.6,1.5-2.8,1.5l-2.5,0c-0.4,0-0.6-0.2-0.8-0.5c-0.1-0.1-0.1-0.3-0.1-0.4c0-0.2,0.1-0.4,0.2-0.5l5.7-7.8
				c0.1-0.1,0.1-0.3,0-0.4l-7.4-12.1c-0.1-0.2-0.2-0.4-0.2-0.5c0-0.2,0-0.3,0.1-0.5c0.2-0.3,0.5-0.5,0.9-0.5l2.5,0
				c0.6,0,1.1,0.1,1.6,0.4c0.5,0.3,0.9,0.6,1.2,1.1l4.5,7.7c0,0,0.1,0.1,0.1,0.1c0.1,0,0.1,0,0.1-0.1l2.2-3.1
				c0.1-0.1,0.1-0.3,0.1-0.4l0-4.1c0-0.5,0.2-0.9,0.5-1.3c0.3-0.4,0.8-0.5,1.3-0.5L-503.7,546.6z"/>
			<path id="XMLID_225_" fill="#DBDCDC" d="M-505.8,574l-72.9,0.9c-4.8,0.1-8.7-3.8-8.8-8.6l-1.3-107.5c-0.1-4.8,3.8-8.7,8.6-8.8
				l72.9-0.9c4.8-0.1,8.7,3.8,8.8,8.6l1.3,107.5C-497.2,570.1-501,574-505.8,574z"/>
			<path fill="#DBDCDC" d="M-522,517.1c-1.8-9.3-14-22.1-19.1-27.1c-1.2-1.2-3.1-1.2-4.3,0c-4.9,5.1-16.7,18.1-18.4,27.4
				c-0.4,1.8-0.3,3.7,0.4,5.7c1.4,3.8,4.9,6.6,8.9,6.9c2.4,0.2,4.6-0.3,6.4-1.5c0.3-0.2,0.7,0.1,0.6,0.5l-2.5,7
				c-0.3,0.9,0.3,1.8,1.2,1.7l6.1-0.1l6.1-0.1c0.9,0,1.5-0.9,1.2-1.8l-2.7-6.9c-0.1-0.4,0.2-0.7,0.6-0.5c2,1.1,4.4,1.6,6.9,1.2
				c4.6-0.7,8.3-4.6,8.8-9.3C-521.7,519.3-521.8,518.2-522,517.1z"/>
			<path fill="#DBDCDC" d="M-522,515.7c-1.8-9.3-14-22.1-19.1-27.1c-1.2-1.2-3.1-1.2-4.3,0c-4.9,5.1-16.7,18.1-18.4,27.4
				c-0.4,1.8-0.3,3.7,0.4,5.7c1.4,3.8,4.9,6.6,8.9,6.9c2.4,0.2,4.6-0.3,6.4-1.5c0.3-0.2,0.7,0.1,0.6,0.5l-2.5,7
				c-0.3,0.9,0.3,1.8,1.2,1.7l6.1-0.1l6.1-0.1c0.9,0,1.5-0.9,1.2-1.8l-2.7-6.9c-0.1-0.4,0.2-0.7,0.6-0.5c2,1.1,4.4,1.6,6.9,1.2
				c4.6-0.7,8.3-4.6,8.8-9.3C-521.7,517.9-521.8,516.8-522,515.7z"/>
			<path id="XMLID_201_" fill="#DBDCDC" d="M-580.8,478.9c-0.5,0-0.9-0.2-1.3-0.5c-0.4-0.4-0.5-0.8-0.5-1.3l-0.2-19.7
				c0-0.5,0.2-0.9,0.5-1.3c0.4-0.4,0.8-0.5,1.3-0.5l2,0c0.5,0,0.9,0.2,1.3,0.5c0.3,0.4,0.5,0.8,0.5,1.3l0.1,7.4c0,0,0,0,0,0
				c0,0,0.1,0,0.1,0l5.4-7.8c0.7-1,1.6-1.5,2.8-1.5l2.5,0c0.4,0,0.6,0.2,0.8,0.5c0.1,0.1,0.1,0.3,0.1,0.4c0,0.2-0.1,0.4-0.2,0.5
				l-5.7,7.8c-0.1,0.1-0.1,0.3,0,0.4l7.4,12.1c0.1,0.2,0.2,0.4,0.2,0.5c0,0.2,0,0.3-0.1,0.5c-0.2,0.3-0.5,0.5-0.9,0.5l-2.5,0
				c-0.6,0-1.1-0.1-1.6-0.4c-0.5-0.3-0.9-0.6-1.2-1.1l-4.5-7.7c0,0-0.1-0.1-0.1-0.1c-0.1,0-0.1,0-0.1,0.1l-2.2,3.1
				c-0.1,0.1-0.1,0.3-0.1,0.4l0,4.1c0,0.5-0.2,0.9-0.5,1.3c-0.3,0.4-0.8,0.5-1.3,0.5L-580.8,478.9z"/>
			<path fill="#DBDCDC" d="M-505.1,546.6c0.5,0,0.9,0.2,1.3,0.5c0.4,0.4,0.5,0.8,0.5,1.3l0.2,19.7c0,0.5-0.2,0.9-0.5,1.3
				c-0.4,0.4-0.8,0.5-1.3,0.5l-2,0c-0.5,0-0.9-0.2-1.3-0.5c-0.3-0.4-0.5-0.8-0.5-1.3l-0.1-7.4c0,0,0,0,0,0c0,0-0.1,0-0.1,0l-5.4,7.8
				c-0.7,1-1.6,1.5-2.8,1.5l-2.5,0c-0.4,0-0.6-0.2-0.8-0.5c-0.1-0.1-0.1-0.3-0.1-0.4c0-0.2,0.1-0.4,0.2-0.5l5.7-7.8
				c0.1-0.1,0.1-0.3,0-0.4l-7.4-12.1c-0.1-0.2-0.2-0.4-0.2-0.5c0-0.2,0-0.3,0.1-0.5c0.2-0.3,0.5-0.5,0.9-0.5l2.5,0
				c0.6,0,1.1,0.1,1.6,0.4c0.5,0.3,0.9,0.6,1.2,1.1l4.5,7.7c0,0,0.1,0.1,0.1,0.1c0.1,0,0.1,0,0.1-0.1l2.2-3.1
				c0.1-0.1,0.1-0.3,0.1-0.4l0-4.1c0-0.5,0.2-0.9,0.5-1.3c0.3-0.4,0.8-0.5,1.3-0.5L-505.1,546.6z"/>
			<path fill="#DBDCDC" d="M-505.1,545.2c0.5,0,0.9,0.2,1.3,0.5c0.4,0.4,0.5,0.8,0.5,1.3l0.2,19.7c0,0.5-0.2,0.9-0.5,1.3
				c-0.4,0.4-0.8,0.5-1.3,0.5l-2,0c-0.5,0-0.9-0.2-1.3-0.5c-0.3-0.4-0.5-0.8-0.5-1.3l-0.1-7.4c0,0,0,0,0,0c0,0-0.1,0-0.1,0l-5.4,7.8
				c-0.7,1-1.6,1.5-2.8,1.5l-2.5,0c-0.4,0-0.6-0.2-0.8-0.5c-0.1-0.1-0.1-0.3-0.1-0.4c0-0.2,0.1-0.4,0.2-0.5l5.7-7.8
				c0.1-0.1,0.1-0.3,0-0.4l-7.4-12.1c-0.1-0.2-0.2-0.4-0.2-0.5c0-0.2,0-0.3,0.1-0.5c0.2-0.3,0.5-0.5,0.9-0.5l2.5,0
				c0.6,0,1.1,0.1,1.6,0.4c0.5,0.3,0.9,0.6,1.2,1.1l4.5,7.7c0,0,0.1,0.1,0.1,0.1c0.1,0,0.1,0,0.1-0.1l2.2-3.1
				c0.1-0.1,0.1-0.3,0.1-0.4l0-4.1c0-0.5,0.2-0.9,0.5-1.3c0.3-0.4,0.8-0.5,1.3-0.5L-505.1,545.2z"/>
			<path id="XMLID_198_" fill="#DBDCDC" d="M-539,575l-70.2,19.7c-4.6,1.3-9.4-1.4-10.7-6l-29-103.5c-1.3-4.6,1.4-9.4,6-10.7
				l70.2-19.7c4.6-1.3,9.4,1.4,10.7,6l29,103.5C-531.7,568.9-534.4,573.7-539,575z"/>
			<path fill="#DBDCDC" d="M-569.9,524.2c-4.2-8.5-19.3-17.7-25.4-21.2c-1.5-0.8-3.3-0.3-4.1,1.2c-3.4,6.2-11.5,21.8-10.7,31.2
				c0.1,1.8,0.7,3.6,1.9,5.4c2.3,3.3,6.4,5.1,10.4,4.4c2.3-0.4,4.3-1.5,5.8-3.1c0.3-0.3,0.7-0.1,0.7,0.3l-0.6,7.4
				c-0.1,0.9,0.8,1.6,1.6,1.4l5.8-1.6l5.8-1.6c0.9-0.2,1.2-1.3,0.7-2l-4.4-6c-0.2-0.3,0.1-0.7,0.4-0.6c2.2,0.6,4.6,0.4,7-0.6
				c4.3-1.9,6.8-6.6,6.1-11.2C-569,526.3-569.3,525.2-569.9,524.2z"/>
			<path fill="#DBDCDC" d="M-569.9,522.8c-4.2-8.5-19.3-17.7-25.4-21.2c-1.5-0.8-3.3-0.3-4.1,1.2c-3.4,6.2-11.5,21.8-10.7,31.2
				c0.1,1.8,0.7,3.6,1.9,5.4c2.3,3.3,6.4,5.1,10.4,4.4c2.3-0.4,4.3-1.5,5.8-3.1c0.3-0.3,0.7-0.1,0.7,0.3l-0.6,7.4
				c-0.1,0.9,0.8,1.6,1.6,1.4l5.8-1.6l5.8-1.6c0.9-0.2,1.2-1.3,0.7-2l-4.4-6c-0.2-0.3,0.1-0.7,0.4-0.6c2.2,0.6,4.6,0.4,7-0.6
				c4.3-1.9,6.8-6.6,6.1-11.2C-569,524.9-569.3,523.8-569.9,522.8z"/>
			<path fill="#DBDCDC" d="M-621.9,499.9c-0.5,0.1-1,0.1-1.5-0.1c-0.5-0.2-0.9-0.5-1.1-1l-1.7-3c-0.1-0.1-0.2-0.2-0.4-0.1l-6.2,1.7
				c-0.2,0-0.2,0.1-0.2,0.3l0.1,3.5c0,0.5-0.2,1-0.5,1.4c-0.3,0.4-0.7,0.7-1.2,0.9l-2,0.6c-0.4,0.1-0.8,0-1.2-0.2
				c-0.2-0.2-0.4-0.4-0.5-0.7c0-0.1,0-0.2,0-0.4l0.6-20.8c0-0.5,0.2-1,0.5-1.4c0.3-0.4,0.8-0.7,1.3-0.9l3-0.8c0.5-0.1,1-0.1,1.5,0.1
				c0.5,0.2,0.9,0.5,1.2,1l11.3,17.4c0.1,0.1,0.1,0.2,0.2,0.4c0.1,0.3,0.1,0.5-0.1,0.8c-0.2,0.4-0.4,0.7-0.9,0.8L-621.9,499.9z
				 M-633.2,492.8c0,0.1,0,0.1,0.1,0.2c0.1,0,0.1,0,0.2,0l4.1-1.2c0.1,0,0.1-0.1,0.1-0.1c0-0.1,0-0.1,0-0.2l-0.9-1.6
				c-0.4-0.7-1-1.9-1.9-3.4c-0.9-1.5-1.5-2.6-1.8-3.3c0,0-0.1,0-0.1,0c0,0-0.1,0,0,0.1c0.2,3.6,0.3,6.1,0.3,7.6L-633.2,492.8z"/>
			<path fill="#DBDCDC" d="M-621.9,498.5c-0.5,0.1-1,0.1-1.5-0.1c-0.5-0.2-0.9-0.5-1.1-1l-1.7-3c-0.1-0.1-0.2-0.2-0.4-0.1l-6.2,1.7
				c-0.2,0-0.2,0.1-0.2,0.3l0.1,3.5c0,0.5-0.2,1-0.5,1.4c-0.3,0.4-0.7,0.7-1.2,0.9l-2,0.6c-0.4,0.1-0.8,0-1.2-0.2
				c-0.2-0.2-0.4-0.4-0.5-0.7c0-0.1,0-0.2,0-0.4l0.6-20.8c0-0.5,0.2-1,0.5-1.4c0.3-0.4,0.8-0.7,1.3-0.9l3-0.8c0.5-0.1,1-0.1,1.5,0.1
				c0.5,0.2,0.9,0.5,1.2,1l11.3,17.4c0.1,0.1,0.1,0.2,0.2,0.4c0.1,0.3,0.1,0.5-0.1,0.8c-0.2,0.4-0.4,0.7-0.9,0.8L-621.9,498.5z
				 M-633.2,491.4c0,0.1,0,0.1,0.1,0.2c0.1,0,0.1,0,0.2,0l4.1-1.2c0.1,0,0.1-0.1,0.1-0.1c0-0.1,0-0.1,0-0.2l-0.9-1.6
				c-0.4-0.7-1-1.9-1.9-3.4c-0.9-1.5-1.5-2.6-1.8-3.3c0,0-0.1,0-0.1,0c0,0-0.1,0,0,0.1c0.2,3.6,0.3,6.1,0.3,7.6L-633.2,491.4z"/>
			<path fill="#DBDCDC" d="M-560.1,552.4c0.5-0.1,1-0.1,1.5,0.1c0.5,0.2,0.9,0.5,1.1,1l1.7,3c0.1,0.1,0.2,0.2,0.4,0.1l6.2-1.7
				c0.2,0,0.2-0.1,0.2-0.3l-0.1-3.5c0-0.5,0.2-1,0.5-1.4c0.3-0.4,0.7-0.7,1.2-0.9l2-0.6c0.4-0.1,0.8,0,1.2,0.2
				c0.2,0.2,0.4,0.4,0.5,0.7c0,0.1,0,0.2,0,0.4l-0.6,20.8c0,0.5-0.2,1-0.5,1.4c-0.3,0.4-0.8,0.7-1.3,0.9l-3,0.8
				c-0.5,0.1-1,0.1-1.5-0.1c-0.5-0.2-0.9-0.5-1.2-1L-563,555c-0.1-0.1-0.1-0.2-0.2-0.4c-0.1-0.3-0.1-0.5,0.1-0.8
				c0.2-0.4,0.4-0.7,0.9-0.8L-560.1,552.4z M-548.8,559.5c0-0.1,0-0.1-0.1-0.2c-0.1,0-0.1,0-0.2,0l-4.1,1.2c-0.1,0-0.1,0.1-0.1,0.1
				c0,0.1,0,0.1,0,0.2l0.9,1.6c0.4,0.7,1,1.9,1.9,3.4c0.9,1.5,1.5,2.6,1.8,3.3c0,0,0.1,0,0.1,0c0,0,0.1,0,0-0.1
				c-0.2-3.6-0.3-6.1-0.3-7.6L-548.8,559.5z"/>
			<path fill="#DBDCDC" d="M-560.1,551c0.5-0.1,1-0.1,1.5,0.1c0.5,0.2,0.9,0.5,1.1,1l1.7,3c0.1,0.1,0.2,0.2,0.4,0.1l6.2-1.7
				c0.2,0,0.2-0.1,0.2-0.3l-0.1-3.5c0-0.5,0.2-1,0.5-1.4c0.3-0.4,0.7-0.7,1.2-0.9l2-0.6c0.4-0.1,0.8,0,1.2,0.2
				c0.2,0.2,0.4,0.4,0.5,0.7c0,0.1,0,0.2,0,0.4l-0.6,20.8c0,0.5-0.2,1-0.5,1.4c-0.3,0.4-0.8,0.7-1.3,0.9l-3,0.8
				c-0.5,0.1-1,0.1-1.5-0.1c-0.5-0.2-0.9-0.5-1.2-1l-11.3-17.4c-0.1-0.1-0.1-0.2-0.2-0.4c-0.1-0.3-0.1-0.5,0.1-0.8
				c0.2-0.4,0.4-0.7,0.9-0.8L-560.1,551z M-548.8,558.1c0-0.1,0-0.1-0.1-0.2c-0.1,0-0.1,0-0.2,0l-4.1,1.2c-0.1,0-0.1,0.1-0.1,0.1
				c0,0.1,0,0.1,0,0.2l0.9,1.6c0.4,0.7,1,1.9,1.9,3.4c0.9,1.5,1.5,2.6,1.8,3.3c0,0,0.1,0,0.1,0c0,0,0.1,0,0-0.1
				c-0.2-3.6-0.3-6.1-0.3-7.6L-548.8,558.1z"/>
			<path id="XMLID_189_" fill="#DBDCDC" d="M-540.5,573.6l-70.2,19.7c-4.6,1.3-9.4-1.4-10.7-6l-29-103.5c-1.3-4.6,1.4-9.4,6-10.7
				l70.2-19.7c4.6-1.3,9.4,1.4,10.7,6l29,103.5C-533.2,567.5-535.9,572.3-540.5,573.6z"/>
			<path fill="#DBDCDC" d="M-571.3,522.8c-4.2-8.5-19.3-17.7-25.4-21.2c-1.5-0.8-3.3-0.3-4.1,1.2c-3.4,6.2-11.5,21.8-10.7,31.2
				c0.1,1.8,0.7,3.6,1.9,5.4c2.3,3.3,6.4,5.1,10.4,4.4c2.3-0.4,4.3-1.5,5.8-3.1c0.3-0.3,0.7-0.1,0.7,0.3l-0.6,7.4
				c-0.1,0.9,0.8,1.6,1.6,1.4l5.8-1.6l5.8-1.6c0.9-0.2,1.2-1.3,0.7-2l-4.4-6c-0.2-0.3,0.1-0.7,0.4-0.6c2.2,0.6,4.6,0.4,7-0.6
				c4.3-1.9,6.8-6.6,6.1-11.2C-570.4,524.9-570.8,523.8-571.3,522.8z"/>
			<path fill="#DBDCDC" d="M-571.3,521.4c-4.2-8.5-19.3-17.7-25.4-21.2c-1.5-0.8-3.3-0.3-4.1,1.2c-3.4,6.2-11.5,21.8-10.7,31.2
				c0.1,1.8,0.7,3.6,1.9,5.4c2.3,3.3,6.4,5.1,10.4,4.4c2.3-0.4,4.3-1.5,5.8-3.1c0.3-0.3,0.7-0.1,0.7,0.3l-0.6,7.4
				c-0.1,0.9,0.8,1.6,1.6,1.4l5.8-1.6l5.8-1.6c0.9-0.2,1.2-1.3,0.7-2l-4.4-6c-0.2-0.3,0.1-0.7,0.4-0.6c2.2,0.6,4.6,0.4,7-0.6
				c4.3-1.9,6.8-6.6,6.1-11.2C-570.4,523.5-570.8,522.4-571.3,521.4z"/>
			<path fill="#DBDCDC" d="M-623.3,498.5c-0.5,0.1-1,0.1-1.5-0.1c-0.5-0.2-0.9-0.5-1.1-1l-1.7-3c-0.1-0.1-0.2-0.2-0.4-0.1l-6.2,1.7
				c-0.2,0-0.2,0.1-0.2,0.3l0.1,3.5c0,0.5-0.2,1-0.5,1.4c-0.3,0.4-0.7,0.7-1.2,0.9l-2,0.6c-0.4,0.1-0.8,0-1.2-0.2
				c-0.2-0.2-0.4-0.4-0.5-0.7c0-0.1,0-0.2,0-0.4l0.6-20.8c0-0.5,0.2-1,0.5-1.4c0.3-0.4,0.8-0.7,1.3-0.9l3-0.8c0.5-0.1,1-0.1,1.5,0.1
				c0.5,0.2,0.9,0.5,1.2,1l11.3,17.4c0.1,0.1,0.1,0.2,0.2,0.4c0.1,0.3,0.1,0.5-0.1,0.8c-0.2,0.4-0.4,0.7-0.9,0.8L-623.3,498.5z
				 M-634.6,491.4c0,0.1,0,0.1,0.1,0.2c0.1,0,0.1,0,0.2,0l4.1-1.2c0.1,0,0.1-0.1,0.1-0.1c0-0.1,0-0.1,0-0.2l-0.9-1.6
				c-0.4-0.7-1-1.9-1.9-3.4c-0.9-1.5-1.5-2.6-1.8-3.3c0,0-0.1,0-0.1,0c0,0-0.1,0,0,0.1c0.2,3.6,0.3,6.1,0.3,7.6L-634.6,491.4z"/>
			<path fill="#DBDCDC" d="M-623.3,497.1c-0.5,0.1-1,0.1-1.5-0.1c-0.5-0.2-0.9-0.5-1.1-1l-1.7-3c-0.1-0.1-0.2-0.2-0.4-0.1l-6.2,1.7
				c-0.2,0-0.2,0.1-0.2,0.3l0.1,3.5c0,0.5-0.2,1-0.5,1.4c-0.3,0.4-0.7,0.7-1.2,0.9l-2,0.6c-0.4,0.1-0.8,0-1.2-0.2
				c-0.2-0.2-0.4-0.4-0.5-0.7c0-0.1,0-0.2,0-0.4l0.6-20.8c0-0.5,0.2-1,0.5-1.4c0.3-0.4,0.8-0.7,1.3-0.9l3-0.8c0.5-0.1,1-0.1,1.5,0.1
				c0.5,0.2,0.9,0.5,1.2,1l11.3,17.4c0.1,0.1,0.1,0.2,0.2,0.4c0.1,0.3,0.1,0.5-0.1,0.8c-0.2,0.4-0.4,0.7-0.9,0.8L-623.3,497.1z
				 M-634.6,490c0,0.1,0,0.1,0.1,0.2c0.1,0,0.1,0,0.2,0l4.1-1.2c0.1,0,0.1-0.1,0.1-0.1c0-0.1,0-0.1,0-0.2l-0.9-1.6
				c-0.4-0.7-1-1.9-1.9-3.4c-0.9-1.5-1.5-2.6-1.8-3.3c0,0-0.1,0-0.1,0c0,0-0.1,0,0,0.1c0.2,3.6,0.3,6.1,0.3,7.6L-634.6,490z"/>
			<path fill="#DBDCDC" d="M-561.5,551c0.5-0.1,1-0.1,1.5,0.1c0.5,0.2,0.9,0.5,1.1,1l1.7,3c0.1,0.1,0.2,0.2,0.4,0.1l6.2-1.7
				c0.2,0,0.2-0.1,0.2-0.3l-0.1-3.5c0-0.5,0.2-1,0.5-1.4c0.3-0.4,0.7-0.7,1.2-0.9l2-0.6c0.4-0.1,0.8,0,1.2,0.2
				c0.2,0.2,0.4,0.4,0.5,0.7c0,0.1,0,0.2,0,0.4l-0.6,20.8c0,0.5-0.2,1-0.5,1.4c-0.3,0.4-0.8,0.7-1.3,0.9l-3,0.8
				c-0.5,0.1-1,0.1-1.5-0.1c-0.5-0.2-0.9-0.5-1.2-1l-11.3-17.4c-0.1-0.1-0.1-0.2-0.2-0.4c-0.1-0.3-0.1-0.5,0.1-0.8
				c0.2-0.4,0.4-0.7,0.9-0.8L-561.5,551z M-550.3,558.1c0-0.1,0-0.1-0.1-0.2c-0.1,0-0.1,0-0.2,0l-4.1,1.2c-0.1,0-0.1,0.1-0.1,0.1
				c0,0.1,0,0.1,0,0.2l0.9,1.6c0.4,0.7,1,1.9,1.9,3.4c0.9,1.5,1.5,2.6,1.8,3.3c0,0,0.1,0,0.1,0c0,0,0.1,0,0-0.1
				c-0.2-3.6-0.3-6.1-0.3-7.6L-550.3,558.1z"/>
			<path fill="#DBDCDC" d="M-561.5,549.5c0.5-0.1,1-0.1,1.5,0.1c0.5,0.2,0.9,0.5,1.1,1l1.7,3c0.1,0.1,0.2,0.2,0.4,0.1l6.2-1.7
				c0.2,0,0.2-0.1,0.2-0.3l-0.1-3.5c0-0.5,0.2-1,0.5-1.4c0.3-0.4,0.7-0.7,1.2-0.9l2-0.6c0.4-0.1,0.8,0,1.2,0.2
				c0.2,0.2,0.4,0.4,0.5,0.7c0,0.1,0,0.2,0,0.4l-0.6,20.8c0,0.5-0.2,1-0.5,1.4c-0.3,0.4-0.8,0.7-1.3,0.9l-3,0.8
				c-0.5,0.1-1,0.1-1.5-0.1c-0.5-0.2-0.9-0.5-1.2-1l-11.3-17.4c-0.1-0.1-0.1-0.2-0.2-0.4c-0.1-0.3-0.1-0.5,0.1-0.8
				c0.2-0.4,0.4-0.7,0.9-0.8L-561.5,549.5z M-550.3,556.7c0-0.1,0-0.1-0.1-0.2c-0.1,0-0.1,0-0.2,0l-4.1,1.2c-0.1,0-0.1,0.1-0.1,0.1
				c0,0.1,0,0.1,0,0.2l0.9,1.6c0.4,0.7,1,1.9,1.9,3.4c0.9,1.5,1.5,2.6,1.8,3.3c0,0,0.1,0,0.1,0c0,0,0.1,0,0-0.1
				c-0.2-3.6-0.3-6.1-0.3-7.6L-550.3,556.7z"/>
		</g>
		<g>
			<g id="XMLID_169_">
				<path fill="#3E3A39" d="M-427,638.9c-3.2,0-6.2-1.2-8.5-3.5l-49.4-48.2l-27.2-15.3l-31.2,0.4l-66.5,18.6
					c-1.1,0.3-2.2,0.5-3.3,0.5c-5.4,0-10.2-3.7-11.7-8.9l-29-103.5c-0.9-3.1-0.5-6.4,1.1-9.2c1.6-2.8,4.2-4.9,7.3-5.8l53.8-15.1
					c1.7-4.7,6.1-8,11.3-8l53.3-0.6c2.2-3.5,6.1-5.7,10.3-5.7c1,0,2,0.1,3,0.4l70.6,18c5.5,1.4,9.1,6.3,9.2,11.7l44.4,24.9
					c4.5,2.5,6.8,7.5,6.1,12.5l40,39.1c4.8,4.7,4.9,12.4,0.2,17.2l-75.1,76.9C-420.6,637.6-423.7,638.9-427,638.9L-427,638.9z"/>
				<path fill="#F7F7F7" d="M-516.6,438.1c0.7,0,1.4,0.1,2.2,0.3l70.6,18c4.5,1.2,7.3,5.7,6.3,10.2l46.4,26.1
					c3.8,2.1,5.3,6.6,3.9,10.5l41.4,40.5c3.4,3.3,3.5,8.8,0.1,12.3l-75.1,76.9c-1.7,1.7-3.9,2.6-6.2,2.6c-2.2,0-4.4-0.8-6.1-2.5
					l-49.7-48.6l-28.4-16l-32.6,0.4l-66.9,18.8c-0.8,0.2-1.6,0.3-2.3,0.3c-3.8,0-7.3-2.5-8.3-6.3l-29-103.5c-1.3-4.6,1.4-9.4,6-10.7
					l55.8-15.6c0.6-4.1,4.2-7.3,8.5-7.3l55.4-0.6C-523.5,440.3-520.2,438.1-516.6,438.1 M-516.6,431.1c-4.7,0-9.2,2.2-12.1,5.7
					l-51.5,0.6c-6,0.1-11.2,3.5-13.8,8.6l-52.2,14.6c-4,1.1-7.4,3.8-9.4,7.4c-2.1,3.6-2.6,7.9-1.4,11.9l29,103.5
					c1.9,6.7,8.1,11.4,15.1,11.4c1.4,0,2.9-0.2,4.2-0.6l66-18.5l29.8-0.3l26,14.6l49,47.9c2.9,2.9,6.8,4.5,10.9,4.5
					c4.3,0,8.2-1.7,11.2-4.7l75.1-76.9c6-6.2,5.9-16.1-0.3-22.2l-38.8-37.9c0.2-5.7-2.8-11.2-8-14.2l-42.8-24
					c-0.9-6.1-5.3-11.3-11.6-12.9l-70.6-18C-514,431.3-515.3,431.1-516.6,431.1L-516.6,431.1z"/>
			</g>
			<g id="XMLID_3_">
				<g id="XMLID_110_">
					<g>
						<path id="XMLID_168_" fill="#9E9E9F" d="M-431.6,634.4l-52.1-50.9c-3.4-3.3-3.5-8.8-0.1-12.3l75.1-76.9
							c3.3-3.4,8.8-3.5,12.3-0.1l52.1,50.9c3.4,3.3,3.5,8.8,0.1,12.3l-75.1,76.9C-422.7,637.7-428.2,637.7-431.6,634.4z"/>
						<path fill="#9E9E9F" d="M-401.8,583c5.3-7.9,5.7-25.5,5.7-32.6c0-1.7-1.4-3-3.1-3c-7,0.1-24.6,1-32.4,6.4
							c-1.5,1-2.8,2.4-3.7,4.3c-1.7,3.7-1.2,8.1,1.4,11.2c1.5,1.8,3.5,3,5.6,3.5c0.4,0.1,0.4,0.6,0.1,0.8l-6.7,3.2
							c-0.8,0.4-1,1.5-0.4,2.1l4.3,4.2l4.3,4.2c0.6,0.6,1.7,0.4,2.1-0.4l3-6.8c0.2-0.3,0.7-0.3,0.8,0.1c0.6,2.2,1.9,4.2,4,5.7
							c3.8,2.8,9.1,2.6,12.7-0.3C-403.2,584.8-402.4,584-401.8,583z"/>
						<path fill="#9E9E9F" d="M-401.8,581.6c5.3-7.9,5.7-25.5,5.7-32.6c0-1.7-1.4-3-3.1-3c-7,0.1-24.6,1-32.4,6.4
							c-1.5,1-2.8,2.4-3.7,4.3c-1.7,3.7-1.2,8.1,1.4,11.2c1.5,1.8,3.5,3,5.6,3.5c0.4,0.1,0.4,0.6,0.1,0.8l-6.7,3.2
							c-0.8,0.4-1,1.5-0.4,2.1l4.3,4.2l4.3,4.2c0.6,0.6,1.7,0.4,2.1-0.4l3-6.8c0.2-0.3,0.7-0.3,0.8,0.1c0.6,2.2,1.9,4.2,4,5.7
							c3.8,2.8,9.1,2.6,12.7-0.3C-403.2,583.4-402.4,582.6-401.8,581.6z"/>
						<path fill="#9E9E9F" d="M-410.5,615.6c0.4,0.4,0.5,0.8,0.5,1.3c0,0.5-0.2,0.9-0.5,1.3l-0.6,0.6c-0.4,0.4-0.8,0.5-1.3,0.6
							c-0.5,0-0.9-0.2-1.3-0.5l-2.1-2c-0.1-0.1-0.2-0.1-0.3,0l-8.9,9.1c-0.1,0.1-0.1,0.2,0,0.3l1.7,1.6c0.3,0.3,0.5,0.7,0.5,1.2
							c0,0.5-0.2,0.9-0.5,1.2c-0.3,0.3-0.8,0.6-1.3,0.6c-0.5,0.1-1,0-1.4-0.3c-0.8-0.5-1.6-0.8-2.4-1.1c-1.3-0.5-2.3-1-3-1.8
							l-0.3-0.3c-0.3-0.3-0.5-0.8-0.5-1.3c0-0.5,0.2-0.9,0.5-1.3l11.7-12c0.1-0.1,0.1-0.2,0-0.3l-1.5-1.5c-0.4-0.4-0.5-0.8-0.6-1.3
							c0-0.5,0.2-0.9,0.5-1.3l0.6-0.6c0.3-0.3,0.8-0.5,1.3-0.5c0.5,0,0.9,0.2,1.3,0.5L-410.5,615.6z"/>
						<path fill="#9E9E9F" d="M-410.5,614.2c0.4,0.4,0.5,0.8,0.5,1.3c0,0.5-0.2,0.9-0.5,1.3l-0.6,0.6c-0.4,0.4-0.8,0.5-1.3,0.6
							c-0.5,0-0.9-0.2-1.3-0.5l-2.1-2c-0.1-0.1-0.2-0.1-0.3,0l-8.9,9.1c-0.1,0.1-0.1,0.2,0,0.3l1.7,1.6c0.3,0.3,0.5,0.7,0.5,1.2
							c0,0.5-0.2,0.9-0.5,1.2c-0.3,0.3-0.8,0.6-1.3,0.6c-0.5,0.1-1,0-1.4-0.3c-0.8-0.5-1.6-0.8-2.4-1.1c-1.3-0.5-2.3-1-3-1.8
							l-0.3-0.3c-0.3-0.3-0.5-0.8-0.5-1.3c0-0.5,0.2-0.9,0.5-1.3l11.7-12c0.1-0.1,0.1-0.2,0-0.3l-1.5-1.5c-0.4-0.4-0.5-0.8-0.6-1.3
							c0-0.5,0.2-0.9,0.5-1.3l0.6-0.6c0.3-0.3,0.8-0.5,1.3-0.5c0.5,0,0.9,0.2,1.3,0.5L-410.5,614.2z"/>
						<path fill="#9E9E9F" d="M-434,596.4c2.5-0.5,4.7,0.2,6.5,1.9c1.8,1.8,2.5,3.9,2.1,6.5c-0.4,2.5-2,5.2-4.7,8
							c-2.7,2.8-5.3,4.4-7.8,4.8c-2.5,0.4-4.6-0.3-6.4-2c-1.8-1.8-2.5-3.9-2.2-6.4c0.4-2.5,1.9-5.1,4.6-7.9
							C-439.2,598.5-436.6,596.8-434,596.4z M-429.9,602.5c-0.1-0.4-0.3-0.8-0.6-1.1c-0.3-0.3-0.7-0.5-1.1-0.6
							c-0.4-0.1-0.9,0-1.5,0.2c-0.6,0.2-1.3,0.6-2.2,1.3c-0.8,0.6-1.8,1.5-2.9,2.6c-1.1,1.1-1.9,2.1-2.5,2.9c-0.6,0.9-1,1.6-1.2,2.2
							c-0.2,0.6-0.2,1.1-0.1,1.5c0.1,0.4,0.3,0.7,0.6,1.1c0.3,0.3,0.7,0.5,1.1,0.6c0.4,0.1,0.9,0,1.4-0.2c0.6-0.2,1.3-0.6,2.1-1.2
							c0.8-0.6,1.8-1.5,2.9-2.6c1.1-1.1,1.9-2.1,2.6-3c0.6-0.9,1-1.6,1.2-2.2C-429.9,603.4-429.8,602.9-429.9,602.5z"/>
						<path fill="#9E9E9F" d="M-434,595c2.5-0.5,4.7,0.2,6.5,1.9c1.8,1.8,2.5,3.9,2.1,6.5c-0.4,2.5-2,5.2-4.7,8
							c-2.7,2.8-5.3,4.4-7.8,4.8c-2.5,0.4-4.6-0.3-6.4-2c-1.8-1.8-2.5-3.9-2.2-6.4c0.4-2.5,1.9-5.1,4.6-7.9
							C-439.2,597.1-436.6,595.4-434,595z M-429.9,601.1c-0.1-0.4-0.3-0.8-0.6-1.1c-0.3-0.3-0.7-0.5-1.1-0.6c-0.4-0.1-0.9,0-1.5,0.2
							c-0.6,0.2-1.3,0.6-2.2,1.3c-0.8,0.6-1.8,1.5-2.9,2.6c-1.1,1.1-1.9,2.1-2.5,2.9c-0.6,0.9-1,1.6-1.2,2.2
							c-0.2,0.6-0.2,1.1-0.1,1.5c0.1,0.4,0.3,0.7,0.6,1.1c0.3,0.3,0.7,0.5,1.1,0.6c0.4,0.1,0.9,0,1.4-0.2c0.6-0.2,1.3-0.6,2.1-1.2
							c0.8-0.6,1.8-1.5,2.9-2.6c1.1-1.1,1.9-2.1,2.6-3c0.6-0.9,1-1.6,1.2-2.2C-429.9,602-429.8,601.5-429.9,601.1z"/>
						<path id="XMLID_160_" fill="#9E9E9F" d="M-417.7,514.4c-0.4-0.4-0.5-0.8-0.5-1.3c0-0.5,0.2-0.9,0.5-1.3l0.6-0.6
							c0.4-0.4,0.8-0.5,1.3-0.6c0.5,0,0.9,0.2,1.3,0.5l2.1,2c0.1,0.1,0.2,0.1,0.3,0l8.9-9.1c0.1-0.1,0.1-0.2,0-0.3l-1.7-1.6
							c-0.3-0.3-0.5-0.7-0.5-1.2c0-0.5,0.2-0.9,0.5-1.2c0.3-0.3,0.8-0.6,1.3-0.6c0.5-0.1,1,0,1.4,0.3c0.8,0.5,1.6,0.8,2.4,1.1
							c1.3,0.5,2.3,1,3,1.8l0.3,0.3c0.3,0.3,0.5,0.8,0.5,1.3c0,0.5-0.2,0.9-0.5,1.3l-11.7,12c-0.1,0.1-0.1,0.2,0,0.3l1.6,1.5
							c0.4,0.4,0.5,0.8,0.6,1.3c0,0.5-0.2,0.9-0.5,1.3l-0.6,0.6c-0.3,0.3-0.8,0.5-1.3,0.5c-0.5,0-0.9-0.2-1.3-0.5L-417.7,514.4z"/>
						<path fill="#9E9E9F" d="M-394.1,535c-2.5,0.5-4.7-0.2-6.5-1.9c-1.8-1.8-2.5-3.9-2.1-6.5c0.4-2.5,2-5.2,4.7-8
							c2.7-2.8,5.3-4.4,7.8-4.8c2.5-0.4,4.6,0.3,6.4,2c1.8,1.8,2.5,3.9,2.2,6.4c-0.4,2.5-1.9,5.1-4.6,7.9
							C-389,532.9-391.6,534.5-394.1,535z M-398.2,528.9c0.1,0.4,0.3,0.8,0.6,1.1c0.3,0.3,0.7,0.5,1.1,0.6c0.4,0.1,0.9,0,1.5-0.2
							c0.6-0.2,1.3-0.6,2.2-1.3c0.8-0.6,1.8-1.5,2.9-2.6c1.1-1.1,1.9-2.1,2.5-2.9c0.6-0.9,1-1.6,1.2-2.2c0.2-0.6,0.2-1.1,0.1-1.5
							c-0.1-0.4-0.3-0.7-0.6-1.1c-0.3-0.3-0.7-0.5-1.1-0.6c-0.4-0.1-0.9,0-1.4,0.2c-0.6,0.2-1.3,0.6-2.1,1.2
							c-0.8,0.6-1.8,1.5-2.9,2.6c-1.1,1.1-1.9,2.1-2.6,3c-0.6,0.9-1,1.6-1.2,2.2C-398.3,528-398.3,528.5-398.2,528.9z"/>
						<path fill="#9E9E9F" d="M-394.1,533.6c-2.5,0.5-4.7-0.2-6.5-1.9c-1.8-1.8-2.5-3.9-2.1-6.5c0.4-2.5,2-5.2,4.7-8
							c2.7-2.8,5.3-4.4,7.8-4.8c2.5-0.4,4.6,0.3,6.4,2c1.8,1.8,2.5,3.9,2.2,6.4s-1.9,5.1-4.6,7.9
							C-389,531.5-391.6,533.1-394.1,533.6z M-398.2,527.5c0.1,0.4,0.3,0.8,0.6,1.1c0.3,0.3,0.7,0.5,1.1,0.6c0.4,0.1,0.9,0,1.5-0.2
							c0.6-0.2,1.3-0.6,2.2-1.3c0.8-0.6,1.8-1.5,2.9-2.6c1.1-1.1,1.9-2.1,2.5-2.9c0.6-0.9,1-1.6,1.2-2.2c0.2-0.6,0.2-1.1,0.1-1.5
							s-0.3-0.7-0.6-1.1c-0.3-0.3-0.7-0.5-1.1-0.6c-0.4-0.1-0.9,0-1.4,0.2c-0.6,0.2-1.3,0.6-2.1,1.2c-0.8,0.6-1.8,1.5-2.9,2.6
							c-1.1,1.1-1.9,2.1-2.6,3c-0.6,0.9-1,1.6-1.2,2.2C-398.3,526.6-398.3,527.1-398.2,527.5z"/>
					</g>
					<g>
						<path id="XMLID_153_" fill="#DBDCDC" d="M-433,633l-52.1-50.9c-3.4-3.3-3.5-8.8-0.1-12.3l75.1-76.9c3.3-3.4,8.8-3.5,12.3-0.1
							l52.1,50.9c3.4,3.3,3.5,8.8,0.1,12.3l-75.1,76.9C-424.1,636.2-429.6,636.3-433,633z"/>
						<g id="XMLID_152_">
							<g>
								<path fill="#717071" d="M-403.3,581.6c5.3-7.9,5.7-25.5,5.7-32.6c0-1.7-1.4-3-3.1-3c-7,0.1-24.6,1-32.4,6.4
									c-1.5,1-2.8,2.4-3.7,4.3c-1.7,3.7-1.2,8.1,1.4,11.2c1.5,1.8,3.5,3,5.6,3.5c0.4,0.1,0.4,0.6,0.1,0.8l-6.7,3.2
									c-0.8,0.4-1,1.5-0.4,2.1l4.3,4.2l4.3,4.2c0.6,0.6,1.7,0.4,2.1-0.4l3-6.8c0.2-0.3,0.7-0.3,0.8,0.1c0.6,2.2,1.9,4.2,4,5.7
									c3.8,2.8,9.1,2.6,12.7-0.3C-404.6,583.4-403.9,582.6-403.3,581.6z"/>
							</g>
							<g>
								<path fill="#3E3A39" d="M-403.3,580.2c5.3-7.9,5.7-25.5,5.7-32.6c0-1.7-1.4-3-3.1-3c-7,0.1-24.6,1-32.4,6.4
									c-1.5,1-2.8,2.4-3.7,4.3c-1.7,3.7-1.2,8.1,1.4,11.2c1.5,1.8,3.5,3,5.6,3.5c0.4,0.1,0.4,0.6,0.1,0.8l-6.7,3.2
									c-0.8,0.4-1,1.5-0.4,2.1l4.3,4.2l4.3,4.2c0.6,0.6,1.7,0.4,2.1-0.4l3-6.8c0.2-0.3,0.7-0.3,0.8,0.1c0.6,2.2,1.9,4.2,4,5.7
									c3.8,2.8,9.1,2.6,12.7-0.3C-404.6,582-403.9,581.1-403.3,580.2z"/>
							</g>
						</g>
						<g id="XMLID_133_">
							<g id="XMLID_139_">
								<g>
									<path fill="#717071" d="M-411.9,614.2c0.4,0.4,0.5,0.8,0.5,1.3c0,0.5-0.2,0.9-0.5,1.3l-0.6,0.6c-0.4,0.4-0.8,0.5-1.3,0.6
										c-0.5,0-0.9-0.2-1.3-0.5l-2.1-2c-0.1-0.1-0.2-0.1-0.3,0l-8.9,9.1c-0.1,0.1-0.1,0.2,0,0.3l1.7,1.6c0.3,0.3,0.5,0.7,0.5,1.2
										c0,0.5-0.2,0.9-0.5,1.2c-0.3,0.3-0.8,0.6-1.3,0.6c-0.5,0.1-1,0-1.4-0.3c-0.8-0.5-1.6-0.8-2.4-1.1c-1.3-0.5-2.3-1-3-1.8
										l-0.3-0.3c-0.3-0.3-0.5-0.8-0.5-1.3c0-0.5,0.2-0.9,0.5-1.3l11.7-12c0.1-0.1,0.1-0.2,0-0.3l-1.5-1.5
										c-0.4-0.4-0.5-0.8-0.6-1.3c0-0.5,0.2-0.9,0.5-1.3l0.6-0.6c0.3-0.3,0.8-0.5,1.3-0.5c0.5,0,0.9,0.2,1.3,0.5L-411.9,614.2z"/>
								</g>
								<g>
									<path fill="#3E3A39" d="M-411.9,612.8c0.4,0.4,0.5,0.8,0.5,1.3c0,0.5-0.2,0.9-0.5,1.3l-0.6,0.6c-0.4,0.4-0.8,0.5-1.3,0.6
										c-0.5,0-0.9-0.2-1.3-0.5l-2.1-2c-0.1-0.1-0.2-0.1-0.3,0l-8.9,9.1c-0.1,0.1-0.1,0.2,0,0.3l1.7,1.6c0.3,0.3,0.5,0.7,0.5,1.2
										c0,0.5-0.2,0.9-0.5,1.2c-0.3,0.3-0.8,0.6-1.3,0.6c-0.5,0.1-1,0-1.4-0.3c-0.8-0.5-1.6-0.8-2.4-1.1c-1.3-0.5-2.3-1-3-1.8
										l-0.3-0.3c-0.3-0.3-0.5-0.8-0.5-1.3c0-0.5,0.2-0.9,0.5-1.3l11.7-12c0.1-0.1,0.1-0.2,0-0.3l-1.5-1.5
										c-0.4-0.4-0.5-0.8-0.6-1.3c0-0.5,0.2-0.9,0.5-1.3l0.6-0.6c0.3-0.3,0.8-0.5,1.3-0.5c0.5,0,0.9,0.2,1.3,0.5L-411.9,612.8z"/>
								</g>
							</g>
							<g id="XMLID_134_">
								<g>
									<path fill="#717071" d="M-435.4,595c2.5-0.5,4.7,0.2,6.5,1.9c1.8,1.8,2.5,3.9,2.1,6.5c-0.4,2.5-2,5.2-4.7,8
										c-2.7,2.8-5.3,4.4-7.8,4.8c-2.5,0.4-4.6-0.3-6.4-2c-1.8-1.8-2.5-3.9-2.2-6.4c0.4-2.5,1.9-5.1,4.6-7.9
										C-440.6,597.1-438,595.4-435.4,595z M-431.3,601.1c-0.1-0.4-0.3-0.8-0.6-1.1c-0.3-0.3-0.7-0.5-1.1-0.6
										c-0.4-0.1-0.9,0-1.5,0.2c-0.6,0.2-1.3,0.6-2.2,1.3c-0.8,0.6-1.8,1.5-2.9,2.6c-1.1,1.1-1.9,2.1-2.5,2.9
										c-0.6,0.9-1,1.6-1.2,2.2c-0.2,0.6-0.2,1.1-0.1,1.5c0.1,0.4,0.3,0.7,0.6,1.1c0.3,0.3,0.7,0.5,1.1,0.6c0.4,0.1,0.9,0,1.4-0.2
										c0.6-0.2,1.3-0.6,2.1-1.2c0.8-0.6,1.8-1.5,2.9-2.6c1.1-1.1,1.9-2.1,2.6-3c0.6-0.9,1-1.6,1.2-2.2
										C-431.3,602-431.3,601.5-431.3,601.1z"/>
								</g>
								<g>
									<path fill="#3E3A39" d="M-435.4,593.5c2.5-0.5,4.7,0.2,6.5,1.9c1.8,1.8,2.5,3.9,2.1,6.5c-0.4,2.5-2,5.2-4.7,8
										c-2.7,2.8-5.3,4.4-7.8,4.8c-2.5,0.4-4.6-0.3-6.4-2c-1.8-1.8-2.5-3.9-2.2-6.4c0.4-2.5,1.9-5.1,4.6-7.9
										C-440.6,595.6-438,594-435.4,593.5z M-431.3,599.7c-0.1-0.4-0.3-0.8-0.6-1.1c-0.3-0.3-0.7-0.5-1.1-0.6
										c-0.4-0.1-0.9,0-1.5,0.2c-0.6,0.2-1.3,0.6-2.2,1.3c-0.8,0.6-1.8,1.5-2.9,2.6c-1.1,1.1-1.9,2.1-2.5,2.9
										c-0.6,0.9-1,1.6-1.2,2.2c-0.2,0.6-0.2,1.1-0.1,1.5c0.1,0.4,0.3,0.7,0.6,1.1c0.3,0.3,0.7,0.5,1.1,0.6c0.4,0.1,0.9,0,1.4-0.2
										c0.6-0.2,1.3-0.6,2.1-1.2c0.8-0.6,1.8-1.5,2.9-2.6c1.1-1.1,1.9-2.1,2.6-3c0.6-0.9,1-1.6,1.2-2.2
										C-431.3,600.5-431.3,600.1-431.3,599.7z"/>
								</g>
							</g>
						</g>
						<g id="XMLID_111_">
							<path id="XMLID_131_" fill="#3E3A39" d="M-419.1,512.9c-0.4-0.4-0.5-0.8-0.5-1.3c0-0.5,0.2-0.9,0.5-1.3l0.6-0.6
								c0.4-0.4,0.8-0.5,1.3-0.6c0.5,0,0.9,0.2,1.3,0.5l2.1,2c0.1,0.1,0.2,0.1,0.3,0l8.9-9.1c0.1-0.1,0.1-0.2,0-0.3l-1.7-1.6
								c-0.3-0.3-0.5-0.7-0.5-1.2c0-0.5,0.2-0.9,0.5-1.2c0.3-0.3,0.8-0.6,1.3-0.6c0.5-0.1,1,0,1.4,0.3c0.8,0.5,1.6,0.8,2.4,1.1
								c1.3,0.5,2.3,1,3,1.8l0.3,0.3c0.3,0.3,0.5,0.8,0.5,1.3c0,0.5-0.2,0.9-0.5,1.3l-11.7,12c-0.1,0.1-0.1,0.2,0,0.3l1.5,1.5
								c0.4,0.4,0.5,0.8,0.6,1.3c0,0.5-0.2,0.9-0.5,1.3l-0.6,0.6c-0.3,0.3-0.8,0.5-1.3,0.5c-0.5,0-0.9-0.2-1.3-0.5L-419.1,512.9z"/>
							<g id="XMLID_112_">
								<g>
									<path fill="#717071" d="M-395.6,533.6c-2.5,0.5-4.7-0.2-6.5-1.9c-1.8-1.8-2.5-3.9-2.1-6.5c0.4-2.5,2-5.2,4.7-8
										c2.7-2.8,5.3-4.4,7.8-4.8c2.5-0.4,4.6,0.3,6.4,2c1.8,1.8,2.5,3.9,2.2,6.4s-1.9,5.1-4.6,7.9
										C-390.4,531.5-393,533.1-395.6,533.6z M-399.7,527.5c0.1,0.4,0.3,0.8,0.6,1.1c0.3,0.3,0.7,0.5,1.1,0.6
										c0.4,0.1,0.9,0,1.5-0.2c0.6-0.2,1.3-0.6,2.2-1.3c0.8-0.6,1.8-1.5,2.9-2.6c1.1-1.1,1.9-2.1,2.5-2.9c0.6-0.9,1-1.6,1.2-2.2
										c0.2-0.6,0.2-1.1,0.1-1.5c-0.1-0.4-0.3-0.7-0.6-1.1c-0.3-0.3-0.7-0.5-1.1-0.6c-0.4-0.1-0.9,0-1.4,0.2
										c-0.6,0.2-1.3,0.6-2.1,1.2c-0.8,0.6-1.8,1.5-2.9,2.6c-1.1,1.1-1.9,2.1-2.6,3c-0.6,0.9-1,1.6-1.2,2.2
										C-399.7,526.6-399.7,527.1-399.7,527.5z"/>
								</g>
								<g>
									<path fill="#3E3A39" d="M-395.6,532.2c-2.5,0.5-4.7-0.2-6.5-1.9c-1.8-1.8-2.5-3.9-2.1-6.5c0.4-2.5,2-5.2,4.7-8
										c2.7-2.8,5.3-4.4,7.8-4.8c2.5-0.4,4.6,0.3,6.4,2c1.8,1.8,2.5,3.9,2.2,6.4c-0.4,2.5-1.9,5.1-4.6,7.9
										C-390.4,530.1-393,531.7-395.6,532.2z M-399.7,526.1c0.1,0.4,0.3,0.8,0.6,1.1c0.3,0.3,0.7,0.5,1.1,0.6
										c0.4,0.1,0.9,0,1.5-0.2c0.6-0.2,1.3-0.6,2.2-1.3c0.8-0.6,1.8-1.5,2.9-2.6c1.1-1.1,1.9-2.1,2.5-2.9c0.6-0.9,1-1.6,1.2-2.2
										c0.2-0.6,0.2-1.1,0.1-1.5c-0.1-0.4-0.3-0.7-0.6-1.1c-0.3-0.3-0.7-0.5-1.1-0.6c-0.4-0.1-0.9,0-1.4,0.2
										c-0.6,0.2-1.3,0.6-2.1,1.2c-0.8,0.6-1.8,1.5-2.9,2.6c-1.1,1.1-1.9,2.1-2.6,3c-0.6,0.9-1,1.6-1.2,2.2
										C-399.7,525.2-399.7,525.6-399.7,526.1z"/>
								</g>
							</g>
						</g>
					</g>
				</g>
				<g id="XMLID_97_">
					<g>
						<path id="XMLID_109_" fill="#9E9E9F" d="M-450.9,602.9l-63.6-35.7c-4.2-2.3-5.7-7.6-3.3-11.8l52.6-93.7
							c2.3-4.2,7.6-5.7,11.8-3.3l63.6,35.7c4.2,2.3,5.7,7.6,3.3,11.8l-52.6,93.7C-441.4,603.8-446.7,605.3-450.9,602.9z"/>
						<path fill="#9E9E9F" d="M-435.8,545.7c3.1-9-1.1-26.1-3-33c-0.4-1.6-2.1-2.6-3.7-2.1c-6.8,1.9-23.5,7.3-29.6,14.5
							c-1.2,1.4-2.1,3-2.5,5.1c-0.7,4,0.9,8.1,4.2,10.5c1.9,1.4,4.1,2,6.3,2c0.4,0,0.6,0.5,0.3,0.7l-5.7,4.8
							c-0.7,0.6-0.6,1.7,0.2,2.1l5.3,3l5.3,3c0.8,0.4,1.8,0,1.9-0.9l1.1-7.4c0.1-0.4,0.6-0.5,0.7-0.1c1.2,2,3,3.6,5.4,4.5
							c4.4,1.7,9.5,0.2,12.2-3.6C-436.6,547.8-436.1,546.7-435.8,545.7z"/>
						<path fill="#9E9E9F" d="M-435.8,544.3c3.1-9-1.1-26.1-3-33c-0.4-1.6-2.1-2.6-3.7-2.1c-6.8,1.9-23.5,7.3-29.6,14.5
							c-1.2,1.4-2.1,3-2.5,5.1c-0.7,4,0.9,8.1,4.2,10.5c1.9,1.4,4.1,2,6.3,2c0.4,0,0.6,0.5,0.3,0.7l-5.7,4.8
							c-0.7,0.6-0.6,1.7,0.2,2.1l5.3,3l5.3,3c0.8,0.4,1.8,0,1.9-0.9l1.1-7.4c0.1-0.4,0.6-0.5,0.7-0.1c1.2,2,3,3.6,5.4,4.5
							c4.4,1.7,9.5,0.2,12.2-3.6C-436.6,546.3-436.1,545.3-435.8,544.3z"/>
						<path id="XMLID_107_" fill="#9E9E9F" d="M-464,486c-2.5-1.4-4-3.3-4.4-5.7c-0.1-0.4,0-0.7,0.2-1.1c0-0.1,0.1-0.2,0.2-0.3
							c0.3-0.4,0.7-0.6,1.2-0.7l1.1-0.2c0.4,0,0.7,0,1,0.2c0.1,0.1,0.2,0.1,0.3,0.2c0.3,0.3,0.6,0.7,0.8,1.2
							c0.3,0.8,0.7,1.4,1.4,1.8c0.8,0.5,1.6,0.5,2.3,0.3c0.7-0.3,1.4-1.1,2.1-2.3l6.4-11.5c0.2-0.4,0.6-0.7,1.1-0.9
							c0.5-0.1,0.9-0.1,1.4,0.2l1.7,1c0.4,0.2,0.7,0.6,0.9,1.1c0.1,0.5,0.1,0.9-0.2,1.4l-6.7,11.8c-0.8,1.4-1.7,2.5-2.7,3.3
							c-1.1,0.8-2.3,1.3-3.7,1.3C-461,487.2-462.5,486.8-464,486z"/>
						<path fill="#9E9E9F" d="M-440.2,576.8c2.5,1.4,4,3.3,4.4,5.7c0.1,0.4,0,0.7-0.2,1.1c0,0.1-0.1,0.2-0.2,0.3
							c-0.3,0.4-0.7,0.6-1.2,0.7l-1.1,0.2c-0.4,0-0.7,0-1-0.2c-0.1-0.1-0.2-0.1-0.3-0.2c-0.3-0.3-0.6-0.7-0.8-1.2
							c-0.3-0.8-0.7-1.4-1.4-1.8c-0.8-0.5-1.6-0.5-2.3-0.3c-0.7,0.3-1.4,1.1-2.1,2.3l-6.4,11.5c-0.2,0.4-0.6,0.7-1.1,0.9
							c-0.5,0.1-0.9,0.1-1.4-0.2l-1.7-1c-0.4-0.2-0.7-0.6-0.9-1.1c-0.1-0.5-0.1-0.9,0.2-1.4l6.7-11.8c0.8-1.4,1.7-2.5,2.7-3.3
							c1.1-0.8,2.3-1.3,3.7-1.3C-443.1,575.6-441.7,576-440.2,576.8z"/>
						<path fill="#9E9E9F" d="M-440.2,575.4c2.5,1.4,4,3.3,4.4,5.7c0.1,0.4,0,0.7-0.2,1.1c0,0.1-0.1,0.2-0.2,0.3
							c-0.3,0.4-0.7,0.6-1.2,0.7l-1.1,0.2c-0.4,0-0.7,0-1-0.2c-0.1-0.1-0.2-0.1-0.3-0.2c-0.3-0.3-0.6-0.7-0.8-1.2
							c-0.3-0.8-0.7-1.4-1.4-1.8c-0.8-0.5-1.6-0.5-2.3-0.3c-0.7,0.3-1.4,1.1-2.1,2.3l-6.4,11.5c-0.2,0.4-0.6,0.7-1.1,0.9
							c-0.5,0.1-0.9,0.1-1.4-0.2l-1.7-1c-0.4-0.2-0.7-0.6-0.9-1.1c-0.1-0.5-0.1-0.9,0.2-1.4l6.7-11.8c0.8-1.4,1.7-2.5,2.7-3.3
							c1.1-0.8,2.3-1.3,3.7-1.3C-443.1,574.2-441.7,574.6-440.2,575.4z"/>
					</g>
					<g>
						<path id="XMLID_104_" fill="#DBDCDC" d="M-452.3,601.5l-63.6-35.7c-4.2-2.3-5.7-7.6-3.3-11.8l52.6-93.7
							c2.3-4.2,7.6-5.7,11.8-3.3l63.6,35.7c4.2,2.3,5.7,7.6,3.3,11.8l-52.6,93.7C-442.8,602.4-448.1,603.9-452.3,601.5z"/>
						<g id="XMLID_103_">
							<g>
								<path fill="#717071" d="M-437.2,544.3c3.1-9-1.1-26.1-3-33c-0.4-1.6-2.1-2.6-3.7-2.1c-6.8,1.9-23.5,7.3-29.6,14.5
									c-1.2,1.4-2.1,3-2.5,5.1c-0.7,4,0.9,8.1,4.2,10.5c1.9,1.4,4.1,2,6.3,2c0.4,0,0.6,0.5,0.3,0.7l-5.7,4.8
									c-0.7,0.6-0.6,1.7,0.2,2.1l5.3,3l5.3,3c0.8,0.4,1.8,0,1.9-0.9l1.1-7.4c0.1-0.4,0.6-0.5,0.7-0.1c1.2,2,3,3.6,5.4,4.5
									c4.4,1.7,9.5,0.2,12.2-3.6C-438,546.3-437.5,545.3-437.2,544.3z"/>
							</g>
							<g>
								<path fill="#3E3A39" d="M-437.2,542.9c3.1-9-1.1-26.1-3-33c-0.4-1.6-2.1-2.6-3.7-2.1c-6.8,1.9-23.5,7.3-29.6,14.5
									c-1.2,1.4-2.1,3-2.5,5.1c-0.7,4,0.9,8.1,4.2,10.5c1.9,1.4,4.1,2,6.3,2c0.4,0,0.6,0.5,0.3,0.7l-5.7,4.8
									c-0.7,0.6-0.6,1.7,0.2,2.1l5.3,3l5.3,3c0.8,0.4,1.8,0,1.9-0.9l1.1-7.4c0.1-0.4,0.6-0.5,0.7-0.1c1.2,2,3,3.6,5.4,4.5
									c4.4,1.7,9.5,0.2,12.2-3.6C-438,544.9-437.5,543.9-437.2,542.9z"/>
							</g>
						</g>
						<path id="XMLID_101_" fill="#3E3A39" d="M-465.4,484.5c-2.5-1.4-4-3.3-4.4-5.7c-0.1-0.4,0-0.7,0.2-1.1c0-0.1,0.1-0.2,0.2-0.3
							c0.3-0.4,0.7-0.6,1.2-0.7l1.1-0.2c0.4,0,0.7,0,1,0.2c0.1,0.1,0.2,0.1,0.3,0.2c0.3,0.3,0.6,0.7,0.8,1.2
							c0.3,0.8,0.7,1.4,1.4,1.8c0.8,0.5,1.6,0.5,2.3,0.3c0.7-0.3,1.4-1.1,2.1-2.3l6.4-11.5c0.2-0.4,0.6-0.7,1.1-0.9
							c0.5-0.1,0.9-0.1,1.4,0.2l1.7,1c0.4,0.2,0.7,0.6,0.9,1.1c0.1,0.5,0.1,0.9-0.2,1.4l-6.7,11.8c-0.8,1.4-1.7,2.5-2.7,3.3
							c-1.1,0.8-2.3,1.3-3.7,1.3C-462.5,485.7-463.9,485.4-465.4,484.5z"/>
						<g id="XMLID_98_">
							<g>
								<path fill="#717071" d="M-441.6,575.4c2.5,1.4,4,3.3,4.4,5.7c0.1,0.4,0,0.7-0.2,1.1c0,0.1-0.1,0.2-0.2,0.3
									c-0.3,0.4-0.7,0.6-1.2,0.7l-1.1,0.2c-0.4,0-0.7,0-1-0.2c-0.1-0.1-0.2-0.1-0.3-0.2c-0.3-0.3-0.6-0.7-0.8-1.2
									c-0.3-0.8-0.7-1.4-1.4-1.8c-0.8-0.5-1.6-0.5-2.3-0.3c-0.7,0.3-1.4,1.1-2.1,2.3l-6.4,11.5c-0.2,0.4-0.6,0.7-1.1,0.9
									c-0.5,0.1-0.9,0.1-1.4-0.2l-1.7-1c-0.4-0.2-0.7-0.6-0.9-1.1c-0.1-0.5-0.1-0.9,0.2-1.4l6.7-11.8c0.8-1.4,1.7-2.5,2.7-3.3
									c1.1-0.8,2.3-1.3,3.7-1.3C-444.5,574.2-443.1,574.6-441.6,575.4z"/>
							</g>
							<g>
								<path fill="#3E3A39" d="M-441.6,574c2.5,1.4,4,3.3,4.4,5.7c0.1,0.4,0,0.7-0.2,1.1c0,0.1-0.1,0.2-0.2,0.3
									c-0.3,0.4-0.7,0.6-1.2,0.7l-1.1,0.2c-0.4,0-0.7,0-1-0.2c-0.1-0.1-0.2-0.1-0.3-0.2c-0.3-0.3-0.6-0.7-0.8-1.2
									c-0.3-0.8-0.7-1.4-1.4-1.8c-0.8-0.5-1.6-0.5-2.3-0.3c-0.7,0.3-1.4,1.1-2.1,2.3l-6.4,11.5c-0.2,0.4-0.6,0.7-1.1,0.9
									c-0.5,0.1-0.9,0.1-1.4-0.2l-1.7-1c-0.4-0.2-0.7-0.6-0.9-1.1c-0.1-0.5-0.1-0.9,0.2-1.4l6.7-11.8c0.8-1.4,1.7-2.5,2.7-3.3
									c1.1-0.8,2.3-1.3,3.7-1.3C-444.5,572.8-443.1,573.1-441.6,574z"/>
							</g>
						</g>
					</g>
				</g>
				<g id="XMLID_78_">
					<g>
						<path id="XMLID_96_" fill="#9E9E9F" d="M-473.3,578.8l-70.6-18c-4.6-1.2-7.4-5.9-6.3-10.5l26.6-104.1
							c1.2-4.6,5.9-7.4,10.5-6.3l70.6,18c4.6,1.2,7.4,5.9,6.3,10.5l-26.6,104.1C-463.9,577.2-468.7,580-473.3,578.8z"/>
						<path fill="#9E9E9F" d="M-473.9,519.6c0.6-9.4-7.8-25-11.4-31.1c-0.8-1.4-2.7-1.9-4.1-1.1c-6,3.6-20.8,13.1-24.9,21.7
							c-0.8,1.6-1.3,3.5-1.1,5.6c0.4,4,3,7.6,6.8,9c2.2,0.8,4.5,0.9,6.6,0.3c0.4-0.1,0.7,0.3,0.4,0.6l-4.3,6.1
							c-0.5,0.7-0.1,1.8,0.7,2l5.9,1.5l5.9,1.5c0.9,0.2,1.7-0.5,1.6-1.4l-0.8-7.4c0-0.4,0.4-0.6,0.7-0.3c1.6,1.6,3.8,2.7,6.3,3
							c4.7,0.5,9.2-2.3,10.9-6.7C-474.2,521.8-474,520.7-473.9,519.6z"/>
						<path fill="#9E9E9F" d="M-473.9,518.2c0.6-9.4-7.8-25-11.4-31.1c-0.8-1.4-2.7-1.9-4.1-1.1c-6,3.6-20.8,13.1-24.9,21.7
							c-0.8,1.6-1.3,3.5-1.1,5.6c0.4,4,3,7.6,6.8,9c2.2,0.8,4.5,0.9,6.6,0.3c0.4-0.1,0.7,0.3,0.4,0.6l-4.3,6.1
							c-0.5,0.7-0.1,1.8,0.7,2l5.9,1.5l5.9,1.5c0.9,0.2,1.7-0.5,1.6-1.4l-0.8-7.4c0-0.4,0.4-0.6,0.7-0.3c1.6,1.6,3.8,2.7,6.3,3
							c4.7,0.5,9.2-2.3,10.9-6.7C-474.2,520.4-474,519.3-473.9,518.2z"/>
						<path id="XMLID_93_" fill="#9E9E9F" d="M-504.3,474.4c0.1,0,0.2,0,0.3,0.1c0.4,0.1,0.7,0.3,1,0.6c0.3,0.3,0.5,0.7,0.5,1.2
							l0,0.6c0,0.2,0,0.4-0.1,0.5c-0.1,0.3-0.2,0.6-0.5,0.9c-0.4,0.4-0.8,0.6-1.3,0.6c-0.8-0.1-1.6-0.2-2.5-0.4
							c-2.3-0.6-4.2-1.6-5.6-3.1c-1.4-1.5-2.3-3.3-2.7-5.3c0-0.2-0.1-0.3-0.3-0.3c-2.2-1.2-3.8-3-4.6-5.3c-0.9-2.4-0.9-5.1-0.1-8.2
							c0.9-3.6,2.6-6.2,5-7.8c2.4-1.6,5.2-1.9,8.3-1.1c3.1,0.8,5.4,2.5,6.7,5c1.4,2.5,1.6,5.6,0.7,9.2c-0.7,2.9-2,5.2-3.7,6.9
							c-1.7,1.6-3.7,2.5-6.1,2.7c-0.1,0-0.2,0.1-0.1,0.2c0.3,0.8,0.9,1.5,1.7,2c0.8,0.5,1.6,0.9,2.6,1.2
							C-504.8,474.3-504.6,474.4-504.3,474.4z M-514.6,457.5c-0.6,2.3-0.6,4.2-0.1,5.8c0.5,1.5,1.5,2.5,3,2.8c1.5,0.4,2.8,0,4-1.1
							c1.2-1.1,2.1-2.8,2.7-5.1c0.6-2.2,0.6-4,0-5.4c-0.5-1.4-1.6-2.4-3.1-2.7c-1.5-0.4-2.8-0.1-4,0.9
							C-513.1,453.7-514,455.3-514.6,457.5z"/>
						<path fill="#9E9E9F" d="M-482.1,545.6c-0.1,0-0.2,0-0.3-0.1c-0.4-0.1-0.7-0.3-1-0.6c-0.3-0.3-0.5-0.7-0.5-1.2l0-0.6
							c0-0.2,0-0.4,0.1-0.5c0.1-0.3,0.2-0.6,0.5-0.9c0.4-0.4,0.8-0.6,1.3-0.6c0.8,0.1,1.6,0.2,2.5,0.4c2.3,0.6,4.2,1.6,5.6,3.1
							c1.4,1.5,2.3,3.3,2.7,5.3c0,0.2,0.1,0.3,0.3,0.3c2.2,1.2,3.8,3,4.6,5.3c0.9,2.4,0.9,5.1,0.1,8.2c-0.9,3.6-2.6,6.2-5,7.8
							c-2.4,1.6-5.2,1.9-8.3,1.1c-3.1-0.8-5.4-2.5-6.7-5c-1.4-2.5-1.6-5.6-0.7-9.2c0.7-2.9,2-5.2,3.7-6.9c1.7-1.6,3.7-2.5,6.1-2.7
							c0.1,0,0.2-0.1,0.1-0.2c-0.3-0.8-0.9-1.5-1.7-2c-0.8-0.5-1.6-0.9-2.6-1.2C-481.5,545.7-481.8,545.6-482.1,545.6z
							 M-471.8,562.5c0.6-2.3,0.6-4.2,0.1-5.8c-0.5-1.5-1.5-2.5-3-2.8c-1.5-0.4-2.8,0-4,1.1c-1.2,1.1-2.1,2.8-2.7,5.1
							c-0.6,2.2-0.6,4,0,5.4c0.5,1.4,1.6,2.4,3.1,2.7c1.5,0.4,2.8,0.1,4-0.9C-473.2,566.3-472.4,564.7-471.8,562.5z"/>
						<path fill="#9E9E9F" d="M-482.1,544.2c-0.1,0-0.2,0-0.3-0.1c-0.4-0.1-0.7-0.3-1-0.6c-0.3-0.3-0.5-0.7-0.5-1.2l0-0.6
							c0-0.2,0-0.4,0.1-0.5c0.1-0.3,0.2-0.6,0.5-0.9c0.4-0.4,0.8-0.6,1.3-0.6c0.8,0.1,1.6,0.2,2.5,0.4c2.3,0.6,4.2,1.6,5.6,3.1
							c1.4,1.5,2.3,3.3,2.7,5.3c0,0.2,0.1,0.3,0.3,0.3c2.2,1.2,3.8,3,4.6,5.3c0.9,2.4,0.9,5.1,0.1,8.2c-0.9,3.6-2.6,6.2-5,7.8
							c-2.4,1.6-5.2,1.9-8.3,1.1c-3.1-0.8-5.4-2.5-6.7-5c-1.4-2.5-1.6-5.6-0.7-9.2c0.7-2.9,2-5.2,3.7-6.9c1.7-1.6,3.7-2.5,6.1-2.7
							c0.1,0,0.2-0.1,0.1-0.2c-0.3-0.8-0.9-1.5-1.7-2c-0.8-0.5-1.6-0.9-2.6-1.2C-481.5,544.3-481.8,544.2-482.1,544.2z
							 M-471.8,561.1c0.6-2.3,0.6-4.2,0.1-5.8c-0.5-1.5-1.5-2.5-3-2.8c-1.5-0.4-2.8,0-4,1.1c-1.2,1.1-2.1,2.8-2.7,5.1
							c-0.6,2.2-0.6,4,0,5.4c0.5,1.4,1.6,2.4,3.1,2.7c1.5,0.4,2.8,0.1,4-0.9C-473.2,564.9-472.4,563.3-471.8,561.1z"/>
					</g>
					<g>
						<path id="XMLID_88_" fill="#DBDCDC" d="M-474.7,577.4l-70.6-18c-4.6-1.2-7.4-5.9-6.3-10.5l26.6-104.1
							c1.2-4.6,5.9-7.4,10.5-6.3l70.6,18c4.6,1.2,7.4,5.9,6.3,10.5l-26.6,104.1C-465.4,575.7-470.1,578.5-474.7,577.4z"/>
						<g id="XMLID_87_">
							<g>
								<path fill="#717071" d="M-475.3,518.2c0.6-9.4-7.8-25-11.4-31.1c-0.8-1.4-2.7-1.9-4.1-1.1c-6,3.6-20.8,13.1-24.9,21.7
									c-0.8,1.6-1.3,3.5-1.1,5.6c0.4,4,3,7.6,6.8,9c2.2,0.8,4.5,0.9,6.6,0.3c0.4-0.1,0.7,0.3,0.4,0.6l-4.3,6.1
									c-0.5,0.7-0.1,1.8,0.7,2l5.9,1.5l5.9,1.5c0.9,0.2,1.7-0.5,1.6-1.4l-0.8-7.4c0-0.4,0.4-0.6,0.7-0.3c1.6,1.6,3.8,2.7,6.3,3
									c4.7,0.5,9.2-2.3,10.9-6.7C-475.6,520.4-475.4,519.3-475.3,518.2z"/>
							</g>
							<g>
								<path fill="#3E3A39" d="M-475.3,516.8c0.6-9.4-7.8-25-11.4-31.1c-0.8-1.4-2.7-1.9-4.1-1.1c-6,3.6-20.8,13.1-24.9,21.7
									c-0.8,1.6-1.3,3.5-1.1,5.6c0.4,4,3,7.6,6.8,9c2.2,0.8,4.5,0.9,6.6,0.3c0.4-0.1,0.7,0.3,0.4,0.6l-4.3,6.1
									c-0.5,0.7-0.1,1.8,0.7,2l5.9,1.5l5.9,1.5c0.9,0.2,1.7-0.5,1.6-1.4l-0.8-7.4c0-0.4,0.4-0.6,0.7-0.3c1.6,1.6,3.8,2.7,6.3,3
									c4.7,0.5,9.2-2.3,10.9-6.7C-475.6,519-475.4,517.9-475.3,516.8z"/>
							</g>
						</g>
						<path id="XMLID_84_" fill="#3E3A39" d="M-505.7,473c0.1,0,0.2,0,0.3,0.1c0.4,0.1,0.7,0.3,1,0.6c0.3,0.3,0.5,0.7,0.5,1.2l0,0.6
							c0,0.2,0,0.4-0.1,0.5c-0.1,0.3-0.2,0.6-0.5,0.9c-0.4,0.4-0.8,0.6-1.3,0.6c-0.8-0.1-1.6-0.2-2.5-0.4c-2.3-0.6-4.2-1.6-5.6-3.1
							c-1.4-1.5-2.3-3.3-2.7-5.3c0-0.2-0.1-0.3-0.3-0.3c-2.2-1.2-3.8-3-4.6-5.3c-0.9-2.4-0.9-5.1-0.1-8.2c0.9-3.6,2.6-6.2,5-7.8
							c2.4-1.6,5.2-1.9,8.3-1.1c3.1,0.8,5.4,2.5,6.7,5c1.4,2.5,1.6,5.6,0.7,9.2c-0.7,2.9-2,5.2-3.7,6.9c-1.7,1.6-3.7,2.5-6.1,2.7
							c-0.1,0-0.2,0.1-0.1,0.2c0.3,0.8,0.9,1.5,1.7,2c0.8,0.5,1.6,0.9,2.6,1.2C-506.3,472.9-506,473-505.7,473z M-516,456.1
							c-0.6,2.3-0.6,4.2-0.1,5.8c0.5,1.5,1.5,2.5,3,2.8c1.5,0.4,2.8,0,4-1.1c1.2-1.1,2.1-2.8,2.7-5.1c0.6-2.2,0.6-4,0-5.4
							c-0.5-1.4-1.6-2.4-3.1-2.7c-1.5-0.4-2.8-0.1-4,0.9C-514.6,452.3-515.4,453.9-516,456.1z"/>
						<g id="XMLID_79_">
							<g>
								<path fill="#717071" d="M-483.5,544.2c-0.1,0-0.2,0-0.3-0.1c-0.4-0.1-0.7-0.3-1-0.6c-0.3-0.3-0.5-0.7-0.5-1.2l0-0.6
									c0-0.2,0-0.4,0.1-0.5c0.1-0.3,0.2-0.6,0.5-0.9c0.4-0.4,0.8-0.6,1.3-0.6c0.8,0.1,1.6,0.2,2.5,0.4c2.3,0.6,4.2,1.6,5.6,3.1
									c1.4,1.5,2.3,3.3,2.7,5.3c0,0.2,0.1,0.3,0.3,0.3c2.2,1.2,3.8,3,4.6,5.3c0.9,2.4,0.9,5.1,0.1,8.2c-0.9,3.6-2.6,6.2-5,7.8
									c-2.4,1.6-5.2,1.9-8.3,1.1c-3.1-0.8-5.4-2.5-6.7-5c-1.4-2.5-1.6-5.6-0.7-9.2c0.7-2.9,2-5.2,3.7-6.9c1.7-1.6,3.7-2.5,6.1-2.7
									c0.1,0,0.2-0.1,0.1-0.2c-0.3-0.8-0.9-1.5-1.7-2c-0.8-0.5-1.6-0.9-2.6-1.2C-482.9,544.3-483.2,544.2-483.5,544.2z
									 M-473.2,561.1c0.6-2.3,0.6-4.2,0.1-5.8c-0.5-1.5-1.5-2.5-3-2.8c-1.5-0.4-2.8,0-4,1.1c-1.2,1.1-2.1,2.8-2.7,5.1
									c-0.6,2.2-0.6,4,0,5.4c0.5,1.4,1.6,2.4,3.1,2.7c1.5,0.4,2.8,0.1,4-0.9C-474.6,564.9-473.8,563.3-473.2,561.1z"/>
							</g>
							<g>
								<path fill="#3E3A39" d="M-483.5,542.8c-0.1,0-0.2,0-0.3-0.1c-0.4-0.1-0.7-0.3-1-0.6c-0.3-0.3-0.5-0.7-0.5-1.2l0-0.6
									c0-0.2,0-0.4,0.1-0.5c0.1-0.3,0.2-0.6,0.5-0.9c0.4-0.4,0.8-0.6,1.3-0.6c0.8,0.1,1.6,0.2,2.5,0.4c2.3,0.6,4.2,1.6,5.6,3.1
									c1.4,1.5,2.3,3.3,2.7,5.3c0,0.2,0.1,0.3,0.3,0.3c2.2,1.2,3.8,3,4.6,5.3c0.9,2.4,0.9,5.1,0.1,8.2c-0.9,3.6-2.6,6.2-5,7.8
									c-2.4,1.6-5.2,1.9-8.3,1.1c-3.1-0.8-5.4-2.5-6.7-5c-1.4-2.5-1.6-5.6-0.7-9.2c0.7-2.9,2-5.2,3.7-6.9c1.7-1.6,3.7-2.5,6.1-2.7
									c0.1,0,0.2-0.1,0.1-0.2c-0.3-0.8-0.9-1.5-1.7-2c-0.8-0.5-1.6-0.9-2.6-1.2C-482.9,542.8-483.2,542.8-483.5,542.8z
									 M-473.2,559.7c0.6-2.3,0.6-4.2,0.1-5.8c-0.5-1.5-1.5-2.5-3-2.8c-1.5-0.4-2.8,0-4,1.1c-1.2,1.1-2.1,2.8-2.7,5.1
									c-0.6,2.2-0.6,4,0,5.4c0.5,1.4,1.6,2.4,3.1,2.7c1.5,0.4,2.8,0.1,4-0.9C-474.6,563.4-473.8,561.9-473.2,559.7z"/>
							</g>
						</g>
					</g>
				</g>
				<g id="XMLID_55_">
					<g>
						<path id="XMLID_77_" fill="#9E9E9F" d="M-504.4,569.8l-72.9,0.9c-4.8,0.1-8.7-3.8-8.8-8.6l-1.3-107.5
							c-0.1-4.8,3.8-8.7,8.6-8.8l72.9-0.9c4.8-0.1,8.7,3.8,8.8,8.6l1.3,107.5C-495.8,565.8-499.6,569.7-504.4,569.8z"/>
						<path fill="#9E9E9F" d="M-520.6,512.8c-1.8-9.3-14-22.1-19.1-27.1c-1.2-1.2-3.1-1.2-4.3,0c-4.9,5.1-16.7,18.1-18.4,27.4
							c-0.4,1.8-0.3,3.7,0.4,5.7c1.4,3.8,4.9,6.6,8.9,6.9c2.4,0.2,4.6-0.3,6.4-1.5c0.3-0.2,0.7,0.1,0.6,0.5l-2.5,7
							c-0.3,0.9,0.3,1.8,1.2,1.7l6.1-0.1l6.1-0.1c0.9,0,1.5-0.9,1.2-1.8l-2.7-6.9c-0.1-0.4,0.2-0.7,0.6-0.5c2,1.1,4.4,1.6,6.9,1.2
							c4.6-0.7,8.3-4.6,8.8-9.3C-520.3,515.1-520.4,513.9-520.6,512.8z"/>
						<path fill="#9E9E9F" d="M-520.6,511.4c-1.8-9.3-14-22.1-19.1-27.1c-1.2-1.2-3.1-1.2-4.3,0c-4.9,5.1-16.7,18.1-18.4,27.4
							c-0.4,1.8-0.3,3.7,0.4,5.7c1.4,3.8,4.9,6.6,8.9,6.9c2.4,0.2,4.6-0.3,6.4-1.5c0.3-0.2,0.7,0.1,0.6,0.5l-2.5,7
							c-0.3,0.9,0.3,1.8,1.2,1.7l6.1-0.1l6.1-0.1c0.9,0,1.5-0.9,1.2-1.8l-2.7-6.9c-0.1-0.4,0.2-0.7,0.6-0.5c2,1.1,4.4,1.6,6.9,1.2
							c4.6-0.7,8.3-4.6,8.8-9.3C-520.3,513.7-520.4,512.5-520.6,511.4z"/>
						<path id="XMLID_75_" fill="#9E9E9F" d="M-579.4,474.7c-0.5,0-0.9-0.2-1.3-0.5c-0.4-0.4-0.5-0.8-0.5-1.3l-0.2-19.7
							c0-0.5,0.2-0.9,0.5-1.3c0.4-0.4,0.8-0.5,1.3-0.5l2,0c0.5,0,0.9,0.2,1.3,0.5c0.3,0.4,0.5,0.8,0.5,1.3l0.1,7.4c0,0,0,0,0,0
							s0.1,0,0.1,0l5.4-7.8c0.7-1,1.6-1.5,2.8-1.5l2.5,0c0.4,0,0.6,0.2,0.8,0.5c0.1,0.1,0.1,0.3,0.1,0.4c0,0.2-0.1,0.4-0.2,0.5
							l-5.7,7.8c-0.1,0.1-0.1,0.3,0,0.4l7.4,12.1c0.1,0.2,0.2,0.4,0.2,0.5c0,0.2,0,0.3-0.1,0.5c-0.2,0.3-0.5,0.5-0.9,0.5l-2.5,0
							c-0.6,0-1.1-0.1-1.6-0.4c-0.5-0.3-0.9-0.6-1.2-1.1l-4.5-7.7c0,0-0.1-0.1-0.1-0.1s-0.1,0-0.1,0.1l-2.2,3.1
							c-0.1,0.1-0.1,0.3-0.1,0.4l0,4.1c0,0.5-0.2,0.9-0.5,1.3c-0.3,0.4-0.8,0.5-1.3,0.5L-579.4,474.7z"/>
						<path fill="#9E9E9F" d="M-503.7,542.4c0.5,0,0.9,0.2,1.3,0.5c0.4,0.4,0.5,0.8,0.5,1.3l0.2,19.7c0,0.5-0.2,0.9-0.5,1.3
							c-0.4,0.4-0.8,0.5-1.3,0.5l-2,0c-0.5,0-0.9-0.2-1.3-0.5c-0.3-0.4-0.5-0.8-0.5-1.3l-0.1-7.4c0,0,0,0,0,0s-0.1,0-0.1,0l-5.4,7.8
							c-0.7,1-1.6,1.5-2.8,1.5l-2.5,0c-0.4,0-0.6-0.2-0.8-0.5c-0.1-0.1-0.1-0.3-0.1-0.4c0-0.2,0.1-0.4,0.2-0.5l5.7-7.8
							c0.1-0.1,0.1-0.3,0-0.4l-7.4-12.1c-0.1-0.2-0.2-0.4-0.2-0.5c0-0.2,0-0.3,0.1-0.5c0.2-0.3,0.5-0.5,0.9-0.5l2.5,0
							c0.6,0,1.1,0.1,1.6,0.4c0.5,0.3,0.9,0.6,1.2,1.1l4.5,7.7c0,0,0.1,0.1,0.1,0.1c0.1,0,0.1,0,0.1-0.1l2.2-3.1
							c0.1-0.1,0.1-0.3,0.1-0.4l0-4.1c0-0.5,0.2-0.9,0.5-1.3c0.3-0.4,0.8-0.5,1.3-0.5L-503.7,542.4z"/>
						<path fill="#9E9E9F" d="M-503.7,541c0.5,0,0.9,0.2,1.3,0.5c0.4,0.4,0.5,0.8,0.5,1.3l0.2,19.7c0,0.5-0.2,0.9-0.5,1.3
							c-0.4,0.4-0.8,0.5-1.3,0.5l-2,0c-0.5,0-0.9-0.2-1.3-0.5c-0.3-0.4-0.5-0.8-0.5-1.3l-0.1-7.4c0,0,0,0,0,0c0,0-0.1,0-0.1,0
							l-5.4,7.8c-0.7,1-1.6,1.5-2.8,1.5l-2.5,0c-0.4,0-0.6-0.2-0.8-0.5c-0.1-0.1-0.1-0.3-0.1-0.4c0-0.2,0.1-0.4,0.2-0.5l5.7-7.8
							c0.1-0.1,0.1-0.3,0-0.4l-7.4-12.1c-0.1-0.2-0.2-0.4-0.2-0.5c0-0.2,0-0.3,0.1-0.5c0.2-0.3,0.5-0.5,0.9-0.5l2.5,0
							c0.6,0,1.1,0.1,1.6,0.4c0.5,0.3,0.9,0.6,1.2,1.1l4.5,7.7c0,0,0.1,0.1,0.1,0.1s0.1,0,0.1-0.1l2.2-3.1c0.1-0.1,0.1-0.3,0.1-0.4
							l0-4.1c0-0.5,0.2-0.9,0.5-1.3c0.3-0.4,0.8-0.5,1.3-0.5L-503.7,541z"/>
					</g>
					<g>
						<path id="XMLID_72_" fill="#DBDCDC" d="M-505.8,568.4l-72.9,0.9c-4.8,0.1-8.7-3.8-8.8-8.6l-1.3-107.5
							c-0.1-4.8,3.8-8.7,8.6-8.8l72.9-0.9c4.8-0.1,8.7,3.8,8.8,8.6l1.3,107.5C-497.2,564.4-501,568.3-505.8,568.4z"/>
						<g id="XMLID_68_">
							<g>
								<path fill="#717071" d="M-522,511.4c-1.8-9.3-14-22.1-19.1-27.1c-1.2-1.2-3.1-1.2-4.3,0c-4.9,5.1-16.7,18.1-18.4,27.4
									c-0.4,1.8-0.3,3.7,0.4,5.7c1.4,3.8,4.9,6.6,8.9,6.9c2.4,0.2,4.6-0.3,6.4-1.5c0.3-0.2,0.7,0.1,0.6,0.5l-2.5,7
									c-0.3,0.9,0.3,1.8,1.2,1.7l6.1-0.1l6.1-0.1c0.9,0,1.5-0.9,1.2-1.8l-2.7-6.9c-0.1-0.4,0.2-0.7,0.6-0.5c2,1.1,4.4,1.6,6.9,1.2
									c4.6-0.7,8.3-4.6,8.8-9.3C-521.7,513.7-521.8,512.5-522,511.4z"/>
							</g>
							<g>
								<path fill="#3E3A39" d="M-522,510c-1.8-9.3-14-22.1-19.1-27.1c-1.2-1.2-3.1-1.2-4.3,0c-4.9,5.1-16.7,18.1-18.4,27.4
									c-0.4,1.8-0.3,3.7,0.4,5.7c1.4,3.8,4.9,6.6,8.9,6.9c2.4,0.2,4.6-0.3,6.4-1.5c0.3-0.2,0.7,0.1,0.6,0.5l-2.5,7
									c-0.3,0.9,0.3,1.8,1.2,1.7l6.1-0.1l6.1-0.1c0.9,0,1.5-0.9,1.2-1.8l-2.7-6.9c-0.1-0.4,0.2-0.7,0.6-0.5c2,1.1,4.4,1.6,6.9,1.2
									c4.6-0.7,8.3-4.6,8.8-9.3C-521.7,512.2-521.8,511.1-522,510z"/>
							</g>
						</g>
						<path id="XMLID_62_" fill="#3E3A39" d="M-580.8,473.2c-0.5,0-0.9-0.2-1.3-0.5c-0.4-0.4-0.5-0.8-0.5-1.3l-0.2-19.7
							c0-0.5,0.2-0.9,0.5-1.3c0.4-0.4,0.8-0.5,1.3-0.5l2,0c0.5,0,0.9,0.2,1.3,0.5c0.3,0.4,0.5,0.8,0.5,1.3l0.1,7.4c0,0,0,0,0,0
							s0.1,0,0.1,0l5.4-7.8c0.7-1,1.6-1.5,2.8-1.5l2.5,0c0.4,0,0.6,0.2,0.8,0.5c0.1,0.1,0.1,0.3,0.1,0.4c0,0.2-0.1,0.4-0.2,0.5
							l-5.7,7.8c-0.1,0.1-0.1,0.3,0,0.4l7.4,12.1c0.1,0.2,0.2,0.4,0.2,0.5c0,0.2,0,0.3-0.1,0.5c-0.2,0.3-0.5,0.5-0.9,0.5l-2.5,0
							c-0.6,0-1.1-0.1-1.6-0.4c-0.5-0.3-0.9-0.6-1.2-1.1l-4.5-7.7c0,0-0.1-0.1-0.1-0.1s-0.1,0-0.1,0.1l-2.2,3.1
							c-0.1,0.1-0.1,0.3-0.1,0.4l0,4.1c0,0.5-0.2,0.9-0.5,1.3c-0.3,0.4-0.8,0.5-1.3,0.5L-580.8,473.2z"/>
						<g id="XMLID_56_">
							<g>
								<path fill="#717071" d="M-505.1,541c0.5,0,0.9,0.2,1.3,0.5c0.4,0.4,0.5,0.8,0.5,1.3l0.2,19.7c0,0.5-0.2,0.9-0.5,1.3
									c-0.4,0.4-0.8,0.5-1.3,0.5l-2,0c-0.5,0-0.9-0.2-1.3-0.5c-0.3-0.4-0.5-0.8-0.5-1.3l-0.1-7.4c0,0,0,0,0,0c0,0-0.1,0-0.1,0
									l-5.4,7.8c-0.7,1-1.6,1.5-2.8,1.5l-2.5,0c-0.4,0-0.6-0.2-0.8-0.5c-0.1-0.1-0.1-0.3-0.1-0.4c0-0.2,0.1-0.4,0.2-0.5l5.7-7.8
									c0.1-0.1,0.1-0.3,0-0.4l-7.4-12.1c-0.1-0.2-0.2-0.4-0.2-0.5c0-0.2,0-0.3,0.1-0.5c0.2-0.3,0.5-0.5,0.9-0.5l2.5,0
									c0.6,0,1.1,0.1,1.6,0.4c0.5,0.3,0.9,0.6,1.2,1.1l4.5,7.7c0,0,0.1,0.1,0.1,0.1s0.1,0,0.1-0.1l2.2-3.1
									c0.1-0.1,0.1-0.3,0.1-0.4l0-4.1c0-0.5,0.2-0.9,0.5-1.3c0.3-0.4,0.8-0.5,1.3-0.5L-505.1,541z"/>
							</g>
							<g>
								<path fill="#3E3A39" d="M-505.1,539.6c0.5,0,0.9,0.2,1.3,0.5c0.4,0.4,0.5,0.8,0.5,1.3l0.2,19.7c0,0.5-0.2,0.9-0.5,1.3
									c-0.4,0.4-0.8,0.5-1.3,0.5l-2,0c-0.5,0-0.9-0.2-1.3-0.5c-0.3-0.4-0.5-0.8-0.5-1.3l-0.1-7.4c0,0,0,0,0,0c0,0-0.1,0-0.1,0
									l-5.4,7.8c-0.7,1-1.6,1.5-2.8,1.5l-2.5,0c-0.4,0-0.6-0.2-0.8-0.5c-0.1-0.1-0.1-0.3-0.1-0.4c0-0.2,0.1-0.4,0.2-0.5l5.7-7.8
									c0.1-0.1,0.1-0.3,0-0.4l-7.4-12.1c-0.1-0.2-0.2-0.4-0.2-0.5c0-0.2,0-0.3,0.1-0.5c0.2-0.3,0.5-0.5,0.9-0.5l2.5,0
									c0.6,0,1.1,0.1,1.6,0.4c0.5,0.3,0.9,0.6,1.2,1.1l4.5,7.7c0,0,0.1,0.1,0.1,0.1c0.1,0,0.1,0,0.1-0.1l2.2-3.1
									c0.1-0.1,0.1-0.3,0.1-0.4l0-4.1c0-0.5,0.2-0.9,0.5-1.3c0.3-0.4,0.8-0.5,1.3-0.5L-505.1,539.6z"/>
							</g>
						</g>
					</g>
				</g>
				<g id="XMLID_4_">
					<g>
						<path id="XMLID_51_" fill="#9E9E9F" d="M-539,569.3l-70.2,19.7c-4.6,1.3-9.4-1.4-10.7-6l-29-103.5c-1.3-4.6,1.4-9.4,6-10.7
							l70.2-19.7c4.6-1.3,9.4,1.4,10.7,6l29,103.5C-531.7,563.2-534.4,568-539,569.3z"/>
						<path fill="#9E9E9F" d="M-569.9,518.6c-4.2-8.5-19.3-17.7-25.4-21.2c-1.5-0.8-3.3-0.3-4.1,1.2c-3.4,6.2-11.5,21.8-10.7,31.2
							c0.1,1.8,0.7,3.6,1.9,5.4c2.3,3.3,6.4,5.1,10.4,4.4c2.3-0.4,4.3-1.5,5.8-3.1c0.3-0.3,0.7-0.1,0.7,0.3l-0.6,7.4
							c-0.1,0.9,0.8,1.6,1.6,1.4l5.8-1.6l5.8-1.6c0.9-0.2,1.2-1.3,0.7-2l-4.4-6c-0.2-0.3,0.1-0.7,0.4-0.6c2.2,0.6,4.6,0.4,7-0.6
							c4.3-1.9,6.8-6.6,6.1-11.2C-569,520.6-569.3,519.5-569.9,518.6z"/>
						<path fill="#9E9E9F" d="M-569.9,517.1c-4.2-8.5-19.3-17.7-25.4-21.2c-1.5-0.8-3.3-0.3-4.1,1.2c-3.4,6.2-11.5,21.8-10.7,31.2
							c0.1,1.8,0.7,3.6,1.9,5.4c2.3,3.3,6.4,5.1,10.4,4.4c2.3-0.4,4.3-1.5,5.8-3.1c0.3-0.3,0.7-0.1,0.7,0.3l-0.6,7.4
							c-0.1,0.9,0.8,1.6,1.6,1.4l5.8-1.6l5.8-1.6c0.9-0.2,1.2-1.3,0.7-2l-4.4-6c-0.2-0.3,0.1-0.7,0.4-0.6c2.2,0.6,4.6,0.4,7-0.6
							c4.3-1.9,6.8-6.6,6.1-11.2C-569,519.2-569.3,518.1-569.9,517.1z"/>
						<path fill="#9E9E9F" d="M-621.9,494.3c-0.5,0.1-1,0.1-1.5-0.1c-0.5-0.2-0.9-0.5-1.1-1l-1.7-3c-0.1-0.1-0.2-0.2-0.4-0.1
							l-6.2,1.7c-0.2,0-0.2,0.1-0.2,0.3l0.1,3.5c0,0.5-0.2,1-0.5,1.4c-0.3,0.4-0.7,0.7-1.2,0.9l-2,0.6c-0.4,0.1-0.8,0-1.2-0.2
							c-0.2-0.2-0.4-0.4-0.5-0.7c0-0.1,0-0.2,0-0.4l0.6-20.8c0-0.5,0.2-1,0.5-1.4c0.3-0.4,0.8-0.7,1.3-0.9l3-0.8
							c0.5-0.1,1-0.1,1.5,0.1c0.5,0.2,0.9,0.5,1.2,1l11.3,17.4c0.1,0.1,0.1,0.2,0.2,0.4c0.1,0.3,0.1,0.5-0.1,0.8
							c-0.2,0.4-0.4,0.7-0.9,0.8L-621.9,494.3z M-633.2,487.2c0,0.1,0,0.1,0.1,0.2c0.1,0,0.1,0,0.2,0l4.1-1.2c0.1,0,0.1-0.1,0.1-0.1
							c0-0.1,0-0.1,0-0.2l-0.9-1.6c-0.4-0.7-1-1.9-1.9-3.4c-0.9-1.5-1.5-2.6-1.8-3.3c0,0-0.1,0-0.1,0c0,0-0.1,0,0,0.1
							c0.2,3.6,0.3,6.1,0.3,7.6L-633.2,487.2z"/>
						<path fill="#9E9E9F" d="M-621.9,492.9c-0.5,0.1-1,0.1-1.5-0.1c-0.5-0.2-0.9-0.5-1.1-1l-1.7-3c-0.1-0.1-0.2-0.2-0.4-0.1
							l-6.2,1.7c-0.2,0-0.2,0.1-0.2,0.3l0.1,3.5c0,0.5-0.2,1-0.5,1.4c-0.3,0.4-0.7,0.7-1.2,0.9l-2,0.6c-0.4,0.1-0.8,0-1.2-0.2
							c-0.2-0.2-0.4-0.4-0.5-0.7c0-0.1,0-0.2,0-0.4l0.6-20.8c0-0.5,0.2-1,0.5-1.4c0.3-0.4,0.8-0.7,1.3-0.9l3-0.8
							c0.5-0.1,1-0.1,1.5,0.1c0.5,0.2,0.9,0.5,1.2,1l11.3,17.4c0.1,0.1,0.1,0.2,0.2,0.4c0.1,0.3,0.1,0.5-0.1,0.8
							c-0.2,0.4-0.4,0.7-0.9,0.8L-621.9,492.9z M-633.2,485.7c0,0.1,0,0.1,0.1,0.2c0.1,0,0.1,0,0.2,0l4.1-1.2c0.1,0,0.1-0.1,0.1-0.1
							c0-0.1,0-0.1,0-0.2l-0.9-1.6c-0.4-0.7-1-1.9-1.9-3.4c-0.9-1.5-1.5-2.6-1.8-3.3c0,0-0.1,0-0.1,0c0,0-0.1,0,0,0.1
							c0.2,3.6,0.3,6.1,0.3,7.6L-633.2,485.7z"/>
						<path fill="#9E9E9F" d="M-560.1,546.7c0.5-0.1,1-0.1,1.5,0.1c0.5,0.2,0.9,0.5,1.1,1l1.7,3c0.1,0.1,0.2,0.2,0.4,0.1l6.2-1.7
							c0.2,0,0.2-0.1,0.2-0.3l-0.1-3.5c0-0.5,0.2-1,0.5-1.4c0.3-0.4,0.7-0.7,1.2-0.9l2-0.6c0.4-0.1,0.8,0,1.2,0.2
							c0.2,0.2,0.4,0.4,0.5,0.7c0,0.1,0,0.2,0,0.4l-0.6,20.8c0,0.5-0.2,1-0.5,1.4c-0.3,0.4-0.8,0.7-1.3,0.9l-3,0.8
							c-0.5,0.1-1,0.1-1.5-0.1c-0.5-0.2-0.9-0.5-1.2-1l-11.3-17.4c-0.1-0.1-0.1-0.2-0.2-0.4c-0.1-0.3-0.1-0.5,0.1-0.8
							c0.2-0.4,0.4-0.7,0.9-0.8L-560.1,546.7z M-548.8,553.8c0-0.1,0-0.1-0.1-0.2c-0.1,0-0.1,0-0.2,0l-4.1,1.2
							c-0.1,0-0.1,0.1-0.1,0.1c0,0.1,0,0.1,0,0.2l0.9,1.6c0.4,0.7,1,1.9,1.9,3.4c0.9,1.5,1.5,2.6,1.8,3.3c0,0,0.1,0,0.1,0
							c0,0,0.1,0,0-0.1c-0.2-3.6-0.3-6.1-0.3-7.6L-548.8,553.8z"/>
						<path fill="#9E9E9F" d="M-560.1,545.3c0.5-0.1,1-0.1,1.5,0.1c0.5,0.2,0.9,0.5,1.1,1l1.7,3c0.1,0.1,0.2,0.2,0.4,0.1l6.2-1.7
							c0.2,0,0.2-0.1,0.2-0.3l-0.1-3.5c0-0.5,0.2-1,0.5-1.4c0.3-0.4,0.7-0.7,1.2-0.9l2-0.6c0.4-0.1,0.8,0,1.2,0.2
							c0.2,0.2,0.4,0.4,0.5,0.7c0,0.1,0,0.2,0,0.4l-0.6,20.8c0,0.5-0.2,1-0.5,1.4c-0.3,0.4-0.8,0.7-1.3,0.9l-3,0.8
							c-0.5,0.1-1,0.1-1.5-0.1c-0.5-0.2-0.9-0.5-1.2-1l-11.3-17.4c-0.1-0.1-0.1-0.2-0.2-0.4c-0.1-0.3-0.1-0.5,0.1-0.8
							c0.2-0.4,0.4-0.7,0.9-0.8L-560.1,545.3z M-548.8,552.4c0-0.1,0-0.1-0.1-0.2c-0.1,0-0.1,0-0.2,0l-4.1,1.2
							c-0.1,0-0.1,0.1-0.1,0.1c0,0.1,0,0.1,0,0.2l0.9,1.6c0.4,0.7,1,1.9,1.9,3.4c0.9,1.5,1.5,2.6,1.8,3.3c0,0,0.1,0,0.1,0
							c0,0,0.1,0,0-0.1c-0.2-3.6-0.3-6.1-0.3-7.6L-548.8,552.4z"/>
					</g>
					<g>
						<path id="XMLID_26_" fill="#DBDCDC" d="M-540.5,567.9l-70.2,19.7c-4.6,1.3-9.4-1.4-10.7-6l-29-103.5c-1.3-4.6,1.4-9.4,6-10.7
							l70.2-19.7c4.6-1.3,9.4,1.4,10.7,6l29,103.5C-533.2,561.8-535.9,566.6-540.5,567.9z"/>
						<g id="XMLID_25_">
							<g>
								<path fill="#717071" d="M-571.3,517.1c-4.2-8.5-19.3-17.7-25.4-21.2c-1.5-0.8-3.3-0.3-4.1,1.2c-3.4,6.2-11.5,21.8-10.7,31.2
									c0.1,1.8,0.7,3.6,1.9,5.4c2.3,3.3,6.4,5.1,10.4,4.4c2.3-0.4,4.3-1.5,5.8-3.1c0.3-0.3,0.7-0.1,0.7,0.3l-0.6,7.4
									c-0.1,0.9,0.8,1.6,1.6,1.4l5.8-1.6l5.8-1.6c0.9-0.2,1.2-1.3,0.7-2l-4.4-6c-0.2-0.3,0.1-0.7,0.4-0.6c2.2,0.6,4.6,0.4,7-0.6
									c4.3-1.9,6.8-6.6,6.1-11.2C-570.4,519.2-570.8,518.1-571.3,517.1z"/>
							</g>
							<g>
								<path fill="#3E3A39" d="M-571.3,515.7c-4.2-8.5-19.3-17.7-25.4-21.2c-1.5-0.8-3.3-0.3-4.1,1.2c-3.4,6.2-11.5,21.8-10.7,31.2
									c0.1,1.8,0.7,3.6,1.9,5.4c2.3,3.3,6.4,5.1,10.4,4.4c2.3-0.4,4.3-1.5,5.8-3.1c0.3-0.3,0.7-0.1,0.7,0.3l-0.6,7.4
									c-0.1,0.9,0.8,1.6,1.6,1.4l5.8-1.6l5.8-1.6c0.9-0.2,1.2-1.3,0.7-2l-4.4-6c-0.2-0.3,0.1-0.7,0.4-0.6c2.2,0.6,4.6,0.4,7-0.6
									c4.3-1.9,6.8-6.6,6.1-11.2C-570.4,517.8-570.8,516.7-571.3,515.7z"/>
							</g>
						</g>
						<g id="XMLID_12_">
							<g>
								<path fill="#717071" d="M-623.3,492.9c-0.5,0.1-1,0.1-1.5-0.1c-0.5-0.2-0.9-0.5-1.1-1l-1.7-3c-0.1-0.1-0.2-0.2-0.4-0.1
									l-6.2,1.7c-0.2,0-0.2,0.1-0.2,0.3l0.1,3.5c0,0.5-0.2,1-0.5,1.4c-0.3,0.4-0.7,0.7-1.2,0.9l-2,0.6c-0.4,0.1-0.8,0-1.2-0.2
									c-0.2-0.2-0.4-0.4-0.5-0.7c0-0.1,0-0.2,0-0.4l0.6-20.8c0-0.5,0.2-1,0.5-1.4c0.3-0.4,0.8-0.7,1.3-0.9l3-0.8
									c0.5-0.1,1-0.1,1.5,0.1c0.5,0.2,0.9,0.5,1.2,1l11.3,17.4c0.1,0.1,0.1,0.2,0.2,0.4c0.1,0.3,0.1,0.5-0.1,0.8
									c-0.2,0.4-0.4,0.7-0.9,0.8L-623.3,492.9z M-634.6,485.7c0,0.1,0,0.1,0.1,0.2c0.1,0,0.1,0,0.2,0l4.1-1.2
									c0.1,0,0.1-0.1,0.1-0.1c0-0.1,0-0.1,0-0.2l-0.9-1.6c-0.4-0.7-1-1.9-1.9-3.4c-0.9-1.5-1.5-2.6-1.8-3.3c0,0-0.1,0-0.1,0
									c0,0-0.1,0,0,0.1c0.2,3.6,0.3,6.1,0.3,7.6L-634.6,485.7z"/>
							</g>
							<g>
								<path fill="#3E3A39" d="M-623.3,491.4c-0.5,0.1-1,0.1-1.5-0.1c-0.5-0.2-0.9-0.5-1.1-1l-1.7-3c-0.1-0.1-0.2-0.2-0.4-0.1
									l-6.2,1.7c-0.2,0-0.2,0.1-0.2,0.3l0.1,3.5c0,0.5-0.2,1-0.5,1.4c-0.3,0.4-0.7,0.7-1.2,0.9l-2,0.6c-0.4,0.1-0.8,0-1.2-0.2
									c-0.2-0.2-0.4-0.4-0.5-0.7c0-0.1,0-0.2,0-0.4l0.6-20.8c0-0.5,0.2-1,0.5-1.4c0.3-0.4,0.8-0.7,1.3-0.9l3-0.8
									c0.5-0.1,1-0.1,1.5,0.1c0.5,0.2,0.9,0.5,1.2,1l11.3,17.4c0.1,0.1,0.1,0.2,0.2,0.4c0.1,0.3,0.1,0.5-0.1,0.8
									c-0.2,0.4-0.4,0.7-0.9,0.8L-623.3,491.4z M-634.6,484.3c0,0.1,0,0.1,0.1,0.2c0.1,0,0.1,0,0.2,0l4.1-1.2
									c0.1,0,0.1-0.1,0.1-0.1c0-0.1,0-0.1,0-0.2l-0.9-1.6c-0.4-0.7-1-1.9-1.9-3.4c-0.9-1.5-1.5-2.6-1.8-3.3c0,0-0.1,0-0.1,0
									c0,0-0.1,0,0,0.1c0.2,3.6,0.3,6.1,0.3,7.6L-634.6,484.3z"/>
							</g>
						</g>
						<g id="XMLID_5_">
							<g>
								<path fill="#717071" d="M-561.5,545.3c0.5-0.1,1-0.1,1.5,0.1c0.5,0.2,0.9,0.5,1.1,1l1.7,3c0.1,0.1,0.2,0.2,0.4,0.1l6.2-1.7
									c0.2,0,0.2-0.1,0.2-0.3l-0.1-3.5c0-0.5,0.2-1,0.5-1.4c0.3-0.4,0.7-0.7,1.2-0.9l2-0.6c0.4-0.1,0.8,0,1.2,0.2
									c0.2,0.2,0.4,0.4,0.5,0.7c0,0.1,0,0.2,0,0.4l-0.6,20.8c0,0.5-0.2,1-0.5,1.4c-0.3,0.4-0.8,0.7-1.3,0.9l-3,0.8
									c-0.5,0.1-1,0.1-1.5-0.1c-0.5-0.2-0.9-0.5-1.2-1l-11.3-17.4c-0.1-0.1-0.1-0.2-0.2-0.4c-0.1-0.3-0.1-0.5,0.1-0.8
									c0.2-0.4,0.4-0.7,0.9-0.8L-561.5,545.3z M-550.3,552.4c0-0.1,0-0.1-0.1-0.2c-0.1,0-0.1,0-0.2,0l-4.1,1.2
									c-0.1,0-0.1,0.1-0.1,0.1c0,0.1,0,0.1,0,0.2l0.9,1.6c0.4,0.7,1,1.9,1.9,3.4c0.9,1.5,1.5,2.6,1.8,3.3c0,0,0.1,0,0.1,0
									c0,0,0.1,0,0-0.1c-0.2-3.6-0.3-6.1-0.3-7.6L-550.3,552.4z"/>
							</g>
							<g>
								<path fill="#3E3A39" d="M-561.5,543.9c0.5-0.1,1-0.1,1.5,0.1c0.5,0.2,0.9,0.5,1.1,1l1.7,3c0.1,0.1,0.2,0.2,0.4,0.1l6.2-1.7
									c0.2,0,0.2-0.1,0.2-0.3l-0.1-3.5c0-0.5,0.2-1,0.5-1.4c0.3-0.4,0.7-0.7,1.2-0.9l2-0.6c0.4-0.1,0.8,0,1.2,0.2
									c0.2,0.2,0.4,0.4,0.5,0.7c0,0.1,0,0.2,0,0.4l-0.6,20.8c0,0.5-0.2,1-0.5,1.4c-0.3,0.4-0.8,0.7-1.3,0.9l-3,0.8
									c-0.5,0.1-1,0.1-1.5-0.1c-0.5-0.2-0.9-0.5-1.2-1l-11.3-17.4c-0.1-0.1-0.1-0.2-0.2-0.4c-0.1-0.3-0.1-0.5,0.1-0.8
									c0.2-0.4,0.4-0.7,0.9-0.8L-561.5,543.9z M-550.3,551c0-0.1,0-0.1-0.1-0.2c-0.1,0-0.1,0-0.2,0l-4.1,1.2
									c-0.1,0-0.1,0.1-0.1,0.1c0,0.1,0,0.1,0,0.2l0.9,1.6c0.4,0.7,1,1.9,1.9,3.4c0.9,1.5,1.5,2.6,1.8,3.3c0,0,0.1,0,0.1,0
									c0,0,0.1,0,0-0.1c-0.2-3.6-0.3-6.1-0.3-7.6L-550.3,551z"/>
							</g>
						</g>
					</g>
				</g>
			</g>
		</g>
	</g>
</g>
</svg>
