<?xml version="1.0" encoding="utf-8"?>
<!-- Generator: Adobe Illustrator 19.0.0, SVG Export Plug-In . SVG Version: 6.00 Build 0)  -->
<svg version="1.2" baseProfile="tiny" id="圖層_1"
	 xmlns="http://www.w3.org/2000/svg" xmlns:xlink="http://www.w3.org/1999/xlink" x="0px" y="0px" viewBox="-732 310 453.5 462"
	 xml:space="preserve">
<g id="XMLID_204_">
	<g id="XMLID_284_">
		<g id="XMLID_290_">
			<g id="XMLID_292_">
				<g>
					<path fill="#8C6239" d="M-363.5,772H-647c-47,0-85-38.1-85-85V403.5c0-47,38.1-85,85-85h283.5c47,0,85,38.1,85,85V687
						C-278.5,734-316.5,772-363.5,772z"/>
				</g>
				<g>
					<path fill="#BB7434" d="M-363.5,763.5H-647c-47,0-85-38.1-85-85V395c0-47,38.1-85,85-85h283.5c47,0,85,38.1,85,85v283.5
						C-278.5,725.5-316.5,763.5-363.5,763.5z"/>
				</g>
			</g>
			<path id="XMLID_291_" fill="#623F1E" d="M-382.2,729.4h-246.1c-38.4,0-69.6-31.2-69.6-69.6V413.7c0-38.4,31.2-69.6,69.6-69.6
				h246.1c38.4,0,69.6,31.2,69.6,69.6v246.1C-312.6,698.3-343.7,729.4-382.2,729.4z"/>
		</g>
	</g>
	<g id="XMLID_207_">
		<g id="XMLID_263_">
			<g>
				<path fill="#DBDCDC" d="M-508.1,687.6c-3.2,0-6.5-0.2-9.8-0.6c-22.7-2.6-43.1-13.9-57.4-31.8c-14.3-17.9-20.7-40.3-18.1-63
					c3.5-31.1,23.5-57.5,52.4-69.5l0.7-6c0.2-1.4,0.1-2.8-0.3-4.2l-5.3-19.2c-0.6-2.2-0.8-4.5-0.5-6.8l9.8-86
					c0.6-5.3,5.1-9.3,10.4-9.3c0.4,0,0.8,0,1.2,0.1l80.5,9.1c5.8,0.7,9.9,5.9,9.3,11.6l-9.8,86c-0.3,2.3-1,4.5-2.1,6.6l-9.5,17.5
					c-0.7,1.3-1.1,2.6-1.3,4l-0.7,6c25.4,18.1,39,48.4,35.5,79.5C-428,654.9-464.6,687.6-508.1,687.6
					C-508.1,687.6-508.1,687.6-508.1,687.6z"/>
				<path fill="#DBDCDC" d="M-526.3,394.6c0.3,0,0.5,0,0.8,0l24.5,2.8l31.5,3.6l24.5,2.8c3.9,0.4,6.6,3.9,6.2,7.8l-9.8,86
					c-0.2,1.9-0.8,3.6-1.7,5.3l-9.5,17.5c-0.9,1.6-1.4,3.4-1.7,5.3l-0.9,8.1c24.5,16.6,39.3,45.9,35.7,77.4
					c-4.8,42-40.3,72.9-81.6,72.9c-3.1,0-6.2-0.2-9.4-0.5c-45.1-5.1-77.5-45.8-72.4-90.9c3.6-31.5,24.5-56.8,52.1-67.4l0.9-8.1
					c0.2-1.9,0.1-3.7-0.4-5.5l-5.3-19.2c-0.5-1.8-0.6-3.7-0.4-5.5l9.8-86C-532.8,397.3-529.8,394.6-526.3,394.6 M-526.3,387.6
					c-7.1,0-13.1,5.3-13.9,12.4l-9.8,86c-0.3,2.8-0.1,5.5,0.6,8.2l5.3,19.2c0.3,0.9,0.3,1.9,0.2,2.9l-0.5,4
					c-29,12.8-49,39.8-52.6,71.5c-5.6,48.9,29.7,93.1,78.6,98.7c3.4,0.4,6.8,0.6,10.2,0.6c45.3,0,83.4-34,88.5-79.1
					c3.6-31.7-9.8-62.5-35.2-81.5l0.5-4c0.1-1,0.4-1.9,0.9-2.7l9.5-17.5c1.3-2.4,2.1-5.1,2.5-7.8l9.8-86c0.9-7.7-4.7-14.6-12.3-15.5
					l-24.5-2.8l-31.5-3.6l-24.5-2.8C-525.2,387.6-525.7,387.6-526.3,387.6L-526.3,387.6z"/>
			</g>
			<g>
				<path fill="#F7F7F7" d="M-508.1,681.9c-3.2,0-6.5-0.2-9.8-0.6c-22.7-2.6-43.1-13.9-57.4-31.8c-14.3-17.9-20.7-40.3-18.1-63
					c3.5-31.1,23.5-57.5,52.4-69.5l0.7-6c0.2-1.4,0.1-2.8-0.3-4.2l-5.3-19.2c-0.6-2.2-0.8-4.5-0.5-6.8l9.8-86
					c0.6-5.3,5.1-9.3,10.4-9.3c0.4,0,0.8,0,1.2,0.1l80.5,9.1c5.8,0.7,9.9,5.9,9.3,11.6l-9.8,86c-0.3,2.3-1,4.5-2.1,6.6l-9.5,17.5
					c-0.7,1.3-1.1,2.6-1.3,4l-0.7,6c25.4,18.1,39,48.4,35.5,79.5C-428,649.3-464.6,681.9-508.1,681.9
					C-508.1,681.9-508.1,681.9-508.1,681.9z"/>
				<path fill="#F7F7F7" d="M-526.3,388.9c0.3,0,0.5,0,0.8,0l24.5,2.8l31.5,3.6l24.5,2.8c3.9,0.4,6.6,3.9,6.2,7.8l-9.8,86
					c-0.2,1.9-0.8,3.6-1.7,5.3l-9.5,17.5c-0.9,1.6-1.4,3.4-1.7,5.3l-0.9,8.1c24.5,16.6,39.3,45.9,35.7,77.4
					c-4.8,42-40.3,72.9-81.6,72.9c-3.1,0-6.2-0.2-9.4-0.5c-45.1-5.1-77.5-45.8-72.4-90.9c3.6-31.5,24.5-56.8,52.1-67.4l0.9-8.1
					c0.2-1.9,0.1-3.7-0.4-5.5l-5.3-19.2c-0.5-1.8-0.6-3.7-0.4-5.5l9.8-86C-532.8,391.6-529.8,388.9-526.3,388.9 M-526.3,381.9
					c-7.1,0-13.1,5.3-13.9,12.4l-9.8,86c-0.3,2.8-0.1,5.5,0.6,8.2l5.3,19.2c0.3,0.9,0.3,1.9,0.2,2.9l-0.5,4
					c-29,12.8-49,39.8-52.6,71.5c-5.6,48.9,29.7,93.1,78.6,98.7c3.4,0.4,6.8,0.6,10.2,0.6c45.3,0,83.4-34,88.5-79.1
					c3.6-31.7-9.8-62.5-35.2-81.5l0.5-4c0.1-1,0.4-1.9,0.9-2.7l9.5-17.5c1.3-2.4,2.1-5.1,2.5-7.8l9.8-86c0.9-7.7-4.7-14.6-12.3-15.5
					l-24.5-2.8l-31.5-3.6l-24.5-2.8C-525.2,382-525.7,381.9-526.3,381.9L-526.3,381.9z"/>
			</g>
		</g>
		<g id="XMLID_213_">
			<g id="XMLID_243_">
				<g id="XMLID_253_">
					<g>
						<path fill="#1E7F93" d="M-533.2,398l-9.8,86c-0.2,1.9-0.1,3.7,0.4,5.5l5.3,19.2c0.5,1.8,0.6,3.7,0.4,5.5l-2.8,24.9l22,2.5
							l16.7-147.1l-24.5-2.8C-529.3,391.4-532.8,394.2-533.2,398z"/>
					</g>
					<g>
						<path fill="#17A2C7" d="M-533.2,395.2l-9.8,86c-0.2,1.9-0.1,3.7,0.4,5.5l5.3,19.2c0.5,1.8,0.6,3.7,0.4,5.5l-2.8,24.9l22,2.5
							l16.7-147.1l-24.5-2.8C-529.3,388.6-532.8,391.3-533.2,395.2z"/>
					</g>
				</g>
				
					<rect id="XMLID_252_" x="-567.6" y="451.2" transform="matrix(0.1129 -0.9936 0.9936 0.1129 -901.9618 -76.0317)" fill="#DBDCDC" width="148" height="31.7"/>
				<g id="XMLID_244_">
					<g>
						<path fill="#A44B48" d="M-469.5,398.2l-16.7,147.1l22,2.5l2.8-24.9c0.2-1.9,0.8-3.6,1.7-5.3l9.5-17.5c0.9-1.6,1.4-3.4,1.7-5.3
							l9.8-86c0.4-3.9-2.3-7.3-6.2-7.8L-469.5,398.2z"/>
					</g>
					<g>
						<path fill="#D15C5A" d="M-469.5,395.4l-16.7,147.1l22,2.5l2.8-24.9c0.2-1.9,0.8-3.6,1.7-5.3l9.5-17.5c0.9-1.6,1.4-3.4,1.7-5.3
							l9.8-86c0.4-3.9-2.3-7.3-6.2-7.8L-469.5,395.4z"/>
					</g>
				</g>
			</g>
			<g id="XMLID_237_">
				<g>
					<circle fill="#E8BA00" cx="-508.2" cy="599.1" r="82.2"/>
				</g>
				<g>
					<circle fill="#FFCD02" cx="-508.2" cy="596.2" r="82.2"/>
				</g>
			</g>
			<g id="XMLID_226_">
				<g>
					<circle fill="#D1AA02" cx="-508.2" cy="593.4" r="64"/>
				</g>
				<g>
					<circle fill="#E8BA00" cx="-508.2" cy="596.2" r="64"/>
				</g>
			</g>
			<g id="XMLID_214_">
				<g>
					<path fill="#D1AA02" d="M-500.1,559.4l4.8,23.6c0.3,1.6,1.7,2.8,3.3,3l23.9,2.7c3.7,0.4,4.6,5.3,1.4,7.1l-20.9,11.8
						c-1.4,0.8-2.2,2.5-1.9,4.1l4.8,23.6c0.7,3.6-3.6,6-6.3,3.6l-17.7-16.2c-1.2-1.1-3-1.3-4.4-0.5l-20.9,11.8
						c-3.2,1.8-6.9-1.5-5.3-4.9l10-21.9c0.7-1.5,0.3-3.3-0.9-4.4l-17.7-16.2c-2.7-2.5-0.7-7,3-6.6l23.9,2.7c1.6,0.2,3.2-0.7,3.9-2.2
						l10-21.9C-505.7,555.3-500.8,555.8-500.1,559.4z"/>
				</g>
				<g>
					<path fill="#FFCD02" d="M-500.1,556.6l4.8,23.6c0.3,1.6,1.7,2.8,3.3,3l23.9,2.7c3.7,0.4,4.6,5.3,1.4,7.1l-20.9,11.8
						c-1.4,0.8-2.2,2.5-1.9,4.1l4.8,23.6c0.7,3.6-3.6,6-6.3,3.6l-17.7-16.2c-1.2-1.1-3-1.3-4.4-0.5l-20.9,11.8
						c-3.2,1.8-6.9-1.5-5.3-4.9l10-21.9c0.7-1.5,0.3-3.3-0.9-4.4l-17.7-16.2c-2.7-2.5-0.7-7,3-6.6l23.9,2.7c1.6,0.2,3.2-0.7,3.9-2.2
						l10-21.9C-505.7,552.4-500.8,553-500.1,556.6z"/>
				</g>
			</g>
		</g>
	</g>
</g>
</svg>
