<?xml version="1.0" encoding="utf-8"?>
<!-- Generator: Adobe Illustrator 19.0.0, SVG Export Plug-In . SVG Version: 6.00 Build 0)  -->
<svg version="1.2" baseProfile="tiny" id="圖層_1"
	 xmlns="http://www.w3.org/2000/svg" xmlns:xlink="http://www.w3.org/1999/xlink" x="0px" y="0px" viewBox="-732 310 453.5 462"
	 xml:space="preserve">
<g id="XMLID_166_">
	<g id="XMLID_760_">
		<g id="XMLID_761_">
			<g id="XMLID_763_">
				<g>
					<path fill="#8C6239" d="M-363.5,772H-647c-47,0-85-38.1-85-85V403.5c0-47,38.1-85,85-85h283.5c47,0,85,38.1,85,85V687
						C-278.5,734-316.6,772-363.5,772z"/>
				</g>
				<g>
					<path fill="#BB7434" d="M-363.5,763.5H-647c-47,0-85-38.1-85-85V395c0-47,38.1-85,85-85h283.5c47,0,85,38.1,85,85v283.5
						C-278.5,725.5-316.6,763.5-363.5,763.5z"/>
				</g>
			</g>
			<path id="XMLID_762_" fill="#623F1E" d="M-382.2,729.4h-246.1c-38.4,0-69.6-31.2-69.6-69.6V413.7c0-38.4,31.2-69.6,69.6-69.6
				h246.1c38.4,0,69.6,31.2,69.6,69.6v246.1C-312.6,698.3-343.8,729.4-382.2,729.4z"/>
		</g>
	</g>
	<g id="XMLID_167_">
		<g id="XMLID_282_">
			<g>
				<path fill="#DBDCDC" d="M-441.9,593.5c-0.9,0-1.8-0.4-2.4-1l-179.5-173c-0.7-0.7-1.1-1.6-1.1-2.6c0-1,0.5-1.9,1.2-2.6
					c0.8-0.7,1.8-1,2.9-1c0.5,0,1,0.1,1.5,0.3l36.9,12.6c1,0.3,1.9,0.9,2.6,1.5l148.8,132.6c1.4,1.3,2,3.2,1.4,5l-8.7,25.6
					c-0.2,0.7-0.6,1.3-1.2,1.7C-440.2,593.1-441,593.5-441.9,593.5C-441.9,593.5-441.9,593.5-441.9,593.5z"/>
				<path fill="#DBDCDC" d="M-620.9,416.8c0.1,0,0.2,0,0.4,0.1l36.9,12.6c0.5,0.2,1,0.5,1.4,0.8l148.8,132.6
					c0.4,0.3,0.5,0.8,0.4,1.2l-8.7,25.6c0,0.1-0.2,0.2-0.2,0.3l-179.5-173C-621.3,416.8-621.1,416.8-620.9,416.8 M-620.9,409.8
					c-1.9,0-3.7,0.7-5.1,1.9c-1.5,1.3-2.4,3.1-2.5,5.1c-0.1,2,0.7,3.9,2.1,5.3l179.5,173c1.3,1.3,3,2,4.9,2c0.1,0,0.1,0,0.2,0
					c1.6,0,3.2-0.7,4.4-1.7c1.1-0.9,1.8-2,2.3-3.3l8.7-25.6c1-3.1,0.1-6.5-2.4-8.7l-148.8-132.6c-1.1-1-2.4-1.7-3.8-2.2l-36.9-12.6
					C-619.1,409.9-620,409.8-620.9,409.8L-620.9,409.8z"/>
				<path fill="#DBDCDC" d="M-468,604c-1.3,0-2.5-0.5-3.4-1.5l-140.2-146.3c-0.7-0.8-1.3-1.7-1.6-2.7L-625,419
					c-0.6-1.7-0.1-3.5,1.3-4.7c0.7-0.6,1.5-0.8,2.3-0.8c0.9,0,1.8,0.3,2.4,1l179.5,173c1.3,1.3,1.4,3.3,0.3,4.7
					c-0.5,0.6-1,1.1-1.7,1.3l-25.5,10.2C-466.9,603.9-467.4,604-468,604z"/>
				<path fill="#DBDCDC" d="M-621.5,417l179.5,173c-0.1,0.1-0.1,0.2-0.2,0.3l-25.5,10.2c-0.1,0-0.2,0.1-0.4,0.1
					c-0.3,0-0.7-0.1-0.9-0.4l-140.2-146.3c-0.4-0.4-0.7-0.9-0.8-1.4l-11.7-34.5C-621.8,417.5-621.7,417.2-621.5,417 M-621.5,410
					c-1.6,0-3.2,0.5-4.5,1.6c-2.5,2.1-3.4,5.4-2.3,8.5l11.7,34.5c0.5,1.5,1.3,2.8,2.4,4L-474,604.9c1.6,1.6,3.7,2.6,6,2.6
					c1,0,2-0.2,2.9-0.6l25.5-10.2c1.3-0.5,2.3-1.3,3.2-2.4c2.2-2.8,2-6.8-0.6-9.4l-179.5-173C-618,410.6-619.7,410-621.5,410
					L-621.5,410z"/>
				<path fill="#DBDCDC" d="M-396.6,657.2c-0.9,0-1.8-0.4-2.4-1l-49.2-47.9c-1.4-1.3-1.4-3.5-0.1-4.9l19.1-20.3
					c0.6-0.7,1.5-1.1,2.5-1.1c0,0,0.1,0,0.1,0c0.9,0,1.8,0.3,2.4,1l49.1,46.8c1.4,1.3,1.5,3.4,0.2,4.8L-394,656
					c-0.6,0.7-1.5,1.1-2.5,1.2C-396.5,657.2-396.5,657.2-396.6,657.2z"/>
				<path fill="#DBDCDC" d="M-426.7,585.4l49.1,46.8l-18.9,21.5l-49.2-47.9L-426.7,585.4 M-426.7,578.4c-0.1,0-0.1,0-0.2,0
					c-1.9,0.1-3.6,0.8-4.9,2.2l-19.1,20.3c-2.6,2.8-2.5,7.1,0.2,9.8l49.2,47.9c1.3,1.3,3.1,2,4.9,2c0.1,0,0.2,0,0.3,0
					c1.9-0.1,3.7-0.9,5-2.4l18.9-21.5c2.5-2.8,2.3-7.1-0.4-9.7l-49.1-46.8C-423.2,579.1-424.9,578.4-426.7,578.4L-426.7,578.4z"/>
				<path fill="#DBDCDC" d="M-475.2,635.9c-3.6,0-7-1.4-9.6-4c-5.4-5.4-5.4-14.3-0.1-19.8l61.9-64.8c2.5-2.6,5.8-4,9.5-4
					c3.4,0,6.7,1.3,9.3,3.6c2.7,2.5,4.2,5.8,4.3,9.4c0.1,3.5-1.1,6.8-3.5,9.3l-61.8,65.8C-467.8,634.3-471.4,635.9-475.2,635.9z"/>
				<path fill="#DBDCDC" d="M-413.5,546.8c2.5,0,4.9,0.9,6.9,2.7h0c4,3.7,4.3,9.9,0.7,13.8l-61.8,65.8c-2,2.2-4.8,3.3-7.5,3.3
					c-2.6,0-5.1-1-7.1-3h0c-4-4-4-10.8-0.1-14.9l61.9-64.8C-418.6,547.8-416.1,546.8-413.5,546.8 M-413.5,539.8
					C-413.5,539.8-413.5,539.8-413.5,539.8c-4.5,0-8.9,1.9-12,5.1l-61.9,64.8c-6.6,6.9-6.5,18,0.2,24.7c3.2,3.2,7.5,5,12.1,5
					c4.7,0,9.3-2,12.6-5.5l61.8-65.8c3-3.2,4.6-7.4,4.4-11.8c-0.2-4.5-2.1-8.7-5.4-11.9C-405.1,541.4-409.2,539.8-413.5,539.8
					L-413.5,539.8z"/>
				<path fill="#DBDCDC" d="M-391.2,668.6c-2.5,0-4.9-1-6.7-2.8l-0.6-0.6c-3.8-3.7-4.1-10-0.6-13.9l18.9-21.4c1.7-2,4.2-3.1,6.9-3.1
					c2.5,0,4.8,1,6.6,2.7l0.6,0.6c3.8,3.6,4.2,9.8,0.8,13.7l-18.9,21.7C-386,667.4-388.5,668.6-391.2,668.6z"/>
				<path fill="#DBDCDC" d="M-373.4,630.3c1.5,0,3,0.6,4.2,1.7l0.6,0.6c2.5,2.4,2.8,6.3,0.6,8.8l-18.9,21.7c-1.1,1.3-2.7,2-4.3,2
					c-1.5,0-3.1-0.6-4.3-1.8l-0.6-0.6c-2.5-2.4-2.7-6.5-0.5-9.1l18.9-21.4C-376.6,630.9-375,630.3-373.4,630.3 M-373.4,623.3
					C-373.4,623.3-373.4,623.3-373.4,623.3c-3.6,0-7.1,1.6-9.5,4.3l-18.9,21.4c-4.7,5.3-4.3,13.7,0.8,18.7l0.6,0.6
					c2.5,2.4,5.7,3.8,9.2,3.8c3.7,0,7.2-1.6,9.6-4.4l18.9-21.7c4.6-5.3,4.1-13.6-1.1-18.5l-0.6-0.6
					C-366.9,624.6-370.1,623.3-373.4,623.3L-373.4,623.3z"/>
				<path fill="#DBDCDC" d="M-413.3,640.9c-0.9,0-1.8-0.4-2.4-1l-6.2-6c-1.4-1.3-1.4-3.5-0.2-4.9l19-20.9c0.6-0.7,1.5-1.1,2.5-1.1
					c0,0,0.1,0,0.1,0c0.9,0,1.8,0.3,2.4,1l6.2,5.9c1.4,1.3,1.5,3.5,0.2,4.9l-19,21.1c-0.6,0.7-1.5,1.1-2.5,1.2
					C-413.2,640.9-413.2,640.9-413.3,640.9z"/>
				<path fill="#DBDCDC" d="M-400.5,610.4l6.2,5.9l-19,21.1l-6.2-6L-400.5,610.4 M-400.5,603.4c-0.1,0-0.2,0-0.3,0
					c-1.9,0.1-3.7,0.9-4.9,2.3l-19,20.9c-2.5,2.8-2.4,7.1,0.3,9.7l6.2,6c1.3,1.3,3.1,2,4.9,2c0.1,0,0.2,0,0.2,0
					c1.9-0.1,3.7-0.9,5-2.3l19-21.1c2.5-2.8,2.4-7.1-0.4-9.7l-6.2-5.9C-396.9,604.1-398.7,603.4-400.5,603.4L-400.5,603.4z"/>
				<path fill="#DBDCDC" d="M-402.9,651c-0.9,0-1.8-0.4-2.4-1l-6.3-6.1c-1.3-1.3-1.4-3.4-0.2-4.8l19-21.2c0.6-0.7,1.5-1.1,2.5-1.2
					c0,0,0.1,0,0.1,0c0.9,0,1.8,0.3,2.4,1l6.2,6c1.4,1.3,1.5,3.4,0.2,4.9l-18.9,21.3c-0.6,0.7-1.5,1.1-2.5,1.2
					C-402.8,651-402.8,651-402.9,651z"/>
				<path fill="#DBDCDC" d="M-390.2,620.3l6.2,6l-18.9,21.3l-6.3-6.1L-390.2,620.3 M-390.2,613.3c-0.1,0-0.2,0-0.3,0
					c-1.9,0.1-3.7,0.9-4.9,2.3l-19,21.2c-2.5,2.8-2.4,7.1,0.3,9.7l6.3,6.1c1.3,1.3,3.1,2,4.9,2c0.1,0,0.2,0,0.3,0
					c1.9-0.1,3.7-0.9,5-2.3l18.9-21.3c2.5-2.8,2.3-7.1-0.4-9.7l-6.2-6C-386.6,614-388.4,613.3-390.2,613.3L-390.2,613.3z"/>
				<path fill="#DBDCDC" d="M-433.7,621c-0.9,0-1.8-0.4-2.4-1l-6.1-5.9c-1.4-1.3-1.4-3.5-0.1-4.9l19.1-20.5c0.6-0.7,1.5-1.1,2.5-1.1
					c0,0,0.1,0,0.1,0c0.9,0,1.8,0.3,2.4,1l6.1,5.8c1.4,1.3,1.5,3.5,0.2,4.9l-19,20.6C-431.8,620.5-432.7,620.9-433.7,621
					C-433.7,621-433.7,621-433.7,621z"/>
				<path fill="#DBDCDC" d="M-420.8,591.1l6.1,5.8l-19,20.6l-6.1-5.9L-420.8,591.1 M-420.8,584.1c-0.1,0-0.1,0-0.2,0
					c-1.9,0.1-3.6,0.9-4.9,2.2l-19.1,20.5c-2.6,2.8-2.5,7.1,0.2,9.8l6.1,5.9c1.3,1.3,3.1,2,4.9,2c0.1,0,0.1,0,0.2,0
					c1.9,0,3.7-0.9,5-2.2l19-20.6c2.6-2.8,2.5-7.2-0.3-9.8l-6.1-5.8C-417.2,584.8-419,584.1-420.8,584.1L-420.8,584.1z"/>
				<path fill="#DBDCDC" d="M-423.6,630.9c-0.9,0-1.8-0.4-2.4-1l-6.1-6c-1.4-1.3-1.4-3.5-0.1-4.9l19-20.7c0.6-0.7,1.5-1.1,2.5-1.1
					c0,0,0.1,0,0.1,0c0.9,0,1.8,0.3,2.4,1l6.1,5.8c1.4,1.3,1.5,3.5,0.2,4.9l-19,20.8c-0.6,0.7-1.5,1.1-2.5,1.1
					C-423.5,630.9-423.5,630.9-423.6,630.9z"/>
				<path fill="#DBDCDC" d="M-410.7,600.7l6.1,5.8l-19,20.8l-6.1-6L-410.7,600.7 M-410.7,593.7c-0.1,0-0.2,0-0.2,0
					c-1.9,0.1-3.7,0.9-4.9,2.3l-19,20.7c-2.6,2.8-2.4,7.1,0.3,9.8l6.1,6c1.3,1.3,3.1,2,4.9,2c0.1,0,0.1,0,0.2,0
					c1.9-0.1,3.7-0.9,5-2.3l19-20.8c2.6-2.8,2.4-7.2-0.3-9.8l-6.1-5.8C-407.1,594.4-408.9,593.7-410.7,593.7L-410.7,593.7z"/>
				<path fill="#DBDCDC" d="M-443.5,599.9c-3,0-5.8-1.1-7.9-3.2c-4.5-4.4-4.7-11.6-0.4-16.1c2.1-2.2,5-3.5,8.1-3.5
					c2.9,0,5.7,1.1,7.8,3.2c4.5,4.3,4.7,11.5,0.5,16.1C-437.4,598.6-440.4,599.9-443.5,599.9z"/>
				<path fill="#DBDCDC" d="M-443.6,580.6c1.9,0,3.9,0.7,5.4,2.2c3.1,3,3.3,8,0.3,11.1c-1.5,1.6-3.6,2.4-5.6,2.4
					c-2,0-3.9-0.7-5.5-2.2c-3.1-3-3.2-8-0.3-11.1C-447.7,581.4-445.6,580.6-443.6,580.6 M-443.6,573.6
					C-443.6,573.6-443.6,573.6-443.6,573.6c-4,0-7.9,1.7-10.7,4.6c-5.6,5.9-5.4,15.3,0.5,21c2.8,2.7,6.5,4.2,10.3,4.2
					c4,0,8-1.7,10.7-4.6c5.6-5.9,5.3-15.3-0.6-21C-436.1,575.1-439.8,573.6-443.6,573.6L-443.6,573.6z"/>
				<path fill="#DBDCDC" d="M-443.5,598.2c-2.5,0-4.9-1-6.8-2.8c-3.9-3.7-4-9.9-0.3-13.8c1.8-1.9,4.3-3,7-3c2.5,0,4.9,1,6.7,2.7
					c3.9,3.7,4,9.9,0.4,13.8C-438.3,597.1-440.8,598.2-443.5,598.2z"/>
				<path fill="#DBDCDC" d="M-443.6,582.2c1.5,0,3.1,0.6,4.3,1.7c2.5,2.4,2.6,6.4,0.3,8.9c-1.2,1.3-2.8,1.9-4.5,1.9
					c-1.6,0-3.1-0.6-4.3-1.8c-2.5-2.4-2.6-6.4-0.2-8.9C-446.8,582.8-445.2,582.2-443.6,582.2 M-443.6,575.2L-443.6,575.2
					c-3.6,0-7.1,1.5-9.5,4.1c-5,5.3-4.8,13.7,0.4,18.7c2.5,2.4,5.8,3.7,9.2,3.7c3.6,0,7.1-1.5,9.6-4.1c5-5.3,4.7-13.7-0.5-18.7
					C-436.9,576.5-440.2,575.2-443.6,575.2L-443.6,575.2z"/>
				<path fill="#DBDCDC" d="M-537.1,605.3c-0.5,0-1-0.1-1.5-0.3l-25.6-9.2c-0.7-0.3-1.3-0.7-1.8-1.3c-1.1-1.4-1-3.4,0.3-4.7
					l181-177.6c0.7-0.7,1.6-1,2.5-1c0.8,0,1.6,0.3,2.3,0.8c1.4,1.1,1.8,3,1.3,4.7l-11.9,34.4c-0.3,1-0.9,1.9-1.6,2.6l-141.4,150.1
					C-534.6,604.8-535.8,605.3-537.1,605.3z"/>
				<path fill="#DBDCDC" d="M-382.3,414.7c0.2,0.2,0.3,0.5,0.2,0.8l-11.9,34.4c-0.2,0.5-0.5,1-0.8,1.4l-141.4,150
					c-0.3,0.3-0.6,0.5-1,0.5c-0.1,0-0.2,0-0.3-0.1l-25.6-9.2c-0.1,0-0.2-0.2-0.2-0.2L-382.3,414.7 M-382.3,407.7
					c-1.8,0-3.5,0.7-4.9,2l-181,177.6c-2.6,2.5-2.8,6.6-0.6,9.4c1.1,1.4,2.4,2.1,3.3,2.5l25.6,9.2c0.9,0.3,1.8,0.5,2.7,0.5
					c2.3,0,4.5-1,6.1-2.7l141.4-150.1c1.1-1.1,1.9-2.5,2.4-3.9l11.9-34.4c1.1-3.1,0.2-6.4-2.3-8.5
					C-379,408.3-380.6,407.7-382.3,407.7L-382.3,407.7z"/>
				<path fill="#DBDCDC" d="M-563.4,595.8c-0.8,0-1.6-0.3-2.2-0.9c-0.6-0.5-1-1.1-1.3-1.8l-8.4-25.4c-0.6-1.7,0-3.7,1.4-4.9
					l150.6-136.7c0.8-0.7,1.6-1.2,2.6-1.6l36.2-13.2c0.5-0.2,1-0.3,1.6-0.3c1,0,2,0.4,2.8,1c0.8,0.6,1.2,1.6,1.2,2.5
					c0,1-0.3,1.9-1,2.6l-181,177.6C-561.5,595.4-562.4,595.8-563.4,595.8C-563.3,595.8-563.3,595.8-563.4,595.8z"/>
				<path fill="#DBDCDC" d="M-382.8,414.5c0.2,0,0.4,0.1,0.6,0.2l-181,177.6c-0.1-0.1-0.2-0.1-0.2-0.2l-8.4-25.5
					c-0.1-0.4,0-0.9,0.4-1.3l150.6-136.7c0.4-0.4,0.9-0.7,1.4-0.9l36.2-13.2C-383.1,414.6-382.9,414.5-382.8,414.5 M-382.8,407.5
					c-0.9,0-1.9,0.2-2.8,0.5l-36.2,13.2c-1.4,0.5-2.6,1.3-3.7,2.3l-150.6,136.7c-2.4,2.2-3.4,5.6-2.4,8.6l8.4,25.5
					c0.3,0.9,1,2.3,2.4,3.4c1.2,1,2.8,1.6,4.4,1.6c0,0,0.1,0,0.1,0c1.8,0,3.6-0.7,4.9-2l181-177.6c1.4-1.4,2.2-3.3,2.1-5.3
					c-0.1-2-1-3.8-2.5-5.1C-379.1,408.2-381,407.5-382.8,407.5L-382.8,407.5z"/>
				<path fill="#DBDCDC" d="M-610.6,662c-1,0-1.9-0.4-2.5-1.1l-19.1-20.9c-1.3-1.4-1.2-3.6,0.1-4.9l50.9-49.4c0.7-0.6,1.5-1,2.4-1
					c0,0,0,0,0.1,0c0.9,0,1.8,0.4,2.5,1.1l19,19.7c1.3,1.4,1.3,3.6-0.1,4.9L-608,661C-608.7,661.6-609.6,662-610.6,662
					C-610.5,662-610.6,662-610.6,662z"/>
				<path fill="#DBDCDC" d="M-578.7,588.3l19,19.7l-50.9,50.5l-19.1-20.9L-578.7,588.3 M-578.7,581.3c-1.8,0-3.6,0.7-4.9,2
					l-50.9,49.4c-2.7,2.6-2.8,7-0.3,9.7l19.1,20.9c1.3,1.4,3.1,2.2,5,2.3c0.1,0,0.1,0,0.2,0c1.8,0,3.6-0.7,4.9-2l50.9-50.5
					c2.7-2.7,2.8-7.1,0.1-9.8l-19-19.7c-1.3-1.3-3.1-2.1-4.9-2.1C-578.6,581.3-578.6,581.3-578.7,581.3L-578.7,581.3z"/>
				<path fill="#DBDCDC" d="M-530.8,637c-3.7,0-7.1-1.4-9.6-4l-61.7-63.9c-2.3-2.4-3.6-5.6-3.5-9.1c0.1-3.7,1.7-7.3,4.5-9.9
					c2.7-2.5,6.2-3.9,9.8-3.9c3.5,0,6.8,1.3,9.2,3.8l61.6,62.8c5.3,5.4,5.1,14.3-0.3,19.8C-523.3,635.5-527,637-530.8,637z"/>
				<path fill="#DBDCDC" d="M-591.2,549.8c2.5,0,4.9,0.9,6.7,2.7l61.6,62.8c3.9,4,3.8,10.7-0.3,15h0c-2.1,2.2-4.9,3.3-7.6,3.3
					c-2.6,0-5.1-1-7-3l-61.7-63.9c-3.7-3.8-3.2-10.1,0.9-13.9C-596.5,550.7-593.8,549.8-591.2,549.8 M-591.2,542.8
					C-591.2,542.8-591.2,542.8-591.2,542.8c-4.5,0-8.8,1.7-12.2,4.9c-3.4,3.2-5.5,7.7-5.6,12.3c-0.1,4.4,1.5,8.5,4.4,11.6l61.7,63.9
					c3.2,3.3,7.5,5.1,12.1,5.1c4.7,0,9.3-2,12.6-5.4c6.7-6.9,6.8-18,0.3-24.7l-61.6-62.8C-582.5,544.5-586.7,542.8-591.2,542.8
					L-591.2,542.8z"/>
				<path fill="#DBDCDC" d="M-616.5,673.9c-2.6,0-5-1.1-6.7-3l-19.1-21.1c-3.4-3.8-3-10,0.9-13.9l0.6-0.6c1.9-1.9,4.5-2.9,7.1-2.9
					c2.6,0,5,1,6.7,2.9l19.1,20.9c3.5,3.8,3.2,10.1-0.7,14l-0.6,0.6C-611.3,672.8-613.8,673.9-616.5,673.9z"/>
				<path fill="#DBDCDC" d="M-633.7,635.9c1.5,0,3,0.6,4.1,1.7l19.1,20.9c2.2,2.5,2,6.6-0.6,9.2l-0.6,0.6c-1.3,1.3-3,2-4.7,2
					c-1.6,0-3.1-0.6-4.1-1.8l-19.1-21.1c-2.2-2.4-1.8-6.5,0.8-9l0.6-0.6C-636.9,636.5-635.3,635.9-633.7,635.9 M-633.7,628.9
					C-633.7,628.9-633.7,628.9-633.7,628.9c-3.5,0-6.9,1.4-9.5,3.9l-0.6,0.6c-5.3,5.1-5.8,13.5-1.1,18.7l19.1,21.1
					c2.4,2.6,5.8,4.1,9.3,4.1c3.6,0,7-1.4,9.6-4.1l0.6-0.6c5.2-5.2,5.6-13.7,0.8-18.9l-19.1-20.9
					C-626.7,630.3-630.1,628.9-633.7,628.9L-633.7,628.9z"/>
				<path fill="#DBDCDC" d="M-593.3,644.8c-0.9,0-1.8-0.4-2.5-1.1l-19.1-20.5c-1.3-1.4-1.2-3.6,0.1-4.9l6.4-6.2c0.7-0.6,1.5-1,2.4-1
					c0,0,0.1,0,0.1,0c0.9,0,1.8,0.4,2.5,1.1l19.1,20.4c1.3,1.4,1.3,3.5-0.1,4.9l-6.4,6.4C-591.4,644.5-592.3,644.8-593.3,644.8
					C-593.2,644.8-593.2,644.8-593.3,644.8z"/>
				<path fill="#DBDCDC" d="M-605.9,614.6l19.1,20.4l-6.4,6.4l-19.1-20.5L-605.9,614.6 M-605.9,607.6c-1.8,0-3.6,0.7-4.9,2l-6.4,6.2
					c-2.7,2.7-2.8,7-0.3,9.8l19.1,20.5c1.3,1.4,3.1,2.2,5,2.2c0,0,0.1,0,0.1,0c1.8,0,3.6-0.7,4.9-2l6.4-6.4c2.7-2.7,2.8-7,0.2-9.8
					l-19.1-20.4c-1.3-1.4-3.1-2.2-4.9-2.2C-605.7,607.6-605.8,607.6-605.9,607.6L-605.9,607.6z"/>
				<path fill="#DBDCDC" d="M-604.1,655.5c-1,0-1.9-0.4-2.5-1.1l-19.1-20.7c-1.3-1.4-1.2-3.6,0.1-4.9l6.5-6.3c0.7-0.6,1.5-1,2.4-1
					c0,0,0.1,0,0.1,0c0.9,0,1.8,0.4,2.5,1.1l19.1,20.6c1.3,1.4,1.2,3.5-0.1,4.9l-6.5,6.5C-602.2,655.2-603.1,655.5-604.1,655.5
					C-604,655.5-604,655.5-604.1,655.5z"/>
				<path fill="#DBDCDC" d="M-616.6,625l19.1,20.6l-6.5,6.5l-19.1-20.7L-616.6,625 M-616.6,618c-1.8,0-3.6,0.7-4.9,2l-6.5,6.3
					c-2.7,2.6-2.8,7-0.3,9.8l19.1,20.7c1.3,1.4,3.1,2.2,5,2.3c0.1,0,0.1,0,0.2,0c1.8,0,3.6-0.7,4.9-2l6.5-6.5c2.7-2.7,2.8-7,0.2-9.7
					l-19.1-20.6c-1.3-1.4-3.1-2.2-4.9-2.2C-616.4,618-616.5,618-616.6,618L-616.6,618z"/>
				<path fill="#DBDCDC" d="M-572.1,623.8c-0.9,0-1.8-0.4-2.5-1.1l-19.1-20c-1.3-1.4-1.3-3.6,0.1-4.9l6.3-6.1c0.7-0.6,1.5-1,2.4-1
					c0,0,0,0,0.1,0c0.9,0,1.8,0.4,2.5,1.1l19.1,19.9c1.3,1.4,1.3,3.6-0.1,4.9l-6.3,6.2C-570.2,623.5-571.1,623.8-572.1,623.8
					C-572.1,623.8-572.1,623.8-572.1,623.8z"/>
				<path fill="#DBDCDC" d="M-584.8,594.2l19.1,19.9l-6.3,6.2l-19.1-20L-584.8,594.2 M-584.8,587.2c-1.8,0-3.6,0.7-4.9,2l-6.3,6.1
					c-2.8,2.7-2.8,7.1-0.2,9.9l19.1,20c1.3,1.4,3.1,2.1,5,2.2c0,0,0.1,0,0.1,0c1.8,0,3.6-0.7,4.9-2l6.3-6.2c2.7-2.7,2.8-7.1,0.1-9.8
					l-19.1-19.9c-1.3-1.3-3.1-2.1-4.9-2.2C-584.8,587.2-584.8,587.2-584.8,587.2L-584.8,587.2z"/>
				<path fill="#DBDCDC" d="M-582.6,634.3c-0.9,0-1.8-0.4-2.5-1.1l-19.1-20.3c-1.3-1.4-1.3-3.6,0.1-4.9l6.3-6.1c0.7-0.6,1.5-1,2.4-1
					c0,0,0,0,0.1,0c0.9,0,1.8,0.4,2.5,1.1l19.1,20.1c1.3,1.4,1.3,3.6-0.1,4.9l-6.3,6.3C-580.7,633.9-581.6,634.3-582.6,634.3
					C-582.6,634.3-582.6,634.3-582.6,634.3z"/>
				<path fill="#DBDCDC" d="M-595.3,604.4l19.1,20.1l-6.3,6.3l-19.1-20.3L-595.3,604.4 M-595.3,597.4c-1.8,0-3.6,0.7-4.9,2l-6.3,6.1
					c-2.7,2.7-2.8,7-0.2,9.8l19.1,20.3c1.3,1.4,3.1,2.2,5,2.2c0,0,0.1,0,0.1,0c1.8,0,3.6-0.7,4.9-2l6.3-6.3c2.7-2.7,2.8-7,0.1-9.8
					l-19.1-20.1c-1.3-1.4-3.1-2.1-4.9-2.2C-595.2,597.4-595.2,597.4-595.3,597.4L-595.3,597.4z"/>
				<path fill="#DBDCDC" d="M-562.1,602.2c-3,0-5.8-1.2-7.9-3.3c-4.3-4.4-4-11.7,0.6-16.2c2.3-2.2,5.2-3.4,8.3-3.4
					c3,0,5.8,1.2,7.8,3.3c4.3,4.4,4.1,11.6-0.5,16.2C-556.1,600.9-559,602.2-562.1,602.2z"/>
				<path fill="#DBDCDC" d="M-561.2,582.8c2,0,3.9,0.7,5.3,2.2c3,3,2.8,8.1-0.4,11.2c-1.7,1.6-3.8,2.5-5.9,2.5c-2,0-3.9-0.7-5.4-2.2
					c-3-3.1-2.7-8.1,0.5-11.2C-565.3,583.6-563.2,582.8-561.2,582.8 M-561.2,575.8C-561.2,575.8-561.2,575.8-561.2,575.8
					c-4,0-7.8,1.6-10.7,4.4c-6,5.8-6.3,15.3-0.7,21.1c2.7,2.8,6.4,4.4,10.4,4.4c4,0,7.9-1.6,10.8-4.5c5.9-5.9,6.2-15.3,0.5-21.1
					C-553.6,577.3-557.2,575.8-561.2,575.8L-561.2,575.8z"/>
				<path fill="#DBDCDC" d="M-562,600.5c-2.6,0-5-1-6.8-2.8c-3.7-3.8-3.5-10,0.5-13.9c1.9-1.9,4.4-2.9,7.1-2.9c2.6,0,5,1,6.7,2.8
					c3.7,3.8,3.5,10-0.4,13.9C-556.9,599.5-559.4,600.5-562,600.5z"/>
				<path fill="#DBDCDC" d="M-561.3,584.4c1.6,0,3.1,0.6,4.2,1.8c2.4,2.4,2.2,6.4-0.4,8.9c-1.3,1.3-3,1.9-4.7,1.9
					c-1.6,0-3.1-0.6-4.3-1.8c-2.4-2.4-2.2-6.4,0.4-8.9C-564.6,585-562.9,584.4-561.3,584.4 M-561.3,577.4
					C-561.3,577.4-561.3,577.4-561.3,577.4c-3.6,0-6.9,1.4-9.5,3.9c-5.3,5.2-5.6,13.6-0.5,18.8c2.4,2.5,5.7,3.9,9.3,3.9
					c3.6,0,7-1.4,9.6-4c5.3-5.2,5.5-13.7,0.4-18.8C-554.5,578.8-557.7,577.4-561.3,577.4L-561.3,577.4z"/>
			</g>
			<g>
				<g id="XMLID_47_">
					<g id="XMLID_58_">
						<g id="XMLID_60_">
							<path fill="#F7F7F7" d="M-443.3,587.8c-0.9,0-1.8-0.4-2.4-1l-179.5-173c-0.7-0.7-1.1-1.6-1.1-2.6c0-1,0.5-1.9,1.2-2.6
								c0.8-0.7,1.8-1,2.9-1c0.5,0,1,0.1,1.5,0.3l36.9,12.6c1,0.3,1.9,0.9,2.6,1.5l148.8,132.6c1.4,1.3,2,3.2,1.4,5l-8.7,25.6
								c-0.2,0.7-0.6,1.3-1.2,1.7C-441.6,587.5-442.4,587.8-443.3,587.8C-443.3,587.8-443.3,587.8-443.3,587.8z"/>
							<path fill="#F7F7F7" d="M-622.3,411.1c0.1,0,0.2,0,0.4,0.1l36.9,12.6c0.5,0.2,1,0.5,1.4,0.8l148.8,132.6
								c0.4,0.3,0.5,0.8,0.4,1.2l-8.7,25.6c0,0.1-0.2,0.2-0.2,0.3l-179.5-173C-622.7,411.2-622.5,411.1-622.3,411.1 M-622.3,404.1
								c-1.9,0-3.7,0.7-5.1,1.9c-1.5,1.3-2.4,3.1-2.5,5.1c-0.1,2,0.7,3.9,2.1,5.3l179.5,173c1.3,1.3,3,2,4.9,2c0.1,0,0.1,0,0.2,0
								c1.6,0,3.2-0.7,4.4-1.7c1.1-0.9,1.8-2,2.3-3.3l8.7-25.6c1-3.1,0.1-6.5-2.4-8.7L-579,419.4c-1.1-1-2.4-1.7-3.8-2.2l-36.9-12.6
								C-620.5,404.2-621.4,404.1-622.3,404.1L-622.3,404.1z"/>
						</g>
						<g id="XMLID_59_">
							<path fill="#F7F7F7" d="M-469.4,598.3c-1.3,0-2.5-0.5-3.4-1.5l-140.2-146.3c-0.7-0.8-1.3-1.7-1.6-2.7l-11.7-34.5
								c-0.6-1.7-0.1-3.5,1.3-4.7c0.7-0.6,1.5-0.8,2.3-0.8c0.9,0,1.8,0.3,2.4,1l179.5,173c1.3,1.3,1.4,3.3,0.3,4.7
								c-0.5,0.6-1,1.1-1.7,1.3l-25.5,10.2C-468.3,598.2-468.9,598.3-469.4,598.3z"/>
							<path fill="#F7F7F7" d="M-622.9,411.3l179.5,173c-0.1,0.1-0.1,0.2-0.2,0.3l-25.5,10.2c-0.1,0-0.2,0.1-0.4,0.1
								c-0.3,0-0.7-0.1-0.9-0.4l-140.2-146.3c-0.4-0.4-0.7-0.9-0.8-1.4l-11.7-34.5C-623.2,411.8-623.1,411.5-622.9,411.3
								 M-622.9,404.3c-1.6,0-3.2,0.5-4.5,1.6c-2.5,2.1-3.4,5.4-2.3,8.5l11.7,34.5c0.5,1.5,1.3,2.8,2.4,4l140.2,146.3
								c1.6,1.6,3.7,2.6,6,2.6c1,0,2-0.2,2.9-0.6l25.5-10.2c1.3-0.5,2.3-1.3,3.2-2.4c2.2-2.8,2-6.8-0.6-9.4l-179.5-173
								C-619.4,405-621.1,404.3-622.9,404.3L-622.9,404.3z"/>
						</g>
					</g>
					<g id="XMLID_57_">
						<path fill="#F7F7F7" d="M-398,651.5c-0.9,0-1.8-0.4-2.4-1l-49.2-47.9c-1.4-1.3-1.4-3.5-0.1-4.9l19.1-20.3
							c0.6-0.7,1.5-1.1,2.5-1.1c0,0,0.1,0,0.1,0c0.9,0,1.8,0.3,2.4,1l49.1,46.8c1.4,1.3,1.5,3.4,0.2,4.8l-18.9,21.5
							c-0.6,0.7-1.5,1.1-2.5,1.2C-397.9,651.5-398,651.5-398,651.5z"/>
						<path fill="#F7F7F7" d="M-428.2,579.7l49.1,46.8L-398,648l-49.2-47.9L-428.2,579.7 M-428.2,572.7c-0.1,0-0.1,0-0.2,0
							c-1.9,0.1-3.6,0.8-4.9,2.2l-19.1,20.3c-2.6,2.8-2.5,7.1,0.2,9.8l49.2,47.9c1.3,1.3,3.1,2,4.9,2c0.1,0,0.2,0,0.3,0
							c1.9-0.1,3.7-0.9,5-2.4l18.9-21.5c2.5-2.8,2.3-7.1-0.4-9.7l-49.1-46.8C-424.6,573.4-426.4,572.7-428.2,572.7L-428.2,572.7z"/>
					</g>
					<g id="XMLID_56_">
						<path fill="#F7F7F7" d="M-476.6,630.2c-3.6,0-7-1.4-9.6-4c-5.4-5.4-5.4-14.3-0.1-19.8l61.9-64.8c2.5-2.6,5.8-4,9.5-4
							c3.4,0,6.7,1.3,9.3,3.6c2.7,2.5,4.2,5.8,4.3,9.4c0.1,3.5-1.1,6.8-3.5,9.3l-61.8,65.8C-469.2,628.6-472.9,630.2-476.6,630.2z"
							/>
						<path fill="#F7F7F7" d="M-414.9,541.1c2.5,0,4.9,0.9,6.9,2.7h0c4,3.7,4.3,9.9,0.7,13.8l-61.8,65.8c-2,2.2-4.8,3.3-7.5,3.3
							c-2.6,0-5.1-1-7.1-3l0,0c-4-4-4-10.8-0.1-14.9l61.9-64.8C-420,542.1-417.5,541.1-414.9,541.1 M-414.9,534.1
							C-414.9,534.1-414.9,534.1-414.9,534.1c-4.5,0-8.9,1.9-12,5.1l-61.9,64.8c-6.6,6.9-6.5,18,0.2,24.7c3.2,3.2,7.5,5,12.1,5
							c4.7,0,9.3-2,12.6-5.5l61.8-65.8c3-3.2,4.6-7.4,4.4-11.8c-0.2-4.5-2.1-8.8-5.4-11.9C-406.5,535.7-410.6,534.1-414.9,534.1
							L-414.9,534.1z"/>
					</g>
					<g id="XMLID_55_">
						<path fill="#F7F7F7" d="M-392.6,662.9c-2.5,0-4.9-1-6.7-2.8l-0.6-0.6c-3.8-3.7-4.1-10-0.6-13.9l18.9-21.4
							c1.7-2,4.2-3.1,6.9-3.1c2.5,0,4.8,1,6.6,2.7l0.6,0.6c3.8,3.6,4.2,9.8,0.8,13.7l-18.9,21.7
							C-387.4,661.8-389.9,662.9-392.6,662.9z"/>
						<path fill="#F7F7F7" d="M-374.9,624.6c1.5,0,3,0.6,4.2,1.7l0.6,0.6c2.5,2.4,2.8,6.3,0.6,8.8l-18.9,21.7c-1.1,1.3-2.7,2-4.3,2
							c-1.5,0-3.1-0.6-4.3-1.8l-0.6-0.6c-2.5-2.4-2.7-6.5-0.5-9.1l18.9-21.4C-378,625.3-376.4,624.6-374.9,624.6 M-374.9,617.6
							C-374.9,617.6-374.9,617.6-374.9,617.6c-3.6,0-7.1,1.6-9.5,4.3l-18.9,21.4c-4.7,5.3-4.3,13.7,0.8,18.7l0.6,0.6
							c2.5,2.4,5.7,3.8,9.2,3.8c3.7,0,7.2-1.6,9.6-4.4l18.9-21.7c4.6-5.3,4.1-13.6-1.1-18.5l-0.6-0.6
							C-368.3,618.9-371.5,617.6-374.9,617.6L-374.9,617.6z"/>
					</g>
					<g id="XMLID_50_">
						<g id="XMLID_54_">
							<path fill="#F7F7F7" d="M-414.7,635.2c-0.9,0-1.8-0.4-2.4-1l-6.2-6c-1.4-1.3-1.4-3.5-0.2-4.9l19-20.9
								c0.6-0.7,1.5-1.1,2.5-1.1c0,0,0.1,0,0.1,0c0.9,0,1.8,0.3,2.4,1l6.2,5.9c1.4,1.3,1.5,3.5,0.2,4.9l-19,21.1
								c-0.6,0.7-1.5,1.1-2.5,1.2C-414.6,635.2-414.6,635.2-414.7,635.2z"/>
							<path fill="#F7F7F7" d="M-401.9,604.8l6.2,5.9l-19,21.1l-6.2-6L-401.9,604.8 M-401.9,597.8c-0.1,0-0.2,0-0.3,0
								c-1.9,0.1-3.7,0.9-4.9,2.3l-19,20.9c-2.5,2.8-2.4,7.1,0.3,9.7l6.2,6c1.3,1.3,3.1,2,4.9,2c0.1,0,0.2,0,0.2,0
								c1.9-0.1,3.7-0.9,5-2.3l19-21.1c2.5-2.8,2.4-7.1-0.4-9.7l-6.2-5.9C-398.4,598.5-400.1,597.8-401.9,597.8L-401.9,597.8z"/>
						</g>
						<g id="XMLID_53_">
							<path fill="#F7F7F7" d="M-404.3,645.4c-0.9,0-1.8-0.4-2.4-1l-6.3-6.1c-1.3-1.3-1.4-3.4-0.2-4.8l19-21.2
								c0.6-0.7,1.5-1.1,2.5-1.2c0,0,0.1,0,0.1,0c0.9,0,1.8,0.3,2.4,1l6.2,6c1.4,1.3,1.5,3.4,0.2,4.9l-18.9,21.3
								c-0.6,0.7-1.5,1.1-2.5,1.2C-404.2,645.4-404.2,645.4-404.3,645.4z"/>
							<path fill="#F7F7F7" d="M-391.6,614.6l6.2,6l-18.9,21.3l-6.3-6.1L-391.6,614.6 M-391.6,607.6c-0.1,0-0.2,0-0.3,0
								c-1.9,0.1-3.7,0.9-4.9,2.3l-19,21.2c-2.5,2.8-2.4,7.1,0.3,9.7l6.3,6.1c1.3,1.3,3.1,2,4.9,2c0.1,0,0.2,0,0.3,0
								c1.9-0.1,3.7-0.9,5-2.3l18.9-21.3c2.5-2.8,2.3-7.1-0.4-9.7l-6.2-6C-388,608.3-389.8,607.6-391.6,607.6L-391.6,607.6z"/>
						</g>
						<g id="XMLID_52_">
							<path fill="#F7F7F7" d="M-435.2,615.3c-0.9,0-1.8-0.4-2.4-1l-6.1-5.9c-1.4-1.3-1.4-3.5-0.1-4.9l19.1-20.5
								c0.6-0.7,1.5-1.1,2.5-1.1c0,0,0.1,0,0.1,0c0.9,0,1.8,0.3,2.4,1l6.1,5.8c1.4,1.3,1.5,3.5,0.2,4.9l-19,20.6
								C-433.2,614.9-434.1,615.3-435.2,615.3C-435.1,615.3-435.1,615.3-435.2,615.3z"/>
							<path fill="#F7F7F7" d="M-422.2,585.4l6.1,5.8l-19,20.6l-6.1-5.9L-422.2,585.4 M-422.2,578.4c-0.1,0-0.1,0-0.2,0
								c-1.9,0.1-3.6,0.9-4.9,2.2l-19.1,20.5c-2.6,2.8-2.5,7.1,0.2,9.8l6.1,5.9c1.3,1.3,3.1,2,4.9,2c0.1,0,0.1,0,0.2,0
								c1.9,0,3.7-0.9,5-2.2l19-20.6c2.6-2.8,2.5-7.2-0.3-9.8l-6.1-5.8C-418.6,579.1-420.4,578.4-422.2,578.4L-422.2,578.4z"/>
						</g>
						<g id="XMLID_51_">
							<path fill="#F7F7F7" d="M-425,625.2c-0.9,0-1.8-0.4-2.4-1l-6.1-6c-1.4-1.3-1.4-3.5-0.1-4.9l19-20.7c0.6-0.7,1.5-1.1,2.5-1.1
								c0,0,0.1,0,0.1,0c0.9,0,1.8,0.3,2.4,1l6.1,5.8c1.4,1.3,1.5,3.5,0.2,4.9l-19,20.8c-0.6,0.7-1.5,1.1-2.5,1.1
								C-424.9,625.2-424.9,625.2-425,625.2z"/>
							<path fill="#F7F7F7" d="M-412.1,595.1l6.1,5.8l-19,20.8l-6.1-6L-412.1,595.1 M-412.1,588.1c-0.1,0-0.2,0-0.2,0
								c-1.9,0.1-3.7,0.9-4.9,2.3l-19,20.7c-2.6,2.8-2.4,7.1,0.3,9.8l6.1,6c1.3,1.3,3.1,2,4.9,2c0.1,0,0.1,0,0.2,0
								c1.9-0.1,3.7-0.9,5-2.3l19-20.8c2.6-2.8,2.4-7.2-0.3-9.8l-6.1-5.8C-408.5,588.7-410.3,588.1-412.1,588.1L-412.1,588.1z"/>
						</g>
					</g>
					<g id="XMLID_49_">
						<path fill="#F7F7F7" d="M-444.9,594.2c-3,0-5.8-1.1-7.9-3.2c-4.5-4.4-4.7-11.6-0.4-16.1c2.1-2.2,5-3.5,8.1-3.5
							c2.9,0,5.7,1.1,7.8,3.2c4.5,4.3,4.7,11.5,0.5,16.1C-438.8,592.9-441.8,594.2-444.9,594.2z"/>
						<path fill="#F7F7F7" d="M-445,574.9c1.9,0,3.9,0.7,5.4,2.2c3.1,3,3.3,8,0.3,11.1c-1.5,1.6-3.6,2.4-5.6,2.4
							c-2,0-3.9-0.7-5.5-2.2c-3.1-3-3.2-8-0.3-11.1C-449.1,575.7-447.1,574.9-445,574.9 M-445,567.9C-445,567.9-445,567.9-445,567.9
							c-4,0-7.9,1.7-10.7,4.6c-5.6,5.9-5.4,15.3,0.5,21c2.8,2.7,6.5,4.2,10.3,4.2c4,0,8-1.7,10.7-4.6c5.6-5.9,5.3-15.3-0.6-21
							C-437.5,569.4-441.2,567.9-445,567.9L-445,567.9z"/>
					</g>
					<g id="XMLID_48_">
						<path fill="#F7F7F7" d="M-444.9,592.6c-2.5,0-4.9-1-6.8-2.8c-3.9-3.7-4-9.9-0.3-13.8c1.8-1.9,4.3-3,7-3c2.5,0,4.9,1,6.7,2.7
							c3.9,3.7,4,9.9,0.4,13.8C-439.7,591.5-442.3,592.6-444.9,592.6z"/>
						<path fill="#F7F7F7" d="M-445,576.5c1.5,0,3.1,0.6,4.3,1.7c2.5,2.4,2.6,6.4,0.3,8.9c-1.2,1.3-2.8,1.9-4.5,1.9
							c-1.6,0-3.1-0.6-4.3-1.8c-2.5-2.4-2.6-6.4-0.2-8.9C-448.2,577.2-446.6,576.5-445,576.5 M-445,569.5L-445,569.5
							c-3.6,0-7.1,1.5-9.5,4.1c-5,5.3-4.8,13.7,0.4,18.7c2.5,2.4,5.8,3.7,9.2,3.7c3.6,0,7.1-1.5,9.6-4.1c5-5.3,4.7-13.7-0.5-18.7
							C-438.3,570.8-441.6,569.5-445,569.5L-445,569.5z"/>
					</g>
				</g>
				<g id="XMLID_22_">
					<g id="XMLID_33_">
						<g id="XMLID_46_">
							<path fill="#F7F7F7" d="M-538.6,599.7c-0.5,0-1-0.1-1.5-0.3l-25.6-9.2c-0.7-0.3-1.3-0.7-1.8-1.3c-1.1-1.4-1-3.4,0.3-4.7
								l181-177.6c0.7-0.7,1.6-1,2.5-1c0.8,0,1.6,0.3,2.3,0.8c1.4,1.1,1.8,3,1.3,4.7l-11.9,34.4c-0.3,1-0.9,1.9-1.6,2.6L-535,598.1
								C-536,599.1-537.3,599.7-538.6,599.7z"/>
							<path fill="#F7F7F7" d="M-383.7,409.1c0.2,0.2,0.3,0.5,0.2,0.8l-11.9,34.4c-0.2,0.5-0.5,1-0.8,1.4l-141.4,150
								c-0.3,0.3-0.6,0.5-1,0.5c-0.1,0-0.2,0-0.3-0.1l-25.6-9.2c-0.1,0-0.2-0.2-0.2-0.2L-383.7,409.1 M-383.7,402.1
								c-1.8,0-3.5,0.7-4.9,2l-181,177.6c-2.6,2.5-2.8,6.6-0.6,9.4c1.1,1.4,2.4,2.1,3.3,2.5l25.6,9.2c0.9,0.3,1.8,0.5,2.7,0.5
								c2.3,0,4.5-1,6.1-2.7l141.4-150.1c1.1-1.1,1.9-2.5,2.4-3.9l11.9-34.4c1.1-3.1,0.2-6.4-2.3-8.5
								C-380.5,402.6-382.1,402.1-383.7,402.1L-383.7,402.1z"/>
						</g>
						<g id="XMLID_34_">
							<path fill="#F7F7F7" d="M-564.8,590.1c-0.8,0-1.6-0.3-2.2-0.9c-0.6-0.5-1-1.1-1.3-1.8l-8.4-25.4c-0.6-1.7,0-3.7,1.4-4.9
								l150.6-136.7c0.8-0.7,1.6-1.2,2.6-1.6l36.2-13.2c0.5-0.2,1-0.3,1.6-0.3c1,0,2,0.4,2.8,1c0.8,0.6,1.2,1.6,1.2,2.5
								c0,1-0.3,1.9-1,2.6l-181,177.6C-562.9,589.8-563.8,590.1-564.8,590.1C-564.7,590.1-564.8,590.1-564.8,590.1z"/>
							<path fill="#F7F7F7" d="M-384.2,408.9c0.2,0,0.4,0.1,0.6,0.2l-181,177.6c-0.1-0.1-0.2-0.1-0.2-0.2l-8.4-25.5
								c-0.1-0.4,0-0.9,0.4-1.3L-422.3,423c0.4-0.4,0.9-0.7,1.4-0.9l36.2-13.2C-384.5,408.9-384.4,408.9-384.2,408.9 M-384.2,401.9
								c-0.9,0-1.9,0.2-2.8,0.5l-36.2,13.2c-1.4,0.5-2.6,1.3-3.7,2.3l-150.6,136.7c-2.4,2.2-3.4,5.6-2.4,8.6l8.4,25.5
								c0.3,0.9,1,2.3,2.4,3.4c1.2,1,2.8,1.6,4.4,1.6c0,0,0.1,0,0.1,0c1.8,0,3.6-0.7,4.9-2l181-177.6c1.4-1.4,2.2-3.3,2.1-5.3
								c-0.1-2-1-3.8-2.5-5.1C-380.6,402.5-382.4,401.9-384.2,401.9L-384.2,401.9z"/>
						</g>
					</g>
					<g id="XMLID_32_">
						<path fill="#F7F7F7" d="M-612,656.3c-1,0-1.9-0.4-2.5-1.1l-19.1-20.9c-1.3-1.4-1.2-3.6,0.1-4.9l50.9-49.4c0.7-0.6,1.5-1,2.4-1
							c0,0,0,0,0.1,0c0.9,0,1.8,0.4,2.5,1.1l19,19.7c1.3,1.4,1.3,3.6-0.1,4.9l-50.9,50.5C-610.1,656-611,656.3-612,656.3
							C-611.9,656.3-612,656.3-612,656.3z"/>
						<path fill="#F7F7F7" d="M-580.1,582.6l19,19.7l-50.9,50.5l-19.1-20.9L-580.1,582.6 M-580.1,575.6c-1.8,0-3.6,0.7-4.9,2
							l-50.9,49.4c-2.7,2.6-2.8,7-0.3,9.7l19.1,20.9c1.3,1.4,3.1,2.2,5,2.3c0.1,0,0.1,0,0.2,0c1.8,0,3.6-0.7,4.9-2l50.9-50.5
							c2.7-2.7,2.8-7.1,0.1-9.8l-19-19.7c-1.3-1.3-3.1-2.1-4.9-2.1C-580,575.6-580,575.6-580.1,575.6L-580.1,575.6z"/>
					</g>
					<g id="XMLID_31_">
						<path fill="#F7F7F7" d="M-532.2,631.4c-3.7,0-7.1-1.4-9.6-4l-61.7-63.9c-2.3-2.4-3.6-5.6-3.5-9.1c0.1-3.7,1.7-7.3,4.5-9.9
							c2.7-2.5,6.2-3.9,9.8-3.9c3.5,0,6.8,1.3,9.2,3.8l61.6,62.8c5.3,5.4,5.1,14.3-0.3,19.8C-524.7,629.8-528.4,631.4-532.2,631.4z"
							/>
						<path fill="#F7F7F7" d="M-592.6,544.1c2.5,0,4.9,0.9,6.7,2.7l61.6,62.8c3.9,4,3.8,10.7-0.3,15l0,0c-2.1,2.2-4.9,3.3-7.6,3.3
							c-2.6,0-5.1-1-7-3l-61.7-63.9c-3.7-3.8-3.2-10.1,0.9-13.9C-597.9,545.1-595.2,544.1-592.6,544.1 M-592.6,537.1
							C-592.6,537.1-592.6,537.1-592.6,537.1c-4.5,0-8.8,1.7-12.2,4.9c-3.4,3.2-5.5,7.7-5.6,12.3c-0.1,4.4,1.5,8.5,4.4,11.6
							l61.7,63.9c3.2,3.3,7.5,5.1,12.1,5.1c4.7,0,9.3-2,12.6-5.4c6.7-6.9,6.8-18,0.3-24.7l-61.6-62.8
							C-583.9,538.8-588.1,537.1-592.6,537.1L-592.6,537.1z"/>
					</g>
					<g id="XMLID_30_">
						<path fill="#F7F7F7" d="M-617.9,668.2c-2.6,0-5-1.1-6.7-3l-19.1-21.1c-3.4-3.8-3-10,0.9-13.9l0.6-0.6c1.9-1.9,4.5-2.9,7.1-2.9
							c2.6,0,5,1,6.7,2.9l19.1,20.9c3.5,3.8,3.2,10.1-0.7,14l-0.6,0.6C-612.7,667.1-615.2,668.2-617.9,668.2z"/>
						<path fill="#F7F7F7" d="M-635.1,630.2c1.5,0,3,0.6,4.1,1.7l19.1,20.9c2.2,2.5,2,6.6-0.6,9.2l-0.6,0.6c-1.3,1.3-3,2-4.7,2
							c-1.6,0-3.1-0.6-4.1-1.8l-19.1-21.1c-2.2-2.4-1.8-6.5,0.8-9l0.6-0.6C-638.4,630.9-636.7,630.2-635.1,630.2 M-635.1,623.2
							C-635.1,623.2-635.1,623.2-635.1,623.2c-3.5,0-6.9,1.4-9.5,3.9l-0.6,0.6c-5.3,5.1-5.8,13.5-1.1,18.7l19.1,21.1
							c2.4,2.6,5.8,4.1,9.3,4.1c3.6,0,7-1.4,9.6-4.1l0.6-0.6c5.2-5.2,5.6-13.7,0.8-18.9l-19.1-20.9
							C-628.2,624.7-631.5,623.2-635.1,623.2L-635.1,623.2z"/>
					</g>
					<g id="XMLID_25_">
						<g id="XMLID_29_">
							<path fill="#F7F7F7" d="M-594.7,639.2c-0.9,0-1.8-0.4-2.5-1.1l-19.1-20.5c-1.3-1.4-1.2-3.6,0.1-4.9l6.4-6.2
								c0.7-0.6,1.5-1,2.4-1c0,0,0.1,0,0.1,0c0.9,0,1.8,0.4,2.5,1.1l19.1,20.4c1.3,1.4,1.3,3.5-0.1,4.9l-6.4,6.4
								C-592.8,638.8-593.7,639.2-594.7,639.2C-594.6,639.2-594.7,639.2-594.7,639.2z"/>
							<path fill="#F7F7F7" d="M-607.3,608.9l19.1,20.4l-6.4,6.4l-19.1-20.5L-607.3,608.9 M-607.3,601.9c-1.8,0-3.6,0.7-4.9,2
								l-6.4,6.2c-2.7,2.7-2.8,7-0.3,9.8l19.1,20.5c1.3,1.4,3.1,2.2,5,2.2c0,0,0.1,0,0.1,0c1.8,0,3.6-0.7,4.9-2l6.4-6.4
								c2.7-2.7,2.8-7,0.2-9.8l-19.1-20.4c-1.3-1.4-3.1-2.2-4.9-2.2C-607.2,601.9-607.2,601.9-607.3,601.9L-607.3,601.9z"/>
						</g>
						<g id="XMLID_28_">
							<path fill="#F7F7F7" d="M-605.5,649.9c-1,0-1.9-0.4-2.5-1.1l-19.1-20.7c-1.3-1.4-1.2-3.6,0.1-4.9l6.5-6.3
								c0.7-0.6,1.5-1,2.4-1c0,0,0.1,0,0.1,0c0.9,0,1.8,0.4,2.5,1.1l19.1,20.6c1.3,1.4,1.2,3.5-0.1,4.9l-6.5,6.5
								C-603.6,649.5-604.5,649.9-605.5,649.9C-605.4,649.9-605.5,649.9-605.5,649.9z"/>
							<path fill="#F7F7F7" d="M-618,619.3l19.1,20.6l-6.5,6.5l-19.1-20.7L-618,619.3 M-618,612.3c-1.8,0-3.6,0.7-4.9,2l-6.5,6.3
								c-2.7,2.6-2.8,7-0.3,9.8l19.1,20.7c1.3,1.4,3.1,2.2,5,2.3c0.1,0,0.1,0,0.2,0c1.8,0,3.6-0.7,4.9-2l6.5-6.5
								c2.7-2.7,2.8-7,0.2-9.7l-19.1-20.6c-1.3-1.4-3.1-2.2-4.9-2.2C-617.9,612.3-617.9,612.3-618,612.3L-618,612.3z"/>
						</g>
						<g id="XMLID_27_">
							<path fill="#F7F7F7" d="M-573.5,618.2c-0.9,0-1.8-0.4-2.5-1.1l-19.1-20c-1.3-1.4-1.3-3.6,0.1-4.9l6.3-6.1
								c0.7-0.6,1.5-1,2.4-1c0,0,0,0,0.1,0c0.9,0,1.8,0.4,2.5,1.1l19.1,19.9c1.3,1.4,1.3,3.6-0.1,4.9l-6.3,6.2
								C-571.6,617.8-572.5,618.2-573.5,618.2C-573.5,618.2-573.5,618.2-573.5,618.2z"/>
							<path fill="#F7F7F7" d="M-586.3,588.6l19.1,19.9l-6.3,6.2l-19.1-20L-586.3,588.6 M-586.3,581.6c-1.8,0-3.6,0.7-4.9,2
								l-6.3,6.1c-2.8,2.7-2.8,7.1-0.2,9.9l19.1,20c1.3,1.4,3.1,2.1,5,2.2c0,0,0.1,0,0.1,0c1.8,0,3.6-0.7,4.9-2l6.3-6.2
								c2.7-2.7,2.8-7.1,0.1-9.8l-19.1-19.9c-1.3-1.3-3.1-2.1-4.9-2.2C-586.2,581.6-586.2,581.6-586.3,581.6L-586.3,581.6z"/>
						</g>
						<g id="XMLID_26_">
							<path fill="#F7F7F7" d="M-584,628.6c-0.9,0-1.8-0.4-2.5-1.1l-19.1-20.3c-1.3-1.4-1.3-3.6,0.1-4.9l6.3-6.1
								c0.7-0.6,1.5-1,2.4-1c0,0,0,0,0.1,0c0.9,0,1.8,0.4,2.5,1.1l19.1,20.1c1.3,1.4,1.3,3.6-0.1,4.9l-6.3,6.3
								C-582.2,628.2-583,628.6-584,628.6C-584,628.6-584,628.6-584,628.6z"/>
							<path fill="#F7F7F7" d="M-596.7,598.7l19.1,20.1l-6.3,6.3l-19.1-20.3L-596.7,598.7 M-596.7,591.7c-1.8,0-3.6,0.7-4.9,2
								l-6.3,6.1c-2.7,2.7-2.8,7-0.2,9.8l19.1,20.3c1.3,1.4,3.1,2.2,5,2.2c0,0,0.1,0,0.1,0c1.8,0,3.6-0.7,4.9-2l6.3-6.3
								c2.7-2.7,2.8-7,0.1-9.8l-19.1-20.1c-1.3-1.4-3.1-2.1-4.9-2.2C-596.6,591.7-596.6,591.7-596.7,591.7L-596.7,591.7z"/>
						</g>
					</g>
					<g id="XMLID_24_">
						<path fill="#F7F7F7" d="M-563.6,596.5c-3,0-5.8-1.2-7.9-3.3c-4.3-4.4-4-11.7,0.6-16.2c2.3-2.2,5.2-3.4,8.3-3.4
							c3,0,5.8,1.2,7.8,3.3c4.3,4.4,4.1,11.6-0.5,16.2C-557.5,595.3-560.5,596.5-563.6,596.5z"/>
						<path fill="#F7F7F7" d="M-562.6,577.1c2,0,3.9,0.7,5.3,2.2c3,3,2.8,8.1-0.4,11.2c-1.7,1.6-3.8,2.5-5.9,2.5
							c-2,0-3.9-0.7-5.4-2.2c-3-3.1-2.7-8.1,0.5-11.2C-566.8,577.9-564.7,577.1-562.6,577.1 M-562.6,570.1
							C-562.6,570.1-562.6,570.1-562.6,570.1c-4,0-7.8,1.6-10.7,4.4c-6,5.8-6.3,15.3-0.7,21.1c2.7,2.8,6.4,4.4,10.4,4.4
							c4,0,7.9-1.6,10.8-4.5c5.9-5.9,6.2-15.3,0.5-21.1C-555,571.6-558.6,570.1-562.6,570.1L-562.6,570.1z"/>
					</g>
					<g id="XMLID_23_">
						<path fill="#F7F7F7" d="M-563.5,594.9c-2.6,0-5-1-6.8-2.8c-3.7-3.8-3.5-10,0.5-13.9c1.9-1.9,4.4-2.9,7.1-2.9
							c2.6,0,5,1,6.7,2.8c3.7,3.8,3.5,10-0.4,13.9C-558.3,593.8-560.8,594.9-563.5,594.9z"/>
						<path fill="#F7F7F7" d="M-562.7,578.7c1.6,0,3.1,0.6,4.2,1.8c2.4,2.4,2.2,6.4-0.4,8.9c-1.3,1.3-3,1.9-4.7,1.9
							c-1.6,0-3.1-0.6-4.3-1.8c-2.4-2.4-2.2-6.4,0.4-8.9C-566,579.4-564.3,578.7-562.7,578.7 M-562.7,571.7
							C-562.7,571.7-562.7,571.7-562.7,571.7c-3.6,0-6.9,1.4-9.5,3.9c-5.3,5.2-5.6,13.6-0.5,18.8c2.4,2.5,5.7,3.9,9.3,3.9
							c3.6,0,7-1.4,9.6-4c5.3-5.2,5.5-13.7,0.4-18.8C-555.9,573.1-559.2,571.7-562.7,571.7L-562.7,571.7z"/>
					</g>
				</g>
			</g>
		</g>
		<g id="XMLID_173_">
			<g id="XMLID_227_">
				<g id="XMLID_260_">
					<g>
						<path id="XMLID_21_" fill="#9E9E9F" d="M-564.7,589.5c0.1,0.1,0.1,0.2,0.2,0.2l25.6,9.2c0.4,0.1,0.9,0,1.3-0.4l141.4-150
							c0.4-0.4,0.7-0.9,0.8-1.4l11.9-34.4c0.1-0.3,0-0.7-0.2-0.8L-564.7,589.5z"/>
						<path id="XMLID_7_" fill="#9E9E9F" d="M-564.7,589.5c-0.1-0.1-0.2-0.1-0.2-0.2l-8.4-25.5c-0.1-0.4,0-0.9,0.4-1.3l150.6-136.7
							c0.4-0.4,0.9-0.7,1.4-0.9l36.2-13.2c0.4-0.1,0.7-0.1,0.9,0.1L-564.7,589.5z"/>
					</g>
					<g>
						<path id="XMLID_6_" fill="#DBDCDC" d="M-564.7,586.6c0.1,0.1,0.1,0.2,0.2,0.2l25.6,9.2c0.4,0.1,0.9,0,1.3-0.4l141.4-150
							c0.4-0.4,0.7-0.9,0.8-1.4l11.9-34.4c0.1-0.3,0-0.7-0.2-0.8L-564.7,586.6z"/>
						<path id="XMLID_5_" fill="#9E9E9F" d="M-564.7,586.6c-0.1-0.1-0.2-0.1-0.2-0.2l-8.4-25.5c-0.1-0.4,0-0.9,0.4-1.3L-422.3,423
							c0.4-0.4,0.9-0.7,1.4-0.9l36.2-13.2c0.4-0.1,0.7-0.1,0.9,0.1L-564.7,586.6z"/>
					</g>
				</g>
				<g id="XMLID_252_">
					<g>
						<polygon fill="#754C24" points="-580.1,584 -561,603.7 -611.9,654.3 -631,633.4 						"/>
					</g>
					<g>
						<polygon fill="#BB7434" points="-580.1,582.6 -561,602.3 -611.9,652.8 -631,631.9 						"/>
					</g>
				</g>
				<g id="XMLID_244_">
					<g>
						<path fill="#E8BA00" d="M-585.9,549.6l61.6,62.8c3.9,4,3.8,10.7-0.3,15l0,0c-4.1,4.2-10.7,4.4-14.7,0.3l-61.7-63.9
							c-3.7-3.8-3.2-10.1,0.9-13.9l0,0C-595.9,546-589.5,545.9-585.9,549.6z"/>
					</g>
					<g>
						<path fill="#FFCD02" d="M-585.9,546.8l61.6,62.8c3.9,4,3.8,10.7-0.3,15v0c-4.1,4.2-10.7,4.4-14.7,0.3l-61.7-63.9
							c-3.7-3.8-3.2-10.1,0.9-13.9l0,0C-595.9,543.2-589.5,543.1-585.9,546.8z"/>
					</g>
				</g>
				<g id="XMLID_238_">
					<g>
						<path fill="#E8BA00" d="M-631,634.8l19.1,20.9c2.2,2.5,2,6.6-0.6,9.2l-0.6,0.6c-2.6,2.6-6.6,2.7-8.8,0.2l-19.1-21.1
							c-2.2-2.4-1.8-6.5,0.8-9l0.6-0.6C-637.1,632.5-633.2,632.4-631,634.8z"/>
					</g>
					<g>
						<path fill="#FFCD02" d="M-631,632l19.1,20.9c2.2,2.5,2,6.6-0.6,9.2l-0.6,0.6c-2.6,2.6-6.6,2.7-8.8,0.2l-19.1-21.1
							c-2.2-2.4-1.8-6.5,0.8-9l0.6-0.6C-637.1,629.6-633.2,629.6-631,632z"/>
					</g>
				</g>
				<g id="XMLID_228_">
					<polygon id="XMLID_237_" fill="#8C6239" points="-607.3,608.9 -588.2,629.3 -594.6,635.7 -613.7,615.2 					"/>
					<polygon id="XMLID_236_" fill="#8C6239" points="-618,619.3 -598.9,639.9 -605.4,646.4 -624.5,625.6 					"/>
					<polygon id="XMLID_235_" fill="#8C6239" points="-586.3,588.6 -567.2,608.5 -573.5,614.7 -592.5,594.6 					"/>
					<polygon id="XMLID_234_" fill="#8C6239" points="-596.7,598.7 -577.6,618.8 -584,625.1 -603,604.8 					"/>
				</g>
			</g>
			<g id="XMLID_174_">
				<g id="XMLID_205_">
					<g>
						<path id="XMLID_9_" fill="#717071" d="M-443.3,587.1c0.1-0.1,0.2-0.1,0.2-0.3l8.7-25.6c0.1-0.4,0-0.9-0.4-1.2l-148.8-132.6
							c-0.4-0.4-0.9-0.7-1.4-0.8l-36.9-12.6c-0.4-0.1-0.7,0-1,0.1L-443.3,587.1z"/>
						<path id="XMLID_4_" fill="#717071" d="M-443.3,587.1c-0.1,0.1-0.1,0.2-0.2,0.3l-25.5,10.2c-0.4,0.2-0.9,0-1.3-0.4
							l-140.2-146.3c-0.4-0.4-0.7-0.9-0.8-1.4l-11.7-34.5c-0.1-0.3,0-0.7,0.2-0.9L-443.3,587.1z"/>
					</g>
					<g>
						<path id="XMLID_3_" fill="#DBDCDC" d="M-443.3,584.3c0.1-0.1,0.2-0.1,0.2-0.3l8.7-25.6c0.1-0.4,0-0.9-0.4-1.2l-148.8-132.6
							c-0.4-0.4-0.9-0.7-1.4-0.8l-36.9-12.6c-0.4-0.1-0.7,0-1,0.1L-443.3,584.3z"/>
						<path id="XMLID_2_" fill="#9E9E9F" d="M-443.3,584.3c-0.1,0.1-0.1,0.2-0.2,0.3l-25.5,10.2c-0.4,0.2-0.9,0-1.3-0.4
							l-140.2-146.3c-0.4-0.4-0.7-0.9-0.8-1.4l-11.7-34.5c-0.1-0.3,0-0.7,0.2-0.9L-443.3,584.3z"/>
					</g>
				</g>
				<g id="XMLID_196_">
					<g>
						<polygon fill="#754C24" points="-447.2,601.5 -428.2,581.1 -379.1,627.9 -398,649.4 						"/>
					</g>
					<g>
						<polygon fill="#BB7434" points="-447.2,600.1 -428.2,579.7 -379.1,626.5 -398,648 						"/>
					</g>
				</g>
				<g id="XMLID_187_">
					<g>
						<path fill="#E8BA00" d="M-483.8,611.6l61.9-64.8c3.6-3.8,9.9-3.9,13.8-0.2h0c4,3.7,4.3,9.9,0.7,13.8l-61.8,65.8
							c-4,4.2-10.5,4.4-14.6,0.3l0,0C-487.8,622.5-487.8,615.8-483.8,611.6z"/>
					</g>
					<g>
						<path fill="#FFCD02" d="M-483.8,608.8l61.9-64.8c3.6-3.8,9.9-3.9,13.8-0.2l0,0c4,3.7,4.3,9.9,0.7,13.8l-61.8,65.8
							c-4,4.2-10.5,4.4-14.6,0.3v0C-487.8,619.7-487.8,613-483.8,608.8z"/>
					</g>
				</g>
				<g id="XMLID_181_">
					<g>
						<path fill="#E8BA00" d="M-398,650.8l18.9-21.4c2.2-2.5,6-2.5,8.5-0.2l0.6,0.6c2.5,2.4,2.8,6.3,0.6,8.8l-18.9,21.7
							c-2.2,2.6-6.1,2.7-8.6,0.2l-0.6-0.6C-400,657.4-400.2,653.3-398,650.8z"/>
					</g>
					<g>
						<path fill="#FFCD02" d="M-398,648l18.9-21.4c2.2-2.5,6-2.5,8.5-0.2l0.6,0.6c2.5,2.4,2.8,6.3,0.6,8.8l-18.9,21.7
							c-2.2,2.6-6.1,2.7-8.6,0.2l-0.6-0.6C-400,654.6-400.2,650.5-398,648z"/>
					</g>
				</g>
				<g id="XMLID_176_">
					<polygon id="XMLID_180_" fill="#8C6239" points="-420.9,625.7 -401.9,604.8 -395.7,610.7 -414.7,631.7 					"/>
					<polygon id="XMLID_179_" fill="#8C6239" points="-410.5,635.8 -391.6,614.6 -385.3,620.6 -404.3,641.9 					"/>
					<polygon id="XMLID_178_" fill="#8C6239" points="-441.2,605.9 -422.2,585.4 -416.1,591.2 -435.2,611.8 					"/>
					<polygon id="XMLID_177_" fill="#8C6239" points="-431.1,615.8 -412.1,595.1 -406,600.9 -425,621.7 					"/>
				</g>
			</g>
		</g>
	</g>
</g>
</svg>
