<?xml version="1.0" encoding="utf-8"?>
<!-- Generator: Adobe Illustrator 19.0.0, SVG Export Plug-In . SVG Version: 6.00 Build 0)  -->
<svg version="1.2" baseProfile="tiny" id="圖層_1"
	 xmlns="http://www.w3.org/2000/svg" xmlns:xlink="http://www.w3.org/1999/xlink" x="0px" y="0px" viewBox="-732 310 453.5 462"
	 xml:space="preserve">
<g id="XMLID_166_">
	<g id="XMLID_453_">
		<g id="XMLID_454_">
			<g id="XMLID_456_">
				<g>
					<path fill="#8C6239" d="M-363.5,772H-647c-47,0-85-38.1-85-85V403.5c0-47,38.1-85,85-85h283.5c47,0,85,38.1,85,85V687
						C-278.5,734-316.6,772-363.5,772z"/>
				</g>
				<g>
					<path fill="#BB7434" d="M-363.5,763.5H-647c-47,0-85-38.1-85-85V395c0-47,38.1-85,85-85h283.5c47,0,85,38.1,85,85v283.5
						C-278.5,725.5-316.6,763.5-363.5,763.5z"/>
				</g>
			</g>
			<path id="XMLID_455_" fill="#623F1E" d="M-382.2,729.4h-246.1c-38.4,0-69.6-31.2-69.6-69.6V413.7c0-38.4,31.2-69.6,69.6-69.6
				h246.1c38.4,0,69.6,31.2,69.6,69.6v246.1C-312.6,698.3-343.8,729.4-382.2,729.4z"/>
		</g>
	</g>
	<g id="XMLID_167_">
		<g id="XMLID_433_">
			<g id="XMLID_441_">
				<g>
					<path fill="#DBDCDC" d="M-498.1,673.6c-0.4,0-0.8,0-1.2-0.1l-24.8-2.6c-6-0.6-10.4-6-9.8-12.1l12.5-119.9
						c0.4-3.4-0.2-6.9-1.7-10l-2.4-4.9c-2.6-5.4-3.6-11.4-3-17.3l7.9-75.6c0.5-4.4,4.2-7.8,8.6-7.8c0.7,0,1.4,0.1,2.1,0.2
						c2.8,0.7,4.9,2.7,6,5.2l0.9-8.7c0.5-4.4,4.2-7.8,8.6-7.8c0.7,0,1.4,0.1,2.1,0.2c3,0.7,5.3,3,6.2,5.8l0.4-4
						c0.5-4.4,4.2-7.8,8.6-7.8c0.7,0,1.4,0.1,2.1,0.2c4.2,1,7,5.1,6.6,9.6l-6,56.9l0.1,0l4.6-44.4c0.5-4.4,4.2-7.8,8.6-7.8
						c0.7,0,1.4,0.1,2,0.2c4.2,1,7,5.1,6.6,9.6l-7,66.8c0,0.1,0,0.1,0.1,0.1c0,0,0.1,0,0.2-0.1l10-8.1c2-1.6,4.5-2.5,7-2.5
						c2.7,0,5.2,1,7.1,2.7c2.3,2.1,3.6,5.1,3.6,8.3c-0.1,3.2-1.5,6.1-4,8.1l-32,25.9c-4.3,3.5-6.9,8.4-7.5,13.9L-487,663.6
						C-487.6,669.3-492.3,673.6-498.1,673.6C-498.1,673.6-498.1,673.6-498.1,673.6z"/>
					<path fill="#DBDCDC" d="M-476.9,410.2c0.4,0,0.8,0,1.2,0.1c2.6,0.6,4.2,3.2,3.9,5.8l-6.1,58.2c-0.1,1.2,0.8,2.3,2,2.4l2.7,0.3
						c0.1,0,0.2,0,0.2,0c1.1,0,2.1-0.8,2.2-2l4.8-45.7c0.3-2.7,2.5-4.7,5.2-4.7c0.4,0,0.8,0,1.2,0.1c2.6,0.6,4.2,3.2,3.9,5.8
						l-7,66.8c-0.1,1.4,0.5,2.8,1.8,3.5c0.5,0.3,1.1,0.5,1.7,0.5c0.9,0,1.7-0.3,2.4-0.9l10-8.1c1.4-1.1,3.1-1.7,4.8-1.7
						c1.7,0,3.4,0.6,4.8,1.8c3.4,3.1,3.1,8.3-0.3,11.1l-32,25.9c-5,4-8.1,9.9-8.8,16.2l-12.3,117.5c-0.4,3.9-3.7,6.9-7.6,6.9
						c-0.3,0-0.5,0-0.8,0l-24.8-2.6c-4.1-0.4-7.1-4.1-6.7-8.2l12.5-119.9c0.4-4.1-0.3-8.2-2.1-11.9l-2.4-4.9
						c-2.3-4.8-3.2-10.1-2.7-15.4l0.5-4.8l1.6-14.9l5.9-56c0.3-2.7,2.5-4.7,5.2-4.7c0.4,0,0.8,0,1.2,0.1c2.6,0.6,4.2,3.2,3.9,5.8
						l-4,38.1c-0.1,1.2,0.7,2.3,2,2.4l1.6,0.2c0.1,0,0.2,0,0.2,0c1.1,0,2-0.8,2.2-2l5.3-51c0.3-2.7,2.5-4.7,5.2-4.7
						c0.4,0,0.8,0,1.2,0.1c2.6,0.6,4.2,3.2,3.9,5.8l-5.3,50.8c-0.1,1.2,0.8,2.3,2,2.4l1.8,0.2c0.1,0,0.2,0,0.2,0
						c1.1,0,2.1-0.8,2.2-2l6.1-58.4C-481.8,412.2-479.5,410.2-476.9,410.2 M-476.9,403.2C-476.9,403.2-476.9,403.2-476.9,403.2
						c-5,0-9.3,3-11.2,7.3c-1-0.6-2.1-1-3.3-1.3c-0.9-0.2-1.9-0.3-2.9-0.3c-6.3,0-11.5,4.7-12.1,10.9l-0.1,1.3
						c-0.8-0.4-1.6-0.7-2.4-0.9c-0.9-0.2-1.9-0.3-2.9-0.3c-6.3,0-11.5,4.7-12.1,10.9l-5.9,56l-1.6,14.9l-0.5,4.8
						c-0.7,6.6,0.5,13.2,3.3,19.2l2.4,4.9c1.2,2.5,1.7,5.4,1.4,8.1l-12.5,119.9c-0.4,3.8,0.7,7.6,3.2,10.6c2.4,3,5.9,4.9,9.7,5.3
						l24.8,2.6c0.5,0.1,1,0.1,1.5,0.1c7.5,0,13.8-5.6,14.6-13.1l12.3-117.5c0.5-4.5,2.7-8.6,6.2-11.5l32-25.9
						c3.2-2.6,5.2-6.5,5.3-10.7c0.1-4.2-1.6-8.2-4.7-11c-2.6-2.3-5.9-3.6-9.5-3.6c-3.3,0-6.6,1.2-9.2,3.3l-3.7,3l6.1-58.7
						c0.6-6.2-3.3-11.9-9.2-13.3c-0.9-0.2-1.9-0.3-2.9-0.3c-1.5,0-2.9,0.3-4.1,0.7l0.2-1.6c0.6-6.2-3.3-11.9-9.2-13.3
						C-475,403.3-476,403.2-476.9,403.2L-476.9,403.2z"/>
				</g>
				<g>
					<path fill="#2ECC71" d="M-498.1,667.9c-0.4,0-0.8,0-1.2-0.1l-24.8-2.6c-6-0.6-10.4-6-9.8-12.1l12.5-119.9
						c0.4-3.4-0.2-6.9-1.7-10l-2.4-4.9c-2.6-5.4-3.6-11.4-3-17.3l7.9-75.6c0.5-4.4,4.2-7.8,8.6-7.8c0.7,0,1.4,0.1,2.1,0.2
						c2.8,0.7,4.9,2.7,6,5.2l0.9-8.7c0.5-4.4,4.2-7.8,8.6-7.8c0.7,0,1.4,0.1,2.1,0.2c3,0.7,5.3,3,6.2,5.8l0.4-4
						c0.5-4.4,4.2-7.8,8.6-7.8c0.7,0,1.4,0.1,2.1,0.2c4.2,1,7,5.1,6.6,9.6l-6,56.9l0.1,0l4.6-44.4c0.5-4.4,4.2-7.8,8.6-7.8
						c0.7,0,1.4,0.1,2,0.2c4.2,1,7,5.1,6.6,9.6l-7,66.8c0,0.1,0,0.1,0.1,0.1c0,0,0.1,0,0.2-0.1l10-8.1c2-1.6,4.5-2.5,7-2.5
						c2.7,0,5.2,1,7.1,2.7c2.3,2.1,3.6,5.1,3.6,8.3c-0.1,3.2-1.5,6.1-4,8.1l-32,25.9c-4.3,3.5-6.9,8.4-7.5,13.9L-487,657.9
						C-487.6,663.6-492.3,667.9-498.1,667.9C-498.1,667.9-498.1,667.9-498.1,667.9z"/>
					<path fill="#F7F7F7" d="M-476.9,404.5c0.4,0,0.8,0,1.2,0.1c2.6,0.6,4.2,3.2,3.9,5.8l-6.1,58.2c-0.1,1.2,0.8,2.3,2,2.4l2.7,0.3
						c0.1,0,0.2,0,0.2,0c1.1,0,2.1-0.8,2.2-2l4.8-45.7c0.3-2.7,2.5-4.7,5.2-4.7c0.4,0,0.8,0,1.2,0.1c2.6,0.6,4.2,3.2,3.9,5.8
						l-7,66.8c-0.1,1.4,0.5,2.8,1.8,3.5c0.5,0.3,1.1,0.5,1.7,0.5c0.9,0,1.7-0.3,2.4-0.9l10-8.1c1.4-1.1,3.1-1.7,4.8-1.7
						c1.7,0,3.4,0.6,4.8,1.8c3.4,3.1,3.1,8.3-0.3,11.1l-32,25.9c-5,4-8.1,9.9-8.8,16.2l-12.3,117.5c-0.4,3.9-3.7,6.9-7.6,6.9
						c-0.3,0-0.5,0-0.8,0l-24.8-2.6c-4.1-0.4-7.1-4.1-6.7-8.2l12.5-119.9c0.4-4.1-0.3-8.2-2.1-11.9l-2.4-4.9
						c-2.3-4.8-3.2-10.1-2.7-15.4l0.5-4.8l1.6-14.9l5.9-56c0.3-2.7,2.5-4.7,5.2-4.7c0.4,0,0.8,0,1.2,0.1c2.6,0.6,4.2,3.2,3.9,5.8
						l-4,38.1c-0.1,1.2,0.7,2.3,2,2.4l1.6,0.2c0.1,0,0.2,0,0.2,0c1.1,0,2-0.8,2.2-2l5.3-51c0.3-2.7,2.5-4.7,5.2-4.7
						c0.4,0,0.8,0,1.2,0.1c2.6,0.6,4.2,3.2,3.9,5.8l-5.3,50.8c-0.1,1.2,0.8,2.3,2,2.4l1.8,0.2c0.1,0,0.2,0,0.2,0
						c1.1,0,2.1-0.8,2.2-2l6.1-58.4C-481.8,406.5-479.5,404.5-476.9,404.5 M-476.9,397.5C-476.9,397.5-476.9,397.5-476.9,397.5
						c-5,0-9.3,3-11.2,7.3c-1-0.6-2.1-1-3.3-1.3c-0.9-0.2-1.9-0.3-2.9-0.3c-6.3,0-11.5,4.7-12.1,10.9l-0.1,1.3
						c-0.8-0.4-1.6-0.7-2.4-0.9c-0.9-0.2-1.9-0.3-2.9-0.3c-6.3,0-11.5,4.7-12.1,10.9l-5.9,56l-1.6,14.9l-0.5,4.8
						c-0.7,6.6,0.5,13.2,3.3,19.2l2.4,4.9c1.2,2.5,1.7,5.4,1.4,8.1l-12.5,119.9c-0.4,3.8,0.7,7.6,3.2,10.6c2.4,3,5.9,4.9,9.7,5.3
						l24.8,2.6c0.5,0.1,1,0.1,1.5,0.1c7.5,0,13.8-5.6,14.6-13.1l12.3-117.5c0.5-4.5,2.7-8.6,6.2-11.5l32-25.9
						c3.2-2.6,5.2-6.5,5.3-10.7c0.1-4.2-1.6-8.2-4.7-11c-2.6-2.3-5.9-3.6-9.5-3.6c-3.3,0-6.6,1.2-9.2,3.3l-3.7,3l6.1-58.7
						c0.6-6.2-3.3-11.9-9.2-13.3c-0.9-0.2-1.9-0.3-2.9-0.3c-1.5,0-2.9,0.3-4.1,0.7l0.2-1.6c0.6-6.2-3.3-11.9-9.2-13.3
						C-475,397.6-476,397.5-476.9,397.5L-476.9,397.5z"/>
				</g>
			</g>
			<g id="XMLID_434_">
				<g>
					<path fill="#1E7F93" d="M-519.9,524.6c1.8,3.7,2.5,7.8,2.1,11.9l-12.5,119.9c-0.4,4.1,2.6,7.8,6.7,8.2l24.8,2.6
						c4.2,0.4,8-2.6,8.4-6.8l12.3-117.5c0.7-6.4,3.8-12.2,8.8-16.2l32-25.9c3.4-2.8,3.7-8,0.3-11.1c-2.7-2.4-6.8-2.4-9.6-0.1
						l-10,8.1c-1.2,1-2.9,1.2-4.2,0.4c-1.3-0.7-1.9-2.1-1.8-3.5l7-66.8c0.3-2.6-1.4-5.2-3.9-5.8c-3.1-0.7-6.1,1.4-6.4,4.5l-4.8,45.7
						c-0.1,1.2-1.2,2.1-2.4,2l-2.7-0.3c-1.2-0.1-2.1-1.2-2-2.4l6.1-58.2c0.3-2.6-1.4-5.2-3.9-5.8c-3.1-0.7-6.1,1.4-6.4,4.5
						l-6.1,58.4c-0.1,1.2-1.2,2.1-2.4,2l-1.8-0.2c-1.2-0.1-2.1-1.2-2-2.4l5.3-50.8c0.3-2.6-1.4-5.2-3.9-5.8
						c-3.1-0.7-6.1,1.4-6.4,4.5l-5.3,51c-0.1,1.2-1.2,2.1-2.4,1.9l-1.6-0.2c-1.2-0.1-2.1-1.2-2-2.4l4-38.1c0.3-2.6-1.4-5.2-3.9-5.8
						c-3.1-0.7-6.1,1.4-6.4,4.5l-5.9,56l-1.6,14.9l-0.5,4.8c-0.6,5.3,0.4,10.6,2.7,15.4L-519.9,524.6z"/>
				</g>
				<g>
					<path fill="#17A2C7" d="M-519.9,521.8c1.8,3.7,2.5,7.8,2.1,11.9l-12.5,119.9c-0.4,4.1,2.6,7.8,6.7,8.2l24.8,2.6
						c4.2,0.4,8-2.6,8.4-6.8l12.3-117.5c0.7-6.4,3.8-12.2,8.8-16.2l32-25.9c3.4-2.8,3.7-8,0.3-11.1c-2.7-2.4-6.8-2.4-9.6-0.1
						l-10,8.1c-1.2,1-2.9,1.2-4.2,0.4c-1.3-0.7-1.9-2.1-1.8-3.5l7-66.8c0.3-2.6-1.4-5.2-3.9-5.8c-3.1-0.7-6.1,1.4-6.4,4.5l-4.8,45.7
						c-0.1,1.2-1.2,2.1-2.4,2l-2.7-0.3c-1.2-0.1-2.1-1.2-2-2.4l6.1-58.2c0.3-2.6-1.4-5.2-3.9-5.8c-3.1-0.7-6.1,1.4-6.4,4.5
						l-6.1,58.4c-0.1,1.2-1.2,2.1-2.4,2l-1.8-0.2c-1.2-0.1-2.1-1.2-2-2.4l5.3-50.8c0.3-2.6-1.4-5.2-3.9-5.8
						c-3.1-0.7-6.1,1.4-6.4,4.5l-5.3,51c-0.1,1.2-1.2,2.1-2.4,1.9l-1.6-0.2c-1.2-0.1-2.1-1.2-2-2.4l4-38.1c0.3-2.6-1.4-5.2-3.9-5.8
						c-3.1-0.7-6.1,1.4-6.4,4.5l-5.9,56l-1.6,14.9l-0.5,4.8c-0.6,5.3,0.4,10.6,2.7,15.4L-519.9,521.8z"/>
				</g>
			</g>
		</g>
		<g id="XMLID_411_">
			<g id="XMLID_420_">
				<g>
					<path fill="#DBDCDC" d="M-564.8,666.6c-0.4,0-0.8,0-1.2-0.1l-24.8-2.6c-6-0.6-10.4-6-9.8-12l5.5-52.7c0.4-3.4-0.2-6.9-1.7-10
						l-2.4-4.9c-2.6-5.4-3.6-11.4-3-17.3l7.9-75.6c0.5-4.4,4.2-7.8,8.6-7.8c0.7,0,1.4,0.1,2,0.2c2.8,0.7,4.9,2.7,6,5.2l0.9-8.7
						c0.5-4.4,4.2-7.8,8.6-7.8c0.7,0,1.4,0.1,2,0.2c3,0.7,5.3,3,6.2,5.8l0.4-3.9c0.5-4.4,4.2-7.8,8.6-7.8c0.7,0,1.4,0.1,2,0.2
						c4.2,1,7,5.1,6.6,9.6l-6,56.9l0.1,0l4.6-44.4c0.5-4.4,4.2-7.8,8.6-7.8c0.7,0,1.4,0.1,2,0.2c4.2,1,7,5.1,6.6,9.6l-7,66.8
						c0,0.1,0,0.1,0.1,0.1c0,0,0.1,0,0.2-0.1l10-8.1c2-1.6,4.5-2.5,7-2.5c2.7,0,5.2,1,7.1,2.7c2.3,2.1,3.6,5.1,3.6,8.3
						c-0.1,3.2-1.5,6.1-4,8.1l-32,25.9c-4.3,3.5-6.9,8.4-7.5,13.9l-5.3,50.3C-554.3,662.3-559,666.6-564.8,666.6
						C-564.8,666.6-564.8,666.6-564.8,666.6z"/>
					<path fill="#DBDCDC" d="M-550.6,470.4c0.4,0,0.8,0,1.2,0.1c2.6,0.6,4.2,3.2,3.9,5.8l-6.1,58.2c-0.1,1.2,0.8,2.3,2,2.4l2.7,0.3
						c0.1,0,0.2,0,0.2,0c1.1,0,2.1-0.8,2.2-2l4.8-45.7c0.3-2.7,2.5-4.7,5.2-4.7c0.4,0,0.8,0,1.2,0.1c2.6,0.6,4.2,3.2,3.9,5.8
						l-7,66.8c-0.1,1.4,0.5,2.8,1.8,3.5c0.5,0.3,1.1,0.5,1.7,0.5c0.9,0,1.7-0.3,2.4-0.9l10-8.1c1.4-1.1,3.1-1.7,4.8-1.7
						c1.7,0,3.4,0.6,4.8,1.8c3.4,3.1,3.1,8.3-0.3,11.1l-32,25.9c-5,4-8.1,9.9-8.8,16.2l-5.3,50.3c-0.4,3.9-3.7,6.9-7.6,6.9
						c-0.3,0-0.5,0-0.8,0l-24.8-2.6c-4.1-0.4-7.1-4.1-6.6-8.2l5.5-52.7c0.4-4.1-0.3-8.2-2.1-11.9l-2.4-4.9
						c-2.3-4.8-3.2-10.1-2.7-15.4l0.5-4.8l1.6-14.9l5.9-56c0.3-2.7,2.5-4.7,5.2-4.7c0.4,0,0.8,0,1.2,0.1c2.6,0.6,4.2,3.2,3.9,5.8
						l-4,38.1c-0.1,1.2,0.7,2.3,2,2.4l1.6,0.2c0.1,0,0.2,0,0.2,0c1.1,0,2-0.8,2.2-2l5.3-51c0.3-2.7,2.5-4.7,5.2-4.7
						c0.4,0,0.8,0,1.2,0.1c2.6,0.6,4.2,3.2,3.9,5.8l-5.3,50.8c-0.1,1.2,0.8,2.3,2,2.4l1.8,0.2c0.1,0,0.2,0,0.2,0
						c1.1,0,2.1-0.8,2.2-2l6.1-58.4C-555.5,472.4-553.3,470.4-550.6,470.4 M-550.6,463.4C-550.6,463.4-550.6,463.4-550.6,463.4
						c-5,0-9.3,3-11.2,7.3c-1-0.6-2.1-1-3.3-1.3c-0.9-0.2-1.9-0.3-2.9-0.3c-6.3,0-11.5,4.7-12.1,10.9l-0.1,1.3
						c-0.8-0.4-1.6-0.7-2.4-0.9c-0.9-0.2-1.9-0.3-2.9-0.3c-6.3,0-11.5,4.7-12.1,10.9l-5.9,56l-1.6,14.9l-0.5,4.8
						c-0.7,6.6,0.5,13.2,3.3,19.2l2.4,4.9c1.2,2.5,1.7,5.4,1.4,8.1l-5.5,52.7c-0.8,7.9,4.9,15,12.9,15.9l24.8,2.6
						c0.5,0.1,1,0.1,1.5,0.1c7.5,0,13.8-5.7,14.6-13.1l5.3-50.3c0.5-4.5,2.7-8.6,6.2-11.5l32-25.9c3.2-2.6,5.2-6.5,5.3-10.7
						c0.1-4.2-1.6-8.2-4.7-11c-2.6-2.3-5.9-3.6-9.5-3.6c-3.3,0-6.6,1.2-9.2,3.3l-3.7,3l6.1-58.7c0.6-6.2-3.3-11.9-9.2-13.3
						c-0.9-0.2-1.9-0.3-2.9-0.3c-1.5,0-2.9,0.3-4.2,0.7l0.2-1.6c0.6-6.2-3.3-11.9-9.2-13.3C-548.7,463.5-549.7,463.4-550.6,463.4
						L-550.6,463.4L-550.6,463.4z"/>
				</g>
				<g>
					<path fill="#FFCD02" d="M-564.8,660.9c-0.4,0-0.8,0-1.2-0.1l-24.8-2.6c-6-0.6-10.4-6-9.8-12l5.5-52.7c0.4-3.4-0.2-6.9-1.7-10
						l-2.4-4.9c-2.6-5.4-3.6-11.4-3-17.3l7.9-75.6c0.5-4.4,4.2-7.8,8.6-7.8c0.7,0,1.4,0.1,2,0.2c2.8,0.7,4.9,2.7,6,5.2l0.9-8.7
						c0.5-4.4,4.2-7.8,8.6-7.8c0.7,0,1.4,0.1,2,0.2c3,0.7,5.3,3,6.2,5.8l0.4-3.9c0.5-4.4,4.2-7.8,8.6-7.8c0.7,0,1.4,0.1,2,0.2
						c4.2,1,7,5.1,6.6,9.6l-6,56.9l0.1,0l4.6-44.4c0.5-4.4,4.2-7.8,8.6-7.8c0.7,0,1.4,0.1,2,0.2c4.2,1,7,5.1,6.6,9.6l-7,66.8
						c0,0.1,0,0.1,0.1,0.1c0,0,0.1,0,0.2-0.1l10-8.1c2-1.6,4.5-2.5,7-2.5c2.7,0,5.2,1,7.1,2.7c2.3,2.1,3.6,5.1,3.6,8.3
						c-0.1,3.2-1.5,6.1-4,8.1l-32,25.9c-4.3,3.5-6.9,8.4-7.5,13.9l-5.3,50.3C-554.3,656.6-559,660.9-564.8,660.9
						C-564.8,660.9-564.8,660.9-564.8,660.9z"/>
					<path fill="#F7F7F7" d="M-550.6,464.7c0.4,0,0.8,0,1.2,0.1c2.6,0.6,4.2,3.2,3.9,5.8l-6.1,58.2c-0.1,1.2,0.8,2.3,2,2.4l2.7,0.3
						c0.1,0,0.2,0,0.2,0c1.1,0,2.1-0.8,2.2-2l4.8-45.7c0.3-2.7,2.5-4.7,5.2-4.7c0.4,0,0.8,0,1.2,0.1c2.6,0.6,4.2,3.2,3.9,5.8
						l-7,66.8c-0.1,1.4,0.5,2.8,1.8,3.5c0.5,0.3,1.1,0.5,1.7,0.5c0.9,0,1.7-0.3,2.4-0.9l10-8.1c1.4-1.1,3.1-1.7,4.8-1.7
						c1.7,0,3.4,0.6,4.8,1.8c3.4,3.1,3.1,8.3-0.3,11.1l-32,25.9c-5,4-8.1,9.9-8.8,16.2l-5.3,50.3c-0.4,3.9-3.7,6.9-7.6,6.9
						c-0.3,0-0.5,0-0.8,0l-24.8-2.6c-4.1-0.4-7.1-4.1-6.6-8.2l5.5-52.7c0.4-4.1-0.3-8.2-2.1-11.9l-2.4-4.9
						c-2.3-4.8-3.2-10.1-2.7-15.4l0.5-4.8l1.6-14.9l5.9-56c0.3-2.7,2.5-4.7,5.2-4.7c0.4,0,0.8,0,1.2,0.1c2.6,0.6,4.2,3.2,3.9,5.8
						l-4,38.1c-0.1,1.2,0.7,2.3,2,2.4l1.6,0.2c0.1,0,0.2,0,0.2,0c1.1,0,2-0.8,2.2-2l5.3-51c0.3-2.7,2.5-4.7,5.2-4.7
						c0.4,0,0.8,0,1.2,0.1c2.6,0.6,4.2,3.2,3.9,5.8l-5.3,50.8c-0.1,1.2,0.8,2.3,2,2.4l1.8,0.2c0.1,0,0.2,0,0.2,0
						c1.1,0,2.1-0.8,2.2-2l6.1-58.4C-555.5,466.7-553.3,464.7-550.6,464.7 M-550.6,457.7C-550.6,457.7-550.6,457.7-550.6,457.7
						c-5,0-9.3,3-11.2,7.3c-1-0.6-2.1-1-3.3-1.3c-0.9-0.2-1.9-0.3-2.9-0.3c-6.3,0-11.5,4.7-12.1,10.9l-0.1,1.3
						c-0.8-0.4-1.6-0.7-2.4-0.9c-0.9-0.2-1.9-0.3-2.9-0.3c-6.3,0-11.5,4.7-12.1,10.9l-5.9,56l-1.6,14.9l-0.5,4.8
						c-0.7,6.6,0.5,13.2,3.3,19.2l2.4,4.9c1.2,2.5,1.7,5.4,1.4,8.1l-5.5,52.7c-0.8,7.9,4.9,15,12.9,15.9l24.8,2.6
						c0.5,0.1,1,0.1,1.5,0.1c7.5,0,13.8-5.7,14.6-13.1l5.3-50.3c0.5-4.5,2.7-8.6,6.2-11.5l32-25.9c3.2-2.6,5.2-6.5,5.3-10.7
						c0.1-4.2-1.6-8.2-4.7-11c-2.6-2.3-5.9-3.6-9.5-3.6c-3.3,0-6.6,1.2-9.2,3.3l-3.7,3l6.1-58.7c0.6-6.2-3.3-11.9-9.2-13.3
						c-0.9-0.2-1.9-0.3-2.9-0.3c-1.5,0-2.9,0.3-4.2,0.7l0.2-1.6c0.6-6.2-3.3-11.9-9.2-13.3C-548.7,457.8-549.7,457.7-550.6,457.7
						L-550.6,457.7L-550.6,457.7z"/>
				</g>
			</g>
			<g id="XMLID_412_">
				<g>
					<path fill="#E8BA00" d="M-593.6,584.8c1.8,3.7,2.5,7.8,2.1,11.9l-5.5,52.7c-0.4,4.1,2.5,7.8,6.6,8.2l24.8,2.6
						c4.2,0.4,8-2.6,8.4-6.8l5.3-50.3c0.7-6.4,3.8-12.2,8.8-16.2l32-25.9c3.4-2.8,3.7-8,0.3-11.1c-2.7-2.4-6.8-2.4-9.6-0.1l-10,8.1
						c-1.2,1-2.9,1.2-4.2,0.4c-1.3-0.7-1.9-2.1-1.8-3.5l7-66.8c0.3-2.6-1.4-5.2-3.9-5.8c-3.1-0.7-6.1,1.4-6.4,4.5l-4.8,45.7
						c-0.1,1.2-1.2,2.1-2.4,2l-2.7-0.3c-1.2-0.1-2.1-1.2-2-2.4l6.1-58.2c0.3-2.6-1.4-5.2-3.9-5.8c-3.1-0.7-6.1,1.4-6.4,4.5
						l-6.1,58.4c-0.1,1.2-1.2,2.1-2.4,2l-1.8-0.2c-1.2-0.1-2.1-1.2-2-2.4l5.3-50.8c0.3-2.6-1.4-5.2-3.9-5.8
						c-3.1-0.7-6.1,1.4-6.4,4.5l-5.3,51c-0.1,1.2-1.2,2.1-2.4,1.9l-1.6-0.2c-1.2-0.1-2.1-1.2-2-2.4l4-38.1c0.3-2.6-1.4-5.2-3.9-5.8
						c-3.1-0.7-6.1,1.4-6.4,4.5l-5.9,56l-1.6,14.9l-0.5,4.8c-0.6,5.3,0.4,10.6,2.7,15.4L-593.6,584.8z"/>
				</g>
				<g>
					<path fill="#FFCD02" d="M-593.6,582c1.8,3.7,2.5,7.8,2.1,11.9l-5.5,52.7c-0.4,4.1,2.5,7.8,6.6,8.2l24.8,2.6
						c4.2,0.4,8-2.6,8.4-6.8l5.3-50.3c0.7-6.4,3.8-12.2,8.8-16.2l32-25.9c3.4-2.8,3.7-8,0.3-11.1c-2.7-2.4-6.8-2.4-9.6-0.1l-10,8.1
						c-1.2,1-2.9,1.2-4.2,0.4c-1.3-0.7-1.9-2.1-1.8-3.5l7-66.8c0.3-2.6-1.4-5.2-3.9-5.8c-3.1-0.7-6.1,1.4-6.4,4.5l-4.8,45.7
						c-0.1,1.2-1.2,2.1-2.4,2l-2.7-0.3c-1.2-0.1-2.1-1.2-2-2.4l6.1-58.2c0.3-2.6-1.4-5.2-3.9-5.8c-3.1-0.7-6.1,1.4-6.4,4.5
						l-6.1,58.4c-0.1,1.2-1.2,2.1-2.4,2l-1.8-0.2c-1.2-0.1-2.1-1.2-2-2.4l5.3-50.8c0.3-2.6-1.4-5.2-3.9-5.8
						c-3.1-0.7-6.1,1.4-6.4,4.5l-5.3,51c-0.1,1.2-1.2,2.1-2.4,1.9l-1.6-0.2c-1.2-0.1-2.1-1.2-2-2.4l4-38.1c0.3-2.6-1.4-5.2-3.9-5.8
						c-3.1-0.7-6.1,1.4-6.4,4.5l-5.9,56l-1.6,14.9l-0.5,4.8c-0.6,5.3,0.4,10.6,2.7,15.4L-593.6,582z"/>
				</g>
			</g>
		</g>
		<g id="XMLID_365_">
			<g id="XMLID_397_">
				<g>
					<path fill="#DBDCDC" d="M-453.8,678.2c-0.4,0-0.8,0-1.2-0.1l-24.8-2.6c-6.1-0.6-10.5-6.1-9.8-12.1l2.5-24
						c0.4-3.4-0.2-6.9-1.7-10l-2.4-4.9c-2.6-5.4-3.6-11.4-3-17.3l7.9-75.6c0.5-4.4,4.2-7.8,8.6-7.8c0.7,0,1.4,0.1,2,0.2
						c2.8,0.7,4.9,2.7,6,5.2l0.9-8.7c0.5-4.4,4.2-7.8,8.6-7.8c0.7,0,1.4,0.1,2,0.2c3,0.7,5.3,3,6.2,5.8l0.4-3.9
						c0.5-4.4,4.2-7.8,8.6-7.8c0.7,0,1.4,0.1,2,0.2c4.2,1,7,5.1,6.6,9.6l-6,56.9l0.1,0l4.6-44.4c0.5-4.4,4.2-7.8,8.7-7.8
						c0.7,0,1.4,0.1,2,0.2c4.2,1,7,5.1,6.6,9.6l-7,66.8c0,0.1,0,0.1,0.1,0.1c0,0,0.1,0,0.2-0.1l10-8.1c2-1.6,4.5-2.5,7-2.5
						c2.7,0,5.2,1,7.1,2.7c2.3,2.1,3.6,5.1,3.6,8.3c-0.1,3.2-1.5,6.1-4,8.1l-32,25.9c-4.3,3.5-6.9,8.4-7.5,13.9l-2.3,21.7
						C-443.5,674-448.2,678.2-453.8,678.2L-453.8,678.2z"/>
					<path fill="#DBDCDC" d="M-442.8,510.6c0.4,0,0.8,0,1.2,0.1c2.6,0.6,4.2,3.2,3.9,5.8l-6.1,58.2c-0.1,1.2,0.8,2.3,2,2.4l2.7,0.3
						c0.1,0,0.2,0,0.2,0c1.1,0,2.1-0.8,2.2-2l4.8-45.7c0.3-2.7,2.5-4.7,5.2-4.7c0.4,0,0.8,0,1.2,0.1c2.6,0.6,4.2,3.2,3.9,5.8
						l-7,66.8c-0.1,1.4,0.5,2.8,1.8,3.5c0.5,0.3,1.1,0.5,1.7,0.5c0.9,0,1.7-0.3,2.4-0.9l10-8.1c1.4-1.1,3.1-1.7,4.8-1.7
						c1.7,0,3.4,0.6,4.8,1.8c3.4,3.1,3.1,8.3-0.3,11.1l-32,25.9c-5,4-8.1,9.9-8.8,16.2l-2.3,21.7c-0.4,3.9-3.7,6.8-7.5,6.8
						c-0.3,0-0.5,0-0.8,0l-24.8-2.6c-4.1-0.4-7.2-4.1-6.7-8.3l2.5-24c0.4-4.1-0.3-8.2-2.1-11.9l-2.4-4.9c-2.3-4.8-3.2-10.1-2.7-15.4
						l0.5-4.8l1.6-14.9l5.9-56c0.3-2.7,2.5-4.7,5.2-4.7c0.4,0,0.8,0,1.2,0.1c2.6,0.6,4.2,3.2,3.9,5.8l-4,38.1
						c-0.1,1.2,0.7,2.3,2,2.4l1.6,0.2c0.1,0,0.2,0,0.2,0c1.1,0,2-0.8,2.2-2l5.3-51c0.3-2.7,2.5-4.7,5.2-4.7c0.4,0,0.8,0,1.2,0.1
						c2.6,0.6,4.2,3.2,3.9,5.8l-5.3,50.8c-0.1,1.2,0.8,2.3,2,2.4l1.8,0.2c0.1,0,0.2,0,0.2,0c1.1,0,2.1-0.8,2.2-2l6.1-58.4
						C-447.7,512.6-445.4,510.6-442.8,510.6 M-442.8,503.6C-442.8,503.6-442.8,503.6-442.8,503.6c-5,0-9.3,3-11.2,7.3
						c-1-0.6-2.1-1-3.3-1.3c-0.9-0.2-1.9-0.3-2.9-0.3c-6.3,0-11.5,4.7-12.1,10.9l-0.1,1.3c-0.8-0.4-1.6-0.7-2.4-0.9
						c-0.9-0.2-1.9-0.3-2.9-0.3c-6.3,0-11.5,4.7-12.1,10.9l-5.9,56l-1.6,14.9l-0.5,4.8c-0.7,6.6,0.5,13.2,3.3,19.2l2.4,4.9
						c1.2,2.5,1.7,5.4,1.4,8.1l-2.5,24c-0.4,3.9,0.7,7.7,3.2,10.7c2.4,3,5.9,4.9,9.8,5.3l24.8,2.6c0.5,0.1,1,0.1,1.5,0.1
						c7.5,0,13.7-5.6,14.5-13l2.3-21.7c0.5-4.5,2.7-8.6,6.2-11.5l32-25.9c3.2-2.6,5.2-6.5,5.3-10.7c0.1-4.2-1.6-8.2-4.7-11
						c-2.6-2.3-5.9-3.6-9.5-3.6c-3.3,0-6.6,1.2-9.2,3.3l-3.7,3l6.1-58.7c0.6-6.2-3.3-11.9-9.2-13.3c-0.9-0.2-1.9-0.3-2.9-0.3
						c-1.5,0-2.9,0.3-4.2,0.7l0.2-1.6c0.6-6.2-3.3-11.9-9.2-13.3C-440.9,503.7-441.9,503.6-442.8,503.6L-442.8,503.6z"/>
				</g>
				<g>
					<path fill="#D15C5A" d="M-453.8,672.5c-0.4,0-0.8,0-1.2-0.1l-24.8-2.6c-6.1-0.6-10.5-6.1-9.8-12.1l2.5-24
						c0.4-3.4-0.2-6.9-1.7-10l-2.4-4.9c-2.6-5.4-3.6-11.4-3-17.3l7.9-75.6c0.5-4.4,4.2-7.8,8.6-7.8c0.7,0,1.4,0.1,2,0.2
						c2.8,0.7,4.9,2.7,6,5.2l0.9-8.7c0.5-4.4,4.2-7.8,8.6-7.8c0.7,0,1.4,0.1,2,0.2c3,0.7,5.3,3,6.2,5.8l0.4-3.9
						c0.5-4.4,4.2-7.8,8.6-7.8c0.7,0,1.4,0.1,2,0.2c4.2,1,7,5.1,6.6,9.6l-6,56.9l0.1,0l4.6-44.4c0.5-4.4,4.2-7.8,8.7-7.8
						c0.7,0,1.4,0.1,2,0.2c4.2,1,7,5.1,6.6,9.6l-7,66.8c0,0.1,0,0.1,0.1,0.1c0,0,0.1,0,0.2-0.1l10-8.1c2-1.6,4.5-2.5,7-2.5
						c2.7,0,5.2,1,7.1,2.7c2.3,2.1,3.6,5.1,3.6,8.3c-0.1,3.2-1.5,6.1-4,8.1l-32,25.9c-4.3,3.5-6.9,8.4-7.5,13.9l-2.3,21.7
						C-443.5,668.3-448.2,672.5-453.8,672.5L-453.8,672.5z"/>
					<path fill="#F7F7F7" d="M-442.8,505c0.4,0,0.8,0,1.2,0.1c2.6,0.6,4.2,3.2,3.9,5.8l-6.1,58.2c-0.1,1.2,0.8,2.3,2,2.4l2.7,0.3
						c0.1,0,0.2,0,0.2,0c1.1,0,2.1-0.8,2.2-2l4.8-45.7c0.3-2.7,2.5-4.7,5.2-4.7c0.4,0,0.8,0,1.2,0.1c2.6,0.6,4.2,3.2,3.9,5.8
						l-7,66.8c-0.1,1.4,0.5,2.8,1.8,3.5c0.5,0.3,1.1,0.5,1.7,0.5c0.9,0,1.7-0.3,2.4-0.9l10-8.1c1.4-1.1,3.1-1.7,4.8-1.7
						c1.7,0,3.4,0.6,4.8,1.8c3.4,3.1,3.1,8.3-0.3,11.1l-32,25.9c-5,4-8.1,9.9-8.8,16.2l-2.3,21.7c-0.4,3.9-3.7,6.8-7.5,6.8
						c-0.3,0-0.5,0-0.8,0l-24.8-2.6c-4.1-0.4-7.2-4.1-6.7-8.3l2.5-24c0.4-4.1-0.3-8.2-2.1-11.9l-2.4-4.9c-2.3-4.8-3.2-10.1-2.7-15.4
						l0.5-4.8l1.6-14.9l5.9-56c0.3-2.7,2.5-4.7,5.2-4.7c0.4,0,0.8,0,1.2,0.1c2.6,0.6,4.2,3.2,3.9,5.8l-4,38.1
						c-0.1,1.2,0.7,2.3,2,2.4l1.6,0.2c0.1,0,0.2,0,0.2,0c1.1,0,2-0.8,2.2-2l5.3-51c0.3-2.7,2.5-4.7,5.2-4.7c0.4,0,0.8,0,1.2,0.1
						c2.6,0.6,4.2,3.2,3.9,5.8l-5.3,50.8c-0.1,1.2,0.8,2.3,2,2.4l1.8,0.2c0.1,0,0.2,0,0.2,0c1.1,0,2.1-0.8,2.2-2l6.1-58.4
						C-447.7,507-445.4,505-442.8,505 M-442.8,498C-442.8,498-442.8,498-442.8,498c-5,0-9.3,3-11.2,7.3c-1-0.6-2.1-1-3.3-1.3
						c-0.9-0.2-1.9-0.3-2.9-0.3c-6.3,0-11.5,4.7-12.1,10.9l-0.1,1.3c-0.8-0.4-1.6-0.7-2.4-0.9c-0.9-0.2-1.9-0.3-2.9-0.3
						c-6.3,0-11.5,4.7-12.1,10.9l-5.9,56l-1.6,14.9l-0.5,4.8c-0.7,6.6,0.5,13.2,3.3,19.2l2.4,4.9c1.2,2.5,1.7,5.4,1.4,8.1l-2.5,24
						c-0.4,3.9,0.7,7.7,3.2,10.7c2.4,3,5.9,4.9,9.8,5.3l24.8,2.6c0.5,0.1,1,0.1,1.5,0.1c7.5,0,13.7-5.6,14.5-13l2.3-21.7
						c0.5-4.5,2.7-8.6,6.2-11.5l32-25.9c3.2-2.6,5.2-6.5,5.3-10.7c0.1-4.2-1.6-8.2-4.7-11c-2.6-2.3-5.9-3.6-9.5-3.6
						c-3.3,0-6.6,1.2-9.2,3.3l-3.7,3l6.1-58.7c0.6-6.2-3.3-11.9-9.2-13.3c-0.9-0.2-1.9-0.3-2.9-0.3c-1.5,0-2.9,0.3-4.2,0.7l0.2-1.6
						c0.6-6.2-3.3-11.9-9.2-13.3C-440.9,498.1-441.9,498-442.8,498L-442.8,498z"/>
				</g>
			</g>
			<g id="XMLID_368_">
				<g>
					<path fill="#A44B48" d="M-485.8,625.1c1.8,3.7,2.5,7.8,2.1,11.9l-2.5,24c-0.4,4.1,2.6,7.9,6.7,8.3l24.8,2.6
						c4.1,0.4,7.9-2.6,8.3-6.7l2.3-21.7c0.7-6.4,3.8-12.2,8.8-16.2l32-25.9c3.4-2.8,3.7-8,0.3-11.1c-2.7-2.4-6.8-2.4-9.6-0.1
						l-10,8.1c-1.2,1-2.9,1.2-4.2,0.4c-1.3-0.7-1.9-2.1-1.8-3.5l7-66.8c0.3-2.6-1.4-5.2-3.9-5.8c-3.1-0.7-6.1,1.4-6.4,4.5l-4.8,45.7
						c-0.1,1.2-1.2,2.1-2.4,2l-2.7-0.3c-1.2-0.1-2.1-1.2-2-2.4l6.1-58.2c0.3-2.6-1.4-5.2-3.9-5.8c-3.1-0.7-6.1,1.4-6.4,4.5
						l-6.1,58.4c-0.1,1.2-1.2,2.1-2.4,2l-1.8-0.2c-1.2-0.1-2.1-1.2-2-2.4l5.3-50.8c0.3-2.6-1.4-5.2-3.9-5.8
						c-3.1-0.7-6.1,1.4-6.4,4.5l-5.3,51c-0.1,1.2-1.2,2.1-2.4,1.9l-1.6-0.2c-1.2-0.1-2.1-1.2-2-2.4l4-38.1c0.3-2.6-1.4-5.2-3.9-5.8
						c-3.1-0.7-6.1,1.4-6.4,4.5l-5.9,56l-1.6,14.9l-0.5,4.8c-0.6,5.3,0.4,10.6,2.7,15.4L-485.8,625.1z"/>
				</g>
				<g>
					<path fill="#D15C5A" d="M-485.8,622.2c1.8,3.7,2.5,7.8,2.1,11.9l-2.5,24c-0.4,4.1,2.6,7.9,6.7,8.3l24.8,2.6
						c4.1,0.4,7.9-2.6,8.3-6.7l2.3-21.7c0.7-6.4,3.8-12.2,8.8-16.2l32-25.9c3.4-2.8,3.7-8,0.3-11.1c-2.7-2.4-6.8-2.4-9.6-0.1
						l-10,8.1c-1.2,1-2.9,1.2-4.2,0.4c-1.3-0.7-1.9-2.1-1.8-3.5l7-66.8c0.3-2.6-1.4-5.2-3.9-5.8c-3.1-0.7-6.1,1.4-6.4,4.5l-4.8,45.7
						c-0.1,1.2-1.2,2.1-2.4,2l-2.7-0.3c-1.2-0.1-2.1-1.2-2-2.4l6.1-58.2c0.3-2.6-1.4-5.2-3.9-5.8c-3.1-0.7-6.1,1.4-6.4,4.5
						l-6.1,58.4c-0.1,1.2-1.2,2.1-2.4,2l-1.8-0.2c-1.2-0.1-2.1-1.2-2-2.4l5.3-50.8c0.3-2.6-1.4-5.2-3.9-5.8
						c-3.1-0.7-6.1,1.4-6.4,4.5l-5.3,51c-0.1,1.2-1.2,2.1-2.4,1.9l-1.6-0.2c-1.2-0.1-2.1-1.2-2-2.4l4-38.1c0.3-2.6-1.4-5.2-3.9-5.8
						c-3.1-0.7-6.1,1.4-6.4,4.5l-5.9,56l-1.6,14.9l-0.5,4.8c-0.6,5.3,0.4,10.6,2.7,15.4L-485.8,622.2z"/>
				</g>
			</g>
		</g>
		<g id="XMLID_318_">
			<g id="XMLID_334_">
				<g>
					<path fill="#DBDCDC" d="M-607,446c-1.2,0-2.3-0.5-3.2-1.4l-18.8-19.5c-1-1-1.4-2.4-1.2-3.8c0.2-1.4,1.1-2.6,2.3-3.2l13.2-7
						c0.6-0.3,1.4-0.5,2.1-0.5c2.1,0,3.9,1.5,4.4,3.5l5.6,26.5c0.3,1.3,0,2.7-0.9,3.7C-604.3,445.3-605.6,446-607,446z"/>
					<path fill="#DBDCDC" d="M-612.6,412.5c1.1,0,2.2,0.8,2.4,2l5.6,26.5c0.4,1.7-1,3-2.4,3c-0.6,0-1.2-0.2-1.7-0.8l-18.8-19.5
						c-1.1-1.2-0.8-3.1,0.6-3.9l13.2-7C-613.3,412.6-612.9,412.5-612.6,412.5 M-612.6,408.5C-612.6,408.5-612.6,408.5-612.6,408.5
						c-1,0-2.1,0.3-3,0.8l-13.2,7c-1.8,1-3,2.7-3.3,4.7s0.3,4,1.7,5.5l18.8,19.5c1.2,1.3,2.9,2,4.6,2c1.9,0,3.8-0.9,5.1-2.4
						c1.2-1.5,1.7-3.5,1.3-5.4l-5.6-26.5C-606.9,410.7-609.5,408.5-612.6,408.5L-612.6,408.5z"/>
				</g>
				<g>
					<path fill="#FFA302" d="M-607,443.1c-1.2,0-2.3-0.5-3.2-1.4l-18.8-19.5c-1-1-1.4-2.4-1.2-3.8c0.2-1.4,1.1-2.6,2.3-3.2l13.2-7
						c0.6-0.3,1.4-0.5,2.1-0.5c2.1,0,3.9,1.5,4.4,3.5l5.6,26.5c0.3,1.3,0,2.7-0.9,3.7C-604.3,442.5-605.6,443.1-607,443.1z"/>
					<path fill="#F7F7F7" d="M-612.6,409.7c1.1,0,2.2,0.8,2.4,2l5.6,26.5c0.4,1.7-1,3-2.4,3c-0.6,0-1.2-0.2-1.7-0.8l-18.8-19.5
						c-1.1-1.2-0.8-3.1,0.6-3.9l13.2-7C-613.3,409.8-612.9,409.7-612.6,409.7 M-612.6,405.7C-612.6,405.7-612.6,405.7-612.6,405.7
						c-1,0-2.1,0.3-3,0.8l-13.2,7c-1.8,1-3,2.7-3.3,4.7s0.3,4,1.7,5.5l18.8,19.5c1.2,1.3,2.9,2,4.6,2c1.9,0,3.8-0.9,5.1-2.4
						c1.2-1.5,1.7-3.5,1.3-5.4l-5.6-26.5C-606.9,407.8-609.5,405.7-612.6,405.7L-612.6,405.7z"/>
				</g>
			</g>
			<g id="XMLID_319_">
				<g>
					<path fill="#E89300" d="M-626.9,418.4l13.2-7c1.4-0.8,3.2,0.1,3.6,1.7l5.6,26.5c0.5,2.4-2.5,4-4.2,2.2l-18.8-19.5
						C-628.7,421.1-628.4,419.2-626.9,418.4z"/>
				</g>
				<g>
					<path fill="#FFA302" d="M-626.9,417l13.2-7c1.4-0.8,3.2,0.1,3.6,1.7l5.6,26.5c0.5,2.4-2.5,4-4.2,2.2l-18.8-19.5
						C-628.7,419.7-628.4,417.8-626.9,417z"/>
				</g>
			</g>
		</g>
		<g id="XMLID_292_">
			<g id="XMLID_304_">
				<g>
					<path fill="#DBDCDC" d="M-592.5,445.7c-2.2,0-4-1.6-4.1-3.8l-1.9-23.4c-0.1-1.1,0.3-2.3,1.1-3.1c0.8-0.8,1.9-1.3,3-1.3
						c0.3,0,0.5,0,0.8,0.1l12.7,2.6c1.3,0.3,2.3,1.1,2.9,2.3s0.5,2.5-0.1,3.7l-10.8,20.9C-589.6,444.8-591,445.7-592.5,445.7z"/>
					<path fill="#DBDCDC" d="M-594.5,416c0.1,0,0.3,0,0.4,0l12.7,2.6c1.4,0.3,2.1,1.8,1.5,3.1l-10.8,20.9c-0.4,0.8-1.1,1.2-1.9,1.2
						c-1,0-2-0.7-2.1-2l-1.9-23.4C-596.7,417-595.7,416-594.5,416 M-594.5,412C-594.5,412-594.5,412-594.5,412c-1.7,0-3.3,0.7-4.5,2
						c-1.2,1.3-1.7,3-1.6,4.7l1.9,23.4c0.3,3.2,2.9,5.6,6.1,5.6c2.3,0,4.4-1.3,5.4-3.3l10.8-20.9c0.9-1.7,0.9-3.7,0.1-5.5
						c-0.8-1.8-2.4-3-4.3-3.4l-12.7-2.6C-593.7,412-594.1,412-594.5,412L-594.5,412z"/>
				</g>
				<g>
					<path fill="#FFA302" d="M-592.5,442.8c-2.2,0-4-1.6-4.1-3.8l-1.9-23.4c-0.1-1.1,0.3-2.3,1.1-3.1c0.8-0.8,1.9-1.3,3-1.3
						c0.3,0,0.5,0,0.8,0.1l12.7,2.6c1.3,0.3,2.3,1.1,2.9,2.3s0.5,2.5-0.1,3.7l-10.8,20.9C-589.6,442-591,442.8-592.5,442.8z"/>
					<path fill="#F7F7F7" d="M-594.5,413.1c0.1,0,0.3,0,0.4,0l12.7,2.6c1.4,0.3,2.1,1.8,1.5,3.1l-10.8,20.9
						c-0.4,0.8-1.1,1.2-1.9,1.2c-1,0-2-0.7-2.1-2l-1.9-23.4C-596.7,414.2-595.7,413.1-594.5,413.1 M-594.5,409.1
						C-594.5,409.1-594.5,409.1-594.5,409.1c-1.7,0-3.3,0.7-4.5,2c-1.2,1.3-1.7,3-1.6,4.7l1.9,23.4c0.3,3.2,2.9,5.6,6.1,5.6
						c2.3,0,4.4-1.3,5.4-3.3l10.8-20.9c0.9-1.7,0.9-3.7,0.1-5.5c-0.8-1.8-2.4-3-4.3-3.4l-12.7-2.6
						C-593.7,409.2-594.1,409.1-594.5,409.1L-594.5,409.1z"/>
				</g>
			</g>
			<g id="XMLID_293_">
				<g>
					<path fill="#E89300" d="M-594.1,414.6l12.7,2.6c1.4,0.3,2.1,1.8,1.5,3.1l-10.8,20.9c-1,1.9-3.8,1.3-4-0.8l-1.9-23.4
						C-596.7,415.5-595.4,414.3-594.1,414.6z"/>
				</g>
				<g>
					<path fill="#FFA302" d="M-594.1,413.2l12.7,2.6c1.4,0.3,2.1,1.8,1.5,3.1l-10.8,20.9c-1,1.9-3.8,1.3-4-0.8l-1.9-23.4
						C-596.7,414-595.4,412.9-594.1,413.2z"/>
				</g>
			</g>
		</g>
		<g id="XMLID_255_">
			<g id="XMLID_272_">
				<g>
					<path fill="#DBDCDC" d="M-616.7,457.1c-0.3,0-0.6,0-0.9-0.1l-19.3-4.7c-1.2-0.3-2.1-1.1-2.6-2.2c-0.5-1.1-0.4-2.3,0.2-3.4
						l5.5-9.6c0.7-1.2,1.9-1.9,3.3-1.9c1,0,2,0.4,2.7,1.2l13.9,14.3c1.1,1.1,1.4,2.7,0.8,4.1C-613.9,456.2-615.2,457.1-616.7,457.1z
						"/>
					<path fill="#DBDCDC" d="M-630.6,437.2c0.5,0,0.9,0.2,1.3,0.5l13.9,14.3c1.1,1.2,0.2,3.1-1.3,3.1c-0.1,0-0.3,0-0.5-0.1
						l-19.3-4.7c-1.2-0.3-1.7-1.6-1.1-2.7l5.5-9.6C-631.9,437.5-631.2,437.2-630.6,437.2 M-630.6,433.2
						C-630.6,433.2-630.6,433.2-630.6,433.2c-2.1,0-4,1.1-5,2.9l-5.5,9.6c-0.9,1.6-1,3.5-0.3,5.2c0.7,1.7,2.2,2.9,4,3.4l19.3,4.7
						c0.5,0.1,0.9,0.2,1.4,0.2c2.3,0,4.4-1.4,5.3-3.6c0.9-2.1,0.4-4.6-1.2-6.3l-13.9-14.3C-627.6,433.8-629.1,433.2-630.6,433.2
						L-630.6,433.2z"/>
				</g>
				<g>
					<path fill="#FFA302" d="M-616.7,454.3c-0.3,0-0.6,0-0.9-0.1l-19.3-4.7c-1.2-0.3-2.1-1.1-2.6-2.2c-0.5-1.1-0.4-2.3,0.2-3.4
						l5.5-9.6c0.7-1.2,1.9-1.9,3.3-1.9c1,0,2,0.4,2.7,1.2l13.9,14.3c1.1,1.1,1.4,2.7,0.8,4.1C-613.9,453.4-615.2,454.3-616.7,454.3z
						"/>
					<path fill="#F7F7F7" d="M-630.6,434.4c0.5,0,0.9,0.2,1.3,0.5l13.9,14.3c1.1,1.2,0.2,3.1-1.3,3.1c-0.1,0-0.3,0-0.5-0.1
						l-19.3-4.7c-1.2-0.3-1.7-1.6-1.1-2.7l5.5-9.6C-631.9,434.7-631.2,434.4-630.6,434.4 M-630.6,430.4
						C-630.6,430.4-630.6,430.4-630.6,430.4c-2.1,0-4,1.1-5,2.9l-5.5,9.6c-0.9,1.6-1,3.5-0.3,5.2c0.7,1.7,2.2,2.9,4,3.4l19.3,4.7
						c0.5,0.1,0.9,0.2,1.4,0.2c2.3,0,4.4-1.4,5.3-3.6c0.9-2.1,0.4-4.6-1.2-6.3l-13.9-14.3C-627.6,431-629.1,430.4-630.6,430.4
						L-630.6,430.4z"/>
				</g>
			</g>
			<g id="XMLID_256_">
				<g>
					<path fill="#E89300" d="M-637.7,446.2l5.5-9.6c0.6-1,2-1.2,2.9-0.4l13.9,14.3c1.3,1.3,0,3.4-1.7,3l-19.3-4.7
						C-637.7,448.6-638.3,447.3-637.7,446.2z"/>
				</g>
				<g>
					<path fill="#FFA302" d="M-637.7,444.8l5.5-9.6c0.6-1,2-1.2,2.9-0.4l13.9,14.3c1.3,1.3,0,3.4-1.7,3l-19.3-4.7
						C-637.7,447.2-638.3,445.9-637.7,444.8z"/>
				</g>
			</g>
		</g>
		<g id="XMLID_234_">
			<g id="XMLID_241_">
				<g>
					<path fill="#DBDCDC" d="M-389.9,499.8c-1.6,0-3.1-0.9-3.9-2.3c-0.8-1.4-0.7-3.1,0.2-4.5l14.6-22.8c0.8-1.3,2.2-2.1,3.8-2.1
						c1.3,0,2.5,0.6,3.3,1.5l9.9,11.2c0.9,1.1,1.3,2.5,1,3.8c-0.3,1.4-1.2,2.5-2.5,3.1l-24.5,11.6
						C-388.6,499.6-389.2,499.8-389.9,499.8z"/>
					<path fill="#DBDCDC" d="M-375.3,470c0.7,0,1.3,0.3,1.8,0.8l9.9,11.2c1.1,1.2,0.7,3.1-0.8,3.8l-24.5,11.6
						c-0.4,0.2-0.7,0.2-1.1,0.2c-1.8,0-3.2-2-2.1-3.8l14.6-22.8C-376.9,470.4-376.1,470-375.3,470 M-375.3,466
						C-375.3,466-375.3,466-375.3,466c-2.2,0-4.3,1.1-5.4,3l-14.6,22.8c-1.3,2-1.4,4.5-0.2,6.6c1.1,2.1,3.3,3.4,5.7,3.4
						c1,0,1.9-0.2,2.8-0.6l24.5-11.6c1.8-0.9,3.1-2.5,3.6-4.5c0.4-2-0.1-4-1.5-5.6l-9.9-11.2C-371.7,466.8-373.4,466-375.3,466
						L-375.3,466z"/>
				</g>
				<g>
					<path fill="#FFA302" d="M-389.9,496.9c-1.6,0-3.1-0.9-3.9-2.3c-0.8-1.4-0.7-3.1,0.2-4.5l14.6-22.8c0.8-1.3,2.2-2.1,3.8-2.1
						c1.3,0,2.5,0.6,3.3,1.5l9.9,11.2c0.9,1.1,1.3,2.5,1,3.8c-0.3,1.4-1.2,2.5-2.5,3.1l-24.5,11.6
						C-388.6,496.8-389.2,496.9-389.9,496.9z"/>
					<path fill="#F7F7F7" d="M-375.3,467.2c0.7,0,1.3,0.3,1.8,0.8l9.9,11.2c1.1,1.2,0.7,3.1-0.8,3.8l-24.5,11.6
						c-0.4,0.2-0.7,0.2-1.1,0.2c-1.8,0-3.2-2-2.1-3.8l14.6-22.8C-376.9,467.6-376.1,467.2-375.3,467.2 M-375.3,463.2
						C-375.3,463.2-375.3,463.2-375.3,463.2c-2.2,0-4.3,1.1-5.4,3l-14.6,22.8c-1.3,2-1.4,4.5-0.2,6.6c1.1,2.1,3.3,3.4,5.7,3.4
						c1,0,1.9-0.2,2.8-0.6l24.5-11.6c1.8-0.9,3.1-2.5,3.6-4.5c0.4-2-0.1-4-1.5-5.6l-9.9-11.2C-371.7,464-373.4,463.2-375.3,463.2
						L-375.3,463.2z"/>
				</g>
			</g>
			<g id="XMLID_235_">
				<g>
					<path fill="#E89300" d="M-373.5,469.4l9.9,11.2c1.1,1.2,0.7,3.1-0.8,3.8l-24.5,11.6c-2.2,1.1-4.4-1.5-3.1-3.5l14.6-22.8
						C-376.5,468.3-374.5,468.2-373.5,469.4z"/>
				</g>
				<g>
					<path fill="#FFA302" d="M-373.5,468l9.9,11.2c1.1,1.2,0.7,3.1-0.8,3.8l-24.5,11.6c-2.2,1.1-4.4-1.5-3.1-3.5l14.6-22.8
						C-376.5,466.9-374.5,466.8-373.5,468z"/>
				</g>
			</g>
		</g>
		<g id="XMLID_196_">
			<g id="XMLID_206_">
				<g>
					<path fill="#DBDCDC" d="M-363.7,519.1c-0.3,0-0.7,0-1-0.1l-22.8-5.7c-1.8-0.4-3.1-2-3.1-3.9s1.1-3.5,2.8-4.1l22.3-7.3
						c0.4-0.1,0.9-0.2,1.3-0.2c2.2,0,4,1.7,4.1,4l0.5,13c0,1.1-0.4,2.2-1.2,3C-361.6,518.7-362.6,519.1-363.7,519.1z"/>
					<path fill="#DBDCDC" d="M-364.2,499.9c1.1,0,2.1,0.9,2.1,2.1l0.5,13c0,1.2-1,2.2-2.1,2.2c-0.2,0-0.3,0-0.5-0.1l-22.8-5.7
						c-2.1-0.5-2.2-3.4-0.1-4.1l22.3-7.3C-364.7,499.9-364.4,499.9-364.2,499.9 M-364.2,495.9C-364.2,495.9-364.2,495.9-364.2,495.9
						c-0.6,0-1.3,0.1-1.9,0.3l-22.3,7.3c-2.6,0.9-4.3,3.3-4.2,6c0.1,2.8,2,5.1,4.6,5.7l22.8,5.7c0.5,0.1,1,0.2,1.5,0.2
						c1.7,0,3.3-0.7,4.4-1.9c1.2-1.2,1.8-2.8,1.7-4.5l-0.5-13C-358.2,498.5-360.9,495.9-364.2,495.9L-364.2,495.9z"/>
				</g>
				<g>
					<path fill="#FFA302" d="M-363.7,516.3c-0.3,0-0.7,0-1-0.1l-22.8-5.7c-1.8-0.4-3.1-2-3.1-3.9s1.1-3.5,2.8-4.1l22.3-7.3
						c0.4-0.1,0.9-0.2,1.3-0.2c2.2,0,4,1.7,4.1,4l0.5,13c0,1.1-0.4,2.2-1.2,3C-361.6,515.8-362.6,516.3-363.7,516.3z"/>
					<path fill="#F7F7F7" d="M-364.2,497c1.1,0,2.1,0.9,2.1,2.1l0.5,13c0,1.2-1,2.2-2.1,2.2c-0.2,0-0.3,0-0.5-0.1l-22.8-5.7
						c-2.1-0.5-2.2-3.4-0.1-4.1l22.3-7.3C-364.7,497.1-364.4,497-364.2,497 M-364.2,493C-364.2,493-364.2,493-364.2,493
						c-0.6,0-1.3,0.1-1.9,0.3l-22.3,7.3c-2.6,0.9-4.3,3.3-4.2,6c0.1,2.8,2,5.1,4.6,5.7l22.8,5.7c0.5,0.1,1,0.2,1.5,0.2
						c1.7,0,3.3-0.7,4.4-1.9c1.2-1.2,1.8-2.8,1.7-4.5l-0.5-13C-358.2,495.6-360.9,493-364.2,493L-364.2,493z"/>
				</g>
			</g>
			<g id="XMLID_198_">
				<g>
					<path fill="#E89300" d="M-362.1,500.5l0.5,13c0.1,1.4-1.3,2.5-2.6,2.1l-22.8-5.7c-2.1-0.5-2.2-3.4-0.1-4.1l22.3-7.3
						C-363.5,498.1-362.1,499.1-362.1,500.5z"/>
				</g>
				<g>
					<path fill="#FFA302" d="M-362.1,499.1l0.5,13c0.1,1.4-1.3,2.5-2.6,2.1l-22.8-5.7c-2.1-0.5-2.2-3.4-0.1-4.1l22.3-7.3
						C-363.5,496.7-362.1,497.7-362.1,499.1z"/>
				</g>
			</g>
		</g>
		<g id="XMLID_173_">
			<g id="XMLID_181_">
				<g>
					<path fill="#DBDCDC" d="M-403.6,492.3c-1,0-2-0.4-2.7-1.1c-0.7-0.7-1.1-1.7-1.1-2.7l0.1-19.9c0-2.1,1.7-3.8,3.8-3.8
						c0.4,0,0.7,0.1,1.1,0.2l10.6,3.1c1.2,0.3,2.1,1.2,2.5,2.3c0.4,1.1,0.3,2.4-0.4,3.4l-10.7,16.8
						C-401.1,491.6-402.3,492.3-403.6,492.3z"/>
					<path fill="#DBDCDC" d="M-403.5,466.8c0.2,0,0.3,0,0.5,0.1l10.6,3.1c1.2,0.3,1.7,1.7,1,2.7l-10.7,16.8
						c-0.4,0.6-0.9,0.8-1.5,0.8c-0.9,0-1.8-0.7-1.8-1.8l0.1-19.9C-405.3,467.5-404.5,466.8-403.5,466.8 M-403.5,462.8
						C-403.5,462.8-403.5,462.8-403.5,462.8c-3.2,0-5.8,2.6-5.8,5.8l-0.1,19.9c0,1.6,0.6,3,1.7,4.1c1.1,1.1,2.6,1.7,4.2,1.7
						c2,0,3.8-1,4.9-2.7l10.7-16.8c1-1.6,1.2-3.4,0.5-5.2s-2-3-3.8-3.5l-10.6-3.1C-402.4,462.9-403,462.8-403.5,462.8L-403.5,462.8z
						"/>
				</g>
				<g>
					<path fill="#FFA302" d="M-403.6,489.5c-1,0-2-0.4-2.7-1.1c-0.7-0.7-1.1-1.7-1.1-2.7l0.1-19.9c0-2.1,1.7-3.8,3.8-3.8
						c0.4,0,0.7,0.1,1.1,0.2l10.6,3.1c1.2,0.3,2.1,1.2,2.5,2.3c0.4,1.1,0.3,2.4-0.4,3.4l-10.7,16.8
						C-401.1,488.8-402.3,489.5-403.6,489.5z"/>
					<path fill="#F7F7F7" d="M-403.5,463.9c0.2,0,0.3,0,0.5,0.1l10.6,3.1c1.2,0.3,1.7,1.7,1,2.7l-10.7,16.8
						c-0.4,0.6-0.9,0.8-1.5,0.8c-0.9,0-1.8-0.7-1.8-1.8l0.1-19.9C-405.3,464.7-404.5,463.9-403.5,463.9 M-403.5,459.9
						C-403.5,459.9-403.5,459.9-403.5,459.9c-3.2,0-5.8,2.6-5.8,5.8l-0.1,19.9c0,1.6,0.6,3,1.7,4.1c1.1,1.1,2.6,1.7,4.2,1.7
						c2,0,3.8-1,4.9-2.7l10.7-16.8c1-1.6,1.2-3.4,0.5-5.2s-2-3-3.8-3.5l-10.6-3.1C-402.4,460-403,459.9-403.5,459.9L-403.5,459.9z"
						/>
				</g>
			</g>
			<g id="XMLID_174_">
				<g>
					<path fill="#E89300" d="M-403,465.4l10.6,3.1c1.2,0.3,1.7,1.7,1,2.7l-10.7,16.8c-1,1.5-3.3,0.8-3.3-1l0.1-19.9
						C-405.3,466-404.2,465.1-403,465.4z"/>
				</g>
				<g>
					<path fill="#FFA302" d="M-403,464l10.6,3.1c1.2,0.3,1.7,1.7,1,2.7l-10.7,16.8c-1,1.5-3.3,0.8-3.3-1l0.1-19.9
						C-405.3,464.5-404.2,463.7-403,464z"/>
				</g>
			</g>
		</g>
	</g>
</g>
</svg>
