<?xml version="1.0" encoding="utf-8"?>
<!-- Generator: Adobe Illustrator 19.0.0, SVG Export Plug-In . SVG Version: 6.00 Build 0)  -->
<svg version="1.2" baseProfile="tiny" id="圖層_1"
	 xmlns="http://www.w3.org/2000/svg" xmlns:xlink="http://www.w3.org/1999/xlink" x="0px" y="0px" viewBox="-732 310 453.5 462"
	 xml:space="preserve">
<g id="XMLID_185_">
	<g id="XMLID_480_">
		<g id="XMLID_481_">
			<g id="XMLID_484_">
				<g>
					<path fill="#8C6239" d="M-363.5,772H-647c-47,0-85-38.1-85-85V403.5c0-47,38.1-85,85-85h283.5c47,0,85,38.1,85,85V687
						C-278.5,734-316.6,772-363.5,772z"/>
				</g>
				<g>
					<path fill="#BB7434" d="M-363.5,763.5H-647c-47,0-85-38.1-85-85V395c0-47,38.1-85,85-85h283.5c47,0,85,38.1,85,85v283.5
						C-278.5,725.5-316.6,763.5-363.5,763.5z"/>
				</g>
			</g>
			<path id="XMLID_482_" fill="#623F1E" d="M-382.2,729.4h-246.1c-38.4,0-69.6-31.2-69.6-69.6V413.7c0-38.4,31.2-69.6,69.6-69.6
				h246.1c38.4,0,69.6,31.2,69.6,69.6v246.1C-312.6,698.3-343.8,729.4-382.2,729.4z"/>
		</g>
	</g>
	<g id="XMLID_186_">
		<g>
			<path fill="#DBDCDC" d="M-572.3,674.2c-0.2,0-0.5,0-0.7,0l-2.9-0.2c-5.9-0.3-10.7-4.8-11.7-10.4c-1.6,5.2-6.4,9-12.1,9
				c-0.2,0-0.5,0-0.7,0l-2.9-0.2c-6.9-0.4-12.3-6.4-11.9-13.3l5.5-94.5c-1.8,3-5.2,5-8.9,5c-0.2,0-0.4,0-0.6,0l-1.9-0.1
				c-5.7-0.3-10.1-5.3-9.8-11l3.6-63.2c0.8-14.7,13-26.2,27.8-26.2c0.5,0,1.1,0,1.6,0l42.9,2.5c3,0.2,6,0.8,8.8,2c0.1,0,0.1,0,0.2,0
				c0.4,0,0.8,0,1.1,0l38.6,2.2c2.9,0.2,5.7,0.8,8.4,2l33.5,1.9c2.8,0.2,5.6,0.8,8.2,2l27.7,1.6c2.7,0.2,5.3,0.8,7.8,2l22.8,1.3
				c10.7,0.6,18.9,9.8,18.3,20.5l-2.4,41.5c-0.2,4.2-3.8,7.6-8,7.6l0,0c-0.2,0-0.3,0-0.5,0l-1.2-0.1c-1.8-0.1-3.5-0.8-4.7-1.9
				l-3.4,58.8c-0.3,5-4.4,8.9-9.5,8.9c-0.2,0-0.4,0-0.5,0l-1.9-0.1c-2.5-0.1-4.8-1.3-6.5-3.2c-0.5-0.5-0.9-1.1-1.2-1.8
				c-1.7,2.4-4.6,4-7.7,4c-0.2,0-0.4,0-0.5,0l-1.9-0.1c-0.4,0-0.8-0.1-1.2-0.1l-0.2,2.7c-0.3,5.4-4.8,9.6-10.1,9.6
				c-0.2,0-0.4,0-0.6,0l-2.1-0.1c-3.9-0.2-7.1-2.6-8.6-5.9c-1.8,2.9-5,4.8-8.6,4.8c-0.2,0-0.4,0-0.6,0l-2.1-0.1
				c-1.2-0.1-2.4-0.3-3.4-0.8l-0.2,4.1c-0.3,5.8-5.1,10.3-10.9,10.3c-0.2,0-0.4,0-0.6,0l-2.4-0.1c-2.9-0.2-5.6-1.5-7.5-3.6
				c-0.9-1-1.6-2.1-2.1-3.4c-1.8,3.5-5.5,5.9-9.7,5.9c-0.2,0-0.4,0-0.6,0l-2.4-0.1c-2.3-0.1-4.4-1-6.1-2.3l-0.4,6.4
				c-0.4,6.2-5.5,11-11.7,11c-0.2,0-0.4,0-0.7,0l-2.6-0.2c-3.1-0.2-6-1.6-8.1-3.9c-1.2-1.3-2-2.9-2.5-4.5c-1.8,4.2-6,7.2-10.8,7.2
				c-0.2,0-0.4,0-0.7,0l-2.6-0.2c-3.1-0.2-6-1.6-8.1-3.9c-0.4-0.5-0.8-1-1.2-1.6l-0.6,10.5C-560,668.9-565.6,674.2-572.3,674.2z"/>
			<path fill="#DBDCDC" d="M-599.5,472.5c0.5,0,0.9,0,1.4,0l42.9,2.5c3,0.2,5.8,0.9,8.3,2c0.3,0,0.6,0,0.9,0c0.3,0,0.6,0,0.9,0
				l38.6,2.2c2.8,0.2,5.4,0.9,7.8,1.9l34.1,2c2.7,0.2,5.2,0.9,7.5,2l28.4,1.6c2.6,0.1,5,0.9,7.1,2l23.5,1.4
				c8.8,0.5,15.5,8.1,15,16.8l-0.1,2.4l-0.4,7.3l-1.8,31.7c-0.1,2.4-2.2,4.3-4.5,4.3c-0.1,0-0.2,0-0.3,0l-1.2-0.1
				c-2.5-0.1-4.4-2.3-4.3-4.8l1.5-25.8c0.1-1-0.7-1.9-1.8-2c0,0-0.1,0-0.1,0c-1,0-1.8,0.8-1.9,1.8l-1.4,23.6l-3.9,67.5
				c-0.2,3.2-2.8,5.6-6,5.6c-0.1,0-0.2,0-0.3,0l-1.9-0.1c-3.3-0.2-5.8-3-5.6-6.3l3.2-56.3c0.1-1-0.5-1.8-1.4-2.1
				c-0.6,1.1-1.6,1.9-2.7,2.4l-3.2,55.7c-0.2,3.2-2.8,5.6-6,5.6c-0.1,0-0.2,0-0.3,0l-1.9-0.1c-1.9-0.1-3.5-1.1-4.5-2.5l-0.5,8.4
				c-0.2,3.5-3.1,6.3-6.6,6.3c-0.1,0-0.3,0-0.4,0l-2.1-0.1c-3.6-0.2-6.5-3.4-6.3-7l3.6-62.5c0.1-1.3-0.9-2.4-2.2-2.4
				c0,0-0.1,0-0.1,0c-0.4,0-0.8,0.1-1.1,0.3c-0.3,0.5-0.6,1-1.1,1.4c0,0.2-0.1,0.3-0.1,0.5l-3.6,62.5c-0.2,3.5-3.1,6.3-6.6,6.3
				c-0.1,0-0.3,0-0.4,0l-2.1-0.1c-3.6-0.2-6.5-3.4-6.3-7l4.3-75l1.4-25c-0.2,0.3-0.4,0.7-0.4,1.2l-1.7,29.1l-4.8,83.3
				c-0.2,3.9-3.5,7-7.4,7c-0.1,0-0.3,0-0.4,0l-2.4-0.1c-4.1-0.2-7.2-3.7-6.9-7.8l4-69.5c0.1-1.4-1-2.6-2.4-2.7c-0.1,0-0.1,0-0.1,0
				c-1.3,0-2.5,1-2.5,2.4l-4,69.5c-0.2,3.9-3.5,7-7.4,7c-0.1,0-0.3,0-0.4,0l-2.4-0.1c-4.1-0.2-7.2-3.7-6.9-7.8l4.8-83.3l1.7-28.8
				c-1.3,0.1-2.4,1.1-2.5,2.4l-1.9,32.3l-5.3,92.5c-0.3,4.3-3.9,7.7-8.2,7.7c-0.2,0-0.3,0-0.5,0l-2.6-0.2c-4.5-0.3-8-4.2-7.7-8.7
				l4.5-77.2c0.1-1.6-1.1-2.9-2.7-3c-0.1,0-0.1,0-0.2,0c-1.5,0-2.7,1.2-2.8,2.7l-4.5,77.2c-0.3,4.3-3.9,7.7-8.2,7.7
				c-0.2,0-0.3,0-0.5,0l-2.6-0.2c-4.5-0.3-8-4.2-7.7-8.7l5.3-92.5l1.8-31.1c-0.5-0.5-1.1-0.8-1.9-0.9c-0.1,0-0.1,0-0.2,0
				c-1.5,0-2.8,1.2-2.9,2.7l-2.1,35.9l-5.9,102.8c-0.3,4.8-4.3,8.6-9.1,8.6c-0.2,0-0.4,0-0.5,0l-2.9-0.2c-5-0.3-8.9-4.6-8.6-9.6
				l4.9-85.7c0.1-1.7-1.2-3.2-3-3.3c-0.1,0-0.1,0-0.2,0c-1.7,0-3,1.3-3.1,3l-4.9,85.7c-0.3,4.8-4.3,8.6-9.1,8.6c-0.2,0-0.4,0-0.5,0
				l-2.9-0.2c-5-0.3-8.9-4.6-8.6-9.6l5.9-102.8l2.1-35.9c0.1-1.6-1.1-3-2.7-3.1c-0.1,0-0.1,0-0.2,0c-1.5,0-2.8,1.2-2.9,2.7
				l-2.3,39.4c-0.2,3.7-3.3,6.5-6.9,6.5c-0.1,0-0.3,0-0.4,0l-1.9-0.1c-3.8-0.2-6.7-3.5-6.5-7.3l2.8-48.4l0.6-11.2l0.2-3.7
				C-623,482.5-612.3,472.5-599.5,472.5 M-599.5,465.5C-599.5,465.5-599.5,465.5-599.5,465.5c-16.6,0-30.3,13-31.3,29.5l-0.2,3.7
				l-0.6,11.2l-2.8,48.4c-0.4,7.7,5.4,14.3,13.1,14.7l1.9,0.1c0.3,0,0.5,0,0.8,0c1.7,0,3.4-0.3,5-0.9l-5,86.7
				c-0.5,8.9,6.3,16.5,15.2,17l2.9,0.2c0.3,0,0.6,0,0.9,0c4.6,0,8.7-1.9,11.6-5c0.3,0.3,0.5,0.7,0.8,1c2.9,3.2,6.8,5.1,11.1,5.4
				l2.9,0.2c0.3,0,0.6,0,0.9,0c8.5,0,15.6-6.7,16.1-15.2l0.2-3.3c1.8,0.9,3.8,1.5,6,1.6l2.6,0.2c0.3,0,0.6,0,0.9,0
				c4,0,7.7-1.6,10.4-4.1c2.6,3.1,6.4,5.1,10.7,5.4l2.6,0.2c0.3,0,0.6,0,0.9,0c8,0,14.7-6.3,15.2-14.3l0.1-1.2
				c0.9,0.2,1.8,0.4,2.7,0.4l2.4,0.1c0.3,0,0.6,0,0.8,0c3.5,0,6.8-1.3,9.3-3.4c2.4,2.6,5.8,4.3,9.7,4.6l2.4,0.1c0.3,0,0.6,0,0.8,0
				c7.6,0,13.9-5.9,14.4-13.5l2.1,0.1c0.3,0,0.5,0,0.8,0c3.1,0,6-1.1,8.3-2.8c2.3,2.2,5.3,3.7,8.7,3.9l2.1,0.1c0.3,0,0.5,0,0.8,0
				c6.9,0,12.7-5.2,13.5-12c0.1,0,0.2,0,0.4,0c2.8,0,5.3-0.9,7.4-2.4c2.1,1.9,4.8,3.1,7.9,3.3l1.9,0.1c0.3,0,0.5,0,0.7,0
				c6.9,0,12.6-5.4,13-12.2l3.1-53.8c0.4,0.1,0.9,0.1,1.3,0.2l1.2,0.1c0.2,0,0.4,0,0.7,0c6.1,0,11.2-4.8,11.5-10.9l1.8-31.7l0.4-7.3
				l0.1-2.4c0.7-12.6-9-23.5-21.6-24.2l-22.2-1.3c-2.7-1.2-5.5-1.9-8.5-2.1l-27.1-1.6c-2.8-1.2-5.8-1.9-8.8-2l-32.9-1.9
				c-2.9-1.2-5.9-1.8-9-2l-38.6-2.2c-0.3,0-0.5,0-0.8,0c-3-1.1-6.1-1.8-9.3-2l-42.9-2.5C-598.3,465.5-598.9,465.5-599.5,465.5
				L-599.5,465.5z"/>
			<path fill="#DBDCDC" d="M-410.8,486.4c-0.4,0-0.8,0-1.2,0c-6.9-0.4-12.9-4.3-16.1-10c-4,3.7-9.2,5.9-14.8,5.9c-0.4,0-0.8,0-1.3,0
				c-8.2-0.5-15.1-5.6-18.4-12.6c-4.4,5-10.9,8.1-17.8,8.1c0,0,0,0,0,0c-0.5,0-0.9,0-1.4,0c-6.3-0.4-12.1-3.2-16.3-7.9
				s-6.3-10.8-6-17.1c0.7-12.5,11.1-22.3,23.6-22.3c0.5,0,0.9,0,1.4,0c9.5,0.5,17.3,6.6,20.6,14.9c4-4,9.5-6.4,15.4-6.4
				c0.4,0,0.8,0,1.3,0c8,0.5,14.9,5.3,18.3,12.2c3.5-2.9,7.9-4.5,12.5-4.5c0.4,0,0.8,0,1.2,0c10.9,0.6,19.3,10,18.7,21
				C-391.6,478.2-400.3,486.4-410.8,486.4z"/>
			<path fill="#DBDCDC" d="M-480.4,433.9c0.4,0,0.8,0,1.2,0c11.1,0.6,19.5,10.1,19,21.2c2.4-7.4,9.3-12.7,17.3-12.7
				c0.4,0,0.7,0,1.1,0c8.9,0.5,15.9,7.3,17,15.8c2.9-4.8,8.1-8.1,14.1-8.1c0.3,0,0.6,0,1,0c9,0.5,15.9,8.2,15.4,17.3
				c-0.5,8.7-7.7,15.4-16.3,15.4c-0.3,0-0.6,0-1,0c-7.8-0.4-13.9-6.3-15.2-13.6c-3.1,5.7-9.1,9.5-15.9,9.5c-0.4,0-0.7,0-1.1,0
				c-9.9-0.6-17.5-9-17.1-18.8c-2.5,8.4-10.3,14.4-19.3,14.4c-0.4,0-0.8,0-1.2,0c-11.1-0.6-19.6-10.2-19-21.3
				C-499.9,442.2-491,433.9-480.4,433.9 M-480.4,426.9c-14.4,0-26.3,11.3-27.1,25.6c-0.9,15,10.6,27.8,25.6,28.7c0.5,0,1.1,0,1.6,0
				c6.3,0,12.2-2.2,17-6c0.6,0.8,1.2,1.5,1.8,2.3c4.5,4.9,10.6,7.8,17.2,8.2c0.5,0,1,0,1.5,0c5.1,0,10-1.5,14.1-4.3
				c4,4.9,10,8,16.7,8.4c0.5,0,0.9,0,1.4,0c12.4,0,22.6-9.7,23.3-22c0.7-12.9-9.1-23.9-22-24.7c-0.5,0-0.9,0-1.4,0
				c-4.1,0-8,1.1-11.4,3c-4.3-6.2-11.3-10.3-19.2-10.7c-0.5,0-1,0-1.5,0c-5.3,0-10.2,1.6-14.3,4.4c-4.5-7.3-12.4-12.4-21.6-12.9
				C-479.3,426.9-479.9,426.9-480.4,426.9L-480.4,426.9z"/>
			<path fill="#DBDCDC" d="M-524,472.9c-0.5,0-1,0-1.5,0c-6.9-0.4-13.3-3.5-17.9-8.6c-4.6-5.2-6.9-11.8-6.5-18.7
				c0.8-13.7,12.2-24.4,25.9-24.4c0.5,0,1,0,1.5,0c14.3,0.8,25.2,13.1,24.4,27.4C-498.9,462.2-510.2,472.9-524,472.9
				C-524,472.9-524,472.9-524,472.9z"/>
			<path fill="#DBDCDC" d="M-524,424.5c0.4,0,0.9,0,1.3,0c12.4,0.7,21.8,11.3,21.1,23.7c-0.7,11.9-10.6,21.1-22.4,21.1
				c-0.4,0-0.9,0-1.3,0c-12.4-0.7-21.8-11.3-21.1-23.7C-545.7,433.8-535.8,424.5-524,424.5 M-524,417.5c-15.6,0-28.5,12.2-29.4,27.7
				c-0.5,7.8,2.2,15.4,7.4,21.3s12.4,9.4,20.3,9.8c0.6,0,1.1,0,1.7,0c15.6,0,28.5-12.2,29.4-27.7c0.5-7.8-2.2-15.4-7.4-21.3
				c-5.2-5.9-12.4-9.4-20.3-9.8C-522.9,417.6-523.4,417.5-524,417.5L-524,417.5z"/>
			<path fill="#DBDCDC" d="M-574.6,467.6c-0.5,0-1.1,0-1.7,0c-15.6-0.9-27.6-14.4-26.7-30c0.9-15,13.3-26.8,28.3-26.8
				c0.5,0,1.1,0,1.7,0c7.6,0.4,14.5,3.8,19.6,9.5s7.6,13,7.2,20.5C-547.1,455.8-559.6,467.6-574.6,467.6
				C-574.6,467.6-574.6,467.6-574.6,467.6z"/>
			<path fill="#DBDCDC" d="M-574.7,414.2c0.5,0,1,0,1.5,0c13.7,0.8,24.2,12.6,23.4,26.3c-0.8,13.3-11.7,23.5-24.9,23.5
				c-0.5,0-1,0-1.5,0c-13.7-0.8-24.2-12.6-23.4-26.3C-598.8,424.5-587.8,414.2-574.7,414.2 M-574.7,407.2
				c-16.9,0-30.9,13.2-31.8,30.1c-0.5,8.5,2.4,16.7,8,23.1c5.7,6.4,13.5,10.1,22,10.6c0.6,0,1.2,0.1,1.9,0.1
				c16.9,0,30.9-13.2,31.8-30.1c1-17.6-12.5-32.7-30-33.7C-573.4,407.2-574.1,407.2-574.7,407.2L-574.7,407.2z"/>
			<circle id="XMLID_79_" fill="#DBDCDC" cx="-410.9" cy="469.4" r="16.3"/>
			<path id="XMLID_78_" fill="#DBDCDC" d="M-398.1,492.9l-28.2-1.6c-8.8-0.5-16.3,6.2-16.8,15l-0.1,2.4l-0.4,7.3l-1.8,31.7
				c-0.1,2.5,1.8,4.6,4.3,4.8l1.2,0.1c2.5,0.1,4.6-1.8,4.8-4.3l1.5-25.8c0.1-1,1-1.9,2-1.8l0,0c1,0.1,1.9,1,1.8,2l-1.4,23.6
				l-3.9,67.5c-0.2,3.3,2.3,6.1,5.6,6.3l1.9,0.1c3.3,0.2,6.1-2.3,6.3-5.6l3.2-56.3c0.1-1.1,1-2,2.2-1.9l0,0c1.1,0.1,2,1,1.9,2.2
				l-3.2,56.3c-0.2,3.3,2.3,6.1,5.6,6.3l1.9,0.1c3.3,0.2,6.1-2.3,6.3-5.6l3.9-67.5l1.4-23.6c0.1-1,1-1.9,2-1.8l0,0
				c1,0.1,1.9,1,1.8,2l-1.5,25.8c-0.1,2.5,1.8,4.6,4.3,4.8l1.2,0.1c2.5,0.1,4.6-1.8,4.8-4.3l1.8-31.7l0.4-7.3l0.1-2.4
				C-382.6,501-389.3,493.4-398.1,492.9z"/>
			<circle id="XMLID_75_" fill="#DBDCDC" cx="-410.9" cy="466.6" r="16.3"/>
			<path id="XMLID_74_" fill="#DBDCDC" d="M-398.1,490.1l-28.2-1.6c-8.8-0.5-16.3,6.2-16.8,15l-0.1,2.4l-0.4,7.3l-1.8,31.7
				c-0.1,2.5,1.8,4.6,4.3,4.8l1.2,0.1c2.5,0.1,4.6-1.8,4.8-4.3l1.5-25.8c0.1-1,1-1.9,2-1.8l0,0c1,0.1,1.9,1,1.8,2l-1.4,23.6
				l-3.9,67.5c-0.2,3.3,2.3,6.1,5.6,6.3l1.9,0.1c3.3,0.2,6.1-2.3,6.3-5.6l3.2-56.3c0.1-1.1,1-2,2.2-1.9l0,0c1.1,0.1,2,1,1.9,2.2
				l-3.2,56.3c-0.2,3.3,2.3,6.1,5.6,6.3l1.9,0.1c3.3,0.2,6.1-2.3,6.3-5.6l3.9-67.5l1.4-23.6c0.1-1,1-1.9,2-1.8l0,0
				c1,0.1,1.9,1,1.8,2l-1.5,25.8c-0.1,2.5,1.8,4.6,4.3,4.8l1.2,0.1c2.5,0.1,4.6-1.8,4.8-4.3l1.8-31.7l0.4-7.3l0.1-2.4
				C-382.6,498.2-389.3,490.6-398.1,490.1z"/>
			<circle id="XMLID_73_" fill="#DBDCDC" cx="-442.9" cy="463.5" r="18.2"/>
			<path id="XMLID_71_" fill="#DBDCDC" d="M-428.7,489.6l-31.3-1.8c-9.7-0.6-18.2,6.9-18.7,16.7l-0.2,2.7l-0.5,8.1l-2,35.3
				c-0.2,2.8,2,5.2,4.7,5.3l1.4,0.1c2.8,0.2,5.2-2,5.3-4.7l1.7-28.7c0.1-1.2,1.1-2.1,2.2-2l0,0c1.2,0.1,2.1,1.1,2,2.2l-1.5,26.2
				l-4.3,75c-0.2,3.6,2.6,6.8,6.3,7l2.1,0.1c3.6,0.2,6.8-2.6,7-6.3l3.6-62.5c0.1-1.3,1.2-2.2,2.4-2.2l0,0c1.3,0.1,2.2,1.2,2.2,2.4
				l-3.6,62.5c-0.2,3.6,2.6,6.8,6.3,7l2.1,0.1c3.6,0.2,6.8-2.6,7-6.2l4.3-75l1.5-26.2c0.1-1.2,1.1-2.1,2.2-2l0,0
				c1.2,0.1,2.1,1.1,2,2.2l-1.7,28.7c-0.2,2.8,2,5.2,4.7,5.3l1.4,0.1c2.8,0.2,5.2-2,5.3-4.7l2-35.3l0.5-8.1l0.2-2.7
				C-411.5,498.6-419,490.2-428.7,489.6z"/>
			<circle id="XMLID_66_" fill="#DBDCDC" cx="-442.9" cy="460.6" r="18.2"/>
			<path id="XMLID_65_" fill="#DBDCDC" d="M-428.7,486.8L-460,485c-9.7-0.6-18.2,6.9-18.7,16.7l-0.2,2.7l-0.5,8.1l-2,35.3
				c-0.2,2.8,2,5.2,4.7,5.3l1.4,0.1c2.8,0.2,5.2-2,5.3-4.7l1.7-28.7c0.1-1.2,1.1-2.1,2.2-2l0,0c1.2,0.1,2.1,1.1,2,2.2l-1.5,26.2
				l-4.3,75c-0.2,3.6,2.6,6.8,6.3,7l2.1,0.1c3.6,0.2,6.8-2.6,7-6.3l3.6-62.5c0.1-1.3,1.2-2.2,2.4-2.2l0,0c1.3,0.1,2.2,1.2,2.2,2.4
				l-3.6,62.5c-0.2,3.6,2.6,6.8,6.3,7l2.1,0.1c3.6,0.2,6.8-2.6,7-6.3l4.3-75l1.5-26.2c0.1-1.2,1.1-2.1,2.2-2l0,0
				c1.2,0.1,2.1,1.1,2,2.2l-1.7,28.7c-0.2,2.8,2,5.2,4.7,5.3l1.4,0.1c2.8,0.2,5.2-2,5.3-4.7l2-35.3l0.5-8.1l0.2-2.7
				C-411.5,495.8-419,487.3-428.7,486.8z"/>
			<circle id="XMLID_64_" fill="#DBDCDC" cx="-480.4" cy="456.9" r="20.2"/>
			<path id="XMLID_63_" fill="#DBDCDC" d="M-464.6,486l-34.8-2c-10.8-0.6-20.2,7.7-20.8,18.5l-0.2,3l-0.5,9l-2.3,39.2
				c-0.2,3.1,2.2,5.7,5.3,5.9l1.5,0.1c3.1,0.2,5.7-2.2,5.9-5.3l1.8-31.9c0.1-1.3,1.2-2.3,2.5-2.2l0,0c1.3,0.1,2.3,1.2,2.2,2.5
				l-1.7,29.1l-4.8,83.3c-0.2,4.1,2.9,7.6,6.9,7.8l2.4,0.1c4.1,0.2,7.6-2.9,7.8-6.9l4-69.5c0.1-1.4,1.3-2.5,2.7-2.4l0,0
				c1.4,0.1,2.5,1.3,2.4,2.7l-4,69.5c-0.2,4.1,2.9,7.6,6.9,7.8l2.4,0.1c4.1,0.2,7.6-2.9,7.8-6.9l4.8-83.3l1.7-29.1
				c0.1-1.3,1.2-2.3,2.5-2.2l0,0c1.3,0.1,2.3,1.2,2.2,2.5l-1.8,31.9c-0.2,3.1,2.2,5.7,5.3,5.9l1.5,0.1c3.1,0.2,5.7-2.2,5.9-5.3
				l2.3-39.2l0.5-9l0.2-3C-445.5,496-453.8,486.6-464.6,486z"/>
			<circle id="XMLID_61_" fill="#DBDCDC" cx="-480.4" cy="454.1" r="20.2"/>
			<path id="XMLID_56_" fill="#DBDCDC" d="M-464.6,483.2l-34.8-2c-10.8-0.6-20.2,7.7-20.8,18.5l-0.2,3l-0.5,9l-2.3,39.2
				c-0.2,3.1,2.2,5.7,5.3,5.9l1.5,0.1c3.1,0.2,5.7-2.2,5.9-5.3l1.8-31.9c0.1-1.3,1.2-2.3,2.5-2.2l0,0c1.3,0.1,2.3,1.2,2.2,2.5
				l-1.7,29.1l-4.8,83.3c-0.2,4.1,2.9,7.6,6.9,7.8l2.4,0.1c4.1,0.2,7.6-2.9,7.8-6.9l4-69.5c0.1-1.4,1.3-2.5,2.7-2.4l0,0
				c1.4,0.1,2.5,1.3,2.4,2.7l-4,69.5c-0.2,4.1,2.9,7.6,6.9,7.8l2.4,0.1c4.1,0.2,7.6-2.9,7.8-6.9l4.8-83.3l1.7-29.1
				c0.1-1.3,1.2-2.3,2.5-2.2l0,0c1.3,0.1,2.3,1.2,2.2,2.5l-1.8,31.9c-0.2,3.1,2.2,5.7,5.3,5.9l1.5,0.1c3.1,0.2,5.7-2.2,5.9-5.3
				l2.3-39.2l0.5-9l0.2-3C-445.5,493.2-453.8,483.8-464.6,483.2z"/>
			<circle id="XMLID_55_" fill="#DBDCDC" cx="-524" cy="449.8" r="22.4"/>
			<path id="XMLID_54_" fill="#DBDCDC" d="M-506.5,482.1l-38.6-2.2c-12-0.7-22.4,8.6-23.1,20.6l-0.2,3.3l-0.6,10.1l-2.5,43.5
				c-0.2,3.4,2.4,6.4,5.9,6.6l1.7,0.1c3.4,0.2,6.4-2.4,6.6-5.9l2-35.4c0.1-1.4,1.3-2.5,2.8-2.5l0,0c1.4,0.1,2.5,1.3,2.5,2.8
				l-1.9,32.3l-5.3,92.5c-0.3,4.5,3.2,8.4,7.7,8.7l2.6,0.2c4.5,0.3,8.4-3.2,8.7-7.7l4.5-77.2c0.1-1.6,1.4-2.8,3-2.7l0,0
				c1.6,0.1,2.8,1.4,2.7,3l-4.5,77.2c-0.3,4.5,3.2,8.4,7.7,8.7l2.6,0.2c4.5,0.3,8.4-3.2,8.7-7.7l5.3-92.5l1.9-32.3
				c0.1-1.4,1.3-2.5,2.8-2.5h0c1.4,0.1,2.5,1.3,2.5,2.8l-2,35.4c-0.2,3.4,2.4,6.4,5.9,6.6l1.7,0.1c3.4,0.2,6.4-2.4,6.6-5.9l2.5-43.5
				l0.6-10.1l0.2-3.3C-485.2,493.2-494.4,482.8-506.5,482.1z"/>
			<circle id="XMLID_53_" fill="#DBDCDC" cx="-524" cy="447" r="22.4"/>
			<path id="XMLID_51_" fill="#DBDCDC" d="M-506.5,479.3l-38.6-2.2c-12-0.7-22.4,8.6-23.1,20.6l-0.2,3.3L-569,511l-2.5,43.5
				c-0.2,3.4,2.4,6.4,5.9,6.6l1.7,0.1c3.4,0.2,6.4-2.4,6.6-5.9l2-35.4c0.1-1.4,1.3-2.5,2.8-2.5l0,0c1.4,0.1,2.5,1.3,2.5,2.8
				l-1.9,32.3l-5.3,92.5c-0.3,4.5,3.2,8.4,7.7,8.7l2.6,0.2c4.5,0.3,8.4-3.2,8.7-7.7l4.5-77.2c0.1-1.6,1.4-2.8,3-2.7l0,0
				c1.6,0.1,2.8,1.4,2.7,3l-4.5,77.2c-0.3,4.5,3.2,8.4,7.7,8.7l2.6,0.2c4.5,0.3,8.4-3.2,8.7-7.7l5.3-92.5l1.9-32.3
				c0.1-1.4,1.3-2.5,2.8-2.5h0c1.4,0.1,2.5,1.3,2.5,2.8l-2,35.4c-0.2,3.4,2.4,6.4,5.9,6.6l1.7,0.1c3.4,0.2,6.4-2.4,6.6-5.9l2.5-43.5
				l0.6-10.1l0.2-3.3C-485.2,490.3-494.4,479.9-506.5,479.3z"/>
			<circle id="XMLID_46_" fill="#DBDCDC" cx="-574.7" cy="442" r="24.9"/>
			<path id="XMLID_45_" fill="#DBDCDC" d="M-555.2,477.9l-42.9-2.5c-13.4-0.8-24.9,9.5-25.7,22.9l-0.2,3.7l-0.6,11.2l-2.8,48.4
				c-0.2,3.8,2.7,7.1,6.5,7.3l1.9,0.1c3.8,0.2,7.1-2.7,7.3-6.5l2.3-39.4c0.1-1.6,1.5-2.8,3.1-2.7h0c1.6,0.1,2.8,1.5,2.7,3.1
				l-2.1,35.9l-5.9,102.8c-0.3,5,3.6,9.3,8.6,9.6l2.9,0.2c5,0.3,9.3-3.6,9.6-8.6l4.9-85.7c0.1-1.7,1.6-3.1,3.3-3l0,0
				c1.7,0.1,3.1,1.6,3,3.3l-4.9,85.7c-0.3,5,3.6,9.3,8.6,9.6l2.9,0.2c5,0.3,9.3-3.6,9.6-8.6l5.9-102.8l2.1-35.9
				c0.1-1.6,1.5-2.8,3.1-2.7l0,0c1.6,0.1,2.8,1.5,2.7,3.1l-2.3,39.4c-0.2,3.8,2.7,7.1,6.5,7.3l1.9,0.1c3.8,0.2,7.1-2.7,7.3-6.5
				l2.8-48.4l0.6-11.2l0.2-3.7C-531.5,490.2-541.8,478.6-555.2,477.9z"/>
			<circle id="XMLID_44_" fill="#DBDCDC" cx="-574.7" cy="439.1" r="24.9"/>
			<path id="XMLID_43_" fill="#DBDCDC" d="M-555.2,475l-42.9-2.5c-13.4-0.8-24.9,9.5-25.7,22.9l-0.2,3.7l-0.6,11.2l-2.8,48.4
				c-0.2,3.8,2.7,7.1,6.5,7.3l1.9,0.1c3.8,0.2,7.1-2.7,7.3-6.5l2.3-39.4c0.1-1.6,1.5-2.8,3.1-2.7h0c1.6,0.1,2.8,1.5,2.7,3.1
				l-2.1,35.9l-5.9,102.8c-0.3,5,3.6,9.3,8.6,9.6l2.9,0.2c5,0.3,9.3-3.6,9.6-8.6l4.9-85.7c0.1-1.7,1.6-3.1,3.3-3l0,0
				c1.7,0.1,3.1,1.6,3,3.3l-4.9,85.7c-0.3,5,3.6,9.3,8.6,9.6l2.9,0.2c5,0.3,9.3-3.6,9.6-8.6l5.9-102.8l2.1-35.9
				c0.1-1.6,1.5-2.8,3.1-2.7l0,0c1.6,0.1,2.8,1.5,2.7,3.1l-2.3,39.4c-0.2,3.8,2.7,7.1,6.5,7.3l1.9,0.1c3.8,0.2,7.1-2.7,7.3-6.5
				l2.8-48.4l0.6-11.2l0.2-3.7C-531.5,487.3-541.8,475.8-555.2,475z"/>
		</g>
		<g>
			<g id="XMLID_40_">
				<path fill="#F7F7F7" d="M-572.3,668.5c-0.2,0-0.5,0-0.7,0l-2.9-0.2c-5.9-0.3-10.7-4.8-11.7-10.4c-1.6,5.2-6.4,9-12.1,9
					c-0.2,0-0.5,0-0.7,0l-2.9-0.2c-6.9-0.4-12.3-6.4-11.9-13.3l5.5-94.5c-1.8,3-5.2,5-8.9,5c-0.2,0-0.4,0-0.6,0l-1.9-0.1
					c-5.7-0.3-10.1-5.3-9.8-11l3.6-63.2c0.8-14.7,13-26.2,27.8-26.2c0.5,0,1.1,0,1.6,0l42.9,2.5c3,0.2,6,0.8,8.8,2
					c0.1,0,0.1,0,0.2,0c0.4,0,0.8,0,1.1,0l38.6,2.2c2.9,0.2,5.7,0.8,8.4,2l33.5,1.9c2.8,0.2,5.6,0.8,8.2,2l27.7,1.6
					c2.7,0.2,5.3,0.8,7.8,2l22.8,1.3c10.7,0.6,18.9,9.8,18.3,20.5L-382,543c-0.2,4.2-3.8,7.6-8,7.6l0,0c-0.2,0-0.3,0-0.5,0l-1.2-0.1
					c-1.8-0.1-3.5-0.8-4.7-1.9l-3.4,58.8c-0.3,5-4.4,8.9-9.5,8.9c-0.2,0-0.4,0-0.5,0l-1.9-0.1c-2.5-0.1-4.8-1.3-6.5-3.2
					c-0.5-0.5-0.9-1.1-1.2-1.8c-1.7,2.4-4.6,4-7.7,4c-0.2,0-0.4,0-0.5,0l-1.9-0.1c-0.4,0-0.8-0.1-1.2-0.1l-0.2,2.7
					c-0.3,5.4-4.8,9.6-10.1,9.6c-0.2,0-0.4,0-0.6,0l-2.1-0.1c-3.9-0.2-7.1-2.6-8.6-5.9c-1.8,2.9-5,4.8-8.6,4.8c-0.2,0-0.4,0-0.6,0
					l-2.1-0.1c-1.2-0.1-2.4-0.3-3.4-0.8l-0.2,4.1c-0.3,5.8-5.1,10.3-10.9,10.3c-0.2,0-0.4,0-0.6,0l-2.4-0.1
					c-2.9-0.2-5.6-1.5-7.5-3.6c-0.9-1-1.6-2.1-2.1-3.4c-1.8,3.5-5.5,5.9-9.7,5.9c-0.2,0-0.4,0-0.6,0l-2.4-0.1
					c-2.3-0.1-4.4-1-6.1-2.3l-0.4,6.4c-0.4,6.2-5.5,11-11.7,11c-0.2,0-0.4,0-0.7,0l-2.6-0.2c-3.1-0.2-6-1.6-8.1-3.9
					c-1.2-1.3-2-2.9-2.5-4.5c-1.8,4.2-6,7.2-10.8,7.2c-0.2,0-0.4,0-0.7,0l-2.6-0.2c-3.1-0.2-6-1.6-8.1-3.9c-0.4-0.5-0.8-1-1.2-1.6
					l-0.6,10.5C-560,663.3-565.6,668.5-572.3,668.5z"/>
				<path fill="#F7F7F7" d="M-599.5,466.8c0.5,0,0.9,0,1.4,0l42.9,2.5c3,0.2,5.8,0.9,8.3,2c0.3,0,0.6,0,0.9,0c0.3,0,0.6,0,0.9,0
					l38.6,2.2c2.8,0.2,5.4,0.9,7.8,1.9l34.1,2c2.7,0.2,5.2,0.9,7.5,2l28.4,1.6c2.6,0.1,5,0.9,7.1,2l23.5,1.4
					c8.8,0.5,15.5,8.1,15,16.8l-0.1,2.4l-0.4,7.3l-1.8,31.7c-0.1,2.4-2.2,4.3-4.5,4.3c-0.1,0-0.2,0-0.3,0l-1.2-0.1
					c-2.5-0.1-4.4-2.3-4.3-4.8l1.5-25.8c0.1-1-0.7-1.9-1.8-2c0,0-0.1,0-0.1,0c-1,0-1.8,0.8-1.9,1.8l-1.4,23.6l-3.9,67.5
					c-0.2,3.2-2.8,5.6-6,5.6c-0.1,0-0.2,0-0.3,0l-1.9-0.1c-3.3-0.2-5.8-3-5.6-6.3l3.2-56.3c0.1-1-0.5-1.8-1.4-2.1
					c-0.6,1.1-1.6,1.9-2.7,2.4l-3.2,55.7c-0.2,3.2-2.8,5.6-6,5.6c-0.1,0-0.2,0-0.3,0l-1.9-0.1c-1.9-0.1-3.5-1.1-4.5-2.5l-0.5,8.4
					c-0.2,3.5-3.1,6.3-6.6,6.3c-0.1,0-0.3,0-0.4,0l-2.1-0.1c-3.6-0.2-6.5-3.4-6.3-7l3.6-62.5c0.1-1.3-0.9-2.4-2.2-2.4
					c0,0-0.1,0-0.1,0c-0.4,0-0.8,0.1-1.1,0.3c-0.3,0.5-0.6,1-1.1,1.4c0,0.2-0.1,0.3-0.1,0.5l-3.6,62.5c-0.2,3.5-3.1,6.3-6.6,6.3
					c-0.1,0-0.3,0-0.4,0l-2.1-0.1c-3.6-0.2-6.5-3.4-6.3-7l4.3-75l1.4-25c-0.2,0.3-0.4,0.7-0.4,1.2l-1.7,29.1l-4.8,83.3
					c-0.2,3.9-3.5,7-7.4,7c-0.1,0-0.3,0-0.4,0l-2.4-0.1c-4.1-0.2-7.2-3.7-6.9-7.8l4-69.5c0.1-1.4-1-2.6-2.4-2.7c-0.1,0-0.1,0-0.1,0
					c-1.3,0-2.5,1-2.5,2.4l-4,69.5c-0.2,3.9-3.5,7-7.4,7c-0.1,0-0.3,0-0.4,0l-2.4-0.1c-4.1-0.2-7.2-3.7-6.9-7.8l4.8-83.3l1.7-28.8
					c-1.3,0.1-2.4,1.1-2.5,2.4l-1.9,32.3l-5.3,92.5c-0.3,4.3-3.9,7.7-8.2,7.7c-0.2,0-0.3,0-0.5,0l-2.6-0.2c-4.5-0.3-8-4.2-7.7-8.7
					l4.5-77.2c0.1-1.6-1.1-2.9-2.7-3c-0.1,0-0.1,0-0.2,0c-1.5,0-2.7,1.2-2.8,2.7l-4.5,77.2c-0.3,4.3-3.9,7.7-8.2,7.7
					c-0.2,0-0.3,0-0.5,0l-2.6-0.2c-4.5-0.3-8-4.2-7.7-8.7l5.3-92.5l1.8-31.1c-0.5-0.5-1.1-0.8-1.9-0.9c-0.1,0-0.1,0-0.2,0
					c-1.5,0-2.8,1.2-2.9,2.7l-2.1,35.9l-5.9,102.8c-0.3,4.8-4.3,8.6-9.1,8.6c-0.2,0-0.4,0-0.5,0l-2.9-0.2c-5-0.3-8.9-4.6-8.6-9.6
					l4.9-85.7c0.1-1.7-1.2-3.2-3-3.3c-0.1,0-0.1,0-0.2,0c-1.7,0-3,1.3-3.1,3l-4.9,85.7c-0.3,4.8-4.3,8.6-9.1,8.6c-0.2,0-0.4,0-0.5,0
					l-2.9-0.2c-5-0.3-8.9-4.6-8.6-9.6l5.9-102.8l2.1-35.9c0.1-1.6-1.1-3-2.7-3.1c-0.1,0-0.1,0-0.2,0c-1.5,0-2.8,1.2-2.9,2.7
					l-2.3,39.4c-0.2,3.7-3.3,6.5-6.9,6.5c-0.1,0-0.3,0-0.4,0l-1.9-0.1c-3.8-0.2-6.7-3.5-6.5-7.3l2.8-48.4l0.6-11.2l0.2-3.7
					C-623,476.9-612.3,466.8-599.5,466.8 M-599.5,459.8C-599.5,459.8-599.5,459.8-599.5,459.8c-16.6,0-30.3,13-31.3,29.5l-0.2,3.7
					l-0.6,11.2l-2.8,48.4c-0.4,7.7,5.4,14.3,13.1,14.7l1.9,0.1c0.3,0,0.5,0,0.8,0c1.7,0,3.4-0.3,5-0.9l-5,86.7
					c-0.5,8.9,6.3,16.5,15.2,17l2.9,0.2c0.3,0,0.6,0,0.9,0c4.6,0,8.7-1.9,11.6-5c0.3,0.3,0.5,0.7,0.8,1c2.9,3.2,6.8,5.1,11.1,5.4
					l2.9,0.2c0.3,0,0.6,0,0.9,0c8.5,0,15.6-6.7,16.1-15.2l0.2-3.3c1.8,0.9,3.8,1.5,6,1.6l2.6,0.2c0.3,0,0.6,0,0.9,0
					c4,0,7.7-1.6,10.4-4.1c2.6,3.1,6.4,5.1,10.7,5.4l2.6,0.2c0.3,0,0.6,0,0.9,0c8,0,14.7-6.3,15.2-14.3l0.1-1.2
					c0.9,0.2,1.8,0.4,2.7,0.4l2.4,0.1c0.3,0,0.6,0,0.8,0c3.5,0,6.8-1.3,9.3-3.4c2.4,2.6,5.8,4.3,9.7,4.6l2.4,0.1c0.3,0,0.6,0,0.8,0
					c7.6,0,13.9-5.9,14.4-13.5l2.1,0.1c0.3,0,0.5,0,0.8,0c3.1,0,6-1.1,8.3-2.8c2.3,2.2,5.3,3.7,8.7,3.9l2.1,0.1c0.3,0,0.5,0,0.8,0
					c6.9,0,12.7-5.2,13.5-12c0.1,0,0.2,0,0.4,0c2.8,0,5.3-0.9,7.4-2.4c2.1,1.9,4.8,3.1,7.9,3.3l1.9,0.1c0.3,0,0.5,0,0.7,0
					c6.9,0,12.6-5.4,13-12.2l3.1-53.8c0.4,0.1,0.9,0.1,1.3,0.2l1.2,0.1c0.2,0,0.4,0,0.7,0c6.1,0,11.2-4.8,11.5-10.9l1.8-31.7
					l0.4-7.3l0.1-2.4c0.7-12.6-9-23.5-21.6-24.2l-22.2-1.3c-2.7-1.2-5.5-1.9-8.5-2.1l-27.1-1.6c-2.8-1.2-5.8-1.9-8.8-2l-32.9-1.9
					c-2.9-1.2-5.9-1.8-9-2l-38.6-2.2c-0.3,0-0.5,0-0.8,0c-3-1.1-6.1-1.8-9.3-2l-42.9-2.5C-598.3,459.8-598.9,459.8-599.5,459.8
					L-599.5,459.8z"/>
			</g>
			<g id="XMLID_36_">
				<path fill="#F7F7F7" d="M-410.8,480.8c-0.4,0-0.8,0-1.2,0c-6.9-0.4-12.9-4.3-16.1-10c-4,3.7-9.2,5.9-14.8,5.9
					c-0.4,0-0.8,0-1.3,0c-8.2-0.5-15.1-5.6-18.4-12.6c-4.4,5-10.9,8.1-17.8,8.1c0,0,0,0,0,0c-0.5,0-0.9,0-1.4,0
					c-6.3-0.4-12.1-3.2-16.3-7.9s-6.3-10.8-6-17.1c0.7-12.5,11.1-22.3,23.6-22.3c0.5,0,0.9,0,1.4,0c9.5,0.5,17.3,6.6,20.6,14.9
					c4-4,9.5-6.4,15.4-6.4c0.4,0,0.8,0,1.3,0c8,0.5,14.9,5.3,18.3,12.2c3.5-2.9,7.9-4.5,12.5-4.5c0.4,0,0.8,0,1.2,0
					c10.9,0.6,19.3,10,18.7,21C-391.6,472.5-400.3,480.8-410.8,480.8z"/>
				<path fill="#F7F7F7" d="M-480.4,428.3c0.4,0,0.8,0,1.2,0c11.1,0.6,19.5,10.1,19,21.2c2.4-7.4,9.3-12.7,17.3-12.7
					c0.4,0,0.7,0,1.1,0c8.9,0.5,15.9,7.3,17,15.8c2.9-4.8,8.1-8.1,14.1-8.1c0.3,0,0.6,0,1,0c9,0.5,15.9,8.2,15.4,17.3
					c-0.5,8.7-7.7,15.4-16.3,15.4c-0.3,0-0.6,0-1,0c-7.8-0.4-13.9-6.3-15.2-13.6c-3.1,5.7-9.1,9.5-15.9,9.5c-0.4,0-0.7,0-1.1,0
					c-9.9-0.6-17.5-9-17.1-18.8c-2.5,8.4-10.3,14.4-19.3,14.4c-0.4,0-0.8,0-1.2,0c-11.1-0.6-19.6-10.2-19-21.3
					C-499.9,436.5-491,428.3-480.4,428.3 M-480.4,421.3c-14.4,0-26.3,11.3-27.1,25.6c-0.9,15,10.6,27.8,25.6,28.7c0.5,0,1.1,0,1.6,0
					c6.3,0,12.2-2.2,17-6c0.6,0.8,1.2,1.5,1.8,2.3c4.5,4.9,10.6,7.8,17.2,8.2c0.5,0,1,0,1.5,0c5.1,0,10-1.5,14.1-4.3
					c4,4.9,10,8,16.7,8.4c0.5,0,0.9,0,1.4,0c12.4,0,22.6-9.7,23.3-22c0.7-12.9-9.1-23.9-22-24.7c-0.5,0-0.9,0-1.4,0
					c-4.1,0-8,1.1-11.4,3c-4.3-6.2-11.3-10.3-19.2-10.7c-0.5,0-1,0-1.5,0c-5.3,0-10.2,1.6-14.3,4.4c-4.5-7.3-12.4-12.4-21.6-12.9
					C-479.3,421.3-479.9,421.3-480.4,421.3L-480.4,421.3z"/>
			</g>
			<g id="XMLID_32_">
				<path fill="#F7F7F7" d="M-524,467.2c-0.5,0-1,0-1.5,0c-6.9-0.4-13.3-3.5-17.9-8.6c-4.6-5.2-6.9-11.8-6.5-18.7
					c0.8-13.7,12.2-24.4,25.9-24.4c0.5,0,1,0,1.5,0c14.3,0.8,25.2,13.1,24.4,27.4C-498.9,456.5-510.2,467.2-524,467.2
					C-524,467.2-524,467.2-524,467.2z"/>
				<path fill="#F7F7F7" d="M-524,418.9c0.4,0,0.9,0,1.3,0c12.4,0.7,21.8,11.3,21.1,23.7c-0.7,11.9-10.6,21.1-22.4,21.1
					c-0.4,0-0.9,0-1.3,0c-12.4-0.7-21.8-11.3-21.1-23.7C-545.7,428.1-535.8,418.9-524,418.9 M-524,411.9
					c-15.6,0-28.5,12.2-29.4,27.7c-0.5,7.8,2.2,15.4,7.4,21.3s12.4,9.4,20.3,9.8c0.6,0,1.1,0,1.7,0c15.6,0,28.5-12.2,29.4-27.7
					c0.5-7.8-2.2-15.4-7.4-21.3c-5.2-5.9-12.4-9.4-20.3-9.8C-522.9,411.9-523.4,411.9-524,411.9L-524,411.9z"/>
			</g>
			<g id="XMLID_30_">
				<path fill="#F7F7F7" d="M-574.6,461.9c-0.5,0-1.1,0-1.7,0c-15.6-0.9-27.6-14.4-26.7-30c0.9-15,13.3-26.8,28.3-26.8
					c0.5,0,1.1,0,1.7,0c7.6,0.4,14.5,3.8,19.6,9.5s7.6,13,7.2,20.5C-547.1,450.1-559.6,461.9-574.6,461.9
					C-574.6,461.9-574.6,461.9-574.6,461.9z"/>
				<path fill="#F7F7F7" d="M-574.7,408.6c0.5,0,1,0,1.5,0c13.7,0.8,24.2,12.6,23.4,26.3c-0.8,13.3-11.7,23.5-24.9,23.5
					c-0.5,0-1,0-1.5,0c-13.7-0.8-24.2-12.6-23.4-26.3C-598.8,418.8-587.8,408.6-574.7,408.6 M-574.7,401.6
					c-16.9,0-30.9,13.2-31.8,30.1c-0.5,8.5,2.4,16.7,8,23.1c5.7,6.4,13.5,10.1,22,10.6c0.6,0,1.2,0.1,1.9,0.1
					c16.9,0,30.9-13.2,31.8-30.1c1-17.6-12.5-32.7-30-33.7C-573.4,401.6-574.1,401.6-574.7,401.6L-574.7,401.6z"/>
			</g>
			<g id="XMLID_23_">
				<g>
					<circle id="XMLID_29_" fill="#1E7F93" cx="-410.9" cy="463.7" r="16.3"/>
					<path id="XMLID_28_" fill="#1E7F93" d="M-398.1,487.3l-28.2-1.6c-8.8-0.5-16.3,6.2-16.8,15l-0.1,2.4l-0.4,7.3l-1.8,31.7
						c-0.1,2.5,1.8,4.6,4.3,4.8l1.2,0.1c2.5,0.1,4.6-1.8,4.8-4.3l1.5-25.8c0.1-1,1-1.9,2-1.8l0,0c1,0.1,1.9,1,1.8,2l-1.4,23.6
						l-3.9,67.5c-0.2,3.3,2.3,6.1,5.6,6.3l1.9,0.1c3.3,0.2,6.1-2.3,6.3-5.6l3.2-56.3c0.1-1.1,1-2,2.2-1.9l0,0c1.1,0.1,2,1,1.9,2.2
						l-3.2,56.3c-0.2,3.3,2.3,6.1,5.6,6.3l1.9,0.1c3.3,0.2,6.1-2.3,6.3-5.6l3.9-67.5l1.4-23.6c0.1-1,1-1.9,2-1.8l0,0
						c1,0.1,1.9,1,1.8,2l-1.5,25.8c-0.1,2.5,1.8,4.6,4.3,4.8l1.2,0.1c2.5,0.1,4.6-1.8,4.8-4.3l1.8-31.7l0.4-7.3l0.1-2.4
						C-382.6,495.4-389.3,487.8-398.1,487.3z"/>
				</g>
				<g>
					<circle id="XMLID_25_" fill="#17A2C7" cx="-410.9" cy="460.9" r="16.3"/>
					<path id="XMLID_24_" fill="#17A2C7" d="M-398.1,484.4l-28.2-1.6c-8.8-0.5-16.3,6.2-16.8,15l-0.1,2.4l-0.4,7.3l-1.8,31.7
						c-0.1,2.5,1.8,4.6,4.3,4.8l1.2,0.1c2.5,0.1,4.6-1.8,4.8-4.3l1.5-25.8c0.1-1,1-1.9,2-1.8l0,0c1,0.1,1.9,1,1.8,2l-1.4,23.6
						l-3.9,67.5c-0.2,3.3,2.3,6.1,5.6,6.3l1.9,0.1c3.3,0.2,6.1-2.3,6.3-5.6l3.2-56.3c0.1-1.1,1-2,2.2-1.9l0,0c1.1,0.1,2,1,1.9,2.2
						l-3.2,56.3c-0.2,3.3,2.3,6.1,5.6,6.3l1.9,0.1c3.3,0.2,6.1-2.3,6.3-5.6l3.9-67.5l1.4-23.6c0.1-1,1-1.9,2-1.8l0,0
						c1,0.1,1.9,1,1.8,2l-1.5,25.8c-0.1,2.5,1.8,4.6,4.3,4.8l1.2,0.1c2.5,0.1,4.6-1.8,4.8-4.3l1.8-31.7l0.4-7.3l0.1-2.4
						C-382.6,492.5-389.3,484.9-398.1,484.4z"/>
				</g>
			</g>
			<g id="XMLID_18_">
				<g>
					<circle id="XMLID_22_" fill="#29B765" cx="-442.9" cy="457.8" r="18.2"/>
					<path id="XMLID_21_" fill="#29B765" d="M-428.7,483.9l-31.3-1.8c-9.7-0.6-18.2,6.9-18.7,16.7l-0.2,2.7l-0.5,8.1l-2,35.3
						c-0.2,2.8,2,5.2,4.7,5.3l1.4,0.1c2.8,0.2,5.2-2,5.3-4.7l1.7-28.7c0.1-1.2,1.1-2.1,2.2-2l0,0c1.2,0.1,2.1,1.1,2,2.2l-1.5,26.2
						l-4.3,75c-0.2,3.6,2.6,6.8,6.3,7l2.1,0.1c3.6,0.2,6.8-2.6,7-6.3l3.6-62.5c0.1-1.3,1.2-2.2,2.4-2.2l0,0c1.3,0.1,2.2,1.2,2.2,2.4
						l-3.6,62.5c-0.2,3.6,2.6,6.8,6.3,7l2.1,0.1c3.6,0.2,6.8-2.6,7-6.3l4.3-75l1.5-26.2c0.1-1.2,1.1-2.1,2.2-2l0,0
						c1.2,0.1,2.1,1.1,2,2.2l-1.7,28.7c-0.2,2.8,2,5.2,4.7,5.3l1.4,0.1c2.8,0.2,5.2-2,5.3-4.7l2-35.3l0.5-8.1l0.2-2.7
						C-411.5,492.9-419,484.5-428.7,483.9z"/>
				</g>
				<g>
					<circle id="XMLID_20_" fill="#2ECC71" cx="-442.9" cy="455" r="18.2"/>
					<path id="XMLID_19_" fill="#2ECC71" d="M-428.7,481.1l-31.3-1.8c-9.7-0.6-18.2,6.9-18.7,16.7l-0.2,2.7l-0.5,8.1l-2,35.3
						c-0.2,2.8,2,5.2,4.7,5.3l1.4,0.1c2.8,0.2,5.2-2,5.3-4.7l1.7-28.7c0.1-1.2,1.1-2.1,2.2-2l0,0c1.2,0.1,2.1,1.1,2,2.2l-1.5,26.2
						l-4.3,75c-0.2,3.6,2.6,6.8,6.3,7l2.1,0.1c3.6,0.2,6.8-2.6,7-6.3l3.6-62.5c0.1-1.3,1.2-2.2,2.4-2.2l0,0c1.3,0.1,2.2,1.2,2.2,2.4
						l-3.6,62.5c-0.2,3.6,2.6,6.8,6.3,7l2.1,0.1c3.6,0.2,6.8-2.6,7-6.3l4.3-75l1.5-26.2c0.1-1.2,1.1-2.1,2.2-2l0,0
						c1.2,0.1,2.1,1.1,2,2.2l-1.7,28.7c-0.2,2.8,2,5.2,4.7,5.3l1.4,0.1c2.8,0.2,5.2-2,5.3-4.7l2-35.3l0.5-8.1l0.2-2.7
						C-411.5,490.1-419,481.7-428.7,481.1z"/>
				</g>
			</g>
			<g id="XMLID_13_">
				<g>
					<circle id="XMLID_17_" fill="#E8BA00" cx="-480.4" cy="451.3" r="20.2"/>
					<path id="XMLID_16_" fill="#E8BA00" d="M-464.6,480.3l-34.8-2c-10.8-0.6-20.2,7.7-20.8,18.5l-0.2,3l-0.5,9l-2.3,39.2
						c-0.2,3.1,2.2,5.7,5.3,5.9l1.5,0.1c3.1,0.2,5.7-2.2,5.9-5.3l1.8-31.9c0.1-1.3,1.2-2.3,2.5-2.2l0,0c1.3,0.1,2.3,1.2,2.2,2.5
						l-1.7,29.1l-4.8,83.3c-0.2,4.1,2.9,7.6,6.9,7.8l2.4,0.1c4.1,0.2,7.6-2.9,7.8-6.9l4-69.5c0.1-1.4,1.3-2.5,2.7-2.4l0,0
						c1.4,0.1,2.5,1.3,2.4,2.7l-4,69.5c-0.2,4.1,2.9,7.6,6.9,7.8l2.4,0.1c4.1,0.2,7.6-2.9,7.8-6.9l4.8-83.3l1.7-29.1
						c0.1-1.3,1.2-2.3,2.5-2.2l0,0c1.3,0.1,2.3,1.2,2.2,2.5l-1.8,31.9c-0.2,3.1,2.2,5.7,5.3,5.9l1.5,0.1c3.1,0.2,5.7-2.2,5.9-5.3
						l2.3-39.2l0.5-9l0.2-3C-445.5,490.3-453.8,481-464.6,480.3z"/>
				</g>
				<g>
					<circle id="XMLID_15_" fill="#FFCD02" cx="-480.4" cy="448.4" r="20.2"/>
					<path id="XMLID_14_" fill="#FFCD02" d="M-464.6,477.5l-34.8-2c-10.8-0.6-20.2,7.7-20.8,18.5l-0.2,3l-0.5,9l-2.3,39.2
						c-0.2,3.1,2.2,5.7,5.3,5.9l1.5,0.1c3.1,0.2,5.7-2.2,5.9-5.3l1.8-31.9c0.1-1.3,1.2-2.3,2.5-2.2l0,0c1.3,0.1,2.3,1.2,2.2,2.5
						l-1.7,29.1l-4.8,83.3c-0.2,4.1,2.9,7.6,6.9,7.8l2.4,0.1c4.1,0.2,7.6-2.9,7.8-6.9l4-69.5c0.1-1.4,1.3-2.5,2.7-2.4l0,0
						c1.4,0.1,2.5,1.3,2.4,2.7l-4,69.5c-0.2,4.1,2.9,7.6,6.9,7.8l2.4,0.1c4.1,0.2,7.6-2.9,7.8-6.9l4.8-83.3l1.7-29.1
						c0.1-1.3,1.2-2.3,2.5-2.2l0,0c1.3,0.1,2.3,1.2,2.2,2.5l-1.8,31.9c-0.2,3.1,2.2,5.7,5.3,5.9l1.5,0.1c3.1,0.2,5.7-2.2,5.9-5.3
						l2.3-39.2l0.5-9l0.2-3C-445.5,487.5-453.8,478.1-464.6,477.5z"/>
				</g>
			</g>
			<g id="XMLID_8_">
				<g>
					<circle id="XMLID_12_" fill="#E89300" cx="-524" cy="444.1" r="22.4"/>
					<path id="XMLID_11_" fill="#E89300" d="M-506.5,476.4l-38.6-2.2c-12-0.7-22.4,8.6-23.1,20.6l-0.2,3.3l-0.6,10.1l-2.5,43.5
						c-0.2,3.4,2.4,6.4,5.9,6.6l1.7,0.1c3.4,0.2,6.4-2.4,6.6-5.9l2-35.4c0.1-1.4,1.3-2.5,2.8-2.5l0,0c1.4,0.1,2.5,1.3,2.5,2.8
						l-1.9,32.3l-5.3,92.5c-0.3,4.5,3.2,8.4,7.7,8.7l2.6,0.2c4.5,0.3,8.4-3.2,8.7-7.7l4.5-77.2c0.1-1.6,1.4-2.8,3-2.7v0
						c1.6,0.1,2.8,1.4,2.7,3l-4.5,77.2c-0.3,4.5,3.2,8.4,7.7,8.7l2.6,0.2c4.5,0.3,8.4-3.2,8.7-7.7l5.3-92.5l1.9-32.3
						c0.1-1.4,1.3-2.5,2.8-2.5h0c1.4,0.1,2.5,1.3,2.5,2.8l-2,35.4c-0.2,3.4,2.4,6.4,5.9,6.6l1.7,0.1c3.4,0.2,6.4-2.4,6.6-5.9
						l2.5-43.5l0.6-10.1l0.2-3.3C-485.2,487.5-494.4,477.1-506.5,476.4z"/>
				</g>
				<g>
					<circle id="XMLID_10_" fill="#FFA302" cx="-524" cy="441.3" r="22.4"/>
					<path id="XMLID_9_" fill="#FFA302" d="M-506.5,473.6l-38.6-2.2c-12-0.7-22.4,8.6-23.1,20.6l-0.2,3.3l-0.6,10.1l-2.5,43.5
						c-0.2,3.4,2.4,6.4,5.9,6.6l1.7,0.1c3.4,0.2,6.4-2.4,6.6-5.9l2-35.4c0.1-1.4,1.3-2.5,2.8-2.5l0,0c1.4,0.1,2.5,1.3,2.5,2.8
						l-1.9,32.3l-5.3,92.5c-0.3,4.5,3.2,8.4,7.7,8.7l2.6,0.2c4.5,0.3,8.4-3.2,8.7-7.7l4.5-77.2c0.1-1.6,1.4-2.8,3-2.7l0,0
						c1.6,0.1,2.8,1.4,2.7,3l-4.5,77.2c-0.3,4.5,3.2,8.4,7.7,8.7l2.6,0.2c4.5,0.3,8.4-3.2,8.7-7.7l5.3-92.5l1.9-32.3
						c0.1-1.4,1.3-2.5,2.8-2.5h0c1.4,0.1,2.5,1.3,2.5,2.8l-2,35.4c-0.2,3.4,2.4,6.4,5.9,6.6l1.7,0.1c3.4,0.2,6.4-2.4,6.6-5.9
						l2.5-43.5l0.6-10.1l0.2-3.3C-485.2,484.7-494.4,474.3-506.5,473.6z"/>
				</g>
			</g>
			<g id="XMLID_3_">
				<g>
					<circle id="XMLID_7_" fill="#A44B48" cx="-574.7" cy="436.3" r="24.9"/>
					<path id="XMLID_6_" fill="#A44B48" d="M-555.2,472.2l-42.9-2.5c-13.4-0.8-24.9,9.5-25.7,22.9l-0.2,3.7l-0.6,11.2l-2.8,48.4
						c-0.2,3.8,2.7,7.1,6.5,7.3l1.9,0.1c3.8,0.2,7.1-2.7,7.3-6.5l2.3-39.4c0.1-1.6,1.5-2.8,3.1-2.7h0c1.6,0.1,2.8,1.5,2.7,3.1
						l-2.1,35.9l-5.9,102.8c-0.3,5,3.6,9.3,8.6,9.6l2.9,0.2c5,0.3,9.3-3.6,9.6-8.6l4.9-85.7c0.1-1.7,1.6-3.1,3.3-3l0,0
						c1.7,0.1,3.1,1.6,3,3.3l-4.9,85.7c-0.3,5,3.6,9.3,8.6,9.6l2.9,0.2c5,0.3,9.3-3.6,9.6-8.6l5.9-102.8l2.1-35.9
						c0.1-1.6,1.5-2.8,3.1-2.7l0,0c1.6,0.1,2.8,1.5,2.7,3.1l-2.3,39.4c-0.2,3.8,2.7,7.1,6.5,7.3l1.9,0.1c3.8,0.2,7.1-2.7,7.3-6.5
						l2.8-48.4l0.6-11.2l0.2-3.7C-531.5,484.5-541.8,473-555.2,472.2z"/>
				</g>
				<g>
					<circle id="XMLID_5_" fill="#D15C5A" cx="-574.7" cy="433.5" r="24.9"/>
					<path id="XMLID_4_" fill="#D15C5A" d="M-555.2,469.3l-42.9-2.5c-13.4-0.8-24.9,9.5-25.7,22.9l-0.2,3.7l-0.6,11.2l-2.8,48.4
						c-0.2,3.8,2.7,7.1,6.5,7.3l1.9,0.1c3.8,0.2,7.1-2.7,7.3-6.5l2.3-39.4c0.1-1.6,1.5-2.8,3.1-2.7h0c1.6,0.1,2.8,1.5,2.7,3.1
						l-2.1,35.9l-5.9,102.8c-0.3,5,3.6,9.3,8.6,9.6l2.9,0.2c5,0.3,9.3-3.6,9.6-8.6l4.9-85.7c0.1-1.7,1.6-3.1,3.3-3l0,0
						c1.7,0.1,3.1,1.6,3,3.3l-4.9,85.7c-0.3,5,3.6,9.3,8.6,9.6l2.9,0.2c5,0.3,9.3-3.6,9.6-8.6l5.9-102.8l2.1-35.9
						c0.1-1.6,1.5-2.8,3.1-2.7l0,0c1.6,0.1,2.8,1.5,2.7,3.1l-2.3,39.4c-0.2,3.8,2.7,7.1,6.5,7.3l1.9,0.1c3.8,0.2,7.1-2.7,7.3-6.5
						l2.8-48.4l0.6-11.2l0.2-3.7C-531.5,481.7-541.8,470.1-555.2,469.3z"/>
				</g>
			</g>
		</g>
	</g>
</g>
</svg>
