<?xml version="1.0" encoding="utf-8"?>
<!-- Generator: Adobe Illustrator 19.0.0, SVG Export Plug-In . SVG Version: 6.00 Build 0)  -->
<svg version="1.2" baseProfile="tiny" id="圖層_1"
	 xmlns="http://www.w3.org/2000/svg" xmlns:xlink="http://www.w3.org/1999/xlink" x="0px" y="0px" viewBox="-732 310 453.5 462"
	 xml:space="preserve">
<g id="XMLID_203_">
	<g id="XMLID_418_">
		<g id="XMLID_419_">
			<g id="XMLID_422_">
				<g>
					<path fill="#8C6239" d="M-363.5,772H-647c-47,0-85-38.1-85-85V403.5c0-47,38.1-85,85-85h283.5c47,0,85,38.1,85,85V687
						C-278.5,734-316.6,772-363.5,772z"/>
				</g>
				<g>
					<path fill="#BB7434" d="M-363.5,763.5H-647c-47,0-85-38.1-85-85V395c0-47,38.1-85,85-85h283.5c47,0,85,38.1,85,85v283.5
						C-278.5,725.5-316.6,763.5-363.5,763.5z"/>
				</g>
			</g>
			<path id="XMLID_420_" fill="#623F1E" d="M-382.2,729.4h-246.1c-38.4,0-69.6-31.2-69.6-69.6V413.7c0-38.4,31.2-69.6,69.6-69.6
				h246.1c38.4,0,69.6,31.2,69.6,69.6v246.1C-312.6,698.3-343.8,729.4-382.2,729.4z"/>
		</g>
	</g>
	<g id="XMLID_206_">
		<g id="XMLID_402_">
			<g>
				<path fill="#DBDCDC" d="M-570.8,659.6c-0.5,0-1,0-1.5-0.1l-51.7-7.4c-5.8-0.8-9.8-6.2-8.9-11.9l11.1-78.1c0.7-5.2,5.2-9,10.4-9
					c0.5,0,1,0,1.5,0.1l51.7,7.4c5.8,0.8,9.8,6.2,8.9,11.9l-11.1,78.1C-561.1,655.7-565.5,659.6-570.8,659.6z"/>
				<path fill="#DBDCDC" d="M-611.3,556.5c0.3,0,0.7,0,1,0.1l51.7,7.4c3.8,0.5,6.5,4.1,6,8l-11.1,78.1c-0.5,3.5-3.5,6-7,6
					c-0.3,0-0.7,0-1-0.1l-51.7-7.4c-3.8-0.5-6.5-4.1-6-8l11.1-78.1C-617.8,559-614.8,556.5-611.3,556.5 M-611.3,549.5
					C-611.3,549.5-611.3,549.5-611.3,549.5c-6.9,0-12.9,5.2-13.9,12.1l-11.1,78.1c-1.1,7.7,4.3,14.8,11.9,15.9l51.7,7.4
					c0.7,0.1,1.3,0.1,2,0.1c6.9,0,12.9-5.2,13.9-12.1l11.1-78.1c0.5-3.7-0.4-7.4-2.7-10.4c-2.3-3-5.5-4.9-9.2-5.5l-51.7-7.4
					C-610,549.5-610.7,549.5-611.3,549.5L-611.3,549.5z"/>
			</g>
			<g>
				<path fill="#FFCD02" d="M-570.8,653.9c-0.5,0-1,0-1.5-0.1l-51.7-7.4c-5.8-0.8-9.8-6.2-8.9-11.9l11.1-78.1c0.7-5.2,5.2-9,10.4-9
					c0.5,0,1,0,1.5,0.1l51.7,7.4c5.8,0.8,9.8,6.2,8.9,11.9l-11.1,78.1C-561.1,650-565.5,653.9-570.8,653.9z"/>
				<path fill="#F7F7F7" d="M-611.3,550.8c0.3,0,0.7,0,1,0.1l51.7,7.4c3.8,0.5,6.5,4.1,6,8l-11.1,78.1c-0.5,3.5-3.5,6-7,6
					c-0.3,0-0.7,0-1-0.1l-51.7-7.4c-3.8-0.5-6.5-4.1-6-8l11.1-78.1C-617.8,553.3-614.8,550.8-611.3,550.8 M-611.3,543.8
					C-611.3,543.8-611.3,543.8-611.3,543.8c-6.9,0-12.9,5.2-13.9,12.1l-11.1,78.1c-1.1,7.7,4.3,14.8,11.9,15.9l51.7,7.4
					c0.7,0.1,1.3,0.1,2,0.1c6.9,0,12.9-5.2,13.9-12.1l11.1-78.1c0.5-3.7-0.4-7.4-2.7-10.4c-2.3-3-5.5-4.9-9.2-5.5l-51.7-7.4
					C-610,543.9-610.7,543.8-611.3,543.8L-611.3,543.8z"/>
			</g>
		</g>
		<g id="XMLID_396_">
			<g>
				<path fill="#E89300" d="M-571.8,653.2l-51.7-7.4c-3.8-0.5-6.5-4.1-6-8l11.1-78.1c0.5-3.8,4.1-6.5,8-6l51.7,7.4
					c3.8,0.5,6.5,4.1,6,8l-11.1,78.1C-564.3,651-567.9,653.7-571.8,653.2z"/>
			</g>
			<g>
				<path fill="#FFA302" d="M-571.8,650.3l-51.7-7.4c-3.8-0.5-6.5-4.1-6-8l11.1-78.1c0.5-3.8,4.1-6.5,8-6l51.7,7.4
					c3.8,0.5,6.5,4.1,6,8l-11.1,78.1C-564.3,648.2-567.9,650.9-571.8,650.3z"/>
			</g>
		</g>
		<g id="XMLID_348_">
			<g>
				<path fill="#DBDCDC" d="M-578.3,535.3c-1.4,0-2.8-0.1-4.2-0.3c-6.2-0.9-11.1-3.2-14.8-6.9c-1.2-1.2-1.8-2.8-1.7-4.5
					c0-0.3,0-0.5,0-0.7c0.2-1.5,0.9-2.8,2-3.9l1.1-1.1c1.1-1.2,2.6-1.8,4.3-1.8c0,0,0.1,0,0.1,0c0.1,0,0.2,0,0.3,0l0.5,0.1
					c1.3,0.2,2.5,0.7,3.5,1.7c1.8,1.6,3.6,2.5,5.5,2.7c0.6,0.1,1.1,0.1,1.6,0.1c1,0,1.9-0.2,2.5-0.5c0.5-0.3,1.1-0.7,1.3-2
					c0.2-1.6-0.2-2.4-0.6-2.8c-0.3-0.4-1.5-1.3-5.2-2.1c-1.6-0.4-2.9-1.2-3.9-2.6c-1-1.4-1.4-3-1.2-4.7l0.1-0.6
					c0.2-1.7,1.1-3.1,2.5-4.1c1.3-0.9,2.7-1.4,4.2-1.4c0,0,0.3,0,0.3,0c2.6,0,3.7-0.5,4.1-0.8c0.4-0.3,1-0.9,1.2-2.2
					c0.2-1.4-0.2-1.9-0.3-2.1c-0.5-0.6-1.5-0.9-2.3-1c-0.3,0-0.6-0.1-1-0.1c-1.1,0-2.3,0.3-3.6,0.8c-0.9,0.4-1.9,0.6-2.9,0.6
					c-0.3,0-0.7,0-1-0.1l-0.5-0.1c-0.1,0-0.2,0-0.3-0.1c-1.6-0.4-2.9-1.4-3.8-2.8l-0.9-1.4c-0.8-1.2-1.1-2.7-0.9-4.2l0.1-0.4
					c0-0.1,0-0.2,0.1-0.3c0.5-1.7,1.6-3,3.2-3.8c3.5-1.6,7.1-2.5,10.7-2.5c1.1,0,2.2,0.1,3.4,0.2c5.6,0.8,10,2.8,13.1,5.9
					c3.2,3.3,4.5,7.6,3.8,12.6c-0.6,4.4-2.9,7.8-6.7,9.9c1.3,1.1,2.3,2.3,3.2,3.6c1.7,2.7,2.3,5.9,1.8,9.5c-0.5,3.5-1.9,6.4-4.3,8.7
					c-2.3,2.3-5.1,3.8-8.4,4.6C-574.4,535.1-576.3,535.3-578.3,535.3z"/>
				<path fill="#DBDCDC" d="M-578.3,482c1,0,2,0.1,3,0.2c5.1,0.7,9,2.5,11.6,5.2c2.7,2.7,3.7,6.3,3.1,10.5c-0.7,5-3.8,8.1-9.2,9.5
					c-0.1,0-0.1,0.1-0.2,0.2c0,0.1,0,0.2,0.1,0.2c2.7,1.2,4.7,3,6.1,5.2c1.4,2.2,1.9,4.8,1.5,7.8c-0.4,2.9-1.6,5.4-3.6,7.3
					c-2,2-4.4,3.3-7.2,3.9c-1.7,0.4-3.4,0.6-5.3,0.6c-1.3,0-2.5-0.1-3.9-0.3c-5.6-0.8-10.1-2.9-13.3-6.2c-0.8-0.8-1.1-1.7-1-2.8
					c0-0.1,0-0.2,0-0.3c0.1-1,0.6-1.8,1.3-2.5l1.1-1.1c0.6-0.7,1.5-1.1,2.5-1.1c0,0,0,0,0.1,0c0.2,0,0.3,0,0.5,0.1
					c0.8,0.1,1.5,0.5,2.1,1c2.2,1.9,4.4,3,6.9,3.4c0.7,0.1,1.3,0.1,1.9,0.1c1.4,0,2.7-0.3,3.7-0.8c1.5-0.8,2.3-2,2.6-3.8
					c0.3-2-0.1-3.5-1.2-4.8c-1.1-1.2-3.3-2.2-6.5-2.9c-1-0.2-1.8-0.8-2.5-1.6c-0.6-0.8-0.9-1.8-0.7-2.9l0.1-0.6
					c0.1-1,0.6-1.8,1.5-2.5c0.8-0.6,1.7-0.9,2.7-0.9c0,0,0.1,0,0.1,0c0.1,0,0.1,0,0.2,0c2.5,0,4.3-0.4,5.6-1.3
					c1.3-0.9,2-2.2,2.2-3.9c0.2-1.7-0.1-3-0.9-4c-0.8-1-2.1-1.7-3.9-1.9c-0.4-0.1-0.9-0.1-1.3-0.1c-1.5,0-3,0.4-4.6,1.1
					c-0.6,0.3-1.2,0.4-1.8,0.4c-0.2,0-0.4,0-0.6,0c-0.2,0-0.3,0-0.5-0.1c-1-0.3-1.8-0.8-2.3-1.7l-0.9-1.4c-0.5-0.8-0.7-1.6-0.6-2.5
					c0-0.1,0-0.3,0.1-0.4c0.3-1,0.9-1.7,1.8-2.1C-584.7,482.7-581.5,482-578.3,482 M-578.3,477C-578.3,477-578.3,477-578.3,477
					c-4,0-7.9,0.9-11.8,2.7c-2.2,1-3.8,2.9-4.5,5.4c-0.1,0.2-0.1,0.4-0.1,0.6l0,0.3l0,0.1c-0.3,2.1,0.2,4.1,1.3,5.9l0.9,1.4
					c1.2,1.9,3,3.2,5.2,3.8c0.2,0.1,0.4,0.1,0.6,0.1l0.3,0l0.2,0c0.4,0.1,0.9,0.1,1.3,0.1c1.4,0,2.7-0.3,3.9-0.9
					c0.9-0.4,1.7-0.6,2.5-0.6c0.2,0,0.4,0,0.6,0c0.3,0,0.4,0.1,0.6,0.1c0,0.1,0,0.1,0,0.2c-0.1,0.4-0.1,0.5-0.2,0.5l0,0
					c0,0-0.6,0.4-2.7,0.4l-0.2,0l-0.1,0c-2.1,0-4.1,0.7-5.7,1.9c-1.9,1.4-3.1,3.4-3.4,5.8l-0.1,0.6c-0.3,2.4,0.2,4.7,1.7,6.6
					c1.3,1.8,3.2,3,5.3,3.5c2.8,0.6,3.7,1.2,3.9,1.4c0,0.1,0.1,0.3,0,0.8c0,0,0,0.1,0,0.1c-0.3,0.1-0.8,0.2-1.3,0.2
					c-0.4,0-0.8,0-1.2-0.1c-1.4-0.2-2.8-0.9-4.2-2.2c-1.3-1.2-3-2-4.8-2.2l-0.4-0.1l-0.1,0c-0.2,0-0.4,0-0.6,0l-0.2,0
					c-2.3,0-4.5,0.9-6,2.5l-1,1c0,0-0.1,0.1-0.1,0.1c-1.5,1.5-2.4,3.3-2.7,5.3c-0.1,0.4-0.1,0.7,0,1.1c-0.1,2.4,0.8,4.6,2.4,6.2
					c4,4.1,9.5,6.7,16.2,7.6c1.6,0.2,3.1,0.3,4.6,0.3c2.2,0,4.4-0.2,6.4-0.7c3.7-0.9,6.9-2.7,9.5-5.3c2.7-2.7,4.4-6.1,5-10.2
					c0.6-4.2-0.1-7.9-2.2-11.2c-0.4-0.7-0.9-1.3-1.4-2c2.9-2.5,4.7-5.8,5.3-9.9c0.8-5.8-0.7-10.9-4.4-14.7
					c-3.4-3.5-8.3-5.8-14.5-6.7C-575.8,477.1-577.1,477-578.3,477L-578.3,477z"/>
			</g>
			<g>
				<path fill="#3E3A39" d="M-578.3,532.5c-1.4,0-2.8-0.1-4.2-0.3c-6.2-0.9-11.1-3.2-14.8-6.9c-1.2-1.2-1.8-2.8-1.7-4.5
					c0-0.3,0-0.5,0-0.7c0.2-1.5,0.9-2.8,2-3.9l1.1-1.1c1.1-1.2,2.6-1.8,4.3-1.8c0,0,0.1,0,0.1,0c0.1,0,0.2,0,0.3,0l0.5,0.1
					c1.3,0.2,2.5,0.7,3.5,1.7c1.8,1.6,3.6,2.5,5.5,2.7c0.6,0.1,1.1,0.1,1.6,0.1c1,0,1.9-0.2,2.5-0.5c0.5-0.3,1.1-0.7,1.3-2
					c0.2-1.6-0.2-2.4-0.6-2.8c-0.3-0.4-1.5-1.3-5.2-2.1c-1.6-0.4-2.9-1.2-3.9-2.6c-1-1.4-1.4-3-1.2-4.7l0.1-0.6
					c0.2-1.7,1.1-3.1,2.5-4.1c1.3-0.9,2.7-1.4,4.2-1.4c0,0,0.3,0,0.3,0c2.6,0,3.7-0.5,4.1-0.8c0.4-0.3,1-0.9,1.2-2.2
					c0.2-1.4-0.2-1.9-0.3-2.1c-0.5-0.6-1.5-0.9-2.3-1c-0.3,0-0.6-0.1-1-0.1c-1.1,0-2.3,0.3-3.6,0.8c-0.9,0.4-1.9,0.6-2.9,0.6
					c-0.3,0-0.7,0-1-0.1l-0.5-0.1c-0.1,0-0.2,0-0.3-0.1c-1.6-0.4-2.9-1.4-3.8-2.8l-0.9-1.4c-0.8-1.2-1.1-2.7-0.9-4.2l0.1-0.4
					c0-0.1,0-0.2,0.1-0.3c0.5-1.7,1.6-3,3.2-3.8c3.5-1.6,7.1-2.5,10.7-2.5c1.1,0,2.2,0.1,3.4,0.2c5.6,0.8,10,2.8,13.1,5.9
					c3.2,3.3,4.5,7.6,3.8,12.6c-0.6,4.4-2.9,7.8-6.7,9.9c1.3,1.1,2.3,2.3,3.2,3.6c1.7,2.7,2.3,5.9,1.8,9.5c-0.5,3.5-1.9,6.4-4.3,8.7
					c-2.3,2.3-5.1,3.8-8.4,4.6C-574.4,532.2-576.3,532.5-578.3,532.5z"/>
				<path fill="#F7F7F7" d="M-578.3,479.1c1,0,2,0.1,3,0.2c5.1,0.7,9,2.5,11.6,5.2c2.7,2.7,3.7,6.3,3.1,10.5c-0.7,5-3.8,8.1-9.2,9.5
					c-0.1,0-0.1,0.1-0.2,0.2c0,0.1,0,0.2,0.1,0.2c2.7,1.2,4.7,3,6.1,5.2c1.4,2.2,1.9,4.8,1.5,7.8c-0.4,2.9-1.6,5.4-3.6,7.3
					c-2,2-4.4,3.3-7.2,3.9c-1.7,0.4-3.4,0.6-5.3,0.6c-1.3,0-2.5-0.1-3.9-0.3c-5.6-0.8-10.1-2.9-13.3-6.2c-0.8-0.8-1.1-1.7-1-2.8
					c0-0.1,0-0.2,0-0.3c0.1-1,0.6-1.8,1.3-2.5l1.1-1.1c0.6-0.7,1.5-1.1,2.5-1.1c0,0,0,0,0.1,0c0.2,0,0.3,0,0.5,0.1
					c0.8,0.1,1.5,0.5,2.1,1c2.2,1.9,4.4,3,6.9,3.4c0.7,0.1,1.3,0.1,1.9,0.1c1.4,0,2.7-0.3,3.7-0.8c1.5-0.8,2.3-2,2.6-3.8
					c0.3-2-0.1-3.5-1.2-4.8c-1.1-1.2-3.3-2.2-6.5-2.9c-1-0.2-1.8-0.8-2.5-1.6c-0.6-0.8-0.9-1.8-0.7-2.9l0.1-0.6
					c0.1-1,0.6-1.8,1.5-2.5c0.8-0.6,1.7-0.9,2.7-0.9c0,0,0.1,0,0.1,0c0.1,0,0.1,0,0.2,0c2.5,0,4.3-0.4,5.6-1.3
					c1.3-0.9,2-2.2,2.2-3.9c0.2-1.7-0.1-3-0.9-4c-0.8-1-2.1-1.7-3.9-1.9c-0.4-0.1-0.9-0.1-1.3-0.1c-1.5,0-3,0.4-4.6,1.1
					c-0.6,0.3-1.2,0.4-1.8,0.4c-0.2,0-0.4,0-0.6,0c-0.2,0-0.3,0-0.5-0.1c-1-0.3-1.8-0.8-2.3-1.7l-0.9-1.4c-0.5-0.8-0.7-1.6-0.6-2.5
					c0-0.1,0-0.3,0.1-0.4c0.3-1,0.9-1.7,1.8-2.1C-584.7,479.9-581.5,479.1-578.3,479.1 M-578.3,474.1
					C-578.3,474.1-578.3,474.1-578.3,474.1c-4,0-7.9,0.9-11.8,2.7c-2.2,1-3.8,2.9-4.5,5.4c-0.1,0.2-0.1,0.4-0.1,0.6l0,0.3l0,0.1
					c-0.3,2.1,0.2,4.1,1.3,5.9l0.9,1.4c1.2,1.9,3,3.2,5.2,3.8c0.2,0.1,0.4,0.1,0.6,0.1l0.3,0l0.2,0c0.4,0.1,0.9,0.1,1.3,0.1
					c1.4,0,2.7-0.3,3.9-0.9c0.9-0.4,1.7-0.6,2.5-0.6c0.2,0,0.4,0,0.6,0c0.3,0,0.4,0.1,0.6,0.1c0,0.1,0,0.1,0,0.2
					c-0.1,0.4-0.1,0.5-0.2,0.5l0,0c0,0-0.6,0.4-2.7,0.4l-0.2,0l-0.1,0c-2.1,0-4.1,0.7-5.7,1.9c-1.9,1.4-3.1,3.4-3.4,5.8l-0.1,0.6
					c-0.3,2.4,0.2,4.7,1.7,6.6c1.3,1.8,3.2,3,5.3,3.5c2.8,0.6,3.7,1.2,3.9,1.4c0,0.1,0.1,0.3,0,0.8c0,0,0,0.1,0,0.1
					c-0.3,0.1-0.8,0.2-1.3,0.2c-0.4,0-0.8,0-1.2-0.1c-1.4-0.2-2.8-0.9-4.2-2.2c-1.3-1.2-3-2-4.8-2.2l-0.4-0.1l-0.1,0
					c-0.2,0-0.4,0-0.6,0l-0.2,0c-2.3,0-4.5,0.9-6,2.5l-1,1c0,0-0.1,0.1-0.1,0.1c-1.5,1.5-2.4,3.3-2.7,5.3c-0.1,0.4-0.1,0.7,0,1.1
					c-0.1,2.4,0.8,4.6,2.4,6.2c4,4.1,9.5,6.7,16.2,7.6c1.6,0.2,3.1,0.3,4.6,0.3c2.2,0,4.4-0.2,6.4-0.7c3.7-0.9,6.9-2.7,9.5-5.3
					c2.7-2.7,4.4-6.1,5-10.2c0.6-4.2-0.1-7.9-2.2-11.2c-0.4-0.7-0.9-1.3-1.4-2c2.9-2.5,4.7-5.8,5.3-9.9c0.8-5.8-0.7-10.9-4.4-14.7
					c-3.4-3.5-8.3-5.8-14.5-6.7C-575.8,474.2-577.1,474.1-578.3,474.1L-578.3,474.1z"/>
			</g>
		</g>
		<g id="XMLID_318_">
			<g>
				<path fill="#DBDCDC" d="M-413.8,682c-0.5,0-1,0-1.5-0.1l-51.7-7.4c-5.8-0.8-9.8-6.2-8.9-11.9l17.7-124.2c0.7-5.2,5.2-9,10.4-9
					c0.5,0,1,0,1.5,0.1l51.7,7.4c2.8,0.4,5.3,1.9,6.9,4.1s2.4,5,2,7.8l-17.7,124.2C-404.1,678.1-408.5,682-413.8,682z"/>
				<path fill="#DBDCDC" d="M-447.7,532.8c0.3,0,0.7,0,1,0.1l51.7,7.4c3.8,0.5,6.5,4.1,6,8l-17.7,124.2c-0.5,3.5-3.5,6-7,6
					c-0.3,0-0.7,0-1-0.1l-51.7-7.4c-3.8-0.5-6.5-4.1-6-8l17.7-124.2C-454.2,535.4-451.2,532.8-447.7,532.8 M-447.7,525.8
					C-447.7,525.8-447.7,525.8-447.7,525.8c-6.9,0-12.9,5.2-13.9,12.1l-17.7,124.2c-1.1,7.7,4.3,14.8,11.9,15.9l51.7,7.4
					c0.7,0.1,1.3,0.1,2,0.1c6.9,0,12.9-5.2,13.9-12.1l17.7-124.2c1.1-7.7-4.3-14.8-11.9-15.9l-51.7-7.4
					C-446.4,525.9-447.1,525.8-447.7,525.8L-447.7,525.8z"/>
			</g>
			<g>
				<path fill="#FFCD02" d="M-413.8,676.3c-0.5,0-1,0-1.5-0.1l-51.7-7.4c-5.8-0.8-9.8-6.2-8.9-11.9l17.7-124.2c0.7-5.2,5.2-9,10.4-9
					c0.5,0,1,0,1.5,0.1l51.7,7.4c2.8,0.4,5.3,1.9,6.9,4.1s2.4,5,2,7.8l-17.7,124.2C-404.1,672.4-408.5,676.3-413.8,676.3z"/>
				<path fill="#F7F7F7" d="M-447.7,527.2c0.3,0,0.7,0,1,0.1l51.7,7.4c3.8,0.5,6.5,4.1,6,8l-17.7,124.2c-0.5,3.5-3.5,6-7,6
					c-0.3,0-0.7,0-1-0.1l-51.7-7.4c-3.8-0.5-6.5-4.1-6-8l17.7-124.2C-454.2,529.7-451.2,527.2-447.7,527.2 M-447.7,520.2
					C-447.7,520.2-447.7,520.2-447.7,520.2c-6.9,0-12.9,5.2-13.9,12.1l-17.7,124.2c-1.1,7.7,4.3,14.8,11.9,15.9l51.7,7.4
					c0.7,0.1,1.3,0.1,2,0.1c6.9,0,12.9-5.2,13.9-12.1l17.7-124.2c1.1-7.7-4.3-14.8-11.9-15.9l-51.7-7.4
					C-446.4,520.2-447.1,520.2-447.7,520.2L-447.7,520.2z"/>
			</g>
		</g>
		<g id="XMLID_312_">
			<g>
				<path fill="#E89300" d="M-414.8,675.6l-51.7-7.4c-3.8-0.5-6.5-4.1-6-8l17.7-124.2c0.5-3.8,4.1-6.5,8-6l51.7,7.4
					c3.8,0.5,6.5,4.1,6,8l-17.7,124.2C-407.3,673.4-410.9,676.1-414.8,675.6z"/>
			</g>
			<g>
				<path fill="#FFA302" d="M-414.8,672.7l-51.7-7.4c-3.8-0.5-6.5-4.1-6-8l17.7-124.2c0.5-3.8,4.1-6.5,8-6l51.7,7.4
					c3.8,0.5,6.5,4.1,6,8l-17.7,124.2C-407.3,670.6-410.9,673.3-414.8,672.7z"/>
			</g>
		</g>
		<g id="XMLID_292_">
			<g>
				<path fill="#DBDCDC" d="M-404.2,516.8c-0.3,0-0.6,0-0.9-0.1l-26.5-3.8c-1.5-0.2-2.9-1-3.8-2.3c-1-1.3-1.3-2.8-1.1-4.3
					c0.4-2.9,1.8-5.2,4.2-6.9c6.6-4.5,11.6-8.6,15-11.9c3.1-3.1,4.9-5.9,5.3-8.4c0.2-1.5,0-2.7-0.5-3.5c-0.3-0.5-1-1.2-2.7-1.4
					c-0.2,0-0.4,0-0.7,0c-1.1,0-2.3,0.4-3.5,1.1c-1.1,0.6-2.3,1-3.5,1c-0.3,0-0.7,0-1-0.1c-1.6-0.2-3-1-4.1-2.4l-0.9-1.1
					c-1-1.3-1.5-3-1.2-4.7c0.2-1.7,1.1-3.1,2.6-4.1c2.5-1.6,5-2.7,7.5-3.2c1.4-0.3,2.9-0.5,4.5-0.5c1.2,0,2.5,0.1,3.9,0.3
					c5.3,0.8,9.5,3,12.5,6.7c3,3.7,4.1,8.3,3.4,13.6c-0.9,6.4-5.5,13.1-14,20.4c0.6,0.1,1.1,0.1,1.6,0.2l5.2,0.7
					c1.7,0.2,3.2,1.1,4.2,2.5c1,1.4,1.4,3,1.2,4.6l-0.3,2.3c-0.2,1.7-1.1,3.1-2.4,4.1C-401.6,516.4-402.8,516.8-404.2,516.8z"/>
				<path fill="#DBDCDC" d="M-415.6,462.6c1.1,0,2.3,0.1,3.5,0.3c4.7,0.7,8.3,2.6,10.9,5.8c2.6,3.2,3.5,7.1,2.8,11.7
					c-1,6.8-6.9,14.3-17.8,22.7c-0.1,0.1-0.1,0.2,0,0.2c0,0.1,0.1,0.1,0.2,0.1c3.1,0,5.6,0.2,7.5,0.4l5.2,0.7
					c1.1,0.2,1.9,0.7,2.5,1.5c0.6,0.8,0.9,1.8,0.7,2.8l-0.3,2.3c-0.1,1-0.6,1.8-1.5,2.5c-0.7,0.5-1.4,0.8-2.2,0.8
					c-0.2,0-0.4,0-0.6,0l-26.5-3.8c-0.9-0.1-1.6-0.6-2.2-1.3c-0.6-0.8-0.8-1.6-0.7-2.5c0.3-2.2,1.4-4,3.2-5.3
					c6.7-4.6,11.8-8.7,15.3-12.2c3.6-3.5,5.5-6.8,6-9.8c0.3-2.2,0-4-1-5.3c-1-1.3-2.4-2.2-4.4-2.4c-0.3,0-0.7-0.1-1-0.1
					c-1.5,0-3.1,0.5-4.7,1.4c-0.8,0.4-1.5,0.7-2.3,0.7c-0.2,0-0.4,0-0.6,0c-1-0.1-1.8-0.6-2.5-1.5l-0.8-1.1
					c-0.7-0.8-0.9-1.8-0.8-2.8c0.1-1,0.6-1.8,1.5-2.4c2.2-1.4,4.5-2.4,6.7-2.8C-418.3,462.7-417,462.6-415.6,462.6 M-415.6,457.6
					c-1.7,0-3.4,0.2-5,0.5c-2.8,0.6-5.6,1.8-8.3,3.5c0,0-0.1,0-0.1,0.1c-2,1.4-3.4,3.4-3.7,5.8c-0.3,2.4,0.3,4.7,1.8,6.6l0.8,1
					c0,0,0.1,0.1,0.1,0.1c1.5,1.8,3.4,3,5.7,3.3c0.4,0.1,0.9,0.1,1.3,0.1c1.7,0,3.3-0.4,4.8-1.3c0.9-0.5,1.6-0.7,2.3-0.7
					c0.1,0,0.2,0,0.3,0c0.4,0.1,0.8,0.2,1,0.4c0.1,0.1,0.2,0.7,0.1,1.7c-0.2,1.3-1.1,3.6-4.5,7c-3.3,3.3-8.3,7.2-14.7,11.7
					c-3,2.1-4.8,5.1-5.3,8.7c-0.3,2.2,0.2,4.4,1.6,6.2c1.4,1.8,3.3,2.9,5.5,3.3l26.5,3.8c0.4,0.1,0.9,0.1,1.3,0.1
					c1.9,0,3.8-0.6,5.3-1.8c1.9-1.4,3-3.4,3.4-5.7l0.3-2.3c0.3-2.3-0.2-4.5-1.6-6.4c-1.4-2-3.4-3.2-5.9-3.5l-1.5-0.2
					c6.4-6.3,10-12.4,10.8-18.3c0.9-6-0.5-11.2-3.9-15.5c-3.4-4.2-8.1-6.8-14.1-7.6C-412.8,457.7-414.3,457.6-415.6,457.6
					L-415.6,457.6z"/>
			</g>
			<g>
				<path fill="#3E3A39" d="M-404.2,514c-0.3,0-0.6,0-0.9-0.1l-26.5-3.8c-1.5-0.2-2.9-1-3.8-2.3c-1-1.3-1.3-2.8-1.1-4.3
					c0.4-2.9,1.8-5.2,4.2-6.9c6.6-4.5,11.6-8.6,15-11.9c3.1-3.1,4.9-5.9,5.3-8.4c0.2-1.5,0-2.7-0.5-3.5c-0.3-0.5-1-1.2-2.7-1.4
					c-0.2,0-0.4,0-0.7,0c-1.1,0-2.3,0.4-3.5,1.1c-1.1,0.6-2.3,1-3.5,1c-0.3,0-0.7,0-1-0.1c-1.6-0.2-3-1-4.1-2.4l-0.9-1.1
					c-1-1.3-1.5-3-1.2-4.7c0.2-1.7,1.1-3.1,2.6-4.1c2.5-1.6,5-2.7,7.5-3.2c1.4-0.3,2.9-0.5,4.5-0.5c1.2,0,2.5,0.1,3.9,0.3
					c5.3,0.8,9.5,3,12.5,6.7c3,3.7,4.1,8.3,3.4,13.6c-0.9,6.4-5.5,13.1-14,20.4c0.6,0.1,1.1,0.1,1.6,0.2l5.2,0.7
					c1.7,0.2,3.2,1.1,4.2,2.5c1,1.4,1.4,3,1.2,4.6l-0.3,2.3c-0.2,1.7-1.1,3.1-2.4,4.1C-401.6,513.5-402.8,514-404.2,514z"/>
				<path fill="#F7F7F7" d="M-415.6,459.7c1.1,0,2.3,0.1,3.5,0.3c4.7,0.7,8.3,2.6,10.9,5.8c2.6,3.2,3.5,7.1,2.8,11.7
					c-1,6.8-6.9,14.3-17.8,22.7c-0.1,0.1-0.1,0.2,0,0.2c0,0.1,0.1,0.1,0.2,0.1c3.1,0,5.6,0.2,7.5,0.4l5.2,0.7
					c1.1,0.2,1.9,0.7,2.5,1.5c0.6,0.8,0.9,1.8,0.7,2.8l-0.3,2.3c-0.1,1-0.6,1.8-1.5,2.5c-0.7,0.5-1.4,0.8-2.2,0.8
					c-0.2,0-0.4,0-0.6,0l-26.5-3.8c-0.9-0.1-1.6-0.6-2.2-1.3c-0.6-0.8-0.8-1.6-0.7-2.5c0.3-2.2,1.4-4,3.2-5.3
					c6.7-4.6,11.8-8.7,15.3-12.2c3.6-3.5,5.5-6.8,6-9.8c0.3-2.2,0-4-1-5.3c-1-1.3-2.4-2.2-4.4-2.4c-0.3,0-0.7-0.1-1-0.1
					c-1.5,0-3.1,0.5-4.7,1.4c-0.8,0.4-1.5,0.7-2.3,0.7c-0.2,0-0.4,0-0.6,0c-1-0.1-1.8-0.6-2.5-1.5l-0.8-1.1
					c-0.7-0.8-0.9-1.8-0.8-2.8c0.1-1,0.6-1.8,1.5-2.4c2.2-1.4,4.5-2.4,6.7-2.8C-418.3,459.9-417,459.7-415.6,459.7 M-415.6,454.7
					c-1.7,0-3.4,0.2-5,0.5c-2.8,0.6-5.6,1.8-8.3,3.5c0,0-0.1,0-0.1,0.1c-2,1.4-3.4,3.4-3.7,5.8c-0.3,2.4,0.3,4.7,1.8,6.6l0.8,1
					c0,0,0.1,0.1,0.1,0.1c1.5,1.8,3.4,3,5.7,3.3c0.4,0.1,0.9,0.1,1.3,0.1c1.7,0,3.3-0.4,4.8-1.3c0.9-0.5,1.6-0.7,2.3-0.7
					c0.1,0,0.2,0,0.3,0c0.4,0.1,0.8,0.2,1,0.4c0.1,0.1,0.2,0.7,0.1,1.7c-0.2,1.3-1.1,3.6-4.5,7c-3.3,3.3-8.3,7.2-14.7,11.7
					c-3,2.1-4.8,5.1-5.3,8.7c-0.3,2.2,0.2,4.4,1.6,6.2c1.4,1.8,3.3,2.9,5.5,3.3l26.5,3.8c0.4,0.1,0.9,0.1,1.3,0.1
					c1.9,0,3.8-0.6,5.3-1.8c1.9-1.4,3-3.4,3.4-5.7l0.3-2.3c0.3-2.3-0.2-4.5-1.6-6.4c-1.4-2-3.4-3.2-5.9-3.5l-1.5-0.2
					c6.4-6.3,10-12.4,10.8-18.3c0.9-6-0.5-11.2-3.9-15.5c-3.4-4.2-8.1-6.8-14.1-7.6C-412.8,454.8-414.3,454.7-415.6,454.7
					L-415.6,454.7z"/>
			</g>
		</g>
		<g id="XMLID_272_">
			<g>
				<path fill="#DBDCDC" d="M-492.3,670.8c-0.5,0-1,0-1.5-0.1l-51.7-7.4c-2.8-0.4-5.3-1.9-6.9-4.1s-2.4-5-2-7.8l24.3-170.2
					c0.7-5.2,5.2-9,10.4-9c0.5,0,1,0,1.5,0.1l51.7,7.4c2.8,0.4,5.3,1.9,6.9,4.1c1.7,2.3,2.4,5,2,7.8l-24.3,170.2
					C-482.6,666.9-487,670.8-492.3,670.8z"/>
				<path fill="#DBDCDC" d="M-519.7,475.6c0.3,0,0.7,0,1,0.1l51.7,7.4c3.8,0.5,6.5,4.1,6,8l-24.3,170.2c-0.5,3.5-3.5,6-7,6
					c-0.3,0-0.7,0-1-0.1l-51.7-7.4c-3.8-0.5-6.5-4.1-6-8l24.3-170.2C-526.1,478.1-523.1,475.6-519.7,475.6 M-519.7,468.6
					C-519.7,468.6-519.7,468.6-519.7,468.6c-6.9,0-12.9,5.2-13.9,12.1l-24.3,170.2c-1.1,7.7,4.3,14.8,11.9,15.9l51.7,7.4
					c0.7,0.1,1.3,0.1,2,0.1c6.9,0,12.9-5.2,13.9-12.1l24.3-170.2c1.1-7.7-4.3-14.8-11.9-15.9l-51.7-7.4
					C-518.3,468.6-519,468.6-519.7,468.6L-519.7,468.6z"/>
			</g>
			<g>
				<path fill="#FFCD02" d="M-492.3,665.1c-0.5,0-1,0-1.5-0.1l-51.7-7.4c-2.8-0.4-5.3-1.9-6.9-4.1s-2.4-5-2-7.8l24.3-170.2
					c0.7-5.2,5.2-9,10.4-9c0.5,0,1,0,1.5,0.1l51.7,7.4c2.8,0.4,5.3,1.9,6.9,4.1c1.7,2.3,2.4,5,2,7.8L-481.8,656
					C-482.6,661.2-487,665.1-492.3,665.1z"/>
				<path fill="#F7F7F7" d="M-519.7,469.9c0.3,0,0.7,0,1,0.1l51.7,7.4c3.8,0.5,6.5,4.1,6,8l-24.3,170.2c-0.5,3.5-3.5,6-7,6
					c-0.3,0-0.7,0-1-0.1l-51.7-7.4c-3.8-0.5-6.5-4.1-6-8l24.3-170.2C-526.1,472.5-523.1,469.9-519.7,469.9 M-519.7,462.9
					C-519.7,462.9-519.7,462.9-519.7,462.9c-6.9,0-12.9,5.2-13.9,12.1l-24.3,170.2c-1.1,7.7,4.3,14.8,11.9,15.9l51.7,7.4
					c0.7,0.1,1.3,0.1,2,0.1c6.9,0,12.9-5.2,13.9-12.1l24.3-170.2c1.1-7.7-4.3-14.8-11.9-15.9l-51.7-7.4
					C-518.3,463-519,462.9-519.7,462.9L-519.7,462.9z"/>
			</g>
		</g>
		<g id="XMLID_256_">
			<g>
				<path fill="#E89300" d="M-493.3,664.4l-51.7-7.4c-3.8-0.5-6.5-4.1-6-8l24.3-170.2c0.5-3.8,4.1-6.5,8-6l51.7,7.4
					c3.8,0.5,6.5,4.1,6,8l-24.3,170.2C-485.8,662.2-489.4,664.9-493.3,664.4z"/>
			</g>
			<g>
				<path fill="#FFA302" d="M-493.3,661.5l-51.7-7.4c-3.8-0.5-6.5-4.1-6-8l24.3-170.2c0.5-3.8,4.1-6.5,8-6l51.7,7.4
					c3.8,0.5,6.5,4.1,6,8l-24.3,170.2C-485.8,659.4-489.4,662.1-493.3,661.5z"/>
			</g>
		</g>
		<g id="XMLID_241_">
			<g>
				<path fill="#DBDCDC" d="M-478.4,456.2c-0.3,0-0.6,0-0.9-0.1l-23.1-3.3c-1.7-0.2-3.2-1.1-4.2-2.5c-1-1.4-1.4-3-1.2-4.6l0.3-1.8
					c0.2-1.7,1.1-3.2,2.4-4.2c1.1-0.8,2.4-1.2,3.7-1.2c0.3,0,0.6,0,1,0.1l4.1,0.6l3.2-22.7l-2.9-0.4c-1.7-0.2-3.1-1.1-4.1-2.4
					c-1-1.3-1.4-2.9-1.2-4.5c0.2-1.6,1-3,2.2-4.1c1.2-1.1,2.6-1.7,4.2-1.9c1.8-0.2,3.5-0.6,5-1c2.2-0.7,4.3-1,6.2-1
					c0.7,0,1.5,0,2.1,0.1l1,0.1c1.7,0.2,3.1,1.1,4.1,2.5c1,1.4,1.5,3,1.2,4.7l-4.7,32.9l2.5,0.4c1.7,0.2,3.1,1.1,4.2,2.4
					c1,1.4,1.4,3,1.2,4.7l-0.3,1.8c-0.2,1.7-1.1,3.1-2.4,4.1C-475.7,455.7-477,456.2-478.4,456.2z"/>
				<path fill="#DBDCDC" d="M-483.6,403.6c0.6,0,1.2,0,1.8,0.1l1,0.1c1,0.1,1.8,0.6,2.5,1.5c0.6,0.8,0.9,1.8,0.7,2.8l-5,34.9
					c0,0.3,0.1,0.5,0.4,0.6l4.5,0.6c1.1,0.2,1.9,0.6,2.5,1.5c0.6,0.8,0.9,1.8,0.7,2.8l-0.3,1.8c-0.1,1-0.6,1.8-1.5,2.5
					c-0.7,0.5-1.4,0.8-2.2,0.8c-0.2,0-0.4,0-0.6,0l-23.1-3.3c-1.1-0.2-1.9-0.6-2.5-1.5c-0.6-0.8-0.9-1.8-0.7-2.8l0.3-1.8
					c0.2-1.1,0.6-1.9,1.5-2.5c0.7-0.5,1.4-0.7,2.2-0.7c0.2,0,0.4,0,0.6,0l6,0.9c0,0,0.1,0,0.1,0c0.3,0,0.4-0.1,0.5-0.4l3.8-26.6
					c0-0.3-0.1-0.5-0.4-0.6l-4.8-0.7c-1-0.1-1.8-0.6-2.4-1.4c-0.6-0.8-0.8-1.7-0.7-2.7c0.1-1,0.6-1.9,1.4-2.6
					c0.8-0.7,1.7-1.1,2.7-1.2c2-0.2,3.8-0.6,5.5-1.1C-487.1,403.9-485.2,403.6-483.6,403.6 M-483.6,398.6c-2.1,0-4.5,0.4-7,1.1
					c-1.4,0.4-2.9,0.7-4.6,0.9c-2.1,0.2-4,1.1-5.6,2.5c-1.6,1.5-2.6,3.4-2.9,5.6c-0.3,2.3,0.2,4.5,1.6,6.4s3.4,3,5.7,3.4l0.4,0.1
					l-2.5,17.7l-1.6-0.2c-0.4-0.1-0.9-0.1-1.3-0.1c-1.9,0-3.7,0.6-5.2,1.7c-1.9,1.4-3.1,3.4-3.4,5.8l-0.3,1.8
					c-0.3,2.3,0.2,4.5,1.6,6.5c1.4,1.9,3.4,3.2,5.8,3.5l23.1,3.3c0.4,0.1,0.9,0.1,1.3,0.1c1.9,0,3.8-0.6,5.3-1.8
					c1.9-1.4,3-3.4,3.4-5.7l0.3-1.8c0.3-2.4-0.2-4.6-1.6-6.5c-1.4-1.9-3.4-3.1-5.8-3.4l0,0l4.3-30.4c0.3-2.3-0.2-4.6-1.7-6.5
					c-1.4-1.9-3.4-3.1-5.8-3.4l-1-0.1C-481.9,398.6-482.7,398.6-483.6,398.6L-483.6,398.6z"/>
			</g>
			<g>
				<path fill="#3E3A39" d="M-478.4,453.3c-0.3,0-0.6,0-0.9-0.1l-23.1-3.3c-1.7-0.2-3.2-1.1-4.2-2.5c-1-1.4-1.4-3-1.2-4.6l0.3-1.8
					c0.2-1.7,1.1-3.2,2.4-4.2c1.1-0.8,2.4-1.2,3.7-1.2c0.3,0,0.6,0,1,0.1l4.1,0.6l3.2-22.7l-2.9-0.4c-1.7-0.2-3.1-1.1-4.1-2.4
					c-1-1.3-1.4-2.9-1.2-4.5c0.2-1.6,1-3,2.2-4.1c1.2-1.1,2.6-1.7,4.2-1.9c1.8-0.2,3.5-0.6,5-1c2.2-0.7,4.3-1,6.2-1
					c0.7,0,1.5,0,2.1,0.1l1,0.1c1.7,0.2,3.1,1.1,4.1,2.5c1,1.4,1.5,3,1.2,4.7l-4.7,32.9l2.5,0.4c1.7,0.2,3.1,1.1,4.2,2.4
					c1,1.4,1.4,3,1.2,4.7l-0.3,1.8c-0.2,1.7-1.1,3.1-2.4,4.1C-475.7,452.9-477,453.3-478.4,453.3z"/>
				<path fill="#F7F7F7" d="M-483.6,400.7c0.6,0,1.2,0,1.8,0.1l1,0.1c1,0.1,1.8,0.6,2.5,1.5c0.6,0.8,0.9,1.8,0.7,2.8l-5,34.9
					c0,0.3,0.1,0.5,0.4,0.6l4.5,0.6c1.1,0.2,1.9,0.6,2.5,1.5c0.6,0.8,0.9,1.8,0.7,2.8l-0.3,1.8c-0.1,1-0.6,1.8-1.5,2.5
					c-0.7,0.5-1.4,0.8-2.2,0.8c-0.2,0-0.4,0-0.6,0l-23.1-3.3c-1.1-0.2-1.9-0.6-2.5-1.5c-0.6-0.8-0.9-1.8-0.7-2.8l0.3-1.8
					c0.2-1.1,0.6-1.9,1.5-2.5c0.7-0.5,1.4-0.7,2.2-0.7c0.2,0,0.4,0,0.6,0l6,0.9c0,0,0.1,0,0.1,0c0.3,0,0.4-0.1,0.5-0.4l3.8-26.6
					c0-0.3-0.1-0.5-0.4-0.6l-4.8-0.7c-1-0.1-1.8-0.6-2.4-1.4c-0.6-0.8-0.8-1.7-0.7-2.7c0.1-1,0.6-1.9,1.4-2.6
					c0.8-0.7,1.7-1.1,2.7-1.2c2-0.2,3.8-0.6,5.5-1.1C-487.1,401-485.2,400.7-483.6,400.7 M-483.6,395.7c-2.1,0-4.5,0.4-7,1.1
					c-1.4,0.4-2.9,0.7-4.6,0.9c-2.1,0.2-4,1.1-5.6,2.5c-1.6,1.5-2.6,3.4-2.9,5.6c-0.3,2.3,0.2,4.5,1.6,6.4s3.4,3,5.7,3.4l0.4,0.1
					l-2.5,17.7l-1.6-0.2c-0.4-0.1-0.9-0.1-1.3-0.1c-1.9,0-3.7,0.6-5.2,1.7c-1.9,1.4-3.1,3.4-3.4,5.8l-0.3,1.8
					c-0.3,2.3,0.2,4.5,1.6,6.5c1.4,1.9,3.4,3.2,5.8,3.5l23.1,3.3c0.4,0.1,0.9,0.1,1.3,0.1c1.9,0,3.8-0.6,5.3-1.8
					c1.9-1.4,3-3.4,3.4-5.7l0.3-1.8c0.3-2.4-0.2-4.6-1.6-6.5c-1.4-1.9-3.4-3.1-5.8-3.4l0,0l4.3-30.4c0.3-2.3-0.2-4.6-1.7-6.5
					c-1.4-1.9-3.4-3.1-5.8-3.4l-1-0.1C-481.9,395.8-482.7,395.7-483.6,395.7L-483.6,395.7z"/>
			</g>
		</g>
		<g id="XMLID_235_">
			<g>
				<path fill="#E89300" d="M-558.6,561.1l-51.7-7.4c-3.8-0.5-7.4,2.1-8,6l-0.7,4.6c-0.2,1.3,0,2.6,0.4,3.8l1.6,4
					c0.3,0.7,1.1,0.8,1.6,0.3l3.3-3.8c0.5-0.5,1.3-0.4,1.6,0.3l1.7,4.4c0.3,0.7,1.1,0.8,1.6,0.3l3.3-3.8c0.5-0.5,1.3-0.4,1.6,0.3
					l1.7,4.4c0.3,0.7,1.1,0.8,1.6,0.3l3.3-3.8c0.5-0.5,1.3-0.4,1.6,0.3l1.7,4.4c0.3,0.7,1.1,0.8,1.6,0.3l3.3-3.8
					c0.5-0.5,1.3-0.4,1.6,0.3l1.7,4.4c0.3,0.7,1.1,0.8,1.6,0.3l3.3-3.8c0.5-0.5,1.3-0.4,1.6,0.3l1.7,4.4c0.3,0.7,1.1,0.8,1.6,0.3
					l3.3-3.8c0.5-0.5,1.3-0.4,1.6,0.3l1.7,4.4c0.3,0.7,1.1,0.8,1.6,0.3l3.3-3.8c0.5-0.5,1.3-0.4,1.6,0.3l1.7,4.4
					c0.3,0.7,1.1,0.8,1.6,0.3l2.9-3.3c0.9-1.1,1.6-2.4,1.8-3.9l0.6-4.4C-552.1,565.2-554.8,561.6-558.6,561.1z"/>
			</g>
			<g>
				<path fill="#FFCD02" d="M-558.6,558.3l-51.7-7.4c-3.8-0.5-7.4,2.1-8,6l-0.7,4.6c-0.2,1.3,0,2.6,0.4,3.8l1.6,4
					c0.3,0.7,1.1,0.8,1.6,0.3l3.3-3.8c0.5-0.5,1.3-0.4,1.6,0.3l1.7,4.4c0.3,0.7,1.1,0.8,1.6,0.3l3.3-3.8c0.5-0.5,1.3-0.4,1.6,0.3
					l1.7,4.4c0.3,0.7,1.1,0.8,1.6,0.3l3.3-3.8c0.5-0.5,1.3-0.4,1.6,0.3l1.7,4.4c0.3,0.7,1.1,0.8,1.6,0.3l3.3-3.8
					c0.5-0.5,1.3-0.4,1.6,0.3l1.7,4.4c0.3,0.7,1.1,0.8,1.6,0.3l3.3-3.8c0.5-0.5,1.3-0.4,1.6,0.3l1.7,4.4c0.3,0.7,1.1,0.8,1.6,0.3
					l3.3-3.8c0.5-0.5,1.3-0.4,1.6,0.3l1.7,4.4c0.3,0.7,1.1,0.8,1.6,0.3l3.3-3.8c0.5-0.5,1.3-0.4,1.6,0.3l1.7,4.4
					c0.3,0.7,1.1,0.8,1.6,0.3l2.9-3.3c0.9-1.1,1.6-2.4,1.8-3.9l0.6-4.4C-552.1,562.4-554.8,558.8-558.6,558.3z"/>
			</g>
		</g>
		<g id="XMLID_224_">
			<g>
				<path fill="#E89300" d="M-467,480.2l-51.7-7.4c-3.8-0.5-7.4,2.1-8,6l-0.7,4.6c-0.2,1.3,0,2.6,0.4,3.8l1.6,4
					c0.3,0.7,1.1,0.8,1.6,0.3l3.3-3.8c0.5-0.5,1.3-0.4,1.6,0.3l1.7,4.4c0.3,0.7,1.1,0.8,1.6,0.3l3.3-3.8c0.5-0.5,1.3-0.4,1.6,0.3
					l1.7,4.4c0.3,0.7,1.1,0.8,1.6,0.3l3.3-3.8c0.5-0.5,1.3-0.4,1.6,0.3l1.7,4.4c0.3,0.7,1.1,0.8,1.6,0.3l3.3-3.8
					c0.5-0.5,1.3-0.4,1.6,0.3l1.7,4.4c0.3,0.7,1.1,0.8,1.6,0.3l3.3-3.8c0.5-0.5,1.3-0.4,1.6,0.3l1.7,4.4c0.3,0.7,1.1,0.8,1.6,0.3
					l3.3-3.8c0.5-0.5,1.3-0.4,1.6,0.3l1.7,4.4c0.3,0.7,1.1,0.8,1.6,0.3l3.3-3.8c0.5-0.5,1.3-0.4,1.6,0.3l1.7,4.4
					c0.3,0.7,1.1,0.8,1.6,0.3l2.9-3.3c0.9-1.1,1.6-2.4,1.8-3.9l0.6-4.4C-460.5,484.3-463.1,480.7-467,480.2z"/>
			</g>
			<g>
				<path fill="#FFCD02" d="M-467,477.4l-51.7-7.4c-3.8-0.5-7.4,2.1-8,6l-0.7,4.6c-0.2,1.3,0,2.6,0.4,3.8l1.6,4
					c0.3,0.7,1.1,0.8,1.6,0.3l3.3-3.8c0.5-0.5,1.3-0.4,1.6,0.3l1.7,4.4c0.3,0.7,1.1,0.8,1.6,0.3l3.3-3.8c0.5-0.5,1.3-0.4,1.6,0.3
					l1.7,4.4c0.3,0.7,1.1,0.8,1.6,0.3l3.3-3.8c0.5-0.5,1.3-0.4,1.6,0.3l1.7,4.4c0.3,0.7,1.1,0.8,1.6,0.3l3.3-3.8
					c0.5-0.5,1.3-0.4,1.6,0.3l1.7,4.4c0.3,0.7,1.1,0.8,1.6,0.3l3.3-3.8c0.5-0.5,1.3-0.4,1.6,0.3l1.7,4.4c0.3,0.7,1.1,0.8,1.6,0.3
					l3.3-3.8c0.5-0.5,1.3-0.4,1.6,0.3l1.7,4.4c0.3,0.7,1.1,0.8,1.6,0.3l3.3-3.8c0.5-0.5,1.3-0.4,1.6,0.3l1.7,4.4
					c0.3,0.7,1.1,0.8,1.6,0.3l2.9-3.3c0.9-1.1,1.6-2.4,1.8-3.9l0.6-4.4C-460.5,481.5-463.1,477.9-467,477.4z"/>
			</g>
		</g>
		<g id="XMLID_207_">
			<g>
				<path fill="#E89300" d="M-395.1,537.4l-51.7-7.4c-3.8-0.5-7.4,2.1-8,6l-0.7,4.6c-0.2,1.3,0,2.6,0.4,3.8l1.6,4
					c0.3,0.7,1.1,0.8,1.6,0.3l3.3-3.8c0.5-0.5,1.3-0.4,1.6,0.3l1.7,4.4c0.3,0.7,1.1,0.8,1.6,0.3l3.3-3.8c0.5-0.5,1.3-0.4,1.6,0.3
					l1.7,4.4c0.3,0.7,1.1,0.8,1.6,0.3l3.3-3.8c0.5-0.5,1.3-0.4,1.6,0.3l1.7,4.4c0.3,0.7,1.1,0.8,1.6,0.3l3.3-3.8
					c0.5-0.5,1.3-0.4,1.6,0.3l1.7,4.4c0.3,0.7,1.1,0.8,1.6,0.3l3.3-3.8c0.5-0.5,1.3-0.4,1.6,0.3l1.7,4.4c0.3,0.7,1.1,0.8,1.6,0.3
					l3.3-3.8c0.5-0.5,1.3-0.4,1.6,0.3l1.7,4.4c0.3,0.7,1.1,0.8,1.6,0.3l3.3-3.8c0.5-0.5,1.3-0.4,1.6,0.3l1.7,4.4
					c0.3,0.7,1.1,0.8,1.6,0.3l2.9-3.3c0.9-1.1,1.6-2.4,1.8-3.9l0.6-4.4C-388.5,541.6-391.2,538-395.1,537.4z"/>
			</g>
			<g>
				<path fill="#FFCD02" d="M-395.1,534.6l-51.7-7.4c-3.8-0.5-7.4,2.1-8,6l-0.7,4.6c-0.2,1.3,0,2.6,0.4,3.8l1.6,4
					c0.3,0.7,1.1,0.8,1.6,0.3l3.3-3.8c0.5-0.5,1.3-0.4,1.6,0.3l1.7,4.4c0.3,0.7,1.1,0.8,1.6,0.3l3.3-3.8c0.5-0.5,1.3-0.4,1.6,0.3
					l1.7,4.4c0.3,0.7,1.1,0.8,1.6,0.3l3.3-3.8c0.5-0.5,1.3-0.4,1.6,0.3l1.7,4.4c0.3,0.7,1.1,0.8,1.6,0.3l3.3-3.8
					c0.5-0.5,1.3-0.4,1.6,0.3l1.7,4.4c0.3,0.7,1.1,0.8,1.6,0.3l3.3-3.8c0.5-0.5,1.3-0.4,1.6,0.3l1.7,4.4c0.3,0.7,1.1,0.8,1.6,0.3
					l3.3-3.8c0.5-0.5,1.3-0.4,1.6,0.3l1.7,4.4c0.3,0.7,1.1,0.8,1.6,0.3l3.3-3.8c0.5-0.5,1.3-0.4,1.6,0.3l1.7,4.4
					c0.3,0.7,1.1,0.8,1.6,0.3l2.9-3.3c0.9-1.1,1.6-2.4,1.8-3.9l0.6-4.4C-388.5,538.7-391.2,535.2-395.1,534.6z"/>
			</g>
		</g>
	</g>
</g>
</svg>
