<?xml version="1.0" encoding="utf-8"?>
<!-- Generator: Adobe Illustrator 19.0.0, SVG Export Plug-In . SVG Version: 6.00 Build 0)  -->
<svg version="1.2" baseProfile="tiny" id="圖層_1"
	 xmlns="http://www.w3.org/2000/svg" xmlns:xlink="http://www.w3.org/1999/xlink" x="0px" y="0px" viewBox="-732 310 453.5 462"
	 xml:space="preserve">
<g id="XMLID_120_">
	<g id="XMLID_249_">
		<g id="XMLID_250_">
			<g id="XMLID_252_">
				<g>
					<path fill="#8C6239" d="M-363.5,772H-647c-47,0-85-38.1-85-85V403.5c0-47,38.1-85,85-85h283.5c47,0,85,38.1,85,85V687
						C-278.5,734-316.5,772-363.5,772z"/>
				</g>
				<g>
					<path fill="#BB7434" d="M-363.5,763.5H-647c-47,0-85-38.1-85-85V395c0-47,38.1-85,85-85h283.5c47,0,85,38.1,85,85v283.5
						C-278.5,725.5-316.5,763.5-363.5,763.5z"/>
				</g>
			</g>
			<path id="XMLID_251_" fill="#623F1E" d="M-382.2,729.4h-246.1c-38.4,0-69.6-31.2-69.6-69.6V413.7c0-38.4,31.2-69.6,69.6-69.6
				h246.1c38.4,0,69.6,31.2,69.6,69.6v246.1C-312.6,698.3-343.7,729.4-382.2,729.4z"/>
		</g>
	</g>
	<g id="XMLID_126_">
		<g id="XMLID_203_">
			<g id="XMLID_204_">
				<g>
					<path fill="#DBDCDC" d="M-515,676.2c-0.9-0.1-1.8-0.5-2.4-1.2l-29.8-34c-0.8-0.9-1.1-2.3-0.7-3.4c15.7-46.2,23.2-83,25.3-94.1
						c-5.3-0.8-11.2-1.2-17.7-1.2c-14.9,0-29.5,2.1-36.8,3.4l-6.3,1.2c-0.2,0-0.4,0.1-0.6,0.1c-1,0-2-0.4-2.6-1.2l-20.7-23.8
						c-0.6-0.7-0.9-1.6-0.8-2.6c0.1-0.9,0.5-1.8,1.3-2.4l24.7-20.5c0.6-0.5,1.4-0.8,2.2-0.8c0.4,0,0.8,0.1,1.2,0.2l22.3,8.4
						c5,1.6,10.2,3.2,15.3,4.7c-11.9-12.2-18.2-29.2-16.7-46.8c1.3-14.9,8.1-28.7,19.2-38.7c10.9-9.9,25.1-15.4,39.8-15.4
						c2,0,4.1,0.1,6.1,0.3c15.6,1.6,29.7,9.1,39.8,21.2c10.1,12.1,14.9,27.3,13.7,42.9c-1.3,16.9-9.9,32.2-22.9,42.3
						c4.9-0.7,9.9-1.4,14.6-2.2l22-4.8c0.2-0.1,0.5-0.1,0.7-0.1c0.4,0,0.8,0.1,1.2,0.2c0.3,0.1,0.6,0.3,0.8,0.4
						c0.3,0.2,0.6,0.5,0.8,0.8l18.8,22.4c1.2,1.5,1.1,3.6-0.4,4.9l-22.3,19.8c-0.7,0.6-1.5,0.9-2.3,0.9c-0.4,0-0.8-0.1-1.1-0.2
						l-5.6-1.9c-10.4-3.4-30.8-9-49.7-9c-0.4,0-0.8,0-1.2,0c0.2,11,1.4,48.1,9.1,94.8c0.2,0.9-0.1,1.9-0.6,2.6
						c-0.2,0.3-0.4,0.5-0.7,0.7c-0.1,0.1-0.1,0.1-0.2,0.2l-34.3,31c-0.6,0.6-1.5,0.9-2.3,0.9C-514.8,676.2-514.9,676.2-515,676.2z
						 M-498.7,452.7c-12.7,0-23.5,9.9-24.6,22.6c-0.6,6.6,1.5,13.1,5.8,18.2c4.3,5.1,10.4,8.2,17,8.7c0.6,0,1.3,0.1,1.9,0.1
						c12.8,0,23.6-10,24.6-22.7c1.1-13.5-9-25.5-22.4-26.7C-497.2,452.7-498,452.7-498.7,452.7z"/>
					<path fill="#DBDCDC" d="M-498.7,411.6c1.9,0,3.8,0.1,5.8,0.3c30.4,3.1,52.7,30,50.4,60.3c-1.8,22.5-16.7,40.9-36.7,48.1
						c10.4-1,22.2-2.6,32.5-4.3l22.1-4.8l0,0c0,0,0,0,0,0c0,0,0,0,0,0l19,22.6l-22.3,19.8v0h0l-5.6-1.9c-9.8-3.2-31.2-9.2-50.8-9.2
						c-1.6,0-3.2,0-4.8,0.1c0,0-0.1,42,9.2,98.8l-0.5,0.1l0.1,0.3l-34.3,31l-29.8-34c19.1-56.2,26.1-98.1,26.1-98.1
						c-6.9-1.3-14.4-1.8-21.8-1.8c-15,0-29.4,2-37.4,3.4l-6.3,1.2l-20.7-23.8l24.7-20.5l22.4,8.4c10.5,3.4,22.4,6.8,32.8,9.3
						c-19.2-10.3-31.6-31.3-29.5-54.5C-551.7,433.2-527.2,411.6-498.7,411.6 M-498.6,505.7c14.6,0,26.9-11.2,28.1-26
						c1.3-15.4-10.2-29-25.6-30.5c-0.9-0.1-1.8-0.1-2.6-0.1c-14.5,0-26.8,11.1-28.1,25.8c-1.3,15.7,10.4,29.4,26,30.6
						C-500.1,505.7-499.4,505.7-498.6,505.7 M-502.3,523.5L-502.3,523.5L-502.3,523.5L-502.3,523.5 M-424.7,511.1L-424.7,511.1
						 M-498.7,404.6l0,7L-498.7,404.6c-15.6,0-30.6,5.8-42.2,16.3c-11.7,10.6-18.9,25.2-20.3,41c-1.3,14.6,2.5,28.8,10.3,40.5
						c-1.5-0.5-2.9-0.9-4.4-1.4l-22.3-8.3c-0.8-0.3-1.6-0.4-2.5-0.4c-1.6,0-3.2,0.6-4.5,1.6l-24.7,20.5c-1.4,1.2-2.4,2.9-2.5,4.8
						s0.5,3.7,1.7,5.2l20.7,23.8c1.3,1.5,3.3,2.4,5.3,2.4c0.4,0,0.9,0,1.3-0.1l6.3-1.2c7.2-1.2,21.5-3.3,36.1-3.3
						c4.8,0,9.4,0.2,13.5,0.7c-2.8,14.1-10.2,48.2-24.5,90c-0.8,2.4-0.3,5,1.4,6.9l29.8,34c1.2,1.4,3,2.3,4.9,2.4c0.1,0,0.3,0,0.4,0
						c1.7,0,3.4-0.6,4.7-1.8l34.3-31c0.1-0.1,0.2-0.1,0.2-0.2c0.4-0.4,0.8-0.8,1.2-1.2c1.1-1.5,1.6-3.4,1.3-5.3
						c-7-42.4-8.6-76.7-9-90.7c18.4,0.5,38.3,6.3,46.3,8.8l5.5,1.9c0.7,0.3,1.5,0.4,2.3,0.4c1.7,0,3.4-0.6,4.7-1.8l22.3-19.8
						c2.8-2.5,3.1-6.8,0.7-9.7L-419,507c-1.2-1.7-3.2-2.9-5.5-2.9c-0.1,0-0.2,0-0.3,0c-0.5,0-1,0.1-1.5,0.2l-21.9,4.8
						c-1.1,0.2-2.2,0.4-3.3,0.5c9-10.1,14.7-22.9,15.8-36.9c1.3-16.5-3.8-32.6-14.5-45.4c-10.7-12.8-25.6-20.7-42.1-22.4
						C-494.4,404.7-496.6,404.6-498.7,404.6L-498.7,404.6z M-498.6,498.7c-0.5,0-1.1,0-1.7-0.1c-5.7-0.4-10.9-3.1-14.6-7.4
						c-3.7-4.4-5.5-9.9-5-15.6c0.9-10.9,10.2-19.4,21.1-19.4c0.7,0,1.3,0,2,0.1c11.6,1.1,20.2,11.3,19.3,22.9
						C-478.4,490.1-487.7,498.7-498.6,498.7L-498.6,498.7z"/>
				</g>
				<g>
					<path fill="#FFCD02" d="M-515,670.6c-0.9-0.1-1.8-0.5-2.4-1.2l-29.8-34c-0.8-0.9-1.1-2.3-0.7-3.4c15.7-46.2,23.2-83,25.3-94.1
						c-5.3-0.8-11.2-1.2-17.7-1.2c-14.9,0-29.5,2.1-36.8,3.4l-6.3,1.2c-0.2,0-0.4,0.1-0.6,0.1c-1,0-2-0.4-2.6-1.2l-20.7-23.8
						c-0.6-0.7-0.9-1.6-0.8-2.6c0.1-0.9,0.5-1.8,1.3-2.4l24.7-20.5c0.6-0.5,1.4-0.8,2.2-0.8c0.4,0,0.8,0.1,1.2,0.2l22.3,8.4
						c5,1.6,10.2,3.2,15.3,4.7c-11.9-12.2-18.2-29.2-16.7-46.8c1.3-14.9,8.1-28.7,19.2-38.7c10.9-9.9,25.1-15.4,39.8-15.4
						c2,0,4.1,0.1,6.1,0.3c15.6,1.6,29.7,9.1,39.8,21.2c10.1,12.1,14.9,27.3,13.7,42.9c-1.3,16.9-9.9,32.2-22.9,42.3
						c4.9-0.7,9.9-1.4,14.6-2.2l22-4.8c0.2-0.1,0.5-0.1,0.7-0.1c0.4,0,0.8,0.1,1.2,0.2c0.3,0.1,0.6,0.3,0.8,0.4
						c0.3,0.2,0.6,0.5,0.8,0.8l18.8,22.4c1.2,1.5,1.1,3.6-0.4,4.9l-22.3,19.8c-0.7,0.6-1.5,0.9-2.3,0.9c-0.4,0-0.8-0.1-1.1-0.2
						l-5.6-1.9c-10.4-3.4-30.8-9-49.7-9c-0.4,0-0.8,0-1.2,0c0.2,11,1.4,48.1,9.1,94.8c0.2,0.9-0.1,1.9-0.6,2.6
						c-0.2,0.3-0.4,0.5-0.7,0.7c-0.1,0.1-0.1,0.1-0.2,0.2l-34.3,31c-0.6,0.6-1.5,0.9-2.3,0.9C-514.8,670.6-514.9,670.6-515,670.6z
						 M-498.7,447c-12.7,0-23.5,9.9-24.6,22.6c-0.6,6.6,1.5,13.1,5.8,18.2c4.3,5.1,10.4,8.2,17,8.7c0.6,0,1.3,0.1,1.9,0.1
						c12.8,0,23.6-10,24.6-22.7c1.1-13.5-9-25.5-22.4-26.7C-497.2,447-498,447-498.7,447z"/>
					<path fill="#F7F7F7" d="M-498.7,405.9c1.9,0,3.8,0.1,5.8,0.3c30.4,3.1,52.7,30,50.4,60.3c-1.8,22.5-16.7,40.9-36.7,48.1
						c10.4-1,22.2-2.6,32.5-4.3l22.1-4.8l0,0c0,0,0,0,0,0c0,0,0,0,0,0l19,22.6l-22.3,19.8v0h0l-5.6-1.9c-9.8-3.2-31.2-9.2-50.8-9.2
						c-1.6,0-3.2,0-4.8,0.1c0,0-0.1,42,9.2,98.8l-0.5,0.1l0.1,0.3l-34.3,31l-29.8-34c19.1-56.2,26.1-98.1,26.1-98.1
						c-6.9-1.3-14.4-1.8-21.8-1.8c-15,0-29.4,2-37.4,3.4l-6.3,1.2l-20.7-23.8l24.7-20.5l22.4,8.4c10.5,3.4,22.4,6.8,32.8,9.3
						c-19.2-10.3-31.6-31.3-29.5-54.5C-551.7,427.6-527.2,405.9-498.7,405.9 M-498.6,500c14.6,0,26.9-11.2,28.1-26
						c1.3-15.4-10.2-29-25.6-30.5c-0.9-0.1-1.8-0.1-2.6-0.1c-14.5,0-26.8,11.1-28.1,25.8c-1.3,15.7,10.4,29.4,26,30.6
						C-500.1,500-499.4,500-498.6,500 M-502.3,517.8L-502.3,517.8L-502.3,517.8L-502.3,517.8 M-424.7,505.4L-424.7,505.4
						 M-498.7,398.9l0,7L-498.7,398.9c-15.6,0-30.6,5.8-42.2,16.3c-11.7,10.6-18.9,25.2-20.3,41c-1.3,14.6,2.5,28.8,10.3,40.5
						c-1.5-0.5-2.9-0.9-4.4-1.4l-22.3-8.3c-0.8-0.3-1.6-0.4-2.5-0.4c-1.6,0-3.2,0.6-4.5,1.6l-24.7,20.5c-1.4,1.2-2.4,2.9-2.5,4.8
						s0.5,3.7,1.7,5.2l20.7,23.8c1.3,1.5,3.3,2.4,5.3,2.4c0.4,0,0.9,0,1.3-0.1l6.3-1.2c7.2-1.2,21.5-3.3,36.1-3.3
						c4.8,0,9.4,0.2,13.5,0.7c-2.8,14.1-10.2,48.2-24.5,90c-0.8,2.4-0.3,5,1.4,6.9l29.8,34c1.2,1.4,3,2.3,4.9,2.4c0.1,0,0.3,0,0.4,0
						c1.7,0,3.4-0.6,4.7-1.8l34.3-31c0.1-0.1,0.2-0.1,0.2-0.2c0.4-0.4,0.8-0.8,1.2-1.2c1.1-1.5,1.6-3.4,1.3-5.3
						c-7-42.4-8.6-76.7-9-90.7c18.4,0.5,38.3,6.3,46.3,8.8l5.5,1.9c0.7,0.3,1.5,0.4,2.3,0.4c1.7,0,3.4-0.6,4.7-1.8l22.3-19.8
						c2.8-2.5,3.1-6.8,0.7-9.7l-18.6-22.2c-1.2-1.7-3.2-2.9-5.5-2.9c-0.1,0-0.2,0-0.3,0c-0.5,0-1,0.1-1.5,0.2l-21.9,4.8
						c-1.1,0.2-2.2,0.4-3.3,0.5c9-10.1,14.7-22.9,15.8-36.9c1.3-16.5-3.8-32.6-14.5-45.4c-10.7-12.8-25.6-20.7-42.1-22.4
						C-494.4,399-496.6,398.9-498.7,398.9L-498.7,398.9z M-498.6,493c-0.5,0-1.1,0-1.7-0.1c-5.7-0.4-10.9-3.1-14.6-7.4
						c-3.7-4.4-5.5-9.9-5-15.6c0.9-10.9,10.2-19.4,21.1-19.4c0.7,0,1.3,0,2,0.1c11.6,1.1,20.2,11.3,19.3,22.9
						C-478.4,484.5-487.7,493-498.6,493L-498.6,493z"/>
				</g>
			</g>
		</g>
		<g id="XMLID_185_">
			<g>
				<path fill="#DBDCDC" d="M-600.2,609.9c-1.5,0-2.8-1.2-2.8-2.7l-0.4-11.7l-9.3-7c-0.9-0.7-1.3-1.9-1-3.1c0.4-1.2,1.4-2,2.6-2.1
					l12-0.8l7.5-9.4c0.6-0.7,1.4-1.1,2.2-1.1c1.5,0,2.8,1.2,2.8,2.7l0.4,11.6l9.2,7c0.9,0.7,1.3,1.9,1,3c-0.3,1.2-1.4,2-2.6,2.1
					l-11.9,0.8l-7.5,9.5C-598.5,609.5-599.3,609.9-600.2,609.9z"/>
				<path fill="#DBDCDC" d="M-589.3,574.2c0.4,0,0.8,0.3,0.8,0.8l0.4,12.2c0,0.2,0.1,0.5,0.3,0.6l9.7,7.3c0.6,0.5,0.3,1.5-0.5,1.5
					l-12.4,0.8c-0.2,0-0.5,0.1-0.6,0.3l-7.8,9.9c-0.2,0.2-0.4,0.3-0.7,0.3c-0.4,0-0.8-0.3-0.8-0.8l-0.4-12.3c0-0.2-0.1-0.5-0.3-0.6
					l-9.8-7.4c-0.6-0.5-0.3-1.5,0.5-1.5l12.5-0.8c0.2,0,0.5-0.1,0.6-0.3l7.8-9.8C-589.8,574.3-589.6,574.2-589.3,574.2
					 M-589.3,570.2L-589.3,570.2c-1.5,0-2.9,0.7-3.8,1.8l-7,8.7l-11.2,0.7c-2,0.1-3.8,1.5-4.4,3.5c-0.6,2,0.1,4,1.7,5.2l8.5,6.4
					l0.3,10.7c0.1,2.6,2.2,4.7,4.8,4.7c1.5,0,2.9-0.7,3.8-1.9l7-8.8l11-0.8c2.1-0.1,3.8-1.5,4.3-3.5c0.6-1.9-0.1-4-1.7-5.2l-8.4-6.4
					l-0.3-10.7C-584.6,572.2-586.7,570.2-589.3,570.2L-589.3,570.2z"/>
			</g>
			<g>
				<path fill="#DBDCDC" d="M-600.2,608.5c-1.5,0-2.8-1.2-2.8-2.7l-0.4-11.7l-9.3-7c-0.9-0.7-1.3-1.9-1-3.1c0.4-1.2,1.4-2,2.6-2.1
					l12-0.8l7.5-9.4c0.6-0.7,1.4-1.1,2.2-1.1c1.5,0,2.8,1.2,2.8,2.7l0.4,11.6l9.2,7c0.9,0.7,1.3,1.9,1,3c-0.3,1.2-1.4,2-2.6,2.1
					l-11.9,0.8l-7.5,9.5C-598.5,608.1-599.3,608.5-600.2,608.5z"/>
				<path fill="#F7F7F7" d="M-589.3,572.7c0.4,0,0.8,0.3,0.8,0.8l0.4,12.2c0,0.2,0.1,0.5,0.3,0.6l9.7,7.3c0.6,0.5,0.3,1.5-0.5,1.5
					L-591,596c-0.2,0-0.5,0.1-0.6,0.3l-7.8,9.9c-0.2,0.2-0.4,0.3-0.7,0.3c-0.4,0-0.8-0.3-0.8-0.8l-0.4-12.3c0-0.2-0.1-0.5-0.3-0.6
					l-9.8-7.4c-0.6-0.5-0.3-1.5,0.5-1.5l12.5-0.8c0.2,0,0.5-0.1,0.6-0.3l7.8-9.8C-589.8,572.8-589.6,572.7-589.3,572.7
					 M-589.3,568.7L-589.3,568.7c-1.5,0-2.9,0.7-3.8,1.8l-7,8.7l-11.2,0.7c-2,0.1-3.8,1.5-4.4,3.5c-0.6,2,0.1,4,1.7,5.2l8.5,6.4
					l0.3,10.7c0.1,2.6,2.2,4.7,4.8,4.7c1.5,0,2.9-0.7,3.8-1.9l7-8.8l11-0.8c2.1-0.1,3.8-1.5,4.3-3.5c0.6-1.9-0.1-4-1.7-5.2l-8.4-6.4
					l-0.3-10.7C-584.6,570.8-586.7,568.7-589.3,568.7L-589.3,568.7z"/>
			</g>
		</g>
		<g id="XMLID_167_">
			<g>
				<path fill="#DBDCDC" d="M-414.2,475.7c-1.4,0-2.6-1.1-2.7-2.6l-0.4-9.3l-7.1-5.8c-0.9-0.7-1.2-1.9-0.8-2.9
					c0.4-1.1,1.3-1.8,2.4-1.8l9-0.3l5.6-7.1c0.5-0.6,1.3-1,2.1-1c1.4,0,2.6,1.1,2.7,2.6l0.4,9.2l7.1,5.8c0.9,0.7,1.2,1.9,0.8,2.9
					c-0.4,1.1-1.3,1.8-2.4,1.8l-8.9,0.3l-5.6,7.2C-412.6,475.3-413.4,475.7-414.2,475.7z"/>
				<path fill="#DBDCDC" d="M-406.1,446.8c0.3,0,0.7,0.3,0.7,0.7l0.4,9.8c0,0.2,0.1,0.4,0.3,0.5l7.5,6.1c0.5,0.4,0.2,1.2-0.4,1.2
					l-9.6,0.3c-0.2,0-0.4,0.1-0.5,0.3l-6,7.7c-0.1,0.2-0.3,0.3-0.5,0.3c-0.3,0-0.7-0.3-0.7-0.7l-0.4-9.9c0-0.2-0.1-0.4-0.3-0.5
					l-7.6-6.2c-0.5-0.4-0.2-1.2,0.4-1.2l9.7-0.3c0.2,0,0.4-0.1,0.5-0.3l5.9-7.6C-406.5,446.9-406.3,446.8-406.1,446.8 M-406.1,442.8
					L-406.1,442.8c-1.4,0-2.8,0.7-3.7,1.8l-5,6.4l-8.1,0.3c-2,0.1-3.6,1.3-4.3,3.2c-0.6,1.8,0,3.9,1.5,5.1l6.4,5.2l0.3,8.4
					c0.1,2.5,2.2,4.5,4.7,4.5c1.4,0,2.8-0.7,3.7-1.8l5-6.5l8-0.3c2-0.1,3.6-1.3,4.2-3.2c0.6-1.9,0.1-3.9-1.5-5.1l-6.4-5.2l-0.3-8.3
					C-401.6,444.8-403.6,442.8-406.1,442.8L-406.1,442.8z"/>
			</g>
			<g>
				<path fill="#DBDCDC" d="M-414.2,474.3c-1.4,0-2.6-1.1-2.7-2.6l-0.4-9.3l-7.1-5.8c-0.9-0.7-1.2-1.9-0.8-2.9
					c0.4-1.1,1.3-1.8,2.4-1.8l9-0.3l5.6-7.1c0.5-0.6,1.3-1,2.1-1c1.4,0,2.6,1.1,2.7,2.6l0.4,9.2l7.1,5.8c0.9,0.7,1.2,1.9,0.8,2.9
					c-0.4,1.1-1.3,1.8-2.4,1.8l-8.9,0.3l-5.6,7.2C-412.6,473.9-413.4,474.3-414.2,474.3z"/>
				<path fill="#F7F7F7" d="M-406.1,445.4c0.3,0,0.7,0.3,0.7,0.7l0.4,9.8c0,0.2,0.1,0.4,0.3,0.5l7.5,6.1c0.5,0.4,0.2,1.2-0.4,1.2
					l-9.6,0.3c-0.2,0-0.4,0.1-0.5,0.3l-6,7.7c-0.1,0.2-0.3,0.3-0.5,0.3c-0.3,0-0.7-0.3-0.7-0.7l-0.4-9.9c0-0.2-0.1-0.4-0.3-0.5
					l-7.6-6.2c-0.5-0.4-0.2-1.2,0.4-1.2l9.7-0.3c0.2,0,0.4-0.1,0.5-0.3l5.9-7.6C-406.5,445.5-406.3,445.4-406.1,445.4 M-406.1,441.4
					L-406.1,441.4c-1.4,0-2.8,0.7-3.7,1.8l-5,6.4l-8.1,0.3c-2,0.1-3.6,1.3-4.3,3.2c-0.6,1.8,0,3.9,1.5,5.1l6.4,5.2l0.3,8.4
					c0.1,2.5,2.2,4.5,4.7,4.5c1.4,0,2.8-0.7,3.7-1.8l5-6.5l8-0.3c2-0.1,3.6-1.3,4.2-3.2c0.6-1.9,0.1-3.9-1.5-5.1l-6.4-5.2l-0.3-8.3
					C-401.6,443.4-403.6,441.4-406.1,441.4L-406.1,441.4z"/>
			</g>
		</g>
		<g id="XMLID_127_">
			<g>
				<path fill="#E8BA00" d="M-424.7,508.3C-424.7,508.3-424.7,508.3-424.7,508.3C-424.8,508.3-424.8,508.3-424.7,508.3L-424.7,508.3
					l-22.1,4.8c-10.3,1.8-22.1,3.4-32.5,4.3c20-7.2,34.9-25.6,36.7-48.1c2.4-30.3-20-57.2-50.4-60.3c-30.9-3.1-58.5,19.4-61.3,50.6
					c-2,23.1,10.3,44.2,29.5,54.5c-10.5-2.5-22.4-6-32.8-9.3l-22.4-8.4l-24.7,20.5l20.7,23.8l6.3-1.2c11.9-2,38.1-5.6,59.1-1.6
					c0,0-6.9,41.9-26.1,98.1l29.8,34l34.3-31l-0.1-0.3l0.5-0.1c-9.3-56.8-9.2-98.8-9.2-98.8c20.9-1.1,44.9,5.7,55.6,9.1l5.6,1.9l0,0
					v0l22.3-19.8L-424.7,508.3z M-500.8,502.8c-15.7-1.2-27.4-14.9-26-30.6c1.3-15.7,15.2-27.1,30.7-25.7
					c15.4,1.4,26.9,15,25.6,30.5C-471.7,492.4-485.3,504-500.8,502.8z"/>
			</g>
			<g>
				<path fill="#FFCD02" d="M-424.7,505.5C-424.7,505.5-424.7,505.4-424.7,505.5C-424.8,505.4-424.8,505.4-424.7,505.5L-424.7,505.5
					l-22.1,4.8c-10.3,1.8-22.1,3.4-32.5,4.3c20-7.2,34.9-25.6,36.7-48.1c2.4-30.3-20-57.2-50.4-60.3c-30.9-3.1-58.5,19.4-61.3,50.6
					c-2,23.1,10.3,44.2,29.5,54.5c-10.5-2.5-22.4-6-32.8-9.3l-22.4-8.4l-24.7,20.5l20.7,23.8l6.3-1.2c11.9-2,38.1-5.6,59.1-1.6
					c0,0-6.9,41.9-26.1,98.1l29.8,34l34.3-31l-0.1-0.3l0.5-0.1c-9.3-56.8-9.2-98.8-9.2-98.8c20.9-1.1,44.9,5.7,55.6,9.1l5.6,1.9l0,0
					v0l22.3-19.8L-424.7,505.5z M-500.8,500c-15.7-1.2-27.4-14.9-26-30.6c1.3-15.7,15.2-27.1,30.7-25.7c15.4,1.4,26.9,15,25.6,30.5
					C-471.7,489.5-485.3,501.2-500.8,500z"/>
			</g>
		</g>
	</g>
</g>
</svg>
