<?xml version="1.0" encoding="utf-8"?>
<!-- Generator: Adobe Illustrator 19.0.0, SVG Export Plug-In . SVG Version: 6.00 Build 0)  -->
<svg version="1.2" baseProfile="tiny" id="圖層_1"
	 xmlns="http://www.w3.org/2000/svg" xmlns:xlink="http://www.w3.org/1999/xlink" x="0px" y="0px" viewBox="-732 310 453.5 462"
	 xml:space="preserve">
<g id="XMLID_70_">
	<g id="XMLID_391_">
		<g id="XMLID_392_">
			<g id="XMLID_394_">
				<g>
					<path fill="#8C6239" d="M-363.5,772H-647c-47,0-85-38.1-85-85V403.5c0-47,38.1-85,85-85h283.5c47,0,85,38.1,85,85V687
						C-278.5,734-316.5,772-363.5,772z"/>
				</g>
				<g>
					<path fill="#BB7434" d="M-363.5,763.5H-647c-47,0-85-38.1-85-85V395c0-47,38.1-85,85-85h283.5c47,0,85,38.1,85,85v283.5
						C-278.5,725.5-316.5,763.5-363.5,763.5z"/>
				</g>
			</g>
			<path id="XMLID_393_" fill="#623F1E" d="M-382.2,729.4h-246.1c-38.4,0-69.6-31.2-69.6-69.6V413.7c0-38.4,31.2-69.6,69.6-69.6
				h246.1c38.4,0,69.6,31.2,69.6,69.6v246.1C-312.6,698.3-343.7,729.4-382.2,729.4z"/>
		</g>
	</g>
	<g id="XMLID_71_">
		<g id="XMLID_299_">
			<g id="XMLID_300_">
				<g id="XMLID_301_">
					<g>
						<path fill="#DBDCDC" d="M-481.8,431.8c-0.4,0-0.7,0-1.1,0l-32.3-2.5c-5-0.4-9.2-3.5-10.4-7.6l-6.3-22.5
							c-0.7-2.6-0.2-5.3,1.5-7.5c2-2.7,5.5-4.3,9.3-4.3c0.4,0,0.7,0,1.1,0l48.3,3.8c4.1,0.3,7.6,2.4,9.5,5.5
							c1.5,2.5,1.6,5.4,0.5,7.9l-9.7,21.3C-473.1,429.4-477.1,431.8-481.8,431.8z"/>
						<path fill="#DBDCDC" d="M-521,391.3c0.3,0,0.5,0,0.8,0l48.3,3.8c4.9,0.4,8.2,4.3,6.6,7.8l-9.7,21.3c-1,2.2-3.7,3.6-6.7,3.6
							c-0.3,0-0.5,0-0.8,0l-32.3-2.5c-3.3-0.3-6.1-2.2-6.8-4.7L-528,398C-528.9,394.4-525.5,391.3-521,391.3 M-521,383.3
							C-521,383.3-521,383.3-521,383.3c-5.1,0-9.7,2.2-12.5,5.9c-2.4,3.2-3.2,7.2-2.1,11l6.3,22.5c1.6,5.8,7.2,10,13.9,10.5
							l32.3,2.5c0.5,0,0.9,0.1,1.4,0.1c6.2,0,11.7-3.3,14-8.3l9.7-21.3c1.7-3.8,1.5-8-0.7-11.6c-2.5-4.2-7.2-7-12.6-7.4l-48.3-3.8
							C-520.1,383.3-520.5,383.3-521,383.3L-521,383.3z"/>
						<path fill="#DBDCDC" d="M-518.1,689.4c-2.5,0-4.9-0.7-6.9-1.9l-37.7-23.1c-3.6-2.2-5.4-5.9-4.7-9.6l39.4-205.5
							c0.9-4.6,5.5-7.9,11-7.9c0.4,0,0.7,0,1.1,0l32,2.5c5.9,0.5,10.5,4.6,10.7,9.6l7,209.1c0.1,3.8-2.2,7.2-6.2,8.8l-40.8,16.9
							C-514.7,689.1-516.4,689.4-518.1,689.4C-518.1,689.4-518.1,689.4-518.1,689.4z"/>
						<path fill="#DBDCDC" d="M-517,445.4c0.3,0,0.5,0,0.8,0l32,2.5c3.9,0.3,6.9,2.8,7,5.8l7,209.1c0.1,2.1-1.3,4-3.7,5l-40.8,16.9
							c-1.1,0.4-2.3,0.7-3.4,0.7c-1.7,0-3.4-0.4-4.8-1.3l-37.7-23.1c-2.2-1.3-3.3-3.4-2.9-5.5l39.4-205.5
							C-523.6,447.4-520.6,445.4-517,445.4 M-517,437.4c-7.4,0-13.7,4.7-14.9,11.2l-39.4,205.5c-1,5.3,1.6,10.7,6.6,13.8l37.7,23.1
							c2.7,1.6,5.8,2.5,9,2.5c2.3,0,4.5-0.4,6.5-1.3l40.8-16.9c5.4-2.3,8.8-7.2,8.6-12.6l-7-209.1c-0.2-7.1-6.4-12.9-14.4-13.5
							l-32-2.5C-516.1,437.4-516.6,437.4-517,437.4L-517,437.4z"/>
						<path fill="#DBDCDC" d="M-471.9,571.4c-0.2,0-0.4,0-0.6,0l-48.7-3.8c-4.3-0.3-7.5-4.1-7.2-8.4l0.1-1.8c0.3-4,3.7-7.2,7.8-7.2
							c0.2,0,0.4,0,0.6,0l48.7,3.8c4.3,0.3,7.5,4.1,7.2,8.4l-0.1,1.8C-464.5,568.3-467.9,571.4-471.9,571.4z"/>
						<path fill="#DBDCDC" d="M-520.4,554.3c0.1,0,0.2,0,0.3,0l48.7,3.8c2.1,0.2,3.7,2,3.5,4.1l-0.1,1.8c-0.2,2-1.8,3.5-3.8,3.5
							c-0.1,0-0.2,0-0.3,0l-48.7-3.8c-2.1-0.2-3.7-2-3.5-4.1l0.1-1.8C-524.1,555.8-522.4,554.3-520.4,554.3 M-520.4,546.3
							C-520.4,546.3-520.4,546.3-520.4,546.3c-6.1,0-11.3,4.8-11.8,10.9l-0.1,1.8c-0.5,6.5,4.4,12.2,10.8,12.7l48.7,3.8
							c0.3,0,0.6,0,0.9,0c6.1,0,11.3-4.8,11.8-10.9l0.1-1.8c0.2-3.1-0.7-6.2-2.8-8.6c-2-2.4-4.9-3.8-8-4.1l-48.7-3.8
							C-519.8,546.3-520.1,546.3-520.4,546.3L-520.4,546.3z"/>
					</g>
					<g>
						<g id="XMLID_5_">
							<path fill="#F7F7F7" d="M-481.8,425.3c-0.4,0-0.7,0-1.1,0l-32.3-2.5c-5-0.4-9.2-3.5-10.4-7.6l-6.3-22.5
								c-0.7-2.6-0.2-5.3,1.5-7.5c2-2.7,5.5-4.3,9.3-4.3c0.4,0,0.7,0,1.1,0l48.3,3.8c4.1,0.3,7.6,2.4,9.5,5.5
								c1.5,2.5,1.6,5.4,0.5,7.9l-9.7,21.3C-473.1,422.9-477.1,425.3-481.8,425.3z"/>
							<path fill="#F7F7F7" d="M-521,384.8c0.3,0,0.5,0,0.8,0l48.3,3.8c4.9,0.4,8.2,4.3,6.6,7.8l-9.7,21.3c-1,2.2-3.7,3.6-6.7,3.6
								c-0.3,0-0.5,0-0.8,0l-32.3-2.5c-3.3-0.3-6.1-2.2-6.8-4.7l-6.3-22.5C-528.9,387.9-525.5,384.8-521,384.8 M-521,376.8
								C-521,376.8-521,376.8-521,376.8c-5.1,0-9.7,2.2-12.5,5.9c-2.4,3.2-3.2,7.2-2.1,11l6.3,22.5c1.6,5.8,7.2,10,13.9,10.5
								l32.3,2.5c0.5,0,0.9,0.1,1.4,0.1c6.2,0,11.7-3.3,14-8.3l9.7-21.3c1.7-3.8,1.5-8-0.7-11.6c-2.5-4.2-7.2-7-12.6-7.4l-48.3-3.8
								C-520.1,376.8-520.5,376.8-521,376.8L-521,376.8z"/>
						</g>
						<g id="XMLID_4_">
							<path fill="#F7F7F7" d="M-518.1,683c-2.5,0-4.9-0.7-6.9-1.9l-37.7-23.1c-3.6-2.2-5.4-5.9-4.7-9.6l39.4-205.5
								c0.9-4.6,5.5-7.9,11-7.9c0.4,0,0.7,0,1.1,0l32,2.5c5.9,0.5,10.5,4.6,10.7,9.6l7,209.1c0.1,3.8-2.2,7.2-6.2,8.8l-40.8,16.9
								C-514.7,682.6-516.4,683-518.1,683C-518.1,683-518.1,683-518.1,683z"/>
							<path fill="#F7F7F7" d="M-517,438.9c0.3,0,0.5,0,0.8,0l32,2.5c3.9,0.3,6.9,2.8,7,5.8l7,209.1c0.1,2.1-1.3,4-3.7,5l-40.8,16.9
								c-1.1,0.4-2.3,0.7-3.4,0.7c-1.7,0-3.4-0.4-4.8-1.3l-37.7-23.1c-2.2-1.3-3.3-3.4-2.9-5.5l39.4-205.5
								C-523.6,440.9-520.6,438.9-517,438.9 M-517,430.9c-7.4,0-13.7,4.7-14.9,11.2l-39.4,205.5c-1,5.3,1.6,10.7,6.6,13.8l37.7,23.1
								c2.7,1.6,5.8,2.5,9,2.5c2.3,0,4.5-0.4,6.5-1.3l40.8-16.9c5.4-2.3,8.8-7.2,8.6-12.6l-7-209.1c-0.2-7.1-6.4-12.9-14.4-13.5
								l-32-2.5C-516.1,431-516.6,430.9-517,430.9L-517,430.9z"/>
						</g>
						<g id="XMLID_2_">
							<path fill="#F7F7F7" d="M-471.9,565c-0.2,0-0.4,0-0.6,0l-48.7-3.8c-4.3-0.3-7.5-4.1-7.2-8.4l0.1-1.8c0.3-4,3.7-7.2,7.8-7.2
								c0.2,0,0.4,0,0.6,0l48.7,3.8c4.3,0.3,7.5,4.1,7.2,8.4l-0.1,1.8C-464.5,561.8-467.9,565-471.9,565z"/>
							<path fill="#F7F7F7" d="M-520.4,547.8c0.1,0,0.2,0,0.3,0l48.7,3.8c2.1,0.2,3.7,2,3.5,4.1l-0.1,1.8c-0.2,2-1.8,3.5-3.8,3.5
								c-0.1,0-0.2,0-0.3,0l-48.7-3.8c-2.1-0.2-3.7-2-3.5-4.1l0.1-1.8C-524.1,549.3-522.4,547.8-520.4,547.8 M-520.4,539.8
								C-520.4,539.8-520.4,539.8-520.4,539.8c-6.1,0-11.3,4.8-11.8,10.9l-0.1,1.8c-0.5,6.5,4.4,12.2,10.8,12.7l48.7,3.8
								c0.3,0,0.6,0,0.9,0c6.1,0,11.3-4.8,11.8-10.9l0.1-1.8c0.2-3.1-0.7-6.2-2.8-8.6c-2-2.4-4.9-3.8-8-4.1l-48.7-3.8
								C-519.8,539.8-520.1,539.8-520.4,539.8L-520.4,539.8z"/>
						</g>
					</g>
				</g>
			</g>
		</g>
		<g id="XMLID_151_">
			<g id="XMLID_269_">
				<g id="XMLID_289_">
					<g>
						<path fill="#114051" d="M-482.5,424.1l-32.3-2.5c-3.3-0.3-6.1-2.2-6.8-4.7l-6.3-22.5c-1-3.7,2.8-7,7.7-6.7l48.3,3.8
							c4.9,0.4,8.2,4.3,6.6,7.8l-9.7,21.3C-476.2,422.9-479.2,424.3-482.5,424.1z"/>
					</g>
					<g>
						<path fill="#155166" d="M-482.5,421.2l-32.3-2.5c-3.3-0.3-6.1-2.2-6.8-4.7l-6.3-22.5c-1-3.7,2.8-7,7.7-6.7l48.3,3.8
							c4.9,0.4,8.2,4.3,6.6,7.8l-9.7,21.3C-476.2,420-479.2,421.5-482.5,421.2z"/>
					</g>
				</g>
				<polygon id="XMLID_288_" fill="#046382" points="-513.2,385.4 -527.1,394.4 -525.5,400.1 -504,386.1 				"/>
				<polygon id="XMLID_285_" fill="#046382" points="-522.7,410.4 -487.2,387.4 -496.4,386.7 -524.2,404.7 				"/>
				<path id="XMLID_276_" fill="#046382" d="M-471.9,388.6l-7.6-0.6l-41.7,27c0.9,1.7,2.7,2.9,5,3.5l45.8-29.7
					C-471,388.7-471.4,388.6-471.9,388.6z"/>
				<path id="XMLID_273_" fill="#046382" d="M-499.6,419.9l33.4-21.6l0.9-1.9c0.8-1.7,0.4-3.5-0.7-4.9l-42.8,27.7L-499.6,419.9z"/>
				<polygon id="XMLID_270_" fill="#046382" points="-482.8,421.2 -474.1,415.6 -469.8,406.1 -492,420.5 				"/>
			</g>
			<g id="XMLID_152_">
				<g id="XMLID_259_">
					<g>
						<path fill="#114051" d="M-484.2,444.3l-32-2.5c-3.9-0.3-7.3,1.7-7.8,4.6L-563.4,652c-0.4,2,0.7,4.1,2.9,5.5l37.7,23.1
							c2.4,1.5,5.6,1.7,8.2,0.6l40.8-16.9c2.3-1,3.8-2.9,3.7-5l-7-209.1C-477.3,447.1-480.4,444.6-484.2,444.3z"/>
					</g>
					<g>
						<path fill="#155166" d="M-484.2,441.5l-32-2.5c-3.9-0.3-7.3,1.7-7.8,4.6l-39.4,205.5c-0.4,2,0.7,4.1,2.9,5.5l37.7,23.1
							c2.4,1.5,5.6,1.7,8.2,0.6l40.8-16.9c2.3-1,3.8-2.9,3.7-5l-7-209.1C-477.3,444.3-480.4,441.8-484.2,441.5z"/>
					</g>
				</g>
				<polygon id="XMLID_230_" fill="#046382" points="-526.9,458.1 -499.3,440.3 -508.6,439.6 -525.4,450.5 				"/>
				<polygon id="XMLID_223_" fill="#046382" points="-546.1,663.4 -471.6,615.1 -471.8,608.5 -551.4,660.2 				"/>
				<path id="XMLID_220_" fill="#046382" d="M-472.4,591.4l-91.1,59.1c0.2,1.6,1.2,3.1,2.9,4.1l0.5,0.3l87.9-57L-472.4,591.4z"/>
				<polygon id="XMLID_212_" fill="#046382" points="-561.4,638.2 -472.7,580.8 -473,574.2 -559.9,630.6 				"/>
				<polygon id="XMLID_209_" fill="#046382" points="-557.5,618.2 -473.3,563.6 -473.5,557.1 -556.1,610.6 				"/>
				<polygon id="XMLID_202_" fill="#046382" points="-553.7,598.2 -473.9,546.5 -474.1,539.9 -552.2,590.6 				"/>
				<polygon id="XMLID_195_" fill="#046382" points="-549.9,578.2 -474.5,529.3 -474.7,522.8 -548.4,570.6 				"/>
				<polygon id="XMLID_189_" fill="#046382" points="-546,558.2 -475.1,512.2 -475.3,505.6 -544.6,550.6 				"/>
				<polygon id="XMLID_171_" fill="#046382" points="-542.2,538.2 -475.6,495 -475.8,488.5 -540.7,530.5 				"/>
				<polygon id="XMLID_168_" fill="#046382" points="-538.4,518.2 -476.2,477.9 -476.4,471.3 -536.9,510.5 				"/>
				<polygon id="XMLID_162_" fill="#046382" points="-534.5,498.2 -476.8,460.7 -477,454.2 -533.1,490.5 				"/>
				<path id="XMLID_159_" fill="#046382" d="M-530.7,478.2l52.3-33.9c-1.2-1.5-3.4-2.6-5.8-2.8l-0.2,0l-44.8,29.1L-530.7,478.2z"/>
				<path id="XMLID_156_" fill="#046382" d="M-470.7,642.8l-53,34.4l0.7,0.4c2.2,1.3,5.1,1.7,7.6,0.9l44.9-29.1L-470.7,642.8z"/>
				<polygon id="XMLID_153_" fill="#046382" points="-532.2,671.9 -471,632.2 -471.2,625.7 -537.5,668.7 				"/>
			</g>
		</g>
		<g id="XMLID_72_">
			<g id="XMLID_125_">
				<g>
					<path fill="#E8BA00" d="M-470.9,561.9l-39.7-3.1c-2-0.2-3.5-1.9-3.3-3.9l0.2-3c0.2-2,1.9-3.5,3.9-3.3l39.7,3.1
						c2,0.2,3.5,1.9,3.3,3.9l-0.2,3C-467.2,560.5-468.9,562-470.9,561.9z"/>
					<circle fill="#E8BA00" cx="-487.7" cy="555.4" r="11"/>
				</g>
				<g>
					<g id="XMLID_46_">
						<path fill="#FFCD02" d="M-470.9,560.5l-39.7-3.1c-2-0.2-3.5-1.9-3.3-3.9l0.2-3c0.2-2,1.9-3.5,3.9-3.3l39.7,3.1
							c2,0.2,3.5,1.9,3.3,3.9l-0.2,3C-467.2,559.1-468.9,560.6-470.9,560.5z"/>
					</g>
					<g id="XMLID_43_">
						<circle fill="#FFCD02" cx="-487.7" cy="554" r="11"/>
					</g>
				</g>
			</g>
			<g id="XMLID_91_">
				<g>
					<path id="XMLID_40_" fill="#E89300" d="M-487.7,547.1c0.2,0,0.4,0,0.6,0c4.1,0.3,7.2,3.9,6.9,8c-0.3,3.9-3.6,6.9-7.4,6.9
						c-0.2,0-0.4,0-0.6,0c-4.1-0.3-7.2-3.9-6.9-8C-494.8,550.1-491.5,547.1-487.7,547.1 M-487.7,545.5L-487.7,545.5
						c-4.7,0-8.7,3.7-9.1,8.4c-0.2,2.4,0.6,4.8,2.2,6.6c1.6,1.8,3.8,3,6.2,3.2c0.2,0,0.5,0,0.7,0c4.7,0,8.7-3.7,9.1-8.4
						c0.2-2.4-0.6-4.8-2.2-6.6c-1.6-1.8-3.8-3-6.2-3.2C-487.2,545.5-487.4,545.5-487.7,545.5L-487.7,545.5z"/>
					<path id="XMLID_36_" fill="#E89300" d="M-490.7,550.9l-0.8,9.9l-1.3-0.1l0.6-8c-0.6,0.7-1.3,1.3-2.1,1.9l-0.3-0.4
						c1.7-1.6,3.2-4,4.3-6.9l1.4,0.6C-489.3,548.8-489.9,549.9-490.7,550.9z M-482.3,557c1,3.6,0,5.2-2.2,3.9
						c-1.5-0.9-2.6-3-2.8-7.8c-1,0.1-2,0.1-2.9,0.2l-0.1-0.8c1-0.1,2-0.1,3-0.2c0-1.4,0-2.9,0.1-4.5l1.3,0.1
						c-0.1,1.6-0.1,3.1-0.1,4.3c1.5-0.1,3-0.2,4.5-0.4l0.1,0.8c-1.5,0.1-3.1,0.3-4.6,0.4c0.1,3,0.7,5.6,2,6.4c1,0.6,1-0.5,1.1-2.5
						L-482.3,557z M-483.2,551.4c-0.5-1-1.2-2-1.8-2.9l0.4-0.4c0.9,0.6,1.8,1.4,2.6,2.3L-483.2,551.4z"/>
				</g>
				<g>
					<path id="XMLID_33_" fill="#FFA302" d="M-487.7,546.5c0.2,0,0.4,0,0.6,0c4.1,0.3,7.2,3.9,6.9,8c-0.3,3.9-3.6,6.9-7.4,6.9
						c-0.2,0-0.4,0-0.6,0c-4.1-0.3-7.2-3.9-6.9-8C-494.8,549.5-491.5,546.5-487.7,546.5 M-487.7,544.9L-487.7,544.9
						c-4.7,0-8.7,3.7-9.1,8.4c-0.2,2.4,0.6,4.8,2.2,6.6c1.6,1.8,3.8,3,6.2,3.2c0.2,0,0.5,0,0.7,0c4.7,0,8.7-3.7,9.1-8.4
						c0.2-2.4-0.6-4.8-2.2-6.6c-1.6-1.8-3.8-3-6.2-3.2C-487.2,544.9-487.4,544.9-487.7,544.9L-487.7,544.9z"/>
					<g id="XMLID_24_">
						<path id="XMLID_25_" fill="#FFA302" d="M-490.7,550.4l-0.8,9.9l-1.3-0.1l0.6-8c-0.6,0.7-1.3,1.3-2.1,1.9l-0.3-0.4
							c1.7-1.6,3.2-4,4.3-6.9l1.4,0.6C-489.3,548.2-489.9,549.3-490.7,550.4z M-482.3,556.4c1,3.6,0,5.2-2.2,3.9
							c-1.5-0.9-2.6-3-2.8-7.8c-1,0.1-2,0.1-2.9,0.2l-0.1-0.8c1-0.1,2-0.1,3-0.2c0-1.4,0-2.9,0.1-4.5l1.3,0.1
							c-0.1,1.6-0.1,3.1-0.1,4.3c1.5-0.1,3-0.2,4.5-0.4l0.1,0.8c-1.5,0.1-3.1,0.3-4.6,0.4c0.1,3,0.7,5.6,2,6.4c1,0.6,1-0.5,1.1-2.5
							L-482.3,556.4z M-483.2,550.8c-0.5-1-1.2-2-1.8-2.9l0.4-0.4c0.9,0.6,1.8,1.4,2.6,2.3L-483.2,550.8z"/>
					</g>
				</g>
			</g>
		</g>
	</g>
</g>
</svg>
