<?xml version="1.0" encoding="utf-8"?>
<!-- Generator: Adobe Illustrator 19.0.0, SVG Export Plug-In . SVG Version: 6.00 Build 0)  -->
<svg version="1.2" baseProfile="tiny" id="圖層_1"
	 xmlns="http://www.w3.org/2000/svg" xmlns:xlink="http://www.w3.org/1999/xlink" x="0px" y="0px" viewBox="-732 310 453.5 462"
	 xml:space="preserve">
<g id="XMLID_205_">
	<g id="XMLID_315_">
		<g id="XMLID_316_">
			<g id="XMLID_318_">
				<g>
					<path fill="#8C6239" d="M-363.5,772H-647c-47,0-85-38.1-85-85V403.5c0-47,38.1-85,85-85h283.5c47,0,85,38.1,85,85V687
						C-278.5,734-316.5,772-363.5,772z"/>
				</g>
				<g>
					<path fill="#BB7434" d="M-363.5,763.5H-647c-47,0-85-38.1-85-85V395c0-47,38.1-85,85-85h283.5c47,0,85,38.1,85,85v283.5
						C-278.5,725.5-316.5,763.5-363.5,763.5z"/>
				</g>
			</g>
			<path id="XMLID_317_" fill="#623F1E" d="M-382.2,729.4h-246.1c-38.4,0-69.6-31.2-69.6-69.6V413.7c0-38.4,31.2-69.6,69.6-69.6
				h246.1c38.4,0,69.6,31.2,69.6,69.6v246.1C-312.6,698.3-343.7,729.4-382.2,729.4z"/>
		</g>
	</g>
	<g id="XMLID_214_">
		<g id="XMLID_297_">
			<g>
				<path fill="#DBDCDC" d="M-497.2,656.4c-7.8,0-15.7-0.6-23.6-1.8c-69.1-10.5-118.4-64.4-109.9-120.3c2.5-16.4,9.9-31.9,21.5-44.9
					c13.3-36.5,53.9-61,101.4-61c7,0,14.1,0.5,21.1,1.6c26.9,4.1,51.7,15.8,70,33.1c18,17,28.4,38.3,29.5,60
					c7.2,15.8,9.7,32.9,7.2,49.2C-387.5,621.1-436.8,656.4-497.2,656.4C-497.2,656.4-497.2,656.4-497.2,656.4z"/>
				<path fill="#DBDCDC" d="M-507.9,432c6.7,0,13.6,0.5,20.6,1.6c54.5,8.3,94.8,47.3,96.5,90.5c6.9,15,9.7,31.4,7.2,47.9
					c-7.2,47.8-55.9,81.1-113.7,81.1c-7.5,0-15.3-0.6-23-1.8c-67.3-10.2-115.2-62.3-107-116.3c2.5-16.5,10-31.3,21.1-43.6
					C-593.7,455.8-554,432-507.9,432 M-507.9,425c-48.7,0-90.5,25.1-104.5,62.7c-11.8,13.4-19.3,29.3-21.9,46.2
					c-4.3,28.3,5.3,56.8,27,80.4c21.3,23.1,51.8,38.7,85.9,43.9c8,1.2,16.1,1.8,24.1,1.8c62.2,0,112.9-36.6,120.6-87
					c2.6-16.8,0.1-34.3-7.2-50.6c-1.2-22.4-12-44.3-30.5-61.7c-18.7-17.7-44.2-29.8-71.8-34C-493.4,425.5-500.7,425-507.9,425
					L-507.9,425z"/>
			</g>
			<g>
				<path fill="#F7F7F7" d="M-497.2,650.8c-7.8,0-15.7-0.6-23.6-1.8c-69.1-10.5-118.4-64.4-109.9-120.3c2.5-16.4,9.9-31.9,21.5-44.9
					c13.3-36.5,53.9-61,101.4-61c7,0,14.1,0.5,21.1,1.6c26.9,4.1,51.7,15.8,70,33.1c18,17,28.4,38.3,29.5,60
					c7.2,15.8,9.7,32.9,7.2,49.2C-387.5,615.4-436.8,650.8-497.2,650.8C-497.2,650.8-497.2,650.8-497.2,650.8z"/>
				<path fill="#F7F7F7" d="M-507.9,426.3c6.7,0,13.6,0.5,20.6,1.6c54.5,8.3,94.8,47.3,96.5,90.5c6.9,15,9.7,31.4,7.2,47.9
					c-7.2,47.8-55.9,81.1-113.7,81.1c-7.5,0-15.3-0.6-23-1.8c-67.3-10.2-115.2-62.3-107-116.3c2.5-16.5,10-31.3,21.1-43.6
					C-593.7,450.1-554,426.3-507.9,426.3 M-507.9,419.3c-48.7,0-90.5,25.1-104.5,62.7c-11.8,13.4-19.3,29.3-21.9,46.2
					c-4.3,28.3,5.3,56.8,27,80.4c21.3,23.1,51.8,38.7,85.9,43.9c8,1.2,16.1,1.8,24.1,1.8c62.2,0,112.9-36.6,120.6-87
					c2.6-16.8,0.1-34.3-7.2-50.6c-1.2-22.4-12-44.3-30.5-61.7c-18.7-17.7-44.2-29.8-71.8-34C-493.4,419.8-500.7,419.3-507.9,419.3
					L-507.9,419.3z"/>
			</g>
		</g>
		<g id="XMLID_215_">
			<g id="XMLID_290_">
				<g>
					
						<ellipse transform="matrix(0.9887 0.15 -0.15 0.9887 76.8824 82.0655)" fill="#353232" cx="-505.4" cy="550.6" rx="123.2" ry="98.9"/>
				</g>
				<g>
					
						<ellipse transform="matrix(0.9887 0.15 -0.15 0.9887 76.4571 82.0334)" fill="#3E3A39" cx="-505.4" cy="547.7" rx="123.2" ry="98.9"/>
				</g>
			</g>
			<path id="XMLID_284_" fill="#A44B48" d="M-391.6,531.9l-7.8-5.2c-11.6-34.1-47.1-62.2-92.4-69.1c-44-6.7-85,8.5-106.8,36
				l-10.2,0.6l-5.2,34.3c-7.3,48.3,35.5,94.9,95.7,104c60.2,9.1,114.9-22.6,122.2-70.9c0.1-0.8,0.2-1.7,0.3-2.5L-391.6,531.9z"/>
			
				<ellipse id="XMLID_283_" transform="matrix(0.9887 0.15 -0.15 0.9887 71.6504 80.9286)" fill="#D15C5A" cx="-500.5" cy="515.3" rx="110.2" ry="88.5"/>
			<g id="XMLID_216_">
				<g>
					<path id="XMLID_27_" fill="#DBDCDC" d="M-574.2,523c-1-0.1-1.8-0.5-2.3-1.2c-0.6-0.7-0.8-1.4-0.7-2.1l3.3-21.9
						c0.1-0.8,0.5-1.4,1.3-1.8c0.7-0.4,1.6-0.6,2.6-0.5l1.8,0.3c1,0.1,1.8,0.5,2.5,1.2c0.7,0.6,1,1.4,1,2.2l0,2c0,0.1,0,0.1,0.1,0.1
						c0.1,0,0.2,0,0.2-0.1c1.5-1.6,3.2-2.7,5-3.3c1.9-0.7,3.7-0.8,5.4-0.6c0.3,0,0.5,0.1,0.8,0.1c0.9,0.2,1.6,0.6,2.1,1.4
						c0.3,0.5,0.4,1.1,0.3,1.6c0,0.2-0.1,0.4-0.2,0.7l-0.8,1.9c-0.3,0.7-0.9,1.2-1.7,1.5c-0.8,0.3-1.7,0.4-2.6,0.2c0,0-0.1,0-0.1,0
						c-0.1,0-0.2,0-0.3,0c-1.4-0.2-2.8,0-4.2,0.5c-1.4,0.5-2.7,1.5-3.8,3c-0.2,0.2-0.2,0.4-0.3,0.7l-1.9,12.6
						c-0.1,0.8-0.6,1.4-1.3,1.8c-0.8,0.4-1.6,0.6-2.6,0.5L-574.2,523z"/>
					<path id="XMLID_24_" fill="#DBDCDC" d="M-535,529.6c-5.1-0.8-9-2.7-11.9-5.8c-2.9-3.1-4-6.8-3.3-11.3c0.3-2.2,1.1-4.1,2.3-5.8
						c1.2-1.7,2.6-3,4.3-4c1.7-1,3.6-1.7,5.6-2c2-0.4,4.1-0.4,6.2-0.1c4.8,0.7,8.2,2.5,10.4,5.3c2.1,2.8,2.9,6.2,2.3,10.2
						c0,0.3-0.1,0.6-0.1,0.9c-0.2,0.8-0.7,1.4-1.5,1.8c-0.9,0.4-1.8,0.5-2.8,0.4l-16.2-2.5c-0.1,0-0.2,0-0.3,0.1
						c-0.1,0.1-0.1,0.2-0.1,0.3c0.5,3.5,3,5.5,7.7,6.2c1.4,0.2,2.8,0.2,4.2,0.1c0.5-0.1,1,0,1.5,0c0.4,0.1,0.9,0.2,1.3,0.3
						c0.9,0.4,1.5,0.9,1.9,1.6l0.1,0.3c0.3,0.5,0.4,1,0.3,1.5c0,0.3-0.1,0.5-0.3,0.7c-0.4,0.8-1,1.2-1.9,1.4
						C-528.7,530-531.9,530.1-535,529.6z M-539.5,510.8c0,0.2,0.1,0.3,0.4,0.3l10.8,1.6c0.3,0,0.5,0,0.5-0.3l0,0
						c0.1-1.4-0.2-2.5-1-3.5s-2-1.5-3.8-1.8c-1.5-0.2-2.9-0.1-4.1,0.5C-538.3,508.5-539.3,509.5-539.5,510.8z"/>
					<path id="XMLID_22_" fill="#DBDCDC" d="M-504.4,534.3c-3.5-0.5-6.8-1.8-10-3.8c-0.8-0.5-1.2-1.2-1.2-2c0-0.2,0-0.3,0-0.5
						c0.1-0.6,0.4-1.1,1-1.5l0.8-0.7c0.6-0.5,1.4-0.8,2.4-0.8c0.2,0,0.5,0,0.7,0.1c0.7,0.1,1.4,0.3,1.9,0.7c1.9,1.2,3.7,2,5.6,2.2
						c2.7,0.4,4.2-0.1,4.4-1.6c0-0.2,0-0.4-0.1-0.7c-0.1-0.2-0.3-0.5-0.5-0.7c-0.3-0.2-0.5-0.4-0.7-0.6c-0.2-0.2-0.6-0.4-1-0.6
						c-0.5-0.2-0.9-0.5-1.1-0.6c-0.3-0.2-0.7-0.4-1.4-0.7c-0.7-0.3-1.1-0.5-1.4-0.7c-1.1-0.6-2.1-1.1-3-1.7c-0.9-0.6-1.7-1.2-2.6-2
						c-0.8-0.8-1.4-1.6-1.8-2.6c-0.4-1-0.5-2-0.3-3.1c0.4-2.6,1.9-4.5,4.6-5.8c2.7-1.2,6-1.6,10-0.9c3.3,0.5,6.3,1.6,9,3.4
						c0.8,0.5,1.2,1.1,1.2,1.9c0,0.2,0,0.3,0,0.5c-0.1,0.6-0.4,1.1-0.9,1.5l-0.7,0.6c-0.6,0.5-1.5,0.8-2.5,0.8c-0.3,0-0.6,0-0.8-0.1
						c-0.7-0.1-1.3-0.3-1.9-0.7c-1.4-0.8-2.7-1.3-4-1.5c-2.4-0.4-3.7,0.1-3.9,1.4c0,0.2,0,0.4,0,0.5c0.1,0.2,0.1,0.3,0.3,0.5
						c0.1,0.2,0.3,0.3,0.4,0.5c0.1,0.1,0.3,0.3,0.6,0.5c0.3,0.2,0.5,0.3,0.7,0.4c0.2,0.1,0.5,0.3,0.9,0.5c0.4,0.2,0.7,0.3,1,0.5
						c0.3,0.1,0.6,0.3,1.1,0.5c0.5,0.2,0.8,0.4,1.1,0.5c1.2,0.6,2.2,1.1,3.1,1.7c0.9,0.5,1.7,1.2,2.6,2c0.9,0.8,1.5,1.7,1.8,2.7
						c0.3,1,0.4,2.1,0.3,3.3c-0.4,2.6-2,4.6-4.7,5.9C-496.2,534.6-499.8,534.9-504.4,534.3z"/>
					<path id="XMLID_19_" fill="#DBDCDC" d="M-468.4,539.7c-5.1-0.8-9-2.7-11.9-5.8c-2.9-3.1-4-6.8-3.3-11.3
						c0.3-2.2,1.1-4.1,2.3-5.8c1.2-1.7,2.6-3,4.3-4c1.7-1,3.6-1.7,5.6-2c2-0.4,4.1-0.4,6.2-0.1c4.8,0.7,8.2,2.5,10.4,5.3
						c2.1,2.8,2.9,6.2,2.3,10.2c0,0.3-0.1,0.6-0.1,0.9c-0.2,0.8-0.7,1.4-1.5,1.8c-0.9,0.4-1.8,0.5-2.8,0.4l-16.2-2.5
						c-0.1,0-0.2,0-0.3,0.1c-0.1,0.1-0.1,0.2-0.1,0.3c0.5,3.5,3,5.5,7.7,6.2c1.4,0.2,2.8,0.2,4.2,0.1c0.5-0.1,1,0,1.5,0
						c0.4,0.1,0.9,0.2,1.3,0.3c0.9,0.4,1.5,0.9,1.9,1.6l0.1,0.3c0.3,0.5,0.4,1,0.3,1.5c0,0.3-0.1,0.5-0.3,0.7
						c-0.4,0.8-1,1.2-1.9,1.4C-462.1,540.1-465.3,540.2-468.4,539.7z M-472.9,520.9c0,0.2,0.1,0.3,0.4,0.3l10.8,1.6
						c0.3,0,0.5,0,0.5-0.3l0,0c0.1-1.4-0.2-2.5-1-3.5s-2-1.5-3.8-1.8c-1.5-0.2-2.9-0.1-4.1,0.5
						C-471.8,518.6-472.7,519.6-472.9,520.9z"/>
					<path id="XMLID_17_" fill="#DBDCDC" d="M-435.7,544.7c-4.2-0.6-7.1-2-8.7-4.2c-1.7-2.2-2.2-5-1.7-8.4l1.6-10.2
						c0-0.2-0.1-0.4-0.4-0.4l-0.8-0.1c-0.9-0.1-1.7-0.5-2.3-1.2c-0.6-0.7-0.8-1.4-0.7-2.1l0.1-0.8c0.1-0.8,0.6-1.4,1.3-1.9
						c0.8-0.5,1.6-0.7,2.6-0.6l1.4,0.1c0.3,0,0.5-0.1,0.6-0.3l1.3-4.1c0.3-0.8,0.8-1.3,1.6-1.8c0.8-0.4,1.7-0.5,2.7-0.4l2,0.3
						c0.9,0.1,1.7,0.5,2.3,1.2c0.6,0.6,0.8,1.4,0.7,2.1l-0.6,4.1c0,0.2,0.1,0.4,0.4,0.4l4.2,0.6c0.9,0.1,1.7,0.5,2.3,1.2
						c0.6,0.7,0.8,1.4,0.7,2.1l-0.2,1.2c-0.1,0.8-0.6,1.4-1.3,1.8c-0.8,0.4-1.6,0.6-2.6,0.5l-4.2-0.6c-0.3,0-0.4,0-0.5,0.3
						l-1.5,10.1c-0.4,2.7,0.7,4.4,3.4,4.9c1,0.2,1.8,0.5,2.5,1c0.7,0.5,1.1,1.1,1.2,1.8l0.1,0.8c0,0.3,0,0.5,0,0.7
						c-0.1,0.5-0.3,1-0.8,1.4c-0.6,0.6-1.4,0.9-2.4,0.9C-432.7,545-434.2,544.9-435.7,544.7z"/>
				</g>
				<g>
					<path id="XMLID_15_" fill="#F7F7F7" d="M-574.2,521.6c-1-0.1-1.8-0.5-2.3-1.2c-0.6-0.7-0.8-1.4-0.7-2.1l3.3-21.9
						c0.1-0.8,0.5-1.4,1.3-1.8c0.7-0.4,1.6-0.6,2.6-0.5l1.8,0.3c1,0.1,1.8,0.5,2.5,1.2c0.7,0.6,1,1.4,1,2.2l0,2c0,0.1,0,0.1,0.1,0.1
						c0.1,0,0.2,0,0.2-0.1c1.5-1.6,3.2-2.7,5-3.3c1.9-0.7,3.7-0.8,5.4-0.6c0.3,0,0.5,0.1,0.8,0.1c0.9,0.2,1.6,0.6,2.1,1.4
						c0.3,0.5,0.4,1.1,0.3,1.6c0,0.2-0.1,0.4-0.2,0.7l-0.8,1.9c-0.3,0.7-0.9,1.2-1.7,1.5c-0.8,0.3-1.7,0.4-2.6,0.2c0,0-0.1,0-0.1,0
						c-0.1,0-0.2,0-0.3,0c-1.4-0.2-2.8,0-4.2,0.5c-1.4,0.5-2.7,1.5-3.8,3c-0.2,0.2-0.2,0.4-0.3,0.7l-1.9,12.6
						c-0.1,0.8-0.6,1.4-1.3,1.8c-0.8,0.4-1.6,0.6-2.6,0.5L-574.2,521.6z"/>
					<path id="XMLID_12_" fill="#F7F7F7" d="M-535,528.2c-5.1-0.8-9-2.7-11.9-5.8c-2.9-3.1-4-6.8-3.3-11.3c0.3-2.2,1.1-4.1,2.3-5.8
						c1.2-1.7,2.6-3,4.3-4c1.7-1,3.6-1.7,5.6-2c2-0.4,4.1-0.4,6.2-0.1c4.8,0.7,8.2,2.5,10.4,5.3c2.1,2.8,2.9,6.2,2.3,10.2
						c0,0.3-0.1,0.6-0.1,0.9c-0.2,0.8-0.7,1.4-1.5,1.8c-0.9,0.4-1.8,0.5-2.8,0.4l-16.2-2.5c-0.1,0-0.2,0-0.3,0.1
						c-0.1,0.1-0.1,0.2-0.1,0.3c0.5,3.5,3,5.5,7.7,6.2c1.4,0.2,2.8,0.2,4.2,0.1c0.5-0.1,1,0,1.5,0c0.4,0.1,0.9,0.2,1.3,0.3
						c0.9,0.4,1.5,0.9,1.9,1.6l0.1,0.3c0.3,0.5,0.4,1,0.3,1.5c0,0.3-0.1,0.5-0.3,0.7c-0.4,0.8-1,1.2-1.9,1.4
						C-528.7,528.6-531.9,528.7-535,528.2z M-539.5,509.4c0,0.2,0.1,0.3,0.4,0.3l10.8,1.6c0.3,0,0.5,0,0.5-0.3l0,0
						c0.1-1.4-0.2-2.5-1-3.5c-0.8-0.9-2-1.5-3.8-1.8c-1.5-0.2-2.9-0.1-4.1,0.5C-538.3,507.1-539.3,508.1-539.5,509.4z"/>
					<path id="XMLID_10_" fill="#F7F7F7" d="M-504.4,532.8c-3.5-0.5-6.8-1.8-10-3.8c-0.8-0.5-1.2-1.2-1.2-2c0-0.2,0-0.3,0-0.5
						c0.1-0.6,0.4-1.1,1-1.5l0.8-0.7c0.6-0.5,1.4-0.8,2.4-0.8c0.2,0,0.5,0,0.7,0.1c0.7,0.1,1.4,0.3,1.9,0.7c1.9,1.2,3.7,2,5.6,2.2
						c2.7,0.4,4.2-0.1,4.4-1.6c0-0.2,0-0.4-0.1-0.7c-0.1-0.2-0.3-0.5-0.5-0.7c-0.3-0.2-0.5-0.4-0.7-0.6s-0.6-0.4-1-0.6
						c-0.5-0.2-0.9-0.5-1.1-0.6c-0.3-0.2-0.7-0.4-1.4-0.7c-0.7-0.3-1.1-0.5-1.4-0.7c-1.1-0.6-2.1-1.1-3-1.7c-0.9-0.6-1.7-1.2-2.6-2
						c-0.8-0.8-1.4-1.6-1.8-2.6c-0.4-1-0.5-2-0.3-3.1c0.4-2.6,1.9-4.5,4.6-5.8c2.7-1.2,6-1.6,10-0.9c3.3,0.5,6.3,1.6,9,3.4
						c0.8,0.5,1.2,1.1,1.2,1.9c0,0.2,0,0.3,0,0.5c-0.1,0.6-0.4,1.1-0.9,1.5l-0.7,0.6c-0.6,0.5-1.5,0.8-2.5,0.8c-0.3,0-0.6,0-0.8-0.1
						c-0.7-0.1-1.3-0.3-1.9-0.7c-1.4-0.8-2.7-1.3-4-1.5c-2.4-0.4-3.7,0.1-3.9,1.4c0,0.2,0,0.4,0,0.5c0.1,0.2,0.1,0.3,0.3,0.5
						c0.1,0.2,0.3,0.3,0.4,0.5c0.1,0.1,0.3,0.3,0.6,0.5c0.3,0.2,0.5,0.3,0.7,0.4c0.2,0.1,0.5,0.3,0.9,0.5c0.4,0.2,0.7,0.3,1,0.5
						c0.3,0.1,0.6,0.3,1.1,0.5c0.5,0.2,0.8,0.4,1.1,0.5c1.2,0.6,2.2,1.1,3.1,1.7c0.9,0.5,1.7,1.2,2.6,2c0.9,0.8,1.5,1.7,1.8,2.7
						c0.3,1,0.4,2.1,0.3,3.3c-0.4,2.6-2,4.6-4.7,5.9C-496.2,533.2-499.8,533.5-504.4,532.8z"/>
					<path id="XMLID_7_" fill="#F7F7F7" d="M-468.4,538.3c-5.1-0.8-9-2.7-11.9-5.8c-2.9-3.1-4-6.8-3.3-11.3c0.3-2.2,1.1-4.1,2.3-5.8
						c1.2-1.7,2.6-3,4.3-4c1.7-1,3.6-1.7,5.6-2c2-0.4,4.1-0.4,6.2-0.1c4.8,0.7,8.2,2.5,10.4,5.3c2.1,2.8,2.9,6.2,2.3,10.2
						c0,0.3-0.1,0.6-0.1,0.9c-0.2,0.8-0.7,1.4-1.5,1.8c-0.9,0.4-1.8,0.5-2.8,0.4l-16.2-2.5c-0.1,0-0.2,0-0.3,0.1
						c-0.1,0.1-0.1,0.2-0.1,0.3c0.5,3.5,3,5.5,7.7,6.2c1.4,0.2,2.8,0.2,4.2,0.1c0.5-0.1,1,0,1.5,0c0.4,0.1,0.9,0.2,1.3,0.3
						c0.9,0.4,1.5,0.9,1.9,1.6l0.1,0.3c0.3,0.5,0.4,1,0.3,1.5c0,0.3-0.1,0.5-0.3,0.7c-0.4,0.8-1,1.2-1.9,1.4
						C-462.1,538.7-465.3,538.8-468.4,538.3z M-472.9,519.5c0,0.2,0.1,0.3,0.4,0.3l10.8,1.6c0.3,0,0.5,0,0.5-0.3l0,0
						c0.1-1.4-0.2-2.5-1-3.5s-2-1.5-3.8-1.8c-1.5-0.2-2.9-0.1-4.1,0.5C-471.8,517.2-472.7,518.2-472.9,519.5z"/>
					<path id="XMLID_5_" fill="#F7F7F7" d="M-435.7,543.3c-4.2-0.6-7.1-2-8.7-4.2c-1.7-2.2-2.2-5-1.7-8.4l1.6-10.2
						c0-0.2-0.1-0.4-0.4-0.4l-0.8-0.1c-0.9-0.1-1.7-0.5-2.3-1.2c-0.6-0.7-0.8-1.4-0.7-2.1l0.1-0.8c0.1-0.8,0.6-1.4,1.3-1.9
						c0.8-0.5,1.6-0.7,2.6-0.6l1.4,0.1c0.3,0,0.5-0.1,0.6-0.3l1.3-4.1c0.3-0.8,0.8-1.3,1.6-1.8c0.8-0.4,1.7-0.5,2.7-0.4l2,0.3
						c0.9,0.1,1.7,0.5,2.3,1.2c0.6,0.6,0.8,1.4,0.7,2.1l-0.6,4.1c0,0.2,0.1,0.4,0.4,0.4l4.2,0.6c0.9,0.1,1.7,0.5,2.3,1.2
						c0.6,0.7,0.8,1.4,0.7,2.1l-0.2,1.2c-0.1,0.8-0.6,1.4-1.3,1.8c-0.8,0.4-1.6,0.6-2.6,0.5l-4.2-0.6c-0.3,0-0.4,0-0.5,0.3
						l-1.5,10.1c-0.4,2.7,0.7,4.4,3.4,4.9c1,0.2,1.8,0.5,2.5,1c0.7,0.5,1.1,1.1,1.2,1.8l0.1,0.8c0,0.3,0,0.5,0,0.7
						c-0.1,0.5-0.3,1-0.8,1.4c-0.6,0.6-1.4,0.9-2.4,0.9C-432.7,543.6-434.2,543.5-435.7,543.3z"/>
				</g>
			</g>
		</g>
	</g>
</g>
</svg>
