<?xml version="1.0" encoding="utf-8"?>
<!-- Generator: Adobe Illustrator 19.0.0, SVG Export Plug-In . SVG Version: 6.00 Build 0)  -->
<svg version="1.2" baseProfile="tiny" id="圖層_1"
	 xmlns="http://www.w3.org/2000/svg" xmlns:xlink="http://www.w3.org/1999/xlink" x="0px" y="0px" viewBox="-732 310 453.5 462"
	 xml:space="preserve">
<g id="XMLID_237_">
	<g id="XMLID_438_">
		<g id="XMLID_439_">
			<g id="XMLID_442_">
				<g>
					<path fill="#8C6239" d="M-363.5,772H-647c-47,0-85-38.1-85-85V403.5c0-47,38.1-85,85-85h283.5c47,0,85,38.1,85,85V687
						C-278.5,734-316.5,772-363.5,772z"/>
				</g>
				<g>
					<path fill="#BB7434" d="M-363.5,763.5H-647c-47,0-85-38.1-85-85V395c0-47,38.1-85,85-85h283.5c47,0,85,38.1,85,85v283.5
						C-278.5,725.5-316.5,763.5-363.5,763.5z"/>
				</g>
			</g>
			<path id="XMLID_441_" fill="#623F1E" d="M-382.2,729.4h-246.1c-38.4,0-69.6-31.2-69.6-69.6V413.7c0-38.4,31.2-69.6,69.6-69.6
				h246.1c38.4,0,69.6,31.2,69.6,69.6v246.1C-312.6,698.3-343.7,729.4-382.2,729.4z"/>
		</g>
	</g>
	<g id="XMLID_240_">
		<g id="XMLID_413_">
			<g>
				<path fill="#DBDCDC" d="M-426.1,689.1c-0.3,0-0.7,0-1,0l-175.2-12.8c-3.8-0.3-7.2-2-9.7-4.9c-2.5-2.9-3.7-6.5-3.4-10.3l1-13.3
					c0.5-7.4,6.8-13.2,14.2-13.2c0.3,0,0.7,0,1,0l14.8,1.1l0.8-11.4c0.5-7.4,6.8-13.2,14.2-13.2c0.3,0,0.7,0,1,0l4,0.3l14-72.6
					c0.1-0.4-0.1-0.7-0.2-0.8s-0.3-0.4-0.7-0.4l-2.9-0.2c-4.7-0.3-8.9-2.5-11.8-6.1c-2.9-3.5-4.2-8-3.6-12.6l7.4-60.7
					c0.5-3.8,3.8-6.6,7.7-6.6c0.2,0,0.4,0,0.6,0l16.4,1.2c2.1,0.1,4,1.1,5.3,2.7c1.3,1.5,1.8,3.4,1.6,5.3l-1.3,12.4
					c0,0,0,0.1,0.1,0.2c0.1,0.1,0.2,0.2,0.4,0.2c0,0,15.3,1.1,15.3,1.1c0.4,0,0.7-0.2,0.7-0.4l0.2-1.9c0.2-2,1.4-3.7,3.2-4.6
					c1.7-5.7,6.9-9.6,12.9-9.6c0.3,0,0.7,0,1,0c4.9,0.4,9.2,3.3,11.2,7.8c2.3,0.8,3.9,3.1,3.8,5.6l-0.3,5c0,0.2,0.3,0.5,0.6,0.5
					c0,0,15.3,1.1,15.3,1.1c0.3,0,0.5-0.1,0.6-0.3l0.6-12.4c0.2-3.9,3.4-6.9,7.4-6.9c0.2,0,0.4,0,0.6,0l16.4,1.2
					c4.1,0.3,7.3,3.7,7.2,7.7l-1.6,61.2c-0.2,9.1-7.6,16.2-16.7,16.2c-0.4,0-0.9,0-1.3,0c0,0-2.9-0.2-2.9-0.2
					c-0.5,0-0.7,0.2-0.8,0.3c-0.1,0.1-0.3,0.4-0.3,0.8l3.3,73.8l4,0.3c7.8,0.6,13.7,7.4,13.1,15.2l-0.8,11.4l14.8,1.1
					c3.8,0.3,7.2,2,9.7,4.9c2.5,2.9,3.7,6.5,3.4,10.3l-1,13.3C-412.5,683.3-418.7,689.1-426.1,689.1
					C-426.1,689.1-426.1,689.1-426.1,689.1z M-507.1,564.9c-6.5,0-12,5.1-12.5,11.6l-2.4,32.6c0,0.5,0.4,1,0.9,1c0,0,23,1.7,23,1.7
					c0.6,0,1-0.4,1-0.9l2.4-32.6c0.2-3.3-0.8-6.6-3-9.1s-5.2-4.1-8.6-4.3C-506.5,564.9-506.8,564.9-507.1,564.9z"/>
				<path fill="#DBDCDC" d="M-554.7,454.8c0.1,0,0.2,0,0.3,0l16.4,1.2c2.2,0.2,3.9,2,3.7,4.1l-1.3,12.4c-0.2,2.2,1.5,4.1,3.7,4.2
					l15.3,1.1c0.1,0,0.2,0,0.3,0c2.1,0,4-1.6,4.1-3.6l0.2-1.9c0.1-0.8,0.6-1.5,1.5-1.8c0,0,0,0,0,0c0.7-0.2,1.3-0.8,1.4-1.5
					c1-4.4,5-7.7,9.7-7.7c0.2,0,0.5,0,0.7,0c3.9,0.3,7.1,2.8,8.5,6.2c0.3,0.6,0.8,1.1,1.5,1.3c0,0,0.1,0,0.1,0
					c1,0.2,1.7,1.1,1.6,2.1l-0.3,5c-0.1,2.2,1.6,4.1,3.9,4.2l15.3,1.1c0.1,0,0.2,0,0.3,0c2.1,0,3.9-1.6,4-3.7l0.6-12.4
					c0.1-2,1.8-3.6,3.9-3.6c0.1,0,0.2,0,0.3,0l16.4,1.2c2.2,0.2,4,2,4,4.2l-0.4,16.4l-0.1,5.4l-1,39.4c-0.2,7.2-6,12.8-13.2,12.8
					c-0.3,0-0.7,0-1,0l-2.9-0.2c-0.1,0-0.2,0-0.3,0c-2.6,0-4.6,2.1-4.5,4.7l3.3,74.6c0.1,1.3,1.1,2.4,2.5,2.5l4.8,0.3
					c5.9,0.4,10.3,5.6,9.9,11.5l-0.9,12.3c-0.1,1.5,1,2.7,2.5,2.8l15.7,1.1c5.9,0.4,10.3,5.6,9.9,11.5l-1,13.3
					c-0.4,5.6-5.1,9.9-10.7,9.9c-0.3,0-0.5,0-0.8,0l-175.2-12.8c-5.9-0.4-10.3-5.6-9.9-11.5l1-13.3c0.4-5.6,5.1-9.9,10.7-9.9
					c0.3,0,0.5,0,0.8,0l15.7,1.1c0.1,0,0.1,0,0.2,0c1.4,0,2.5-1.1,2.7-2.5l0.9-12.3c0.4-5.6,5.1-9.9,10.7-9.9c0.3,0,0.5,0,0.8,0
					l4.8,0.3c0.1,0,0.1,0,0.2,0c1.3,0,2.4-0.9,2.6-2.2l14.1-73.3c0.5-2.7-1.4-5.2-4.1-5.4l-2.9-0.2c-7.7-0.6-13.2-7.2-12.2-14.7
					l4.7-39.1l0.7-5.4l2-16.3C-558.7,456.3-556.8,454.8-554.7,454.8 M-497.9,615.3c2.3,0,4.3-1.8,4.5-4.1l2.4-32.6
					c0.6-8.8-6-16.5-14.8-17.1c-0.4,0-0.8,0-1.2,0c-8.3,0-15.3,6.4-16,14.8l-2.4,32.6c-0.2,2.5,1.7,4.6,4.1,4.8l23,1.7
					C-498.1,615.3-498,615.3-497.9,615.3 M-554.7,447.8C-554.7,447.8-554.7,447.8-554.7,447.8c-5.7,0-10.5,4.2-11.2,9.7l-2,16.3
					l-0.7,5.4l-4.7,39.1c-0.7,5.5,0.9,11,4.4,15.2c3.5,4.3,8.6,6.9,14.3,7.3l0.2,0l-12.9,66.8l-0.9-0.1c-0.4,0-0.9,0-1.3,0
					c-9.2,0-17,7.2-17.7,16.4l-0.6,7.9l-11.3-0.8c-0.4,0-0.9,0-1.3,0c-9.2,0-17,7.2-17.7,16.4l-1,13.3c-0.3,4.7,1.2,9.3,4.3,12.9
					c3.1,3.6,7.4,5.7,12.1,6.1l175.2,12.8c0.4,0,0.9,0,1.3,0c9.2,0,17-7.2,17.7-16.4l1-13.3c0.3-4.7-1.2-9.3-4.3-12.9
					c-3.1-3.6-7.4-5.7-12.1-6.1l-11.3-0.8l0.6-7.9c0.7-9.7-6.6-18.3-16.4-19l-0.9-0.1l-3-68l0.2,0c0.5,0,1,0.1,1.5,0.1
					c11.1,0,19.9-8.6,20.2-19.7l1-39.4l0.1-5.4l0.4-16.4c0.1-5.9-4.4-10.9-10.5-11.3l-16.4-1.2c-0.3,0-0.6,0-0.8,0
					c-5.9,0-10.7,4.5-10.9,10.2l-0.4,9.2l-9.5-0.7l0.1-2.1c0.2-3.6-1.7-6.9-4.7-8.5c-2.8-4.9-7.8-8.1-13.5-8.6c-0.4,0-0.8,0-1.2,0
					c-7.1,0-13.3,4.3-15.8,10.8c-1.9,1.3-3.2,3.3-3.6,5.6l-9.5-0.7l0.9-9.1c0.3-2.9-0.6-5.7-2.4-7.9c-1.9-2.3-4.7-3.7-7.7-3.9
					l-16.4-1.2C-554.1,447.8-554.4,447.8-554.7,447.8L-554.7,447.8L-554.7,447.8z M-518.2,606.8l2.2-30.1c0.3-4.7,4.3-8.4,9-8.4
					c0.2,0,0.4,0,0.7,0c2.4,0.2,4.6,1.3,6.2,3.1s2.3,4.1,2.2,6.5l-2.2,30.1L-518.2,606.8L-518.2,606.8z"/>
			</g>
			<g>
				<path fill="#9E9E9F" d="M-426.1,683.4c-0.3,0-0.7,0-1,0l-175.2-12.8c-3.8-0.3-7.2-2-9.7-4.9c-2.5-2.9-3.7-6.5-3.4-10.3l1-13.3
					c0.5-7.4,6.8-13.2,14.2-13.2c0.3,0,0.7,0,1,0l14.8,1.1l0.8-11.4c0.5-7.4,6.8-13.2,14.2-13.2c0.3,0,0.7,0,1,0l4,0.3l14-72.6
					c0.1-0.4-0.1-0.7-0.2-0.8s-0.3-0.4-0.7-0.4l-2.9-0.2c-4.7-0.3-8.9-2.5-11.8-6.1c-2.9-3.5-4.2-8-3.6-12.6l7.4-60.7
					c0.5-3.8,3.8-6.6,7.7-6.6c0.2,0,0.4,0,0.6,0l16.4,1.2c2.1,0.1,4,1.1,5.3,2.7c1.3,1.5,1.8,3.4,1.6,5.3l-1.3,12.4
					c0,0,0,0.1,0.1,0.2c0.1,0.1,0.2,0.2,0.4,0.2c0,0,15.3,1.1,15.3,1.1c0.4,0,0.7-0.2,0.7-0.4l0.2-1.9c0.2-2,1.4-3.7,3.2-4.6
					c1.7-5.7,6.9-9.6,12.9-9.6c0.3,0,0.7,0,1,0c4.9,0.4,9.2,3.3,11.2,7.8c2.3,0.8,3.9,3.1,3.8,5.6l-0.3,5c0,0.2,0.3,0.5,0.6,0.5
					c0,0,15.3,1.1,15.3,1.1c0.3,0,0.5-0.1,0.6-0.3l0.6-12.4c0.2-3.9,3.4-6.9,7.4-6.9c0.2,0,0.4,0,0.6,0l16.4,1.2
					c4.1,0.3,7.3,3.7,7.2,7.7l-1.6,61.2c-0.2,9.1-7.6,16.2-16.7,16.2c-0.4,0-0.9,0-1.3,0c0,0-2.9-0.2-2.9-0.2
					c-0.5,0-0.7,0.2-0.8,0.3c-0.1,0.1-0.3,0.4-0.3,0.8l3.3,73.8l4,0.3c7.8,0.6,13.7,7.4,13.1,15.2l-0.8,11.4l14.8,1.1
					c3.8,0.3,7.2,2,9.7,4.9c2.5,2.9,3.7,6.5,3.4,10.3l-1,13.3C-412.5,677.6-418.7,683.4-426.1,683.4
					C-426.1,683.4-426.1,683.4-426.1,683.4z M-507.1,559.2c-6.5,0-12,5.1-12.5,11.6l-2.4,32.6c0,0.5,0.4,1,0.9,1c0,0,23,1.7,23,1.7
					c0.6,0,1-0.4,1-0.9l2.4-32.6c0.2-3.3-0.8-6.6-3-9.1s-5.2-4.1-8.6-4.3C-506.5,559.2-506.8,559.2-507.1,559.2z"/>
				<path fill="#F7F7F7" d="M-554.7,449.1c0.1,0,0.2,0,0.3,0l16.4,1.2c2.2,0.2,3.9,2,3.7,4.1l-1.3,12.4c-0.2,2.2,1.5,4.1,3.7,4.2
					l15.3,1.1c0.1,0,0.2,0,0.3,0c2.1,0,4-1.6,4.1-3.6l0.2-1.9c0.1-0.8,0.6-1.5,1.5-1.8c0,0,0,0,0,0c0.7-0.2,1.3-0.8,1.4-1.5
					c1-4.4,5-7.7,9.7-7.7c0.2,0,0.5,0,0.7,0c3.9,0.3,7.1,2.8,8.5,6.2c0.3,0.6,0.8,1.1,1.5,1.3c0,0,0.1,0,0.1,0
					c1,0.2,1.7,1.1,1.6,2.1l-0.3,5c-0.1,2.2,1.6,4.1,3.9,4.2l15.3,1.1c0.1,0,0.2,0,0.3,0c2.1,0,3.9-1.6,4-3.7l0.6-12.4
					c0.1-2,1.8-3.6,3.9-3.6c0.1,0,0.2,0,0.3,0l16.4,1.2c2.2,0.2,4,2,4,4.2l-0.4,16.4l-0.1,5.4l-1,39.4c-0.2,7.2-6,12.8-13.2,12.8
					c-0.3,0-0.7,0-1,0l-2.9-0.2c-0.1,0-0.2,0-0.3,0c-2.6,0-4.6,2.1-4.5,4.7l3.3,74.6c0.1,1.3,1.1,2.4,2.5,2.5l4.8,0.3
					c5.9,0.4,10.3,5.6,9.9,11.5l-0.9,12.3c-0.1,1.5,1,2.7,2.5,2.8l15.7,1.1c5.9,0.4,10.3,5.6,9.9,11.5l-1,13.3
					c-0.4,5.6-5.1,9.9-10.7,9.9c-0.3,0-0.5,0-0.8,0l-175.2-12.8c-5.9-0.4-10.3-5.6-9.9-11.5l1-13.3c0.4-5.6,5.1-9.9,10.7-9.9
					c0.3,0,0.5,0,0.8,0l15.7,1.1c0.1,0,0.1,0,0.2,0c1.4,0,2.5-1.1,2.7-2.5l0.9-12.3c0.4-5.6,5.1-9.9,10.7-9.9c0.3,0,0.5,0,0.8,0
					l4.8,0.3c0.1,0,0.1,0,0.2,0c1.3,0,2.4-0.9,2.6-2.2l14.1-73.3c0.5-2.7-1.4-5.2-4.1-5.4l-2.9-0.2c-7.7-0.6-13.2-7.2-12.2-14.7
					l4.7-39.1l0.7-5.4l2-16.3C-558.7,450.7-556.8,449.1-554.7,449.1 M-497.9,609.6c2.3,0,4.3-1.8,4.5-4.1l2.4-32.6
					c0.6-8.8-6-16.5-14.8-17.1c-0.4,0-0.8,0-1.2,0c-8.3,0-15.3,6.4-16,14.8l-2.4,32.6c-0.2,2.5,1.7,4.6,4.1,4.8l23,1.7
					C-498.1,609.6-498,609.6-497.9,609.6 M-554.7,442.1C-554.7,442.1-554.7,442.1-554.7,442.1c-5.7,0-10.5,4.2-11.2,9.7l-2,16.3
					l-0.7,5.4l-4.7,39.1c-0.7,5.5,0.9,11,4.4,15.2c3.5,4.3,8.6,6.9,14.3,7.3l0.2,0l-12.9,66.8l-0.9-0.1c-0.4,0-0.9,0-1.3,0
					c-9.2,0-17,7.2-17.7,16.4l-0.6,7.9l-11.3-0.8c-0.4,0-0.9,0-1.3,0c-9.2,0-17,7.2-17.7,16.4l-1,13.3c-0.3,4.7,1.2,9.3,4.3,12.9
					c3.1,3.6,7.4,5.7,12.1,6.1l175.2,12.8c0.4,0,0.9,0,1.3,0c9.2,0,17-7.2,17.7-16.4l1-13.3c0.3-4.7-1.2-9.3-4.3-12.9
					c-3.1-3.6-7.4-5.7-12.1-6.1l-11.3-0.8l0.6-7.9c0.7-9.7-6.6-18.3-16.4-19l-0.9-0.1l-3-68l0.2,0c0.5,0,1,0.1,1.5,0.1
					c11.1,0,19.9-8.6,20.2-19.7l1-39.4l0.1-5.4l0.4-16.4c0.1-5.9-4.4-10.9-10.5-11.3l-16.4-1.2c-0.3,0-0.6,0-0.8,0
					c-5.9,0-10.7,4.5-10.9,10.2l-0.4,9.2l-9.5-0.7l0.1-2.1c0.2-3.6-1.7-6.9-4.7-8.5c-2.8-4.9-7.8-8.1-13.5-8.6c-0.4,0-0.8,0-1.2,0
					c-7.1,0-13.3,4.3-15.8,10.8c-1.9,1.3-3.2,3.3-3.6,5.6l-9.5-0.7l0.9-9.1c0.3-2.9-0.6-5.7-2.4-7.9c-1.9-2.3-4.7-3.7-7.7-3.9
					l-16.4-1.2C-554.1,442.1-554.4,442.1-554.7,442.1L-554.7,442.1L-554.7,442.1z M-518.2,601.1l2.2-30.1c0.3-4.7,4.3-8.4,9-8.4
					c0.2,0,0.4,0,0.7,0c2.4,0.2,4.6,1.3,6.2,3.1c1.6,1.8,2.3,4.1,2.2,6.5l-2.2,30.1L-518.2,601.1L-518.2,601.1z"/>
			</g>
		</g>
		<g id="XMLID_399_">
			<g>
				<path fill="#DBDCDC" d="M-486.6,402.2c-0.1,0-0.2,0-0.4,0c-2.8-0.2-4.9-2.6-4.7-5.4c0.2-2.6,2.4-4.7,5.1-4.7c0.1,0,0.2,0,0.4,0
					c2.8,0.2,4.9,2.6,4.7,5.4C-481.8,400.1-484,402.2-486.6,402.2L-486.6,402.2z"/>
				<path fill="#DBDCDC" d="M-486.6,394.5c0.1,0,0.1,0,0.2,0c1.4,0.1,2.5,1.3,2.4,2.8c-0.1,1.4-1.2,2.4-2.6,2.4c-0.1,0-0.1,0-0.2,0
					c-1.4-0.1-2.5-1.3-2.4-2.8C-489.1,395.5-488,394.5-486.6,394.5 M-486.6,389.5c-4,0-7.3,3.1-7.6,7c-0.3,4.2,2.8,7.8,7,8.1
					c0.2,0,0.4,0,0.6,0c4,0,7.3-3.1,7.6-7c0.1-2-0.5-4-1.8-5.5c-1.3-1.5-3.2-2.5-5.2-2.6C-486.3,389.5-486.5,389.5-486.6,389.5
					L-486.6,389.5z"/>
			</g>
			<g>
				<path fill="#9E9E9F" d="M-486.6,399.3c-0.1,0-0.2,0-0.4,0c-2.8-0.2-4.9-2.6-4.7-5.4c0.2-2.6,2.4-4.7,5.1-4.7c0.1,0,0.2,0,0.4,0
					c2.8,0.2,4.9,2.6,4.7,5.4C-481.8,397.3-484,399.3-486.6,399.3L-486.6,399.3z"/>
				<path fill="#F7F7F7" d="M-486.6,391.7c0.1,0,0.1,0,0.2,0c1.4,0.1,2.5,1.3,2.4,2.8c-0.1,1.4-1.2,2.4-2.6,2.4c-0.1,0-0.1,0-0.2,0
					c-1.4-0.1-2.5-1.3-2.4-2.8C-489.1,392.7-488,391.7-486.6,391.7 M-486.6,386.7c-4,0-7.3,3.1-7.6,7c-0.3,4.2,2.8,7.8,7,8.1
					c0.2,0,0.4,0,0.6,0c4,0,7.3-3.1,7.6-7c0.1-2-0.5-4-1.8-5.5c-1.3-1.5-3.2-2.5-5.2-2.6C-486.3,386.7-486.5,386.7-486.6,386.7
					L-486.6,386.7z"/>
			</g>
		</g>
		<g id="XMLID_357_">
			<g>
				<path fill="#DBDCDC" d="M-499.7,414.2c-0.1,0-0.3,0-0.4,0c-1.5-0.1-2.8-0.8-3.8-1.9c-1-1.1-1.5-2.6-1.3-4.1
					c0.2-2.9,2.7-5.2,5.6-5.2c0.1,0,0.3,0,0.4,0c1.5,0.1,2.8,0.8,3.8,1.9c1,1.1,1.5,2.6,1.3,4.1
					C-494.3,411.9-496.8,414.2-499.7,414.2L-499.7,414.2z"/>
				<path fill="#DBDCDC" d="M-499.7,405.5c0.1,0,0.2,0,0.2,0c1.7,0.1,3,1.6,2.8,3.3c-0.1,1.6-1.5,2.9-3.1,2.9c-0.1,0-0.2,0-0.2,0
					c-1.7-0.1-3-1.6-2.8-3.3C-502.6,406.8-501.3,405.5-499.7,405.5 M-499.7,400.5c-4.2,0-7.7,3.3-8.1,7.5c-0.2,2.2,0.5,4.2,1.9,5.9
					c1.4,1.6,3.4,2.6,5.5,2.8c0.2,0,0.4,0,0.6,0c4.2,0,7.7-3.3,8.1-7.5c0.3-4.4-3-8.3-7.5-8.6C-499.3,400.5-499.5,400.5-499.7,400.5
					L-499.7,400.5z"/>
			</g>
			<g>
				<path fill="#9E9E9F" d="M-499.7,411.3c-0.1,0-0.3,0-0.4,0c-1.5-0.1-2.8-0.8-3.8-1.9c-1-1.1-1.5-2.6-1.3-4.1
					c0.2-2.9,2.7-5.2,5.6-5.2c0.1,0,0.3,0,0.4,0c1.5,0.1,2.8,0.8,3.8,1.9c1,1.1,1.5,2.6,1.3,4.1
					C-494.3,409.1-496.8,411.3-499.7,411.3L-499.7,411.3z"/>
				<path fill="#F7F7F7" d="M-499.7,402.7c0.1,0,0.2,0,0.2,0c1.7,0.1,3,1.6,2.8,3.3c-0.1,1.6-1.5,2.9-3.1,2.9c-0.1,0-0.2,0-0.2,0
					c-1.7-0.1-3-1.6-2.8-3.3C-502.6,403.9-501.3,402.7-499.7,402.7 M-499.7,397.7c-4.2,0-7.7,3.3-8.1,7.5c-0.2,2.2,0.5,4.2,1.9,5.9
					c1.4,1.6,3.4,2.6,5.5,2.8c0.2,0,0.4,0,0.6,0c4.2,0,7.7-3.3,8.1-7.5c0.3-4.4-3-8.3-7.5-8.6C-499.3,397.7-499.5,397.7-499.7,397.7
					L-499.7,397.7z"/>
			</g>
		</g>
		<g id="XMLID_327_">
			<g>
				<path fill="#DBDCDC" d="M-488.5,428.8c-0.2,0-0.3,0-0.5,0c-1.7-0.1-3.2-0.9-4.3-2.1c-1.1-1.3-1.6-2.9-1.5-4.5
					c0.2-3.2,3-5.8,6.2-5.8c0.2,0,0.3,0,0.5,0c1.7,0.1,3.2,0.9,4.3,2.1c1.1,1.3,1.6,2.9,1.5,4.5
					C-482.5,426.3-485.3,428.8-488.5,428.8L-488.5,428.8z"/>
				<path fill="#DBDCDC" d="M-488.5,418.9c0.1,0,0.2,0,0.3,0c2,0.1,3.6,1.9,3.4,4c-0.1,2-1.8,3.4-3.7,3.4c-0.1,0-0.2,0-0.3,0
					c-2-0.1-3.6-1.9-3.4-4C-492.1,420.4-490.4,418.9-488.5,418.9 M-488.5,413.9c-4.5,0-8.4,3.5-8.7,8.1c-0.2,2.3,0.6,4.6,2.1,6.3
					c1.5,1.8,3.6,2.8,6,3c0.2,0,0.4,0,0.6,0c4.5,0,8.4-3.5,8.7-8.1c0.2-2.3-0.6-4.6-2.1-6.3c-1.5-1.8-3.6-2.8-6-3
					C-488.1,413.9-488.3,413.9-488.5,413.9L-488.5,413.9z"/>
			</g>
			<g>
				<path fill="#9E9E9F" d="M-488.5,426c-0.2,0-0.3,0-0.5,0c-1.7-0.1-3.2-0.9-4.3-2.1c-1.1-1.3-1.6-2.9-1.5-4.5
					c0.2-3.2,3-5.8,6.2-5.8c0.2,0,0.3,0,0.5,0c1.7,0.1,3.2,0.9,4.3,2.1c1.1,1.3,1.6,2.9,1.5,4.5C-482.5,423.4-485.3,426-488.5,426
					L-488.5,426z"/>
				<path fill="#F7F7F7" d="M-488.5,416c0.1,0,0.2,0,0.3,0c2,0.1,3.6,1.9,3.4,4c-0.1,2-1.8,3.4-3.7,3.4c-0.1,0-0.2,0-0.3,0
					c-2-0.1-3.6-1.9-3.4-4C-492.1,417.5-490.4,416-488.5,416 M-488.5,411c-4.5,0-8.4,3.5-8.7,8.1c-0.2,2.3,0.6,4.6,2.1,6.3
					c1.5,1.8,3.6,2.8,6,3c0.2,0,0.4,0,0.6,0c4.5,0,8.4-3.5,8.7-8.1c0.2-2.3-0.6-4.6-2.1-6.3c-1.5-1.8-3.6-2.8-6-3
					C-488.1,411-488.3,411-488.5,411L-488.5,411z"/>
			</g>
		</g>
		<g id="XMLID_310_">
			<g>
				<path fill="#DBDCDC" d="M-504.8,445.3c-0.2,0-0.4,0-0.6,0c-2.3-0.2-4.4-1.2-5.9-3c-1.5-1.7-2.2-4-2.1-6.3c0.3-4.5,4.1-8,8.6-8
					c0.2,0,0.4,0,0.6,0c4.7,0.3,8.3,4.5,8,9.2C-496.6,441.8-500.3,445.3-504.8,445.3C-504.8,445.3-504.8,445.3-504.8,445.3z"/>
				<path fill="#DBDCDC" d="M-504.8,430.6c0.1,0,0.3,0,0.5,0c3.4,0.2,5.9,3.2,5.6,6.5c-0.2,3.2-2.9,5.7-6.1,5.7c-0.1,0-0.3,0-0.5,0
					c-3.4-0.2-5.9-3.2-5.6-6.5C-510.7,433-508,430.6-504.8,430.6 M-504.8,425.6c-5.8,0-10.7,4.5-11.1,10.3
					c-0.4,6.1,4.2,11.4,10.3,11.9c0.3,0,0.5,0,0.8,0c5.8,0,10.6-4.5,11.1-10.3c0.2-3-0.7-5.8-2.7-8.1c-1.9-2.2-4.6-3.6-7.6-3.8
					C-504.3,425.6-504.6,425.6-504.8,425.6L-504.8,425.6z"/>
			</g>
			<g>
				<path fill="#9E9E9F" d="M-504.8,442.4c-0.2,0-0.4,0-0.6,0c-2.3-0.2-4.4-1.2-5.9-3c-1.5-1.7-2.2-4-2.1-6.3c0.3-4.5,4.1-8,8.6-8
					c0.2,0,0.4,0,0.6,0c4.7,0.3,8.3,4.5,8,9.2C-496.6,438.9-500.3,442.4-504.8,442.4C-504.8,442.4-504.8,442.4-504.8,442.4z"/>
				<path fill="#F7F7F7" d="M-504.8,427.7c0.1,0,0.3,0,0.5,0c3.4,0.2,5.9,3.2,5.6,6.5c-0.2,3.2-2.9,5.7-6.1,5.7c-0.1,0-0.3,0-0.5,0
					c-3.4-0.2-5.9-3.2-5.6-6.5C-510.7,430.2-508,427.7-504.8,427.7 M-504.8,422.7c-5.8,0-10.7,4.5-11.1,10.3
					c-0.4,6.1,4.2,11.4,10.3,11.9c0.3,0,0.5,0,0.8,0c5.8,0,10.6-4.5,11.1-10.3c0.2-3-0.7-5.8-2.7-8.1c-1.9-2.2-4.6-3.6-7.6-3.8
					C-504.3,422.7-504.6,422.7-504.8,422.7L-504.8,422.7z"/>
			</g>
		</g>
		<g id="XMLID_298_">
			<g>
				<circle fill="#8C6239" cx="-486.6" cy="395.7" r="2.6"/>
			</g>
			<g>
				<circle fill="#BB7434" cx="-486.6" cy="394.2" r="2.6"/>
			</g>
		</g>
		<g id="XMLID_291_">
			<g>
				<circle fill="#8C6239" cx="-499.7" cy="407.2" r="3.1"/>
			</g>
			<g>
				<circle fill="#BB7434" cx="-499.7" cy="405.8" r="3.1"/>
			</g>
		</g>
		<g id="XMLID_280_">
			<g>
				<circle fill="#8C6239" cx="-488.5" cy="421.2" r="3.7"/>
			</g>
			<g>
				<circle fill="#BB7434" cx="-488.5" cy="419.8" r="3.7"/>
			</g>
		</g>
		<g id="XMLID_268_">
			<g>
				<circle fill="#8C6239" cx="-504.8" cy="435.3" r="6.1"/>
			</g>
			<g>
				<circle fill="#BB7434" cx="-504.8" cy="433.8" r="6.1"/>
			</g>
		</g>
		<g id="XMLID_249_">
			<g>
				<path fill="#8C6239" d="M-424.3,648l-15.7-1.1c-1.5-0.1-2.6-1.4-2.5-2.8l0.9-12.3c0.4-5.9-4-11-9.9-11.5l-4.8-0.3
					c-1.3-0.1-2.4-1.2-2.5-2.5l-3.3-74.6c-0.1-2.7,2.2-4.9,4.9-4.7h0l2.9,0.2c7.7,0.6,14.1-5.2,14.3-12.8l1-39.4l0.1-5.4l0.4-16.4
					c0.1-2.1-1.7-4-4-4.2l-16.4-1.2c-2.2-0.2-4.1,1.4-4.2,3.6l-0.6,12.4c-0.1,2.2-2,3.8-4.3,3.6l-15.3-1.1c-2.3-0.2-4-2.1-3.9-4.2
					l0.3-5c0.1-1-0.6-1.9-1.6-2.1c0,0-0.1,0-0.1,0c-0.7-0.1-1.2-0.6-1.5-1.3c-1.4-3.4-4.6-6-8.5-6.2c-4.9-0.4-9.3,3-10.4,7.6
					c-0.2,0.7-0.7,1.3-1.4,1.5c0,0,0,0,0,0c-0.8,0.2-1.4,0.9-1.5,1.8l-0.2,1.9c-0.2,2.2-2.2,3.8-4.5,3.6l-15.3-1.1
					c-2.3-0.2-4-2.1-3.7-4.2l1.3-12.4c0.2-2.1-1.4-4-3.7-4.1l-16.4-1.2c-2.2-0.2-4.3,1.4-4.5,3.5l-2,16.3l-0.7,5.4l-4.7,39.1
					c-0.9,7.5,4.6,14.2,12.2,14.7l2.9,0.2l0,0c2.7,0.2,4.6,2.7,4.1,5.4l-14.1,73.3c-0.3,1.3-1.5,2.2-2.8,2.2l-4.8-0.3
					c-5.9-0.4-11,4-11.5,9.9l-0.9,12.3c-0.1,1.5-1.4,2.6-2.8,2.5l-15.7-1.1c-5.9-0.4-11,4-11.5,9.9l-1,13.3c-0.4,5.9,4,11,9.9,11.5
					l175.2,12.8c5.9,0.4,11-4,11.5-9.9l1-13.3C-414,653.5-418.4,648.4-424.3,648z M-491.1,575.7l-2.4,32.6c-0.2,2.5-2.3,4.3-4.8,4.1
					l-23-1.7c-2.5-0.2-4.3-2.3-4.1-4.8l2.4-32.6c0.6-8.8,8.3-15.4,17.1-14.8S-490.4,566.9-491.1,575.7z"/>
			</g>
			<g>
				<path fill="#BB7434" d="M-424.3,645.1L-440,644c-1.5-0.1-2.6-1.4-2.5-2.8l0.9-12.3c0.4-5.9-4-11-9.9-11.5l-4.8-0.3
					c-1.3-0.1-2.4-1.2-2.5-2.5L-462,540c-0.1-2.7,2.2-4.9,4.9-4.7h0l2.9,0.2c7.7,0.6,14.1-5.2,14.3-12.8l1-39.4l0.1-5.4l0.4-16.4
					c0.1-2.1-1.7-4-4-4.2l-16.4-1.2c-2.2-0.2-4.1,1.4-4.2,3.6l-0.6,12.4c-0.1,2.2-2,3.8-4.3,3.6l-15.3-1.1c-2.3-0.2-4-2.1-3.9-4.2
					l0.3-5c0.1-1-0.6-1.9-1.6-2.1c0,0-0.1,0-0.1,0c-0.7-0.1-1.2-0.6-1.5-1.3c-1.4-3.4-4.6-6-8.5-6.2c-4.9-0.4-9.3,3-10.4,7.6
					c-0.2,0.7-0.7,1.3-1.4,1.5c0,0,0,0,0,0c-0.8,0.2-1.4,0.9-1.5,1.8l-0.2,1.9c-0.2,2.2-2.2,3.8-4.5,3.6l-15.3-1.1
					c-2.3-0.2-4-2.1-3.7-4.2l1.3-12.4c0.2-2.1-1.4-4-3.7-4.1l-16.4-1.2c-2.2-0.2-4.3,1.4-4.5,3.5l-2,16.3l-0.7,5.4l-4.7,39.1
					c-0.9,7.5,4.6,14.2,12.2,14.7l2.9,0.2l0,0c2.7,0.2,4.6,2.7,4.1,5.4l-14.1,73.3c-0.3,1.3-1.5,2.2-2.8,2.2l-4.8-0.3
					c-5.9-0.4-11,4-11.5,9.9l-0.9,12.3c-0.1,1.5-1.4,2.6-2.8,2.5l-15.7-1.1c-5.9-0.4-11,4-11.5,9.9l-1,13.3c-0.4,5.9,4,11,9.9,11.5
					l175.2,12.8c5.9,0.4,11-4,11.5-9.9l1-13.3C-414,650.7-418.4,645.6-424.3,645.1z M-491.1,572.9l-2.4,32.6
					c-0.2,2.5-2.3,4.3-4.8,4.1l-23-1.7c-2.5-0.2-4.3-2.3-4.1-4.8l2.4-32.6c0.6-8.8,8.3-15.4,17.1-14.8S-490.4,564-491.1,572.9z"/>
			</g>
		</g>
		<g id="XMLID_241_">
			<g>
				<path fill="#8C6239" d="M-439.2,485.9l0.2-5.4l0.5-16.3c0.1-2.1-1.7-4-3.9-4.1l-16.3-1.2c-2.2-0.2-4.1,1.4-4.2,3.5l-0.6,12.3
					c-0.1,2.2-2,3.8-4.3,3.6l-15.2-1.2c-2.3-0.2-4-2.1-3.9-4.2l0.3-5c0.1-1-0.6-1.9-1.6-2.1c0,0-0.1,0-0.1,0
					c-0.7-0.1-1.2-0.6-1.5-1.3c-1.3-3.4-4.5-5.9-8.4-6.2c-4.9-0.4-9.3,2.9-10.4,7.6c-0.2,0.7-0.7,1.3-1.4,1.5c0,0,0,0,0,0
					c-0.8,0.2-1.4,0.9-1.5,1.8l-0.2,1.9c-0.2,2.2-2.2,3.8-4.5,3.6l-15.2-1.2c-2.3-0.2-3.9-2.1-3.7-4.2l1.3-12.3
					c0.2-2.1-1.4-4-3.7-4.1l-16.3-1.2c-2.2-0.2-4.3,1.4-4.5,3.5l-2,16.2l-0.7,5.3l-4.8,38.9c-0.1,1.6-0.1,4,0.8,6.6
					c2.5,6.9,9.3,9.5,10.5,9.9c14.5,3.3,31.6,6.1,51,7.4c18.5,1.2,35.2,0.7,49.5-0.5c1-0.1,8.4-1.2,12-7.5c1.4-2.4,1.8-4.8,1.8-6.4
					L-439.2,485.9z"/>
			</g>
			<g>
				<path fill="#CC7E4A" d="M-439.2,483.1l0.2-5.4l0.5-16.3c0.1-2.1-1.7-4-3.9-4.1l-16.3-1.2c-2.2-0.2-4.1,1.4-4.2,3.5l-0.6,12.3
					c-0.1,2.2-2,3.8-4.3,3.6l-15.2-1.2c-2.3-0.2-4-2.1-3.9-4.2l0.3-5c0.1-1-0.6-1.9-1.6-2.1c0,0-0.1,0-0.1,0
					c-0.7-0.1-1.2-0.6-1.5-1.3c-1.3-3.4-4.5-5.9-8.4-6.2c-4.9-0.4-9.3,2.9-10.4,7.6c-0.2,0.7-0.7,1.3-1.4,1.5c0,0,0,0,0,0
					c-0.8,0.2-1.4,0.9-1.5,1.8l-0.2,1.9c-0.2,2.2-2.2,3.8-4.5,3.6l-15.2-1.2c-2.3-0.2-3.9-2.1-3.7-4.2l1.3-12.3
					c0.2-2.1-1.4-4-3.7-4.1l-16.3-1.2c-2.2-0.2-4.3,1.4-4.5,3.5l-2,16.2l-0.7,5.3l-4.8,38.9c-0.1,1.6-0.1,4,0.8,6.6
					c2.5,6.9,9.3,9.5,10.5,9.9c14.5,3.3,31.6,6.1,51,7.4c18.5,1.2,35.2,0.7,49.5-0.5c1-0.1,8.4-1.2,12-7.5c1.4-2.4,1.8-4.8,1.8-6.4
					L-439.2,483.1z"/>
			</g>
		</g>
	</g>
</g>
</svg>
