<?xml version="1.0" encoding="utf-8"?>
<!-- Generator: Adobe Illustrator 19.0.0, SVG Export Plug-In . SVG Version: 6.00 Build 0)  -->
<svg version="1.2" baseProfile="tiny" id="圖層_1"
	 xmlns="http://www.w3.org/2000/svg" xmlns:xlink="http://www.w3.org/1999/xlink" x="0px" y="0px" viewBox="-732 310 453.5 462"
	 xml:space="preserve">
<g id="XMLID_166_">
	<g id="XMLID_340_">
		<g id="XMLID_341_">
			<g id="XMLID_348_">
				<g>
					<path fill="#8C6239" d="M-363.5,772H-647c-47,0-85-38.1-85-85V403.5c0-47,38.1-85,85-85h283.5c47,0,85,38.1,85,85V687
						C-278.5,734-316.5,772-363.5,772z"/>
				</g>
				<g>
					<path fill="#BB7434" d="M-363.5,763.5H-647c-47,0-85-38.1-85-85V395c0-47,38.1-85,85-85h283.5c47,0,85,38.1,85,85v283.5
						C-278.5,725.5-316.5,763.5-363.5,763.5z"/>
				</g>
			</g>
			<path id="XMLID_345_" fill="#623F1E" d="M-382.2,729.4h-246.1c-38.4,0-69.6-31.2-69.6-69.6V413.7c0-38.4,31.2-69.6,69.6-69.6
				h246.1c38.4,0,69.6,31.2,69.6,69.6v246.1C-312.6,698.3-343.7,729.4-382.2,729.4z"/>
		</g>
	</g>
	<g id="XMLID_167_">
		<g id="XMLID_252_">
			<g id="XMLID_315_">
				<g>
					<path fill="#DBDCDC" d="M-496.4,688.1c-0.5,0-1,0-1.5-0.1l-39.6-4.5c-6.6-0.7-11.4-6.1-10.9-12.3l14.5-180.4
						c-3.8-4.2-6.8-8.9-9-14l-0.8-0.1c-4.2-0.5-7.2-4.2-6.7-8.4l0.2-2.2c0.3-2.3,1.5-4.2,3.3-5.4c-0.3-3.5-0.2-7,0.2-10.6
						c3.2-28,26.8-49.2,55-49.2c2.1,0,4.2,0.1,6.3,0.4c30.3,3.4,52.2,30.9,48.8,61.3c-0.4,3.5-1.1,7-2.2,10.3c1.5,1.6,2.2,3.8,2,6
						l-0.2,2.2c-0.4,3.8-3.7,6.7-7.5,6.7l0,0c-0.3,0-0.6,0-0.9,0l-0.8-0.1c-3.3,4.5-7.3,8.4-11.9,11.6l-26.2,179
						C-485.3,684-490.3,688.1-496.4,688.1z"/>
					<path fill="#DBDCDC" d="M-491.8,404.6c1.9,0,3.9,0.1,5.9,0.3c28.5,3.2,48.9,28.9,45.7,57.4c-0.5,4.3-1.5,8.3-2.9,12.1
						c1.7,0.6,2.9,2.4,2.7,4.3l-0.2,2.2c-0.2,2.1-2,3.6-4.1,3.6c-0.2,0-0.3,0-0.5,0l-2.9-0.3c-3.6,5.3-8.1,9.8-13.5,13.3
						c0,0,0,0,0,0L-487.9,678c-0.6,3.9-4.2,6.6-8.4,6.6c-0.4,0-0.7,0-1.1-0.1l-39.6-4.5c-4.7-0.5-8.2-4.3-7.8-8.5l14.6-181.8
						c0,0,0,0,0,0c-4.4-4.6-7.9-10-10.1-16l-2.9-0.3c-2.2-0.3-3.9-2.3-3.6-4.5l0.2-2.2c0.2-1.9,1.7-3.4,3.6-3.6
						c-0.5-4-0.6-8.1-0.1-12.4C-540.3,424.1-517.8,404.6-491.8,404.6 M-491.8,397.6c-29.9,0-55.1,22.5-58.4,52.3
						c-0.4,3.1-0.5,6.3-0.3,9.4c-1.7,1.7-2.9,4-3.1,6.6l-0.2,2.2c-0.6,5.7,3.1,10.9,8.6,12.1c2,4.3,4.7,8.3,7.8,12l-14.4,178.9
						c-0.6,8,5.5,15.1,14,16l39.6,4.5c0.6,0.1,1.3,0.1,1.9,0.1c7.8,0,14.3-5.3,15.3-12.6l26-177.6c3.9-2.9,7.3-6.2,10.3-10
						c0,0,0.1,0,0.1,0c5.6,0,10.4-4.2,11-9.8l0.2-2.2c0.3-2.6-0.3-5.1-1.6-7.1c0.9-3,1.5-6.1,1.8-9.3c3.7-32.3-19.6-61.5-51.9-65.1
						C-487.3,397.7-489.6,397.6-491.8,397.6L-491.8,397.6z"/>
				</g>
				<g>
					<path fill="#DBDCDC" d="M-496.4,682.4c-0.5,0-1,0-1.5-0.1l-39.6-4.5c-6.6-0.7-11.4-6.1-10.9-12.3l14.5-180.4
						c-3.8-4.2-6.8-8.9-9-14l-0.8-0.1c-4.2-0.5-7.2-4.2-6.7-8.4l0.2-2.2c0.3-2.3,1.5-4.2,3.3-5.4c-0.3-3.5-0.2-7,0.2-10.6
						c3.2-28,26.8-49.2,55-49.2c2.1,0,4.2,0.1,6.3,0.4c30.3,3.4,52.2,30.9,48.8,61.3c-0.4,3.5-1.1,7-2.2,10.3c1.5,1.6,2.2,3.8,2,6
						l-0.2,2.2c-0.4,3.8-3.7,6.7-7.5,6.7l0,0c-0.3,0-0.6,0-0.9,0l-0.8-0.1c-3.3,4.5-7.3,8.4-11.9,11.6l-26.2,179
						C-485.3,678.4-490.3,682.4-496.4,682.4z"/>
					<path fill="#F7F7F7" d="M-491.8,398.9c1.9,0,3.9,0.1,5.9,0.3c28.5,3.2,48.9,28.9,45.7,57.4c-0.5,4.3-1.5,8.3-2.9,12.1
						c1.7,0.6,2.9,2.4,2.7,4.3l-0.2,2.2c-0.2,2.1-2,3.6-4.1,3.6c-0.2,0-0.3,0-0.5,0l-2.9-0.3c-3.6,5.3-8.1,9.8-13.5,13.3
						c0,0,0,0,0,0l-26.4,180.5c-0.6,3.9-4.2,6.6-8.4,6.6c-0.4,0-0.7,0-1.1-0.1l-39.6-4.5c-4.7-0.5-8.2-4.3-7.8-8.5l14.6-181.8
						c0,0,0,0,0,0c-4.4-4.6-7.9-10-10.1-16l-2.9-0.3c-2.2-0.3-3.9-2.3-3.6-4.5l0.2-2.2c0.2-1.9,1.7-3.4,3.6-3.6
						c-0.5-4-0.6-8.1-0.1-12.4C-540.3,418.5-517.8,398.9-491.8,398.9 M-491.8,391.9c-29.9,0-55.1,22.5-58.4,52.3
						c-0.4,3.1-0.5,6.3-0.3,9.4c-1.7,1.7-2.9,4-3.1,6.6l-0.2,2.2c-0.6,5.7,3.1,10.9,8.6,12.1c2,4.3,4.7,8.3,7.8,12l-14.4,178.9
						c-0.6,8,5.5,15.1,14,16l39.6,4.5c0.6,0.1,1.3,0.1,1.9,0.1c7.8,0,14.3-5.3,15.3-12.6l26-177.6c3.9-2.9,7.3-6.2,10.3-10
						c0,0,0.1,0,0.1,0c5.6,0,10.4-4.2,11-9.8l0.2-2.2c0.3-2.6-0.3-5.1-1.6-7.1c0.9-3,1.5-6.1,1.8-9.3c3.7-32.3-19.6-61.5-51.9-65.1
						C-487.3,392-489.6,391.9-491.8,391.9L-491.8,391.9z"/>
				</g>
			</g>
			<g id="XMLID_253_">
				<g id="XMLID_309_">
					<g>
						<path fill="#211F1F" d="M-497.5,681.7l-39.6-4.5c-4.7-0.5-8.2-4.3-7.8-8.5l14.6-181.8c0.3-3.5,4.2-6,8.6-5.5l53,6
							c4.4,0.5,7.7,3.8,7.2,7.3l-26.4,180.5C-488.6,679.3-492.8,682.2-497.5,681.7z"/>
					</g>
					<g>
						<path fill="#3E3A39" d="M-497.5,678.8l-39.6-4.5c-4.7-0.5-8.2-4.3-7.8-8.5l14.6-181.8c0.3-3.5,4.2-6,8.6-5.5l53,6
							c4.4,0.5,7.7,3.8,7.2,7.3l-26.4,180.5C-488.6,676.5-492.8,679.4-497.5,678.8z"/>
					</g>
				</g>
				<g id="XMLID_297_">
					<g>
						<path fill="#717071" d="M-504.6,565.3L-504.6,565.3c-4.9-0.6-8.4-5-7.9-9.9l2.5-22.1c0.6-4.9,5-8.4,9.9-7.9l0,0
							c4.9,0.6,8.4,5,7.9,9.9l-2.5,22.1C-495.3,562.3-499.7,565.8-504.6,565.3z"/>
					</g>
					<g>
						<path fill="#9E9E9F" d="M-504.6,564.4L-504.6,564.4c-4.9-0.6-8.4-5-7.9-9.9l2.5-22.1c0.6-4.9,5-8.4,9.9-7.9l0,0
							c4.9,0.6,8.4,5,7.9,9.9l-2.5,22.1C-495.3,561.5-499.7,565-504.6,564.4z"/>
					</g>
				</g>
				<g id="XMLID_290_">
					<g>
						<circle fill="#3E3A39" cx="-501.1" cy="534.3" r="6.4"/>
					</g>
					<g>
						<circle fill="#717071" cx="-501.1" cy="533.4" r="6.4"/>
					</g>
				</g>
				<g id="XMLID_279_">
					<g>
						<circle fill="#A44B48" cx="-499.1" cy="516.4" r="2.7"/>
					</g>
					<g>
						<circle fill="#D15C5A" cx="-499.1" cy="515.6" r="2.7"/>
					</g>
				</g>
				<g id="XMLID_266_">
					<g>
						<path fill="#3E3A39" d="M-440.2,459.4c-3.2,28.5-28.6,46.5-57.1,43.3c-28.5-3.2-49.2-26.5-46-55s28.9-48.9,57.4-45.7
							S-437,431-440.2,459.4z"/>
					</g>
					<g>
						<path fill="#717071" d="M-440.2,456.6c-3.2,28.5-28.6,46.5-57.1,43.3c-28.5-3.2-49.2-26.5-46-55c3.2-28.5,28.9-48.9,57.4-45.7
							C-457.4,402.5-437,428.1-440.2,456.6z"/>
					</g>
				</g>
				<g id="XMLID_254_">
					<g>
						<path fill="#9E9E9F" d="M-445.2,479.6l-98.2-11.1c-2.2-0.3-3.9-2.3-3.6-4.5l0.2-2.2c0.3-2.2,2.3-3.9,4.5-3.6l98.2,11.1
							c2.2,0.3,3.9,2.3,3.6,4.5l-0.2,2.2C-440.9,478.2-442.9,479.8-445.2,479.6z"/>
					</g>
					<g>
						<path fill="#DBDCDC" d="M-445.2,478.7l-98.2-11.1c-2.2-0.3-3.9-2.3-3.6-4.5l0.2-2.2c0.3-2.2,2.3-3.9,4.5-3.6l98.2,11.1
							c2.2,0.3,3.9,2.3,3.6,4.5l-0.2,2.2C-440.9,477.4-442.9,479-445.2,478.7z"/>
					</g>
				</g>
			</g>
		</g>
		<g id="XMLID_238_">
			<g>
				<path fill="#DBDCDC" d="M-604.6,657.7c-5.5,0-9.2-2.1-10.5-5.9c-1.2-3.7,0.7-10.8,11.2-14.3c1.7-0.5,3.3-0.9,5-1l-10.9-32.8
					c-0.9-2.6,0.1-5.4,2.3-7.1l16.6-11.8c0.4-0.3,0.9-0.5,1.4-0.5c0.3,0,0.5,0,0.8,0.1c0.8,0.2,1.3,0.8,1.6,1.6l5.4,16.4
					c1,2.9-0.1,6-2.5,7.7l-10.5,7.4l8.2,24.7c1.2,3.7-0.7,10.8-11.2,14.3C-599.7,657.3-602.3,657.7-604.6,657.7
					C-604.6,657.7-604.6,657.7-604.6,657.7z"/>
				<path fill="#DBDCDC" d="M-589.4,586.8l5.4,16.4c0.6,1.8-0.1,3.8-1.6,4.9l-12,8.5l8.8,26.5c1.7,5.3-5.5,9.8-9.6,11.1
					c-1.6,0.5-3.9,1-6.2,1c-3.5,0-7-1-8.1-4.2c-1.7-5.3,5.5-9.8,9.6-11.1c1.9-0.6,3.9-1,6-1c0.6,0,1.1,0,1.7,0.1l-11.9-36.1
					c-0.5-1.6,0.1-3.3,1.4-4.3L-589.4,586.8 M-589.4,581.8c-1,0-2,0.3-2.9,0.9l-16.6,11.8c0,0,0,0-0.1,0c-3.1,2.3-4.4,6.3-3.2,9.9
					l9.9,30c-0.8,0.2-1.6,0.4-2.5,0.7c-6.5,2.1-15.6,8.8-12.8,17.4c1.6,4.8,6.3,7.6,12.8,7.6c2.6,0,5.5-0.4,7.8-1.2
					c6.5-2.1,15.6-8.8,12.8-17.4l-7.6-23l8.9-6.4c3.4-2.4,4.8-6.6,3.5-10.6l-5.4-16.4c-0.5-1.5-1.7-2.7-3.2-3.2
					C-588.4,581.9-588.9,581.8-589.4,581.8L-589.4,581.8z"/>
			</g>
			<g>
				<path fill="#FFCD02" d="M-604.6,654.9c-5.5,0-9.2-2.1-10.5-5.9c-1.2-3.7,0.7-10.8,11.2-14.3c1.7-0.5,3.3-0.9,5-1l-10.9-32.8
					c-0.9-2.6,0.1-5.4,2.3-7.1l16.6-11.8c0.4-0.3,0.9-0.5,1.4-0.5c0.3,0,0.5,0,0.8,0.1c0.8,0.2,1.3,0.8,1.6,1.6l5.4,16.4
					c1,2.9-0.1,6-2.5,7.7l-10.5,7.4l8.2,24.7c1.2,3.7-0.7,10.8-11.2,14.3C-599.7,654.5-602.3,654.9-604.6,654.9
					C-604.6,654.9-604.6,654.9-604.6,654.9z"/>
				<path fill="#F7F7F7" d="M-589.4,583.9l5.4,16.4c0.6,1.8-0.1,3.8-1.6,4.9l-12,8.5l8.8,26.5c1.7,5.3-5.5,9.8-9.6,11.1
					c-1.6,0.5-3.9,1-6.2,1c-3.5,0-7-1-8.1-4.2c-1.7-5.3,5.5-9.8,9.6-11.1c1.9-0.6,3.9-1,6-1c0.6,0,1.1,0,1.7,0.1l-11.9-36.1
					c-0.5-1.6,0.1-3.3,1.4-4.3L-589.4,583.9 M-589.4,578.9c-1,0-2,0.3-2.9,0.9l-16.6,11.8c0,0,0,0-0.1,0c-3.1,2.3-4.4,6.3-3.2,9.9
					l9.9,30c-0.8,0.2-1.6,0.4-2.5,0.7c-6.5,2.1-15.6,8.8-12.8,17.4c1.6,4.8,6.3,7.6,12.8,7.6c2.6,0,5.5-0.4,7.8-1.2
					c6.5-2.1,15.6-8.8,12.8-17.4l-7.6-23l8.9-6.4c3.4-2.4,4.8-6.6,3.5-10.6l-5.4-16.4c-0.5-1.5-1.7-2.7-3.2-3.2
					C-588.4,579-588.9,578.9-589.4,578.9L-589.4,578.9z"/>
			</g>
		</g>
		<g id="XMLID_215_">
			<g>
				<path fill="#DBDCDC" d="M-409.9,568.5c-3.2,0-6.4-0.8-8.3-1.6c-10.2-4.2-11.6-11.5-10.1-15c1.4-3.3,4.7-5.2,9.5-5.2
					c3.2,0,6.4,0.8,8.3,1.6c1.6,0.7,3.1,1.5,4.5,2.4l13.2-32c1-2.4,3.3-3.9,5.9-3.9c0.2,0,0.3,0,0.5,0l20.3,1.9
					c0.8,0.1,1.5,0.5,1.9,1.2c0.4,0.7,0.5,1.5,0.2,2.2l-6.6,16c-1.1,2.6-3.6,4.2-6.3,4.2l0,0c-0.2,0-0.4,0-0.6,0l-12.8-1.2
					l-9.9,24.1C-401.8,566.7-405.2,568.5-409.9,568.5z"/>
				<path fill="#DBDCDC" d="M-387.1,517.4c0.1,0,0.2,0,0.3,0l20.3,1.9l-6.6,16c-0.7,1.6-2.3,2.7-4,2.7c-0.1,0-0.3,0-0.4,0l-14.6-1.3
					l-10.6,25.8c-1.1,2.7-4.1,3.6-7.1,3.6c-2.7,0-5.5-0.7-7.4-1.5c-4-1.6-10.9-6.7-8.8-11.8c1.1-2.7,4.1-3.6,7.1-3.6
					c2.7,0,5.5,0.7,7.4,1.5c2.4,1,4.6,2.4,6.4,4.3l14.5-35.2C-390,518.3-388.6,517.4-387.1,517.4 M-387.1,512.4
					c-3.6,0-6.8,2.1-8.2,5.4l-12.1,29.2c-0.7-0.4-1.5-0.8-2.3-1.1c-2.8-1.1-6.3-1.8-9.3-1.8c-5.7,0-10,2.5-11.8,6.7
					c-1,2.4-1.9,7.2,3.1,12.5c2.6,2.8,6,4.8,8.4,5.8c2.8,1.1,6.3,1.8,9.3,1.8c5.7,0,10-2.5,11.8-6.7l9.2-22.4l10.9,1
					c0.3,0,0.6,0,0.9,0c3.8,0,7.2-2.3,8.7-5.8l6.6-16c0.6-1.5,0.5-3.1-0.3-4.5c-0.8-1.4-2.2-2.2-3.8-2.4l-20.3-1.9c0,0-0.1,0-0.1,0
					C-386.6,512.4-386.8,512.4-387.1,512.4L-387.1,512.4z"/>
			</g>
			<g>
				<path fill="#FFA302" d="M-409.9,565.7c-3.2,0-6.4-0.8-8.3-1.6c-10.2-4.2-11.6-11.5-10.1-15c1.4-3.3,4.7-5.2,9.5-5.2
					c3.2,0,6.4,0.8,8.3,1.6c1.6,0.7,3.1,1.5,4.5,2.4l13.2-32c1-2.4,3.3-3.9,5.9-3.9c0.2,0,0.3,0,0.5,0l20.3,1.9
					c0.8,0.1,1.5,0.5,1.9,1.2c0.4,0.7,0.5,1.5,0.2,2.2l-6.6,16c-1.1,2.6-3.6,4.2-6.3,4.2l0,0c-0.2,0-0.4,0-0.6,0l-12.8-1.2
					l-9.9,24.1C-401.8,563.9-405.2,565.7-409.9,565.7z"/>
				<path fill="#F7F7F7" d="M-387.1,514.6c0.1,0,0.2,0,0.3,0l20.3,1.9l-6.6,16c-0.7,1.6-2.3,2.7-4,2.7c-0.1,0-0.3,0-0.4,0l-14.6-1.3
					l-10.6,25.8c-1.1,2.7-4.1,3.6-7.1,3.6c-2.7,0-5.5-0.7-7.4-1.5c-4-1.6-10.9-6.7-8.8-11.8c1.1-2.7,4.1-3.6,7.1-3.6
					c2.7,0,5.5,0.7,7.4,1.5c2.4,1,4.6,2.4,6.4,4.3l14.5-35.2C-390,515.5-388.6,514.6-387.1,514.6 M-387.1,509.6
					c-3.6,0-6.8,2.1-8.2,5.4l-12.1,29.2c-0.7-0.4-1.5-0.8-2.3-1.1c-2.8-1.1-6.3-1.8-9.3-1.8c-5.7,0-10,2.5-11.8,6.7
					c-1,2.4-1.9,7.2,3.1,12.5c2.6,2.8,6,4.8,8.4,5.8c2.8,1.1,6.3,1.8,9.3,1.8c5.7,0,10-2.5,11.8-6.7l9.2-22.4l10.9,1
					c0.3,0,0.6,0,0.9,0c3.8,0,7.2-2.3,8.7-5.8l6.6-16c0.6-1.5,0.5-3.1-0.3-4.5c-0.8-1.4-2.2-2.2-3.8-2.4l-20.3-1.9c0,0-0.1,0-0.1,0
					C-386.6,509.6-386.8,509.6-387.1,509.6L-387.1,509.6z"/>
			</g>
		</g>
		<g id="XMLID_204_">
			<g>
				<path fill="#FFCD02" d="M-589.4,585.4l-16.6,11.8c-1.3,1-1.9,2.7-1.4,4.3l11.9,36.1c-2.6-0.3-5.2,0.1-7.7,0.9
					c-4.1,1.3-11.3,5.9-9.6,11.1c1.7,5.3,10.3,4.6,14.3,3.2c4.1-1.3,11.3-5.9,9.6-11.1l-8.8-26.5l12-8.5c1.6-1.1,2.2-3.1,1.6-4.9
					L-589.4,585.4z"/>
			</g>
			<g>
				<path fill="#FFCD02" d="M-589.4,583.9l-16.6,11.8c-1.3,1-1.9,2.7-1.4,4.3l11.9,36.1c-2.6-0.3-5.2,0.1-7.7,0.9
					c-4.1,1.3-11.3,5.9-9.6,11.1s10.3,4.6,14.3,3.2c4.1-1.3,11.3-5.9,9.6-11.1l-8.8-26.5l12-8.5c1.6-1.1,2.2-3.1,1.6-4.9
					L-589.4,583.9z"/>
			</g>
		</g>
		<g id="XMLID_186_">
			<g>
				<path fill="#DBDCDC" d="M-610.9,474.2c-4.5,0-6.7-2.1-7.8-3.9c-2-3.3-1.7-10.7,7.8-16.4c1.5-0.9,3.1-1.6,4.6-2.1l-17.8-29.7
					c-1.4-2.3-1.1-5.3,0.7-7.4l13.6-15.2c0.5-0.5,1.2-0.8,1.9-0.8c0.1,0,0.2,0,0.2,0c0.8,0.1,1.5,0.5,1.9,1.2l8.9,14.8
					c1.6,2.6,1.2,5.9-0.8,8.1l-8.6,9.5l13.4,22.3c2,3.3,1.7,10.7-7.8,16.4C-602.9,472.5-607,474.2-610.9,474.2
					C-610.9,474.2-610.9,474.2-610.9,474.2z"/>
				<path fill="#DBDCDC" d="M-607.9,401.2l8.9,14.8c1,1.6,0.8,3.7-0.5,5.2l-9.8,10.9l14.3,23.9c2.8,4.8-3.2,10.7-6.9,12.9
					c-2.1,1.3-5.8,2.7-9.1,2.7c-2.3,0-4.4-0.7-5.6-2.7c-2.8-4.8,3.2-10.7,6.9-12.9c2.2-1.3,4.7-2.3,7.3-2.6l-19.5-32.6
					c-0.8-1.4-0.7-3.2,0.4-4.5L-607.9,401.2 M-607.9,396.2c-1.4,0-2.8,0.6-3.7,1.7l-13.6,15.1c0,0,0,0-0.1,0.1
					c-2.5,2.9-2.9,7.1-1,10.3l16.3,27.1c-0.8,0.4-1.5,0.8-2.3,1.2c-5.8,3.5-13.3,12-8.6,19.8c2,3.3,5.5,5.1,9.9,5.1
					c4.4,0,8.9-1.8,11.6-3.4c2.2-1.3,5.3-3.8,7.5-7c4.1-6,2.5-10.6,1.2-12.8l-12.4-20.8l7.3-8.2c2.8-3.1,3.2-7.5,1.1-11.1l-8.9-14.8
					c-0.8-1.4-2.2-2.3-3.8-2.4C-607.5,396.2-607.7,396.2-607.9,396.2L-607.9,396.2z"/>
			</g>
			<g>
				<path fill="#FFCD02" d="M-610.9,471.3c-4.5,0-6.7-2.1-7.8-3.9c-2-3.3-1.7-10.7,7.8-16.4c1.5-0.9,3.1-1.6,4.6-2.1l-17.8-29.7
					c-1.4-2.3-1.1-5.3,0.7-7.4l13.6-15.2c0.5-0.5,1.2-0.8,1.9-0.8c0.1,0,0.2,0,0.2,0c0.8,0.1,1.5,0.5,1.9,1.2l8.9,14.8
					c1.6,2.6,1.2,5.9-0.8,8.1l-8.6,9.5l13.4,22.3c2,3.3,1.7,10.7-7.8,16.4C-602.9,469.7-607,471.3-610.9,471.3
					C-610.9,471.3-610.9,471.3-610.9,471.3z"/>
				<path fill="#F7F7F7" d="M-607.9,398.4l8.9,14.8c1,1.6,0.8,3.7-0.5,5.2l-9.8,10.9l14.3,23.9c2.8,4.8-3.2,10.7-6.9,12.9
					c-2.1,1.3-5.8,2.7-9.1,2.7c-2.3,0-4.4-0.7-5.6-2.7c-2.8-4.8,3.2-10.7,6.9-12.9c2.2-1.3,4.7-2.3,7.3-2.6l-19.5-32.6
					c-0.8-1.4-0.7-3.2,0.4-4.5L-607.9,398.4 M-607.9,393.4c-1.4,0-2.8,0.6-3.7,1.7l-13.6,15.1c0,0,0,0-0.1,0.1
					c-2.5,2.9-2.9,7.1-1,10.3l16.3,27.1c-0.8,0.4-1.5,0.8-2.3,1.2c-5.8,3.5-13.3,12-8.6,19.8c2,3.3,5.5,5.1,9.9,5.1
					c4.4,0,8.9-1.8,11.6-3.4c2.2-1.3,5.3-3.8,7.5-7c4.1-6,2.5-10.6,1.2-12.8l-12.4-20.8l7.3-8.2c2.8-3.1,3.2-7.5,1.1-11.1l-8.9-14.8
					c-0.8-1.4-2.2-2.3-3.8-2.4C-607.5,393.4-607.7,393.4-607.9,393.4L-607.9,393.4z"/>
			</g>
		</g>
		<g id="XMLID_180_">
			<g>
				<path fill="#A44B48" d="M-607.9,399.8l-13.6,15.1c-1.1,1.2-1.3,3.1-0.4,4.5l19.5,32.6c-2.6,0.3-5,1.2-7.3,2.6
					c-3.7,2.2-9.8,8.2-6.9,12.9c2.9,4.8,11,2.2,14.7,0c3.7-2.2,9.8-8.2,6.9-12.9l-14.3-23.9l9.8-10.9c1.3-1.4,1.5-3.5,0.5-5.2
					L-607.9,399.8z"/>
			</g>
			<g>
				<path fill="#D15C5A" d="M-607.9,398.4l-13.6,15.1c-1.1,1.2-1.3,3.1-0.4,4.5l19.5,32.6c-2.6,0.3-5,1.2-7.3,2.6
					c-3.7,2.2-9.8,8.2-6.9,12.9c2.9,4.8,11,2.2,14.7,0c3.7-2.2,9.8-8.2,6.9-12.9l-14.3-23.9l9.8-10.9c1.3-1.4,1.5-3.5,0.5-5.2
					L-607.9,398.4z"/>
			</g>
		</g>
		<g id="XMLID_173_">
			<g>
				<path fill="#E89300" d="M-366.5,517.9l-20.3-1.9c-1.6-0.1-3.2,0.8-3.9,2.3l-14.5,35.2c-1.8-1.9-4-3.3-6.4-4.3
					c-4-1.6-12.4-2.9-14.5,2.2c-2.1,5.1,4.8,10.1,8.8,11.8c4,1.6,12.4,2.9,14.5-2.2l10.6-25.8l14.6,1.3c1.9,0.2,3.7-0.9,4.4-2.7
					L-366.5,517.9z"/>
			</g>
			<g>
				<path fill="#FFA302" d="M-366.5,516.5l-20.3-1.9c-1.6-0.1-3.2,0.8-3.9,2.3l-14.5,35.2c-1.8-1.9-4-3.3-6.4-4.3
					c-4-1.6-12.4-2.9-14.5,2.2c-2.1,5.1,4.8,10.1,8.8,11.8c4,1.6,12.4,2.9,14.5-2.2l10.6-25.8l14.6,1.3c1.9,0.2,3.7-0.9,4.4-2.7
					L-366.5,516.5z"/>
			</g>
		</g>
	</g>
</g>
</svg>
