<?xml version="1.0" encoding="utf-8"?>
<!-- Generator: Adobe Illustrator 19.0.0, SVG Export Plug-In . SVG Version: 6.00 Build 0)  -->
<svg version="1.2" baseProfile="tiny" id="圖層_1"
	 xmlns="http://www.w3.org/2000/svg" xmlns:xlink="http://www.w3.org/1999/xlink" x="0px" y="0px" viewBox="-732 310 453.5 462"
	 xml:space="preserve">
<g id="XMLID_1_">
	<g id="XMLID_239_">
		<g id="XMLID_240_">
			<g id="XMLID_242_">
				<g>
					<path fill="#8C6239" d="M-363.5,772H-647c-47,0-85-38.1-85-85V403.5c0-47,38.1-85,85-85h283.5c47,0,85,38.1,85,85V687
						C-278.5,734-316.5,772-363.5,772z"/>
				</g>
				<g>
					<path fill="#BB7434" d="M-363.5,763.5H-647c-47,0-85-38.1-85-85V395c0-47,38.1-85,85-85h283.5c47,0,85,38.1,85,85v283.5
						C-278.5,725.5-316.5,763.5-363.5,763.5z"/>
				</g>
			</g>
			<path id="XMLID_241_" fill="#623F1E" d="M-382.2,729.4h-246.1c-38.4,0-69.6-31.2-69.6-69.6V413.7c0-38.4,31.2-69.6,69.6-69.6
				h246.1c38.4,0,69.6,31.2,69.6,69.6v246.1C-312.6,698.3-343.7,729.4-382.2,729.4z"/>
		</g>
	</g>
	<g id="XMLID_5_">
		<g id="XMLID_226_">
			<g>
				<path fill="#DBDCDC" d="M-510,686.1c-41.2,0-78.3-16.4-104.7-46.1c-26.1-29.4-38.3-69.2-33.5-109.2c4.3-36.1,22.2-69.5,50.2-94
					c27.7-24.1,62.6-37.4,98.2-37.4c35.3,0,69,13.1,94.9,36.8c26.2,24,41.9,56.8,44.2,92.3c2.6,39.6-11.6,79.4-39,109.2
					c-27.9,30.4-66.1,47.5-107.4,48.3C-508.1,686.1-509.1,686.1-510,686.1z"/>
				<path fill="#DBDCDC" d="M-499.8,402.9c70.6,0,130.9,53.7,135.6,125.8c5.2,79.8-58.2,152.2-143,153.8c-1,0-1.9,0-2.9,0
					c-84.3,0-144.4-70.8-134.7-151.4C-635.9,457.6-571.1,402.9-499.8,402.9 M-499.8,395.9c-36.5,0-72.2,13.6-100.5,38.2
					c-28.7,25-47,59.2-51.4,96.2c-2.5,20.9-0.6,41.4,5.5,61c6,19,15.7,36.2,28.8,51c13.1,14.7,28.8,26.3,46.8,34.5
					c18.8,8.5,39.1,12.8,60.5,12.8c1,0,2,0,3,0c21.5-0.4,42.2-5.1,61.4-14c18.4-8.5,34.7-20.4,48.5-35.4
					c13.8-15,24.3-32.2,31.2-51.2c7.1-19.6,10.1-39.9,8.7-60.6c-2.4-36.4-18.5-70.1-45.3-94.7C-429,409.3-463.6,395.9-499.8,395.9
					L-499.8,395.9z"/>
			</g>
			<g>
				<path fill="#3E3A39" d="M-510,680.4c-41.2,0-78.3-16.4-104.7-46.1c-26.1-29.4-38.3-69.2-33.5-109.2c4.3-36.1,22.2-69.5,50.2-94
					c27.7-24.1,62.6-37.4,98.2-37.4c35.3,0,69,13.1,94.9,36.8c26.2,24,41.9,56.8,44.2,92.3c2.6,39.6-11.6,79.4-39,109.2
					c-27.9,30.4-66.1,47.5-107.4,48.3C-508.1,680.4-509.1,680.4-510,680.4z"/>
				<path fill="#F7F7F7" d="M-499.8,397.3c70.6,0,130.9,53.7,135.6,125.8c5.2,79.8-58.2,152.2-143,153.8c-1,0-1.9,0-2.9,0
					c-84.3,0-144.4-70.8-134.7-151.4C-635.9,451.9-571.1,397.3-499.8,397.3 M-499.8,390.3c-36.5,0-72.2,13.6-100.5,38.2
					c-28.7,25-47,59.2-51.4,96.2c-2.5,20.9-0.6,41.4,5.5,61c6,19,15.7,36.2,28.8,51c13.1,14.7,28.8,26.3,46.8,34.5
					c18.8,8.5,39.1,12.8,60.5,12.8c1,0,2,0,3,0c21.5-0.4,42.2-5.1,61.4-14c18.4-8.5,34.7-20.4,48.5-35.4
					c13.8-15,24.3-32.2,31.2-51.2c7.1-19.6,10.1-39.9,8.7-60.6c-2.4-36.4-18.5-70.1-45.3-94.7C-429,403.6-463.6,390.3-499.8,390.3
					L-499.8,390.3z"/>
			</g>
		</g>
		<g id="XMLID_220_">
			<g>
				<path fill="#DBDCDC" d="M-375.6,526c4.2,72.9-54,138.4-131.2,139.8c-77.9,1.4-134.4-63.3-126.1-137.6
					c7.6-67.7,67-118.3,132.8-118.4C-434.8,409.8-379.5,459.5-375.6,526z"/>
			</g>
			<g>
				<path fill="#FFFFFF" d="M-375.6,523.2c4.2,72.9-54,138.4-131.2,139.8c-77.9,1.4-134.4-63.3-126.1-137.6
					c7.6-67.7,67-118.3,132.8-118.4C-434.8,407-379.5,456.7-375.6,523.2z"/>
			</g>
		</g>
		<g id="XMLID_211_">
			<g>
				<path fill="#1E7F93" d="M-600.2,583.6c-0.7,0.2-1.3,0.1-1.9-0.3c-0.6-0.4-0.9-0.9-1-1.6l-0.2-1.2c-0.1-0.7,0-1.4,0.4-2
					c0.4-0.6,0.9-1,1.6-1.2l3.9-1.1c0.2-0.1,0.3-0.2,0.3-0.4l-3.2-17.3c0-0.2-0.2-0.3-0.4-0.2l-3.1,0.8c-0.6,0.2-1.2,0.1-1.8-0.2
					c-0.5-0.3-0.8-0.8-1-1.4c-0.1-0.7,0-1.3,0.3-1.9c0.3-0.6,0.8-1.1,1.4-1.4c1.1-0.6,2.2-1.3,3.1-2.1c1.5-1.2,2.9-2,4.2-2.3
					l0.6-0.2c0.6-0.2,1.2-0.1,1.8,0.3c0.6,0.3,0.9,0.8,1,1.5l4.3,22.5c0,0.2,0.2,0.3,0.3,0.3l2.9-0.8c0.7-0.2,1.3-0.1,1.8,0.2
					c0.6,0.3,0.9,0.9,1,1.6l0.2,1.2c0.1,0.7,0,1.3-0.3,1.9c-0.4,0.6-0.9,1-1.6,1.2L-600.2,583.6z"/>
			</g>
			<g>
				<path fill="#17A2C7" d="M-600.2,582.2c-0.7,0.2-1.3,0.1-1.9-0.3c-0.6-0.4-0.9-0.9-1-1.6l-0.2-1.2c-0.1-0.7,0-1.4,0.4-2
					c0.4-0.6,0.9-1,1.6-1.2l3.9-1.1c0.2-0.1,0.3-0.2,0.3-0.4l-3.2-17.3c0-0.2-0.2-0.3-0.4-0.2l-3.1,0.8c-0.6,0.2-1.2,0.1-1.8-0.2
					c-0.5-0.3-0.8-0.8-1-1.4c-0.1-0.7,0-1.3,0.3-1.9c0.3-0.6,0.8-1.1,1.4-1.4c1.1-0.6,2.2-1.3,3.1-2.1c1.5-1.2,2.9-2,4.2-2.3
					l0.6-0.2c0.6-0.2,1.2-0.1,1.8,0.3c0.6,0.3,0.9,0.8,1,1.5l4.3,22.5c0,0.2,0.2,0.3,0.3,0.3l2.9-0.8c0.7-0.2,1.3-0.1,1.8,0.2
					c0.6,0.3,0.9,0.9,1,1.6l0.2,1.2c0.1,0.7,0,1.3-0.3,1.9c-0.4,0.6-0.9,1-1.6,1.2L-600.2,582.2z"/>
			</g>
		</g>
		<g id="XMLID_202_">
			<g>
				<path fill="#E89300" d="M-508.4,482.7c-0.5,0.1-1,0.1-1.4-0.2c-0.5-0.2-0.8-0.6-0.9-1.1c-0.3-1.2-0.2-2.3,0.5-3.3
					c2.4-3.8,4.2-6.9,5.3-9.4c1.1-2.5,1.4-4.5,0.9-6.1c-0.3-1.1-0.9-1.9-1.7-2.3c-0.8-0.4-1.7-0.5-2.8-0.2c-1,0.3-1.9,0.9-2.7,1.9
					c-0.4,0.5-0.8,0.8-1.4,1c-0.5,0.2-1.1,0.1-1.6-0.2l-0.7-0.3c-0.5-0.3-0.9-0.6-1-1.2c-0.1-0.5-0.1-1,0.3-1.5
					c0.8-1.2,1.8-2.1,2.8-2.8c1-0.7,2.3-1.3,3.8-1.7c2.6-0.7,4.9-0.6,6.9,0.4c2,1,3.4,2.6,4.1,5c1,3.5-0.3,8.5-4.1,15
					c0,0.1,0,0.1,0,0.1c0,0,0.1,0,0.1,0c1.6-0.7,3-1.2,4-1.5l2.9-0.8c0.6-0.2,1.1-0.1,1.7,0.2c0.5,0.3,0.9,0.7,1,1.2l0.4,1.2
					c0.2,0.5,0.1,1.1-0.2,1.6c-0.3,0.5-0.7,0.8-1.3,1L-508.4,482.7z"/>
			</g>
			<g>
				<path fill="#FFA302" d="M-508.4,481.3c-0.5,0.1-1,0.1-1.4-0.2c-0.5-0.2-0.8-0.6-0.9-1.1c-0.3-1.2-0.2-2.3,0.5-3.3
					c2.4-3.8,4.2-6.9,5.3-9.4c1.1-2.5,1.4-4.5,0.9-6.1c-0.3-1.1-0.9-1.9-1.7-2.3c-0.8-0.4-1.7-0.5-2.8-0.2c-1,0.3-1.9,0.9-2.7,1.9
					c-0.4,0.5-0.8,0.8-1.4,1c-0.5,0.2-1.1,0.1-1.6-0.2l-0.7-0.3c-0.5-0.3-0.9-0.6-1-1.2c-0.1-0.5-0.1-1,0.3-1.5
					c0.8-1.2,1.8-2.1,2.8-2.8c1-0.7,2.3-1.3,3.8-1.7c2.6-0.7,4.9-0.6,6.9,0.4c2,1,3.4,2.6,4.1,5c1,3.5-0.3,8.5-4.1,15
					c0,0.1,0,0.1,0,0.1c0,0,0.1,0,0.1,0c1.6-0.7,3-1.2,4-1.5l2.9-0.8c0.6-0.2,1.1-0.1,1.7,0.2c0.5,0.3,0.9,0.7,1,1.2l0.4,1.2
					c0.2,0.5,0.1,1.1-0.2,1.6c-0.3,0.5-0.7,0.8-1.3,1L-508.4,481.3z"/>
			</g>
		</g>
		<g id="XMLID_193_">
			<g>
				<path fill="#1E7F93" d="M-547.4,468.1c-3.2,0.9-6.1,0.9-8.5,0c-0.6-0.2-0.9-0.6-1.1-1.2c0-0.1-0.1-0.1-0.1-0.2
					c-0.1-0.5-0.1-1,0.2-1.6l0.4-0.8c0.2-0.5,0.6-0.9,1.2-1.1c0.1,0,0.2-0.1,0.3-0.1c0.5-0.1,0.9-0.1,1.4,0c1.6,0.4,3,0.5,4.4,0.1
					c1.3-0.4,2.3-0.9,2.9-1.6c0.6-0.7,0.8-1.5,0.6-2.5c-0.3-1-0.8-1.7-1.7-2.1c-0.8-0.4-2.2-0.3-4.1,0.1c-0.6,0.1-1.1,0-1.7-0.2
					c-0.5-0.3-0.9-0.7-1-1.2l-0.1-0.3c-0.1-0.5,0-1,0.3-1.5c0.3-0.5,0.8-0.9,1.3-1.1c1.4-0.6,2.3-1.2,2.8-1.9
					c0.5-0.7,0.6-1.5,0.4-2.4c-0.2-0.9-0.7-1.4-1.3-1.7c-0.6-0.3-1.5-0.3-2.5,0c-1.1,0.3-2.1,0.9-3,1.8c-0.3,0.4-0.8,0.6-1.2,0.7
					c-0.1,0-0.2,0.1-0.3,0.1c-0.6,0.1-1.1,0-1.6-0.3l-0.8-0.5c-0.4-0.3-0.7-0.6-0.8-1.1c0-0.1,0-0.1-0.1-0.2c-0.1-0.5,0.1-1,0.5-1.4
					c1.8-1.9,3.9-3.1,6.3-3.8c2.9-0.8,5.3-0.8,7.3-0.1c2,0.7,3.3,2.2,3.9,4.4c0.7,2.5-0.3,4.8-2.9,6.7c0,0-0.1,0.1,0,0.1
					c0,0.1,0,0.1,0.1,0.1c1.7,0,3.2,0.4,4.4,1.1c1.2,0.8,2,1.9,2.4,3.5c0.4,1.5,0.3,3-0.3,4.4c-0.6,1.4-1.6,2.6-3,3.6
					C-543.9,466.8-545.6,467.5-547.4,468.1z"/>
			</g>
			<g>
				<path fill="#17A2C7" d="M-547.4,466.7c-3.2,0.9-6.1,0.9-8.5,0c-0.6-0.2-0.9-0.6-1.1-1.2c0-0.1-0.1-0.1-0.1-0.2
					c-0.1-0.5-0.1-1,0.2-1.6l0.4-0.8c0.2-0.5,0.6-0.9,1.2-1.1c0.1,0,0.2-0.1,0.3-0.1c0.5-0.1,0.9-0.1,1.4,0c1.6,0.4,3,0.5,4.4,0.1
					c1.3-0.4,2.3-0.9,2.9-1.6c0.6-0.7,0.8-1.5,0.6-2.5c-0.3-1-0.8-1.7-1.7-2.1c-0.8-0.4-2.2-0.3-4.1,0.1c-0.6,0.1-1.1,0-1.7-0.2
					c-0.5-0.3-0.9-0.7-1-1.2l-0.1-0.3c-0.1-0.5,0-1,0.3-1.5c0.3-0.5,0.8-0.9,1.3-1.1c1.4-0.6,2.3-1.2,2.8-1.9
					c0.5-0.7,0.6-1.5,0.4-2.4c-0.2-0.9-0.7-1.4-1.3-1.7c-0.6-0.3-1.5-0.3-2.5,0c-1.1,0.3-2.1,0.9-3,1.8c-0.3,0.4-0.8,0.6-1.2,0.7
					c-0.1,0-0.2,0.1-0.3,0.1c-0.6,0.1-1.1,0-1.6-0.3l-0.8-0.5c-0.4-0.3-0.7-0.6-0.8-1.1c0-0.1,0-0.1-0.1-0.2c-0.1-0.5,0.1-1,0.5-1.4
					c1.8-1.9,3.9-3.1,6.3-3.8c2.9-0.8,5.3-0.8,7.3-0.1c2,0.7,3.3,2.2,3.9,4.4c0.7,2.5-0.3,4.8-2.9,6.7c0,0-0.1,0.1,0,0.1
					c0,0.1,0,0.1,0.1,0.1c1.7,0,3.2,0.4,4.4,1.1c1.2,0.8,2,1.9,2.4,3.5c0.4,1.5,0.3,3-0.3,4.4c-0.6,1.4-1.6,2.6-3,3.6
					C-543.9,465.4-545.6,466.1-547.4,466.7z"/>
			</g>
		</g>
		<g id="XMLID_33_">
			<g>
				<path fill="#1E7F93" d="M-455.3,510.9c0.6-0.2,1.1-0.1,1.7,0.2c0.5,0.3,0.9,0.7,1.1,1.3l0.2,0.7c0.2,0.6,0.1,1.1-0.2,1.6
					c-0.3,0.5-0.7,0.9-1.3,1l-0.6,0.2c-0.2,0.1-0.3,0.2-0.2,0.3l1.4,4.4c0.2,0.6,0.1,1.1-0.2,1.6c-0.3,0.5-0.7,0.9-1.3,1l-1.9,0.5
					c-0.6,0.2-1.1,0.1-1.7-0.2c-0.5-0.3-0.9-0.7-1.1-1.3l-1.3-4.4c-0.1-0.2-0.2-0.2-0.3-0.2l-9.1,2.4c-0.6,0.2-1.2,0.1-1.7-0.2
					c-0.5-0.3-0.9-0.7-1-1.3l-0.1-0.3c-0.4-1.4-0.4-2.8-0.1-4.1l3.7-13.8c0.2-0.6,0.5-1.2,0.9-1.6c0.5-0.5,1-0.8,1.7-0.9l3.8-1
					c0.6-0.1,1.1-0.1,1.7,0.2c0.5,0.3,0.9,0.7,1.1,1.3l3.9,12.6c0.1,0.2,0.2,0.2,0.4,0.2L-455.3,510.9z M-467.5,514
					c0,0.1,0,0.1,0.1,0.1c0,0,0.1,0,0.1,0l4.7-1.3c0.2,0,0.2-0.1,0.2-0.3l-1.1-3.6c0-0.1-0.5-2.1-1.5-5.8c0,0,0-0.1-0.1,0
					s-0.1,0-0.1,0.1c-0.3,1.9-0.5,3.6-0.8,5L-467.5,514z"/>
			</g>
			<g>
				<path fill="#17A2C7" d="M-455.3,509.5c0.6-0.2,1.1-0.1,1.7,0.2c0.5,0.3,0.9,0.7,1.1,1.3l0.2,0.7c0.2,0.6,0.1,1.1-0.2,1.6
					c-0.3,0.5-0.7,0.9-1.3,1l-0.6,0.2c-0.2,0.1-0.3,0.2-0.2,0.3l1.4,4.4c0.2,0.6,0.1,1.1-0.2,1.6c-0.3,0.5-0.7,0.9-1.3,1l-1.9,0.5
					c-0.6,0.2-1.1,0.1-1.7-0.2c-0.5-0.3-0.9-0.7-1.1-1.3l-1.3-4.4c-0.1-0.2-0.2-0.2-0.3-0.2l-9.1,2.4c-0.6,0.2-1.2,0.1-1.7-0.2
					c-0.5-0.3-0.9-0.7-1-1.3l-0.1-0.3c-0.4-1.4-0.4-2.8-0.1-4.1l3.7-13.8c0.2-0.6,0.5-1.2,0.9-1.6c0.5-0.5,1-0.8,1.7-0.9l3.8-1
					c0.6-0.1,1.1-0.1,1.7,0.2c0.5,0.3,0.9,0.7,1.1,1.3l3.9,12.6c0.1,0.2,0.2,0.2,0.4,0.2L-455.3,509.5z M-467.5,512.5
					c0,0.1,0,0.1,0.1,0.1c0,0,0.1,0,0.1,0l4.7-1.3c0.2,0,0.2-0.1,0.2-0.3l-1.1-3.6c0-0.1-0.5-2.1-1.5-5.8c0,0,0-0.1-0.1-0.1
					s-0.1,0-0.1,0.1c-0.3,1.9-0.5,3.6-0.8,5L-467.5,512.5z"/>
			</g>
		</g>
		<g id="XMLID_172_">
			<g>
				<path fill="#E89300" d="M-605.6,525.6c-3.4,0.4-6.4,0-8.9-1.5c-0.6-0.3-0.9-0.8-1-1.4c0-0.1,0-0.2,0-0.3c0-0.5,0.1-1.1,0.5-1.5
					l0.5-0.8c0.3-0.5,0.8-0.9,1.4-1c0.1,0,0.2,0,0.3,0c0.5-0.1,1,0,1.4,0.2c1.5,0.7,2.9,1,4.4,0.8c1.5-0.2,2.7-0.7,3.5-1.6
					c0.8-0.9,1.2-2.1,1.1-3.6c0-1.4-0.5-2.5-1.3-3.2c-0.8-0.7-1.9-0.9-3.3-0.8c-1,0.1-1.8,0.4-2.6,0.9c-0.5,0.3-1.1,0.5-1.6,0.6
					c-0.6,0.1-1.1,0-1.6-0.3c-1-0.5-1.5-1.3-1.6-2.4c0-0.1,0-0.2,0-0.2l0.3-10.3c0-0.6,0.3-1.2,0.7-1.7c0.5-0.5,1-0.8,1.6-0.8
					l12.1-1.5c0.6-0.1,1.2,0.1,1.6,0.5c0.5,0.4,0.7,0.9,0.7,1.5l0,1.3c0,0.6-0.2,1.2-0.6,1.7c-0.4,0.5-1,0.8-1.6,0.9l-8,1
					c-0.2,0-0.3,0.1-0.3,0.3l-0.2,4.4c0,0.1,0,0.1,0,0.2c0.1,0,0.1,0,0.2,0c0.9-0.4,1.8-0.7,2.8-0.9c2.7-0.3,5,0.2,6.8,1.5
					c1.8,1.3,2.8,3.5,2.9,6.5c0.1,2.1-0.4,4.1-1.3,5.8c-1,1.7-2.2,3.1-3.9,4.2C-601.8,524.7-603.6,525.3-605.6,525.6z"/>
			</g>
			<g>
				<path fill="#FFA302" d="M-605.6,524.1c-3.4,0.4-6.4,0-8.9-1.5c-0.6-0.3-0.9-0.8-1-1.4c0-0.1,0-0.2,0-0.3c0-0.5,0.1-1.1,0.5-1.5
					l0.5-0.8c0.3-0.5,0.8-0.9,1.4-1c0.1,0,0.2,0,0.3,0c0.5-0.1,1,0,1.4,0.2c1.5,0.7,2.9,1,4.4,0.8c1.5-0.2,2.7-0.7,3.5-1.6
					c0.8-0.9,1.2-2.1,1.1-3.6c0-1.4-0.5-2.5-1.3-3.2c-0.8-0.7-1.9-0.9-3.3-0.8c-1,0.1-1.8,0.4-2.6,0.9c-0.5,0.3-1.1,0.5-1.6,0.6
					c-0.6,0.1-1.1,0-1.6-0.3c-1-0.5-1.5-1.3-1.6-2.4c0-0.1,0-0.2,0-0.2l0.3-10.3c0-0.6,0.3-1.2,0.7-1.7c0.5-0.5,1-0.8,1.6-0.8
					l12.1-1.5c0.6-0.1,1.2,0.1,1.6,0.5c0.5,0.4,0.7,0.9,0.7,1.5l0,1.3c0,0.6-0.2,1.2-0.6,1.7c-0.4,0.5-1,0.8-1.6,0.9l-8,1
					c-0.2,0-0.3,0.1-0.3,0.3l-0.2,4.4c0,0.1,0,0.1,0,0.2c0.1,0,0.1,0,0.2,0c0.9-0.4,1.8-0.7,2.8-0.9c2.7-0.3,5,0.2,6.8,1.5
					c1.8,1.3,2.8,3.5,2.9,6.5c0.1,2.1-0.4,4.1-1.3,5.8c-1,1.7-2.2,3.1-3.9,4.2C-601.8,523.3-603.6,523.9-605.6,524.1z"/>
			</g>
		</g>
		<g id="XMLID_31_">
			<g>
				<path fill="#E89300" d="M-476.9,610.6c0.7,0.2,1.2,0.6,1.5,1.3c0.2,0.6,0.2,1.2,0,1.8l-0.3,1.1c-0.2,0.6-0.7,1.1-1.3,1.4
					c-0.1,0-0.2,0.1-0.3,0.1c-0.5,0.2-1.1,0.3-1.6,0.2c-1.1-0.1-2,0-2.8,0.4c-3.5,1.5-4.3,5.2-2.5,11c0,0.1,0.1,0.1,0.1,0.1
					c0.1,0,0.1,0,0.1-0.1c0.4-1.2,1-2.2,1.8-3.1c0.8-0.9,1.7-1.6,2.5-2c2.6-1.1,4.9-1.2,7.1-0.3c2.2,0.9,3.8,3,5.1,6.1
					c1.2,3.2,1.2,6.1,0.1,8.8c-1.1,2.7-3.1,4.7-5.8,5.9c-1.4,0.6-2.9,0.9-4.4,0.9c-1.5,0-3-0.5-4.5-1.2c-1.5-0.8-3-2-4.3-3.9
					c-1.4-1.8-2.6-4.1-3.5-6.8c-1-2.7-1.5-5.2-1.7-7.6c-0.1-2.4,0.1-4.4,0.8-6.1c0.6-1.7,1.5-3.2,2.6-4.4c1.1-1.2,2.4-2.2,4-2.8
					C-481.8,610.3-479.3,610-476.9,610.6z M-475.4,637.8c1-0.4,1.6-1.2,2-2.3c0.3-1.1,0.2-2.5-0.4-4.1c-1.1-3-2.8-3.9-5.2-2.9
					c-1.6,0.7-2.6,2.1-3.1,4.2c0,0.2,0,0.4,0.1,0.6C-479.9,637.3-477.7,638.8-475.4,637.8z"/>
			</g>
			<g>
				<path fill="#FFA302" d="M-476.9,609.1c0.7,0.2,1.2,0.6,1.5,1.3c0.2,0.6,0.2,1.2,0,1.8l-0.3,1.1c-0.2,0.6-0.7,1.1-1.3,1.4
					c-0.1,0-0.2,0.1-0.3,0.1c-0.5,0.2-1.1,0.3-1.6,0.2c-1.1-0.1-2,0-2.8,0.4c-3.5,1.5-4.3,5.2-2.5,11c0,0.1,0.1,0.1,0.1,0.1
					c0.1,0,0.1,0,0.1-0.1c0.4-1.2,1-2.2,1.8-3.1c0.8-0.9,1.7-1.6,2.5-2c2.6-1.1,4.9-1.2,7.1-0.3c2.2,0.9,3.8,3,5.1,6.1
					c1.2,3.2,1.2,6.1,0.1,8.8c-1.1,2.7-3.1,4.7-5.8,5.9c-1.4,0.6-2.9,0.9-4.4,0.9c-1.5,0-3-0.5-4.5-1.2c-1.5-0.8-3-2-4.3-3.9
					c-1.4-1.8-2.6-4.1-3.5-6.8c-1-2.7-1.5-5.2-1.7-7.6c-0.1-2.4,0.1-4.4,0.8-6.1c0.6-1.7,1.5-3.2,2.6-4.4c1.1-1.2,2.4-2.2,4-2.8
					C-481.8,608.9-479.3,608.6-476.9,609.1z M-475.4,636.4c1-0.4,1.6-1.2,2-2.3c0.3-1.1,0.2-2.5-0.4-4.1c-1.1-3-2.8-3.9-5.2-2.9
					c-1.6,0.7-2.6,2.1-3.1,4.2c0,0.2,0,0.4,0.1,0.6C-479.9,635.9-477.7,637.4-475.4,636.4z"/>
			</g>
		</g>
		<g id="XMLID_151_">
			<g>
				<path fill="#A44B48" d="M-415.1,563.8c-0.4,0.6-0.9,1-1.5,1.1c-0.6,0.2-1.2,0.1-1.8-0.2l-2.2-1.3c-0.5-0.3-0.9-0.8-1-1.4
					c-0.1-0.5-0.1-1.1,0.2-1.6c1.8-3.1,4.5-6.3,8-9.4c2.6-2.4,5.8-4.5,9.6-6.3c0.1,0,0.1-0.1,0.1-0.1c0-0.1,0-0.1-0.1-0.1l-8.8-4.8
					c-0.5-0.3-0.9-0.8-1-1.4c-0.2-0.6-0.1-1.2,0.3-1.7l0.7-1.2c0.3-0.5,0.8-0.9,1.4-1.1c0.6-0.2,1.2-0.1,1.7,0.2l13.7,7.5
					c0.5,0.3,0.8,0.7,1,1.3c0.1,0.6,0.1,1.1-0.2,1.6c-0.7,1.2-1.8,2.2-3.1,2.8c-2,0.9-3.7,1.8-5.2,2.8c-1.5,1-2.9,2.2-4.3,3.5
					c-1.3,1.4-2.5,2.8-3.6,4.2C-412.3,559.7-413.6,561.5-415.1,563.8z"/>
			</g>
			<g>
				<path fill="#D15C5A" d="M-415.1,562.3c-0.4,0.6-0.9,1-1.5,1.1c-0.6,0.2-1.2,0.1-1.8-0.2l-2.2-1.3c-0.5-0.3-0.9-0.8-1-1.4
					c-0.1-0.5-0.1-1.1,0.2-1.6c1.8-3.1,4.5-6.3,8-9.4c2.6-2.4,5.8-4.5,9.6-6.3c0.1,0,0.1-0.1,0.1-0.1c0-0.1,0-0.1-0.1-0.1l-8.8-4.8
					c-0.5-0.3-0.9-0.8-1-1.4c-0.2-0.6-0.1-1.2,0.3-1.7l0.7-1.2c0.3-0.5,0.8-0.9,1.4-1.1c0.6-0.2,1.2-0.1,1.7,0.2l13.7,7.5
					c0.5,0.3,0.8,0.7,1,1.3c0.1,0.6,0.1,1.1-0.2,1.6c-0.7,1.2-1.8,2.2-3.1,2.8c-2,0.9-3.7,1.8-5.2,2.8c-1.5,1-2.9,2.2-4.3,3.5
					c-1.3,1.4-2.5,2.8-3.6,4.2C-412.3,558.3-413.6,560.1-415.1,562.3z"/>
			</g>
		</g>
		<g id="XMLID_135_">
			<g>
				<path fill="#1E7F93" d="M-520.2,605.4c-2.7-0.9-4.8-2.4-6.1-4.4c-1.3-2-1.6-4-0.8-6.2c1.1-3,3.3-4.8,6.9-5.3
					c0.1,0,0.1,0,0.1-0.1c0-0.1,0-0.1,0-0.2c-1.7-2.5-2.1-5.1-1.2-7.6c0.8-2.2,2.2-3.7,4.3-4.4c2.1-0.8,4.4-0.7,6.9,0.2
					c2.5,0.8,4.3,2.2,5.3,4c1.1,1.8,1.2,3.8,0.5,6c-0.4,1.2-1.1,2.2-2.1,3c-1,0.8-2.1,1.4-3.3,1.7c-0.1,0-0.1,0.1-0.1,0.1
					c0,0.1,0,0.1,0,0.1c2.5,2.6,3.2,5.6,2.1,8.9c-0.7,2.2-2.2,3.7-4.5,4.4C-514.7,606.5-517.3,606.4-520.2,605.4z M-518.5,600.9
					c1,0.3,1.9,0.4,2.7,0.1c0.8-0.3,1.4-1,1.8-2c0.4-1.1,0.2-2.1-0.3-3c-0.6-0.9-1.7-2.1-3.3-3.5c-0.1,0-0.1-0.1-0.2-0.1
					c-0.1,0-0.2,0-0.3,0.1c-1.5,0.8-2.6,2-3.1,3.7c-0.4,1.1-0.3,2.1,0.2,3C-520.4,599.8-519.6,600.5-518.5,600.9z M-513,589.2
					c0.1,0.1,0.3,0.1,0.5,0c1.3-0.8,2.1-2,2.6-3.3c0.3-1,0.3-1.9,0-2.6c-0.3-0.7-1-1.3-2-1.6c-0.8-0.3-1.5-0.3-2.2,0
					c-0.7,0.3-1.2,0.9-1.5,1.8c-0.3,1-0.3,1.9,0.2,2.8C-515,587.2-514.2,588.2-513,589.2z"/>
			</g>
			<g>
				<path fill="#17A2C7" d="M-520.2,604c-2.7-0.9-4.8-2.4-6.1-4.4c-1.3-2-1.6-4-0.8-6.2c1.1-3,3.3-4.8,6.9-5.3c0.1,0,0.1,0,0.1-0.1
					c0-0.1,0-0.1,0-0.2c-1.7-2.5-2.1-5.1-1.2-7.6c0.8-2.2,2.2-3.7,4.3-4.4c2.1-0.8,4.4-0.7,6.9,0.2c2.5,0.8,4.3,2.2,5.3,4
					c1.1,1.8,1.2,3.8,0.5,6c-0.4,1.2-1.1,2.2-2.1,3c-1,0.8-2.1,1.4-3.3,1.7c-0.1,0-0.1,0.1-0.1,0.1c0,0.1,0,0.1,0,0.1
					c2.5,2.6,3.2,5.6,2.1,8.9c-0.7,2.2-2.2,3.7-4.5,4.4C-514.7,605.1-517.3,605-520.2,604z M-518.5,599.4c1,0.3,1.9,0.4,2.7,0.1
					c0.8-0.3,1.4-1,1.8-2c0.4-1.1,0.2-2.1-0.3-3c-0.6-0.9-1.7-2.1-3.3-3.5c-0.1,0-0.1-0.1-0.2-0.1c-0.1,0-0.2,0-0.3,0.1
					c-1.5,0.8-2.6,2-3.1,3.7c-0.4,1.1-0.3,2.1,0.2,3C-520.4,598.4-519.6,599.1-518.5,599.4z M-513,587.8c0.1,0.1,0.3,0.1,0.5,0
					c1.3-0.8,2.1-2,2.6-3.3c0.3-1,0.3-1.9,0-2.6c-0.3-0.7-1-1.3-2-1.6c-0.8-0.3-1.5-0.3-2.2,0c-0.7,0.3-1.2,0.9-1.5,1.8
					c-0.3,1-0.3,1.9,0.2,2.8C-515,585.8-514.2,586.8-513,587.8z"/>
			</g>
		</g>
		<g id="XMLID_123_">
			<g>
				<path fill="#A44B48" d="M-567.7,560.4c-0.2-0.6,0-1.2,0.4-1.8c0.4-0.5,0.8-0.8,1.4-0.9l1-0.3c0.6-0.1,1.2,0,1.7,0.3
					c0.1,0,0.2,0.1,0.2,0.1c0.4,0.3,0.7,0.7,0.9,1.1c0.4,0.9,1,1.5,1.7,2c2.7,1.9,5.9,0.7,9.6-3.7c0,0,0-0.1,0-0.1c0,0-0.1,0-0.1,0
					c-1.1,0.3-2.1,0.4-3.3,0.2c-1.1-0.2-2-0.5-2.7-1c-2-1.4-3.2-3.2-3.5-5.3c-0.3-2.1,0.5-4.3,2.4-6.8c1.9-2.4,4.1-3.8,6.6-4.3
					c2.6-0.4,4.9,0.1,7,1.5c1.1,0.8,2,1.7,2.7,2.8c0.7,1.1,1.1,2.4,1.2,3.9c0.1,1.5-0.2,3.2-0.9,5.1c-0.7,1.9-1.9,3.9-3.4,6
					c-1.6,2.1-3.2,3.8-5,5.1c-1.8,1.3-3.5,2.2-5.1,2.6c-1.6,0.4-3.2,0.5-4.7,0.3c-1.5-0.2-2.8-0.8-4.1-1.6
					C-565.6,564.5-567,562.7-567.7,560.4z M-552.7,553.2c1.3,0.9,2.8,0.9,4.7,0.2c0.2-0.1,0.3-0.2,0.4-0.4c2-3.5,2.1-5.8,0.3-7
					c-0.8-0.5-1.7-0.7-2.6-0.4c-1,0.3-2,1-2.9,2.3c-0.9,1.2-1.3,2.2-1.2,3.1C-554,551.9-553.6,552.6-552.7,553.2z"/>
			</g>
			<g>
				<path fill="#D15C5A" d="M-567.7,559c-0.2-0.6,0-1.2,0.4-1.8c0.4-0.5,0.8-0.8,1.4-0.9l1-0.3c0.6-0.1,1.2,0,1.7,0.3
					c0.1,0,0.2,0.1,0.2,0.1c0.4,0.3,0.7,0.7,0.9,1.1c0.4,0.9,1,1.5,1.7,2c2.7,1.9,5.9,0.7,9.6-3.7c0,0,0-0.1,0-0.1c0,0-0.1,0-0.1,0
					c-1.1,0.3-2.1,0.4-3.3,0.2c-1.1-0.2-2-0.5-2.7-1c-2-1.4-3.2-3.2-3.5-5.3c-0.3-2.1,0.5-4.3,2.4-6.8c1.9-2.4,4.1-3.8,6.6-4.3
					c2.6-0.4,4.9,0.1,7,1.5c1.1,0.8,2,1.7,2.7,2.8c0.7,1.1,1.1,2.4,1.2,3.9c0.1,1.5-0.2,3.2-0.9,5.1c-0.7,1.9-1.9,3.9-3.4,6
					c-1.6,2.1-3.2,3.8-5,5.1c-1.8,1.3-3.5,2.2-5.1,2.6c-1.6,0.4-3.2,0.5-4.7,0.3c-1.5-0.2-2.8-0.8-4.1-1.6
					C-565.6,563.1-567,561.2-567.7,559z M-552.7,551.8c1.3,0.9,2.8,0.9,4.7,0.2c0.2-0.1,0.3-0.2,0.4-0.4c2-3.5,2.1-5.8,0.3-7
					c-0.8-0.5-1.7-0.7-2.6-0.4c-1,0.3-2,1-2.9,2.3c-0.9,1.2-1.3,2.2-1.2,3.1C-554,550.5-553.6,551.2-552.7,551.8z"/>
			</g>
		</g>
		<g id="XMLID_22_">
			<g>
				<path id="XMLID_59_" fill="#A44B48" d="M-573,632.5c-0.6-0.1-1-0.4-1.4-0.9c-0.3-0.5-0.4-1-0.3-1.6l0.2-1c0.1-0.6,0.4-1,0.8-1.4
					c0.5-0.3,1-0.4,1.6-0.3l3.3,0.6c0.2,0,0.3,0,0.3-0.2l2.4-14.6c0-0.2,0-0.3-0.2-0.3l-2.6-0.5c-0.5-0.1-1-0.4-1.3-0.8
					c-0.3-0.4-0.4-0.9-0.3-1.5c0.1-0.5,0.4-1,0.8-1.4c0.4-0.4,0.9-0.6,1.5-0.6c1.1-0.1,2.1-0.2,3-0.5c1.5-0.4,2.8-0.5,4-0.3l0.5,0.1
					c0.5,0.1,1,0.4,1.3,0.9c0.3,0.5,0.5,1,0.4,1.5l-3.1,19.1c0,0.2,0,0.3,0.2,0.3l2.5,0.5c0.6,0.1,1,0.4,1.4,0.9
					c0.3,0.5,0.5,1,0.4,1.6l-0.2,1c-0.1,0.6-0.4,1-0.8,1.4c-0.5,0.3-1,0.5-1.6,0.4L-573,632.5z"/>
				<path id="XMLID_55_" fill="#A44B48" d="M-537.9,635.7c-2.1,2.1-4.5,2.9-7.4,2.4c-2.9-0.5-5-2.2-6.3-4.9
					c-1.3-2.8-1.6-6.4-0.9-10.9c0.7-4.5,2-7.7,4.1-9.6c2-2,4.4-2.7,7.3-2.2c2.8,0.5,4.9,2.1,6.3,4.7c1.4,2.6,1.7,6.1,1.1,10.6
					C-534.5,630.2-535.9,633.5-537.9,635.7z M-545.9,632.4c0.3,0.3,0.8,0.6,1.3,0.7c0.5,0.1,1,0,1.4-0.2c0.4-0.2,0.8-0.6,1.3-1.2
					c0.4-0.6,0.8-1.5,1.2-2.7c0.4-1.2,0.7-2.7,0.9-4.4c0.3-1.7,0.4-3.2,0.4-4.5c0-1.2-0.1-2.2-0.4-2.8c-0.2-0.7-0.5-1.1-0.9-1.5
					c-0.3-0.3-0.8-0.5-1.3-0.6c-0.5-0.1-1-0.1-1.4,0.1c-0.4,0.2-0.8,0.5-1.2,1.1c-0.4,0.5-0.8,1.4-1.1,2.6c-0.4,1.2-0.7,2.6-0.9,4.4
					c-0.3,1.8-0.4,3.3-0.4,4.5c0,1.3,0.1,2.2,0.3,2.9C-546.5,631.6-546.2,632.1-545.9,632.4z"/>
			</g>
			<g>
				<path id="XMLID_53_" fill="#D15C5A" d="M-573,631c-0.6-0.1-1-0.4-1.4-0.9c-0.3-0.5-0.4-1-0.3-1.6l0.2-1c0.1-0.6,0.4-1,0.8-1.4
					c0.5-0.3,1-0.4,1.6-0.3l3.3,0.6c0.2,0,0.3,0,0.3-0.2l2.4-14.6c0-0.2,0-0.3-0.2-0.3l-2.6-0.5c-0.5-0.1-1-0.4-1.3-0.8
					c-0.3-0.4-0.4-0.9-0.3-1.5c0.1-0.5,0.4-1,0.8-1.4c0.4-0.4,0.9-0.6,1.5-0.6c1.1-0.1,2.1-0.2,3-0.5c1.5-0.4,2.8-0.5,4-0.3l0.5,0.1
					c0.5,0.1,1,0.4,1.3,0.9c0.3,0.5,0.5,1,0.4,1.5l-3.1,19.1c0,0.2,0,0.3,0.2,0.3l2.5,0.5c0.6,0.1,1,0.4,1.4,0.9
					c0.3,0.5,0.5,1,0.4,1.6l-0.2,1c-0.1,0.6-0.4,1-0.8,1.4c-0.5,0.3-1,0.5-1.6,0.4L-573,631z"/>
				<path id="XMLID_16_" fill="#D15C5A" d="M-537.9,634.3c-2.1,2.1-4.5,2.9-7.4,2.4c-2.9-0.5-5-2.2-6.3-4.9
					c-1.3-2.8-1.6-6.4-0.9-10.9c0.7-4.5,2-7.7,4.1-9.6c2-2,4.4-2.7,7.3-2.2c2.8,0.5,4.9,2.1,6.3,4.7c1.4,2.6,1.7,6.1,1.1,10.6
					C-534.5,628.8-535.9,632.1-537.9,634.3z M-545.9,631c0.3,0.3,0.8,0.6,1.3,0.7c0.5,0.1,1,0,1.4-0.2c0.4-0.2,0.8-0.6,1.3-1.2
					c0.4-0.6,0.8-1.5,1.2-2.7c0.4-1.2,0.7-2.7,0.9-4.4c0.3-1.7,0.4-3.2,0.4-4.5c0-1.2-0.1-2.2-0.4-2.8c-0.2-0.7-0.5-1.1-0.9-1.5
					c-0.3-0.3-0.8-0.5-1.3-0.6c-0.5-0.1-1-0.1-1.4,0.1c-0.4,0.2-0.8,0.5-1.2,1.1c-0.4,0.5-0.8,1.4-1.1,2.6c-0.4,1.2-0.7,2.6-0.9,4.4
					c-0.3,1.8-0.4,3.3-0.4,4.5c0,1.3,0.1,2.2,0.3,2.9C-546.5,630.1-546.2,630.7-545.9,631z"/>
			</g>
		</g>
		<g id="XMLID_85_">
			<g>
				<path id="XMLID_47_" fill="#E89300" d="M-445.8,488.3c-0.5-0.3-0.8-0.7-0.9-1.2c-0.1-0.5,0-1,0.3-1.4l0.6-0.8
					c0.3-0.4,0.8-0.7,1.4-0.8c0.6-0.1,1.1,0,1.6,0.3l2.8,1.7c0.2,0.1,0.3,0.1,0.4-0.1l8.3-11.2c0.1-0.1,0.1-0.3-0.1-0.4l-2.2-1.4
					c-0.5-0.3-0.8-0.7-0.9-1.2c-0.1-0.5,0-0.9,0.3-1.3c0.3-0.4,0.7-0.7,1.3-0.9c0.6-0.1,1.1-0.1,1.6,0.1c1,0.3,2,0.6,3,0.7
					c1.5,0.2,2.8,0.7,3.8,1.3l0.5,0.3c0.5,0.3,0.8,0.7,0.9,1.2c0.1,0.5,0,1-0.3,1.4l-10.8,14.6c-0.1,0.1-0.1,0.3,0,0.3l2.1,1.3
					c0.5,0.3,0.8,0.7,0.9,1.2c0.1,0.5,0,1-0.3,1.4l-0.6,0.8c-0.3,0.4-0.8,0.7-1.3,0.8c-0.6,0.1-1.1,0-1.6-0.3L-445.8,488.3z"/>
				<path id="XMLID_25_" fill="#E89300" d="M-427.4,499.5c-0.5-0.3-0.8-0.7-0.9-1.2c-0.1-0.5,0-1,0.3-1.4l0.6-0.8
					c0.3-0.5,0.8-0.7,1.3-0.8c0.6-0.1,1.1,0,1.6,0.3l2.8,1.7c0.2,0.1,0.3,0.1,0.4-0.1l8.1-11.2c0.1-0.1,0.1-0.3-0.1-0.4l-2.2-1.4
					c-0.5-0.3-0.8-0.7-0.9-1.2c-0.1-0.5,0-0.9,0.3-1.3c0.3-0.4,0.7-0.7,1.3-0.9c0.5-0.2,1.1-0.1,1.6,0c1,0.3,2,0.6,2.9,0.7
					c1.5,0.2,2.8,0.6,3.7,1.2l0.5,0.3c0.5,0.3,0.7,0.7,0.9,1.2c0.1,0.5,0,1-0.3,1.4l-10.5,14.7c-0.1,0.1-0.1,0.3,0,0.3l2.1,1.3
					c0.5,0.3,0.8,0.7,0.9,1.2c0.1,0.5,0,1-0.3,1.4l-0.6,0.8c-0.3,0.4-0.7,0.7-1.3,0.8c-0.6,0.1-1.1,0-1.6-0.3L-427.4,499.5z"/>
			</g>
			<g>
				<path id="XMLID_19_" fill="#FFA302" d="M-445.8,486.9c-0.5-0.3-0.8-0.7-0.9-1.2c-0.1-0.5,0-1,0.3-1.4l0.6-0.8
					c0.3-0.5,0.8-0.7,1.4-0.8c0.6-0.1,1.1,0,1.6,0.3l2.8,1.7c0.2,0.1,0.3,0.1,0.4-0.1l8.3-11.2c0.1-0.1,0.1-0.3-0.1-0.4l-2.2-1.4
					c-0.5-0.3-0.8-0.7-0.9-1.2c-0.1-0.5,0-0.9,0.3-1.3c0.3-0.4,0.7-0.7,1.3-0.9c0.6-0.1,1.1-0.1,1.6,0.1c1,0.3,2,0.6,3,0.7
					c1.5,0.2,2.8,0.7,3.8,1.3l0.5,0.3c0.5,0.3,0.8,0.7,0.9,1.2c0.1,0.5,0,1-0.3,1.4l-10.8,14.6c-0.1,0.1-0.1,0.3,0,0.3l2.1,1.3
					c0.5,0.3,0.8,0.7,0.9,1.2c0.1,0.5,0,1-0.3,1.4l-0.6,0.8c-0.3,0.4-0.8,0.7-1.3,0.8c-0.6,0.1-1.1,0-1.6-0.3L-445.8,486.9z"/>
				<path id="XMLID_7_" fill="#FFA302" d="M-427.4,498.1c-0.5-0.3-0.8-0.7-0.9-1.2c-0.1-0.5,0-1,0.3-1.4l0.6-0.8
					c0.3-0.5,0.8-0.7,1.3-0.8c0.6-0.1,1.1,0,1.6,0.3l2.8,1.7c0.2,0.1,0.3,0.1,0.4-0.1l8.1-11.2c0.1-0.1,0.1-0.3-0.1-0.4l-2.2-1.4
					c-0.5-0.3-0.8-0.7-0.9-1.2c-0.1-0.5,0-0.9,0.3-1.3c0.3-0.4,0.7-0.7,1.3-0.9c0.5-0.2,1.1-0.1,1.6,0c1,0.3,2,0.6,2.9,0.7
					c1.5,0.2,2.8,0.6,3.7,1.2l0.5,0.3c0.5,0.3,0.7,0.7,0.9,1.2c0.1,0.5,0,1-0.3,1.4L-416,499c-0.1,0.1-0.1,0.3,0,0.3l2.1,1.3
					c0.5,0.3,0.8,0.7,0.9,1.2c0.1,0.5,0,1-0.3,1.4l-0.6,0.8c-0.3,0.4-0.7,0.7-1.3,0.8c-0.6,0.1-1.1,0-1.6-0.3L-427.4,498.1z"/>
			</g>
		</g>
		<g id="XMLID_67_">
			<g>
				<path id="XMLID_17_" fill="#A44B48" d="M-484.9,447.6c-0.5-0.1-0.9-0.4-1.2-0.9c-0.2-0.4-0.3-0.9-0.1-1.4l0.3-0.9
					c0.2-0.5,0.5-0.9,1-1.1c0.5-0.2,1-0.3,1.5-0.2l3,0.8c0.2,0,0.3,0,0.3-0.2l4.1-12.3c0.1-0.2,0-0.3-0.2-0.3l-2.4-0.6
					c-0.5-0.1-0.9-0.4-1.1-0.8c-0.2-0.4-0.3-0.8-0.1-1.3c0.2-0.5,0.5-0.8,0.9-1.1c0.4-0.3,0.9-0.4,1.5-0.4c1,0,2,0,2.8-0.2
					c1.5-0.2,2.7-0.2,3.7,0.1l0.5,0.1c0.5,0.1,0.9,0.4,1.1,0.8c0.3,0.4,0.3,0.9,0.1,1.3l-5.3,16.1c-0.1,0.2,0,0.3,0.1,0.3l2.2,0.6
					c0.5,0.1,0.9,0.4,1.2,0.9c0.2,0.4,0.3,0.9,0.1,1.4l-0.3,0.9c-0.2,0.5-0.5,0.8-0.9,1.1c-0.5,0.3-1,0.3-1.5,0.2L-484.9,447.6z"/>
				<path id="XMLID_13_" fill="#A44B48" d="M-466.5,452.5c-0.4-0.1-0.8-0.4-1-0.8c-0.2-0.4-0.3-0.8-0.1-1.2c0.3-1,1-1.8,2.1-2.3
					c3.8-1.8,6.7-3.4,8.8-4.8c2.1-1.4,3.3-2.9,3.8-4.3c0.3-1,0.3-1.9-0.1-2.6c-0.4-0.7-1.1-1.2-2-1.4c-0.9-0.2-1.9-0.1-3,0.3
					c-0.5,0.2-1,0.2-1.5,0.1c-0.5-0.1-0.9-0.4-1.1-0.8l-0.3-0.6c-0.3-0.4-0.3-0.9-0.2-1.4c0.2-0.5,0.5-0.8,0.9-1
					c1.2-0.5,2.4-0.8,3.6-0.9c1.2-0.1,2.4,0,3.8,0.4c2.3,0.6,4,1.7,5.1,3.4c1.1,1.7,1.3,3.5,0.6,5.7c-1,3.1-4.6,6.3-10.8,9.6
					c0,0,0,0.1,0,0.1c0,0,0,0.1,0.1,0.1c1.6,0.2,2.8,0.4,3.8,0.7l2.6,0.7c0.5,0.1,0.9,0.4,1.2,0.9c0.3,0.4,0.3,0.9,0.2,1.4l-0.3,1.1
					c-0.2,0.5-0.5,0.8-0.9,1.1c-0.5,0.3-1,0.3-1.5,0.2L-466.5,452.5z"/>
			</g>
			<g>
				<path id="XMLID_8_" fill="#D15C5A" d="M-484.9,446.2c-0.5-0.1-0.9-0.4-1.2-0.9c-0.2-0.4-0.3-0.9-0.1-1.4l0.3-0.9
					c0.2-0.5,0.5-0.9,1-1.1c0.5-0.2,1-0.3,1.5-0.2l3,0.8c0.2,0,0.3,0,0.3-0.2l4.1-12.3c0.1-0.2,0-0.3-0.2-0.3l-2.4-0.6
					c-0.5-0.1-0.9-0.4-1.1-0.8c-0.2-0.4-0.3-0.8-0.1-1.3c0.2-0.5,0.5-0.8,0.9-1.1c0.4-0.3,0.9-0.4,1.5-0.4c1,0,2,0,2.8-0.2
					c1.5-0.2,2.7-0.2,3.7,0.1l0.5,0.1c0.5,0.1,0.9,0.4,1.1,0.8c0.3,0.4,0.3,0.9,0.1,1.3l-5.3,16.1c-0.1,0.2,0,0.3,0.1,0.3l2.2,0.6
					c0.5,0.1,0.9,0.4,1.2,0.9c0.2,0.4,0.3,0.9,0.1,1.4l-0.3,0.9c-0.2,0.5-0.5,0.8-0.9,1.1c-0.5,0.3-1,0.3-1.5,0.2L-484.9,446.2z"/>
				<path id="XMLID_3_" fill="#D15C5A" d="M-466.5,451.1c-0.4-0.1-0.8-0.4-1-0.8c-0.2-0.4-0.3-0.8-0.1-1.2c0.3-1,1-1.8,2.1-2.3
					c3.8-1.8,6.7-3.4,8.8-4.8c2.1-1.4,3.3-2.9,3.8-4.3c0.3-1,0.3-1.9-0.1-2.6c-0.4-0.7-1.1-1.2-2-1.4c-0.9-0.2-1.9-0.1-3,0.3
					c-0.5,0.2-1,0.2-1.5,0.1c-0.5-0.1-0.9-0.4-1.1-0.8l-0.3-0.6c-0.3-0.4-0.3-0.9-0.2-1.4c0.2-0.5,0.5-0.8,0.9-1
					c1.2-0.5,2.4-0.8,3.6-0.9c1.2-0.1,2.4,0,3.8,0.4c2.3,0.6,4,1.7,5.1,3.4c1.1,1.7,1.3,3.5,0.6,5.7c-1,3.1-4.6,6.3-10.8,9.6
					c0,0,0,0.1,0,0.1c0,0,0,0.1,0.1,0.1c1.6,0.2,2.8,0.4,3.8,0.7l2.6,0.7c0.5,0.1,0.9,0.4,1.2,0.9c0.3,0.4,0.3,0.9,0.2,1.4l-0.3,1.1
					c-0.2,0.5-0.5,0.8-0.9,1.1c-0.5,0.3-1,0.3-1.5,0.2L-466.5,451.1z"/>
			</g>
		</g>
		<g id="XMLID_57_">
			<g>
				<path fill="#E8BA00" d="M-431.8,596.3c-0.7-6.7-2.7-14.1-10-21c-9.5-8.9-19-8.4-26.6-7.9c-6.7,0.4-11.6,0.7-16.8-4.3
					c-5.2-5-5.3-9.9-5.4-16.7c-0.1-3.5-0.1-7.4-1.1-11.5c-1.1-4.6-21.5-9.7-16.4-4.9c3,2.9,4.3,5.7,4.8,9c0.3,2.2,0.4,4.6,0.4,7.3
					c0.1,7.6,0.1,17.2,9.3,26.1c9.3,8.9,18.7,8.4,26.4,8c6.8-0.4,11.7-0.7,17.1,4.5c4.9,4.6,5.5,9.3,5.8,15.4l-8.6,2.6l23.5,22.5
					l5.6-31.5L-431.8,596.3z"/>
			</g>
			<g>
				<path fill="#FFCD02" d="M-431.8,594.8c-0.7-6.7-2.7-14.1-10-21c-9.5-8.9-19-8.4-26.6-7.9c-6.7,0.4-11.6,0.7-16.8-4.3
					c-5.2-5-5.3-9.9-5.4-16.7c-0.1-3.5-0.1-7.4-1.1-11.5c-1.1-4.6-21.5-9.7-16.4-4.9c3,2.9,4.3,5.7,4.8,9c0.3,2.2,0.4,4.6,0.4,7.3
					c0.1,7.6,0.1,17.2,9.3,26.1c9.3,8.9,18.7,8.4,26.4,8c6.8-0.4,11.7-0.7,17.1,4.5c4.9,4.6,5.5,9.3,5.8,15.4l-8.6,2.6l23.5,22.5
					l5.6-31.5L-431.8,594.8z"/>
			</g>
		</g>
		<g id="XMLID_46_">
			<g>
				<path fill="#E8BA00" d="M-505.7,522.8c-1.3-5.9-3.1-13.9-12.4-18c-9.3-4.1-16.9-0.3-22.6,2.5c-5.5,2.7-7.8,3.6-10.9,2.2
					c-0.4-0.2-0.8-0.4-1.1-0.6l8.4-3.9l-27.2-17l-2.9,31.1l9.2-4.3c1.9,2.7,4.5,4.7,7.8,6.2c9.4,4.2,17.2,0.3,22.9-2.6
					c5.4-2.7,7.8-3.6,10.9-2.3c3.1,1.4,3.8,3.7,5.1,9.4c1.3,5.9,3.1,14.1,12.5,18.3l5.6-11.6C-503.7,530.8-504.5,528.6-505.7,522.8z
					"/>
			</g>
			<g>
				<path fill="#FFCD02" d="M-505.7,521.4c-1.3-5.9-3.1-13.9-12.4-18c-9.3-4.1-16.9-0.3-22.6,2.5c-5.5,2.7-7.8,3.6-10.9,2.2
					c-0.4-0.2-0.8-0.4-1.1-0.6l8.4-3.9l-27.2-17l-2.9,31.1l9.2-4.3c1.9,2.7,4.5,4.7,7.8,6.2c9.4,4.2,17.2,0.3,22.9-2.6
					c5.4-2.7,7.8-3.6,10.9-2.3c3.1,1.4,3.8,3.7,5.1,9.4c1.3,5.9,3.1,14.1,12.5,18.3l5.6-11.6C-503.7,529.4-504.5,527.1-505.7,521.4z
					"/>
			</g>
		</g>
		<g id="XMLID_6_">
			<g>
				<path d="M-486,532.5c0,9.2-7.7,16.8-17.2,16.9c-9.5,0.1-17.1-7.4-16.9-16.6c0.2-9.1,7.9-16.5,17.3-16.6
					C-493.5,516.1-486,523.4-486,532.5z"/>
			</g>
			<g>
				<path fill="#3E3A39" d="M-486,529.6c0,9.2-7.7,16.8-17.2,16.9c-9.5,0.1-17.1-7.4-16.9-16.6c0.2-9.1,7.9-16.5,17.3-16.6
					C-493.5,513.2-486,520.5-486,529.6z"/>
			</g>
		</g>
	</g>
</g>
</svg>
