<?xml version="1.0" encoding="utf-8"?>
<!-- Generator: Adobe Illustrator 19.0.0, SVG Export Plug-In . SVG Version: 6.00 Build 0)  -->
<svg version="1.2" baseProfile="tiny" id="圖層_1"
	 xmlns="http://www.w3.org/2000/svg" xmlns:xlink="http://www.w3.org/1999/xlink" x="0px" y="0px" viewBox="-732 310 453.5 462"
	 xml:space="preserve">
<g id="XMLID_19_">
	<g id="XMLID_158_">
		<g id="XMLID_159_">
			<g id="XMLID_161_">
				<g>
					<path fill="#8C6239" d="M-363.5,772H-647c-47,0-85-38.1-85-85V403.5c0-47,38.1-85,85-85h283.5c47,0,85,38.1,85,85V687
						C-278.5,734-316.5,772-363.5,772z"/>
				</g>
				<g>
					<path fill="#BB7434" d="M-363.5,763.5H-647c-47,0-85-38.1-85-85V395c0-47,38.1-85,85-85h283.5c47,0,85,38.1,85,85v283.5
						C-278.5,725.5-316.5,763.5-363.5,763.5z"/>
				</g>
			</g>
			<path id="XMLID_160_" fill="#623F1E" d="M-382.2,729.4h-246.1c-38.4,0-69.6-31.2-69.6-69.6V413.7c0-38.4,31.2-69.6,69.6-69.6
				h246.1c38.4,0,69.6,31.2,69.6,69.6v246.1C-312.6,698.3-343.7,729.4-382.2,729.4z"/>
		</g>
	</g>
	<g id="XMLID_25_">
		<g id="XMLID_26_">
			<g id="XMLID_146_">
				<g>
					<path fill="#DBDCDC" d="M-417.9,685.7c-0.5,0-1,0-1.5,0l-181.8-9.3c-8.1-0.4-15.3-4.1-20.5-10.3c-5.3-6.5-7.7-15.2-6.4-23.8
						l23-157.2c2.1-14.4,14.7-25.2,29.4-25.2c0.4,0,0.8,0,1.2,0l154.9,6.2c15.3,0.6,27.6,12.9,27.9,27.9l3.7,160.2
						c0.2,8.5-2.9,16.5-8.8,22.5C-402.4,682.5-409.9,685.7-417.9,685.7z"/>
					<path fill="#DBDCDC" d="M-575.7,463.4c0.3,0,0.7,0,1,0l154.9,6.2c13.4,0.5,24.2,11.3,24.6,24.5l3.7,160.2
						c0.4,15.4-11.6,27.9-26.4,27.9c-0.4,0-0.9,0-1.4,0l-181.8-9.3c-15.1-0.8-25.9-14.6-23.6-30.1l23-157.2
						C-599.8,472.9-588.5,463.4-575.7,463.4 M-575.7,456.4C-575.7,456.4-575.7,456.4-575.7,456.4c-16.4,0-30.5,12.1-32.9,28.2
						l-23,157.2c-1.4,9.6,1.2,19.3,7.2,26.5c5.8,7,13.9,11.1,23,11.6l181.8,9.3c0.6,0,1.1,0,1.7,0c8.9,0,17.3-3.5,23.6-10
						c6.5-6.7,10-15.6,9.8-25.1l-3.7-160.2c-0.4-16.9-14.1-30.7-31.3-31.4l-154.9-6.2C-574.8,456.4-575.3,456.4-575.7,456.4
						L-575.7,456.4z"/>
				</g>
				<g>
					<path fill="#FFCD02" d="M-417.9,680c-0.5,0-1,0-1.5,0l-181.8-9.3c-8.1-0.4-15.3-4.1-20.5-10.3c-5.3-6.5-7.7-15.2-6.4-23.8
						l23-157.2c2.1-14.4,14.7-25.2,29.4-25.2c0.4,0,0.8,0,1.2,0l154.9,6.2c15.3,0.6,27.6,12.9,27.9,27.9l3.7,160.2
						c0.2,8.5-2.9,16.5-8.8,22.5C-402.4,676.9-409.9,680-417.9,680z"/>
					<path fill="#F7F7F7" d="M-575.7,457.7c0.3,0,0.7,0,1,0l154.9,6.2c13.4,0.5,24.2,11.3,24.6,24.5l3.7,160.2
						c0.4,15.4-11.6,27.9-26.4,27.9c-0.4,0-0.9,0-1.4,0l-181.8-9.3c-15.1-0.8-25.9-14.6-23.6-30.1l23-157.2
						C-599.8,467.3-588.5,457.7-575.7,457.7 M-575.7,450.7C-575.7,450.7-575.7,450.7-575.7,450.7c-16.4,0-30.5,12.1-32.9,28.2
						l-23,157.2c-1.4,9.6,1.2,19.3,7.2,26.5c5.8,7,13.9,11.1,23,11.6l181.8,9.3c0.6,0,1.1,0,1.7,0c8.9,0,17.3-3.5,23.6-10
						c6.5-6.7,10-15.6,9.8-25.1l-3.7-160.2c-0.4-16.9-14.1-30.7-31.3-31.4l-154.9-6.2C-574.8,450.7-575.3,450.7-575.7,450.7
						L-575.7,450.7z"/>
				</g>
			</g>
			<g id="XMLID_140_">
				<g>
					<path fill="#A44B48" d="M-419.3,679.3l-181.8-9.3c-15.1-0.8-25.9-14.6-23.6-30.1l23-157.2c1.9-13,13.7-22.7,27-22.2l154.9,6.2
						c13.4,0.5,24.2,11.3,24.6,24.5l3.7,160.2C-391.2,667.4-403.8,680.1-419.3,679.3z"/>
				</g>
				<g>
					<path fill="#D15C5A" d="M-419.3,676.5l-181.8-9.3c-15.1-0.8-25.9-14.6-23.6-30.1l23-157.2c1.9-13,13.7-22.7,27-22.2l154.9,6.2
						c13.4,0.5,24.2,11.3,24.6,24.5l3.7,160.2C-391.2,664.5-403.8,677.3-419.3,676.5z"/>
				</g>
			</g>
			<g id="XMLID_92_">
				<g id="XMLID_131_">
					<g>
						<path id="XMLID_29_" fill="#E8BA00" d="M-499.1,524c-0.4,0-0.8,0-1.3,0c-15.7,0-29.1,12.3-30.2,28.1
							c-1.2,16.5,11.2,30.6,27.8,31.3c0.5,0,0.9,0,1.4,0c16,0,29.4-12.7,30.2-28.8C-470.3,538.4-482.8,524.7-499.1,524z"/>
					</g>
					<g>
						<path id="XMLID_22_" fill="#FFCD02" d="M-499.1,522.6c-0.4,0-0.8,0-1.3,0c-15.7,0-29.1,12.3-30.2,28.1
							c-1.2,16.5,11.2,30.6,27.8,31.3c0.5,0,0.9,0,1.4,0c16,0,29.4-12.7,30.2-28.8C-470.3,536.9-482.8,523.3-499.1,522.6z"/>
					</g>
				</g>
				<g id="XMLID_123_">
					<g>
						<path id="XMLID_28_" fill="#E89300" d="M-454.5,547.5c-0.4,0-0.7,0-1.1,0c-2.9,0-5.7,0.5-8.3,1.5c0.2,2,0.3,4.1,0.2,6.1
							c-0.3,6.4-2.2,12.4-5.5,17.7c8.3,1.6,17.8,6.9,23.3,21.4c0.1,0.3,0.2,0.6,0.3,0.9c8.4-3.7,14.5-12,14.8-21.9
							C-430.3,559.6-441,548.1-454.5,547.5z"/>
					</g>
					<g>
						<path id="XMLID_20_" fill="#FFA302" d="M-454.5,546.1c-0.4,0-0.7,0-1.1,0c-2.9,0-5.7,0.5-8.3,1.5c0.2,2,0.3,4.1,0.2,6.1
							c-0.3,6.4-2.2,12.4-5.5,17.7c8.3,1.6,17.8,6.9,23.3,21.4c0.1,0.3,0.2,0.6,0.3,0.9c8.4-3.7,14.5-12,14.8-21.9
							C-430.3,558.2-441,546.7-454.5,546.1z"/>
					</g>
				</g>
				<g id="XMLID_115_">
					<g>
						<path id="XMLID_21_" fill="#E89300" d="M-433.4,595.7c-3,2.9-6.4,5.1-10.2,6.6c1.9,8.9,2.1,18.1,1.8,24.9
							c-0.2,5.1-1.4,9.7-3.6,13.6c0.2,0,0.5,0,0.7,0c8.6,0,16.5-4.2,16.9-14C-427.5,620.5-426.7,601.6-433.4,595.7z"/>
					</g>
					<g>
						<path id="XMLID_4_" fill="#FFA302" d="M-433.4,594.3c-3,2.9-6.4,5.1-10.2,6.6c1.9,8.9,2.1,18.1,1.8,24.9
							c-0.2,5.1-1.4,9.7-3.6,13.6c0.2,0,0.5,0,0.7,0c8.6,0,16.5-4.2,16.9-14C-427.5,619.1-426.7,600.2-433.4,594.3z"/>
					</g>
				</g>
				<g id="XMLID_109_">
					<g>
						<path fill="#E8BA00" d="M-541.4,643.8l69.9,3.5c0.5,0,1,0,1.5,0c12.1,0,20.3-7.5,20.9-20.3c0.8-18.4-2.2-46.3-25.2-47.3
							c0,0,0,0,0,0c-2.6,0-12.4,9.8-27.1,9.8c-0.5,0-1,0-1.5,0c-15.7-0.7-24.6-12.1-27.2-12.3c-0.4,0-0.8,0-1.2,0
							c-21.8,0-27.9,26.6-29.4,44.5C-562,634.8-554.2,643.1-541.4,643.8z"/>
					</g>
					<g>
						<path fill="#FFCD02" d="M-541.4,642.4l69.9,3.5c0.5,0,1,0,1.5,0c12.1,0,20.3-7.5,20.9-20.3c0.8-18.4-2.2-46.3-25.2-47.3
							c0,0,0,0,0,0c-2.6,0-12.4,9.8-27.1,9.8c-0.5,0-1,0-1.5,0c-15.7-0.7-24.6-12.1-27.2-12.3c-0.4,0-0.8,0-1.2,0
							c-21.8,0-27.9,26.6-29.4,44.5C-562,633.3-554.2,641.7-541.4,642.4z"/>
					</g>
				</g>
				<g id="XMLID_101_">
					<g>
						<path id="XMLID_24_" fill="#E89300" d="M-534.6,569.8c-2.6-5.6-3.8-11.8-3.3-18.3c0.1-2,0.5-3.9,0.9-5.8
							c-2.7-1.3-5.8-2.1-9-2.2c-0.4,0-0.7,0-1.1,0c-12.9,0-24.1,10.2-25.3,23.4c-0.8,9.7,4,18.4,11.7,22.8c0.1-0.1,0.1-0.3,0.2-0.4
							C-553.3,574.9-542.9,570.6-534.6,569.8z"/>
					</g>
					<g>
						<path id="XMLID_18_" fill="#FFA302" d="M-534.6,568.4c-2.6-5.6-3.8-11.8-3.3-18.3c0.1-2,0.5-3.9,0.9-5.8
							c-2.7-1.3-5.8-2.1-9-2.2c-0.4,0-0.7,0-1.1,0c-12.9,0-24.1,10.2-25.3,23.4c-0.8,9.7,4,18.4,11.7,22.8c0.1-0.1,0.1-0.3,0.2-0.4
							C-553.3,573.5-542.9,569.2-534.6,568.4z"/>
					</g>
				</g>
				<g id="XMLID_93_">
					<g>
						<path id="XMLID_17_" fill="#E89300" d="M-568.3,621c0.6-6.7,1.8-15.8,4.8-24.3c-3.2-1.7-6.1-4-8.6-6.9
							c-0.1-0.1-0.2-0.3-0.4-0.4c-7.3,5.1-8.8,23.9-9.4,30.2c-0.9,10,6.8,14.9,15.5,15.5C-568.1,630.8-568.7,626.1-568.3,621z"/>
					</g>
					<g>
						<path id="XMLID_2_" fill="#FFA302" d="M-568.3,619.6c0.6-6.7,1.8-15.8,4.8-24.3c-3.2-1.7-6.1-4-8.6-6.9
							c-0.1-0.1-0.2-0.3-0.4-0.4c-7.3,5.1-8.8,23.9-9.4,30.2c-0.9,10,6.8,14.9,15.5,15.5C-568.1,629.4-568.7,624.7-568.3,619.6z"/>
					</g>
				</g>
			</g>
			<g id="XMLID_68_">
				<g>
					<path id="XMLID_15_" fill="#754C24" d="M-521.6,631.9c-2.3-0.1-4.4-0.6-6.3-1.4c-1.9-0.8-3.5-2-4.9-3.5c-1.4-1.5-2.4-3.3-3-5.5
						c-0.7-2.2-0.9-4.7-0.7-7.5c0.2-2.7,0.8-5.1,1.8-7.2c1-2.1,2.3-3.9,3.8-5.3c1.5-1.4,3.3-2.4,5.2-3.1c1.9-0.7,4-1,6.2-0.9
						c3.1,0.1,5.9,1.2,8.2,3c0.6,0.5,0.9,1.1,0.8,1.9c0,0.6-0.3,1.2-0.7,1.6l-1,1.1c-0.5,0.5-1,0.7-1.7,0.8c-0.1,0-0.2,0-0.3,0
						c-0.6,0-1.1-0.2-1.5-0.5c-1.1-0.7-2.4-1.2-3.9-1.2c-2.4-0.1-4.5,0.7-6.1,2.5c-1.6,1.8-2.6,4.2-2.8,7.4c-0.2,3.4,0.3,6,1.7,7.9
						c1.3,1.9,3.5,2.9,6.5,3c1.1,0.1,2.1-0.1,2.9-0.6c0.2-0.1,0.3-0.2,0.3-0.5l0.3-4.7c0-0.2-0.1-0.4-0.3-0.4l-2.3-0.1
						c-0.7,0-1.3-0.3-1.7-0.8c-0.5-0.5-0.7-1.1-0.6-1.9l0.1-1.3c0-0.7,0.3-1.3,0.9-1.8c0.5-0.5,1.1-0.7,1.8-0.7l7,0.3
						c0.7,0,1.3,0.3,1.7,0.8c0.5,0.5,0.7,1.1,0.6,1.9l-0.7,10.4c-0.1,1.9-0.9,3.3-2.3,4.1C-515.3,631.4-518.3,632.1-521.6,631.9z"/>
					<path id="XMLID_12_" fill="#754C24" d="M-479.6,629.2c-2.9,3-6.6,4.4-11.1,4.2c-4.5-0.2-8-2-10.6-5.2c-2.5-3.3-3.6-7.6-3.3-13
						c0.3-5.3,1.9-9.4,4.8-12.2c2.9-2.8,6.5-4.2,11-4c4.5,0.2,8,1.9,10.5,5c2.6,3.1,3.7,7.3,3.4,12.7
						C-475.1,622-476.7,626.2-479.6,629.2z M-495.2,623.4c1.1,2,2.7,3,4.9,3.1c2.2,0.1,3.9-0.8,5.2-2.6c1.3-1.9,2.1-4.4,2.3-7.6
						c0.2-3.2-0.3-5.7-1.4-7.6c-1.1-1.9-2.8-2.8-4.9-2.9s-3.9,0.7-5.2,2.5c-1.3,1.7-2.1,4.2-2.3,7.4
						C-496.8,618.8-496.3,621.5-495.2,623.4z"/>
				</g>
				<g>
					<path id="XMLID_10_" fill="#754C24" d="M-521.6,630.5c-2.3-0.1-4.4-0.6-6.3-1.4c-1.9-0.8-3.5-2-4.9-3.5c-1.4-1.5-2.4-3.3-3-5.5
						c-0.7-2.2-0.9-4.7-0.7-7.5c0.2-2.7,0.8-5.1,1.8-7.2c1-2.1,2.3-3.9,3.8-5.3c1.5-1.4,3.3-2.4,5.2-3.1c1.9-0.7,4-1,6.2-0.9
						c3.1,0.1,5.9,1.2,8.2,3c0.6,0.5,0.9,1.1,0.8,1.9c0,0.6-0.3,1.2-0.7,1.7l-1,1.1c-0.5,0.5-1,0.7-1.7,0.8c-0.1,0-0.2,0-0.3,0
						c-0.6,0-1.1-0.2-1.5-0.5c-1.1-0.7-2.4-1.2-3.9-1.2c-2.4-0.1-4.5,0.7-6.1,2.5c-1.6,1.8-2.6,4.2-2.8,7.4c-0.2,3.4,0.3,6,1.7,7.9
						c1.3,1.9,3.5,2.9,6.5,3c1.1,0.1,2.1-0.1,2.9-0.6c0.2-0.1,0.3-0.2,0.3-0.5l0.3-4.7c0-0.2-0.1-0.4-0.3-0.4l-2.3-0.1
						c-0.7,0-1.3-0.3-1.7-0.8c-0.5-0.5-0.7-1.1-0.6-1.9l0.1-1.3c0-0.7,0.3-1.3,0.9-1.8c0.5-0.5,1.1-0.7,1.8-0.7l7,0.3
						c0.7,0,1.3,0.3,1.7,0.8c0.5,0.5,0.7,1.1,0.6,1.9l-0.7,10.4c-0.1,1.9-0.9,3.3-2.3,4.1C-515.3,629.9-518.3,630.6-521.6,630.5z"/>
					<path id="XMLID_3_" fill="#754C24" d="M-479.6,627.8c-2.9,3-6.6,4.4-11.1,4.2c-4.5-0.2-8-2-10.6-5.2c-2.5-3.3-3.6-7.6-3.3-13
						c0.3-5.3,1.9-9.4,4.8-12.2c2.9-2.8,6.5-4.2,11-4c4.5,0.2,8,1.9,10.5,5c2.6,3.1,3.7,7.3,3.4,12.7
						C-475.1,620.6-476.7,624.8-479.6,627.8z M-495.2,622c1.1,2,2.7,3,4.9,3.1s3.9-0.8,5.2-2.6c1.3-1.9,2.1-4.4,2.3-7.6
						c0.2-3.2-0.3-5.7-1.4-7.6c-1.1-1.9-2.8-2.8-4.9-2.9c-2.1-0.1-3.9,0.7-5.2,2.5c-1.3,1.7-2.1,4.2-2.3,7.4
						C-496.8,617.4-496.3,620-495.2,622z"/>
				</g>
			</g>
			<g id="XMLID_48_">
				<g>
					<path fill="#DBDCDC" d="M-448,506.3c-0.2,0-0.4,0-0.6,0c-3.7-0.2-7.1-1.7-9.6-4.5c-2.5-2.7-3.7-6.1-3.5-9.7l1.9-39.8
						c0.4-9.2-2.8-18.1-9.1-24.9c-6.6-7.2-15.7-11.3-25.6-11.7c-0.5,0-0.9,0-1.4,0c-19.7,0-36.2,14.9-37.6,33.9l-3,39.6
						c-0.5,7.1-6.8,12.9-14,12.9c0,0,0,0,0,0c-0.2,0-0.4,0-0.6,0c-3.7-0.2-7-1.7-9.5-4.5c-2.4-2.7-3.5-6.2-3.3-9.8l3.2-39.5
						c2.7-32.9,31.3-58.6,65.1-58.6c0.8,0,1.6,0,2.4,0c17.2,0.6,33,7.8,44.5,20.2c11,11.9,16.7,27.4,16,43.5l-1.7,39.9
						C-434.5,500.5-440.7,506.3-448,506.3z"/>
					<path fill="#DBDCDC" d="M-495.4,393.2c0.8,0,1.5,0,2.3,0c32.8,1.2,58.5,27.8,57.1,60.1l-1.7,39.9c-0.2,5.4-4.9,9.7-10.3,9.7
						c-0.1,0-0.3,0-0.4,0c-5.6-0.2-10.1-5-9.8-10.5l1.9-39.8c1-21.5-16.1-39.5-38-40.3c-0.5,0-1,0-1.5,0
						c-21.3,0-39.5,16.3-41.1,37.2l-3,39.6c-0.4,5.4-5.1,9.6-10.5,9.6c-0.1,0-0.3,0-0.4,0c-5.6-0.2-9.8-5-9.4-10.5l3.2-39.5
						C-554.5,417.3-527.2,393.2-495.4,393.2 M-495.4,386.2c-35.6,0-65.8,27.1-68.6,61.8l-3.2,39.5c-0.4,4.5,1.1,8.9,4.1,12.4
						c3.1,3.5,7.3,5.5,11.9,5.7c0.2,0,0.5,0,0.7,0c9.1,0,16.8-7.1,17.5-16.1l3-39.6c0.6-8.3,4.5-16,10.9-21.7c6.4-5.8,14.7-9,23.2-9
						c0.4,0,0.9,0,1.3,0c9,0.3,17.2,4.1,23.2,10.6c5.7,6.2,8.5,14.1,8.1,22.4l-1.9,39.8c-0.2,4.5,1.4,8.9,4.5,12.3
						c3.1,3.4,7.4,5.4,12,5.6c0.2,0,0.5,0,0.7,0c9.2,0,16.9-7.4,17.3-16.4l1.7-39.9c0.7-17.1-5.3-33.5-17-46.1
						c-12.1-13.1-28.8-20.7-46.9-21.3C-493.8,386.2-494.6,386.2-495.4,386.2L-495.4,386.2z"/>
				</g>
				<g>
					<path fill="#3E3A39" d="M-448,503.5c-0.2,0-0.4,0-0.6,0c-3.7-0.2-7.1-1.7-9.6-4.5c-2.5-2.7-3.7-6.1-3.5-9.7l1.9-39.8
						c0.4-9.2-2.8-18.1-9.1-24.9c-6.6-7.2-15.7-11.3-25.6-11.7c-0.5,0-0.9,0-1.4,0c-19.7,0-36.2,14.9-37.6,33.9l-3,39.6
						c-0.5,7.1-6.8,12.9-14,12.9c0,0,0,0,0,0c-0.2,0-0.4,0-0.6,0c-3.7-0.2-7-1.7-9.5-4.5c-2.4-2.7-3.5-6.2-3.3-9.8l3.2-39.5
						c2.7-32.9,31.3-58.6,65.1-58.6c0.8,0,1.6,0,2.4,0c17.2,0.6,33,7.8,44.5,20.2c11,11.9,16.7,27.4,16,43.5l-1.7,39.9
						C-434.5,497.6-440.7,503.5-448,503.5z"/>
					<path fill="#F7F7F7" d="M-495.4,390.3c0.8,0,1.5,0,2.3,0c32.8,1.2,58.5,27.8,57.1,60.1l-1.7,39.9c-0.2,5.4-4.9,9.7-10.3,9.7
						c-0.1,0-0.3,0-0.4,0c-5.6-0.2-10.1-5-9.8-10.5l1.9-39.8c1-21.5-16.1-39.5-38-40.3c-0.5,0-1,0-1.5,0
						c-21.3,0-39.5,16.3-41.1,37.2l-3,39.6c-0.4,5.4-5.1,9.6-10.5,9.6c-0.1,0-0.3,0-0.4,0c-5.6-0.2-9.8-5-9.4-10.5l3.2-39.5
						C-554.5,414.4-527.2,390.3-495.4,390.3 M-495.4,383.3c-35.6,0-65.8,27.1-68.6,61.8l-3.2,39.5c-0.4,4.5,1.1,8.9,4.1,12.4
						c3.1,3.5,7.3,5.5,11.9,5.7c0.2,0,0.5,0,0.7,0c9.1,0,16.8-7.1,17.5-16.1l3-39.6c0.6-8.3,4.5-16,10.9-21.7c6.4-5.8,14.7-9,23.2-9
						c0.4,0,0.9,0,1.3,0c9,0.3,17.2,4.1,23.2,10.6c5.7,6.2,8.5,14.1,8.1,22.4l-1.9,39.8c-0.2,4.5,1.4,8.9,4.5,12.3
						c3.1,3.4,7.4,5.4,12,5.6c0.2,0,0.5,0,0.7,0c9.2,0,16.9-7.4,17.3-16.4l1.7-39.9c0.7-17.1-5.3-33.5-17-46.1
						c-12.1-13.1-28.8-20.7-46.9-21.3C-493.8,383.3-494.6,383.3-495.4,383.3L-495.4,383.3z"/>
				</g>
			</g>
			<g id="XMLID_27_">
				<g>
					<path fill="#282626" d="M-550.9,497.1c5.6,0.2,10.5-4.1,10.9-9.6l3-39.6c1.6-21.4,20.7-37.9,42.6-37.1
						c22,0.8,39.1,18.8,38,40.3l-1.9,39.8c-0.3,5.5,4.2,10.3,9.8,10.5c5.6,0.2,10.5-4.2,10.7-9.7l1.7-39.9
						c1.4-32.2-24.3-58.9-57.1-60.1c-32.7-1.2-61.3,23.3-63.9,55.3l-3.2,39.5C-560.7,492.1-556.5,496.9-550.9,497.1z"/>
				</g>
				<g>
					<path fill="#3E3A39" d="M-550.9,495.7c5.6,0.2,10.5-4.1,10.9-9.6l3-39.6c1.6-21.4,20.7-37.9,42.6-37.1
						c22,0.8,39.1,18.8,38,40.3l-1.9,39.8c-0.3,5.5,4.2,10.3,9.8,10.5c5.6,0.2,10.5-4.2,10.7-9.7l1.7-39.9
						c1.4-32.2-24.3-58.9-57.1-60.1c-32.7-1.2-61.3,23.3-63.9,55.3l-3.2,39.5C-560.7,490.7-556.5,495.5-550.9,495.7z"/>
				</g>
			</g>
		</g>
	</g>
</g>
</svg>
